<?xml version="1.0" encoding="utf-8"?>
<!-- Generator: Adobe Illustrator 21.1.0, SVG Export Plug-In . SVG Version: 6.00 Build 0)  -->
<svg version="1.1" id="Layer_1" xmlns="http://www.w3.org/2000/svg" xmlns:xlink="http://www.w3.org/1999/xlink" x="0px" y="0px"
	 viewBox="0 0 318.5 87" style="enable-background:new 0 0 318.5 87;" xml:space="preserve">
<style type="text/css">
	.st0{fill:#1A2857;}
	.st1{fill:#24A7DF;}
</style>
<g>
	<path class="st0" d="M84.7,34.9v23.2h-8.6V1.1h9.8c4.8,0,8.4,0.3,10.8,1c2.5,0.7,4.6,1.9,6.5,3.8c3.3,3.2,4.9,7.2,4.9,12.1
		c0,5.2-1.7,9.4-5.2,12.4c-3.5,3.1-8.2,4.6-14.2,4.6H84.7z M84.7,27H88c7.9,0,11.9-3,11.9-9.1c0-5.9-4.1-8.8-12.2-8.8h-2.8V27z"/>
	<path class="st0" d="M116.9,29.3c0-8,2.9-14.9,8.8-20.7c5.9-5.8,12.9-8.6,21.1-8.6c8.1,0,15.1,2.9,20.9,8.7
		c5.8,5.8,8.8,12.8,8.8,21c0,8.2-2.9,15.2-8.8,20.9c-5.9,5.7-13,8.6-21.3,8.6c-7.4,0-14-2.6-19.8-7.7
		C120.1,45.9,116.9,38.5,116.9,29.3z M125.6,29.5c0,6.3,2.1,11.5,6.4,15.6c4.2,4.1,9.1,6.1,14.6,6.1c6,0,11-2.1,15.2-6.2
		c4.1-4.2,6.2-9.3,6.2-15.3c0-6.1-2-11.2-6.1-15.3c-4-4.1-9-6.2-15-6.2c-5.9,0-11,2.1-15,6.2C127.6,18.4,125.6,23.4,125.6,29.5z"/>
	<path class="st0" d="M196.9,1.1v49h16.8v8.1h-25.4V1.1H196.9z"/>
	<path class="st0" d="M234.2,1.1v49H251v8.1h-25.4V1.1H234.2z"/>
	<path class="st0" d="M253.9,29.3c0-8,2.9-14.9,8.8-20.7c5.9-5.8,12.9-8.6,21.1-8.6c8.1,0,15.1,2.9,20.9,8.7
		c5.8,5.8,8.8,12.8,8.8,21c0,8.2-2.9,15.2-8.8,20.9c-5.9,5.7-13,8.6-21.3,8.6c-7.4,0-14-2.6-19.8-7.7
		C257.1,45.9,253.9,38.5,253.9,29.3z M262.6,29.5c0,6.3,2.1,11.5,6.4,15.6c4.2,4.1,9.1,6.1,14.6,6.1c6,0,11-2.1,15.2-6.2
		c4.1-4.2,6.2-9.3,6.2-15.3c0-6.1-2-11.2-6.1-15.3c-4-4.1-9-6.2-15-6.2c-5.9,0-11,2.1-15,6.2C264.6,18.4,262.6,23.4,262.6,29.5z"/>
</g>
<g>
	<path class="st0" d="M10.1,58.1H0L30,1.1h6.7L66,58.1h-9.9l-23-42.9L10.1,58.1z"/>
</g>
<polygon class="st1" points="19.2,58.2 46.5,58.1 32.9,82.9 "/>
<circle class="st0" cx="33" cy="31.7" r="4.7"/>
<g>
	<path class="st0" d="M243.2,72.9c-0.9-0.9-1.8-1.6-2.7-2.1c-1-0.4-2-0.7-3.2-0.7c-0.9,0-1.9,0.2-2.8,0.6c-0.9,0.4-1.7,0.9-2.3,1.6
		c-0.7,0.7-1.2,1.5-1.5,2.4c-0.3,0.9-0.5,1.8-0.5,2.9c0,0.8,0.1,1.6,0.3,2.3c0.2,0.7,0.5,1.3,0.9,1.9c0.7,1,1.6,1.8,2.6,2.4
		c1,0.5,2.2,0.8,3.4,0.8c1.1,0,2.2-0.2,3.2-0.7c1-0.5,1.9-1.2,2.7-2.1V85c-0.9,0.6-1.8,1.1-2.9,1.5c-1,0.3-2.1,0.5-3.2,0.5
		c-0.9,0-1.9-0.1-2.8-0.4c-0.9-0.3-1.7-0.7-2.5-1.2c-1.3-0.9-2.3-2-3-3.3s-1-2.8-1-4.3c0-1.4,0.2-2.6,0.7-3.8
		c0.5-1.1,1.2-2.2,2.1-3.1c0.9-0.9,1.9-1.5,3-2c1.1-0.4,2.3-0.7,3.6-0.7c1,0,2,0.2,3,0.5c1,0.3,1.9,0.8,2.9,1.5V72.9z"/>
	<path class="st0" d="M252.8,67.9l8.1,18.6h-2.3l-2.3-5.5h-7l-2.3,5.5h-2.3L252.8,67.9z M252.8,72.6l-2.8,6.6h5.7L252.8,72.6z"/>
	<path class="st0" d="M265.1,78.5v8H263V68.6h3.7c1.3,0,2.3,0.1,2.9,0.2c0.6,0.1,1.2,0.4,1.6,0.7c0.6,0.4,1,1,1.3,1.7
		c0.3,0.7,0.5,1.5,0.5,2.4c0,0.9-0.2,1.6-0.5,2.4c-0.3,0.7-0.8,1.3-1.3,1.7c-0.5,0.3-1,0.6-1.6,0.7c-0.6,0.1-1.6,0.2-2.9,0.2h-0.6
		H265.1z M265.1,76.5h1.1c1.8,0,3-0.2,3.7-0.6c0.6-0.4,0.9-1.2,0.9-2.2c0-1.1-0.3-1.9-1-2.4c-0.6-0.5-1.9-0.7-3.7-0.7h-1.1V76.5z"/>
	<path class="st0" d="M276,86.5V68.6h2.1v17.9H276z"/>
	<path class="st0" d="M285.8,86.5V70.6h-5.1v-2H293v2h-5v15.8H285.8z"/>
	<path class="st0" d="M299.4,67.9l8.1,18.6h-2.3l-2.3-5.5h-7l-2.3,5.5h-2.3L299.4,67.9z M299.4,72.6l-2.8,6.6h5.7L299.4,72.6z"/>
	<path class="st0" d="M309.6,86.5V68.6h2.1v15.8h6.8v2H309.6z"/>
</g>
</svg>
