<?xml version="1.0" standalone="no"?>
<!DOCTYPE svg PUBLIC "-//W3C//DTD SVG 1.1//EN" "http://www.w3.org/Graphics/SVG/1.1/DTD/svg11.dtd" >
<svg xmlns="http://www.w3.org/2000/svg" xmlns:xlink="http://www.w3.org/1999/xlink" version="1.1">
<metadata>
Created by FontForge 20170731 at Mon Nov  2 15:35:01 2020
 By Aleksey,,,
Copyright (c) 2012 Veronika Burian, Jose Scaglione. All rights reserved.
</metadata>
<defs>
<font id="AdelleSansEXT-Regular" horiz-adv-x="1167" >
  <font-face 
    font-family="Adelle Sans EXT"
    font-weight="400"
    font-stretch="expanded"
    units-per-em="2048"
    panose-1="2 11 5 5 0 0 0 0 0 0"
    ascent="1638"
    descent="-410"
    x-height="1053"
    cap-height="1483"
    bbox="-524 -598 2558 2341"
    underline-thickness="145"
    underline-position="-659"
    unicode-range="U+000D-FB06"
  />
<missing-glyph 
d="M205 1483h758v-1483h-758v1483zM266 1421v-1290l600 1290h-600zM901 61v1291l-600 -1289z" />
    <glyph glyph-name="fi" unicode="fi" horiz-adv-x="1171" 
d="M827 0v903h-452v-903h-187v903h-155v150h155v170q0 171 79 257.5t229 86.5q100 0 168 -31l-7 -145q-61 22 -129 22q-74 0 -113.5 -41t-39.5 -141v-178h639v-1053h-187zM1055 1395q0 -63 -35 -98t-98 -35q-62 0 -96.5 35t-34.5 98q0 65 34.5 99t96.5 34q64 0 98.5 -34
t34.5 -99z" />
    <glyph glyph-name="fl" unicode="fl" horiz-adv-x="1171" 
d="M676 1389q-74 24 -146 24q-75 0 -115 -41t-40 -141v-178h284v-150h-284v-903h-187v903h-155v150h155v170q0 171 79 257.5t229 86.5q111 0 188 -35zM827 0v1546h187v-1546h-187z" />
    <glyph glyph-name="f_f" unicode="ff" horiz-adv-x="1306" 
d="M188 1053v170q0 171 79 257.5t229 86.5q111 0 188 -35l-8 -143q-74 24 -146 24q-75 0 -115 -41t-40 -141v-178h452v170q0 171 81.5 257.5t232.5 86.5q113 0 190 -35l-6 -143q-76 26 -147 26q-79 0 -121.5 -41t-42.5 -145v-176h293v-150h-293v-903h-187v903h-452v-903
h-187v903h-155v150h155z" />
    <glyph glyph-name="f_k" unicode="fk" horiz-adv-x="1748" 
d="M676 1389q-74 24 -146 24q-75 0 -115 -41t-40 -141v-178h284v-150h-284v-903h-187v903h-155v150h155v170q0 171 79 257.5t229 86.5q111 0 188 -35zM1464 1053h213l-364 -379l391 -674h-205l-323 543l-162 -160v-383h-187v1546h187v-956z" />
    <glyph glyph-name="f_b" unicode="fb" horiz-adv-x="1851" 
d="M676 1389q-74 24 -146 24q-75 0 -115 -41t-40 -141v-178h284v-150h-284v-903h-187v903h-155v150h155v170q0 171 79 257.5t229 86.5q111 0 188 -35zM827 1546h185v-610q156 139 356 139q85 0 152 -28t120 -87.5t82 -163t29 -245.5q0 -149 -34.5 -262t-96.5 -180.5
t-140.5 -100.5t-172.5 -33q-155 0 -306 117h-2l-10 -92h-162v1546zM1014 242q2 -2 17.5 -12.5t22.5 -15t24.5 -15t29 -16.5t30 -15t34 -14t34.5 -10.5t38.5 -8t39.5 -2.5q275 0 275 420q0 189 -60 277t-190 88q-80 0 -159.5 -39.5t-135.5 -92.5v-544z" />
    <glyph glyph-name="f_h" unicode="fh" horiz-adv-x="1855" 
d="M676 1389q-74 24 -146 24q-75 0 -115 -41t-40 -141v-178h284v-148h-284v-905h-187v905h-155v148h155v170q0 171 79 257.5t229 86.5q111 0 188 -35zM1518 0v686q0 113 -46 169t-151 56q-81 0 -168.5 -41t-138.5 -86v-784h-187v1546h185v-612q183 141 370 141
q165 0 243.5 -89.5t78.5 -270.5v-715h-186z" />
    <glyph glyph-name="f_t" unicode="ft" horiz-adv-x="1404" 
d="M1014 903v-602q0 -89 31.5 -130.5t119.5 -41.5q45 0 96.5 15.5t86.5 35.5l34 -135q-41 -28 -114.5 -49t-143.5 -21q-151 0 -224 72.5t-73 228.5v627h-452v-903h-187v903h-155v150h155v170q0 171 79 257.5t229 86.5q111 0 188 -35l-8 -143q-74 24 -146 24q-75 0 -115 -41
t-40 -141v-178h452v305l187 28v-333h289v-150h-289z" />
    <glyph glyph-name="f_j" unicode="fj" horiz-adv-x="1165" 
d="M715 -457q-52 0 -111 12t-88 29l21 152q79 -31 153 -31q67 0 102 38t35 128v1032h-452v-903h-187v903h-155v150h155v170q0 171 79 257.5t229 86.5q108 0 180 -33l-8 -145q-67 24 -140 24q-74 0 -113.5 -41t-39.5 -141v-178h639v-1190q0 -320 -299 -320zM1057 1407
q0 -135 -131 -135q-63 0 -98 36t-35 99t35 98t98 35t97 -35t34 -98z" />
    <glyph glyph-name="f_f_j" unicode="ffj" horiz-adv-x="1802" 
d="M1352 -457q-52 0 -111 12t-88 29l21 152q79 -31 153 -31q67 0 102 38t35 128v1032h-452v-903h-187v903h-450v-903h-187v903h-155v150h155v170q0 171 79 257.5t229 86.5q111 0 188 -35l-8 -143q-74 24 -146 24q-75 0 -115 -41t-40 -141v-178h450v170q0 171 79 257.5
t229 86.5q108 0 180 -33l-8 -145q-67 24 -140 24q-74 0 -113.5 -41t-39.5 -141v-178h639v-1190q0 -320 -299 -320zM1694 1407q0 -135 -131 -135q-63 0 -98 36t-35 99t35 98t98 35t97 -35t34 -98z" />
    <glyph glyph-name="f_f_i" unicode="ffi" horiz-adv-x="1810" 
d="M1466 0v903h-452v-903h-187v903h-452v-903h-187v903h-155v150h155v170q0 171 79 257.5t229 86.5q111 0 188 -35l-8 -143q-74 24 -146 24q-75 0 -115 -41t-40 -141v-178h452v170q0 171 79 257.5t229 86.5q100 0 168 -31l-7 -145q-61 22 -129 22q-74 0 -113.5 -41
t-39.5 -141v-178h639v-1053h-187zM1694 1395q0 -63 -35 -98t-98 -35q-62 0 -96.5 35t-34.5 98q0 65 34.5 99t96.5 34q64 0 98.5 -34t34.5 -99z" />
    <glyph glyph-name="f_f_l" unicode="ffl" horiz-adv-x="1810" 
d="M1315 1389q-74 24 -146 24q-75 0 -115 -41t-40 -141v-178h284v-150h-284v-903h-187v903h-452v-903h-187v903h-155v150h155v170q0 171 79 257.5t229 86.5q111 0 188 -35l-8 -143q-74 24 -146 24q-75 0 -115 -41t-40 -141v-178h452v170q0 171 79 257.5t229 86.5
q111 0 188 -35zM1466 0v1546h187v-1546h-187z" />
    <glyph glyph-name="f_f_k" unicode="ffk" horiz-adv-x="2387" 
d="M1315 1389q-74 24 -146 24q-75 0 -115 -41t-40 -141v-178h284v-150h-284v-903h-187v903h-452v-903h-187v903h-155v150h155v170q0 171 79 257.5t229 86.5q111 0 188 -35l-8 -143q-74 24 -146 24q-75 0 -115 -41t-40 -141v-178h452v170q0 171 79 257.5t229 86.5
q111 0 188 -35zM2103 1053h213l-364 -379l391 -674h-205l-323 543l-162 -160v-383h-187v1546h187v-956z" />
    <glyph glyph-name="f_f_b" unicode="ffb" horiz-adv-x="2490" 
d="M1466 1546h185v-610q156 139 356 139q85 0 152 -28t120 -87.5t82 -163t29 -245.5q0 -149 -34.5 -262t-96.5 -180.5t-140.5 -100.5t-172.5 -33q-155 0 -306 117h-2l-10 -92h-162v1546zM1315 1389q-74 24 -146 24q-75 0 -115 -41t-40 -141v-178h284v-150h-284v-903h-187
v903h-452v-903h-187v903h-155v150h155v170q0 171 79 257.5t229 86.5q111 0 188 -35l-8 -143q-74 24 -146 24q-75 0 -115 -41t-40 -141v-178h452v170q0 171 79 257.5t229 86.5q111 0 188 -35zM1653 242q2 -2 17.5 -12.5t22.5 -15t24.5 -15t29 -16.5t30 -15t34 -14t34.5 -10.5
t38.5 -8t39.5 -2.5q275 0 275 420q0 189 -60 277t-190 88q-80 0 -159.5 -39.5t-135.5 -92.5v-544z" />
    <glyph glyph-name="f_f_h" unicode="ffh" horiz-adv-x="2494" 
d="M1315 1389q-74 24 -146 24q-75 0 -115 -41t-40 -141v-178h284v-148h-284v-905h-187v905h-452v-905h-187v905h-155v148h155v170q0 171 79 257.5t229 86.5q111 0 188 -35l-8 -143q-74 24 -146 24q-75 0 -115 -41t-40 -141v-178h452v170q0 171 79 257.5t229 86.5
q111 0 188 -35zM2157 0v686q0 113 -46 169t-151 56q-81 0 -168.5 -41t-138.5 -86v-784h-187v1546h185v-612q183 141 370 141q165 0 243.5 -89.5t78.5 -270.5v-715h-186z" />
    <glyph glyph-name="f_f_t" unicode="fft" horiz-adv-x="2041" 
d="M825 1053v170q0 171 79 257.5t229 86.5q111 0 188 -35l-8 -143q-74 24 -146 24q-75 0 -115 -41t-40 -141v-178h452v305l187 28v-333h288v-150h-288v-602q0 -89 31.5 -130.5t119.5 -41.5q45 0 96.5 15.5t86.5 35.5l34 -135q-41 -28 -114.5 -49t-143.5 -21
q-151 0 -224 72.5t-73 228.5v627h-452v-903h-187v903h-450v-903h-187v903h-155v150h155v170q0 171 79 257.5t229 86.5q111 0 188 -35l-8 -143q-74 24 -146 24q-75 0 -115 -41t-40 -141v-178h450z" />
    <glyph glyph-name="f_iacute" unicode="f&#xed;" horiz-adv-x="1171" 
d="M827 0v903h-452v-903h-187v903h-155v150h155v170q0 171 79 257.5t229 86.5q108 0 180 -33l-8 -145q-67 24 -140 24q-74 0 -113.5 -41t-39.5 -141v-178h639v-1053h-187zM805 1196l199 334h223l-287 -359z" />
    <glyph glyph-name="idieresis_idieresis" unicode="&#xef;&#xef;" horiz-adv-x="989" 
d="M41 1276q-58 0 -92.5 32t-34.5 87t34.5 86.5t92.5 31.5q56 0 90.5 -31.5t34.5 -86.5t-34.5 -87t-90.5 -32zM506 1276q-58 0 -92.5 32t-34.5 87t34.5 86.5t92.5 31.5q56 0 90.5 -31.5t34.5 -86.5t-34.5 -87t-90.5 -32zM956 1276q-58 0 -92.5 32t-34.5 87t34.5 86.5
t92.5 31.5q57 0 91 -31.5t34 -86.5t-34 -87t-91 -32zM160 0v1053h186v-1053h-186zM653 0v1053h187v-1053h-187z" />
    <glyph glyph-name="t_t" unicode="tt" horiz-adv-x="1431" 
d="M1409 45q-41 -28 -114.5 -49t-143.5 -21q-150 0 -223.5 72.5t-73.5 228.5v627h-469v-602q0 -89 31 -130.5t119 -41.5q41 0 91 14t83 33l34 -135q-40 -27 -110 -46.5t-137 -19.5q-150 0 -223.5 72.5t-73.5 228.5v627h-162v150h162v305l186 28v-333h469v305l186 28v-333
h291v-150h-291v-602q0 -89 31.5 -130.5t120.5 -41.5q45 0 97 15.5t87 35.5z" />
    <glyph glyph-name=".notdef" 
d="M205 1483h758v-1483h-758v1483zM266 1421v-1290l600 1290h-600zM901 61v1291l-600 -1289z" />
    <glyph glyph-name=".null" horiz-adv-x="0" 
 />
    <glyph glyph-name="nonmarkingreturn" horiz-adv-x="682" 
 />
    <glyph glyph-name="CR" unicode="&#xd;" horiz-adv-x="1024" 
 />
    <glyph glyph-name="space" unicode=" " horiz-adv-x="438" 
 />
    <glyph glyph-name="exclam" unicode="!" horiz-adv-x="544" 
d="M168 1483h209l-33 -1098h-141zM412 106q0 -131 -138 -131q-137 0 -137 131q0 134 137 134q138 0 138 -134z" />
    <glyph glyph-name="quotedbl" unicode="&#x22;" horiz-adv-x="739" 
d="M436 1483h185v-531h-185v531zM119 1483h184v-531h-184v531z" />
    <glyph glyph-name="numbersign" unicode="#" horiz-adv-x="1243" 
d="M702 295h-247l-45 -295h-148l43 295h-235l32 141h226l47 297h-236l29 144h227l39 268h150l-41 -268h243l39 268h150l-41 -268h235l-26 -144h-230l-43 -297h234l-29 -141h-225l-45 -295h-148zM522 733l-47 -297h248l43 297h-244z" />
    <glyph glyph-name="dollar" unicode="$" horiz-adv-x="1083" 
d="M805 1059q-13 66 -31 109.5t-56.5 77.5t-96.5 46v-491q67 -18 117.5 -37t100.5 -50.5t82 -72t52 -100.5t20 -135q0 -169 -98 -270.5t-272 -125.5v-176h-154v174q-83 6 -147.5 27.5t-121 65t-92 118.5t-47.5 180l170 35q25 -137 77 -201t169 -75v493q-64 18 -109.5 36
t-97 50t-83.5 71.5t-53 101t-21 139.5q0 177 102 276q104 98 256 119v178h156v-172q312 -28 350 -365zM809 389q0 95 -49 145t-139 78v-450q188 38 188 227zM297 1073q0 -84 41.5 -139.5t138.5 -91.5v450q-97 -19 -138.5 -78.5t-41.5 -140.5z" />
    <glyph glyph-name="percent" unicode="%" horiz-adv-x="1640" 
d="M385 766q-89 0 -154.5 29t-102.5 80.5t-54 113.5t-17 137q0 175 89 279t255 104t245 -94t79 -262q0 -176 -88.5 -281.5t-251.5 -105.5zM391 901q95 0 133.5 62t38.5 182q0 112 -37 171.5t-131 59.5q-48 0 -83.5 -19.5t-55 -53.5t-28.5 -74.5t-9 -89.5q0 -115 39 -176.5
t133 -61.5zM1206 -25q-89 0 -154.5 29t-102 81t-53.5 114t-17 137q0 175 89 279t255 104t244.5 -94t78.5 -263q0 -176 -88.5 -281.5t-251.5 -105.5zM1212 111q95 0 133.5 61.5t38.5 181.5q0 113 -36.5 172.5t-130.5 59.5q-49 0 -85 -19.5t-55.5 -54t-28 -75t-8.5 -89.5
q0 -114 39 -175.5t133 -61.5zM1153 1483h166l-897 -1516h-168z" />
    <glyph glyph-name="ampersand" unicode="&#x26;" horiz-adv-x="1431" 
d="M995 1149q0 -233 -307 -365l-74 -32q69 -113 172 -240q85 -108 175 -205q101 140 104 395h166q-4 -308 -152 -497q102 -74 183 -74q48 0 94 21l33 -140q-60 -35 -148 -35q-80 0 -146.5 27.5t-138.5 81.5q-144 -111 -378 -111q-207 0 -335 114.5t-128 291.5
q0 144 68.5 241t207.5 169q-80 154 -80 294q0 148 106.5 246.5t268.5 98.5q58 0 108 -12.5t97.5 -41.5t75.5 -87t28 -140zM604 125q144 0 236 61q-117 115 -236 273q-91 122 -149 213q-74 -45 -114 -109.5t-40 -163.5q0 -54 18.5 -102.5t55 -87t95.5 -61.5t134 -23z
M494 1106q0 -113 61 -238q0 -1 18.5 7t36.5 15.5t17 6.5q204 89 204 244q0 63 -40 103t-115 40q-81 0 -131.5 -46.5t-50.5 -131.5z" />
    <glyph glyph-name="quotesingle" unicode="'" horiz-adv-x="421" 
d="M119 1483h184v-531h-184v531z" />
    <glyph glyph-name="parenleft" unicode="(" horiz-adv-x="649" 
d="M406 -311q-62 95 -109 183.5t-92 201t-69.5 239.5t-24.5 260q0 462 313 910h192q-153 -239 -232 -456t-79 -449q0 -134 21.5 -255.5t65 -233t89.5 -200.5t115 -202z" />
    <glyph glyph-name="parenright" unicode=")" horiz-adv-x="649" 
d="M10 1483h193q313 -448 313 -910q0 -133 -24.5 -260t-69.5 -239.5t-92 -201t-109 -183.5l-190 -2q68 109 115.5 200.5t90.5 202.5t64 232.5t21 255.5q0 232 -79 448.5t-233 456.5z" />
    <glyph glyph-name="asterisk" unicode="*" horiz-adv-x="964" 
d="M821 1329l27 -88l-244 -123l162 -246l-70 -55l-217 205l-215 -211l-69 59l159 248l-248 121l29 88l266 -63l39 282h86l33 -282z" />
    <glyph glyph-name="plus" unicode="+" 
d="M498 573h-301v170h301v308h170v-308h301v-170h-301v-311h-170v311z" />
    <glyph glyph-name="comma" unicode="," horiz-adv-x="446" 
d="M350 217l-172 -481l-149 18l114 463h207z" />
    <glyph glyph-name="hyphen" unicode="-" horiz-adv-x="647" 
d="M41 692h555v-178h-555v178z" />
    <glyph glyph-name="period" unicode="." horiz-adv-x="462" 
d="M371 113q0 -138 -140 -138q-139 0 -139 138q0 137 139 137q140 0 140 -137z" />
    <glyph glyph-name="slash" unicode="/" horiz-adv-x="776" 
d="M590 1546h168l-574 -1734h-170z" />
    <glyph glyph-name="zero" unicode="0" horiz-adv-x="1150" 
d="M569 -25q-99 0 -176.5 25.5t-130 75.5t-88 115t-55 155t-27.5 183t-8 210q0 137 14.5 248t50 210.5t92 166.5t145.5 106t206 39q85 0 154 -20t118 -54.5t85.5 -88.5t58.5 -114.5t35.5 -139.5t18.5 -156t5 -172q0 -147 -12.5 -260.5t-46 -216t-88.5 -169t-143.5 -105
t-207.5 -38.5zM578 129q74 0 128 30t87.5 81t53.5 132t27 170t7 208q0 98 -4.5 172t-16 145.5t-32.5 121t-53 88t-79.5 57t-109.5 18.5q-75 0 -131 -28.5t-91 -79t-56.5 -130t-29.5 -170t-8 -211.5q0 -94 4.5 -167t16.5 -144.5t34 -122t55.5 -91t83 -60t114.5 -19.5z" />
    <glyph glyph-name="one" unicode="1" horiz-adv-x="845" 
d="M414 1227q-46 -28 -152 -48t-166 -20l-14 152q146 12 244.5 52t165.5 120h106v-1483h-184v1227z" />
    <glyph glyph-name="two" unicode="2" horiz-adv-x="1071" 
d="M547 1509q190 0 297.5 -92t107.5 -276q0 -68 -15 -131t-37.5 -115.5t-68 -119t-87 -118.5t-113.5 -137l-301 -352v-4h643v-164h-860v156l348 419q76 90 114 138t81.5 110t62 105t31 95t12.5 110q0 219 -234 219q-56 0 -98.5 -12.5t-69.5 -33t-46.5 -54t-29.5 -67
t-18 -81.5l-170 31q28 194 146 284t305 90z" />
    <glyph glyph-name="three" unicode="3" horiz-adv-x="1107" 
d="M254 356q9 -37 16 -61t20 -52.5t30.5 -45.5t43.5 -32.5t63.5 -22.5t86.5 -7q123 0 202 70.5t79 216.5q0 150 -81.5 215t-230.5 65h-133v158h94q154 0 242 74.5t88 198.5q0 221 -233 221q-130 0 -183 -56q-52 -52 -79 -155l-166 37q64 329 448 329q192 0 296 -94.5
t104 -255.5q0 -80 -26 -144.5t-70 -106.5t-92 -68t-101 -39v-6q315 -57 315 -377q0 -200 -130.5 -321.5t-346.5 -121.5q-182 0 -296 83.5t-136 260.5z" />
    <glyph glyph-name="four" unicode="4" horiz-adv-x="1132" 
d="M729 365h-684v139l633 979h233v-959h174v-159h-176v-365h-180v365zM731 1298l-502 -774h502v774z" />
    <glyph glyph-name="five" unicode="5" horiz-adv-x="1107" 
d="M911 1483v-164h-563l-43 -477q124 100 291 100q64 0 120 -13.5t109 -46.5t91 -83.5t60.5 -130t22.5 -179.5q0 -232 -133 -373t-362 -141q-82 0 -154 20t-133 60t-102 108.5t-54 158.5l175 43q11 -49 27 -85t45.5 -71t79.5 -53.5t118 -18.5q58 0 109.5 19.5t95 58.5
t69 108t25.5 160q0 156 -72 227.5t-196 71.5q-146 0 -265 -112l-127 57l58 756h708z" />
    <glyph glyph-name="six" unicode="6" horiz-adv-x="1157" 
d="M877 1149q-25 118 -79 162.5t-145 44.5q-67 0 -121 -26.5t-90.5 -73.5t-63.5 -105t-42 -130t-22 -138t-9 -138q59 66 157.5 112t207.5 46q191 0 292 -114.5t101 -311.5q0 -241 -129 -373q-126 -129 -334 -129q-82 0 -149 20t-115.5 54.5t-85.5 87t-60.5 112t-38 134
t-20.5 149.5t-6 162q0 76 6.5 150t23.5 156.5t43.5 154t70 138t98.5 113.5t133.5 75t171.5 28q154 0 247.5 -72.5t124.5 -242.5zM315 586q3 -74 11 -133.5t28 -123t50.5 -105.5t82 -69.5t119.5 -27.5q121 0 194.5 87t73.5 249q0 282 -241 282q-85 0 -169.5 -46t-148.5 -113z
" />
    <glyph glyph-name="seven" unicode="7" horiz-adv-x="1048" 
d="M809 1319h-737v164h934v-144l-605 -1339h-198z" />
    <glyph glyph-name="eight" unicode="8" horiz-adv-x="1105" 
d="M727 784q74 -33 124 -64.5t95.5 -78t67.5 -110.5t22 -148q0 -177 -134 -292.5t-357 -115.5q-120 0 -212 29.5t-147.5 82t-83.5 120.5t-28 149q0 144 81.5 240.5t229.5 163.5q-262 123 -262 360q0 189 127.5 289t331.5 100q201 0 314.5 -90.5t113.5 -249.5
q0 -127 -73 -220t-210 -165zM528 682q-63 -29 -105.5 -56t-81.5 -64t-58 -85t-19 -108q0 -109 69.5 -172.5t217.5 -63.5q149 0 220 72t71 178q0 50 -20 92.5t-48.5 71.5t-74.5 56.5t-82.5 43.5t-88.5 35zM573 852q248 127 248 307q0 98 -60.5 147.5t-189.5 49.5
q-120 0 -189 -55t-69 -154q0 -45 15.5 -84t37.5 -67t60.5 -56.5t69 -46t77.5 -41.5z" />
    <glyph glyph-name="nine" unicode="9" horiz-adv-x="1157" 
d="M264 348q28 -119 91 -169t167 -50q74 0 131.5 32t95 86t62 132t35 161.5t12.5 182.5q-57 -63 -156 -109.5t-208 -46.5q-192 0 -292 117.5t-100 325.5q0 236 130 367.5t341 131.5q112 0 195.5 -38.5t134 -102t81.5 -158.5t42.5 -194.5t11.5 -224.5q0 -90 -6 -169
t-21.5 -163.5t-40.5 -153.5t-66 -131.5t-94.5 -105.5t-129.5 -68t-168 -25q-352 0 -416 324zM848 885q-2 54 -6 96t-13 93.5t-21.5 89.5t-34.5 76t-51 62t-70.5 39t-92.5 15q-123 0 -196.5 -85t-73.5 -255q0 -293 241 -293q88 0 173 45.5t145 116.5z" />
    <glyph glyph-name="colon" unicode=":" horiz-adv-x="462" 
d="M371 113q0 -138 -140 -138q-139 0 -139 138q0 137 139 137q140 0 140 -137zM371 889q0 -137 -140 -137q-139 0 -139 137t139 137q140 0 140 -137z" />
    <glyph glyph-name="semicolon" unicode=";" horiz-adv-x="446" 
d="M332 217l-172 -481l-150 18l115 463h207zM395 889q0 -137 -139 -137t-139 137t139 137t139 -137z" />
    <glyph glyph-name="less" unicode="&#x3c;" 
d="M170 688l776 313v-172l-606 -235l606 -227v-177l-776 297v201z" />
    <glyph glyph-name="equal" unicode="=" 
d="M201 496h766v-174h-766v174zM201 831h766v-174h-766v174z" />
    <glyph glyph-name="greater" unicode="&#x3e;" 
d="M186 1001l777 -313v-192l-777 -295v166l607 227l-607 231v176z" />
    <glyph glyph-name="question" unicode="?" horiz-adv-x="1040" 
d="M319 750q92 8 162 26t134.5 54t99.5 99.5t35 151.5q0 72 -19 122t-55 77t-78.5 38t-99.5 11q-113 0 -183 -52t-98 -181l-174 30q13 76 45 139t86.5 114.5t140 80.5t195.5 29q71 0 132.5 -12t117.5 -41.5t95.5 -74.5t63 -115t23.5 -159q0 -104 -33 -184.5t-94.5 -135
t-138.5 -89t-176 -55.5v-240h-181v367zM543 106q0 -131 -137 -131q-138 0 -138 131q0 134 138 134q137 0 137 -134z" />
    <glyph glyph-name="at" unicode="@" horiz-adv-x="1724" 
d="M1378 -211q-85 -74 -215 -111.5t-286 -37.5q-165 0 -305 47t-246.5 137.5t-167 235t-60.5 327.5q0 233 101 412t284.5 277t421.5 98q156 0 287.5 -43t229.5 -124.5t153 -208.5t55 -286q0 -261 -96.5 -390.5t-261.5 -129.5q-84 0 -144.5 30.5t-85.5 81.5
q-39 -55 -103 -87.5t-142 -32.5q-81 0 -140.5 29.5t-94 82.5t-50.5 120t-16 149q0 196 96 322t254 126q111 0 188 -74l10 62h127v-520q0 -41 3 -66t13.5 -50.5t34 -37.5t60.5 -12q87 0 140 99.5t53 270.5q0 276 -148.5 412.5t-435.5 136.5q-149 0 -270 -50t-199.5 -137
t-121 -203.5t-42.5 -250.5q0 -157 47.5 -276t134.5 -192t201 -109.5t254 -36.5q252 0 410 125zM1026 625q-71 61 -160 61q-94 0 -153.5 -76.5t-59.5 -232.5q0 -121 40.5 -192.5t129.5 -71.5q64 0 117 34t86 93v385z" />
    <glyph glyph-name="A" unicode="A" horiz-adv-x="1406" 
d="M1335 0h-207l-149 440h-569l-146 -440h-190l499 1483h246zM692 1311l-237 -709h477l-238 709h-2z" />
    <glyph glyph-name="B" unicode="B" horiz-adv-x="1286" 
d="M197 1483h510q127 0 216.5 -27t138.5 -78.5t70 -114t21 -143.5q0 -147 -81 -232.5t-214 -115.5v-4q354 -45 354 -367q0 -111 -39.5 -190.5t-114.5 -125t-171.5 -65.5t-222.5 -20h-467v1483zM637 158q72 0 123.5 5t102 21t82 43.5t50.5 74.5t19 112q0 71 -26 123t-73 82.5
t-105.5 44.5t-131.5 14h-295v-520h254zM598 834q53 0 100.5 6t97.5 23.5t85.5 45.5t58.5 75.5t23 109.5q0 133 -74 183t-236 50h-270v-493h215z" />
    <glyph glyph-name="C" unicode="C" horiz-adv-x="1417" 
d="M754 -25q-171 0 -298 53.5t-203.5 153.5t-113.5 233.5t-37 303.5q0 371 186.5 580.5t504.5 209.5q235 0 383 -118q152 -122 167 -379l-176 -19q-21 178 -109.5 265.5t-266.5 87.5q-233 0 -363.5 -155.5t-130.5 -455.5q0 -311 119.5 -454.5t349.5 -143.5q173 0 267 76.5
t130 235.5l170 -35q-14 -96 -54.5 -172t-96 -125.5t-127.5 -82t-146 -46t-155 -13.5z" />
    <glyph glyph-name="D" unicode="D" horiz-adv-x="1490" 
d="M197 1483h456q374 0 555 -188t181 -531q0 -173 -46.5 -311.5t-139 -240.5t-241 -157t-344.5 -55h-421v1483zM621 160q285 0 429 150t144 427q0 134 -24.5 234.5t-69.5 167.5t-115 108t-154.5 58.5t-193.5 17.5h-252v-1163h236z" />
    <glyph glyph-name="E" unicode="E" horiz-adv-x="1177" 
d="M1090 164v-164h-893v1483h866v-164h-678v-490h637v-163h-637v-502h705z" />
    <glyph glyph-name="F" unicode="F" horiz-adv-x="1120" 
d="M197 0v1483h866v-164h-678v-514h627v-164h-627v-641h-188z" />
    <glyph glyph-name="G" unicode="G" horiz-adv-x="1507" 
d="M1182 201q-40 -96 -166.5 -161t-280.5 -65q-164 0 -286.5 54.5t-197.5 155t-112 235.5t-37 303q0 374 185 580t510 206q514 0 549 -493l-181 -19q-19 180 -110 264.5t-264 84.5q-235 0 -364.5 -159t-129.5 -448q0 -135 23.5 -239.5t64.5 -172.5t101.5 -111.5t130.5 -62
t155 -18.5q96 0 173.5 31t124.5 82t72 113t25 128v127h-393v154h572v-770h-138z" />
    <glyph glyph-name="H" unicode="H" horiz-adv-x="1490" 
d="M1106 0v672h-721v-672h-188v1483h188v-641h721v641h188v-1483h-188z" />
    <glyph glyph-name="I" unicode="I" horiz-adv-x="581" 
d="M197 0v1483h188v-1483h-188z" />
    <glyph glyph-name="J" unicode="J" horiz-adv-x="1021" 
d="M844 1483v-1108q0 -213 -104 -306.5t-302 -93.5q-183 0 -278 83.5t-107 263.5l180 30q7 -56 17 -90.5t31.5 -66t61 -46t99.5 -14.5q50 0 85.5 9t66 33.5t46 71.5t15.5 118v1116h189z" />
    <glyph glyph-name="K" unicode="K" horiz-adv-x="1318" 
d="M1051 1483h211l-584 -635l612 -848h-221l-520 700l-164 -174v-526h-188v1483h188v-723z" />
    <glyph glyph-name="L" unicode="L" horiz-adv-x="1130" 
d="M1053 166v-166h-856v1483h188v-1317h668z" />
    <glyph glyph-name="M" unicode="M" horiz-adv-x="1837" 
d="M1462 0v1280h-2l-448 -1280h-197l-440 1282h-4v-1282h-174v1483h286l437 -1262h2l436 1262h282v-1483h-178z" />
    <glyph glyph-name="N" unicode="N" horiz-adv-x="1525" 
d="M373 1243v-1243h-176v1483h247l711 -1231v1231h174v-1483h-227z" />
    <glyph glyph-name="O" unicode="O" horiz-adv-x="1554" 
d="M768 -25q-135 0 -245 37.5t-188 105t-130.5 163t-77.5 211t-25 249.5q0 222 79 394t238.5 273t379.5 101q132 0 240.5 -37.5t184.5 -104t127.5 -159.5t76 -203t24.5 -235q0 -368 -176 -581.5t-508 -213.5zM778 141q221 0 351.5 154t130.5 457q0 288 -124.5 439.5
t-342.5 151.5q-223 0 -358.5 -155.5t-135.5 -444.5q0 -294 129 -448t350 -154z" />
    <glyph glyph-name="P" unicode="P" horiz-adv-x="1261" 
d="M197 0v1483h483q111 0 197.5 -24t141.5 -64.5t90.5 -98.5t50 -121t14.5 -137q0 -499 -566 -499h-225v-539h-186zM594 700q89 0 153 13t119.5 47t84 101t28.5 167q0 157 -86 226t-268 69h-242v-623h211z" />
    <glyph glyph-name="Q" unicode="Q" horiz-adv-x="1554" 
d="M768 -25q-134 0 -243.5 37.5t-187.5 105t-131 163t-78.5 211t-25.5 249.5q0 222 79 394t238.5 273t379.5 101q132 0 240.5 -37.5t184.5 -104t127.5 -159.5t76 -203t24.5 -235q0 -385 -192 -592l182 -196l-111 -105l-188 203q-142 -105 -375 -105zM778 137q143 0 250 64
l-270 284l116 111l269 -295q119 177 119 451q0 288 -125.5 439.5t-343.5 151.5q-223 0 -358.5 -155.5t-135.5 -444.5q0 -300 133 -454q134 -152 346 -152z" />
    <glyph glyph-name="R" unicode="R" horiz-adv-x="1292" 
d="M1057 0l-340 616h-334v-616h-186v1483h508q107 0 191 -23t137.5 -60.5t88 -90.5t48.5 -109.5t14 -120.5q0 -161 -76 -264t-211 -149l365 -666h-205zM659 774q159 0 244.5 66t85.5 229q0 151 -94 203q-92 51 -254 51h-258v-549h276z" />
    <glyph glyph-name="S" unicode="S" horiz-adv-x="1193" 
d="M612 1350q-161 0 -235 -63t-74 -169q0 -51 19.5 -92t49.5 -68.5t77.5 -51t93.5 -39t106 -34.5q5 -1 8 -2q172 -52 240 -86q162 -80 200 -224q13 -50 13 -109q0 -113 -43 -199t-117 -137t-166 -76t-198 -25q-239 0 -376 102.5t-165 325.5l180 27q12 -52 27 -91t43 -79.5
t65.5 -66t95.5 -42t132 -16.5q65 0 120 12t104 38.5t77.5 77.5t28.5 122q0 39 -10.5 71.5t-26.5 57t-44 46t-53.5 35.5t-66.5 29t-71 24t-77 22q-174 48 -248 85q-164 81 -199 240q-11 49 -11 105q0 187 140.5 298t358.5 111q102 0 182.5 -21t147 -67.5t107 -129.5
t51.5 -199l-176 -21q-8 60 -25 105t-50.5 87t-93 64.5t-141.5 22.5z" />
    <glyph glyph-name="T" unicode="T" horiz-adv-x="1134" 
d="M475 1319h-448v164h1081v-164h-444v-1319h-189v1319z" />
    <glyph glyph-name="U" unicode="U" horiz-adv-x="1462" 
d="M733 139q184 0 270.5 85.5t86.5 289.5v969h186v-985q0 -262 -142 -392.5t-409 -130.5q-280 0 -410.5 131.5t-130.5 395.5v981h189v-963q0 -200 89.5 -290.5t270.5 -90.5z" />
    <glyph glyph-name="V" unicode="V" horiz-adv-x="1271" 
d="M20 1483h211l420 -1301h2l406 1301h192l-475 -1483h-256z" />
    <glyph glyph-name="W" unicode="W" horiz-adv-x="1818" 
d="M918 1219h-3l-323 -1219h-234l-323 1483h196l254 -1262h2l328 1262h209l328 -1278h2l243 1278h189l-313 -1483h-240z" />
    <glyph glyph-name="X" unicode="X" horiz-adv-x="1280" 
d="M1251 0h-217l-407 608l-394 -608h-204l487 752l-463 731h213l367 -586l379 586h198l-467 -723z" />
    <glyph glyph-name="Y" unicode="Y" horiz-adv-x="1159" 
d="M496 0v573l-506 910h213l389 -723h4l379 723h194l-485 -905v-578h-188z" />
    <glyph glyph-name="Z" unicode="Z" horiz-adv-x="1204" 
d="M1120 164v-164h-1050v139l792 1180h-770v164h995v-144l-788 -1175h821z" />
    <glyph glyph-name="bracketleft" unicode="[" horiz-adv-x="557" 
d="M131 1483h346v-131h-170v-1514h170v-131h-346v1776z" />
    <glyph glyph-name="backslash" unicode="\" horiz-adv-x="778" 
d="M20 1546h168l576 -1734h-170z" />
    <glyph glyph-name="bracketright" unicode="]" horiz-adv-x="557" 
d="M80 1483h346v-1776h-346v131h170v1514h-170v131z" />
    <glyph glyph-name="asciicircum" unicode="^" horiz-adv-x="1169" 
d="M580 1190l-318 -578h-178l403 748h191l409 -748h-184z" />
    <glyph glyph-name="underscore" unicode="_" horiz-adv-x="1024" 
d="M0 -225h1024v-146h-1024v146z" />
    <glyph glyph-name="grave" unicode="`" horiz-adv-x="1024" 
d="M492 1530l198 -334l-135 -25l-287 359h224z" />
    <glyph glyph-name="a" unicode="a" horiz-adv-x="1116" 
d="M936 199q0 -45 13 -63.5t50 -18.5q23 0 64 12l8 -117q-60 -32 -145 -32q-74 0 -114 34.5t-48 89.5q-129 -129 -338 -129q-77 0 -135 20t-90.5 49.5t-53 70t-26.5 74.5t-6 69q0 83 29 146t77.5 102.5t119.5 64.5t148 35t170 10q39 0 93 -4v103q0 109 -44 162t-165 53
q-105 0 -155.5 -41.5t-68.5 -132.5l-163 30q25 148 122.5 218.5t280.5 70.5q198 0 287.5 -84t89.5 -278v-514zM754 477q-44 6 -107 6q-43 0 -76.5 -2t-76 -8t-73 -19.5t-58 -34t-42 -54t-14.5 -76.5q0 -168 176 -168q76 0 150 35t121 84v237z" />
    <glyph glyph-name="b" unicode="b" horiz-adv-x="1189" 
d="M166 1546h184v-610q156 139 357 139q85 0 152 -28t120 -87.5t82 -163t29 -245.5q0 -149 -35 -262t-96.5 -180.5t-140.5 -100.5t-173 -33q-154 0 -305 117h-2l-10 -92h-162v1546zM352 242q1 -1 17.5 -12t23 -15t24.5 -15.5t29 -17l30 -15t34.5 -14t34.5 -10t38.5 -8
t39.5 -2.5q274 0 274 420q0 189 -60 277t-190 88q-80 0 -159.5 -39.5t-135.5 -92.5v-544z" />
    <glyph glyph-name="c" unicode="c" horiz-adv-x="1101" 
d="M584 -25q-127 0 -221.5 39.5t-151.5 113t-84 170.5t-27 218q0 272 133 415.5t371 143.5q181 0 288.5 -93.5t117.5 -272.5l-179 -25q-12 119 -69 177.5t-166 58.5q-60 0 -111 -18.5t-95.5 -59.5t-69.5 -118.5t-25 -184.5q0 -408 295 -408q223 0 262 225l164 -34
q-10 -71 -37.5 -129t-68.5 -98t-93.5 -67.5t-110.5 -40t-122 -12.5z" />
    <glyph glyph-name="d" unicode="d" horiz-adv-x="1181" 
d="M868 0l-14 113l-2 2q-74 -67 -157 -103.5t-191 -36.5q-189 0 -295.5 130t-106.5 405q0 151 36 263.5t99.5 176.5t141 94.5t168.5 30.5q172 0 295 -98v569h182v-1546h-156zM840 823q-45 36 -116 64t-153 28q-276 0 -276 -405q0 -193 64 -286t200 -93q77 0 151.5 37
t129.5 92v563z" />
    <glyph glyph-name="e" unicode="e" horiz-adv-x="1118" 
d="M586 -25q-109 0 -193.5 30t-139 80.5t-89.5 122t-49.5 149t-14.5 167.5q0 113 26 205t71 155.5t108 107t136 63.5t155 20q108 0 189.5 -34t130.5 -96t73.5 -143t24.5 -181q0 -73 -8 -138h-709q6 -190 83 -271t212 -81q109 0 168 47t80 139l164 -36q-31 -150 -143 -228
t-275 -78zM821 631q0 293 -237 293q-55 0 -103 -17t-87.5 -51t-65 -91.5t-29.5 -133.5h522z" />
    <glyph glyph-name="f" unicode="f" horiz-adv-x="669" 
d="M188 1053v170q0 171 81.5 257.5t232.5 86.5q115 0 192 -35l-8 -143q-76 26 -147 26q-79 0 -121.5 -41t-42.5 -145v-176h293v-150h-293v-903h-187v903h-155v150h155z" />
    <glyph glyph-name="g" unicode="g" horiz-adv-x="1130" 
d="M551 1075q214 0 305 -96q26 60 68.5 96.5t97.5 36.5q42 0 92 -16v-138q-97 9 -205 -22q40 -41 61 -105t21 -133q0 -116 -58 -202t-155 -129t-219 -43q-121 0 -194 24q-2 -2 -16.5 -16t-19.5 -19.5t-14 -17.5t-12.5 -23.5t-3.5 -23.5q0 -35 28 -54.5t107 -25.5l301 -21
q86 -5 146 -19t106.5 -44.5t69 -82.5t22.5 -128q0 -75 -31 -134.5t-82.5 -96.5t-123 -61.5t-145.5 -34t-158 -9.5q-473 0 -473 260q0 84 49 145.5t121 96.5v2q-115 50 -115 152q0 42 21.5 80.5t46 61t71.5 58.5q-72 38 -114 117t-42 178q0 174 122 280.5t325 106.5zM811 694
q0 116 -67 175t-191 59q-108 0 -188 -56q-80 -53 -80 -174q0 -107 65.5 -167t200.5 -60q117 0 188.5 59.5t71.5 163.5zM887 -150q0 62 -36.5 93.5t-139.5 38.5l-349 20q-61 -39 -88.5 -78t-27.5 -92q0 -47 27 -78t98.5 -50t189.5 -19q326 0 326 165z" />
    <glyph glyph-name="h" unicode="h" horiz-adv-x="1191" 
d="M856 0v686q0 113 -46 169t-151 56q-81 0 -168.5 -41t-138.5 -86v-784h-186v1546h184v-612q183 141 371 141q165 0 243 -89.5t78 -270.5v-715h-186z" />
    <glyph glyph-name="i" unicode="i" horiz-adv-x="509" 
d="M166 0v1053h186v-1053h-186zM395 1391q0 -63 -35 -99.5t-98 -36.5q-131 0 -131 136q0 133 131 133q64 0 98.5 -34t34.5 -99z" />
    <glyph glyph-name="j" unicode="j" horiz-adv-x="505" 
d="M53 -457q-52 0 -110.5 12t-87.5 29l20 152q79 -31 154 -31q67 0 102 38t35 128v1182h186v-1190q0 -320 -299 -320zM395 1407q0 -135 -131 -135q-63 0 -98 36t-35 99t35 98t98 35t97 -35t34 -98z" />
    <glyph glyph-name="k" unicode="k" horiz-adv-x="1087" 
d="M805 1053h211l-365 -379l391 -674h-204l-324 543l-162 -160v-383h-186v1546h186v-956z" />
    <glyph glyph-name="l" unicode="l" horiz-adv-x="509" 
d="M166 0v1546h186v-1546h-186z" />
    <glyph glyph-name="m" unicode="m" horiz-adv-x="1773" 
d="M166 0v1053h160l10 -119q183 141 358 141q202 0 264 -145q184 145 365 145q161 0 230 -87.5t69 -270.5v-717h-186v690q0 115 -33.5 168t-130.5 53q-68 0 -150.5 -36.5t-132.5 -79.5q4 -50 4 -78v-717h-186v690q0 115 -33.5 168t-130.5 53q-72 0 -157.5 -40.5
t-133.5 -84.5v-786h-186z" />
    <glyph glyph-name="n" unicode="n" horiz-adv-x="1191" 
d="M856 0v686q0 113 -46 169t-151 56q-81 0 -168.5 -41t-138.5 -86v-784h-186v1053h164l10 -125q186 147 379 147q168 0 245.5 -89.5t77.5 -270.5v-715h-186z" />
    <glyph glyph-name="o" unicode="o" horiz-adv-x="1183" 
d="M586 -25q-486 0 -486 547q0 260 132 406.5t380 146.5q242 0 356.5 -140t114.5 -388q0 -132 -28 -235t-86.5 -179.5t-155 -117t-227.5 -40.5zM596 125q142 0 217.5 97.5t75.5 312.5q0 143 -34.5 230t-95 122t-155.5 35q-147 0 -229 -95t-82 -297q0 -208 74.5 -306.5
t228.5 -98.5z" />
    <glyph glyph-name="p" unicode="p" horiz-adv-x="1189" 
d="M328 1053l10 -121q156 143 364 143q86 0 154 -28t121 -87.5t81.5 -163t28.5 -245.5q0 -149 -35 -262t-96 -180.5t-138.5 -100.5t-168.5 -33q-166 0 -303 103v-512h-180v1487h162zM352 238q150 -105 271 -105q151 0 213 115q61 116 61 305q0 195 -60.5 281t-189.5 86
q-81 0 -161 -40t-134 -94v-548z" />
    <glyph glyph-name="q" unicode="q" horiz-adv-x="1177" 
d="M848 -434v538q-77 -62 -158 -95.5t-186 -33.5q-189 0 -295.5 130t-106.5 407q0 121 24 218t65 160.5t98.5 106t121.5 60.5t136 18q171 0 299 -114l16 92h162v-1487h-176zM840 813q-128 102 -269 102q-276 0 -276 -403q0 -193 63 -287t201 -94q77 0 151.5 37t129.5 92v553
z" />
    <glyph glyph-name="r" unicode="r" horiz-adv-x="745" 
d="M725 881q-95 14 -203 -21q-104 -34 -170 -94v-766h-186v1053h156l14 -152q68 92 152.5 133t197.5 41q21 0 39 -2v-192z" />
    <glyph glyph-name="s" unicode="s" horiz-adv-x="997" 
d="M508 1075q180 0 269.5 -78t115.5 -227l-168 -37q-10 50 -23.5 82.5t-37.5 60t-63 40t-95 12.5q-108 0 -155.5 -40.5t-47.5 -107.5q0 -32 11 -56.5t28.5 -41.5t49.5 -30.5t64 -22.5t81 -19q51 -10 82.5 -17.5t75.5 -21t71 -28.5t58 -38.5t47.5 -52t28 -68.5t11.5 -89
q0 -149 -109.5 -234.5t-301.5 -85.5q-372 0 -420 306l166 45q12 -47 27.5 -79.5t44 -63t76 -45.5t114.5 -15q219 0 219 151q0 43 -14 71t-48 46t-68.5 27.5t-98.5 21.5q-38 7 -59 11.5t-57.5 14t-58.5 17.5t-53 22.5t-50 30.5t-40.5 38.5t-33 48.5t-19.5 60.5t-8 74.5
q0 103 54 176t140.5 107t194.5 34z" />
    <glyph glyph-name="t" unicode="t" horiz-adv-x="776" 
d="M754 45q-41 -28 -114.5 -49t-143.5 -21q-150 0 -223.5 72.5t-73.5 228.5v627h-162v150h162v305l186 28v-333h291v-150h-291v-602q0 -89 31.5 -130.5t120.5 -41.5q45 0 97 15.5t87 35.5z" />
    <glyph glyph-name="u" unicode="u" horiz-adv-x="1189" 
d="M348 1053v-686q0 -117 40 -171.5t151 -54.5q82 0 169 41.5t136 87.5v783h186v-1053h-162l-12 121q-168 -141 -373 -141q-165 0 -243 89.5t-78 268.5v715h186z" />
    <glyph glyph-name="v" unicode="v" horiz-adv-x="1034" 
d="M12 1053h203l309 -867h2l305 867h191l-395 -1053h-213z" />
    <glyph glyph-name="w" unicode="w" horiz-adv-x="1554" 
d="M12 1053h189l256 -856l231 856h193l229 -852h2l250 852h180l-328 -1053h-217l-217 829h-2l-215 -829h-221z" />
    <glyph glyph-name="x" unicode="x" horiz-adv-x="1007" 
d="M975 0h-203l-280 414l-267 -414h-190l354 543l-352 510h205l258 -383l266 383h190l-354 -506z" />
    <glyph glyph-name="y" unicode="y" horiz-adv-x="993" 
d="M223 1053l279 -836h2l289 836h190l-455 -1207q-63 -166 -142 -234.5t-204 -68.5q-53 0 -110.5 12t-91.5 27l22 146q92 -33 168 -33q61 0 108 37.5t80 126.5l50 129l-392 1065h207z" />
    <glyph glyph-name="z" unicode="z" horiz-adv-x="940" 
d="M889 150v-150h-826v127l590 776h-581v150h792v-135l-590 -768h615z" />
    <glyph glyph-name="braceleft" unicode="{" horiz-adv-x="626" 
d="M453 -297q-281 0 -281 238q0 66 13.5 204.5t13.5 204.5q0 94 -39 135t-115 41h-37v138h35q156 0 156 174q0 66 -13.5 224t-13.5 210q0 237 279 237h112v-145h-80q-66 0 -93.5 -26.5t-27.5 -82.5q0 -78 13 -208q14 -109 14 -218q0 -57 -11.5 -98t-34.5 -67t-46 -41
t-59 -29q35 -13 59 -28t46.5 -41t34 -67.5t11.5 -97.5q0 -69 -13.5 -203t-13.5 -188q0 -62 32 -94.5t112 -32.5h57v-139h-110z" />
    <glyph glyph-name="bar" unicode="|" horiz-adv-x="573" 
d="M203 1546h168v-1839h-168v1839z" />
    <glyph glyph-name="braceright" unicode="}" horiz-adv-x="626" 
d="M174 1509q281 0 281 -237q0 -66 -13.5 -205t-13.5 -205q0 -176 154 -176h36v-137h-34q-156 0 -156 -174q0 -67 13.5 -224t13.5 -210q0 -238 -279 -238h-113v145h80q66 0 93.5 26.5t27.5 82.5q0 98 -14 207q-12 120 -12 219q0 58 11 99t34.5 67t46.5 40.5t59 28.5
q-35 13 -59 28t-46.5 41t-34 67.5t-11.5 97.5q0 72 13 205t13 186q0 64 -31 95.5t-112 31.5h-58v139h111z" />
    <glyph glyph-name="asciitilde" unicode="~" horiz-adv-x="1058" 
d="M291 860q68 0 255.5 -47t227.5 -47q41 0 58.5 21t17.5 85l119 -6q17 -119 -35 -185.5t-143 -66.5q-67 0 -256.5 47.5t-231.5 47.5q-80 0 -72 -111l-118 4q-13 123 39 190.5t139 67.5z" />
    <glyph glyph-name="uni00A0" unicode="&#xa0;" horiz-adv-x="438" 
 />
    <glyph glyph-name="exclamdown" unicode="&#xa1;" horiz-adv-x="557" 
d="M399 -434h-209l33 1098h142zM156 942q0 131 137 131t137 -131q0 -133 -137 -133t-137 133z" />
    <glyph glyph-name="cent" unicode="&#xa2;" horiz-adv-x="1056" 
d="M657 1229q138 -14 224.5 -101t93.5 -235l-170 -25q-7 93 -45 142t-111 61v-700q75 10 115 56.5t61 137.5l158 -33q-22 -141 -110.5 -219t-221.5 -98v-215h-149v211q-187 24 -284 159t-97 343q0 220 101.5 351t279.5 161v209h155v-205zM313 735q0 -308 193 -360v692
q-193 -48 -193 -332z" />
    <glyph glyph-name="sterling" unicode="&#xa3;" horiz-adv-x="1148" 
d="M156 154q170 153 170 325q0 84 -47 180h-213v152h157q-26 46 -41.5 78t-33 94t-17.5 119q0 180 130.5 293.5t336.5 113.5q196 0 303 -88.5t131 -287.5l-168 -23q-9 64 -24.5 106.5t-45.5 76t-79 49.5t-121 16q-128 0 -204.5 -61.5t-76.5 -174.5q0 -37 6 -73t19.5 -72
t23 -59t27.5 -60t23 -47h462v-152h-411q39 -82 39 -176q0 -180 -152 -329h355q117 0 166.5 51.5t70.5 175.5l164 -33q-20 -182 -116 -265t-277 -83h-668v154h111z" />
    <glyph glyph-name="currency" unicode="&#xa4;" 
d="M842 193q-107 -76 -269 -76q-165 0 -276 80q-4 -8 -93 -96t-91 -91l-115 119l192 193q-63 108 -63 253q0 131 68 240l-191 189l121 122l182 -180q115 88 281 88q169 0 276 -82l174 172l113 -118l-178 -181q59 -109 59 -241q0 -147 -74 -265l193 -188l-123 -121zM584 272
q128 0 197 86t69 217q0 142 -69 220.5t-203 78.5q-127 0 -197 -82.5t-70 -216.5q0 -127 64 -215t209 -88z" />
    <glyph glyph-name="yen" unicode="&#xa5;" horiz-adv-x="1085" 
d="M643 0h-186v410h-271v141h271v178h-271v139h197l-338 615h205l305 -572h2l293 572h190l-329 -615h207v-139h-275v-178h275v-141h-275v-410z" />
    <glyph glyph-name="brokenbar" unicode="&#xa6;" horiz-adv-x="573" 
d="M203 502h168v-795h-168v795zM203 1546h168v-702h-168v702z" />
    <glyph glyph-name="section" unicode="&#xa7;" horiz-adv-x="1122" 
d="M96 508q0 90 51 167.5t144 135.5q-121 96 -121 268q0 119 59 205t156 127t219 41q187 0 298.5 -95t121.5 -276l-174 -22q-13 121 -71 182.5t-181 61.5q-119 0 -182.5 -55t-63.5 -146q0 -71 38 -120.5t99 -76t134.5 -47.5t147 -45t134.5 -58t99 -97t38 -152
q0 -87 -50 -165.5t-142 -139.5q121 -92 121 -267q0 -176 -123 -274t-311 -98q-187 0 -298.5 94.5t-123.5 275.5l176 23q11 -118 71.5 -181t182.5 -63q118 0 180.5 56t62.5 151q0 56 -23.5 97t-63.5 66.5t-92 45t-109.5 35t-115 32t-109.5 41.5t-92 59t-63.5 88.5
t-23.5 125.5zM274 539q0 -53 25.5 -90.5t75.5 -61.5t99.5 -39t123.5 -35t121 -39q147 92 147 203q0 51 -26 88t-76 60.5t-100.5 38.5t-124 35.5t-121.5 39.5q-144 -93 -144 -200z" />
    <glyph glyph-name="dieresis" unicode="&#xa8;" horiz-adv-x="1024" 
d="M426 1376q0 -59 -34.5 -93t-92.5 -34t-94.5 34t-36.5 93q0 56 36.5 90.5t94.5 34.5q57 0 92 -34t35 -91zM856 1376q0 -60 -34.5 -93.5t-94.5 -33.5q-58 0 -93.5 34t-35.5 93q0 57 36 91t93 34q60 0 94.5 -34t34.5 -91z" />
    <glyph glyph-name="copyright" unicode="&#xa9;" horiz-adv-x="1579" 
d="M1479 668q0 -204 -87 -361.5t-244 -244.5t-360 -87q-166 0 -298 51t-216.5 141.5t-129 210.5t-44.5 261q0 127 35.5 237.5t99 192.5t150 141t190.5 89t218 30q318 0 502 -179.5t184 -481.5zM793 86q262 0 413.5 152.5t151.5 416.5q0 180 -73 308.5t-199 191t-293 62.5
q-162 0 -290 -67t-203 -199t-75 -310q0 -258 151.5 -406.5t416.5 -148.5zM1114 520q-8 -61 -32.5 -109t-56.5 -77.5t-72.5 -48.5t-78.5 -26t-77 -7q-187 0 -277 111t-90 294q0 178 98.5 288t274.5 110q128 0 211 -63.5t90 -198.5l-121 -17q-8 89 -51 130.5t-133 41.5
q-94 0 -164 -67q-68 -65 -68 -228q0 -126 57.5 -207t170.5 -81q95 0 139.5 42t64.5 132z" />
    <glyph glyph-name="ordfeminine" unicode="&#xaa;" horiz-adv-x="774" 
d="M647 717q0 -28 9 -39.5t34 -11.5q17 0 41 6l6 -84q-44 -23 -108 -23q-53 0 -82.5 23.5t-36.5 58.5q-93 -86 -225 -86q-62 0 -106 18.5t-65 48.5t-29.5 58.5t-8.5 58.5q0 64 25.5 109.5t73 71t103.5 38t128 15.5q72 0 90 -4v57q0 67 -26 99t-99 32q-65 0 -94.5 -24.5
t-40.5 -81.5l-132 24q17 98 84 144.5t195 46.5q137 0 200.5 -55t63.5 -181v-319zM498 879q-32 4 -58 4q-42 0 -74.5 -4t-65 -15.5t-50 -35.5t-17.5 -60q0 -96 107 -96q45 0 88 19t70 46v142z" />
    <glyph glyph-name="guillemotleft" unicode="&#xab;" horiz-adv-x="890" 
d="M117 530l182 306h168l-172 -299l168 -326h-168zM444 530l183 306h168l-172 -299l168 -326h-168z" />
    <glyph glyph-name="logicalnot" unicode="&#xac;" 
d="M799 582h-606v170h772v-363h-166v193z" />
    <glyph glyph-name="uni00AD" unicode="&#xad;" horiz-adv-x="636" 
d="M41 692h555v-178h-555v178z" />
    <glyph glyph-name="registered" unicode="&#xae;" horiz-adv-x="925" 
d="M844 979q0 -169 -106 -275t-277 -106q-189 0 -283 104q-96 110 -96 263q0 174 109.5 278.5t273.5 104.5q176 0 277.5 -100.5t101.5 -268.5zM758 973q0 142 -80.5 217.5t-212.5 75.5q-128 0 -211.5 -80.5t-83.5 -218.5q0 -133 79 -210t216 -77q135 0 214 79t79 214z
M559 784l-90 154h-51v-154h-80v392h139q135 0 135 -111q0 -75 -69 -102l104 -179h-88zM444 999q41 0 63.5 13t22.5 49q0 30 -18 41.5t-53 11.5h-41v-115h26z" />
    <glyph glyph-name="overscore" unicode="&#xaf;" horiz-adv-x="1024" 
d="M215 1425h596v-145h-596v145z" />
    <glyph glyph-name="degree" unicode="&#xb0;" horiz-adv-x="696" 
d="M373 1184q53 0 81.5 32.5t28.5 88.5q0 118 -110 118q-52 0 -83.5 -32.5t-31.5 -92.5q0 -52 30 -83t85 -31zM600 1305q0 -106 -61.5 -168t-165.5 -62q-106 0 -169 60.5t-63 162.5q0 109 66 171.5t166 62.5q101 0 164 -60t63 -167z" />
    <glyph glyph-name="plusminus" unicode="&#xb1;" 
d="M197 164h772v-164h-772v164zM498 573h-301v170h301v308h170v-308h301v-170h-301v-297h-170v297z" />
    <glyph glyph-name="uni00B2" unicode="&#xb2;" horiz-adv-x="790" 
d="M401 1642q134 0 205.5 -59t71.5 -174q0 -105 -60 -190q-58 -82 -174 -201l-143 -156v-4h391v-143h-586v139l211 233q110 119 149.5 182t39.5 132q0 110 -121 110q-68 0 -101 -35t-44 -106l-146 25q17 125 99.5 186t207.5 61z" />
    <glyph glyph-name="uni00B3" unicode="&#xb3;" horiz-adv-x="817" 
d="M229 954q11 -62 42.5 -92.5t101.5 -30.5q66 0 107.5 36.5t41.5 111.5q0 81 -41.5 113t-126.5 32h-88v123h60q88 0 136 42t48 112q0 53 -27.5 81.5t-93.5 28.5t-97.5 -28t-45.5 -88l-146 28q22 115 104.5 167t201.5 52q131 0 201.5 -58t70.5 -159q0 -89 -51.5 -143
t-126.5 -78v-2q196 -40 196 -227q0 -126 -88.5 -200.5t-232.5 -74.5q-78 0 -139 21.5t-104 73.5t-54 131z" />
    <glyph glyph-name="acute" unicode="&#xb4;" horiz-adv-x="1024" 
d="M342 1196l199 334h223l-287 -359z" />
    <glyph glyph-name="uni00B5" unicode="&#xb5;" horiz-adv-x="1236" 
d="M1026 -20q-63 0 -110.5 34.5t-51.5 112.5q-182 -147 -356 -147q-107 0 -160 53v-467h-182v1487h186v-693q0 -122 45 -174.5t129 -52.5q74 0 160 32t162 99v789h186v-856q0 -45 14 -63.5t50 -18.5q22 0 63 12l8 -117q-61 -30 -143 -30z" />
    <glyph glyph-name="paragraph" unicode="&#xb6;" horiz-adv-x="1150" 
d="M807 -272v1615h-168v-1615h-160v782q-201 17 -314.5 141t-113.5 328q0 108 29.5 194t81 143t124.5 95.5t155 55t177 16.5h347l2 -1755h-160z" />
    <glyph glyph-name="middot" unicode="&#xb7;" horiz-adv-x="397" 
d="M334 623q0 -131 -135 -131q-136 0 -136 131q0 133 136 133q135 0 135 -133z" />
    <glyph glyph-name="cedilla" unicode="&#xb8;" horiz-adv-x="1024" 
d="M309 -330q75 -30 115 -30q46 0 72 26t26 66q0 51 -34.5 72.5t-114.5 23.5l33 233l116 -16l-18 -135q162 -31 162 -180q0 -92 -64 -148.5t-162 -56.5q-91 0 -166 41z" />
    <glyph glyph-name="uni00B9" unicode="&#xb9;" horiz-adv-x="647" 
d="M293 1423q-29 -14 -99 -26.5t-104 -12.5l-8 134q186 13 268 104h113v-911h-170v712z" />
    <glyph glyph-name="ordmasculine" unicode="&#xba;" horiz-adv-x="817" 
d="M403 561q-333 0 -333 354q0 167 90.5 262t261.5 95q167 0 246.5 -90t79.5 -250q0 -175 -84.5 -273t-260.5 -98zM410 688q86 0 131 55.5t45 180.5q0 124 -41 175.5t-129 51.5q-185 0 -185 -231q0 -123 43 -177.5t136 -54.5z" />
    <glyph glyph-name="guillemotright" unicode="&#xbb;" horiz-adv-x="890" 
d="M449 520l-181 -309h-168l172 307l-172 318h168zM776 520l-180 -309h-168l172 307l-172 318h168z" />
    <glyph glyph-name="onequarter" unicode="&#xbc;" horiz-adv-x="1822" 
d="M1145 1483h172l-725 -1508h-176zM324 1284q-29 -14 -99 -26.5t-104 -12.5l-8 133q185 13 268 105h113v-912h-170v713zM1440 211h-428v117l385 583h207v-567h108v-133h-106v-211h-166v211zM1440 762l-277 -418h277v418z" />
    <glyph glyph-name="onehalf" unicode="&#xbd;" horiz-adv-x="1822" 
d="M1118 1483h172l-725 -1508h-176zM340 1284q-29 -14 -99 -26.5t-104 -12.5l-8 133q185 13 268 105h113v-912h-170v713zM1421 928q134 0 205.5 -59.5t71.5 -174.5q0 -105 -60 -190q-58 -82 -174 -201l-143 -156v-4h391v-143h-586v139l211 234q110 120 149.5 182t39.5 131
q0 111 -121 111q-68 0 -101 -35.5t-44 -106.5l-146 25q17 125 99.5 186.5t207.5 61.5z" />
    <glyph glyph-name="threequarters" unicode="&#xbe;" horiz-adv-x="1822" 
d="M1219 1483h172l-725 -1508h-177zM1485 211h-428v117l385 583h207v-567h108v-133h-106v-211h-166v211zM1485 762l-277 -418h277v418zM244 815q12 -63 42.5 -93t100.5 -30q66 0 108 36.5t42 111.5q0 81 -41.5 113t-126.5 32h-88v123h59q88 0 136 42t48 112q0 53 -27.5 81.5
t-93.5 28.5t-97.5 -28t-45.5 -89l-145 29q22 115 104 167t201 52q131 0 201.5 -58t70.5 -159q0 -89 -51.5 -143t-126.5 -78v-2q197 -40 197 -227q0 -126 -89 -200.5t-233 -74.5q-58 0 -106.5 12.5t-89 38.5t-67 70t-34.5 104z" />
    <glyph glyph-name="questiondown" unicode="&#xbf;" horiz-adv-x="983" 
d="M700 299q-430 -31 -430 -332q0 -137 67.5 -192.5t184.5 -55.5q113 0 183 52.5t98 181.5l174 -31q-10 -60 -31.5 -112t-59.5 -98.5t-89 -79.5t-124.5 -52.5t-162.5 -19.5q-90 0 -164 20.5t-136 65t-97 125t-35 190.5q0 103 33.5 184.5t94.5 136.5t138.5 90t175.5 54v240
h180v-367zM477 942q0 131 137 131q138 0 138 -131q0 -133 -138 -133q-137 0 -137 133z" />
    <glyph glyph-name="Agrave" unicode="&#xc0;" horiz-adv-x="1406" 
d="M662 1870l202 -275l-141 -24l-287 299h226zM692 1311l-237 -709h477l-238 709h-2zM1335 0h-207l-149 440h-569l-146 -440h-190l499 1483h246z" />
    <glyph glyph-name="Aacute" unicode="&#xc1;" horiz-adv-x="1406" 
d="M1335 0h-207l-149 440h-569l-146 -440h-190l499 1483h246zM692 1311l-237 -709h477l-238 709h-2zM549 1595l203 275h225l-287 -299z" />
    <glyph glyph-name="Acircumflex" unicode="&#xc2;" horiz-adv-x="1406" 
d="M1335 0h-207l-149 440h-569l-146 -440h-190l499 1483h246zM692 1311l-237 -709h477l-238 709h-2zM530 1571l-143 18l238 264h161l234 -264l-143 -14l-175 160z" />
    <glyph glyph-name="Atilde" unicode="&#xc3;" horiz-adv-x="1406" 
d="M1335 0h-207l-149 440h-569l-146 -440h-190l499 1483h246zM692 1311l-237 -709h477l-238 709h-2zM547 1851q56 0 113.5 -23t108 -46t87.5 -23q41 0 59.5 21.5t18.5 83.5l113 -6q17 -119 -33 -183.5t-140 -64.5q-55 0 -114 23.5t-111 47t-90 23.5q-80 0 -72 -111l-114 6
q-15 134 39 191q58 61 135 61z" />
    <glyph glyph-name="Adieresis" unicode="&#xc4;" horiz-adv-x="1406" 
d="M1335 0h-207l-149 440h-569l-146 -440h-190l499 1483h246zM692 1311l-237 -709h477l-238 709h-2zM616 1722q0 -57 -35 -91t-92 -34q-58 0 -94.5 34.5t-36.5 90.5q0 59 36.5 93t94.5 34t92.5 -34t34.5 -93zM1047 1722q0 -57 -34.5 -91t-94.5 -34q-58 0 -94 34.5t-36 90.5
q0 59 36 93t94 34q60 0 94.5 -33.5t34.5 -93.5z" />
    <glyph glyph-name="Aring" unicode="&#xc5;" horiz-adv-x="1406" 
d="M911 1655q0 -123 -92 -176l516 -1479h-207l-149 440h-569l-146 -440h-190l497 1477q-90 53 -90 168q0 101 60.5 155.5t152.5 54.5q96 0 156.5 -51t60.5 -149zM692 1311l-237 -709h477l-238 709h-2zM694 1548q50 0 75.5 28.5t25.5 80.5q0 96 -101 96q-45 0 -73.5 -26.5
t-28.5 -75.5q0 -103 102 -103z" />
    <glyph glyph-name="AE" unicode="&#xc6;" horiz-adv-x="2048" 
d="M1944 164v-164h-895v647h-439l-352 -647h-197l807 1483h1049v-164h-678v-506h635v-162h-635v-487h705zM961 1319l-277 -512h365v512h-88z" />
    <glyph glyph-name="Ccedilla" unicode="&#xc7;" horiz-adv-x="1417" 
d="M612 -330q75 -30 111 -30q49 0 75.5 26t26.5 66q0 51 -34.5 72.5t-114.5 23.5l18 149q-155 9 -270 66t-185 155.5t-103.5 228t-33.5 292.5q0 371 186.5 580.5t504.5 209.5q235 0 383 -118q152 -122 167 -379l-176 -19q-21 178 -109.5 265.5t-266.5 87.5
q-233 0 -363.5 -155.5t-130.5 -455.5q0 -311 119.5 -454.5t349.5 -143.5q173 0 267 76.5t130 235.5l170 -35q-13 -88 -48.5 -159t-84 -119.5t-112.5 -82.5t-131 -52t-142 -24l-8 -67q162 -31 162 -180q0 -92 -64 -148.5t-162 -56.5q-87 0 -159 39z" />
    <glyph glyph-name="Egrave" unicode="&#xc8;" horiz-adv-x="1177" 
d="M584 1870l202 -275l-141 -24l-287 299h226zM1090 164v-164h-893v1483h866v-164h-678v-490h637v-163h-637v-502h705z" />
    <glyph glyph-name="Eacute" unicode="&#xc9;" horiz-adv-x="1177" 
d="M1090 164v-164h-893v1483h866v-164h-678v-490h637v-163h-637v-502h705zM471 1595l203 275h225l-287 -299z" />
    <glyph glyph-name="Ecircumflex" unicode="&#xca;" horiz-adv-x="1177" 
d="M1090 164v-164h-893v1483h866v-164h-678v-490h637v-163h-637v-502h705zM453 1571l-144 18l238 264h162l233 -264l-143 -14l-174 160z" />
    <glyph glyph-name="Edieresis" unicode="&#xcb;" horiz-adv-x="1177" 
d="M1090 164v-164h-893v1483h866v-164h-678v-490h637v-163h-637v-502h705zM539 1722q0 -57 -35 -91t-92 -34q-58 0 -94.5 34.5t-36.5 90.5q0 59 36.5 93t94.5 34t92.5 -34t34.5 -93zM969 1722q0 -57 -34.5 -91t-94.5 -34q-57 0 -93 34t-36 91q0 59 35.5 93t93.5 34
q60 0 94.5 -33.5t34.5 -93.5z" />
    <glyph glyph-name="Igrave" unicode="&#xcc;" horiz-adv-x="581" 
d="M252 1870l203 -275l-142 -24l-286 299h225zM197 0v1483h188v-1483h-188z" />
    <glyph glyph-name="Iacute" unicode="&#xcd;" horiz-adv-x="581" 
d="M197 0v1483h188v-1483h-188zM139 1595l203 275h225l-286 -299z" />
    <glyph glyph-name="Icircumflex" unicode="&#xce;" horiz-adv-x="581" 
d="M197 0v1483h188v-1483h-188zM121 1571l-144 18l238 264h162l233 -264l-143 -14l-174 160z" />
    <glyph glyph-name="Idieresis" unicode="&#xcf;" horiz-adv-x="581" 
d="M197 0v1483h188v-1483h-188zM207 1722q0 -57 -35 -91t-92 -34q-58 0 -94.5 34.5t-36.5 90.5q0 59 36.5 93t94.5 34t92.5 -34t34.5 -93zM637 1722q0 -57 -34.5 -91t-94.5 -34q-57 0 -93 34t-36 91q0 59 35.5 93t93.5 34q60 0 94.5 -33.5t34.5 -93.5z" />
    <glyph glyph-name="Eth" unicode="&#xd0;" horiz-adv-x="1490" 
d="M197 827v656h456q374 0 555 -188t181 -531q0 -173 -46.5 -311.5t-139 -240.5t-241 -157t-344.5 -55h-421v674h-160v153h160zM621 160q285 0 429 150t144 427q0 134 -24.5 234.5t-69.5 167.5t-115 108t-154.5 58.5t-193.5 17.5h-252v-496h416v-153h-416v-514h236z" />
    <glyph glyph-name="Ntilde" unicode="&#xd1;" horiz-adv-x="1525" 
d="M373 1243v-1243h-176v1483h247l711 -1231v1231h174v-1483h-227zM623 1851q56 0 113.5 -23t108 -46t87.5 -23q41 0 59.5 21.5t18.5 83.5l112 -6q17 -119 -33 -183.5t-139 -64.5q-55 0 -114 23.5t-111 47t-90 23.5q-80 0 -72 -111l-114 6q-15 135 38 191q58 61 136 61z" />
    <glyph glyph-name="Ograve" unicode="&#xd2;" horiz-adv-x="1554" 
d="M750 1870l202 -275l-141 -24l-287 299h226zM778 141q221 0 351.5 154t130.5 457q0 288 -124.5 439.5t-342.5 151.5q-223 0 -358.5 -155.5t-135.5 -444.5q0 -294 129 -448t350 -154zM768 -25q-135 0 -245 37.5t-188 105t-130.5 163t-77.5 211t-25 249.5q0 222 79 394
t238.5 273t379.5 101q132 0 240.5 -37.5t184.5 -104t127.5 -159.5t76 -203t24.5 -235q0 -368 -176 -581.5t-508 -213.5z" />
    <glyph glyph-name="Oacute" unicode="&#xd3;" horiz-adv-x="1554" 
d="M768 -25q-135 0 -245 37.5t-188 105t-130.5 163t-77.5 211t-25 249.5q0 222 79 394t238.5 273t379.5 101q132 0 240.5 -37.5t184.5 -104t127.5 -159.5t76 -203t24.5 -235q0 -368 -176 -581.5t-508 -213.5zM778 141q221 0 351.5 154t130.5 457q0 288 -124.5 439.5
t-342.5 151.5q-223 0 -358.5 -155.5t-135.5 -444.5q0 -294 129 -448t350 -154zM637 1595l203 275h225l-287 -299z" />
    <glyph glyph-name="Ocircumflex" unicode="&#xd4;" horiz-adv-x="1554" 
d="M768 -25q-135 0 -245 37.5t-188 105t-130.5 163t-77.5 211t-25 249.5q0 222 79 394t238.5 273t379.5 101q132 0 240.5 -37.5t184.5 -104t127.5 -159.5t76 -203t24.5 -235q0 -368 -176 -581.5t-508 -213.5zM778 141q221 0 351.5 154t130.5 457q0 288 -124.5 439.5
t-342.5 151.5q-223 0 -358.5 -155.5t-135.5 -444.5q0 -294 129 -448t350 -154zM618 1571l-143 18l238 264h161l234 -264l-143 -14l-174 160z" />
    <glyph glyph-name="Otilde" unicode="&#xd5;" horiz-adv-x="1554" 
d="M768 -25q-135 0 -245 37.5t-188 105t-130.5 163t-77.5 211t-25 249.5q0 222 79 394t238.5 273t379.5 101q132 0 240.5 -37.5t184.5 -104t127.5 -159.5t76 -203t24.5 -235q0 -368 -176 -581.5t-508 -213.5zM778 141q221 0 351.5 154t130.5 457q0 288 -124.5 439.5
t-342.5 151.5q-223 0 -358.5 -155.5t-135.5 -444.5q0 -294 129 -448t350 -154zM635 1851q56 0 113.5 -23t108 -46t87.5 -23q41 0 59.5 21.5t18.5 83.5l113 -6q17 -119 -33 -183.5t-139 -64.5q-55 0 -114 23.5t-111.5 47t-90.5 23.5q-80 0 -72 -111l-114 6q-15 134 39 191
q58 61 135 61z" />
    <glyph glyph-name="Odieresis" unicode="&#xd6;" horiz-adv-x="1554" 
d="M768 -25q-135 0 -245 37.5t-188 105t-130.5 163t-77.5 211t-25 249.5q0 222 79 394t238.5 273t379.5 101q132 0 240.5 -37.5t184.5 -104t127.5 -159.5t76 -203t24.5 -235q0 -368 -176 -581.5t-508 -213.5zM778 141q221 0 351.5 154t130.5 457q0 288 -124.5 439.5
t-342.5 151.5q-223 0 -358.5 -155.5t-135.5 -444.5q0 -294 129 -448t350 -154zM705 1722q0 -57 -35 -91t-92 -34q-58 0 -95 34.5t-37 90.5q0 59 37 93t95 34t92.5 -34t34.5 -93zM1135 1722q0 -57 -34.5 -91t-94.5 -34q-57 0 -93 34t-36 91q0 59 35.5 93t93.5 34
q60 0 94.5 -33.5t34.5 -93.5z" />
    <glyph glyph-name="multiply" unicode="&#xd7;" 
d="M369 315l-121 125l217 215l-217 219l121 123l213 -215l217 215l119 -123l-216 -219l216 -215l-119 -125l-217 217z" />
    <glyph glyph-name="Oslash" unicode="&#xd8;" horiz-adv-x="1554" 
d="M768 -25q-107 0 -199 25l-59 -147h-184l86 208q-155 92 -232.5 268.5t-77.5 411.5q0 222 79 394t238.5 273t379.5 101q109 0 205 -26l61 143h182l-88 -213q145 -91 219 -259.5t74 -383.5q0 -368 -176 -581.5t-508 -213.5zM299 743q0 -352 186 -505l453 1085
q-61 20 -145 20q-223 0 -358.5 -155.5t-135.5 -444.5zM778 141q221 0 351.5 154t130.5 457q0 337 -173 489l-450 -1081q68 -19 141 -19z" />
    <glyph glyph-name="Ugrave" unicode="&#xd9;" horiz-adv-x="1462" 
d="M690 1870l203 -275l-141 -24l-287 299h225zM373 1483v-963q0 -200 89.5 -290.5t270.5 -90.5q184 0 270.5 85.5t86.5 289.5v969h186v-985q0 -262 -142 -392.5t-409 -130.5q-280 0 -410.5 131.5t-130.5 395.5v981h189z" />
    <glyph glyph-name="Uacute" unicode="&#xda;" horiz-adv-x="1462" 
d="M733 139q184 0 270.5 85.5t86.5 289.5v969h186v-985q0 -262 -142 -392.5t-409 -130.5q-280 0 -410.5 131.5t-130.5 395.5v981h189v-963q0 -200 89.5 -290.5t270.5 -90.5zM578 1595l202 275h226l-287 -299z" />
    <glyph glyph-name="Ucircumflex" unicode="&#xdb;" horiz-adv-x="1462" 
d="M733 139q184 0 270.5 85.5t86.5 289.5v969h186v-985q0 -262 -142 -392.5t-409 -130.5q-280 0 -410.5 131.5t-130.5 395.5v981h189v-963q0 -200 89.5 -290.5t270.5 -90.5zM559 1571l-143 18l237 264h162l234 -264l-144 -14l-174 160z" />
    <glyph glyph-name="Udieresis" unicode="&#xdc;" horiz-adv-x="1462" 
d="M733 139q184 0 270.5 85.5t86.5 289.5v969h186v-985q0 -262 -142 -392.5t-409 -130.5q-280 0 -410.5 131.5t-130.5 395.5v981h189v-963q0 -200 89.5 -290.5t270.5 -90.5zM645 1722q0 -57 -35 -91t-92 -34q-58 0 -94.5 34.5t-36.5 90.5q0 59 36.5 93t94.5 34t92.5 -34
t34.5 -93zM1075 1722q0 -57 -34.5 -91t-94.5 -34q-57 0 -93 34t-36 91q0 59 35.5 93t93.5 34q60 0 94.5 -33.5t34.5 -93.5z" />
    <glyph glyph-name="Yacute" unicode="&#xdd;" horiz-adv-x="1159" 
d="M496 0v573l-506 910h213l389 -723h4l379 723h194l-485 -905v-578h-188zM438 1595l203 275h225l-286 -299z" />
    <glyph glyph-name="Thorn" unicode="&#xde;" horiz-adv-x="1261" 
d="M197 0v1483h186v-244h297q111 0 197.5 -24t141.5 -64t90.5 -96.5t50 -117.5t14.5 -132q0 -257 -144.5 -376.5t-421.5 -119.5h-225v-309h-186zM594 471q71 0 124 7t104.5 27.5t84 56t52.5 94t20 139.5q0 148 -87 216t-267 68h-242v-608h211z" />
    <glyph glyph-name="germandbls" unicode="&#xdf;" horiz-adv-x="1341" 
d="M166 1104q0 124 36 215.5t103 146t154.5 80t197.5 25.5q222 0 339.5 -95.5t117.5 -273.5q0 -244 -235 -344v-6q82 -15 146 -43t117 -76.5t81 -125t28 -177.5q0 -204 -111.5 -328.5t-310.5 -124.5q-139 0 -236 67t-122 196l123 67q26 -89 73 -134.5t142 -45.5
q116 0 183 74t67 219q0 334 -377 334h-82v143h31q80 0 139 22.5t92 62.5t48.5 88t15.5 106q0 249 -287 249q-68 0 -118 -15.5t-89.5 -51.5t-59.5 -102t-20 -162v-1094h-186v1104z" />
    <glyph glyph-name="agrave" unicode="&#xe0;" horiz-adv-x="1116" 
d="M936 199q0 -45 13 -63.5t50 -18.5q23 0 64 12l8 -117q-60 -32 -145 -32q-74 0 -114 34.5t-48 89.5q-129 -129 -338 -129q-77 0 -135 20t-90.5 49.5t-53 70t-26.5 74.5t-6 69q0 83 29 146t77.5 102.5t119.5 64.5t148 35t170 10q39 0 93 -4v103q0 109 -44 162t-165 53
q-105 0 -155.5 -41.5t-68.5 -132.5l-163 30q25 148 122.5 218.5t280.5 70.5q198 0 287.5 -84t89.5 -278v-514zM754 477q-44 6 -107 6q-43 0 -76.5 -2t-76 -8t-73 -19.5t-58 -34t-42 -54t-14.5 -76.5q0 -168 176 -168q76 0 150 35t121 84v237zM537 1530l198 -334l-135 -25
l-287 359h224z" />
    <glyph glyph-name="aacute" unicode="&#xe1;" horiz-adv-x="1116" 
d="M936 199q0 -45 13 -63.5t50 -18.5q23 0 64 12l8 -117q-60 -32 -145 -32q-74 0 -114 34.5t-48 89.5q-129 -129 -338 -129q-77 0 -135 20t-90.5 49.5t-53 70t-26.5 74.5t-6 69q0 83 29 146t77.5 102.5t119.5 64.5t148 35t170 10q39 0 93 -4v103q0 109 -44 162t-165 53
q-105 0 -155.5 -41.5t-68.5 -132.5l-163 30q25 148 122.5 218.5t280.5 70.5q198 0 287.5 -84t89.5 -278v-514zM754 477q-44 6 -107 6q-43 0 -76.5 -2t-76 -8t-73 -19.5t-58 -34t-42 -54t-14.5 -76.5q0 -168 176 -168q76 0 150 35t121 84v237zM387 1196l199 334h223
l-287 -359z" />
    <glyph glyph-name="acircumflex" unicode="&#xe2;" horiz-adv-x="1116" 
d="M936 199q0 -45 13 -63.5t50 -18.5q23 0 64 12l8 -117q-60 -32 -145 -32q-74 0 -114 34.5t-48 89.5q-129 -129 -338 -129q-77 0 -135 20t-90.5 49.5t-53 70t-26.5 74.5t-6 69q0 83 29 146t77.5 102.5t119.5 64.5t148 35t170 10q39 0 93 -4v103q0 109 -44 162t-165 53
q-105 0 -155.5 -41.5t-68.5 -132.5l-163 30q25 148 122.5 218.5t280.5 70.5q198 0 287.5 -84t89.5 -278v-514zM754 477q-44 6 -107 6q-43 0 -76.5 -2t-76 -8t-73 -19.5t-58 -34t-42 -54t-14.5 -76.5q0 -168 176 -168q76 0 150 35t121 84v237zM557 1413l-180 -233l-139 14
l229 338h182l232 -338l-142 -12z" />
    <glyph glyph-name="atilde" unicode="&#xe3;" horiz-adv-x="1116" 
d="M936 199q0 -45 13 -63.5t50 -18.5q23 0 64 12l8 -117q-60 -32 -145 -32q-74 0 -114 34.5t-48 89.5q-129 -129 -338 -129q-77 0 -135 20t-90.5 49.5t-53 70t-26.5 74.5t-6 69q0 83 29 146t77.5 102.5t119.5 64.5t148 35t170 10q39 0 93 -4v103q0 109 -44 162t-165 53
q-105 0 -155.5 -41.5t-68.5 -132.5l-163 30q25 148 122.5 218.5t280.5 70.5q198 0 287.5 -84t89.5 -278v-514zM754 477q-44 6 -107 6q-43 0 -76.5 -2t-76 -8t-73 -19.5t-58 -34t-42 -54t-14.5 -76.5q0 -168 176 -168q76 0 150 35t121 84v237zM393 1466q56 0 113.5 -23.5
t108 -47t87.5 -23.5q41 0 59.5 21.5t18.5 83.5l113 -4q17 -119 -33 -184.5t-139 -65.5q-55 0 -114 23.5t-111 47t-90 23.5q-79 0 -72 -111l-115 6q-15 129 41 191q57 63 133 63z" />
    <glyph glyph-name="adieresis" unicode="&#xe4;" horiz-adv-x="1116" 
d="M936 199q0 -45 13 -63.5t50 -18.5q23 0 64 12l8 -117q-60 -32 -145 -32q-74 0 -114 34.5t-48 89.5q-129 -129 -338 -129q-77 0 -135 20t-90.5 49.5t-53 70t-26.5 74.5t-6 69q0 83 29 146t77.5 102.5t119.5 64.5t148 35t170 10q39 0 93 -4v103q0 109 -44 162t-165 53
q-105 0 -155.5 -41.5t-68.5 -132.5l-163 30q25 148 122.5 218.5t280.5 70.5q198 0 287.5 -84t89.5 -278v-514zM754 477q-44 6 -107 6q-43 0 -76.5 -2t-76 -8t-73 -19.5t-58 -34t-42 -54t-14.5 -76.5q0 -168 176 -168q76 0 150 35t121 84v237zM471 1376q0 -59 -34.5 -93
t-92.5 -34t-94.5 34t-36.5 93q0 56 36.5 90.5t94.5 34.5q57 0 92 -34t35 -91zM901 1376q0 -60 -34.5 -93.5t-94.5 -33.5q-58 0 -93.5 34t-35.5 93q0 57 36 91t93 34q60 0 94.5 -34t34.5 -91z" />
    <glyph glyph-name="aring" unicode="&#xe5;" horiz-adv-x="1116" 
d="M936 199q0 -45 13 -63.5t50 -18.5q23 0 64 12l8 -117q-60 -32 -145 -32q-74 0 -114 34.5t-48 89.5q-129 -129 -338 -129q-77 0 -135 20t-90.5 49.5t-53 70t-26.5 74.5t-6 69q0 83 29 146t77.5 102.5t119.5 64.5t148 35t170 10q39 0 93 -4v103q0 109 -44 162t-165 53
q-105 0 -155.5 -41.5t-68.5 -132.5l-163 30q25 148 122.5 218.5t280.5 70.5q198 0 287.5 -84t89.5 -278v-514zM754 477q-44 6 -107 6q-43 0 -76.5 -2t-76 -8t-73 -19.5t-58 -34t-42 -54t-14.5 -76.5q0 -168 176 -168q76 0 150 35t121 84v237zM776 1380q0 -97 -59 -151.5
t-160 -54.5q-98 0 -156.5 52.5t-58.5 145.5q0 101 61.5 156t153.5 55q96 0 157.5 -51.5t61.5 -151.5zM557 1276q49 0 74.5 28t25.5 76q0 99 -100 99q-45 0 -73.5 -27t-28.5 -76q0 -100 102 -100z" />
    <glyph glyph-name="ae" unicode="&#xe6;" horiz-adv-x="1759" 
d="M1225 -25q-258 0 -373 160q-83 -81 -192.5 -120.5t-217.5 -39.5q-80 0 -141.5 20t-95.5 49.5t-55.5 70t-28 74.5t-6.5 69q0 350 514 358q84 0 123 -2v101q0 108 -45.5 161.5t-165.5 53.5q-103 0 -153.5 -42t-68.5 -132l-163 30q24 151 122 220t277 69q132 0 207 -43
t112 -135q132 178 371 178q106 0 186.5 -36.5t128.5 -101.5t71.5 -149t23.5 -186q0 -72 -8 -127h-709q3 -100 25.5 -169t64 -106.5t91.5 -53t118 -15.5q106 0 163.5 47t78.5 139l166 -36q-31 -150 -144 -228t-276 -78zM485 121q85 0 165.5 35t137.5 98q-33 94 -36 229
q-35 2 -121 2q-324 0 -324 -198q0 -67 33 -117q34 -49 145 -49zM1462 616q9 308 -239 308q-113 0 -193.5 -78.5t-89.5 -229.5h522z" />
    <glyph glyph-name="ccedilla" unicode="&#xe7;" horiz-adv-x="1101" 
d="M434 -330q75 -30 115 -30q46 0 72 26t26 66q0 51 -34.5 72.5t-114.5 23.5l20 152q-145 12 -240.5 85t-136.5 185.5t-41 265.5q0 272 133 415.5t371 143.5q181 0 288.5 -93.5t117.5 -272.5l-179 -25q-12 119 -69 177.5t-166 58.5q-60 0 -111 -18.5t-95.5 -59.5
t-69.5 -118.5t-25 -184.5q0 -408 295 -408q223 0 262 225l164 -34q-24 -160 -126.5 -246t-252.5 -99l-8 -67q162 -31 162 -180q0 -92 -64 -148.5t-162 -56.5q-91 0 -166 41z" />
    <glyph glyph-name="egrave" unicode="&#xe8;" horiz-adv-x="1118" 
d="M586 -25q-109 0 -193.5 30t-139 80.5t-89.5 122t-49.5 149t-14.5 167.5q0 113 26 205t71 155.5t108 107t136 63.5t155 20q108 0 189.5 -34t130.5 -96t73.5 -143t24.5 -181q0 -73 -8 -138h-709q6 -190 83 -271t212 -81q109 0 168 47t80 139l164 -36q-31 -150 -143 -228
t-275 -78zM821 631q0 293 -237 293q-55 0 -103 -17t-87.5 -51t-65 -91.5t-29.5 -133.5h522zM567 1530l199 -334l-135 -25l-287 359h223z" />
    <glyph glyph-name="eacute" unicode="&#xe9;" horiz-adv-x="1118" 
d="M586 -25q-109 0 -193.5 30t-139 80.5t-89.5 122t-49.5 149t-14.5 167.5q0 113 26 205t71 155.5t108 107t136 63.5t155 20q108 0 189.5 -34t130.5 -96t73.5 -143t24.5 -181q0 -73 -8 -138h-709q6 -190 83 -271t212 -81q109 0 168 47t80 139l164 -36q-31 -150 -143 -228
t-275 -78zM821 631q0 293 -237 293q-55 0 -103 -17t-87.5 -51t-65 -91.5t-29.5 -133.5h522zM418 1196l198 334h224l-287 -359z" />
    <glyph glyph-name="ecircumflex" unicode="&#xea;" horiz-adv-x="1118" 
d="M586 -25q-109 0 -193.5 30t-139 80.5t-89.5 122t-49.5 149t-14.5 167.5q0 113 26 205t71 155.5t108 107t136 63.5t155 20q108 0 189.5 -34t130.5 -96t73.5 -143t24.5 -181q0 -73 -8 -138h-709q6 -190 83 -271t212 -81q109 0 168 47t80 139l164 -36q-31 -150 -143 -228
t-275 -78zM821 631q0 293 -237 293q-55 0 -103 -17t-87.5 -51t-65 -91.5t-29.5 -133.5h522zM588 1413l-180 -233l-140 14l230 338h182l231 -338l-141 -12z" />
    <glyph glyph-name="edieresis" unicode="&#xeb;" horiz-adv-x="1118" 
d="M586 -25q-109 0 -193.5 30t-139 80.5t-89.5 122t-49.5 149t-14.5 167.5q0 113 26 205t71 155.5t108 107t136 63.5t155 20q108 0 189.5 -34t130.5 -96t73.5 -143t24.5 -181q0 -73 -8 -138h-709q6 -190 83 -271t212 -81q109 0 168 47t80 139l164 -36q-31 -150 -143 -228
t-275 -78zM821 631q0 293 -237 293q-55 0 -103 -17t-87.5 -51t-65 -91.5t-29.5 -133.5h522zM502 1376q0 -59 -34.5 -93t-92.5 -34t-94.5 34t-36.5 93q0 56 36.5 90.5t94.5 34.5q57 0 92 -34t35 -91zM932 1376q0 -60 -34.5 -93.5t-94.5 -33.5q-58 0 -93.5 34t-35.5 93
q0 57 36 91t93 34q60 0 94.5 -34t34.5 -91z" />
    <glyph glyph-name="igrave" unicode="&#xec;" horiz-adv-x="509" 
d="M166 0v1053h186v-1053h-186zM197 1530l198 -334l-135 -25l-287 359h224z" />
    <glyph glyph-name="iacute" unicode="&#xed;" horiz-adv-x="509" 
d="M166 0v1053h186v-1053h-186zM88 1196l199 334h223l-287 -359z" />
    <glyph glyph-name="icircumflex" unicode="&#xee;" horiz-adv-x="509" 
d="M166 0v1053h186v-1053h-186zM258 1413l-180 -233l-139 14l229 338h182l232 -338l-142 -12z" />
    <glyph glyph-name="idieresis" unicode="&#xef;" horiz-adv-x="509" 
d="M166 0v1053h186v-1053h-186zM172 1376q0 -59 -34.5 -93t-92.5 -34t-94.5 34t-36.5 93q0 56 36.5 90.5t94.5 34.5q57 0 92 -34t35 -91zM602 1376q0 -60 -34.5 -93.5t-94.5 -33.5q-58 0 -93.5 34t-35.5 93q0 57 36 91t93 34q60 0 94.5 -34t34.5 -91z" />
    <glyph glyph-name="eth" unicode="&#xf0;" horiz-adv-x="1177" 
d="M565 1343q-118 66 -264 87l61 141q215 -30 367 -133l213 121l74 -125l-170 -97q231 -245 231 -692q0 -100 -13.5 -190.5t-49 -180t-90 -154t-144.5 -105t-205 -40.5q-475 0 -475 537q0 107 30 200t87.5 164t148.5 111.5t205 40.5q173 0 291 -80q-60 187 -174 301
l-196 -112l-76 123zM293 516q0 -393 285 -393q86 0 149 40.5t98 113t51.5 160.5t16.5 194q0 67 -6 135q-39 48 -121 81.5t-168 33.5q-151 0 -228 -93.5t-77 -271.5z" />
    <glyph glyph-name="ntilde" unicode="&#xf1;" horiz-adv-x="1191" 
d="M856 0v686q0 113 -46 169t-151 56q-81 0 -168.5 -41t-138.5 -86v-784h-186v1053h164l10 -125q186 147 379 147q168 0 245.5 -89.5t77.5 -270.5v-715h-186zM446 1466q56 0 114 -23.5t108.5 -47t87.5 -23.5q41 0 59.5 21.5t18.5 83.5l112 -4q17 -119 -33 -184.5t-139 -65.5
q-55 0 -114 23.5t-111 47t-90 23.5q-79 0 -72 -111l-115 6q-15 129 41 191q57 63 133 63z" />
    <glyph glyph-name="ograve" unicode="&#xf2;" horiz-adv-x="1183" 
d="M586 -25q-486 0 -486 547q0 260 132 406.5t380 146.5q242 0 356.5 -140t114.5 -388q0 -132 -28 -235t-86.5 -179.5t-155 -117t-227.5 -40.5zM596 125q142 0 217.5 97.5t75.5 312.5q0 143 -34.5 230t-95 122t-155.5 35q-147 0 -229 -95t-82 -297q0 -208 74.5 -306.5
t228.5 -98.5zM584 1530l198 -334l-135 -25l-287 359h224z" />
    <glyph glyph-name="oacute" unicode="&#xf3;" horiz-adv-x="1183" 
d="M586 -25q-486 0 -486 547q0 260 132 406.5t380 146.5q242 0 356.5 -140t114.5 -388q0 -132 -28 -235t-86.5 -179.5t-155 -117t-227.5 -40.5zM596 125q142 0 217.5 97.5t75.5 312.5q0 143 -34.5 230t-95 122t-155.5 35q-147 0 -229 -95t-82 -297q0 -208 74.5 -306.5
t228.5 -98.5zM434 1196l199 334h223l-287 -359z" />
    <glyph glyph-name="ocircumflex" unicode="&#xf4;" horiz-adv-x="1183" 
d="M586 -25q-486 0 -486 547q0 260 132 406.5t380 146.5q242 0 356.5 -140t114.5 -388q0 -132 -28 -235t-86.5 -179.5t-155 -117t-227.5 -40.5zM596 125q142 0 217.5 97.5t75.5 312.5q0 143 -34.5 230t-95 122t-155.5 35q-147 0 -229 -95t-82 -297q0 -208 74.5 -306.5
t228.5 -98.5zM604 1413l-180 -233l-139 14l229 338h182l232 -338l-142 -12z" />
    <glyph glyph-name="otilde" unicode="&#xf5;" horiz-adv-x="1183" 
d="M586 -25q-486 0 -486 547q0 260 132 406.5t380 146.5q242 0 356.5 -140t114.5 -388q0 -132 -28 -235t-86.5 -179.5t-155 -117t-227.5 -40.5zM596 125q142 0 217.5 97.5t75.5 312.5q0 143 -34.5 230t-95 122t-155.5 35q-147 0 -229 -95t-82 -297q0 -208 74.5 -306.5
t228.5 -98.5zM440 1466q56 0 114 -23.5t108.5 -47t87.5 -23.5q41 0 59 21t18 84l113 -4q17 -119 -33 -184.5t-139 -65.5q-55 0 -114 23.5t-111 47t-90 23.5q-79 0 -72 -111l-115 6q-15 129 41 191q57 63 133 63z" />
    <glyph glyph-name="odieresis" unicode="&#xf6;" horiz-adv-x="1183" 
d="M586 -25q-486 0 -486 547q0 260 132 406.5t380 146.5q242 0 356.5 -140t114.5 -388q0 -132 -28 -235t-86.5 -179.5t-155 -117t-227.5 -40.5zM596 125q142 0 217.5 97.5t75.5 312.5q0 143 -34.5 230t-95 122t-155.5 35q-147 0 -229 -95t-82 -297q0 -208 74.5 -306.5
t228.5 -98.5zM518 1376q0 -59 -34.5 -93t-92.5 -34t-94.5 34t-36.5 93q0 56 36.5 90.5t94.5 34.5q57 0 92 -34t35 -91zM948 1376q0 -60 -34.5 -93.5t-94.5 -33.5q-58 0 -93.5 34t-35.5 93q0 57 36 91t93 34q60 0 94.5 -34t34.5 -91z" />
    <glyph glyph-name="divide" unicode="&#xf7;" 
d="M702 340q0 -127 -131 -127t-131 127q0 60 34 93.5t97 33.5q65 0 98 -33t33 -94zM197 743h772v-172h-772v172zM702 979q0 -129 -131 -129t-131 129q0 60 34 93.5t97 33.5q65 0 98 -33t33 -94z" />
    <glyph glyph-name="oslash" unicode="&#xf8;" horiz-adv-x="1183" 
d="M586 -25q-84 0 -148 15l-59 -137h-176l88 200q-191 132 -191 469q0 260 132 406.5t380 146.5q66 0 125 -12l62 137h174l-86 -196q196 -126 196 -457q0 -132 -28 -235t-86.5 -179.5t-155 -117t-227.5 -40.5zM596 125q142 0 217.5 97.5t75.5 312.5q0 211 -76 303l-309 -703
q34 -10 92 -10zM293 530q0 -204 74 -307l305 692q-35 7 -68 7q-147 0 -229 -95t-82 -297z" />
    <glyph glyph-name="ugrave" unicode="&#xf9;" horiz-adv-x="1189" 
d="M348 1053v-686q0 -117 40 -171.5t151 -54.5q82 0 169 41.5t136 87.5v783h186v-1053h-162l-12 121q-168 -141 -373 -141q-165 0 -243 89.5t-78 268.5v715h186zM580 1530l198 -334l-135 -25l-287 359h224z" />
    <glyph glyph-name="uacute" unicode="&#xfa;" horiz-adv-x="1189" 
d="M348 1053v-686q0 -117 40 -171.5t151 -54.5q82 0 169 41.5t136 87.5v783h186v-1053h-162l-12 121q-168 -141 -373 -141q-165 0 -243 89.5t-78 268.5v715h186zM430 1196l199 334h223l-287 -359z" />
    <glyph glyph-name="ucircumflex" unicode="&#xfb;" horiz-adv-x="1189" 
d="M348 1053v-686q0 -117 40 -171.5t151 -54.5q82 0 169 41.5t136 87.5v783h186v-1053h-162l-12 121q-168 -141 -373 -141q-165 0 -243 89.5t-78 268.5v715h186zM600 1413l-180 -233l-139 14l229 338h182l232 -338l-142 -12z" />
    <glyph glyph-name="udieresis" unicode="&#xfc;" horiz-adv-x="1189" 
d="M348 1053v-686q0 -117 40 -171.5t151 -54.5q82 0 169 41.5t136 87.5v783h186v-1053h-162l-12 121q-168 -141 -373 -141q-165 0 -243 89.5t-78 268.5v715h186zM514 1376q0 -59 -34.5 -93t-92.5 -34t-94.5 34t-36.5 93q0 56 36.5 90.5t94.5 34.5q57 0 92 -34t35 -91z
M944 1376q0 -60 -34.5 -93.5t-94.5 -33.5q-58 0 -93.5 34t-35.5 93q0 57 36 91t93 34q60 0 94.5 -34t34.5 -91z" />
    <glyph glyph-name="yacute" unicode="&#xfd;" horiz-adv-x="993" 
d="M223 1053l279 -836h2l289 836h190l-455 -1207q-63 -166 -142 -234.5t-204 -68.5q-53 0 -110.5 12t-91.5 27l22 146q92 -33 168 -33q61 0 108 37.5t80 126.5l50 129l-392 1065h207zM332 1196l198 334h224l-287 -359z" />
    <glyph glyph-name="thorn" unicode="&#xfe;" horiz-adv-x="1189" 
d="M166 1546h184v-610q156 139 357 139q85 0 152 -28t120 -87.5t82 -163t29 -245.5q0 -149 -35 -262t-96.5 -180.5t-140.5 -100.5t-173 -33q-163 0 -297 107h-2v-516h-180v1980zM352 242q1 -1 17.5 -12t23 -15t24.5 -15.5t29 -17l30 -15t34.5 -14t34.5 -10t38.5 -8
t39.5 -2.5q274 0 274 420q0 189 -60 277t-190 88q-80 0 -159.5 -39.5t-135.5 -92.5v-544z" />
    <glyph glyph-name="ydieresis" unicode="&#xff;" horiz-adv-x="993" 
d="M223 1053l279 -836h2l289 836h190l-455 -1207q-63 -166 -142 -234.5t-204 -68.5q-53 0 -110.5 12t-91.5 27l22 146q92 -33 168 -33q61 0 108 37.5t80 126.5l50 129l-392 1065h207zM416 1376q0 -59 -34.5 -93t-92.5 -34t-94.5 34t-36.5 93q0 56 36.5 90.5t94.5 34.5
q57 0 92 -34t35 -91zM846 1376q0 -60 -34.5 -93.5t-94.5 -33.5q-58 0 -93.5 34t-35.5 93q0 57 36 91t93 34q60 0 94.5 -34t34.5 -91z" />
    <glyph glyph-name="Amacron" unicode="&#x100;" horiz-adv-x="1406" 
d="M1335 0h-207l-149 440h-569l-146 -440h-190l499 1483h246zM692 1311l-237 -709h477l-238 709h-2zM387 1769h629v-145h-629v145z" />
    <glyph glyph-name="amacron" unicode="&#x101;" horiz-adv-x="1116" 
d="M936 199q0 -45 13 -63.5t50 -18.5q23 0 64 12l8 -117q-60 -32 -145 -32q-74 0 -114 34.5t-48 89.5q-129 -129 -338 -129q-77 0 -135 20t-90.5 49.5t-53 70t-26.5 74.5t-6 69q0 83 29 146t77.5 102.5t119.5 64.5t148 35t170 10q39 0 93 -4v103q0 109 -44 162t-165 53
q-105 0 -155.5 -41.5t-68.5 -132.5l-163 30q25 148 122.5 218.5t280.5 70.5q198 0 287.5 -84t89.5 -278v-514zM754 477q-44 6 -107 6q-43 0 -76.5 -2t-76 -8t-73 -19.5t-58 -34t-42 -54t-14.5 -76.5q0 -168 176 -168q76 0 150 35t121 84v237zM260 1425h596v-145h-596v145z
" />
    <glyph glyph-name="Abreve" unicode="&#x102;" horiz-adv-x="1406" 
d="M1335 0h-207l-149 440h-569l-146 -440h-190l499 1483h246zM692 1311l-237 -709h477l-238 709h-2zM705 1724q76 0 118.5 33.5t55.5 114.5l135 -12q-13 -130 -94.5 -198.5t-221.5 -68.5q-268 0 -292 265l137 14q17 -81 54.5 -114.5t107.5 -33.5z" />
    <glyph glyph-name="abreve" unicode="&#x103;" horiz-adv-x="1116" 
d="M936 199q0 -45 13 -63.5t50 -18.5q23 0 64 12l8 -117q-60 -32 -145 -32q-74 0 -114 34.5t-48 89.5q-129 -129 -338 -129q-77 0 -135 20t-90.5 49.5t-53 70t-26.5 74.5t-6 69q0 83 29 146t77.5 102.5t119.5 64.5t148 35t170 10q39 0 93 -4v103q0 109 -44 162t-165 53
q-105 0 -155.5 -41.5t-68.5 -132.5l-163 30q25 148 122.5 218.5t280.5 70.5q198 0 287.5 -84t89.5 -278v-514zM754 477q-44 6 -107 6q-43 0 -76.5 -2t-76 -8t-73 -19.5t-58 -34t-42 -54t-14.5 -76.5q0 -168 176 -168q76 0 150 35t121 84v237zM877 1489q-1 -154 -84.5 -236
t-235.5 -82q-292 0 -301 312l137 18q10 -110 49.5 -154t120.5 -44q88 0 130.5 43.5t49.5 152.5z" />
    <glyph glyph-name="Aogonek" unicode="&#x104;" horiz-adv-x="1406" 
d="M1419 -301q-31 -79 -98 -122.5t-143 -43.5q-94 0 -149.5 48t-55.5 134q0 146 155 285l-149 440h-569l-146 -440h-190l499 1483h246l516 -1483q-53 -40 -82.5 -64.5t-61 -57.5t-45 -65t-13.5 -67q0 -78 77 -78q64 0 111 80zM692 1311l-237 -709h477l-238 709h-2z" />
    <glyph glyph-name="aogonek" unicode="&#x105;" horiz-adv-x="1116" 
d="M1114 -301q-31 -79 -98.5 -122.5t-143.5 -43.5q-94 0 -149 48t-55 134q0 145 170 283q-64 34 -74 106q-129 -129 -338 -129q-77 0 -135 20t-90.5 49.5t-53 70t-26.5 74.5t-6 69q0 83 29 146t77.5 102.5t119.5 64.5t148 35t170 10q39 0 93 -4v103q0 109 -44 162t-165 53
q-105 0 -155.5 -41.5t-68.5 -132.5l-163 30q25 148 122.5 218.5t280.5 70.5q198 0 287.5 -84t89.5 -278v-514q0 -45 13 -63.5t50 -18.5q23 0 64 12l8 -117q-91 -21 -167.5 -107t-76.5 -159q0 -78 78 -78q64 0 111 80zM754 477q-44 6 -107 6q-43 0 -76.5 -2t-76 -8t-73 -19.5
t-58 -34t-42 -54t-14.5 -76.5q0 -168 176 -168q76 0 150 35t121 84v237z" />
    <glyph glyph-name="Cacute" unicode="&#x106;" horiz-adv-x="1417" 
d="M754 -25q-171 0 -298 53.5t-203.5 153.5t-113.5 233.5t-37 303.5q0 371 186.5 580.5t504.5 209.5q235 0 383 -118q152 -122 167 -379l-176 -19q-21 178 -109.5 265.5t-266.5 87.5q-233 0 -363.5 -155.5t-130.5 -455.5q0 -311 119.5 -454.5t349.5 -143.5q173 0 267 76.5
t130 235.5l170 -35q-14 -96 -54.5 -172t-96 -125.5t-127.5 -82t-146 -46t-155 -13.5zM635 1595l203 275h225l-287 -299z" />
    <glyph glyph-name="cacute" unicode="&#x107;" horiz-adv-x="1101" 
d="M584 -25q-127 0 -221.5 39.5t-151.5 113t-84 170.5t-27 218q0 272 133 415.5t371 143.5q181 0 288.5 -93.5t117.5 -272.5l-179 -25q-12 119 -69 177.5t-166 58.5q-60 0 -111 -18.5t-95.5 -59.5t-69.5 -118.5t-25 -184.5q0 -408 295 -408q223 0 262 225l164 -34
q-10 -71 -37.5 -129t-68.5 -98t-93.5 -67.5t-110.5 -40t-122 -12.5zM432 1196l199 334h223l-287 -359z" />
    <glyph glyph-name="Ccircumflex" unicode="&#x108;" horiz-adv-x="1417" 
d="M754 -25q-171 0 -298 53.5t-203.5 153.5t-113.5 233.5t-37 303.5q0 371 186.5 580.5t504.5 209.5q235 0 383 -118q152 -122 167 -379l-176 -19q-21 178 -109.5 265.5t-266.5 87.5q-233 0 -363.5 -155.5t-130.5 -455.5q0 -311 119.5 -454.5t349.5 -143.5q173 0 267 76.5
t130 235.5l170 -35q-14 -96 -54.5 -172t-96 -125.5t-127.5 -82t-146 -46t-155 -13.5zM616 1571l-143 18l238 264h161l234 -264l-143 -14l-175 160z" />
    <glyph glyph-name="ccircumflex" unicode="&#x109;" horiz-adv-x="1101" 
d="M584 -25q-127 0 -221.5 39.5t-151.5 113t-84 170.5t-27 218q0 272 133 415.5t371 143.5q181 0 288.5 -93.5t117.5 -272.5l-179 -25q-12 119 -69 177.5t-166 58.5q-60 0 -111 -18.5t-95.5 -59.5t-69.5 -118.5t-25 -184.5q0 -408 295 -408q223 0 262 225l164 -34
q-10 -71 -37.5 -129t-68.5 -98t-93.5 -67.5t-110.5 -40t-122 -12.5zM602 1413l-180 -233l-139 14l229 338h182l232 -338l-142 -12z" />
    <glyph glyph-name="Cdotaccent" unicode="&#x10a;" horiz-adv-x="1417" 
d="M754 -25q-171 0 -298 53.5t-203.5 153.5t-113.5 233.5t-37 303.5q0 371 186.5 580.5t504.5 209.5q235 0 383 -118q152 -122 167 -379l-176 -19q-21 178 -109.5 265.5t-266.5 87.5q-233 0 -363.5 -155.5t-130.5 -455.5q0 -311 119.5 -454.5t349.5 -143.5q173 0 267 76.5
t130 235.5l170 -35q-14 -96 -54.5 -172t-96 -125.5t-127.5 -82t-146 -46t-155 -13.5zM918 1731q0 -63 -34.5 -98.5t-97.5 -35.5t-98 35.5t-35 98.5q0 65 34.5 100t98.5 35q132 0 132 -135z" />
    <glyph glyph-name="cdotaccent" unicode="&#x10b;" horiz-adv-x="1101" 
d="M584 -25q-127 0 -221.5 39.5t-151.5 113t-84 170.5t-27 218q0 272 133 415.5t371 143.5q181 0 288.5 -93.5t117.5 -272.5l-179 -25q-12 119 -69 177.5t-166 58.5q-60 0 -111 -18.5t-95.5 -59.5t-69.5 -118.5t-25 -184.5q0 -408 295 -408q223 0 262 225l164 -34
q-10 -71 -37.5 -129t-68.5 -98t-93.5 -67.5t-110.5 -40t-122 -12.5zM733 1391q0 -136 -131 -136q-63 0 -98 36.5t-35 99.5q0 65 34.5 99t98.5 34q131 0 131 -133z" />
    <glyph glyph-name="Ccaron" unicode="&#x10c;" horiz-adv-x="1417" 
d="M754 -25q-171 0 -298 53.5t-203.5 153.5t-113.5 233.5t-37 303.5q0 371 186.5 580.5t504.5 209.5q235 0 383 -118q152 -122 167 -379l-176 -19q-21 178 -109.5 265.5t-266.5 87.5q-233 0 -363.5 -155.5t-130.5 -455.5q0 -311 119.5 -454.5t349.5 -143.5q173 0 267 76.5
t130 235.5l170 -35q-14 -96 -54.5 -172t-96 -125.5t-127.5 -82t-146 -46t-155 -13.5zM958 1860l144 -19l-238 -264h-162l-233 264l143 14l174 -159z" />
    <glyph glyph-name="ccaron" unicode="&#x10d;" horiz-adv-x="1101" 
d="M584 -25q-127 0 -221.5 39.5t-151.5 113t-84 170.5t-27 218q0 272 133 415.5t371 143.5q181 0 288.5 -93.5t117.5 -272.5l-179 -25q-12 119 -69 177.5t-166 58.5q-60 0 -111 -18.5t-95.5 -59.5t-69.5 -118.5t-25 -184.5q0 -408 295 -408q223 0 262 225l164 -34
q-10 -71 -37.5 -129t-68.5 -98t-93.5 -67.5t-110.5 -40t-122 -12.5zM604 1290l182 234l136 -15l-230 -338h-182l-231 338l147 11z" />
    <glyph glyph-name="Dcaron" unicode="&#x10e;" horiz-adv-x="1490" 
d="M197 1483h456q374 0 555 -188t181 -531q0 -173 -46.5 -311.5t-139 -240.5t-241 -157t-344.5 -55h-421v1483zM621 160q285 0 429 150t144 427q0 134 -24.5 234.5t-69.5 167.5t-115 108t-154.5 58.5t-193.5 17.5h-252v-1163h236zM840 1860l143 -19l-238 -264h-161l-234 264
l144 14l174 -159z" />
    <glyph glyph-name="dcaron" unicode="&#x10f;" horiz-adv-x="1302" 
d="M868 0l-14 113l-2 2q-74 -67 -157 -103.5t-191 -36.5q-189 0 -295.5 130t-106.5 405q0 151 36 263.5t99.5 176.5t141 94.5t168.5 30.5q172 0 295 -98v569h182v-1546h-156zM840 823q-45 36 -116 64t-153 28q-276 0 -276 -405q0 -193 64 -286t200 -93q77 0 151.5 37
t129.5 92v563zM1395 1546l-127 -407l-135 16l67 391h195z" />
    <glyph glyph-name="Dcroat" unicode="&#x110;" horiz-adv-x="1490" 
d="M197 827v656h456q374 0 555 -188t181 -531q0 -173 -46.5 -311.5t-139 -240.5t-241 -157t-344.5 -55h-421v674h-160v153h160zM621 160q285 0 429 150t144 427q0 134 -24.5 234.5t-69.5 167.5t-115 108t-154.5 58.5t-193.5 17.5h-252v-496h416v-153h-416v-514h236z" />
    <glyph glyph-name="dslash" unicode="&#x111;" horiz-adv-x="1181" 
d="M842 1319v227h182v-227h141v-139h-141v-1180h-156l-14 113l-2 2q-74 -67 -157 -103.5t-191 -36.5q-189 0 -295.5 127.5t-106.5 393.5q0 146 36 254t99.5 170t141 91t168.5 29q172 0 295 -98v238h-389v139h389zM840 788q-46 37 -116.5 65t-152.5 28q-276 0 -276 -385
q0 -182 64.5 -273.5t199.5 -91.5q77 0 151.5 37t129.5 92v528z" />
    <glyph glyph-name="Emacron" unicode="&#x112;" horiz-adv-x="1177" 
d="M1090 164v-164h-893v1483h866v-164h-678v-490h637v-163h-637v-502h705zM309 1769h629v-145h-629v145z" />
    <glyph glyph-name="emacron" unicode="&#x113;" horiz-adv-x="1118" 
d="M586 -25q-109 0 -193.5 30t-139 80.5t-89.5 122t-49.5 149t-14.5 167.5q0 113 26 205t71 155.5t108 107t136 63.5t155 20q108 0 189.5 -34t130.5 -96t73.5 -143t24.5 -181q0 -73 -8 -138h-709q6 -190 83 -271t212 -81q109 0 168 47t80 139l164 -36q-31 -150 -143 -228
t-275 -78zM821 631q0 293 -237 293q-55 0 -103 -17t-87.5 -51t-65 -91.5t-29.5 -133.5h522zM291 1425h596v-145h-596v145z" />
    <glyph glyph-name="Ebreve" unicode="&#x114;" horiz-adv-x="1177" 
d="M1090 164v-164h-893v1483h866v-164h-678v-490h637v-163h-637v-502h705zM627 1724q76 0 118.5 33.5t55.5 114.5l135 -12q-13 -130 -94 -198.5t-221 -68.5q-269 0 -293 265l137 14q17 -81 54.5 -114.5t107.5 -33.5z" />
    <glyph glyph-name="ebreve" unicode="&#x115;" horiz-adv-x="1118" 
d="M586 -25q-109 0 -193.5 30t-139 80.5t-89.5 122t-49.5 149t-14.5 167.5q0 113 26 205t71 155.5t108 107t136 63.5t155 20q108 0 189.5 -34t130.5 -96t73.5 -143t24.5 -181q0 -73 -8 -138h-709q6 -190 83 -271t212 -81q109 0 168 47t80 139l164 -36q-31 -150 -143 -228
t-275 -78zM821 631q0 293 -237 293q-55 0 -103 -17t-87.5 -51t-65 -91.5t-29.5 -133.5h522zM907 1489q-1 -154 -84 -236t-235 -82q-292 0 -301 312l137 18q10 -110 49.5 -154t120.5 -44q88 0 130.5 43.5t49.5 152.5z" />
    <glyph glyph-name="Edotaccent" unicode="&#x116;" horiz-adv-x="1177" 
d="M1090 164v-164h-893v1483h866v-164h-678v-490h637v-163h-637v-502h705zM754 1731q0 -63 -34 -98.5t-97 -35.5t-98.5 35.5t-35.5 98.5q0 65 35 100t99 35q131 0 131 -135z" />
    <glyph glyph-name="edotaccent" unicode="&#x117;" horiz-adv-x="1118" 
d="M586 -25q-109 0 -193.5 30t-139 80.5t-89.5 122t-49.5 149t-14.5 167.5q0 113 26 205t71 155.5t108 107t136 63.5t155 20q108 0 189.5 -34t130.5 -96t73.5 -143t24.5 -181q0 -73 -8 -138h-709q6 -190 83 -271t212 -81q109 0 168 47t80 139l164 -36q-31 -150 -143 -228
t-275 -78zM821 631q0 293 -237 293q-55 0 -103 -17t-87.5 -51t-65 -91.5t-29.5 -133.5h522zM719 1391q0 -136 -131 -136q-63 0 -98 36.5t-35 99.5q0 65 34.5 99t98.5 34q131 0 131 -133z" />
    <glyph glyph-name="Eogonek" unicode="&#x118;" horiz-adv-x="1177" 
d="M1106 -301q-31 -79 -98.5 -122.5t-143.5 -43.5q-94 0 -149.5 48t-55.5 134q0 146 172 285h-634v1483h866v-164h-678v-490h637v-163h-637v-502h705v-164h-99q-48 -45 -70.5 -67t-51 -56.5t-39.5 -65t-11 -65.5q0 -78 78 -78q64 0 111 80z" />
    <glyph glyph-name="eogonek" unicode="&#x119;" horiz-adv-x="1118" 
d="M879 -301q-31 -79 -98.5 -122.5t-143.5 -43.5q-94 0 -149.5 48t-55.5 134q0 136 143 260q-106 2 -189 32.5t-136 81t-87.5 121.5t-48.5 148t-14 166q0 113 26 205t71 155.5t108 107t136 63.5t155 20q108 0 189.5 -34t130.5 -96t73.5 -143t24.5 -181q0 -73 -8 -138h-709
q6 -190 83 -271t212 -81q109 0 168 47t80 139l164 -36q-21 -96 -74 -157.5t-144 -119.5q-86 -55 -140 -122.5t-54 -135.5q0 -78 78 -78q63 0 110 80zM821 631q0 293 -237 293q-55 0 -103 -17t-87.5 -51t-65 -91.5t-29.5 -133.5h522z" />
    <glyph glyph-name="Ecaron" unicode="&#x11a;" horiz-adv-x="1177" 
d="M1090 164v-164h-893v1483h866v-164h-678v-490h637v-163h-637v-502h705zM795 1860l143 -19l-238 -264h-161l-234 264l144 14l174 -159z" />
    <glyph glyph-name="ecaron" unicode="&#x11b;" horiz-adv-x="1118" 
d="M586 -25q-109 0 -193.5 30t-139 80.5t-89.5 122t-49.5 149t-14.5 167.5q0 113 26 205t71 155.5t108 107t136 63.5t155 20q108 0 189.5 -34t130.5 -96t73.5 -143t24.5 -181q0 -73 -8 -138h-709q6 -190 83 -271t212 -81q109 0 168 47t80 139l164 -36q-31 -150 -143 -228
t-275 -78zM821 631q0 293 -237 293q-55 0 -103 -17t-87.5 -51t-65 -91.5t-29.5 -133.5h522zM590 1290l182 234l135 -15l-229 -338h-182l-232 338l148 11z" />
    <glyph glyph-name="Gcircumflex" unicode="&#x11c;" horiz-adv-x="1507" 
d="M1182 201q-40 -96 -166.5 -161t-280.5 -65q-164 0 -286.5 54.5t-197.5 155t-112 235.5t-37 303q0 374 185 580t510 206q514 0 549 -493l-181 -19q-19 180 -110 264.5t-264 84.5q-235 0 -364.5 -159t-129.5 -448q0 -135 23.5 -239.5t64.5 -172.5t101.5 -111.5t130.5 -62
t155 -18.5q96 0 173.5 31t124.5 82t72 113t25 128v127h-393v154h572v-770h-138zM623 1571l-144 18l238 264h162l233 -264l-143 -14l-174 160z" />
    <glyph glyph-name="gcircumflex" unicode="&#x11d;" horiz-adv-x="1130" 
d="M551 1075q214 0 305 -96q26 60 68.5 96.5t97.5 36.5q42 0 92 -16v-138q-97 9 -205 -22q40 -41 61 -105t21 -133q0 -116 -58 -202t-155 -129t-219 -43q-121 0 -194 24q-2 -2 -16.5 -16t-19.5 -19.5t-14 -17.5t-12.5 -23.5t-3.5 -23.5q0 -35 28 -54.5t107 -25.5l301 -21
q86 -5 146 -19t106.5 -44.5t69 -82.5t22.5 -128q0 -75 -31 -134.5t-82.5 -96.5t-123 -61.5t-145.5 -34t-158 -9.5q-473 0 -473 260q0 84 49 145.5t121 96.5v2q-115 50 -115 152q0 42 21.5 80.5t46 61t71.5 58.5q-72 38 -114 117t-42 178q0 174 122 280.5t325 106.5zM811 694
q0 116 -67 175t-191 59q-108 0 -188 -56q-80 -53 -80 -174q0 -107 65.5 -167t200.5 -60q117 0 188.5 59.5t71.5 163.5zM887 -150q0 62 -36.5 93.5t-139.5 38.5l-349 20q-61 -39 -88.5 -78t-27.5 -92q0 -47 27 -78t98.5 -50t189.5 -19q326 0 326 165zM549 1413l-180 -233
l-140 14l230 338h182l231 -338l-141 -12z" />
    <glyph glyph-name="Gbreve" unicode="&#x11e;" horiz-adv-x="1507" 
d="M1182 201q-40 -96 -166.5 -161t-280.5 -65q-164 0 -286.5 54.5t-197.5 155t-112 235.5t-37 303q0 374 185 580t510 206q514 0 549 -493l-181 -19q-19 180 -110 264.5t-264 84.5q-235 0 -364.5 -159t-129.5 -448q0 -135 23.5 -239.5t64.5 -172.5t101.5 -111.5t130.5 -62
t155 -18.5q96 0 173.5 31t124.5 82t72 113t25 128v127h-393v154h572v-770h-138zM797 1724q76 0 118.5 33.5t55.5 114.5l135 -12q-13 -130 -94 -198.5t-221 -68.5q-269 0 -293 265l137 14q17 -81 54.5 -114.5t107.5 -33.5z" />
    <glyph glyph-name="gbreve" unicode="&#x11f;" horiz-adv-x="1130" 
d="M551 1075q214 0 305 -96q26 60 68.5 96.5t97.5 36.5q42 0 92 -16v-138q-97 9 -205 -22q40 -41 61 -105t21 -133q0 -116 -58 -202t-155 -129t-219 -43q-121 0 -194 24q-2 -2 -16.5 -16t-19.5 -19.5t-14 -17.5t-12.5 -23.5t-3.5 -23.5q0 -35 28 -54.5t107 -25.5l301 -21
q86 -5 146 -19t106.5 -44.5t69 -82.5t22.5 -128q0 -75 -31 -134.5t-82.5 -96.5t-123 -61.5t-145.5 -34t-158 -9.5q-473 0 -473 260q0 84 49 145.5t121 96.5v2q-115 50 -115 152q0 42 21.5 80.5t46 61t71.5 58.5q-72 38 -114 117t-42 178q0 174 122 280.5t325 106.5zM811 694
q0 116 -67 175t-191 59q-108 0 -188 -56q-80 -53 -80 -174q0 -107 65.5 -167t200.5 -60q117 0 188.5 59.5t71.5 163.5zM887 -150q0 62 -36.5 93.5t-139.5 38.5l-349 20q-61 -39 -88.5 -78t-27.5 -92q0 -47 27 -78t98.5 -50t189.5 -19q326 0 326 165zM868 1489
q-1 -154 -84 -236t-235 -82q-292 0 -301 312l137 18q10 -110 49.5 -154t120.5 -44q88 0 130.5 43.5t49.5 152.5z" />
    <glyph glyph-name="Gdotaccent" unicode="&#x120;" horiz-adv-x="1507" 
d="M1182 201q-40 -96 -166.5 -161t-280.5 -65q-164 0 -286.5 54.5t-197.5 155t-112 235.5t-37 303q0 374 185 580t510 206q514 0 549 -493l-181 -19q-19 180 -110 264.5t-264 84.5q-235 0 -364.5 -159t-129.5 -448q0 -135 23.5 -239.5t64.5 -172.5t101.5 -111.5t130.5 -62
t155 -18.5q96 0 173.5 31t124.5 82t72 113t25 128v127h-393v154h572v-770h-138zM924 1731q0 -63 -34 -98.5t-97 -35.5t-98.5 35.5t-35.5 98.5q0 65 35 100t99 35q131 0 131 -135z" />
    <glyph glyph-name="gdotaccent" unicode="&#x121;" horiz-adv-x="1130" 
d="M551 1075q214 0 305 -96q26 60 68.5 96.5t97.5 36.5q42 0 92 -16v-138q-97 9 -205 -22q40 -41 61 -105t21 -133q0 -116 -58 -202t-155 -129t-219 -43q-121 0 -194 24q-2 -2 -16.5 -16t-19.5 -19.5t-14 -17.5t-12.5 -23.5t-3.5 -23.5q0 -35 28 -54.5t107 -25.5l301 -21
q86 -5 146 -19t106.5 -44.5t69 -82.5t22.5 -128q0 -75 -31 -134.5t-82.5 -96.5t-123 -61.5t-145.5 -34t-158 -9.5q-473 0 -473 260q0 84 49 145.5t121 96.5v2q-115 50 -115 152q0 42 21.5 80.5t46 61t71.5 58.5q-72 38 -114 117t-42 178q0 174 122 280.5t325 106.5zM811 694
q0 116 -67 175t-191 59q-108 0 -188 -56q-80 -53 -80 -174q0 -107 65.5 -167t200.5 -60q117 0 188.5 59.5t71.5 163.5zM887 -150q0 62 -36.5 93.5t-139.5 38.5l-349 20q-61 -39 -88.5 -78t-27.5 -92q0 -47 27 -78t98.5 -50t189.5 -19q326 0 326 165zM680 1391
q0 -136 -131 -136q-63 0 -98 36.5t-35 99.5q0 65 34.5 99t98.5 34q131 0 131 -133z" />
    <glyph glyph-name="uni0122" unicode="&#x122;" horiz-adv-x="1507" 
d="M1182 201q-40 -96 -166.5 -161t-280.5 -65q-164 0 -286.5 54.5t-197.5 155t-112 235.5t-37 303q0 374 185 580t510 206q514 0 549 -493l-181 -19q-19 180 -110 264.5t-264 84.5q-235 0 -364.5 -159t-129.5 -448q0 -135 23.5 -239.5t64.5 -172.5t101.5 -111.5t130.5 -62
t155 -18.5q96 0 173.5 31t124.5 82t72 113t25 128v127h-393v154h572v-770h-138zM866 -141l-139 -357l-139 21l80 336h198z" />
    <glyph glyph-name="uni0123" unicode="&#x123;" horiz-adv-x="1130" 
d="M551 1075q214 0 305 -96q26 60 68.5 96.5t97.5 36.5q42 0 92 -16v-138q-97 9 -205 -22q40 -41 61 -105t21 -133q0 -116 -58 -202t-155 -129t-219 -43q-121 0 -194 24q-2 -2 -16.5 -16t-19.5 -19.5t-14 -17.5t-12.5 -23.5t-3.5 -23.5q0 -35 28 -54.5t107 -25.5l301 -21
q86 -5 146 -19t106.5 -44.5t69 -82.5t22.5 -128q0 -75 -31 -134.5t-82.5 -96.5t-123 -61.5t-145.5 -34t-158 -9.5q-473 0 -473 260q0 84 49 145.5t121 96.5v2q-115 50 -115 152q0 42 21.5 80.5t46 61t71.5 58.5q-72 38 -114 117t-42 178q0 174 122 280.5t325 106.5zM811 694
q0 116 -67 175t-191 59q-108 0 -188 -56q-80 -53 -80 -174q0 -107 65.5 -167t200.5 -60q117 0 188.5 59.5t71.5 163.5zM887 -150q0 62 -36.5 93.5t-139.5 38.5l-349 20q-61 -39 -88.5 -78t-27.5 -92q0 -47 27 -78t98.5 -50t189.5 -19q326 0 326 165zM436 1167l139 357
l140 -21l-80 -336h-199z" />
    <glyph glyph-name="Hcircumflex" unicode="&#x124;" horiz-adv-x="1490" 
d="M1106 0v672h-721v-672h-188v1483h188v-641h721v641h188v-1483h-188zM575 1571l-143 18l238 264h161l234 -264l-143 -14l-174 160z" />
    <glyph glyph-name="hcircumflex" unicode="&#x125;" horiz-adv-x="1191" 
d="M856 0v686q0 113 -46 169t-151 56q-81 0 -168.5 -41t-138.5 -86v-784h-186v1546h184v-612q183 141 371 141q165 0 243 -89.5t78 -270.5v-715h-186zM88 1612l-143 18l237 264h162l234 -264l-144 -14l-174 160z" />
    <glyph glyph-name="Hbar" unicode="&#x126;" horiz-adv-x="1490" 
d="M1456 1225v-146h-162v-1079h-188v672h-721v-672h-188v1079h-162v146h162v258h188v-258h721v258h188v-258h162zM1106 1079h-721v-237h721v237z" />
    <glyph glyph-name="hbar" unicode="&#x127;" horiz-adv-x="1191" 
d="M166 1319v227h184v-227h402v-139h-402v-281q183 141 371 141q165 0 243 -89.5t78 -270.5v-680h-186v651q0 113 -46 169.5t-151 56.5q-81 0 -168.5 -41t-138.5 -86v-750h-186v1180h-137v139h137z" />
    <glyph glyph-name="Itilde" unicode="&#x128;" horiz-adv-x="581" 
d="M209 0v1483h188v-1483h-188zM150 1851q56 0 113.5 -23t108 -46t87.5 -23q41 0 59.5 21.5t18.5 83.5l112 -6q17 -119 -33 -183.5t-139 -64.5q-55 0 -114 23.5t-111 47t-90 23.5q-80 0 -72 -111l-115 6q-15 134 39 191q58 61 136 61z" />
    <glyph glyph-name="itilde" unicode="&#x129;" horiz-adv-x="509" 
d="M176 0v1053h186v-1053h-186zM104 1466q56 0 114 -23.5t108.5 -47t87.5 -23.5q41 0 59.5 21.5t18.5 83.5l112 -4q17 -119 -33 -184.5t-139 -65.5q-55 0 -114 23.5t-111 47t-90 23.5q-79 0 -72 -111l-115 6q-15 130 43 191q54 63 131 63z" />
    <glyph glyph-name="Imacron" unicode="&#x12a;" horiz-adv-x="581" 
d="M197 0v1483h188v-1483h-188zM-23 1769h629v-145h-629v145z" />
    <glyph glyph-name="imacron" unicode="&#x12b;" horiz-adv-x="509" 
d="M166 0v1053h186v-1053h-186zM-39 1425h596v-145h-596v145z" />
    <glyph glyph-name="Ibreve" unicode="&#x12c;" horiz-adv-x="581" 
d="M197 0v1483h188v-1483h-188zM295 1724q76 0 118.5 33.5t55.5 114.5l135 -12q-13 -130 -94 -198.5t-221 -68.5q-269 0 -293 265l137 14q17 -81 54.5 -114.5t107.5 -33.5z" />
    <glyph glyph-name="ibreve" unicode="&#x12d;" horiz-adv-x="509" 
d="M166 0v1053h186v-1053h-186zM578 1489q-1 -154 -84.5 -236t-235.5 -82q-292 0 -301 312l137 18q10 -110 49.5 -154t120.5 -44q88 0 130.5 43.5t49.5 152.5z" />
    <glyph glyph-name="Iogonek" unicode="&#x12e;" horiz-adv-x="581" 
d="M483 -301q-31 -79 -98 -122.5t-143 -43.5q-94 0 -149.5 48t-55.5 134q0 138 160 285v1483h188v-1483q-100 -79 -144 -133t-44 -121q0 -78 77 -78q64 0 111 80z" />
    <glyph glyph-name="iogonek" unicode="&#x12f;" horiz-adv-x="509" 
d="M451 -301q-31 -79 -98.5 -122.5t-143.5 -43.5q-94 0 -149.5 48t-55.5 134q0 140 162 285v1053h186v-1053q-100 -79 -144 -133t-44 -121q0 -78 78 -78q63 0 110 80zM395 1391q0 -63 -35 -99.5t-98 -36.5q-131 0 -131 136q0 133 131 133q64 0 98.5 -34t34.5 -99z" />
    <glyph glyph-name="Idot" unicode="&#x130;" horiz-adv-x="581" 
d="M197 0v1483h188v-1483h-188zM422 1731q0 -63 -34 -98.5t-97 -35.5t-98 35.5t-35 98.5q0 65 35 100t98 35q131 0 131 -135z" />
    <glyph glyph-name="dotlessi" unicode="&#x131;" horiz-adv-x="509" 
d="M166 0v1053h186v-1053h-186z" />
    <glyph glyph-name="IJ" unicode="&#x132;" horiz-adv-x="1603" 
d="M197 0v1483h188v-1483h-188zM1425 1483v-1108q0 -213 -103.5 -306.5t-301.5 -93.5q-183 0 -278 83.5t-107 263.5l180 30q7 -56 17 -90.5t31.5 -66t61 -46t99.5 -14.5q50 0 85.5 9t66 33.5t46 71.5t15.5 118v1116h188z" />
    <glyph glyph-name="ij" unicode="&#x133;" horiz-adv-x="1015" 
d="M166 0v1053h186v-1053h-186zM395 1391q0 -63 -35 -99.5t-98 -36.5q-131 0 -131 136q0 133 131 133q64 0 98.5 -34t34.5 -99zM563 -457q-52 0 -110.5 12t-87.5 29l20 152q79 -31 154 -31q67 0 102 38t35 128v1182h186v-1190q0 -320 -299 -320zM905 1407q0 -135 -131 -135
q-63 0 -98 36t-35 99t35 98t98 35t97 -35t34 -98z" />
    <glyph glyph-name="Jcircumflex" unicode="&#x134;" horiz-adv-x="1021" 
d="M844 1483v-1108q0 -213 -104 -306.5t-302 -93.5q-183 0 -278 83.5t-107 263.5l180 30q7 -56 17 -90.5t31.5 -66t61 -46t99.5 -14.5q50 0 85.5 9t66 33.5t46 71.5t15.5 118v1116h189zM580 1571l-144 18l238 264h162l233 -264l-143 -14l-174 160z" />
    <glyph glyph-name="jcircumflex" unicode="&#x135;" horiz-adv-x="505" 
d="M53 -457q-52 0 -110.5 12t-87.5 29l20 152q79 -31 154 -31q67 0 102 38t35 128v1182h186v-1190q0 -320 -299 -320zM258 1413l-180 -233l-139 14l229 338h182l232 -338l-142 -12z" />
    <glyph glyph-name="uni0136" unicode="&#x136;" horiz-adv-x="1318" 
d="M1051 1483h211l-584 -635l612 -848h-221l-520 700l-164 -174v-526h-188v1483h188v-723zM803 -141l-139 -357l-140 21l80 336h199z" />
    <glyph glyph-name="uni0137" unicode="&#x137;" horiz-adv-x="1087" 
d="M805 1053h211l-365 -379l391 -674h-204l-324 543l-162 -160v-383h-186v1546h186v-956zM680 -141l-139 -357l-140 21l80 336h199z" />
    <glyph glyph-name="kgreenlandic" unicode="&#x138;" horiz-adv-x="1087" 
d="M805 1053h211l-365 -379l391 -674h-204l-324 543l-162 -160v-383h-186v1053h186v-463z" />
    <glyph glyph-name="Lacute" unicode="&#x139;" horiz-adv-x="1130" 
d="M1053 166v-166h-856v1483h188v-1317h668zM141 1595l203 275h225l-286 -299z" />
    <glyph glyph-name="lacute" unicode="&#x13a;" horiz-adv-x="509" 
d="M166 0v1546h186v-1546h-186zM111 1638l202 275h226l-287 -299z" />
    <glyph glyph-name="uni013B" unicode="&#x13b;" horiz-adv-x="1130" 
d="M1053 166v-166h-856v1483h188v-1317h668zM748 -141l-140 -357l-139 21l80 336h199z" />
    <glyph glyph-name="uni013C" unicode="&#x13c;" horiz-adv-x="509" 
d="M166 0v1546h186v-1546h-186zM373 -141l-140 -357l-139 21l80 336h199z" />
    <glyph glyph-name="Lcaron" unicode="&#x13d;" horiz-adv-x="1130" 
d="M1053 166v-166h-856v1483h188v-1317h668zM831 1483l-126 -408l-136 17l68 391h194z" />
    <glyph glyph-name="lcaron" unicode="&#x13e;" horiz-adv-x="628" 
d="M166 0v1546h186v-1546h-186zM721 1546l-127 -407l-135 16l67 391h195z" />
    <glyph glyph-name="Ldot" unicode="&#x13f;" horiz-adv-x="1130" 
d="M1053 166v-166h-856v1483h188v-1317h668zM987 817q0 -63 -34 -98t-97 -35t-98 35t-35 98q0 65 34.5 100t98.5 35q131 0 131 -135z" />
    <glyph glyph-name="ldot" unicode="&#x140;" horiz-adv-x="624" 
d="M166 0v1546h186v-1546h-186zM705 817q0 -135 -132 -135q-63 0 -98 36t-35 99q0 65 34.5 99t98.5 34q132 0 132 -133z" />
    <glyph glyph-name="Lslash" unicode="&#x141;" horiz-adv-x="1130" 
d="M840 1014v-162l-455 -184v-502h668v-166h-856v608l-174 -69v157l174 70v717h188v-656z" />
    <glyph glyph-name="lslash" unicode="&#x142;" horiz-adv-x="569" 
d="M549 1014v-164l-174 -86v-764h-187v702l-168 -79v163l168 80v680h187v-618z" />
    <glyph glyph-name="Nacute" unicode="&#x143;" horiz-adv-x="1525" 
d="M373 1243v-1243h-176v1483h247l711 -1231v1231h174v-1483h-227zM649 1595l203 275h225l-286 -299z" />
    <glyph glyph-name="nacute" unicode="&#x144;" horiz-adv-x="1191" 
d="M856 0v686q0 113 -46 169t-151 56q-81 0 -168.5 -41t-138.5 -86v-784h-186v1053h164l10 -125q186 147 379 147q168 0 245.5 -89.5t77.5 -270.5v-715h-186zM489 1196l199 334h223l-286 -359z" />
    <glyph glyph-name="uni0145" unicode="&#x145;" horiz-adv-x="1525" 
d="M373 1243v-1243h-176v1483h247l711 -1231v1231h174v-1483h-227zM856 -141l-139 -357l-139 21l79 336h199z" />
    <glyph glyph-name="uni0146" unicode="&#x146;" horiz-adv-x="1191" 
d="M856 0v686q0 113 -46 169t-151 56q-81 0 -168.5 -41t-138.5 -86v-784h-186v1053h164l10 -125q186 147 379 147q168 0 245.5 -89.5t77.5 -270.5v-715h-186zM700 -141l-139 -357l-139 21l80 336h198z" />
    <glyph glyph-name="Ncaron" unicode="&#x147;" horiz-adv-x="1525" 
d="M373 1243v-1243h-176v1483h247l711 -1231v1231h174v-1483h-227zM950 1860l144 -19l-238 -264h-162l-233 264l143 14l174 -159z" />
    <glyph glyph-name="ncaron" unicode="&#x148;" horiz-adv-x="1191" 
d="M856 0v686q0 113 -46 169t-151 56q-81 0 -168.5 -41t-138.5 -86v-784h-186v1053h164l10 -125q186 147 379 147q168 0 245.5 -89.5t77.5 -270.5v-715h-186zM616 1290l183 234l135 -15l-229 -338h-183l-231 338l147 11z" />
    <glyph glyph-name="napostrophe" unicode="&#x149;" horiz-adv-x="1439" 
d="M80 1137l43 409h192l-100 -430zM1104 0v686q0 113 -46 169t-151 56q-81 0 -168.5 -41t-138.5 -86v-784h-186v1053h164l10 -125q186 147 379 147q168 0 245.5 -89.5t77.5 -270.5v-715h-186z" />
    <glyph glyph-name="Eng" unicode="&#x14a;" horiz-adv-x="1394" 
d="M903 -461q-48 0 -109.5 13t-93.5 28l21 141q87 -34 164 -34q74 0 109.5 42.5t35.5 135.5v1155q0 162 -60.5 247t-205.5 85q-100 0 -207 -45.5t-174 -96.5v-1210h-186v1483h163l11 -133q226 157 448 157q210 0 304 -117t94 -348v-1189q0 -314 -314 -314z" />
    <glyph glyph-name="eng" unicode="&#x14b;" horiz-adv-x="1191" 
d="M1042 -137q0 -320 -299 -320q-52 0 -110.5 12t-87.5 29l20 152q79 -31 154 -31q67 0 102 38t35 128v815q0 113 -46 169t-151 56q-81 0 -168.5 -41t-138.5 -86v-784h-186v1053h164l10 -125q186 147 379 147q168 0 245.5 -89.5t77.5 -270.5v-852z" />
    <glyph glyph-name="Omacron" unicode="&#x14c;" horiz-adv-x="1554" 
d="M768 -25q-135 0 -245 37.5t-188 105t-130.5 163t-77.5 211t-25 249.5q0 222 79 394t238.5 273t379.5 101q132 0 240.5 -37.5t184.5 -104t127.5 -159.5t76 -203t24.5 -235q0 -368 -176 -581.5t-508 -213.5zM778 141q221 0 351.5 154t130.5 457q0 288 -124.5 439.5
t-342.5 151.5q-223 0 -358.5 -155.5t-135.5 -444.5q0 -294 129 -448t350 -154zM475 1769h629v-145h-629v145z" />
    <glyph glyph-name="omacron" unicode="&#x14d;" horiz-adv-x="1183" 
d="M586 -25q-486 0 -486 547q0 260 132 406.5t380 146.5q242 0 356.5 -140t114.5 -388q0 -132 -28 -235t-86.5 -179.5t-155 -117t-227.5 -40.5zM596 125q142 0 217.5 97.5t75.5 312.5q0 143 -34.5 230t-95 122t-155.5 35q-147 0 -229 -95t-82 -297q0 -208 74.5 -306.5
t228.5 -98.5zM307 1425h596v-145h-596v145z" />
    <glyph glyph-name="Obreve" unicode="&#x14e;" horiz-adv-x="1554" 
d="M768 -25q-135 0 -245 37.5t-188 105t-130.5 163t-77.5 211t-25 249.5q0 222 79 394t238.5 273t379.5 101q132 0 240.5 -37.5t184.5 -104t127.5 -159.5t76 -203t24.5 -235q0 -368 -176 -581.5t-508 -213.5zM778 141q221 0 351.5 154t130.5 457q0 288 -124.5 439.5
t-342.5 151.5q-223 0 -358.5 -155.5t-135.5 -444.5q0 -294 129 -448t350 -154zM793 1724q76 0 118.5 33.5t55.5 114.5l135 -12q-13 -130 -94.5 -198.5t-221.5 -68.5q-268 0 -292 265l137 14q17 -81 54.5 -114.5t107.5 -33.5z" />
    <glyph glyph-name="obreve" unicode="&#x14f;" horiz-adv-x="1183" 
d="M586 -25q-486 0 -486 547q0 260 132 406.5t380 146.5q242 0 356.5 -140t114.5 -388q0 -132 -28 -235t-86.5 -179.5t-155 -117t-227.5 -40.5zM596 125q142 0 217.5 97.5t75.5 312.5q0 143 -34.5 230t-95 122t-155.5 35q-147 0 -229 -95t-82 -297q0 -208 74.5 -306.5
t228.5 -98.5zM924 1489q-1 -154 -84.5 -236t-235.5 -82q-292 0 -301 312l137 18q10 -110 49.5 -154t120.5 -44q88 0 131 43.5t50 152.5z" />
    <glyph glyph-name="Ohungarumlaut" unicode="&#x150;" horiz-adv-x="1554" 
d="M768 -25q-135 0 -245 37.5t-188 105t-130.5 163t-77.5 211t-25 249.5q0 222 79 394t238.5 273t379.5 101q132 0 240.5 -37.5t184.5 -104t127.5 -159.5t76 -203t24.5 -235q0 -368 -176 -581.5t-508 -213.5zM778 141q221 0 351.5 154t130.5 457q0 288 -124.5 439.5
t-342.5 151.5q-223 0 -358.5 -155.5t-135.5 -444.5q0 -294 129 -448t350 -154zM567 1597l135 273h220l-220 -299zM827 1595l203 283h225l-288 -307z" />
    <glyph glyph-name="ohungarumlaut" unicode="&#x151;" horiz-adv-x="1183" 
d="M586 -25q-486 0 -486 547q0 260 132 406.5t380 146.5q242 0 356.5 -140t114.5 -388q0 -132 -28 -235t-86.5 -179.5t-155 -117t-227.5 -40.5zM596 125q142 0 217.5 97.5t75.5 312.5q0 143 -34.5 230t-95 122t-155.5 35q-147 0 -229 -95t-82 -297q0 -208 74.5 -306.5
t228.5 -98.5zM375 1198l149 330h219l-235 -357zM643 1196l205 336h223l-293 -361z" />
    <glyph glyph-name="OE" unicode="&#x152;" horiz-adv-x="2230" 
d="M1272 227q-76 -120 -205.5 -186t-298.5 -66q-135 0 -245 37.5t-188 105t-130.5 163t-77.5 211t-25 249.5q0 222 79 394t237.5 273t376.5 101q320 0 477 -233v207h846v-154h-678v-500h635v-163h-635v-502h704v-164h-872v227zM778 141q219 0 350.5 152t131.5 452
q0 293 -124 445.5t-343 152.5q-223 0 -358.5 -155.5t-135.5 -444.5q0 -292 129 -447t350 -155z" />
    <glyph glyph-name="oe" unicode="&#x153;" horiz-adv-x="1894" 
d="M1368 -25q-289 0 -391 213q-109 -213 -395 -213q-105 0 -188 27.5t-137.5 75.5t-90 117.5t-51 149.5t-15.5 175q0 260 131 407.5t375 147.5q272 0 381 -213q59 104 160 157.5t231 53.5q107 0 187.5 -34t129 -96.5t72 -144t23.5 -182.5q0 -78 -8 -133h-709q3 -100 26 -170
t65 -109t93 -56t117 -17q200 0 242 186l164 -36q-31 -148 -143 -227t-269 -79zM596 125q143 0 218 96.5t75 313.5q0 145 -34 232t-94.5 121t-156.5 34q-311 0 -311 -394q0 -206 74.5 -304.5t228.5 -98.5zM1597 631q0 145 -57.5 219t-181.5 74q-114 0 -195.5 -74t-87.5 -219
h522z" />
    <glyph glyph-name="Racute" unicode="&#x154;" horiz-adv-x="1292" 
d="M1057 0l-340 616h-334v-616h-186v1483h508q107 0 191 -23t137.5 -60.5t88 -90.5t48.5 -109.5t14 -120.5q0 -161 -76 -264t-211 -149l365 -666h-205zM659 774q159 0 244.5 66t85.5 229q0 151 -94 203q-92 51 -254 51h-258v-549h276zM479 1595l203 275h225l-286 -299z" />
    <glyph glyph-name="racute" unicode="&#x155;" horiz-adv-x="745" 
d="M725 881q-95 14 -203 -21q-104 -34 -170 -94v-766h-186v1053h156l14 -152q68 92 152.5 133t197.5 41q21 0 39 -2v-192zM297 1196l199 334h223l-287 -359z" />
    <glyph glyph-name="uni0156" unicode="&#x156;" horiz-adv-x="1292" 
d="M1057 0l-340 616h-334v-616h-186v1483h508q107 0 191 -23t137.5 -60.5t88 -90.5t48.5 -109.5t14 -120.5q0 -161 -76 -264t-211 -149l365 -666h-205zM659 774q159 0 244.5 66t85.5 229q0 151 -94 203q-92 51 -254 51h-258v-549h276zM778 -141l-139 -357l-139 21l80 336
h198z" />
    <glyph glyph-name="uni0157" unicode="&#x157;" horiz-adv-x="745" 
d="M725 881q-95 14 -203 -21q-104 -34 -170 -94v-766h-186v1053h156l14 -152q68 92 152.5 133t197.5 41q21 0 39 -2v-192zM367 -141l-140 -357l-139 21l80 336h199z" />
    <glyph glyph-name="Rcaron" unicode="&#x158;" horiz-adv-x="1292" 
d="M1057 0l-340 616h-334v-616h-186v1483h508q107 0 191 -23t137.5 -60.5t88 -90.5t48.5 -109.5t14 -120.5q0 -161 -76 -264t-211 -149l365 -666h-205zM659 774q159 0 244.5 66t85.5 229q0 151 -94 203q-92 51 -254 51h-258v-549h276zM803 1860l143 -19l-237 -264h-162
l-234 264l144 14l174 -159z" />
    <glyph glyph-name="rcaron" unicode="&#x159;" horiz-adv-x="745" 
d="M725 881q-95 14 -203 -21q-104 -34 -170 -94v-766h-186v1053h156l14 -152q68 92 152.5 133t197.5 41q21 0 39 -2v-192zM446 1290l183 234l135 -15l-229 -338h-183l-231 338l147 11z" />
    <glyph glyph-name="Sacute" unicode="&#x15a;" horiz-adv-x="1193" 
d="M612 1350q-161 0 -235 -63t-74 -169q0 -51 19.5 -92t49.5 -68.5t77.5 -51t93.5 -39t106 -34.5q5 -1 8 -2q172 -52 240 -86q162 -80 200 -224q13 -50 13 -109q0 -113 -43 -199t-117 -137t-166 -76t-198 -25q-239 0 -376 102.5t-165 325.5l180 27q12 -52 27 -91t43 -79.5
t65.5 -66t95.5 -42t132 -16.5q65 0 120 12t104 38.5t77.5 77.5t28.5 122q0 39 -10.5 71.5t-26.5 57t-44 46t-53.5 35.5t-66.5 29t-71 24t-77 22q-174 48 -248 85q-164 81 -199 240q-11 49 -11 105q0 187 140.5 298t358.5 111q102 0 182.5 -21t147 -67.5t107 -129.5
t51.5 -199l-176 -21q-8 60 -25 105t-50.5 87t-93 64.5t-141.5 22.5zM457 1595l202 275h226l-287 -299z" />
    <glyph glyph-name="sacute" unicode="&#x15b;" horiz-adv-x="997" 
d="M508 1075q180 0 269.5 -78t115.5 -227l-168 -37q-10 50 -23.5 82.5t-37.5 60t-63 40t-95 12.5q-108 0 -155.5 -40.5t-47.5 -107.5q0 -32 11 -56.5t28.5 -41.5t49.5 -30.5t64 -22.5t81 -19q51 -10 82.5 -17.5t75.5 -21t71 -28.5t58 -38.5t47.5 -52t28 -68.5t11.5 -89
q0 -149 -109.5 -234.5t-301.5 -85.5q-372 0 -420 306l166 45q12 -47 27.5 -79.5t44 -63t76 -45.5t114.5 -15q219 0 219 151q0 43 -14 71t-48 46t-68.5 27.5t-98.5 21.5q-38 7 -59 11.5t-57.5 14t-58.5 17.5t-53 22.5t-50 30.5t-40.5 38.5t-33 48.5t-19.5 60.5t-8 74.5
q0 103 54 176t140.5 107t194.5 34zM336 1196l199 334h223l-287 -359z" />
    <glyph glyph-name="Scircumflex" unicode="&#x15c;" horiz-adv-x="1193" 
d="M612 1350q-161 0 -235 -63t-74 -169q0 -51 19.5 -92t49.5 -68.5t77.5 -51t93.5 -39t106 -34.5q5 -1 8 -2q172 -52 240 -86q162 -80 200 -224q13 -50 13 -109q0 -113 -43 -199t-117 -137t-166 -76t-198 -25q-239 0 -376 102.5t-165 325.5l180 27q12 -52 27 -91t43 -79.5
t65.5 -66t95.5 -42t132 -16.5q65 0 120 12t104 38.5t77.5 77.5t28.5 122q0 39 -10.5 71.5t-26.5 57t-44 46t-53.5 35.5t-66.5 29t-71 24t-77 22q-174 48 -248 85q-164 81 -199 240q-11 49 -11 105q0 187 140.5 298t358.5 111q102 0 182.5 -21t147 -67.5t107 -129.5
t51.5 -199l-176 -21q-8 60 -25 105t-50.5 87t-93 64.5t-141.5 22.5zM438 1571l-143 18l237 264h162l234 -264l-144 -14l-174 160z" />
    <glyph glyph-name="scircumflex" unicode="&#x15d;" horiz-adv-x="997" 
d="M508 1075q180 0 269.5 -78t115.5 -227l-168 -37q-10 50 -23.5 82.5t-37.5 60t-63 40t-95 12.5q-108 0 -155.5 -40.5t-47.5 -107.5q0 -32 11 -56.5t28.5 -41.5t49.5 -30.5t64 -22.5t81 -19q51 -10 82.5 -17.5t75.5 -21t71 -28.5t58 -38.5t47.5 -52t28 -68.5t11.5 -89
q0 -149 -109.5 -234.5t-301.5 -85.5q-372 0 -420 306l166 45q12 -47 27.5 -79.5t44 -63t76 -45.5t114.5 -15q219 0 219 151q0 43 -14 71t-48 46t-68.5 27.5t-98.5 21.5q-38 7 -59 11.5t-57.5 14t-58.5 17.5t-53 22.5t-50 30.5t-40.5 38.5t-33 48.5t-19.5 60.5t-8 74.5
q0 103 54 176t140.5 107t194.5 34zM506 1413l-180 -233l-140 14l230 338h182l231 -338l-141 -12z" />
    <glyph glyph-name="Scedilla" unicode="&#x15e;" horiz-adv-x="1193" 
d="M436 -330q75 -30 111 -30q49 0 75.5 26t26.5 66q0 51 -34.5 72.5t-114.5 23.5l18 149q-208 14 -327.5 117t-145.5 309l180 27q12 -52 27 -91t43 -79.5t65.5 -66t95.5 -42t132 -16.5q65 0 120 12t104 38.5t77.5 77.5t28.5 122q0 39 -10.5 71.5t-26.5 57t-44 46t-53.5 35.5
t-66.5 29t-71 24t-77 22q-174 48 -248 85q-164 81 -199 240q-11 49 -11 105q0 187 140.5 298t358.5 111q102 0 182.5 -21t147 -67.5t107 -129.5t51.5 -199l-176 -21q-8 60 -25 105t-50.5 87t-93 64.5t-141.5 22.5q-161 0 -235 -63t-74 -169q0 -51 19.5 -92t49.5 -68.5
t77.5 -51t93.5 -39t106 -34.5q5 -1 8 -2q172 -52 240 -86q162 -80 200 -224q13 -50 13 -109q0 -106 -37.5 -188t-104 -133t-149 -79.5t-180.5 -34.5l-8 -67q162 -31 162 -180q0 -92 -64 -148.5t-162 -56.5q-88 0 -159 39z" />
    <glyph glyph-name="scedilla" unicode="&#x15f;" horiz-adv-x="997" 
d="M358 -330q75 -30 115 -30q46 0 72 26t26 66q0 51 -34.5 72.5t-114.5 23.5l20 149q-317 21 -362 304l166 45q12 -47 27.5 -79.5t44 -63t76 -45.5t114.5 -15q219 0 219 151q0 43 -14 71t-48 46t-68.5 27.5t-98.5 21.5q-49 9 -77 15t-73.5 19.5t-72.5 27.5t-60.5 38.5
t-51.5 53.5t-31 71t-13 93q0 103 54 176t140.5 107t194.5 34q180 0 269.5 -78t115.5 -227l-168 -37q-10 50 -23.5 82.5t-37.5 60t-63 40t-95 12.5q-108 0 -155.5 -40.5t-47.5 -107.5q0 -32 11 -56.5t28.5 -41.5t49.5 -30.5t64 -22.5t81 -19q51 -10 82.5 -17.5t75.5 -21
t71 -28.5t58 -38.5t47.5 -52t28 -68.5t11.5 -89q0 -136 -93 -220t-257 -98l-8 -67q162 -31 162 -180q0 -92 -64 -148.5t-162 -56.5q-90 0 -165 41z" />
    <glyph glyph-name="Scaron" unicode="&#x160;" horiz-adv-x="1193" 
d="M612 1350q-161 0 -235 -63t-74 -169q0 -51 19.5 -92t49.5 -68.5t77.5 -51t93.5 -39t106 -34.5q5 -1 8 -2q172 -52 240 -86q162 -80 200 -224q13 -50 13 -109q0 -113 -43 -199t-117 -137t-166 -76t-198 -25q-239 0 -376 102.5t-165 325.5l180 27q12 -52 27 -91t43 -79.5
t65.5 -66t95.5 -42t132 -16.5q65 0 120 12t104 38.5t77.5 77.5t28.5 122q0 39 -10.5 71.5t-26.5 57t-44 46t-53.5 35.5t-66.5 29t-71 24t-77 22q-174 48 -248 85q-164 81 -199 240q-11 49 -11 105q0 187 140.5 298t358.5 111q102 0 182.5 -21t147 -67.5t107 -129.5
t51.5 -199l-176 -21q-8 60 -25 105t-50.5 87t-93 64.5t-141.5 22.5zM780 1860l144 -19l-238 -264h-162l-233 264l143 14l174 -159z" />
    <glyph glyph-name="scaron" unicode="&#x161;" horiz-adv-x="997" 
d="M508 1075q180 0 269.5 -78t115.5 -227l-168 -37q-10 50 -23.5 82.5t-37.5 60t-63 40t-95 12.5q-108 0 -155.5 -40.5t-47.5 -107.5q0 -32 11 -56.5t28.5 -41.5t49.5 -30.5t64 -22.5t81 -19q51 -10 82.5 -17.5t75.5 -21t71 -28.5t58 -38.5t47.5 -52t28 -68.5t11.5 -89
q0 -149 -109.5 -234.5t-301.5 -85.5q-372 0 -420 306l166 45q12 -47 27.5 -79.5t44 -63t76 -45.5t114.5 -15q219 0 219 151q0 43 -14 71t-48 46t-68.5 27.5t-98.5 21.5q-38 7 -59 11.5t-57.5 14t-58.5 17.5t-53 22.5t-50 30.5t-40.5 38.5t-33 48.5t-19.5 60.5t-8 74.5
q0 103 54 176t140.5 107t194.5 34zM508 1290l182 234l135 -15l-229 -338h-182l-232 338l148 11z" />
    <glyph glyph-name="uni0162" unicode="&#x162;" horiz-adv-x="1134" 
d="M418 -330q75 -30 110 -30q49 0 76 26t27 66q0 51 -35 72.5t-115 23.5l23 172h-29v1319h-448v164h1081v-164h-444v-1319h-39l-13 -90q162 -31 162 -180q0 -92 -63.5 -148.5t-161.5 -56.5q-89 0 -160 39z" />
    <glyph glyph-name="uni0163" unicode="&#x163;" horiz-adv-x="776" 
d="M303 -330q75 -30 115 -30q46 0 72 26t26 66q0 51 -34.5 72.5t-114.5 23.5l22 160q-96 24 -143 93.5t-47 194.5v627h-162v150h162v305l186 28v-333h291v-150h-291v-602q0 -89 31.5 -130.5t120.5 -41.5q45 0 97 15.5t87 35.5l33 -135q-37 -26 -106.5 -45.5t-141.5 -24.5
l-8 -65q161 -31 161 -180q0 -92 -63.5 -148.5t-161.5 -56.5q-91 0 -166 41z" />
    <glyph glyph-name="Tcaron" unicode="&#x164;" horiz-adv-x="1134" 
d="M475 1319h-448v164h1081v-164h-444v-1319h-189v1319zM739 1860l144 -19l-238 -264h-162l-233 264l143 14l174 -159z" />
    <glyph glyph-name="tcaron" unicode="&#x165;" horiz-adv-x="786" 
d="M754 45q-41 -28 -114.5 -49t-143.5 -21q-150 0 -223.5 72.5t-73.5 228.5v627h-162v150h162v305l186 28v-333h291v-150h-291v-602q0 -89 31.5 -130.5t120.5 -41.5q45 0 97 15.5t87 35.5zM764 1579l-127 -408l-135 17l67 391h195z" />
    <glyph glyph-name="Tbar" unicode="&#x166;" horiz-adv-x="1134" 
d="M475 672h-289v149h289v498h-448v164h1081v-164h-444v-498h284v-149h-284v-672h-189v672z" />
    <glyph glyph-name="tbar" unicode="&#x167;" horiz-adv-x="776" 
d="M754 45q-41 -28 -114.5 -49t-143.5 -21q-150 0 -223.5 72.5t-73.5 228.5v201h-162v141h162v285h-162v150h162v305l186 28v-333h291v-150h-291v-285h291v-141h-291v-176q0 -89 31.5 -130.5t120.5 -41.5q45 0 97 15.5t87 35.5z" />
    <glyph glyph-name="Utilde" unicode="&#x168;" horiz-adv-x="1462" 
d="M733 139q184 0 270.5 85.5t86.5 289.5v969h186v-985q0 -262 -142 -392.5t-409 -130.5q-280 0 -410.5 131.5t-130.5 395.5v981h189v-963q0 -200 89.5 -290.5t270.5 -90.5zM575 1851q56 0 114 -23t108.5 -46t87.5 -23q41 0 59.5 21.5t18.5 83.5l112 -6q17 -119 -33 -183.5
t-139 -64.5q-55 0 -114 23.5t-111 47t-90 23.5q-80 0 -72 -111l-115 6q-15 134 39 191q58 61 135 61z" />
    <glyph glyph-name="utilde" unicode="&#x169;" horiz-adv-x="1189" 
d="M348 1053v-686q0 -117 40 -171.5t151 -54.5q82 0 169 41.5t136 87.5v783h186v-1053h-162l-12 121q-168 -141 -373 -141q-165 0 -243 89.5t-78 268.5v715h186zM436 1466q56 0 113.5 -23.5t108 -47t87.5 -23.5q41 0 59.5 21.5t18.5 83.5l113 -4q17 -119 -33 -184.5
t-139 -65.5q-55 0 -114 23.5t-111 47t-90 23.5q-79 0 -72 -111l-115 6q-15 129 41 191q57 63 133 63z" />
    <glyph glyph-name="Umacron" unicode="&#x16a;" horiz-adv-x="1462" 
d="M733 139q184 0 270.5 85.5t86.5 289.5v969h186v-985q0 -262 -142 -392.5t-409 -130.5q-280 0 -410.5 131.5t-130.5 395.5v981h189v-963q0 -200 89.5 -290.5t270.5 -90.5zM416 1769h628v-145h-628v145z" />
    <glyph glyph-name="umacron" unicode="&#x16b;" horiz-adv-x="1189" 
d="M348 1053v-686q0 -117 40 -171.5t151 -54.5q82 0 169 41.5t136 87.5v783h186v-1053h-162l-12 121q-168 -141 -373 -141q-165 0 -243 89.5t-78 268.5v715h186zM303 1425h596v-145h-596v145z" />
    <glyph glyph-name="Ubreve" unicode="&#x16c;" horiz-adv-x="1462" 
d="M733 139q184 0 270.5 85.5t86.5 289.5v969h186v-985q0 -262 -142 -392.5t-409 -130.5q-280 0 -410.5 131.5t-130.5 395.5v981h189v-963q0 -200 89.5 -290.5t270.5 -90.5zM733 1724q76 0 118.5 33.5t55.5 114.5l135 -12q-13 -130 -94 -198.5t-221 -68.5q-269 0 -293 265
l137 14q17 -81 54.5 -114.5t107.5 -33.5z" />
    <glyph glyph-name="ubreve" unicode="&#x16d;" horiz-adv-x="1189" 
d="M348 1053v-686q0 -117 40 -171.5t151 -54.5q82 0 169 41.5t136 87.5v783h186v-1053h-162l-12 121q-168 -141 -373 -141q-165 0 -243 89.5t-78 268.5v715h186zM920 1489q-1 -154 -84.5 -236t-235.5 -82q-292 0 -301 312l137 18q10 -110 49.5 -154t120.5 -44
q88 0 130.5 43.5t49.5 152.5z" />
    <glyph glyph-name="Uring" unicode="&#x16e;" horiz-adv-x="1462" 
d="M733 139q184 0 270.5 85.5t86.5 289.5v969h186v-985q0 -262 -142 -392.5t-409 -130.5q-280 0 -410.5 131.5t-130.5 395.5v981h189v-963q0 -200 89.5 -290.5t270.5 -90.5zM950 1706q0 -98 -60 -153.5t-161 -55.5q-98 0 -157.5 53t-59.5 146q0 104 62 159.5t155 55.5
q96 0 158.5 -52.5t62.5 -152.5zM729 1599q50 0 76 28.5t26 80.5q0 98 -102 98q-47 0 -75.5 -26t-28.5 -78q0 -103 104 -103z" />
    <glyph glyph-name="uring" unicode="&#x16f;" horiz-adv-x="1189" 
d="M348 1053v-686q0 -117 40 -171.5t151 -54.5q82 0 169 41.5t136 87.5v783h186v-1053h-162l-12 121q-168 -141 -373 -141q-165 0 -243 89.5t-78 268.5v715h186zM819 1380q0 -97 -59 -151.5t-160 -54.5q-98 0 -156.5 52.5t-58.5 145.5q0 101 61.5 156t153.5 55
q96 0 157.5 -51.5t61.5 -151.5zM600 1276q49 0 74.5 28t25.5 76q0 99 -100 99q-45 0 -73.5 -27t-28.5 -76q0 -100 102 -100z" />
    <glyph glyph-name="Uhungarumlaut" unicode="&#x170;" horiz-adv-x="1462" 
d="M733 139q184 0 270.5 85.5t86.5 289.5v969h186v-985q0 -262 -142 -392.5t-409 -130.5q-280 0 -410.5 131.5t-130.5 395.5v981h189v-963q0 -200 89.5 -290.5t270.5 -90.5zM496 1597l135 273h219l-219 -299zM756 1595l202 283h226l-289 -307z" />
    <glyph glyph-name="uhungarumlaut" unicode="&#x171;" horiz-adv-x="1189" 
d="M348 1053v-686q0 -117 40 -171.5t151 -54.5q82 0 169 41.5t136 87.5v783h186v-1053h-162l-12 121q-168 -141 -373 -141q-165 0 -243 89.5t-78 268.5v715h186zM354 1198l150 330h219l-236 -357zM623 1196l204 336h224l-293 -361z" />
    <glyph glyph-name="Uogonek" unicode="&#x172;" horiz-adv-x="1462" 
d="M1092 -301q-31 -79 -98.5 -122.5t-143.5 -43.5q-94 0 -149.5 48t-55.5 134q0 131 146 262q-8 0 -31 -1t-35 -1q-280 0 -410.5 131.5t-130.5 395.5v981h189v-963q0 -200 89.5 -290.5t270.5 -90.5q184 0 270.5 85.5t86.5 289.5v969h186v-985q0 -93 -17.5 -166.5
t-53.5 -130.5t-82.5 -100.5t-112.5 -84.5q-96 -59 -150.5 -128.5t-54.5 -141.5q0 -78 78 -78q63 0 110 80z" />
    <glyph glyph-name="uogonek" unicode="&#x173;" horiz-adv-x="1189" 
d="M1143 -301q-31 -79 -98.5 -122.5t-143.5 -43.5q-94 0 -149.5 48t-55.5 134q0 146 172 285l-12 121q-168 -141 -373 -141q-165 0 -243 89.5t-78 268.5v715h186v-686q0 -117 40 -171.5t151 -54.5q82 0 169 41.5t136 87.5v783h186v-1053q-50 -46 -71.5 -67t-51 -56.5
t-40.5 -65.5t-11 -65q0 -78 78 -78q63 0 110 80z" />
    <glyph glyph-name="Wcircumflex" unicode="&#x174;" horiz-adv-x="1818" 
d="M918 1219h-3l-323 -1219h-234l-323 1483h196l254 -1262h2l328 1262h209l328 -1278h2l243 1278h189l-313 -1483h-240zM748 1571l-144 18l238 264h162l233 -264l-143 -14l-174 160z" />
    <glyph glyph-name="wcircumflex" unicode="&#x175;" horiz-adv-x="1554" 
d="M12 1053h189l256 -856l231 856h193l229 -852h2l250 852h180l-328 -1053h-217l-217 829h-2l-215 -829h-221zM784 1413l-180 -233l-139 14l229 338h183l231 -338l-141 -12z" />
    <glyph glyph-name="Ycircumflex" unicode="&#x176;" horiz-adv-x="1159" 
d="M496 0v573l-506 910h213l389 -723h4l379 723h194l-485 -905v-578h-188zM420 1571l-144 18l238 264h162l233 -264l-143 -14l-174 160z" />
    <glyph glyph-name="ycircumflex" unicode="&#x177;" horiz-adv-x="993" 
d="M223 1053l279 -836h2l289 836h190l-455 -1207q-63 -166 -142 -234.5t-204 -68.5q-53 0 -110.5 12t-91.5 27l22 146q92 -33 168 -33q61 0 108 37.5t80 126.5l50 129l-392 1065h207zM502 1413l-180 -233l-140 14l230 338h182l231 -338l-141 -12z" />
    <glyph glyph-name="Ydieresis" unicode="&#x178;" horiz-adv-x="1159" 
d="M496 0v573l-506 910h213l389 -723h4l379 723h194l-485 -905v-578h-188zM506 1722q0 -57 -35 -91t-92 -34q-58 0 -94.5 34.5t-36.5 90.5q0 59 36.5 93t94.5 34t92.5 -34t34.5 -93zM936 1722q0 -57 -34.5 -91t-94.5 -34q-57 0 -93 34t-36 91q0 59 35.5 93t93.5 34
q60 0 94.5 -33.5t34.5 -93.5z" />
    <glyph glyph-name="Zacute" unicode="&#x179;" horiz-adv-x="1204" 
d="M1120 164v-164h-1050v139l792 1180h-770v164h995v-144l-788 -1175h821zM434 1595l203 275h225l-287 -299z" />
    <glyph glyph-name="zacute" unicode="&#x17a;" horiz-adv-x="940" 
d="M889 150v-150h-826v127l590 776h-581v150h792v-135l-590 -768h615zM305 1196l199 334h223l-287 -359z" />
    <glyph glyph-name="Zdotaccent" unicode="&#x17b;" horiz-adv-x="1204" 
d="M1120 164v-164h-1050v139l792 1180h-770v164h995v-144l-788 -1175h821zM717 1731q0 -63 -34 -98.5t-97 -35.5t-98 35.5t-35 98.5q0 65 34.5 100t98.5 35q131 0 131 -135z" />
    <glyph glyph-name="zdotaccent" unicode="&#x17c;" horiz-adv-x="940" 
d="M889 150v-150h-826v127l590 776h-581v150h792v-135l-590 -768h615zM606 1391q0 -136 -131 -136q-63 0 -98 36.5t-35 99.5q0 65 34.5 99t98.5 34q131 0 131 -133z" />
    <glyph glyph-name="Zcaron" unicode="&#x17d;" horiz-adv-x="1204" 
d="M1120 164v-164h-1050v139l792 1180h-770v164h995v-144l-788 -1175h821zM758 1860l143 -19l-237 -264h-162l-234 264l144 14l174 -159z" />
    <glyph glyph-name="zcaron" unicode="&#x17e;" horiz-adv-x="940" 
d="M889 150v-150h-826v127l590 776h-581v150h792v-135l-590 -768h615zM477 1290l182 234l136 -15l-230 -338h-182l-231 338l147 11z" />
    <glyph glyph-name="longs" unicode="&#x17f;" horiz-adv-x="604" 
d="M166 0v1223q0 171 81 257.5t232 86.5q116 0 193 -35l-8 -143q-76 26 -148 26q-79 0 -121.5 -41t-42.5 -145v-1229h-186z" />
    <glyph glyph-name="uni0180" unicode="&#x180;" horiz-adv-x="1193" 
d="M649 -25q-154 0 -305 117h-2l-10 -92h-162v1180h-137v133h137v233h184v-233h387v-133h-387v-277q79 66 164 101.5t193 35.5q67 0 123.5 -16.5t105 -54.5t82.5 -95.5t53 -143.5t19 -195q0 -142 -35 -251.5t-96.5 -176t-140.5 -99.5t-173 -33zM627 127q149 0 211 115
q63 111 63 295q0 181 -60 267.5t-190 86.5q-81 0 -161 -40.5t-134 -94.5v-518q149 -111 271 -111z" />
    <glyph glyph-name="uni0181" unicode="&#x181;" horiz-adv-x="1601" 
d="M498 1325h-35q-61 0 -105.5 -8.5t-85 -31t-61.5 -67.5t-21 -112q0 -58 13 -121l-162 -8q-5 13 -13 64.5t-8 91.5q0 173 119 261.5t322 88.5h553q128 0 217 -27t137.5 -78.5t69 -113.5t20.5 -144q0 -147 -83 -232.5t-218 -115.5v-4q179 -23 266.5 -117t87.5 -250
q0 -92 -28 -162t-77 -115t-122 -73t-156.5 -39.5t-187.5 -11.5h-442v1325zM938 152q50 0 89 2.5t79 9.5t70 19t57 31.5t43.5 46.5t26.5 65t10 86q0 52 -12 92.5t-32 68.5t-52 48.5t-65.5 32t-80 18t-87 8.5t-95.5 2h-205v-530h254zM899 829q54 0 102 6.5t98.5 24.5t86.5 47
t59 77.5t23 111.5q0 55 -10.5 94.5t-35.5 65.5t-54 41.5t-79 23t-96 10t-119 2.5h-190v-504h215z" />
    <glyph glyph-name="uni0186" unicode="&#x186;" horiz-adv-x="1417" 
d="M625 -25q-242 0 -387.5 123t-163.5 373l174 16q24 -179 112.5 -267.5t266.5 -88.5q235 0 365 158t130 463q0 314 -119.5 460t-351.5 146q-171 0 -267.5 -78.5t-133.5 -239.5l-166 33q19 118 75.5 205.5t138 136t172.5 71.5t194 23q171 0 298 -53t203.5 -152.5t113 -232.5
t36.5 -303q0 -375 -184 -584t-506 -209z" />
    <glyph glyph-name="uni0187" unicode="&#x187;" horiz-adv-x="1474" 
d="M754 -25q-171 0 -298 54t-203.5 154.5t-113.5 233t-37 300.5q0 374 184 583t500 209q283 0 404 -174v99q0 67 10 118t34 93t68.5 64t108.5 22q65 0 117 -25l-8 -137q-35 18 -72 18q-105 0 -105 -145v-428l-155 -15q-25 175 -121.5 265t-275.5 90q-233 0 -364.5 -158.5
t-131.5 -462.5q0 -606 471 -606q174 0 269.5 78t131.5 239l166 -32q-14 -95 -54 -170.5t-95.5 -124.5t-127.5 -81.5t-146.5 -46.5t-155.5 -14z" />
    <glyph glyph-name="uni0188" unicode="&#x188;" horiz-adv-x="1134" 
d="M551 -25q-127 0 -221.5 39.5t-151 113t-83.5 170.5t-27 218q0 271 131 414t366 143q80 0 149 -25t111 -71v119q0 59 9.5 104.5t32 85t65.5 61t104 21.5q81 0 123 -25l-8 -133q-39 17 -78 17q-54 0 -75 -33.5t-21 -108.5v-374l-158 -23q-26 236 -250 236q-62 0 -113 -18
t-96.5 -59.5t-71.5 -119.5t-26 -188q0 -92 16.5 -164t44 -117.5t66.5 -75t81.5 -41.5t92.5 -12q111 0 173.5 53t82.5 170l164 -33q-12 -89 -51.5 -156.5t-99 -107.5t-130 -60t-151.5 -20z" />
    <glyph glyph-name="uni0189" unicode="&#x189;" horiz-adv-x="1490" 
d="M197 827v656h456q374 0 555 -188t181 -531q0 -173 -46.5 -311.5t-139 -240.5t-241 -157t-344.5 -55h-421v674h-160v153h160zM621 160q285 0 429 150t144 427q0 134 -24.5 234.5t-69.5 167.5t-115 108t-154.5 58.5t-193.5 17.5h-252v-496h416v-153h-416v-514h236z" />
    <glyph glyph-name="uni018A" unicode="&#x18a;" horiz-adv-x="1789" 
d="M498 1325h-25q-64 0 -111 -9t-88 -31t-62.5 -65.5t-21.5 -107.5t13 -127l-162 -8q-8 21 -14.5 69.5t-6.5 86.5q0 89 35 157.5t96.5 109.5t139 62t168.5 21h493q191 0 333 -49.5t230 -144.5t130.5 -225.5t42.5 -299.5q0 -173 -46 -311.5t-138.5 -240.5t-241 -157
t-344.5 -55h-420v1325zM922 154q284 0 427.5 151.5t143.5 431.5q0 169 -36.5 285t-111 183t-173 95.5t-236.5 28.5h-250v-1175h236z" />
    <glyph glyph-name="uni018E" unicode="&#x18e;" horiz-adv-x="1177" 
d="M88 158h705v512h-635v157h635v500h-678v156h866v-1483h-893v158z" />
    <glyph glyph-name="uni018F" unicode="&#x18f;" horiz-adv-x="1458" 
d="M692 -25q-91 0 -171 16t-160.5 59.5t-137.5 111.5t-93 180t-36 258q0 105 10 203h1059q-1 149 -33.5 257t-92 172t-139.5 94t-183 30q-342 0 -424 -334l-168 37q30 148 119 251t212 151t271 48q164 0 286.5 -54t197 -153.5t111 -233t36.5 -300.5q0 -380 -173 -586.5
t-491 -206.5zM692 131q213 0 333 134.5t134 387.5h-885q-2 -42 -2 -65q0 -101 21.5 -180t59 -130.5t91.5 -85t114.5 -47.5t133.5 -14z" />
    <glyph glyph-name="uni0190" unicode="&#x190;" horiz-adv-x="1165" 
d="M571 -25q-228 0 -362.5 106t-134.5 304q0 165 95 261.5t245 123.5v6q-68 15 -120.5 39t-97 63t-68.5 99t-24 139q0 177 127.5 285t337.5 108q198 0 326 -90q129 -91 156 -319l-172 -29q-12 66 -29.5 111.5t-50 88.5t-88.5 65t-136 22q-141 0 -210.5 -68t-69.5 -182
q0 -132 95.5 -204.5t277.5 -72.5h98v-153h-127q-80 0 -141.5 -12t-116 -42t-84 -89.5t-29.5 -145.5q0 -129 92 -194q91 -64 224 -64q81 0 141 22.5t97 65t58 89.5t35 110l179 -35q-62 -408 -523 -408z" />
    <glyph glyph-name="uni0191" unicode="&#x191;" horiz-adv-x="1120" 
d="M72 -463q-50 0 -116 14t-93 29l18 141q91 -34 164 -34q80 0 116 42t36 134v1620h866v-156h-678v-526h627v-156h-627v-792q0 -316 -313 -316z" />
    <glyph glyph-name="florin" unicode="&#x192;" horiz-adv-x="669" 
d="M74 -457q-53 0 -112.5 11t-84.5 28l19 142q83 -31 155 -31q66 0 101.5 39t35.5 127v1050h-155v144h155v172q0 170 81.5 256t232.5 86q115 0 192 -35l-8 -139q-76 26 -147 26q-79 0 -121.5 -41t-42.5 -145v-180h293v-144h-293v-1050q0 -316 -301 -316z" />
    <glyph glyph-name="uni0193" unicode="&#x193;" horiz-adv-x="1511" 
d="M735 -25q-164 0 -286.5 54.5t-197.5 155t-112 235.5t-37 303q0 376 183 581t506 205q279 0 399 -176v127q0 271 219 271q67 0 119 -25l-8 -137q-30 18 -76 18q-53 0 -77 -35t-24 -108v-426l-157 -17q-20 172 -120 262.5t-273 90.5q-235 0 -366.5 -161.5t-131.5 -453.5
q0 -614 477 -614q96 0 173.5 32.5t124.5 86t72 117.5t25 131v129h-393v149h572v-770h-138l-26 201q-40 -96 -166.5 -161t-280.5 -65z" />
    <glyph glyph-name="uni0194" unicode="&#x194;" horiz-adv-x="1210" 
d="M492 584l-459 899h209l366 -752l361 752h209l-465 -910l338 -573h-895zM774 137l-176 318l-180 -318h356z" />
    <glyph glyph-name="uni0196" unicode="&#x196;" horiz-adv-x="722" 
d="M487 -25q-294 0 -294 299v1209h186v-1198q0 -80 32.5 -121t110.5 -41q72 0 125 33l35 -129q-82 -52 -195 -52z" />
    <glyph glyph-name="uni0197" unicode="&#x197;" horiz-adv-x="636" 
d="M25 856h198v627h189v-627h200v-154h-200v-702h-189v702h-198v154z" />
    <glyph glyph-name="uni0198" unicode="&#x198;" horiz-adv-x="1411" 
d="M831 1278q125 144 192 187.5t155 43.5q106 0 162 -58t69 -194l-141 -24q-15 121 -97 121q-35 0 -70.5 -29.5t-127.5 -134.5l-291 -338l612 -852h-221l-522 717l-166 -187v-530h-188v1483h188v-725z" />
    <glyph glyph-name="uni0199" unicode="&#x199;" horiz-adv-x="1087" 
d="M166 1176q0 391 366 391q92 0 183 -31l-8 -137q-64 20 -138 20q-118 0 -167.5 -58t-49.5 -194v-585l453 471h211l-365 -381l391 -672h-204l-324 547l-162 -164v-383h-186v1176z" />
    <glyph glyph-name="uni019A" unicode="&#x19a;" horiz-adv-x="641" 
d="M27 856h198v627h189v-627h200v-154h-200v-702h-189v702h-198v154z" />
    <glyph glyph-name="uni019C" unicode="&#x19c;" horiz-adv-x="1951" 
d="M1755 2h-166l-10 129q-94 -72 -185.5 -111.5t-203.5 -39.5q-117 0 -186.5 39t-102.5 118q-194 -157 -397 -157q-177 0 -251.5 93.5t-74.5 286.5v1123h191v-1098q0 -114 34 -178t154 -64q81 0 168.5 39.5t144.5 89.5q-6 41 -6 86v1125h191v-1100q0 -111 35 -176
q34 -64 153 -64q84 0 176 43.5t146 94.5v1202h190v-1481z" />
    <glyph glyph-name="uni019D" unicode="&#x19d;" horiz-adv-x="1574" 
d="M109 -463q-51 0 -111 13t-86 30l18 141q91 -34 164 -34q78 0 115 42t37 134v1620h248l710 -1245v1245h174v-1483h-227l-729 1257v-1407q0 -313 -313 -313z" />
    <glyph glyph-name="uni019E" unicode="&#x19e;" horiz-adv-x="1191" 
d="M856 688q0 115 -46 172.5t-151 57.5q-79 0 -168 -42.5t-139 -89.5v-786h-186v1053h164l10 -127q186 147 379 147q168 0 245.5 -89.5t77.5 -270.5v-1147h-186v1122z" />
    <glyph glyph-name="uni019F" unicode="&#x19f;" horiz-adv-x="1554" 
d="M768 -25q-135 0 -245 37.5t-188 105t-130.5 163t-77.5 211t-25 249.5q0 222 79 394t238.5 273t379.5 101q132 0 240.5 -37.5t184.5 -104t127.5 -159.5t76 -203t24.5 -235q0 -368 -176 -581.5t-508 -213.5zM793 1343q-204 0 -337 -133t-153 -383h954q-17 252 -139.5 384
t-324.5 132zM778 141q198 0 330 129q134 134 149 406h-956q17 -261 143.5 -398t333.5 -137z" />
    <glyph glyph-name="Ohorn" unicode="&#x1a0;" horiz-adv-x="1599" 
d="M768 -25q-135 0 -245 37.5t-188 105t-130.5 163t-77.5 211t-25 249.5q0 222 79 394t238.5 273t379.5 101q310 0 479 -196q37 4 61 15.5t38 26.5t21 44t9 56.5t2 74.5v100h156v-92q0 -153 -44 -232t-165 -104q96 -176 96 -430q0 -244 -75.5 -421.5t-231 -276.5t-377.5 -99
zM778 133q221 0 351.5 156.5t130.5 462.5q0 290 -124.5 445t-342.5 155q-222 0 -358 -158.5t-136 -450.5q0 -296 129 -453t350 -157z" />
    <glyph glyph-name="ohorn" unicode="&#x1a1;" horiz-adv-x="1280" 
d="M586 -25q-107 0 -191 27.5t-139 75.5t-90.5 118t-50.5 149.5t-15 174.5q0 260 132 406.5t380 146.5q253 0 371 -160q96 9 117 62q20 50 20 155v101h156v-92q0 -159 -49 -238.5t-183 -101.5q39 -104 39 -252q0 -132 -28 -235t-86.5 -179.5t-155 -117t-227.5 -40.5z
M596 121q143 0 218 98t75 316q0 213 -71 302t-214 89q-147 0 -229 -96.5t-82 -301.5q0 -210 74 -308.5t229 -98.5z" />
    <glyph glyph-name="uni01A4" unicode="&#x1a4;" horiz-adv-x="1570" 
d="M506 1325h-41q-266 0 -266 -209q0 -72 12 -131l-162 -8q-20 62 -20 156q0 91 33.5 159.5t94.5 109.5t140.5 61t177.5 20h514q111 0 197.5 -23.5t141.5 -64t90.5 -98t50 -120.5t14.5 -137q0 -257 -145.5 -376t-422.5 -119h-223v-545h-186v1325zM903 698q71 0 124 7.5
t104.5 29t84 57.5t52.5 96t20 142q0 93 -25.5 152.5t-83 91.5t-131.5 43.5t-190 11.5h-166v-631h211z" />
    <glyph glyph-name="uni01A5" unicode="&#x1a5;" horiz-adv-x="1189" 
d="M166 1225q0 174 70 258t219 84q101 0 178 -31l-8 -137q-55 22 -115 22q-79 0 -125.5 -43.5t-46.5 -136.5v-313q166 145 364 145q86 0 154 -28t121 -88t81.5 -162.5t28.5 -243.5q0 -149 -35 -262t-96 -180.5t-138.5 -100.5t-168.5 -33q-157 0 -301 111v-547h-182v1686z
M623 127q274 0 274 426q0 198 -60 284.5t-190 86.5q-81 0 -160.5 -40.5t-134.5 -95.5v-550q151 -111 271 -111z" />
    <glyph glyph-name="uni01A9" unicode="&#x1a9;" horiz-adv-x="1187" 
d="M53 127l418 627l-395 596v133h1026v-156h-783l365 -553l-408 -618h826v-156h-1049v127z" />
    <glyph glyph-name="uni01AA" unicode="&#x1aa;" horiz-adv-x="1083" 
d="M821 -25q-142 0 -218.5 68.5t-76.5 232.5v742q-37 -33 -91 -54.5t-109 -21.5q-123 0 -207 79t-84 226q0 150 96 235t254 85q170 0 249 -94.5t79 -278.5v-907q0 -83 34.5 -123.5t118.5 -40.5q87 0 183 51l34 -129q-12 -8 -44 -22.5t-95 -31t-123 -16.5zM352 1079
q43 0 86.5 16t65.5 31t22 19q3 65 -2 113t-20.5 87t-48 59.5t-80.5 20.5q-82 0 -126 -48.5t-44 -125.5q0 -78 38 -125t109 -47z" />
    <glyph glyph-name="uni01AC" unicode="&#x1ac;" horiz-adv-x="1314" 
d="M655 1325h-200q-275 0 -275 -205q0 -50 13 -135l-162 -8q-21 81 -21 158q0 90 34.5 158.5t96 109t140 60.5t172.5 20h835v-158h-444v-1325h-189v1325z" />
    <glyph glyph-name="uni01AD" unicode="&#x1ad;" horiz-adv-x="776" 
d="M496 -25q-150 0 -223.5 71.5t-73.5 227.5v635h-162v144h162v172q0 342 303 342q100 0 178 -31l-8 -137q-49 22 -121 22q-75 0 -120.5 -42t-45.5 -138v-188h291v-144h-291v-612q0 -91 31.5 -132.5t120.5 -41.5q45 0 97 15.5t87 35.5l33 -129q-41 -28 -114.5 -49
t-143.5 -21z" />
    <glyph glyph-name="uni01AE" unicode="&#x1ae;" horiz-adv-x="1134" 
d="M788 -463q-313 0 -313 318v1470h-448v158h1081v-158h-444v-1466q0 -90 36.5 -131t112.5 -41q75 0 166 34l18 -141q-31 -18 -93.5 -30.5t-115.5 -12.5z" />
    <glyph glyph-name="Uhorn" unicode="&#x1af;" horiz-adv-x="1599" 
d="M721 -25q-279 0 -408 131t-129 394v983h189v-969q0 -202 89 -291.5t271 -89.5q184 0 270.5 86t86.5 291v973h186v-172q42 4 69 14.5t43.5 25.5t24.5 43.5t10 57t2 78.5v100h156v-92q0 -90 -12 -148.5t-45 -103.5t-93.5 -67.5t-154.5 -26.5l2 -696q0 -261 -144.5 -391
t-412.5 -130z" />
    <glyph glyph-name="uhorn" unicode="&#x1b0;" horiz-adv-x="1353" 
d="M479 -20q-165 0 -241 89t-76 269v715h186v-688q0 -115 44.5 -172.5t146.5 -57.5q82 0 168.5 42.5t136.5 88.5v787h186v-142q42 4 69 14.5t43.5 25.5t24.5 43.5t10.5 57.5t2.5 78v101h155v-92q0 -90 -12 -148.5t-45 -104.5t-93.5 -68.5t-154.5 -26.5v-791h-162l-12 129
q-177 -149 -377 -149z" />
    <glyph glyph-name="uni01B1" unicode="&#x1b1;" horiz-adv-x="1607" 
d="M782 -25q-140 0 -254 38t-189.5 101t-127 148t-74 177t-22.5 190q0 76 12.5 146t42.5 140.5t77 129.5t119.5 109.5t165.5 84.5v92h-362v154h532v-340q-190 -38 -289.5 -169.5t-99.5 -342.5q0 -219 129.5 -359.5t352.5 -140.5q105 0 189.5 28.5t140.5 76.5t94 115.5
t54.5 142t16.5 157.5q0 110 -31 198.5t-86 146.5t-122.5 94.5t-147.5 52.5v340h531v-154h-361v-90q186 -58 301 -211t115 -379q0 -141 -44 -262t-129 -214t-222 -146.5t-312 -53.5z" />
    <glyph glyph-name="uni01B2" unicode="&#x1b2;" horiz-adv-x="1431" 
d="M600 -25q-212 0 -314 125t-102 359v1024h189v-977q0 -200 55 -286.5t180 -86.5q85 0 160.5 35.5t132 97t101.5 142t73.5 172.5t43 186.5t14.5 185.5q0 229 -60 320q-59 90 -186 90q-77 0 -160 -27l-6 142q27 13 85.5 23.5t117.5 10.5q90 0 159 -28t113 -76.5t71.5 -120
t38.5 -150t11 -175.5q0 -155 -31.5 -301t-94 -270t-148 -217t-200 -145.5t-243.5 -52.5z" />
    <glyph glyph-name="uni01B3" unicode="&#x1b3;" horiz-adv-x="1296" 
d="M496 569l-506 914h207l393 -729l205 483q67 157 130 214.5t183 57.5q107 0 167 -58.5t73 -193.5l-142 -24q-15 121 -96 121q-49 0 -80 -35t-74 -133l-272 -625v-561h-188v569z" />
    <glyph glyph-name="uni01B4" unicode="&#x1b4;" horiz-adv-x="1310" 
d="M834 1155q52 150 122.5 216.5t186.5 66.5q109 0 169.5 -58t73.5 -194l-141 -25q-15 121 -96 121q-51 0 -86 -37t-70 -129l-430 -1182q-32 -86 -55.5 -140.5t-56 -107.5t-67.5 -81t-83.5 -45t-110.5 -17q-117 0 -210 39l22 137q117 -30 168 -30q78 0 133 67t105 232
l-392 1065h201l283 -848h2z" />
    <glyph glyph-name="uni01B5" unicode="&#x1b5;" horiz-adv-x="1204" 
d="M70 131l379 571h-269v150h367l315 475h-768v156h993v-137l-327 -494h239v-150h-337l-363 -546h821v-156h-1050v131z" />
    <glyph glyph-name="uni01B6" unicode="&#x1b6;" horiz-adv-x="940" 
d="M63 127l267 354h-191v142h299l215 284h-581v146h792v-129l-233 -308h153v-139h-260l-248 -327h613v-150h-826v127z" />
    <glyph glyph-name="uni01B7" unicode="&#x1b7;" horiz-adv-x="1196" 
d="M514 -502q-212 0 -348.5 108.5t-165.5 309.5l178 31q12 -59 36 -108.5t64.5 -92.5t104 -67.5t143.5 -24.5q105 0 183.5 38.5t123 106t66 150t21.5 180.5q0 94 -22.5 168.5t-70 132.5t-129 89.5t-192.5 31.5q-78 0 -156 -10v151l481 635h-720v156h954v-135l-510 -658
q143 3 252 -40t174.5 -121t98 -177t32.5 -217q0 -105 -20.5 -197.5t-67 -174t-115 -140t-169.5 -92t-226 -33.5z" />
    <glyph glyph-name="uni01B8" unicode="&#x1b8;" horiz-adv-x="1196" 
d="M670 -502q-123 0 -222 33t-166 89.5t-112.5 135t-65.5 167t-20 188.5q0 99 19.5 185.5t62.5 160.5t106.5 126t157 80.5t209.5 26.5l-508 658v135h954v-156h-716l483 -635v-151q-82 10 -162 10q-111 0 -192.5 -32t-129 -91.5t-70 -136t-22.5 -172.5q0 -97 22 -179.5
t66.5 -147t119.5 -101.5t173 -37q85 0 151.5 24.5t108 67.5t65.5 92.5t34 108.5l176 -31q-29 -203 -165 -310.5t-357 -107.5z" />
    <glyph glyph-name="uni01B9" unicode="&#x1b9;" horiz-adv-x="952" 
d="M543 -463q-228 0 -352.5 126t-124.5 335q0 208 115 326.5t331 111.5l-399 486v131h739v-146h-526l391 -475v-137q-86 14 -185 14q-127 0 -203.5 -76.5t-76.5 -218.5q0 -327 289 -327q199 0 239 198l160 -32q-26 -148 -123.5 -232t-273.5 -84z" />
    <glyph glyph-name="uni01C0" unicode="&#x1c0;" horiz-adv-x="581" 
d="M197 1546h188v-1792h-188v1792z" />
    <glyph glyph-name="uni01C1" unicode="&#x1c1;" horiz-adv-x="1007" 
d="M623 1546h188v-1792h-188v1792zM197 1546h188v-1792h-188v1792z" />
    <glyph glyph-name="uni01C2" unicode="&#x1c2;" horiz-adv-x="671" 
d="M43 543h199v297h-199v153h199v553h188v-553h199v-153h-199v-297h199v-154h-199v-635h-188v635h-199v154z" />
    <glyph glyph-name="uni01C3" unicode="&#x1c3;" horiz-adv-x="581" 
d="M197 1546h188v-973h-188v973zM197 319h188v-319h-188v319z" />
    <glyph glyph-name="uni01C4" unicode="&#x1c4;" horiz-adv-x="2641" 
d="M197 1483h456q374 0 555 -188t181 -531q0 -173 -46.5 -311.5t-139 -240.5t-241 -157t-344.5 -55h-421v1483zM621 160q285 0 429 150t144 427q0 134 -24.5 234.5t-69.5 167.5t-115 108t-154.5 58.5t-193.5 17.5h-252v-1163h236zM2558 164v-164h-1051v139l793 1180h-770
v164h995v-144l-788 -1175h821zM1696 1929l147 10l176 -233l183 238l135 -15l-228 -338h-182z" />
    <glyph glyph-name="uni01C5" unicode="&#x1c5;" horiz-adv-x="2428" 
d="M197 1483h456q374 0 555 -188t181 -531q0 -173 -46.5 -311.5t-139 -240.5t-241 -157t-344.5 -55h-421v1483zM621 160q285 0 429 150t144 427q0 134 -24.5 234.5t-69.5 167.5t-115 108t-154.5 58.5t-193.5 17.5h-252v-1163h236zM2378 150v-150h-826v127l590 776h-581v150
h792v-135l-590 -768h615zM1960 1290l182 234l135 -15l-229 -338h-182l-232 338l148 11z" />
    <glyph glyph-name="uni01C6" unicode="&#x1c6;" horiz-adv-x="2121" 
d="M868 0l-14 113l-2 2q-74 -67 -157 -103.5t-191 -36.5q-189 0 -295.5 130t-106.5 405q0 151 36 263.5t99.5 176.5t141 94.5t168.5 30.5q172 0 295 -98v569h182v-1546h-156zM840 823q-45 36 -116 64t-153 28q-276 0 -276 -405q0 -193 64 -286t200 -93q77 0 151.5 37
t129.5 92v563zM2073 150v-150h-826v127l590 776h-582v150h793v-135l-590 -768h615zM1655 1290l182 234l135 -15l-229 -338h-182l-232 338l148 11z" />
    <glyph glyph-name="uni01C7" unicode="&#x1c7;" horiz-adv-x="2131" 
d="M1053 166v-166h-856v1483h188v-1317h668zM1954 1483v-1108q0 -213 -104 -306.5t-302 -93.5q-183 0 -278 83.5t-107 263.5l180 30q7 -56 17 -90.5t31.5 -66t61 -46t99.5 -14.5q50 0 85.5 9t66 33.5t46 71.5t15.5 118v1116h189z" />
    <glyph glyph-name="uni01C9" unicode="&#x1c9;" horiz-adv-x="1015" 
d="M166 0v1546h186v-1546h-186zM563 -457q-52 0 -110.5 12t-87.5 29l20 152q79 -31 154 -31q67 0 102 38t35 128v1182h186v-1190q0 -320 -299 -320zM905 1407q0 -135 -131 -135q-63 0 -98 36t-35 99t35 98t98 35t97 -35t34 -98z" />
    <glyph glyph-name="uni01CA" unicode="&#x1ca;" horiz-adv-x="2547" 
d="M373 1243v-1243h-176v1483h247l711 -1231v1231h174v-1483h-227zM2370 1483v-1108q0 -213 -104 -306.5t-302 -93.5q-183 0 -278 83.5t-107 263.5l180 30q7 -56 17 -90.5t31.5 -66t61 -46t99.5 -14.5q50 0 85.5 9t66 33.5t46 71.5t15.5 118v1116h189z" />
    <glyph glyph-name="uni01CB" unicode="&#x1cb;" horiz-adv-x="2031" 
d="M373 1243v-1243h-176v1483h247l711 -1231v1231h174v-1483h-227zM1579 -457q-52 0 -111 12t-88 29l21 152q79 -31 153 -31q67 0 102.5 38.5t35.5 127.5v1182h186v-1190q0 -320 -299 -320zM1921 1407q0 -135 -131 -135q-63 0 -98 36t-35 99t35 98t98 35t97 -35t34 -98z" />
    <glyph glyph-name="uni01CC" unicode="&#x1cc;" horiz-adv-x="1697" 
d="M856 0v686q0 113 -46 169t-151 56q-81 0 -168.5 -41t-138.5 -86v-784h-186v1053h164l10 -125q186 147 379 147q168 0 245.5 -89.5t77.5 -270.5v-715h-186zM1245 -457q-52 0 -110.5 12t-87.5 29l20 152q79 -31 154 -31q67 0 102 38t35 128v1182h186v-1190
q0 -320 -299 -320zM1587 1407q0 -135 -131 -135q-63 0 -98 36t-35 99t35 98t98 35t97 -35t34 -98z" />
    <glyph glyph-name="uni01CD" unicode="&#x1cd;" horiz-adv-x="1406" 
d="M1335 0h-207l-149 440h-569l-146 -440h-190l499 1483h246zM692 1311l-237 -709h477l-238 709h-2zM866 1860l144 -19l-238 -264h-162l-233 264l143 14l174 -159z" />
    <glyph glyph-name="uni01CE" unicode="&#x1ce;" horiz-adv-x="1107" 
d="M936 199q0 -45 13 -63.5t50 -18.5q23 0 64 12l8 -117q-60 -32 -145 -32q-74 0 -114 34.5t-48 89.5q-129 -129 -338 -129q-77 0 -135 20t-90.5 49.5t-53 70t-26.5 74.5t-6 69q0 83 29 146t77.5 102.5t119.5 64.5t148 35t170 10q39 0 93 -4v103q0 109 -44 162t-165 53
q-105 0 -155.5 -41.5t-68.5 -132.5l-163 30q25 148 122.5 218.5t280.5 70.5q198 0 287.5 -84t89.5 -278v-514zM754 477q-44 6 -107 6q-43 0 -76.5 -2t-76 -8t-73 -19.5t-58 -34t-42 -54t-14.5 -76.5q0 -168 176 -168q76 0 150 35t121 84v237zM551 1290l182 234l135 -15
l-229 -338h-182l-232 338l148 11z" />
    <glyph glyph-name="uni01CF" unicode="&#x1cf;" horiz-adv-x="581" 
d="M197 0v1483h188v-1483h-188zM461 1860l143 -19l-237 -264h-162l-234 264l144 14l174 -159z" />
    <glyph glyph-name="uni01D0" unicode="&#x1d0;" horiz-adv-x="509" 
d="M166 0v1053h186v-1053h-186zM260 1290l182 234l136 -15l-230 -338h-182l-232 338l148 11z" />
    <glyph glyph-name="uni01D1" unicode="&#x1d1;" horiz-adv-x="1554" 
d="M768 -25q-135 0 -245 37.5t-188 105t-130.5 163t-77.5 211t-25 249.5q0 222 79 394t238.5 273t379.5 101q132 0 240.5 -37.5t184.5 -104t127.5 -159.5t76 -203t24.5 -235q0 -368 -176 -581.5t-508 -213.5zM778 141q221 0 351.5 154t130.5 457q0 288 -124.5 439.5
t-342.5 151.5q-223 0 -358.5 -155.5t-135.5 -444.5q0 -294 129 -448t350 -154zM967 1860l143 -19l-238 -264h-161l-234 264l144 14l174 -159z" />
    <glyph glyph-name="uni01D2" unicode="&#x1d2;" horiz-adv-x="1183" 
d="M586 -25q-486 0 -486 547q0 260 132 406.5t380 146.5q242 0 356.5 -140t114.5 -388q0 -132 -28 -235t-86.5 -179.5t-155 -117t-227.5 -40.5zM596 125q142 0 217.5 97.5t75.5 312.5q0 143 -34.5 230t-95 122t-155.5 35q-147 0 -229 -95t-82 -297q0 -208 74.5 -306.5
t228.5 -98.5zM610 1290l183 234l135 -15l-230 -338h-182l-231 338l147 11z" />
    <glyph glyph-name="uni01D3" unicode="&#x1d3;" horiz-adv-x="1462" 
d="M733 139q184 0 270.5 85.5t86.5 289.5v969h186v-985q0 -262 -142 -392.5t-409 -130.5q-280 0 -410.5 131.5t-130.5 395.5v981h189v-963q0 -200 89.5 -290.5t270.5 -90.5zM903 1860l144 -19l-238 -264h-162l-233 264l143 14l174 -159z" />
    <glyph glyph-name="uni01D4" unicode="&#x1d4;" horiz-adv-x="1189" 
d="M348 1053v-686q0 -117 40 -171.5t151 -54.5q82 0 169 41.5t136 87.5v783h186v-1053h-162l-12 121q-168 -141 -373 -141q-165 0 -243 89.5t-78 268.5v715h186zM600 1290l182 234l136 -15l-230 -338h-182l-232 338l148 11z" />
    <glyph glyph-name="uni01D5" unicode="&#x1d5;" horiz-adv-x="1462" 
d="M733 139q184 0 270.5 85.5t86.5 289.5v969h186v-985q0 -262 -142 -392.5t-409 -130.5q-280 0 -410.5 131.5t-130.5 395.5v981h189v-963q0 -200 89.5 -290.5t270.5 -90.5zM647 1722q0 -57 -35 -91t-92 -34q-58 0 -94.5 34.5t-36.5 90.5q0 59 36.5 93t94.5 34t92.5 -34
t34.5 -93zM1077 1722q0 -57 -34.5 -91t-94.5 -34q-57 0 -93 34t-36 91q0 59 35.5 93t93.5 34q60 0 94.5 -33.5t34.5 -93.5zM414 2120h628v-146h-628v146z" />
    <glyph glyph-name="uni01D6" unicode="&#x1d6;" horiz-adv-x="1189" 
d="M348 1053v-686q0 -117 40 -171.5t151 -54.5q82 0 169 41.5t136 87.5v783h186v-1053h-162l-12 121q-168 -141 -373 -141q-165 0 -243 89.5t-78 268.5v715h186zM512 1376q0 -59 -34.5 -93t-92.5 -34t-94.5 34t-36.5 93q0 56 36.5 90.5t94.5 34.5q57 0 92 -34t35 -91z
M942 1376q0 -60 -34.5 -93.5t-94.5 -33.5q-58 0 -93.5 34t-35.5 93q0 57 36 91t93 34q60 0 94.5 -34t34.5 -91zM285 1788h628v-146h-628v146z" />
    <glyph glyph-name="uni01D7" unicode="&#x1d7;" horiz-adv-x="1462" 
d="M733 139q184 0 270.5 85.5t86.5 289.5v969h186v-985q0 -262 -142 -392.5t-409 -130.5q-280 0 -410.5 131.5t-130.5 395.5v981h189v-963q0 -200 89.5 -290.5t270.5 -90.5zM647 1722q0 -57 -35 -91t-92 -34q-58 0 -94.5 34.5t-36.5 90.5q0 59 36.5 93t94.5 34t92.5 -34
t34.5 -93zM1077 1722q0 -57 -34.5 -91t-94.5 -34q-57 0 -93 34t-36 91q0 59 35.5 93t93.5 34q60 0 94.5 -33.5t34.5 -93.5zM575 1978l203 275h226l-287 -299z" />
    <glyph glyph-name="uni01D8" unicode="&#x1d8;" horiz-adv-x="1189" 
d="M348 1053v-686q0 -117 40 -171.5t151 -54.5q82 0 169 41.5t136 87.5v783h186v-1053h-162l-12 121q-168 -141 -373 -141q-165 0 -243 89.5t-78 268.5v715h186zM512 1376q0 -59 -34.5 -93t-92.5 -34t-94.5 34t-36.5 93q0 56 36.5 90.5t94.5 34.5q57 0 92 -34t35 -91z
M942 1376q0 -60 -34.5 -93.5t-94.5 -33.5q-58 0 -93.5 34t-35.5 93q0 57 36 91t93 34q60 0 94.5 -34t34.5 -91zM451 1651l202 274h226l-287 -299z" />
    <glyph glyph-name="uni01D9" unicode="&#x1d9;" horiz-adv-x="1462" 
d="M733 139q184 0 270.5 85.5t86.5 289.5v969h186v-985q0 -262 -142 -392.5t-409 -130.5q-280 0 -410.5 131.5t-130.5 395.5v981h189v-963q0 -200 89.5 -290.5t270.5 -90.5zM647 1722q0 -57 -35 -91t-92 -34q-58 0 -94.5 34.5t-36.5 90.5q0 59 36.5 93t94.5 34t92.5 -34
t34.5 -93zM1077 1722q0 -57 -34.5 -91t-94.5 -34q-57 0 -93 34t-36 91q0 59 35.5 93t93.5 34q60 0 94.5 -33.5t34.5 -93.5zM903 2224l144 -18l-238 -264h-162l-233 264l143 14l174 -160z" />
    <glyph glyph-name="uni01DA" unicode="&#x1da;" horiz-adv-x="1189" 
d="M348 1053v-686q0 -117 40 -171.5t151 -54.5q82 0 169 41.5t136 87.5v783h186v-1053h-162l-12 121q-168 -141 -373 -141q-165 0 -243 89.5t-78 268.5v715h186zM512 1376q0 -59 -34.5 -93t-92.5 -34t-94.5 34t-36.5 93q0 56 36.5 90.5t94.5 34.5q57 0 92 -34t35 -91z
M942 1376q0 -60 -34.5 -93.5t-94.5 -33.5q-58 0 -93.5 34t-35.5 93q0 57 36 91t93 34q60 0 94.5 -34t34.5 -91zM770 1907l143 -19l-237 -264h-162l-233 264l143 15l174 -160z" />
    <glyph glyph-name="uni01DB" unicode="&#x1db;" horiz-adv-x="1462" 
d="M668 2249l202 -275l-141 -24l-287 299h226zM1077 1722q0 -57 -34.5 -91t-94.5 -34q-57 0 -93 34t-36 91q0 59 35.5 93t93.5 34q60 0 94.5 -33.5t34.5 -93.5zM647 1722q0 -57 -35 -91t-92 -34q-58 0 -94.5 34.5t-36.5 90.5q0 59 36.5 93t94.5 34t92.5 -34t34.5 -93z
M373 1483v-963q0 -200 89.5 -290.5t270.5 -90.5q184 0 270.5 85.5t86.5 289.5v969h186v-985q0 -262 -142 -392.5t-409 -130.5q-280 0 -410.5 131.5t-130.5 395.5v981h189z" />
    <glyph glyph-name="uni01DC" unicode="&#x1dc;" horiz-adv-x="1189" 
d="M543 1886l202 -274l-141 -25l-287 299h226zM942 1376q0 -60 -34.5 -93.5t-94.5 -33.5q-58 0 -93.5 34t-35.5 93q0 57 36 91t93 34q60 0 94.5 -34t34.5 -91zM512 1376q0 -59 -34.5 -93t-92.5 -34t-94.5 34t-36.5 93q0 56 36.5 90.5t94.5 34.5q57 0 92 -34t35 -91z
M348 1053v-686q0 -117 40 -171.5t151 -54.5q82 0 169 41.5t136 87.5v783h186v-1053h-162l-12 121q-168 -141 -373 -141q-165 0 -243 89.5t-78 268.5v715h186z" />
    <glyph glyph-name="uni01DD" unicode="&#x1dd;" horiz-adv-x="1118" 
d="M522 -25q-108 0 -189.5 34t-130.5 96.5t-73.5 144t-24.5 182.5q0 63 9 125h708q-1 103 -24 175.5t-65 112.5t-93.5 57.5t-118.5 17.5q-106 0 -161.5 -45t-79.5 -140l-164 35q34 148 145.5 225.5t271.5 77.5q109 0 194 -30t139.5 -80t89.5 -122t49 -149.5t14 -167.5
q0 -139 -39 -246.5t-108 -172.5t-157 -97.5t-192 -32.5zM537 121q115 0 195.5 76.5t86.5 232.5h-522q-3 -309 240 -309z" />
    <glyph glyph-name="uni01DE" unicode="&#x1de;" horiz-adv-x="1406" 
d="M1335 0h-207l-149 440h-569l-146 -440h-190l499 1483h246zM692 1311l-237 -709h477l-238 709h-2zM610 1722q0 -57 -35 -91t-92 -34q-58 0 -94.5 34.5t-36.5 90.5q0 59 36.5 93t94.5 34t92.5 -34t34.5 -93zM1040 1722q0 -57 -34.5 -91t-94.5 -34q-57 0 -93 34t-36 91
q0 59 35.5 93t93.5 34q60 0 94.5 -33.5t34.5 -93.5zM381 2105h629v-145h-629v145z" />
    <glyph glyph-name="uni01DF" unicode="&#x1df;" horiz-adv-x="1107" 
d="M936 199q0 -45 13 -63.5t50 -18.5q23 0 64 12l8 -117q-60 -32 -145 -32q-74 0 -114 34.5t-48 89.5q-129 -129 -338 -129q-77 0 -135 20t-90.5 49.5t-53 70t-26.5 74.5t-6 69q0 83 29 146t77.5 102.5t119.5 64.5t148 35t170 10q39 0 93 -4v103q0 109 -44 162t-165 53
q-105 0 -155.5 -41.5t-68.5 -132.5l-163 30q25 148 122.5 218.5t280.5 70.5q198 0 287.5 -84t89.5 -278v-514zM754 477q-44 6 -107 6q-43 0 -76.5 -2t-76 -8t-73 -19.5t-58 -34t-42 -54t-14.5 -76.5q0 -168 176 -168q76 0 150 35t121 84v237zM463 1376q0 -59 -34.5 -93
t-92.5 -34t-94.5 34t-36.5 93q0 56 36.5 90.5t94.5 34.5q57 0 92 -34t35 -91zM893 1376q0 -60 -34.5 -93.5t-94.5 -33.5q-58 0 -93.5 34t-35.5 93q0 57 36 91t93 34q60 0 94.5 -34t34.5 -91zM236 1792h628v-145h-628v145z" />
    <glyph glyph-name="uni01E0" unicode="&#x1e0;" horiz-adv-x="1406" 
d="M1335 0h-207l-149 440h-569l-146 -440h-190l499 1483h246zM692 1311l-237 -709h477l-238 709h-2zM825 1726q0 -63 -34 -98t-97 -35t-98 35t-35 98q0 66 35 101t98 35q131 0 131 -136zM381 2107h629v-145h-629v145z" />
    <glyph glyph-name="uni01E1" unicode="&#x1e1;" horiz-adv-x="1107" 
d="M936 199q0 -45 13 -63.5t50 -18.5q23 0 64 12l8 -117q-60 -32 -145 -32q-74 0 -114 34.5t-48 89.5q-129 -129 -338 -129q-77 0 -135 20t-90.5 49.5t-53 70t-26.5 74.5t-6 69q0 83 29 146t77.5 102.5t119.5 64.5t148 35t170 10q39 0 93 -4v103q0 109 -44 162t-165 53
q-105 0 -155.5 -41.5t-68.5 -132.5l-163 30q25 148 122.5 218.5t280.5 70.5q198 0 287.5 -84t89.5 -278v-514zM754 477q-44 6 -107 6q-43 0 -76.5 -2t-76 -8t-73 -19.5t-58 -34t-42 -54t-14.5 -76.5q0 -168 176 -168q76 0 150 35t121 84v237zM680 1395q0 -135 -131 -135
q-63 0 -98 36t-35 99q0 65 34.5 99t98.5 34q131 0 131 -133zM236 1841h628v-145h-628v145z" />
    <glyph glyph-name="uni01E2" unicode="&#x1e2;" horiz-adv-x="2043" 
d="M1944 164v-164h-895v647h-439l-352 -647h-197l807 1483h1049v-164h-678v-506h635v-162h-635v-487h705zM961 1319l-277 -512h365v512h-88zM1071 1769h629v-145h-629v145z" />
    <glyph glyph-name="uni01E3" unicode="&#x1e3;" horiz-adv-x="1759" 
d="M1225 -25q-258 0 -373 160q-83 -81 -192.5 -120.5t-217.5 -39.5q-80 0 -141.5 20t-95.5 49.5t-55.5 70t-28 74.5t-6.5 69q0 350 514 358q84 0 123 -2v101q0 108 -45.5 161.5t-165.5 53.5q-103 0 -153.5 -42t-68.5 -132l-163 30q24 151 122 220t277 69q132 0 207 -43
t112 -135q132 178 371 178q106 0 186.5 -36.5t128.5 -101.5t71.5 -149t23.5 -186q0 -72 -8 -127h-709q3 -100 25.5 -169t64 -106.5t91.5 -53t118 -15.5q106 0 163.5 47t78.5 139l166 -36q-31 -150 -144 -228t-276 -78zM485 121q85 0 165.5 35t137.5 98q-33 94 -36 229
q-35 2 -121 2q-324 0 -324 -198q0 -67 33 -117q34 -49 145 -49zM1462 616q9 308 -239 308q-113 0 -193.5 -78.5t-89.5 -229.5h522zM602 1425h596v-145h-596v145z" />
    <glyph glyph-name="uni01E4" unicode="&#x1e4;" horiz-adv-x="1515" 
d="M780 485h387v131h-393v154h572v-285h170v-116h-170v-369h-138l-26 201q-40 -96 -166.5 -161t-280.5 -65q-164 0 -286.5 54.5t-197.5 155t-112 235.5t-37 303q0 374 185 580t510 206q514 0 549 -493l-181 -19q-19 180 -110 264.5t-264 84.5q-235 0 -364.5 -159
t-129.5 -448q0 -135 23.5 -239.5t64.5 -172.5t101.5 -111.5t130.5 -62t155 -18.5q145 0 241 66t134 168h-367v116z" />
    <glyph glyph-name="uni01E5" unicode="&#x1e5;" horiz-adv-x="1175" 
d="M1006 -16q0 -14 -5 -76h175v-125h-201q-86 -240 -436 -240q-361 0 -410 260l168 45q21 -77 79.5 -115t166.5 -38q169 0 229 88h-262v125h305q4 46 4 67v134q-149 -129 -336 -129q-189 0 -295 129.5t-106 404.5q0 148 36.5 259.5t99.5 175.5t140.5 95t167.5 31
q176 0 299 -117l17 95h164v-1069zM539 129q76 0 150.5 38.5t129.5 94.5v555q-132 105 -268 105q-146 0 -211.5 -106.5t-65.5 -305.5q0 -194 63.5 -287.5t201.5 -93.5z" />
    <glyph glyph-name="Gcaron" unicode="&#x1e6;" horiz-adv-x="1507" 
d="M1182 201q-40 -96 -166.5 -161t-280.5 -65q-164 0 -286.5 54.5t-197.5 155t-112 235.5t-37 303q0 374 185 580t510 206q514 0 549 -493l-181 -19q-19 180 -110 264.5t-264 84.5q-235 0 -364.5 -159t-129.5 -448q0 -135 23.5 -239.5t64.5 -172.5t101.5 -111.5t130.5 -62
t155 -18.5q96 0 173.5 31t124.5 82t72 113t25 128v127h-393v154h572v-770h-138zM952 1860l144 -19l-238 -264h-162l-233 264l143 14l174 -159z" />
    <glyph glyph-name="gcaron" unicode="&#x1e7;" horiz-adv-x="1130" 
d="M551 1075q214 0 305 -96q26 60 68.5 96.5t97.5 36.5q42 0 92 -16v-138q-97 9 -205 -22q40 -41 61 -105t21 -133q0 -116 -58 -202t-155 -129t-219 -43q-121 0 -194 24q-2 -2 -16.5 -16t-19.5 -19.5t-14 -17.5t-12.5 -23.5t-3.5 -23.5q0 -35 28 -54.5t107 -25.5l301 -21
q86 -5 146 -19t106.5 -44.5t69 -82.5t22.5 -128q0 -75 -31 -134.5t-82.5 -96.5t-123 -61.5t-145.5 -34t-158 -9.5q-473 0 -473 260q0 84 49 145.5t121 96.5v2q-115 50 -115 152q0 42 21.5 80.5t46 61t71.5 58.5q-72 38 -114 117t-42 178q0 174 122 280.5t325 106.5zM811 694
q0 116 -67 175t-191 59q-108 0 -188 -56q-80 -53 -80 -174q0 -107 65.5 -167t200.5 -60q117 0 188.5 59.5t71.5 163.5zM887 -150q0 62 -36.5 93.5t-139.5 38.5l-349 20q-61 -39 -88.5 -78t-27.5 -92q0 -47 27 -78t98.5 -50t189.5 -19q326 0 326 165zM557 1290l182 234
l135 -15l-229 -338h-182l-232 338l148 11z" />
    <glyph glyph-name="uni01E8" unicode="&#x1e8;" horiz-adv-x="1318" 
d="M1051 1483h211l-584 -635l612 -848h-221l-520 700l-164 -174v-526h-188v1483h188v-723zM852 1860l143 -19l-237 -264h-162l-234 264l144 14l174 -159z" />
    <glyph glyph-name="uni01E9" unicode="&#x1e9;" horiz-adv-x="1087" 
d="M805 1053h211l-365 -379l391 -674h-204l-324 543l-162 -160v-383h-186v1546h186v-956zM434 1880l144 -18l-238 -265h-162l-233 265l143 14l174 -160z" />
    <glyph glyph-name="uni01EA" unicode="&#x1ea;" horiz-adv-x="1554" 
d="M823 -465q-92 0 -147 47.5t-55 132.5q0 132 143 260q-167 1 -295 58.5t-207.5 160t-119.5 240.5t-40 307q0 222 79 394t238.5 273t379.5 101q165 0 291.5 -56.5t204.5 -158t117.5 -233t39.5 -289.5q0 -317 -129 -520t-377 -258q-61 -57 -89 -86.5t-52.5 -73.5t-24.5 -88
q0 -80 78 -80q64 0 111 80l98 -49q-31 -78 -98.5 -120t-145.5 -42zM778 133q221 0 351.5 156.5t130.5 462.5q0 290 -124.5 445t-342.5 155q-222 0 -358 -158.5t-136 -450.5q0 -296 129 -453t350 -157z" />
    <glyph glyph-name="uni01EB" unicode="&#x1eb;" horiz-adv-x="1183" 
d="M618 -465q-92 0 -147 47.5t-55 132.5q0 136 143 260q-125 4 -216 47t-143 118t-76 168.5t-24 211.5q0 260 132 406.5t380 146.5q123 0 215 -38t147 -109t82 -165.5t27 -213.5q0 -226 -84.5 -370t-261.5 -185q-44 -42 -66 -64.5t-48 -56t-37 -63.5t-11 -62q0 -80 76 -80
q66 0 113 80l98 -49q-31 -78 -99 -120t-145 -42zM596 121q143 0 218 98t75 316q0 213 -71 302t-214 89q-147 0 -229 -96.5t-82 -301.5q0 -210 74 -308.5t229 -98.5z" />
    <glyph glyph-name="uni01EC" unicode="&#x1ec;" horiz-adv-x="1554" 
d="M823 -465q-92 0 -147 47.5t-55 132.5q0 132 143 260q-167 1 -295 58.5t-207.5 160t-119.5 240.5t-40 307q0 222 79 394t238.5 273t379.5 101q165 0 291.5 -56.5t204.5 -158t117.5 -233t39.5 -289.5q0 -317 -129 -520t-377 -258q-61 -57 -89 -86.5t-52.5 -73.5t-24.5 -88
q0 -80 78 -80q64 0 111 80l98 -49q-31 -78 -98.5 -120t-145.5 -42zM778 133q221 0 351.5 156.5t130.5 462.5q0 290 -124.5 445t-342.5 155q-222 0 -358 -158.5t-136 -450.5q0 -296 129 -453t350 -157zM485 1769h629v-145h-629v145z" />
    <glyph glyph-name="uni01ED" unicode="&#x1ed;" horiz-adv-x="1183" 
d="M618 -465q-92 0 -147 47.5t-55 132.5q0 136 143 260q-125 4 -216 47t-143 118t-76 168.5t-24 211.5q0 260 132 406.5t380 146.5q123 0 215 -38t147 -109t82 -165.5t27 -213.5q0 -226 -84.5 -370t-261.5 -185q-44 -42 -66 -64.5t-48 -56t-37 -63.5t-11 -62q0 -80 76 -80
q66 0 113 80l98 -49q-31 -78 -99 -120t-145 -42zM596 121q143 0 218 98t75 316q0 213 -71 302t-214 89q-147 0 -229 -96.5t-82 -301.5q0 -210 74 -308.5t229 -98.5zM309 1425h596v-145h-596v145z" />
    <glyph glyph-name="uni01EE" unicode="&#x1ee;" horiz-adv-x="1196" 
d="M514 -502q-212 0 -348.5 108.5t-165.5 309.5l178 31q12 -59 36 -108.5t64.5 -92.5t104 -67.5t143.5 -24.5q105 0 183.5 38.5t123 106t66 150t21.5 180.5q0 94 -22.5 168.5t-70 132.5t-129 89.5t-192.5 31.5q-78 0 -156 -10v151l481 635h-720v156h954v-135l-510 -658
q143 3 252 -40t174.5 -121t98 -177t32.5 -217q0 -105 -20.5 -197.5t-67 -174t-115 -140t-169.5 -92t-226 -33.5zM748 1860l143 -19l-238 -264h-161l-234 264l143 14l174 -159z" />
    <glyph glyph-name="uni01EF" unicode="&#x1ef;" horiz-adv-x="952" 
d="M401 -463q-173 0 -272 85t-117 231l162 32q40 -198 225 -198q148 0 225.5 90.5t77.5 236.5q0 149 -68.5 222t-219.5 73q-90 0 -168 -16v141l385 473h-529v146h740v-131l-408 -486q218 17 335.5 -91t117.5 -314q0 -103 -32 -192t-91.5 -156.5t-153 -106.5t-209.5 -39z
M471 1290l182 234l135 -15l-229 -338h-182l-232 338l148 11z" />
    <glyph glyph-name="uni01F0" unicode="&#x1f0;" horiz-adv-x="505" 
d="M53 -457q-52 0 -110.5 12t-87.5 29l20 152q79 -31 154 -31q67 0 102 38t35 128v1182h186v-1190q0 -320 -299 -320zM262 1290l182 234l136 -15l-230 -338h-182l-231 338l147 11z" />
    <glyph glyph-name="uni01F1" unicode="&#x1f1;" horiz-adv-x="2641" 
d="M197 1483h456q374 0 555 -188t181 -531q0 -173 -46.5 -311.5t-139 -240.5t-241 -157t-344.5 -55h-421v1483zM621 160q285 0 429 150t144 427q0 134 -24.5 234.5t-69.5 167.5t-115 108t-154.5 58.5t-193.5 17.5h-252v-1163h236zM2558 164v-164h-1051v139l793 1180h-770
v164h995v-144l-788 -1175h821z" />
    <glyph glyph-name="uni01F2" unicode="&#x1f2;" horiz-adv-x="2428" 
d="M197 1483h456q374 0 555 -188t181 -531q0 -173 -46.5 -311.5t-139 -240.5t-241 -157t-344.5 -55h-421v1483zM621 160q285 0 429 150t144 427q0 134 -24.5 234.5t-69.5 167.5t-115 108t-154.5 58.5t-193.5 17.5h-252v-1163h236zM2378 150v-150h-826v127l590 776h-581v150
h792v-135l-590 -768h615z" />
    <glyph glyph-name="uni01F3" unicode="&#x1f3;" horiz-adv-x="2121" 
d="M868 0l-14 113l-2 2q-74 -67 -157 -103.5t-191 -36.5q-189 0 -295.5 130t-106.5 405q0 151 36 263.5t99.5 176.5t141 94.5t168.5 30.5q172 0 295 -98v569h182v-1546h-156zM840 823q-45 36 -116 64t-153 28q-276 0 -276 -405q0 -193 64 -286t200 -93q77 0 151.5 37
t129.5 92v563zM2073 150v-150h-826v127l590 776h-582v150h793v-135l-590 -768h615z" />
    <glyph glyph-name="uni01F4" unicode="&#x1f4;" horiz-adv-x="1507" 
d="M1182 201q-40 -96 -166.5 -161t-280.5 -65q-164 0 -286.5 54.5t-197.5 155t-112 235.5t-37 303q0 374 185 580t510 206q514 0 549 -493l-181 -19q-19 180 -110 264.5t-264 84.5q-235 0 -364.5 -159t-129.5 -448q0 -135 23.5 -239.5t64.5 -172.5t101.5 -111.5t130.5 -62
t155 -18.5q96 0 173.5 31t124.5 82t72 113t25 128v127h-393v154h572v-770h-138zM623 1595l202 275h226l-287 -299z" />
    <glyph glyph-name="uni01F5" unicode="&#x1f5;" horiz-adv-x="1130" 
d="M551 1075q214 0 305 -96q26 60 68.5 96.5t97.5 36.5q42 0 92 -16v-138q-97 9 -205 -22q40 -41 61 -105t21 -133q0 -116 -58 -202t-155 -129t-219 -43q-121 0 -194 24q-2 -2 -16.5 -16t-19.5 -19.5t-14 -17.5t-12.5 -23.5t-3.5 -23.5q0 -35 28 -54.5t107 -25.5l301 -21
q86 -5 146 -19t106.5 -44.5t69 -82.5t22.5 -128q0 -75 -31 -134.5t-82.5 -96.5t-123 -61.5t-145.5 -34t-158 -9.5q-473 0 -473 260q0 84 49 145.5t121 96.5v2q-115 50 -115 152q0 42 21.5 80.5t46 61t71.5 58.5q-72 38 -114 117t-42 178q0 174 122 280.5t325 106.5zM811 694
q0 116 -67 175t-191 59q-108 0 -188 -56q-80 -53 -80 -174q0 -107 65.5 -167t200.5 -60q117 0 188.5 59.5t71.5 163.5zM887 -150q0 62 -36.5 93.5t-139.5 38.5l-349 20q-61 -39 -88.5 -78t-27.5 -92q0 -47 27 -78t98.5 -50t189.5 -19q326 0 326 165zM430 1196l199 334h223
l-287 -359z" />
    <glyph glyph-name="uni01F8" unicode="&#x1f8;" horiz-adv-x="1525" 
d="M717 1870l203 -275l-142 -24l-286 299h225zM373 1243v-1243h-176v1483h247l711 -1231v1231h174v-1483h-227z" />
    <glyph glyph-name="uni01F9" unicode="&#x1f9;" horiz-adv-x="1191" 
d="M856 0v686q0 113 -46 169t-151 56q-81 0 -168.5 -41t-138.5 -86v-784h-186v1053h164l10 -125q186 147 379 147q168 0 245.5 -89.5t77.5 -270.5v-715h-186zM537 1530l198 -334l-135 -25l-287 359h224z" />
    <glyph glyph-name="Aringacute" unicode="&#x1fa;" horiz-adv-x="1406" 
d="M911 1655q0 -123 -92 -176l516 -1479h-207l-149 440h-569l-146 -440h-190l497 1477q-90 53 -90 168q0 101 60.5 155.5t152.5 54.5q96 0 156.5 -51t60.5 -149zM692 1311l-237 -709h477l-238 709h-2zM500 1911l202 274h226l-287 -299zM694 1548q50 0 75.5 28.5t25.5 80.5
q0 96 -101 96q-45 0 -73.5 -26.5t-28.5 -75.5q0 -103 102 -103z" />
    <glyph glyph-name="aringacute" unicode="&#x1fb;" horiz-adv-x="1116" 
d="M936 199q0 -45 13 -63.5t50 -18.5q23 0 64 12l8 -117q-60 -32 -145 -32q-74 0 -114 34.5t-48 89.5q-129 -129 -338 -129q-77 0 -135 20t-90.5 49.5t-53 70t-26.5 74.5t-6 69q0 83 29 146t77.5 102.5t119.5 64.5t148 35t170 10q39 0 93 -4v103q0 109 -44 162t-165 53
q-105 0 -155.5 -41.5t-68.5 -132.5l-163 30q25 148 122.5 218.5t280.5 70.5q198 0 287.5 -84t89.5 -278v-514zM754 477q-44 6 -107 6q-43 0 -76.5 -2t-76 -8t-73 -19.5t-58 -34t-42 -54t-14.5 -76.5q0 -168 176 -168q76 0 150 35t121 84v237zM776 1360q0 -97 -59 -152
t-160 -55q-98 0 -156.5 53t-58.5 146q0 101 61.5 156t153.5 55q96 0 157.5 -51.5t61.5 -151.5zM557 1255q48 0 74 28.5t26 76.5q0 98 -100 98q-45 0 -73.5 -26.5t-28.5 -75.5q0 -101 102 -101zM377 1640l203 275h225l-287 -299z" />
    <glyph glyph-name="AEacute" unicode="&#x1fc;" horiz-adv-x="2048" 
d="M1944 164v-164h-895v647h-439l-352 -647h-197l807 1483h1049v-164h-678v-506h635v-162h-635v-487h705zM961 1319l-277 -512h365v512h-88zM1260 1595l202 275h226l-287 -299z" />
    <glyph glyph-name="aeacute" unicode="&#x1fd;" horiz-adv-x="1759" 
d="M1225 -25q-258 0 -373 160q-83 -81 -192.5 -120.5t-217.5 -39.5q-80 0 -141.5 20t-95.5 49.5t-55.5 70t-28 74.5t-6.5 69q0 350 514 358q84 0 123 -2v101q0 108 -45.5 161.5t-165.5 53.5q-103 0 -153.5 -42t-68.5 -132l-163 30q24 151 122 220t277 69q132 0 207 -43
t112 -135q132 178 371 178q106 0 186.5 -36.5t128.5 -101.5t71.5 -149t23.5 -186q0 -72 -8 -127h-709q3 -100 25.5 -169t64 -106.5t91.5 -53t118 -15.5q106 0 163.5 47t78.5 139l166 -36q-31 -150 -144 -228t-276 -78zM485 121q85 0 165.5 35t137.5 98q-33 94 -36 229
q-35 2 -121 2q-324 0 -324 -198q0 -67 33 -117q34 -49 145 -49zM1462 616q9 308 -239 308q-113 0 -193.5 -78.5t-89.5 -229.5h522zM762 1196l199 334h223l-287 -359z" />
    <glyph glyph-name="Oslashacute" unicode="&#x1fe;" horiz-adv-x="1554" 
d="M768 -25q-107 0 -199 25l-59 -147h-184l86 208q-155 92 -232.5 268.5t-77.5 411.5q0 222 79 394t238.5 273t379.5 101q109 0 205 -26l61 143h182l-88 -213q145 -91 219 -259.5t74 -383.5q0 -368 -176 -581.5t-508 -213.5zM299 743q0 -352 186 -505l453 1085
q-61 20 -145 20q-223 0 -358.5 -155.5t-135.5 -444.5zM778 141q221 0 351.5 154t130.5 457q0 337 -173 489l-450 -1081q68 -19 141 -19zM637 1620l203 274h225l-287 -299z" />
    <glyph glyph-name="oslashacute" unicode="&#x1ff;" horiz-adv-x="1183" 
d="M586 -25q-84 0 -148 15l-59 -137h-176l88 200q-191 132 -191 469q0 260 132 406.5t380 146.5q66 0 125 -12l62 137h174l-86 -196q196 -126 196 -457q0 -132 -28 -235t-86.5 -179.5t-155 -117t-227.5 -40.5zM596 125q142 0 217.5 97.5t75.5 312.5q0 211 -76 303l-309 -703
q34 -10 92 -10zM293 530q0 -204 74 -307l305 692q-35 7 -68 7q-147 0 -229 -95t-82 -297zM434 1196l199 334h223l-287 -359z" />
    <glyph glyph-name="uni0200" unicode="&#x200;" horiz-adv-x="1406" 
d="M1335 0h-207l-149 440h-569l-146 -440h-190l499 1483h246zM692 1311l-237 -709h477l-238 709h-2zM221 1878h225l203 -283l-139 -24zM555 1870h219l135 -273l-135 -26z" />
    <glyph glyph-name="uni0201" unicode="&#x201;" horiz-adv-x="1116" 
d="M936 199q0 -45 13 -63.5t50 -18.5q23 0 64 12l8 -117q-60 -32 -145 -32q-74 0 -114 34.5t-48 89.5q-129 -129 -338 -129q-77 0 -135 20t-90.5 49.5t-53 70t-26.5 74.5t-6 69q0 83 29 146t77.5 102.5t119.5 64.5t148 35t170 10q39 0 93 -4v103q0 109 -44 162t-165 53
q-105 0 -155.5 -41.5t-68.5 -132.5l-163 30q25 148 122.5 218.5t280.5 70.5q198 0 287.5 -84t89.5 -278v-514zM754 477q-44 6 -107 6q-43 0 -76.5 -2t-76 -8t-73 -19.5t-58 -34t-42 -54t-14.5 -76.5q0 -168 176 -168q76 0 150 35t121 84v237zM78 1532h223l205 -336l-135 -25
zM403 1530h220l149 -332l-131 -27z" />
    <glyph glyph-name="uni0202" unicode="&#x202;" horiz-adv-x="1406" 
d="M1335 0h-207l-149 440h-569l-146 -440h-190l499 1483h246zM692 1311l-237 -709h477l-238 709h-2zM385 1606q17 129 97.5 196.5t219.5 67.5q269 0 293 -260l-137 -15q-13 82 -51.5 115t-110.5 33q-75 0 -116 -33t-58 -115z" />
    <glyph glyph-name="uni0203" unicode="&#x203;" horiz-adv-x="1116" 
d="M936 199q0 -45 13 -63.5t50 -18.5q23 0 64 12l8 -117q-60 -32 -145 -32q-74 0 -114 34.5t-48 89.5q-129 -129 -338 -129q-77 0 -135 20t-90.5 49.5t-53 70t-26.5 74.5t-6 69q0 83 29 146t77.5 102.5t119.5 64.5t148 35t170 10q39 0 93 -4v103q0 109 -44 162t-165 53
q-105 0 -155.5 -41.5t-68.5 -132.5l-163 30q25 148 122.5 218.5t280.5 70.5q198 0 287.5 -84t89.5 -278v-514zM754 477q-44 6 -107 6q-43 0 -76.5 -2t-76 -8t-73 -19.5t-58 -34t-42 -54t-14.5 -76.5q0 -168 176 -168q76 0 150 35t121 84v237zM240 1184q5 153 86 234t233 81
q147 0 222 -76t79 -235l-137 -17q-7 112 -47.5 156.5t-122.5 44.5q-86 0 -129.5 -45t-50.5 -156z" />
    <glyph glyph-name="uni0204" unicode="&#x204;" horiz-adv-x="1177" 
d="M1090 164v-164h-893v1483h866v-164h-678v-490h637v-163h-637v-502h705zM166 1878h225l203 -283l-139 -24zM500 1870h219l135 -273l-135 -26z" />
    <glyph glyph-name="uni0205" unicode="&#x205;" horiz-adv-x="1118" 
d="M586 -25q-109 0 -193.5 30t-139 80.5t-89.5 122t-49.5 149t-14.5 167.5q0 113 26 205t71 155.5t108 107t136 63.5t155 20q108 0 189.5 -34t130.5 -96t73.5 -143t24.5 -181q0 -73 -8 -138h-709q6 -190 83 -271t212 -81q109 0 168 47t80 139l164 -36q-31 -150 -143 -228
t-275 -78zM821 631q0 293 -237 293q-55 0 -103 -17t-87.5 -51t-65 -91.5t-29.5 -133.5h522zM111 1532h223l205 -336l-136 -25zM436 1530h219l150 -332l-131 -27z" />
    <glyph glyph-name="uni0206" unicode="&#x206;" horiz-adv-x="1177" 
d="M1090 164v-164h-893v1483h866v-164h-678v-490h637v-163h-637v-502h705zM330 1606q17 129 97.5 196.5t219.5 67.5q269 0 293 -260l-137 -15q-13 82 -51.5 115t-110.5 33q-75 0 -116 -33t-58 -115z" />
    <glyph glyph-name="uni0207" unicode="&#x207;" horiz-adv-x="1118" 
d="M586 -25q-109 0 -193.5 30t-139 80.5t-89.5 122t-49.5 149t-14.5 167.5q0 113 26 205t71 155.5t108 107t136 63.5t155 20q108 0 189.5 -34t130.5 -96t73.5 -143t24.5 -181q0 -73 -8 -138h-709q6 -190 83 -271t212 -81q109 0 168 47t80 139l164 -36q-31 -150 -143 -228
t-275 -78zM821 631q0 293 -237 293q-55 0 -103 -17t-87.5 -51t-65 -91.5t-29.5 -133.5h522zM272 1184q5 153 86.5 234t233.5 81q147 0 222 -76t79 -235l-137 -17q-7 112 -47.5 156.5t-122.5 44.5q-86 0 -129.5 -45t-50.5 -156z" />
    <glyph glyph-name="uni0208" unicode="&#x208;" horiz-adv-x="581" 
d="M197 0v1483h188v-1483h-188zM-180 1878h225l203 -283l-139 -24zM154 1870h219l135 -273l-135 -26z" />
    <glyph glyph-name="uni0209" unicode="&#x209;" horiz-adv-x="509" 
d="M166 0v1053h186v-1053h-186zM-215 1532h223l205 -336l-135 -25zM111 1530h219l149 -332l-131 -27z" />
    <glyph glyph-name="uni020A" unicode="&#x20a;" horiz-adv-x="581" 
d="M197 0v1483h188v-1483h-188zM-16 1606q17 129 97.5 196.5t219.5 67.5q269 0 293 -260l-137 -15q-13 82 -51.5 115t-110.5 33q-75 0 -116 -33t-58 -115z" />
    <glyph glyph-name="uni020B" unicode="&#x20b;" horiz-adv-x="509" 
d="M166 0v1053h186v-1053h-186zM-53 1184q5 153 86 234t233 81q147 0 222 -76t79 -235l-137 -17q-7 112 -47.5 156.5t-122.5 44.5q-86 0 -129.5 -45t-50.5 -156z" />
    <glyph glyph-name="uni020C" unicode="&#x20c;" horiz-adv-x="1554" 
d="M768 -25q-135 0 -245 37.5t-188 105t-130.5 163t-77.5 211t-25 249.5q0 222 79 394t238.5 273t379.5 101q132 0 240.5 -37.5t184.5 -104t127.5 -159.5t76 -203t24.5 -235q0 -368 -176 -581.5t-508 -213.5zM778 141q221 0 351.5 154t130.5 457q0 288 -124.5 439.5
t-342.5 151.5q-223 0 -358.5 -155.5t-135.5 -444.5q0 -294 129 -448t350 -154zM326 1878h225l203 -283l-140 -24zM659 1870h220l135 -273l-135 -26z" />
    <glyph glyph-name="uni020D" unicode="&#x20d;" horiz-adv-x="1183" 
d="M586 -25q-486 0 -486 547q0 260 132 406.5t380 146.5q242 0 356.5 -140t114.5 -388q0 -132 -28 -235t-86.5 -179.5t-155 -117t-227.5 -40.5zM596 125q142 0 217.5 97.5t75.5 312.5q0 143 -34.5 230t-95 122t-155.5 35q-147 0 -229 -95t-82 -297q0 -208 74.5 -306.5
t228.5 -98.5zM137 1532h223l205 -336l-135 -25zM463 1530h219l149 -332l-131 -27z" />
    <glyph glyph-name="uni020E" unicode="&#x20e;" horiz-adv-x="1554" 
d="M768 -25q-135 0 -245 37.5t-188 105t-130.5 163t-77.5 211t-25 249.5q0 222 79 394t238.5 273t379.5 101q132 0 240.5 -37.5t184.5 -104t127.5 -159.5t76 -203t24.5 -235q0 -368 -176 -581.5t-508 -213.5zM778 141q221 0 351.5 154t130.5 457q0 288 -124.5 439.5
t-342.5 151.5q-223 0 -358.5 -155.5t-135.5 -444.5q0 -294 129 -448t350 -154zM489 1606q17 129 98 196.5t220 67.5q269 0 293 -260l-137 -15q-13 82 -51.5 115t-110.5 33q-75 0 -116 -33t-58 -115z" />
    <glyph glyph-name="uni020F" unicode="&#x20f;" horiz-adv-x="1183" 
d="M586 -25q-486 0 -486 547q0 260 132 406.5t380 146.5q242 0 356.5 -140t114.5 -388q0 -132 -28 -235t-86.5 -179.5t-155 -117t-227.5 -40.5zM596 125q142 0 217.5 97.5t75.5 312.5q0 143 -34.5 230t-95 122t-155.5 35q-147 0 -229 -95t-82 -297q0 -208 74.5 -306.5
t228.5 -98.5zM299 1184q5 153 86 234t233 81q147 0 222.5 -76t79.5 -235l-138 -17q-7 112 -47.5 156.5t-122.5 44.5q-86 0 -129.5 -45t-50.5 -156z" />
    <glyph glyph-name="uni0210" unicode="&#x210;" horiz-adv-x="1304" 
d="M1057 0l-340 616h-334v-616h-186v1483h508q107 0 191 -23t137.5 -60.5t88 -90.5t48.5 -109.5t14 -120.5q0 -161 -76 -264t-211 -149l365 -666h-205zM659 774q159 0 244.5 66t85.5 229q0 151 -94 203q-92 51 -254 51h-258v-549h276zM168 1878h225l203 -283l-139 -24z
M502 1870h219l135 -273l-135 -26z" />
    <glyph glyph-name="uni0211" unicode="&#x211;" horiz-adv-x="745" 
d="M725 881q-95 14 -203 -21q-104 -34 -170 -94v-766h-186v1053h156l14 -152q68 92 152.5 133t197.5 41q21 0 39 -2v-192zM-25 1532h224l204 -336l-135 -25zM301 1530h219l150 -332l-131 -27z" />
    <glyph glyph-name="uni0212" unicode="&#x212;" horiz-adv-x="1304" 
d="M1057 0l-340 616h-334v-616h-186v1483h508q107 0 191 -23t137.5 -60.5t88 -90.5t48.5 -109.5t14 -120.5q0 -161 -76 -264t-211 -149l365 -666h-205zM659 774q159 0 244.5 66t85.5 229q0 151 -94 203q-92 51 -254 51h-258v-549h276zM332 1606q17 129 97.5 196.5
t219.5 67.5q269 0 293 -260l-137 -15q-13 82 -51.5 115t-110.5 33q-75 0 -116 -33t-58 -115z" />
    <glyph glyph-name="uni0213" unicode="&#x213;" horiz-adv-x="745" 
d="M725 881q-95 14 -203 -21q-104 -34 -170 -94v-766h-186v1053h156l14 -152q68 92 152.5 133t197.5 41q21 0 39 -2v-192zM137 1184q5 153 86.5 234t233.5 81q147 0 222 -76t79 -235l-137 -17q-7 112 -47.5 156.5t-122.5 44.5q-86 0 -130 -45t-51 -156z" />
    <glyph glyph-name="uni0214" unicode="&#x214;" horiz-adv-x="1462" 
d="M733 139q184 0 270.5 85.5t86.5 289.5v969h186v-985q0 -262 -142 -392.5t-409 -130.5q-280 0 -410.5 131.5t-130.5 395.5v981h189v-963q0 -200 89.5 -290.5t270.5 -90.5zM262 1878h225l203 -283l-139 -24zM596 1870h219l135 -273l-135 -26z" />
    <glyph glyph-name="uni0215" unicode="&#x215;" horiz-adv-x="1189" 
d="M348 1053v-686q0 -117 40 -171.5t151 -54.5q82 0 169 41.5t136 87.5v783h186v-1053h-162l-12 121q-168 -141 -373 -141q-165 0 -243 89.5t-78 268.5v715h186zM123 1532h223l205 -336l-135 -25zM449 1530h219l149 -332l-131 -27z" />
    <glyph glyph-name="uni0216" unicode="&#x216;" horiz-adv-x="1462" 
d="M733 139q184 0 270.5 85.5t86.5 289.5v969h186v-985q0 -262 -142 -392.5t-409 -130.5q-280 0 -410.5 131.5t-130.5 395.5v981h189v-963q0 -200 89.5 -290.5t270.5 -90.5zM426 1606q17 129 97.5 196.5t219.5 67.5q269 0 293 -260l-137 -15q-13 82 -51.5 115t-110.5 33
q-75 0 -116 -33t-58 -115z" />
    <glyph glyph-name="uni0217" unicode="&#x217;" horiz-adv-x="1189" 
d="M348 1053v-686q0 -117 40 -171.5t151 -54.5q82 0 169 41.5t136 87.5v783h186v-1053h-162l-12 121q-168 -141 -373 -141q-165 0 -243 89.5t-78 268.5v715h186zM285 1184q5 153 86 234t233 81q147 0 222 -76t79 -235l-137 -17q-7 112 -47.5 156.5t-122.5 44.5
q-86 0 -129.5 -45t-50.5 -156z" />
    <glyph glyph-name="uni0218" unicode="&#x218;" horiz-adv-x="1193" 
d="M612 1350q-161 0 -235 -63t-74 -169q0 -51 19.5 -92t49.5 -68.5t77.5 -51t93.5 -39t106 -34.5q5 -1 8 -2q172 -52 240 -86q162 -80 200 -224q13 -50 13 -109q0 -113 -43 -199t-117 -137t-166 -76t-198 -25q-239 0 -376 102.5t-165 325.5l180 27q12 -52 27 -91t43 -79.5
t65.5 -66t95.5 -42t132 -16.5q65 0 120 12t104 38.5t77.5 77.5t28.5 122q0 39 -10.5 71.5t-26.5 57t-44 46t-53.5 35.5t-66.5 29t-71 24t-77 22q-174 48 -248 85q-164 81 -199 240q-11 49 -11 105q0 187 140.5 298t358.5 111q102 0 182.5 -21t147 -67.5t107 -129.5
t51.5 -199l-176 -21q-8 60 -25 105t-50.5 87t-93 64.5t-141.5 22.5zM696 -141l-139 -357l-139 21l80 336h198z" />
    <glyph glyph-name="uni0219" unicode="&#x219;" horiz-adv-x="997" 
d="M508 1075q180 0 269.5 -78t115.5 -227l-168 -37q-10 50 -23.5 82.5t-37.5 60t-63 40t-95 12.5q-108 0 -155.5 -40.5t-47.5 -107.5q0 -32 11 -56.5t28.5 -41.5t49.5 -30.5t64 -22.5t81 -19q51 -10 82.5 -17.5t75.5 -21t71 -28.5t58 -38.5t47.5 -52t28 -68.5t11.5 -89
q0 -149 -109.5 -234.5t-301.5 -85.5q-372 0 -420 306l166 45q12 -47 27.5 -79.5t44 -63t76 -45.5t114.5 -15q219 0 219 151q0 43 -14 71t-48 46t-68.5 27.5t-98.5 21.5q-38 7 -59 11.5t-57.5 14t-58.5 17.5t-53 22.5t-50 30.5t-40.5 38.5t-33 48.5t-19.5 60.5t-8 74.5
q0 103 54 176t140.5 107t194.5 34zM616 -141l-139 -357l-139 21l80 336h198z" />
    <glyph glyph-name="uni021A" unicode="&#x21a;" horiz-adv-x="1134" 
d="M475 1319h-448v164h1081v-164h-444v-1319h-189v1319zM680 -141l-139 -357l-140 21l80 336h199z" />
    <glyph glyph-name="uni021B" unicode="&#x21b;" horiz-adv-x="776" 
d="M754 45q-41 -28 -114.5 -49t-143.5 -21q-150 0 -223.5 72.5t-73.5 228.5v627h-162v150h162v305l186 28v-333h291v-150h-291v-602q0 -89 31.5 -130.5t120.5 -41.5q45 0 97 15.5t87 35.5zM590 -141l-139 -357l-140 21l80 336h199z" />
    <glyph glyph-name="uni021E" unicode="&#x21e;" horiz-adv-x="1490" 
d="M1106 0v672h-721v-672h-188v1483h188v-641h721v641h188v-1483h-188zM918 1860l143 -19l-238 -264h-161l-234 264l143 14l174 -159z" />
    <glyph glyph-name="uni021F" unicode="&#x21f;" horiz-adv-x="1191" 
d="M856 0v686q0 113 -46 169t-151 56q-81 0 -168.5 -41t-138.5 -86v-784h-186v1546h184v-612q183 141 371 141q165 0 243 -89.5t78 -270.5v-715h-186zM428 1909l143 -19l-237 -264h-162l-233 264l143 15l174 -160z" />
    <glyph glyph-name="uni0220" unicode="&#x220;" horiz-adv-x="1394" 
d="M1030 1020q0 162 -60.5 247t-205.5 85q-100 0 -207 -45.5t-174 -96.5v-1210h-186v1483h163l11 -133q226 157 448 157q210 0 304 -117t94 -348v-1476l-187 -2v1456z" />
    <glyph glyph-name="uni0226" unicode="&#x226;" horiz-adv-x="1406" 
d="M1335 0h-207l-149 440h-569l-146 -440h-190l499 1483h246zM692 1311l-237 -709h477l-238 709h-2zM823 1731q0 -63 -34 -98.5t-97 -35.5t-98 35.5t-35 98.5q0 65 34.5 100t98.5 35q131 0 131 -135z" />
    <glyph glyph-name="uni0227" unicode="&#x227;" horiz-adv-x="1107" 
d="M936 199q0 -45 13 -63.5t50 -18.5q23 0 64 12l8 -117q-60 -32 -145 -32q-74 0 -114 34.5t-48 89.5q-129 -129 -338 -129q-77 0 -135 20t-90.5 49.5t-53 70t-26.5 74.5t-6 69q0 83 29 146t77.5 102.5t119.5 64.5t148 35t170 10q39 0 93 -4v103q0 109 -44 162t-165 53
q-105 0 -155.5 -41.5t-68.5 -132.5l-163 30q25 148 122.5 218.5t280.5 70.5q198 0 287.5 -84t89.5 -278v-514zM754 477q-44 6 -107 6q-43 0 -76.5 -2t-76 -8t-73 -19.5t-58 -34t-42 -54t-14.5 -76.5q0 -168 176 -168q76 0 150 35t121 84v237zM680 1391q0 -136 -131 -136
q-63 0 -98 36.5t-35 99.5q0 65 34.5 99t98.5 34q131 0 131 -133z" />
    <glyph glyph-name="uni0228" unicode="&#x228;" horiz-adv-x="1177" 
d="M1090 164v-164h-385l-13 -90q162 -31 162 -180q0 -92 -63.5 -148.5t-161.5 -56.5q-91 0 -166 41l35 104q75 -30 114 -30q46 0 72.5 26t26.5 66q0 51 -35 72.5t-115 23.5l25 172h-389v1483h866v-164h-678v-490h637v-163h-637v-502h705z" />
    <glyph glyph-name="uni0229" unicode="&#x229;" horiz-adv-x="1118" 
d="M821 631q0 293 -237 293q-55 0 -103 -17t-87.5 -51t-65 -91.5t-29.5 -133.5h522zM412 -330q75 -30 114 -30q46 0 72.5 26t26.5 66q0 51 -35 72.5t-115 23.5l21 154q-109 15 -188 64.5t-123.5 125t-64.5 162.5t-20 190q0 113 26 205t71 155.5t108 107t136 63.5t155 20
q108 0 189.5 -34t130.5 -96t73.5 -143t24.5 -181q0 -73 -8 -138h-709q6 -190 83 -271t212 -81q109 0 168 47t80 139l164 -36q-30 -142 -134 -220t-256 -86l-8 -65q162 -31 162 -180q0 -92 -63.5 -148.5t-161.5 -56.5q-91 0 -166 41z" />
    <glyph glyph-name="uni022A" unicode="&#x22a;" horiz-adv-x="1554" 
d="M768 -25q-135 0 -245 37.5t-188 105t-130.5 163t-77.5 211t-25 249.5q0 222 79 394t238.5 273t379.5 101q132 0 240.5 -37.5t184.5 -104t127.5 -159.5t76 -203t24.5 -235q0 -368 -176 -581.5t-508 -213.5zM778 141q221 0 351.5 154t130.5 457q0 288 -124.5 439.5
t-342.5 151.5q-223 0 -358.5 -155.5t-135.5 -444.5q0 -294 129 -448t350 -154zM711 1722q0 -57 -35 -91t-92 -34q-58 0 -94.5 34.5t-36.5 90.5q0 59 36.5 93t94.5 34t92.5 -34t34.5 -93zM1141 1722q0 -57 -34.5 -91t-94.5 -34q-57 0 -93 34t-36 91q0 59 35.5 93t93.5 34
q60 0 94.5 -33.5t34.5 -93.5zM481 2099h629v-145h-629v145z" />
    <glyph glyph-name="uni022B" unicode="&#x22b;" horiz-adv-x="1183" 
d="M586 -25q-486 0 -486 547q0 260 132 406.5t380 146.5q242 0 356.5 -140t114.5 -388q0 -132 -28 -235t-86.5 -179.5t-155 -117t-227.5 -40.5zM596 125q142 0 217.5 97.5t75.5 312.5q0 143 -34.5 230t-95 122t-155.5 35q-147 0 -229 -95t-82 -297q0 -208 74.5 -306.5
t228.5 -98.5zM522 1376q0 -59 -34.5 -93t-92.5 -34t-94.5 34t-36.5 93q0 56 36.5 90.5t94.5 34.5q57 0 92 -34t35 -91zM952 1376q0 -60 -34.5 -93.5t-94.5 -33.5q-58 0 -93.5 34t-35.5 93q0 57 36 91t93 34q60 0 94.5 -34t34.5 -91zM295 1780h629v-146h-629v146z" />
    <glyph glyph-name="uni022C" unicode="&#x22c;" horiz-adv-x="1554" 
d="M768 -25q-135 0 -245 37.5t-188 105t-130.5 163t-77.5 211t-25 249.5q0 222 79 394t238.5 273t379.5 101q132 0 240.5 -37.5t184.5 -104t127.5 -159.5t76 -203t24.5 -235q0 -368 -176 -581.5t-508 -213.5zM778 141q221 0 351.5 154t130.5 457q0 288 -124.5 439.5
t-342.5 151.5q-223 0 -358.5 -155.5t-135.5 -444.5q0 -294 129 -448t350 -154zM641 1851q56 0 113.5 -23t108 -46t87.5 -23q41 0 59.5 21.5t18.5 83.5l113 -6q17 -119 -33 -183.5t-139 -64.5q-55 0 -114 23.5t-111.5 47t-90.5 23.5q-79 0 -71 -111l-115 6q-15 134 39 191
q58 61 135 61zM481 2111h629v-145h-629v145z" />
    <glyph glyph-name="uni022D" unicode="&#x22d;" horiz-adv-x="1183" 
d="M586 -25q-486 0 -486 547q0 260 132 406.5t380 146.5q242 0 356.5 -140t114.5 -388q0 -132 -28 -235t-86.5 -179.5t-155 -117t-227.5 -40.5zM596 125q142 0 217.5 97.5t75.5 312.5q0 143 -34.5 230t-95 122t-155.5 35q-147 0 -229 -95t-82 -297q0 -208 74.5 -306.5
t228.5 -98.5zM444 1466q56 0 114 -23.5t108.5 -47t87.5 -23.5q41 0 59 21t18 84l113 -4q17 -119 -33 -184.5t-139 -65.5q-55 0 -114 23.5t-111 47t-90 23.5q-79 0 -72 -111l-115 6q-15 129 41 191q57 63 133 63zM295 1755h629v-145h-629v145z" />
    <glyph glyph-name="uni022E" unicode="&#x22e;" horiz-adv-x="1554" 
d="M768 -25q-135 0 -245 37.5t-188 105t-130.5 163t-77.5 211t-25 249.5q0 222 79 394t238.5 273t379.5 101q132 0 240.5 -37.5t184.5 -104t127.5 -159.5t76 -203t24.5 -235q0 -368 -176 -581.5t-508 -213.5zM778 141q221 0 351.5 154t130.5 457q0 288 -124.5 439.5
t-342.5 151.5q-223 0 -358.5 -155.5t-135.5 -444.5q0 -294 129 -448t350 -154zM926 1731q0 -63 -34 -98.5t-97 -35.5t-98 35.5t-35 98.5q0 65 35 100t98 35q131 0 131 -135z" />
    <glyph glyph-name="uni022F" unicode="&#x22f;" horiz-adv-x="1183" 
d="M586 -25q-486 0 -486 547q0 260 132 406.5t380 146.5q242 0 356.5 -140t114.5 -388q0 -132 -28 -235t-86.5 -179.5t-155 -117t-227.5 -40.5zM596 125q142 0 217.5 97.5t75.5 312.5q0 143 -34.5 230t-95 122t-155.5 35q-147 0 -229 -95t-82 -297q0 -208 74.5 -306.5
t228.5 -98.5zM739 1391q0 -136 -131 -136q-63 0 -98 36.5t-35 99.5q0 65 34.5 99t98.5 34q131 0 131 -133z" />
    <glyph glyph-name="uni0230" unicode="&#x230;" horiz-adv-x="1554" 
d="M768 -25q-135 0 -245 37.5t-188 105t-130.5 163t-77.5 211t-25 249.5q0 222 79 394t238.5 273t379.5 101q132 0 240.5 -37.5t184.5 -104t127.5 -159.5t76 -203t24.5 -235q0 -368 -176 -581.5t-508 -213.5zM778 141q221 0 351.5 154t130.5 457q0 288 -124.5 439.5
t-342.5 151.5q-223 0 -358.5 -155.5t-135.5 -444.5q0 -294 129 -448t350 -154zM926 1731q0 -63 -34 -98.5t-97 -35.5t-98 35.5t-35 98.5q0 65 35 100t98 35q131 0 131 -135zM481 2095h629v-145h-629v145z" />
    <glyph glyph-name="uni0231" unicode="&#x231;" horiz-adv-x="1183" 
d="M586 -25q-486 0 -486 547q0 260 132 406.5t380 146.5q242 0 356.5 -140t114.5 -388q0 -132 -28 -235t-86.5 -179.5t-155 -117t-227.5 -40.5zM596 125q142 0 217.5 97.5t75.5 312.5q0 143 -34.5 230t-95 122t-155.5 35q-147 0 -229 -95t-82 -297q0 -208 74.5 -306.5
t228.5 -98.5zM739 1391q0 -136 -131 -136q-63 0 -98 36.5t-35 99.5q0 65 34.5 99t98.5 34q131 0 131 -133zM295 1794h629v-145h-629v145z" />
    <glyph glyph-name="uni0232" unicode="&#x232;" horiz-adv-x="1159" 
d="M496 0v573l-506 910h213l389 -723h4l379 723h194l-485 -905v-578h-188zM270 1769h629v-145h-629v145z" />
    <glyph glyph-name="uni0233" unicode="&#x233;" horiz-adv-x="993" 
d="M223 1053l279 -836h2l289 836h190l-455 -1207q-63 -166 -142 -234.5t-204 -68.5q-53 0 -110.5 12t-91.5 27l22 146q92 -33 168 -33q61 0 108 37.5t80 126.5l50 129l-392 1065h207zM205 1425h596v-145h-596v145z" />
    <glyph glyph-name="uni0237" unicode="&#x237;" horiz-adv-x="505" 
d="M53 -457q-52 0 -110.5 12t-87.5 29l20 152q79 -31 154 -31q67 0 102 38t35 128v1182h186v-1190q0 -320 -299 -320z" />
    <glyph glyph-name="uni0238" unicode="&#x238;" horiz-adv-x="1863" 
d="M504 -25q-189 0 -295.5 130t-106.5 405q0 121 24 218t65 160.5t98.5 106t121.5 60.5t136 18q170 0 291 -96v569h186v-610q80 66 164 101.5t192 35.5q84 0 151.5 -28t120.5 -88t82 -163t29 -243q0 -149 -35 -262t-96.5 -180.5t-139.5 -100.5t-171 -33q-91 0 -172 36
t-137 95l-2 -2l-9 -104h-133l-14 115h-2q-75 -67 -157.5 -103.5t-190.5 -36.5zM559 123q76 0 151.5 39.5t127.5 95.5v567q-45 37 -115.5 67t-151.5 30q-146 0 -211 -107.5t-65 -306.5q0 -196 64 -290.5t200 -94.5zM1298 127q273 0 273 426q0 192 -60 281.5t-190 89.5
q-90 0 -170 -45q-80 -43 -127 -91v-540q44 -44 119 -82.5t155 -38.5z" />
    <glyph glyph-name="uni0239" unicode="&#x239;" horiz-adv-x="1865" 
d="M840 113q-75 -64 -158.5 -98.5t-192.5 -34.5q-86 0 -155 28.5t-122 89t-81.5 163t-28.5 241.5q0 120 24 217.5t65.5 163t98.5 110t121 64.5t136 20q91 0 170.5 -35t136.5 -96l4 107h141l15 -117q161 141 350 141q188 0 293.5 -128.5t105.5 -407.5q0 -120 -23 -216
t-63 -160t-96.5 -106t-120 -60.5t-137.5 -18.5q-172 0 -297 96v-510h-186v547zM547 127q87 0 166 43q85 48 127 90v547q-40 44 -115 81.5t-154 37.5q-276 0 -276 -426q0 -192 61 -282.5t191 -90.5zM1296 131q146 0 210.5 106t64.5 306q0 201 -62.5 293t-197.5 92
q-79 0 -154.5 -39t-130.5 -96v-566q129 -96 270 -96z" />
    <glyph glyph-name="uni023A" unicode="&#x23a;" horiz-adv-x="1406" 
d="M565 -150h-176l186 590h-165l-146 -440h-190l499 1483h246l45 -129l84 270l166 2l-162 -524l383 -1102h-207l-149 440h-231zM692 1311l-237 -709h477l-238 709h-2z" />
    <glyph glyph-name="uni023B" unicode="&#x23b;" horiz-adv-x="1417" 
d="M754 -25q-124 0 -219 27l-60 -152h-188l86 222q-271 177 -271 647q0 371 186.5 580.5t504.5 209.5q75 0 139 -12l49 127h186l-69 -180q225 -121 245 -432l-176 -19q-25 206 -135 287l-436 -1120q87 -23 170 -23q173 0 267 76.5t130 235.5l170 -35q-14 -96 -54.5 -172
t-96 -125.5t-127.5 -82t-146 -46t-155 -13.5zM297 735q0 -336 147 -483l426 1089q-63 5 -79 5q-233 0 -363.5 -155.5t-130.5 -455.5z" />
    <glyph glyph-name="uni023C" unicode="&#x23c;" horiz-adv-x="1101" 
d="M584 -25q-96 0 -166 21l-66 -150h-176l96 222q-172 136 -172 448q0 272 133 415.5t371 143.5q52 0 107 -10l61 139h176l-88 -198q138 -92 150 -297l-179 -25q-9 93 -47 147l-301 -684q53 -16 107 -16q223 0 262 225l164 -34q-10 -71 -37.5 -129t-68.5 -98t-93.5 -67.5
t-110.5 -40t-122 -12.5zM295 539q0 -181 59 -287l291 663q-35 5 -49 5q-60 0 -111 -18.5t-95.5 -59.5t-69.5 -118.5t-25 -184.5z" />
    <glyph glyph-name="uni023D" unicode="&#x23d;" horiz-adv-x="1130" 
d="M14 924h183v559h188v-559h246v-154h-246v-604h668v-166h-856v770h-183v154z" />
    <glyph glyph-name="uni023E" unicode="&#x23e;" horiz-adv-x="1134" 
d="M475 1319h-448v164h929l58 141h186l-92 -227v-78h-31l-413 -1022v-297h-119l-62 -150h-184l176 437v1032zM664 1319v-563l227 563h-227z" />
    <glyph glyph-name="uni023F" unicode="&#x23f;" horiz-adv-x="997" 
d="M508 1075q180 0 269.5 -78t115.5 -227l-168 -37q-10 50 -23.5 82.5t-37.5 60t-63 40t-95 12.5q-108 0 -155.5 -40.5t-47.5 -107.5q0 -32 11 -56.5t28.5 -41.5t49.5 -30.5t64 -22.5t81 -19q51 -10 82.5 -17.5t75.5 -21t71 -28.5t58 -38.5t47.5 -52t28 -68.5t11.5 -89
q0 -149 -109.5 -234.5t-301.5 -85.5q-54 0 -125 11q72 -102 122.5 -151.5t102.5 -49.5q62 0 109 55l77 -90q-74 -106 -196 -106q-49 0 -91.5 18.5t-74 46t-67 76t-61 91t-66 109t-72.5 113.5q-60 69 -78 183l166 45q12 -47 27.5 -79.5t44 -63t76 -45.5t114.5 -15
q219 0 219 151q0 43 -14 71t-48 46t-68.5 27.5t-98.5 21.5q-38 7 -59 11.5t-57.5 14t-58.5 17.5t-53 22.5t-50 30.5t-40.5 38.5t-33 48.5t-19.5 60.5t-8 74.5q0 103 54 176t140.5 107t194.5 34z" />
    <glyph glyph-name="uni0240" unicode="&#x240;" horiz-adv-x="940" 
d="M879 -240q-38 -58 -93.5 -85t-109.5 -27q-84 0 -155 47t-159 135q-56 56 -90 86t-87.5 57t-104.5 27h-17v127l590 780h-581v146h792v-129l-614 -807l-6 -8q39 -13 83 -42t69.5 -52t70.5 -66q37 -36 58 -55t52 -42.5t58.5 -34t54.5 -10.5q63 0 111 56z" />
    <glyph glyph-name="uni0241" unicode="&#x241;" horiz-adv-x="1050" 
d="M332 696q88 8 162 32t136.5 67.5t98 114.5t35.5 163q0 146 -73 211.5t-210 65.5q-69 0 -116 -10.5t-87.5 -39t-66.5 -81t-41 -134.5l-176 31q58 391 500 391q100 0 183 -24.5t147.5 -74t100.5 -133.5t36 -196q0 -204 -122.5 -334.5t-320.5 -169.5v-575h-186v696z" />
    <glyph glyph-name="uni0242" unicode="&#x242;" horiz-adv-x="1026" 
d="M303 279q88 8 161 30.5t135 64t97 110t35 159.5q0 140 -68.5 207.5t-181.5 67.5q-112 0 -181 -51.5t-97 -180.5l-174 31q13 74 44.5 135t85 113t139.5 81t196 29q88 0 163.5 -24.5t137 -73.5t96.5 -133.5t35 -194.5q0 -104 -32.5 -188.5t-93 -143.5t-139 -98t-176.5 -59
v-160h-182v279z" />
    <glyph glyph-name="uni0243" unicode="&#x243;" horiz-adv-x="1310" 
d="M33 489h172v994h510q127 0 216.5 -27t138.5 -78.5t70 -114t21 -143.5q0 -147 -81 -232.5t-214 -115.5v-4q355 -45 355 -367q0 -111 -39.5 -190.5t-115 -124.5t-172 -65.5t-222.5 -20.5h-467v340h-172v149zM606 834q53 0 100.5 6t97.5 23.5t85.5 45.5t58.5 75.5t23 109.5
q0 133 -74 183t-235 50h-271v-493h215zM645 158q72 0 123.5 5t102 21t82 43.5t50.5 74.5t19 112q0 71 -26 123t-73 82.5t-105.5 44.5t-131.5 14h-295v-189h309v-149h-309v-182h254z" />
    <glyph glyph-name="uni0244" unicode="&#x244;" horiz-adv-x="1470" 
d="M725 -25q-279 0 -408 131t-129 394v272h-170v156h170v555h189v-555h717v555h188v-555h170v-156h-170v-276q0 -261 -144.5 -391t-412.5 -130zM377 514q0 -202 89 -291.5t271 -89.5q184 0 270.5 86t86.5 291v262h-717v-258z" />
    <glyph glyph-name="uni0245" unicode="&#x245;" horiz-adv-x="1271" 
d="M494 1483h258l499 -1483h-211l-419 1311h-5l-405 -1311h-191z" />
    <glyph glyph-name="uni0246" unicode="&#x246;" horiz-adv-x="1177" 
d="M467 -150h-188l53 150h-135v1483h649l51 141h186l-51 -141h31v-164h-88l-176 -490h223v-163h-264l-178 -502h510v-164h-570zM385 829h227l176 490h-403v-490zM385 164h6l180 502h-186v-502z" />
    <glyph glyph-name="uni0247" unicode="&#x247;" horiz-adv-x="1118" 
d="M367 -154h-170l92 211q-189 133 -189 467q0 113 26 205t71 155.5t108 107t136 63.5t155 20q55 0 96 -8l60 137h168l-84 -190q90 -55 134 -157t44 -236q0 -73 -8 -138h-361l-149 -342q52 -10 96 -10q109 0 168 47t80 139l164 -36q-31 -150 -143 -228t-275 -78
q-82 0 -156 19zM299 631h201l127 291q-10 2 -43 2q-55 0 -103 -17t-87.5 -51t-65 -91.5t-29.5 -133.5zM821 631q0 144 -57 219l-96 -219h153zM297 483q9 -170 68 -254l110 254h-178z" />
    <glyph glyph-name="uni0248" unicode="&#x248;" horiz-adv-x="1026" 
d="M432 924h223v559h189v-559h196v-154h-196v-395q0 -213 -104 -306.5t-302 -93.5q-183 0 -278 83.5t-107 263.5l180 30q7 -56 17 -90.5t31.5 -66t61 -46t99.5 -14.5q50 0 85.5 9t66 33.5t46 71.5t15.5 118v403h-223v154z" />
    <glyph glyph-name="uni0249" unicode="&#x249;" horiz-adv-x="530" 
d="M408 1407q0 -135 -132 -135q-63 0 -98 36t-35 99t35 98t98 35t97.5 -35t34.5 -98zM66 -457q-52 0 -111 12t-88 29l20 152q79 -31 154 -31q67 0 102 38t35 128v491h-180v152h180v539h187v-539h174v-152h-174v-499q0 -320 -299 -320z" />
    <glyph glyph-name="uni024A" unicode="&#x24a;" horiz-adv-x="1531" 
d="M674 -25q-267 0 -419.5 184t-152.5 558q0 375 163.5 583.5t459.5 208.5q233 0 416 -141l4 115h176v-1704q0 -45 14 -64.5t51 -19.5t80 14l9 -133q-64 -31 -146 -31q-83 0 -129.5 44t-46.5 135v442q-225 -191 -479 -191zM713 131q119 0 231 55.5t189 135.5v899
q-60 48 -164.5 89.5t-220.5 41.5q-215 0 -333 -156t-118 -475q0 -159 30.5 -275t87.5 -184t130.5 -99.5t167.5 -31.5z" />
    <glyph glyph-name="uni024B" unicode="&#x24b;" horiz-adv-x="1183" 
d="M504 -25q-189 0 -295.5 130t-106.5 405q0 121 24 218t65 160.5t98.5 106t121.5 60.5t136 18q177 0 299 -104l8 84h170v-1053h-2v-166q0 -145 104 -145q37 0 72 18l8 -137q-52 -25 -116 -25q-68 0 -115.5 22t-73 64t-36.5 93t-11 118v273h-2q-75 -67 -157.5 -103.5
t-190.5 -36.5zM559 123q76 0 151.5 39.5t127.5 95.5v567q-45 37 -115.5 67t-151.5 30q-146 0 -211 -107.5t-65 -306.5q0 -196 64 -290.5t200 -94.5z" />
    <glyph glyph-name="uni024C" unicode="&#x24c;" horiz-adv-x="1308" 
d="M6 772h195v711h508q107 0 191 -23t137.5 -60.5t88 -90.5t48.5 -109.5t14 -120.5q0 -161 -76 -264t-211 -149l365 -666h-205l-340 616h-334v-616h-186v621h-195v151zM664 774q159 0 244 66t85 229q0 151 -94 203q-92 51 -254 51h-258v-549h277z" />
    <glyph glyph-name="uni024D" unicode="&#x24d;" horiz-adv-x="753" 
d="M10 526h164v527h156l14 -152q68 92 152.5 133t197.5 41q21 0 39 -2v-192q-95 14 -203 -21q-104 -34 -170 -94v-240h191v-153h-191v-373h-186v373h-164v153z" />
    <glyph glyph-name="uni024E" unicode="&#x24e;" horiz-adv-x="1181" 
d="M508 0v573l-295 531h-236v139h158l-133 240h213l129 -240h518l125 240h195l-129 -240h151v-139h-225l-283 -526v-578h-188zM604 760h4l180 344h-368z" />
    <glyph glyph-name="uni024F" unicode="&#x24f;" horiz-adv-x="1013" 
d="M-18 766h151l-104 287h207l96 -287h375l98 287h190l-108 -287h153v-152h-211l-288 -768q-63 -166 -142 -234.5t-204 -68.5q-53 0 -111 12t-92 27l22 146q92 -33 168 -33q127 0 189 164l49 129l-230 626h-208v152zM514 217h2l137 397h-272z" />
    <glyph glyph-name="uni0250" unicode="&#x250;" horiz-adv-x="1107" 
d="M586 -27q-196 0 -290.5 86t-94.5 279v516q0 46 -12.5 64t-51.5 18q-23 0 -63 -12l-8 110q62 33 145 33q145 0 158 -135q57 63 145.5 102t194.5 39q77 0 135 -20.5t90.5 -50.5t53 -71t26.5 -74.5t6 -68.5q0 -84 -29 -147t-74.5 -101t-114 -62t-136 -33t-150.5 -11
q-92 0 -131 2v-90q0 -121 43 -177t164 -56q105 0 154 43t67 135l166 -29q-46 -289 -393 -289zM489 559q51 0 90.5 3t89 15t82.5 32.5t55.5 59t22.5 91.5q0 79 -39 126.5t-139 47.5q-77 0 -150 -36.5t-118 -88.5v-246q70 -4 106 -4z" />
    <glyph glyph-name="uni0251" unicode="&#x251;" horiz-adv-x="1181" 
d="M504 -25q-189 0 -295.5 130t-106.5 405q0 121 24 218t65 160.5t98.5 106t121.5 60.5t136 18q177 0 299 -104l8 84h170v-1053h-156l-14 115h-2q-75 -67 -157.5 -103.5t-190.5 -36.5zM559 123q76 0 151.5 39.5t127.5 95.5v567q-45 37 -115.5 67t-151.5 30
q-146 0 -211 -107.5t-65 -306.5q0 -196 64 -290.5t200 -94.5z" />
    <glyph glyph-name="uni0252" unicode="&#x252;" horiz-adv-x="1189" 
d="M686 1077q190 0 295.5 -129t105.5 -405q0 -121 -24 -218t-65 -160.5t-98.5 -106t-121 -60.5t-135.5 -18q-177 0 -299 104l-8 -84h-170v1053h156l14 -115h2q156 139 348 139zM631 930q-78 0 -153.5 -38.5t-125.5 -96.5v-568q129 -96 266 -96q277 0 277 414q0 197 -63 291
t-201 94z" />
    <glyph glyph-name="uni0253" unicode="&#x253;" horiz-adv-x="1189" 
d="M645 -25q-154 0 -305 117h-2l-10 -92h-162v1192q0 375 366 375q92 0 183 -31l-8 -137q-64 20 -144 20q-115 0 -164 -51t-49 -162v-270q79 66 164 101.5t193 35.5q84 0 151.5 -28t120.5 -88t82 -163t29 -243q0 -269 -115.5 -422.5t-329.5 -153.5zM623 127q274 0 274 426
q0 192 -60 281.5t-190 89.5q-81 0 -160.5 -40.5t-134.5 -95.5v-550q149 -111 271 -111z" />
    <glyph glyph-name="uni0254" unicode="&#x254;" horiz-adv-x="1101" 
d="M508 -25q-171 0 -291 91q-118 92 -127 272l176 24q24 -237 252 -237q61 0 110 18.5t92 61.5t67 124.5t24 196.5q0 108 -22.5 187t-62.5 123t-89 64t-109 20q-109 0 -178.5 -56.5t-89.5 -171.5l-164 33q13 88 55 156t103 109t134 62t155 21q123 0 213.5 -39t144.5 -111.5
t79.5 -166.5t25.5 -213q0 -278 -131 -423t-367 -145z" />
    <glyph glyph-name="uni0256" unicode="&#x256;" horiz-adv-x="1193" 
d="M1124 -463q-137 0 -203.5 72.5t-66.5 226.5v279h-2q-158 -140 -348 -140q-189 0 -295.5 130t-106.5 405q0 121 24 218t65 160.5t98.5 106t121.5 60.5t136 18q170 0 291 -96v569h186v-1698q0 -81 27.5 -124t95.5 -43q75 0 131 30l33 -131q-93 -43 -187 -43zM559 123
q76 0 151.5 39.5t127.5 95.5v567q-45 37 -115.5 67t-151.5 30q-146 0 -211 -107.5t-65 -306.5q0 -196 64 -290.5t200 -94.5z" />
    <glyph glyph-name="uni0257" unicode="&#x257;" horiz-adv-x="1236" 
d="M504 -25q-189 0 -295.5 130t-106.5 405q0 121 24 218t65 160.5t98.5 106t121.5 60.5t136 18q170 0 291 -96v237q0 171 74 262t243 91q91 0 172 -29l-8 -137q-59 20 -127 20q-98 0 -133 -47.5t-35 -156.5v-1217h-156l-14 115h-2q-75 -67 -157.5 -103.5t-190.5 -36.5z
M559 123q76 0 151.5 39.5t127.5 95.5v567q-45 37 -115.5 67t-151.5 30q-146 0 -211 -107.5t-65 -306.5q0 -196 64 -290.5t200 -94.5z" />
    <glyph glyph-name="uni0259" unicode="&#x259;" horiz-adv-x="1118" 
d="M535 -25q-114 0 -197.5 34t-133.5 97t-74 143.5t-26 182.5q0 63 9 125h710q0 102 -20 174t-58.5 112.5t-87 58.5t-112.5 18q-215 0 -266 -185l-164 35q34 148 153.5 225.5t286.5 77.5q463 0 463 -536q0 -143 -39 -253t-106.5 -176t-153 -99.5t-184.5 -33.5zM537 121
q115 0 195.5 76.5t86.5 232.5h-522q-3 -309 240 -309z" />
    <glyph glyph-name="uni025B" unicode="&#x25b;" horiz-adv-x="1110" 
d="M539 -25q-212 0 -326.5 85.5t-114.5 228.5q0 99 50.5 163.5t142.5 84.5v4q-72 24 -115 80.5t-43 140.5q0 138 107.5 224.5t324.5 86.5q218 0 329 -87t124 -275l-174 -25q-11 87 -37.5 137t-88 77.5t-167.5 27.5q-110 0 -177 -43t-67 -125q0 -63 49.5 -105.5t167.5 -42.5
h172v-147h-184q-110 0 -168.5 -34.5t-58.5 -127.5q0 -90 65.5 -135t175.5 -45q160 0 238 53t98 172l162 -33q-52 -340 -485 -340z" />
    <glyph glyph-name="uni0260" unicode="&#x260;" horiz-adv-x="1216" 
d="M539 -457q-361 0 -410 260l168 45q21 -77 79.5 -115t166.5 -38q141 0 208.5 63t67.5 217v134q-149 -129 -336 -129q-189 0 -295 129.5t-106 404.5q0 148 36.5 259.5t99.5 175t140.5 94t167.5 30.5q164 0 299 -115v261q0 168 72 258t238 90q91 0 172 -29l-9 -137
q-59 20 -127 20q-98 0 -131.5 -46.5t-33.5 -155.5v-1235q0 -224 -116.5 -332.5t-350.5 -108.5zM539 129q76 0 150.5 38.5t129.5 94.5v555q-132 105 -268 105q-146 0 -211.5 -106.5t-65.5 -305.5q0 -194 63.5 -287.5t201.5 -93.5z" />
    <glyph glyph-name="uni0263" unicode="&#x263;" horiz-adv-x="1034" 
d="M512 -502q-56 0 -101 14.5t-73.5 38.5t-47.5 56t-26.5 64t-7.5 67q0 48 14 101.5t45 117t46.5 91.5t50.5 89l-412 916h197l327 -785l324 785h186l-407 -914q157 -249 157 -401q0 -100 -71.5 -170t-200.5 -70zM520 -375q58 0 88.5 32.5t30.5 88.5q0 108 -119 307
q-114 -201 -114 -305q0 -123 114 -123z" />
    <glyph glyph-name="uni0264" unicode="&#x264;" horiz-adv-x="1222" 
d="M1051 1077q91 0 166 -30l-11 -142q-65 21 -141 21q-96 0 -175 -37t-171 -123q110 -103 183 -226.5t73 -242.5q0 -65 -21.5 -121.5t-64 -102t-115 -72t-166.5 -26.5q-173 0 -261.5 84t-88.5 224q0 228 250 485q-95 84 -167.5 122t-172.5 38q-66 0 -154 -25l-8 141
q78 33 178 33q122 0 224.5 -51.5t207.5 -155.5q109 104 211 155.5t224 51.5zM618 111q195 0 195 182q0 99 -55.5 197.5t-141.5 181.5q-90 -89 -144 -190.5t-54 -192.5q0 -84 51 -131t149 -47z" />
    <glyph glyph-name="uni0265" unicode="&#x265;" horiz-adv-x="1198" 
d="M1038 -436h-184v559q-179 -143 -371 -143q-165 0 -243 89.5t-78 270.5v713h186v-688q0 -114 47 -172t150 -58q80 0 169 42.5t138 88.5v787h186v-1489z" />
    <glyph glyph-name="uni0266" unicode="&#x266;" horiz-adv-x="1191" 
d="M166 1245q0 322 303 322q99 0 176 -31l-6 -137q-58 22 -121 22q-75 0 -121.5 -42t-46.5 -138v-313q188 145 371 145q165 0 243 -89.5t78 -270.5v-713h-186v688q0 115 -46 172.5t-151 57.5q-79 0 -168 -42.5t-139 -89.5v-786h-186v1245z" />
    <glyph glyph-name="uni0268" unicode="&#x268;" horiz-adv-x="573" 
d="M293 1276q-62 0 -96.5 34t-34.5 97q0 61 34.5 95t96.5 34q63 0 98 -34t35 -95q0 -63 -35 -97t-98 -34zM37 672h162v381h186v-381h152v-148h-152v-524h-186v524h-162v148z" />
    <glyph glyph-name="uni0269" unicode="&#x269;" horiz-adv-x="696" 
d="M461 -25q-295 0 -295 299v779h186v-768q0 -80 33 -121t111 -41q72 0 125 33l34 -129q-82 -52 -194 -52z" />
    <glyph glyph-name="uni026A" unicode="&#x26a;" horiz-adv-x="899" 
d="M94 137h260v778h-260v138h711v-138h-264v-778h264v-137h-711v137z" />
    <glyph glyph-name="uni026C" unicode="&#x26c;" horiz-adv-x="935" 
d="M281 551q-130 0 -195.5 62.5t-65.5 162.5q0 93 59 153t177 60q108 0 184 -65v622h187v-774q147 67 291 160l16 -144q-153 -94 -307 -159v-629h-187v584q-94 -33 -159 -33zM166 778q0 -44 35 -70t90 -26q73 0 149 35v22q-13 50 -47 80.5t-63.5 38.5t-59.5 8q-46 0 -75 -23
t-29 -65z" />
    <glyph glyph-name="uni026F" unicode="&#x26f;" horiz-adv-x="1779" 
d="M1620 1053v-1053h-160l-10 119q-89 -68 -173 -105t-185 -37q-203 0 -265 146q-178 -146 -364 -146q-161 0 -230 88t-69 271v717h186v-691q0 -114 34.5 -167.5t129.5 -53.5q69 0 148.5 36.5t134.5 80.5q-4 50 -4 78v717h186v-691q0 -114 34.5 -167.5t129.5 -53.5
q71 0 157.5 41t133.5 84v787h186z" />
    <glyph glyph-name="uni0271" unicode="&#x271;" horiz-adv-x="1773" 
d="M1333 -457q-41 0 -92.5 9t-75.5 22l21 141q86 -22 127 -22q63 0 93 39t30 125v833q0 119 -33.5 173.5t-130.5 54.5q-68 0 -150 -38.5t-133 -82.5q4 -50 4 -82v-715h-186v690q0 119 -33.5 173.5t-130.5 54.5q-71 0 -156.5 -42t-134.5 -88v-788h-186v1053h160l10 -125
q89 69 174.5 107t183.5 38q203 0 264 -149q189 149 365 149q161 0 230 -87.5t69 -270.5v-856q0 -316 -289 -316z" />
    <glyph glyph-name="uni0272" unicode="&#x272;" horiz-adv-x="1191" 
d="M352 -145q0 -318 -311 -318q-124 0 -219 43l33 137q69 -32 157 -32q87 0 120.5 42.5t33.5 137.5v1188h164l10 -125q186 147 379 147q168 0 245.5 -89.5t77.5 -270.5v-715h-186v686q0 113 -46 169t-151 56q-81 0 -168.5 -41t-138.5 -86v-929z" />
    <glyph glyph-name="uni0275" unicode="&#x275;" horiz-adv-x="1183" 
d="M586 -25q-486 0 -486 547q0 260 132 406.5t380 146.5q242 0 356.5 -140t114.5 -388q0 -132 -28 -235t-86.5 -179.5t-155 -117t-227.5 -40.5zM604 922q-275 0 -307 -318h590q-12 172 -82.5 245t-200.5 73zM596 125q266 0 291 334h-592q12 -171 86.5 -252.5t214.5 -81.5z
" />
    <glyph glyph-name="uni027D" unicode="&#x27d;" horiz-adv-x="745" 
d="M461 -463q-149 0 -222 72.5t-73 226.5v1217h156l14 -152q67 94 150.5 134t199.5 38h39v-186q-101 15 -203 -21q-104 -34 -170 -94v-932q0 -79 34 -117t118 -38q44 0 95.5 15.5t86.5 35.5l35 -129q-40 -28 -115 -49t-145 -21z" />
    <glyph glyph-name="uni027E" unicode="&#x27e;" horiz-adv-x="735" 
d="M166 682q0 193 88.5 292t275.5 99q96 0 185 -29l-8 -137q-58 19 -138 19q-118 0 -167.5 -57.5t-49.5 -194.5v-674h-186v682z" />
    <glyph glyph-name="uni0283" unicode="&#x283;" horiz-adv-x="589" 
d="M61 -463q-115 0 -192 35l8 139q76 -26 148 -26q79 0 121 41t42 145v1354q0 170 81.5 256t232.5 86q115 0 192 -35l-8 -139q-76 26 -147 26q-79 0 -121.5 -41t-42.5 -145v-1354q0 -170 -81.5 -256t-232.5 -86z" />
    <glyph glyph-name="uni0288" unicode="&#x288;" horiz-adv-x="727" 
d="M496 -436q-150 0 -223.5 71.5t-73.5 227.5v1046h-162v144h162v305l186 24v-329h291v-144h-291v-1024q0 -91 31.5 -132.5t120.5 -41.5q45 0 97 15.5t87 35.5l33 -129q-40 -28 -114 -48.5t-144 -20.5z" />
    <glyph glyph-name="uni0289" unicode="&#x289;" horiz-adv-x="1247" 
d="M508 -20q-165 0 -241.5 89t-76.5 269v203h-161v145h161v367h187v-367h495v367h187v-367h162v-145h-162v-541h-162l-12 129q-177 -149 -377 -149zM377 365q0 -115 44 -172.5t146 -57.5q82 0 168.5 42.5t136.5 88.5v275h-495v-176z" />
    <glyph glyph-name="uni028A" unicode="&#x28a;" horiz-adv-x="1222" 
d="M602 -25q-100 0 -182.5 23.5t-141 65t-99 99t-60 125.5t-19.5 144q0 70 18 135.5t55 126.5t102 108.5t151 71.5v39h-285v140h420v-246q-268 -62 -268 -367q0 -142 81 -231.5t228 -89.5q87 0 153 30t102.5 80t54.5 107.5t18 120.5q0 79 -21.5 141.5t-59.5 103.5
t-84.5 66.5t-102.5 38.5v246h419v-140h-266v-41q64 -18 117 -49t97 -79t68.5 -119.5t24.5 -161.5q0 -100 -34 -188t-98 -155t-164 -106t-224 -39z" />
    <glyph glyph-name="uni028B" unicode="&#x28b;" horiz-adv-x="1155" 
d="M500 -20q-344 0 -344 350v723h186v-668q0 -100 17.5 -153.5t64.5 -75.5q50 -23 111 -17q72 3 130.5 35t96.5 83t64 119.5t37 140.5t11 149q0 145 -39 205.5t-130 60.5q-58 0 -117 -19l-6 134q65 24 159 24q175 0 242 -110q70 -107 70 -289q0 -203 -63.5 -358t-190 -244.5
t-299.5 -89.5z" />
    <glyph glyph-name="uni028C" unicode="&#x28c;" horiz-adv-x="1042" 
d="M412 1053h211l403 -1053h-203l-309 872h-2l-307 -872h-189z" />
    <glyph glyph-name="uni028E" unicode="&#x28e;" horiz-adv-x="1042" 
d="M451 1174q35 93 63.5 153.5t61 110t69 75t81.5 39t105 13.5q112 0 201 -39l-20 -140q-92 33 -170 33q-72 0 -124 -64t-112 -235l-20 -55l391 -1065h-201l-280 848h-2l-291 -848h-191z" />
    <glyph glyph-name="uni0292" unicode="&#x292;" horiz-adv-x="952" 
d="M401 -463q-173 0 -272 85t-117 231l162 32q40 -198 225 -198q148 0 225.5 90.5t77.5 236.5q0 149 -68.5 222t-219.5 73q-90 0 -168 -16v141l385 473h-529v146h740v-131l-408 -486q218 17 335.5 -91t117.5 -314q0 -103 -32 -192t-91.5 -156.5t-153 -106.5t-209.5 -39z" />
    <glyph glyph-name="uni0294" unicode="&#x294;" horiz-adv-x="1040" 
d="M303 766q88 8 161.5 31.5t135.5 65.5t97.5 111.5t35.5 160.5q0 144 -69 211t-183 67q-113 0 -182.5 -51.5t-97.5 -183.5l-174 30q13 73 45 135t86.5 113.5t140.5 81t195 29.5q88 0 163.5 -24.5t137 -73.5t96.5 -132.5t35 -193.5q0 -203 -121.5 -330.5t-321.5 -169.5v-643
h-180v766z" />
    <glyph glyph-name="uni0295" unicode="&#x295;" horiz-adv-x="1040" 
d="M559 643q-98 18 -176 52t-139.5 89.5t-95 138.5t-33.5 189q0 143 62 247.5t166 156t237 51.5q100 0 179.5 -29.5t130 -81t81 -113.5t41.5 -135l-172 -30q-31 127 -94.5 181t-159.5 54q-128 0 -203.5 -76t-75.5 -219q0 -79 24.5 -139t63 -97t97.5 -62t116 -36t131 -18
v-766h-180v643z" />
    <glyph glyph-name="uni0298" unicode="&#x298;" horiz-adv-x="1454" 
d="M717 -25q-210 0 -355 101.5t-213.5 278.5t-68.5 417q0 384 174 588.5t494 204.5q313 0 469.5 -196.5t156.5 -565.5q0 -390 -170.5 -609t-486.5 -219zM727 143q95 0 175 38.5t141.5 114.5t96 200.5t34.5 285.5q0 135 -21.5 240t-59.5 175t-93 115.5t-118.5 65t-140.5 19.5
q-100 0 -180.5 -33t-145 -104t-99.5 -194.5t-35 -291.5q0 -308 123.5 -469.5t322.5 -161.5zM645 952h168v-336h-168v336z" />
    <glyph glyph-name="uni029D" unicode="&#x29d;" horiz-adv-x="700" 
d="M397 1276q-62 0 -96.5 34t-34.5 97q0 61 34.5 95t96.5 34q63 0 98 -34t35 -95q0 -63 -35 -97t-98 -34zM188 -457q-125 0 -196.5 65t-71.5 171q0 111 72.5 172t167.5 61q79 0 141 -26v1067h186v-1127q100 -40 162 -78l-16 -129q-72 47 -150 80q-35 -256 -295 -256z
M76 -205q0 -47 32 -73.5t76 -26.5q51 0 84 40.5t33 123.5v6q-63 24 -121 24q-44 0 -74 -22t-30 -72z" />
    <glyph glyph-name="uni02B0" unicode="&#x2b0;" horiz-adv-x="817" 
d="M563 717v440q0 68 -27.5 100.5t-91.5 32.5q-49 0 -100 -23t-80 -50v-500h-155v995h153v-385q108 84 238 84q114 0 165.5 -57t51.5 -174v-463h-154z" />
    <glyph glyph-name="uni02B7" unicode="&#x2b7;" horiz-adv-x="1085" 
d="M12 1399h158l154 -531h2l145 531h156l143 -529l154 529h147l-215 -682h-178l-135 508l-129 -508h-185z" />
    <glyph glyph-name="uni02BB" unicode="&#x2bb;" horiz-adv-x="1024" 
d="M403 1167l140 357l139 -21l-80 -336h-199z" />
    <glyph glyph-name="uni02BC" unicode="&#x2bc;" horiz-adv-x="395" 
d="M80 1137l43 409h192l-100 -430z" />
    <glyph glyph-name="uni02BE" unicode="&#x2be;" horiz-adv-x="378" 
d="M78 1276q49 0 74.5 28t25.5 76q0 99 -100 99v104q103 0 164 -51t61 -152q0 -97 -58.5 -150.5t-166.5 -53.5v100z" />
    <glyph glyph-name="circumflex" unicode="&#x2c6;" horiz-adv-x="1024" 
d="M512 1413l-180 -233l-139 14l229 338h182l232 -338l-142 -12z" />
    <glyph glyph-name="caron" unicode="&#x2c7;" horiz-adv-x="1024" 
d="M514 1290l182 234l135 -15l-229 -338h-182l-232 338l148 11z" />
    <glyph glyph-name="uni02C9" unicode="&#x2c9;" horiz-adv-x="1024" 
d="M215 1425h596v-145h-596v145z" />
    <glyph glyph-name="breve" unicode="&#x2d8;" horiz-adv-x="1024" 
d="M831 1489q-1 -154 -84 -236t-235 -82q-292 0 -301 312l137 18q10 -110 49.5 -154t120.5 -44q88 0 130.5 43.5t49.5 152.5z" />
    <glyph glyph-name="dotaccent" unicode="&#x2d9;" horiz-adv-x="1024" 
d="M643 1391q0 -136 -131 -136q-63 0 -98 36.5t-35 99.5q0 65 34.5 99t98.5 34q131 0 131 -133z" />
    <glyph glyph-name="ring" unicode="&#x2da;" horiz-adv-x="1024" 
d="M731 1380q0 -97 -59 -151.5t-160 -54.5q-98 0 -156.5 52.5t-58.5 145.5q0 101 61.5 156t153.5 55q96 0 157.5 -51.5t61.5 -151.5zM512 1276q49 0 74.5 28t25.5 76q0 99 -100 99q-45 0 -73.5 -27t-28.5 -76q0 -100 102 -100z" />
    <glyph glyph-name="ogonek" unicode="&#x2db;" horiz-adv-x="1024" 
d="M756 -301q-31 -79 -98.5 -122.5t-143.5 -43.5q-94 0 -149.5 48t-55.5 134q0 53 21 103t61 93.5t71.5 71t78.5 62.5l116 -31q-45 -42 -63 -58.5t-49 -49.5t-43 -53.5t-22.5 -49t-10.5 -57.5q0 -78 78 -78q63 0 110 80z" />
    <glyph glyph-name="tilde" unicode="&#x2dc;" horiz-adv-x="1024" 
d="M358 1466q56 0 114 -23.5t108.5 -47t87.5 -23.5q41 0 59 21t18 84l113 -4q17 -119 -33 -184.5t-139 -65.5q-55 0 -114 23.5t-111 47t-90 23.5q-79 0 -72 -111l-115 6q-15 129 41 191q57 63 133 63z" />
    <glyph glyph-name="hungarumlaut" unicode="&#x2dd;" horiz-adv-x="1024" 
d="M283 1198l149 330h219l-235 -357zM551 1196l205 336h223l-293 -361z" />
    <glyph glyph-name="gravecomb" unicode="&#x300;" horiz-adv-x="0" 
d="M-281 1530h224l198 -334l-135 -25z" />
    <glyph glyph-name="acutecomb" unicode="&#x301;" horiz-adv-x="0" 
d="M-170 1196l199 334h223l-287 -359z" />
    <glyph glyph-name="uni0302" unicode="&#x302;" horiz-adv-x="0" 
d="M-328 1194l228 338h182l231 -338l-139 -12l-184 235l-178 -237z" />
    <glyph glyph-name="tildecomb" unicode="&#x303;" horiz-adv-x="0" 
d="M-344 1212q-15 133 41 189q55 61 133 61q56 0 113.5 -23.5t108 -47t87.5 -23.5q41 0 59.5 21.5t18.5 85.5l113 -5q16 -119 -34 -182t-140 -63q-55 0 -114 23.5t-111.5 47t-90.5 23.5q-77 0 -69 -111z" />
    <glyph glyph-name="uni0304" unicode="&#x304;" horiz-adv-x="0" 
d="M-307 1425h596v-141h-596v141z" />
    <glyph glyph-name="uni0306" unicode="&#x306;" horiz-adv-x="0" 
d="M-8 1174q-294 0 -303 311l139 16q7 -110 47 -155.5t121 -45.5q88 0 131 44.5t49 156.5l133 -12q-2 -150 -84 -232.5t-233 -82.5z" />
    <glyph glyph-name="uni0307" unicode="&#x307;" horiz-adv-x="0" 
d="M0 1260q-62 0 -96.5 34t-34.5 97q0 61 34.5 95t96.5 34q63 0 98 -34t35 -95q0 -63 -35 -97t-98 -34z" />
    <glyph glyph-name="uni0308" unicode="&#x308;" horiz-adv-x="0" 
d="M-84 1376q0 -59 -34.5 -93t-92.5 -34t-94.5 34t-36.5 93q0 56 36.5 90.5t94.5 34.5q57 0 92 -34t35 -91zM346 1376q0 -60 -34.5 -93.5t-94.5 -33.5q-58 0 -93.5 34t-35.5 93q0 57 36 91t93 34q60 0 94.5 -34t34.5 -91z" />
    <glyph glyph-name="hookabovecomb" unicode="&#x309;" horiz-adv-x="0" 
d="M-70 1171q0 68 22 107.5t62 71.5q19 17 27 25.5t16.5 24.5t8.5 32q0 53 -68 53q-75 0 -80 -82l-127 10q7 83 54.5 132.5t162.5 49.5q99 0 149 -43.5t50 -113.5q0 -41 -17.5 -72.5t-54.5 -65.5q-26 -24 -38.5 -38t-22 -37.5t-8.5 -53.5h-136z" />
    <glyph glyph-name="uni030A" unicode="&#x30a;" horiz-adv-x="0" 
d="M0 1176q-100 0 -158.5 51.5t-58.5 144.5q0 101 62 156t155 55q96 0 156.5 -51.5t60.5 -151.5q0 -96 -59 -150t-158 -54zM-2 1276q49 0 74.5 28t25.5 76q0 99 -98 99q-46 0 -74 -26.5t-28 -76.5q0 -100 100 -100z" />
    <glyph glyph-name="uni030B" unicode="&#x30b;" horiz-adv-x="0" 
d="M25 1196l204 336h224l-293 -361zM-244 1198l152 332h219l-238 -359z" />
    <glyph glyph-name="uni030C" unicode="&#x30c;" horiz-adv-x="0" 
d="M-324 1509l148 11l176 -234l182 238l135 -15l-227 -338h-182z" />
    <glyph glyph-name="uni030D" unicode="&#x30d;" horiz-adv-x="0" 
d="M-90 1575h178l-18 -381h-142z" />
    <glyph glyph-name="uni030F" unicode="&#x30f;" horiz-adv-x="0" 
d="M-473 1532h223l205 -336l-135 -25zM-147 1530h219l149 -332l-131 -27z" />
    <glyph glyph-name="uni0311" unicode="&#x311;" horiz-adv-x="0" 
d="M-311 1184q5 153 86 234t233 81q147 0 222 -76t79 -235l-137 -17q-7 112 -47.5 156.5t-122.5 44.5q-86 0 -129.5 -45t-50.5 -156z" />
    <glyph glyph-name="uni0312" unicode="&#x312;" horiz-adv-x="0" 
d="M-109 1167l140 357l139 -21l-80 -336h-199z" />
    <glyph glyph-name="uni0315" unicode="&#x315;" horiz-adv-x="0" 
d="M170 1526l-139 -357l-140 21l80 336h199z" />
    <glyph glyph-name="uni031B" unicode="&#x31b;" horiz-adv-x="0" 
d="M383 874q42 4 69 14.5t43.5 25t24.5 43.5t10 57.5t2 77.5v98h154v-90q0 -89 -12 -146.5t-45 -102.5t-92.5 -67t-153.5 -26v116z" />
    <glyph glyph-name="dotbelowcomb" unicode="&#x323;" horiz-adv-x="0" 
d="M0 -408q-63 0 -98 34t-35 95q0 63 35 96t98 33q131 0 131 -129t-131 -129z" />
    <glyph glyph-name="uni0324" unicode="&#x324;" horiz-adv-x="0" 
d="M211 -418q-58 0 -92.5 32t-34.5 87q0 54 35 86.5t92 32.5t91 -32.5t34 -86.5q0 -55 -34 -87t-91 -32zM-209 -418q-58 0 -92.5 32t-34.5 87q0 54 35 86.5t92 32.5q56 0 89.5 -32.5t33.5 -86.5q0 -55 -33.5 -87t-89.5 -32z" />
    <glyph glyph-name="uni0325" unicode="&#x325;" horiz-adv-x="0" 
d="M-2 -520q-98 0 -157.5 53t-59.5 145q0 104 61.5 158.5t155.5 54.5q96 0 157.5 -51t61.5 -151q0 -98 -59 -153.5t-160 -55.5zM-2 -418q50 0 76 28t26 79q0 100 -102 100q-47 0 -75.5 -26t-28.5 -78q0 -103 104 -103z" />
    <glyph glyph-name="uni0326" unicode="&#x326;" horiz-adv-x="0" 
d="M139 -141l-139 -357l-139 21l80 336h198z" />
    <glyph glyph-name="uni0327" unicode="&#x327;" horiz-adv-x="0" 
d="M-162 -330q75 -30 115 -30q46 0 72 26t26 66q0 51 -34.5 72.5t-114.5 23.5l32 233l117 -16l-18 -135q162 -31 162 -180q0 -92 -64 -148.5t-162 -56.5q-91 0 -166 41z" />
    <glyph glyph-name="uni0328" unicode="&#x328;" horiz-adv-x="0" 
d="M223 -301q-31 -79 -98 -122.5t-143 -43.5q-94 0 -149.5 48t-55.5 134q0 53 21 103t60.5 93.5t71 71t78.5 62.5l117 -31q-45 -42 -63 -58.5t-49 -49.5t-43 -53.5t-22.5 -49t-10.5 -57.5q0 -78 77 -78q64 0 111 80z" />
    <glyph glyph-name="uni0329" unicode="&#x329;" horiz-adv-x="0" 
d="M-90 -131h178l-18 -381h-142z" />
    <glyph glyph-name="uni032D" unicode="&#x32d;" horiz-adv-x="0" 
d="M-322 -440l228 303h182l231 -303l-141 -13l-182 201l-176 -205z" />
    <glyph glyph-name="uni032E" unicode="&#x32e;" horiz-adv-x="0" 
d="M315 -176q-1 -154 -84 -236t-235 -82q-292 0 -301 312l137 18q10 -110 49.5 -154t120.5 -44q88 0 130.5 43.5t49.5 152.5z" />
    <glyph glyph-name="uni032F" unicode="&#x32f;" horiz-adv-x="0" 
d="M-315 -483q5 154 86 235.5t233 81.5q147 0 222 -76t79 -235l-137 -19q-7 112 -47 155.5t-123 43.5q-85 0 -129 -44t-51 -153z" />
    <glyph glyph-name="uni0330" unicode="&#x330;" horiz-adv-x="0" 
d="M-328 -414q-13 122 39 186t137 64q56 0 114 -23.5t108.5 -47t87.5 -23.5q41 0 58 21t17 85l115 -4q16 -119 -34 -182t-140 -63q-55 0 -114 23.5t-111 47t-90 23.5q-75 0 -72 -111z" />
    <glyph glyph-name="uni0331" unicode="&#x331;" horiz-adv-x="0" 
d="M-299 -217h596v-141h-596v141z" />
    <glyph glyph-name="uni0332" unicode="&#x332;" horiz-adv-x="0" 
d="M-362 -217h727v-141h-727v141z" />
    <glyph glyph-name="uni0335" unicode="&#x335;" horiz-adv-x="0" 
d="M-524 633h524v-141h-524v141z" />
    <glyph glyph-name="uni0337" unicode="&#x337;" horiz-adv-x="0" 
d="M238 1171h163l-639 -1249h-163z" />
    <glyph glyph-name="uni0338" unicode="&#x338;" horiz-adv-x="0" 
d="M324 1307h163l-784 -1565h-164z" />
    <glyph glyph-name="uni0394" unicode="&#x394;" horiz-adv-x="1415" 
d="M1317 119v-119h-1219v117l480 1366h247zM698 1321l-397 -1165h797l-398 1165h-2z" />
    <glyph glyph-name="uni03A9" unicode="&#x3a9;" horiz-adv-x="1603" 
d="M817 1343q-131 0 -229.5 -39t-157.5 -109t-88 -161.5t-29 -202.5q0 -110 32 -198t88.5 -145.5t124 -93.5t147.5 -54v-340h-533v156h365v73q-186 63 -303 218t-117 387q0 140 43 260.5t127 214t220 147t310 53.5q140 0 254.5 -38.5t190.5 -102t127.5 -150t74.5 -179.5
t23 -193q0 -95 -21 -182t-67 -171.5t-130.5 -153.5t-201.5 -110v-73h365v-156h-533v340q191 41 293 171t102 333q0 225 -126.5 362t-350.5 137z" />
    <glyph glyph-name="uni03BC" unicode="&#x3bc;" horiz-adv-x="1236" 
d="M1026 -20q-63 0 -110.5 34.5t-51.5 112.5q-182 -147 -356 -147q-107 0 -160 53v-467h-182v1487h186v-693q0 -122 45 -174.5t129 -52.5q74 0 160 32t162 99v789h186v-856q0 -45 14 -63.5t50 -18.5q22 0 63 12l8 -117q-61 -30 -143 -30z" />
    <glyph glyph-name="pi" unicode="&#x3c0;" horiz-adv-x="1275" 
d="M446 893l-114 -893h-185l119 893h-211v160h1151v-160h-198v-698q0 -80 77 -80q35 0 76 12l8 -117q-51 -30 -153 -30q-101 0 -145 62t-44 161v690h-381z" />
    <glyph glyph-name="uni1D7D" unicode="&#x1d7d;" horiz-adv-x="1202" 
d="M4 610h170v443h162l10 -121q156 143 365 143q81 0 146 -25t117 -78t83 -144.5t37 -217.5h133v-149h-135q-18 -245 -138.5 -365.5t-296.5 -120.5q-166 0 -303 103v-512h-180v895h-170v149zM360 786v-176h543q-7 163 -68 236.5t-180 73.5q-81 0 -161 -40t-134 -94zM360 238
q150 -105 271 -105q244 0 270 328h-541v-223z" />
    </font>
</defs>
</svg>
