<?xml version="1.0" standalone="no"?>
<!DOCTYPE svg PUBLIC "-//W3C//DTD SVG 1.1//EN" "http://www.w3.org/Graphics/SVG/1.1/DTD/svg11.dtd" >
<svg xmlns="http://www.w3.org/2000/svg" xmlns:xlink="http://www.w3.org/1999/xlink" version="1.1">
<metadata>
Created by FontForge 20170731 at Mon Nov  2 15:34:56 2020
 By Aleksey,,,
Copyright (c) 2012 Veronika Burian, Jose Scaglione. All rights reserved.
</metadata>
<defs>
<font id="AdelleSansEXT-Bold" horiz-adv-x="1167" >
  <font-face 
    font-family="Adelle Sans EXT"
    font-weight="700"
    font-stretch="expanded"
    units-per-em="2048"
    panose-1="2 11 8 5 0 0 0 0 0 0"
    ascent="1638"
    descent="-410"
    x-height="1067"
    cap-height="1483"
    bbox="-643 -600 2560 2402"
    underline-thickness="145"
    underline-position="-659"
    unicode-range="U+000D-FB06"
  />
<missing-glyph 
d="M205 1483h758v-1483h-758v1483zM266 1421v-1290l600 1290h-600zM901 61v1291l-600 -1289z" />
    <glyph glyph-name="fi" unicode="fi" horiz-adv-x="1267" 
d="M842 0v842h-377v-842h-309v842h-144v225h144v123q0 192 98 285.5t272 93.5q102 0 191 -29l-10 -225q-63 18 -113 18q-63 0 -96 -35.5t-33 -126.5v-104h686v-1067h-309zM1184 1409q0 -88 -49.5 -138t-139.5 -50q-87 0 -135.5 50t-48.5 138q0 90 48 138t136 48
q91 0 140 -48t49 -138z" />
    <glyph glyph-name="fl" unicode="fl" horiz-adv-x="1267" 
d="M737 1313q-74 22 -133 22q-68 0 -103.5 -36.5t-35.5 -127.5v-104h254v-225h-254v-842h-309v842h-144v225h144v123q0 192 98 285.5t272 93.5q67 0 130 -12.5t94 -26.5zM842 0v1546h309v-1546h-309z" />
    <glyph glyph-name="f_f" unicode="ff" horiz-adv-x="1431" 
d="M737 1315q-74 22 -133 22q-68 0 -103.5 -36t-35.5 -127v-107h375v123q0 191 105 285t286 94q150 0 235 -39l-10 -219q-76 26 -143 26q-81 0 -122.5 -37t-41.5 -139v-94h283v-225h-283v-842h-309v842h-375v-842h-309v842h-144v225h144v123q0 192 98 285.5t272 93.5
q67 0 130 -12.5t94 -26.5z" />
    <glyph glyph-name="f_k" unicode="fk" horiz-adv-x="1878" 
d="M737 1311q-74 22 -133 22q-68 0 -103.5 -36.5t-35.5 -127.5v-102h254v-225h-254v-842h-309v842h-144v225h144v123q0 192 98 285.5t272 93.5q67 0 130 -12.5t94 -26.5zM1503 1067h344l-354 -383l381 -684h-342l-277 487l-104 -100v-387h-309v1546h309v-854z" />
    <glyph glyph-name="f_b" unicode="fb" horiz-adv-x="1935" 
d="M737 1313q-74 22 -133 22q-68 0 -103.5 -36.5t-35.5 -127.5v-104h254v-225h-254v-842h-309v842h-144v225h144v123q0 192 98 285.5t272 93.5q67 0 130 -12.5t94 -26.5zM842 1546h303v-575q125 119 321 119q84 0 153 -29t124 -89.5t86 -166t31 -248.5q0 -123 -21.5 -221
t-60.5 -165t-95 -111.5t-122.5 -64.5t-145.5 -20q-178 0 -293 115h-6l-14 -90h-260v1546zM1149 293q101 -70 186 -70q102 0 150.5 80.5t48.5 245.5q0 67 -9 118t-29.5 91.5t-58 62t-91.5 21.5q-52 0 -105 -24t-92 -58v-467z" />
    <glyph glyph-name="f_h" unicode="fh" horiz-adv-x="1918" 
d="M737 1313q-74 22 -133 22q-68 0 -103.5 -36.5t-35.5 -127.5v-104h254v-225h-254v-842h-309v842h-144v225h144v123q0 192 98 285.5t272 93.5q67 0 130 -12.5t94 -26.5zM1501 0v674q0 86 -34 125t-107 39q-58 0 -116 -25.5t-93 -58.5v-754h-309v1546h307v-577
q156 121 330 121q171 0 251 -88.5t80 -272.5v-729h-309z" />
    <glyph glyph-name="f_t" unicode="ft" horiz-adv-x="1511" 
d="M1497 55q-48 -30 -134.5 -55t-178.5 -25q-171 0 -256.5 83.5t-85.5 263.5v520h-377v-842h-309v842h-144v225h144v123q0 192 98 285.5t272 93.5q67 0 130 -12.5t94 -26.5l-13 -217q-74 22 -133 22q-68 0 -103.5 -36.5t-35.5 -127.5v-104h377v315l309 41v-356h283v-225
h-283v-480q0 -73 27.5 -108t97.5 -35q45 0 94 14.5t82 34.5z" />
    <glyph glyph-name="f_j" unicode="fj" horiz-adv-x="1263" 
d="M770 -457q-79 0 -149 17.5t-103 40.5l23 225q90 -41 168 -41q62 0 97.5 35t35.5 125v897h-377v-842h-309v842h-144v225h144v123q0 192 98 285.5t272 93.5q108 0 197 -29l-12 -225q-79 18 -117 18q-63 0 -96 -35.5t-33 -126.5v-104h686v-1151q0 -191 -101 -282t-280 -91z
M1184 1415q0 -89 -48.5 -138.5t-138.5 -49.5q-88 0 -137 50t-49 138q0 90 49 138.5t137 48.5q91 0 139 -48t48 -139z" />
    <glyph glyph-name="f_f_j" unicode="ffj" horiz-adv-x="1947" 
d="M1454 -457q-79 0 -149 17.5t-103 40.5l23 225q90 -41 168 -41q62 0 97.5 35t35.5 125v897h-377v-842h-309v842h-375v-842h-309v842h-144v225h144v123q0 192 98 285.5t272 93.5q67 0 130 -12.5t94 -26.5l-13 -215q-74 22 -133 22q-68 0 -103.5 -36t-35.5 -127v-107h375
v123q0 192 98 285.5t272 93.5q108 0 197 -29l-12 -225q-79 18 -117 18q-63 0 -96 -35.5t-33 -126.5v-104h686v-1151q0 -191 -101 -282t-280 -91zM1868 1415q0 -89 -48.5 -138.5t-138.5 -49.5q-88 0 -137 50t-49 138q0 90 49 138.5t137 48.5q91 0 139 -48t48 -139z" />
    <glyph glyph-name="f_f_i" unicode="ffi" horiz-adv-x="1951" 
d="M1528 0v842h-377v-842h-309v842h-377v-842h-309v842h-144v225h144v123q0 192 98 285.5t272 93.5q67 0 130 -12.5t94 -26.5l-13 -215q-74 22 -133 22q-68 0 -103.5 -36t-35.5 -127v-107h377v123q0 192 98 285.5t272 93.5q102 0 191 -29l-10 -225q-63 18 -113 18
q-63 0 -96 -35.5t-33 -126.5v-104h686v-1067h-309zM1870 1409q0 -88 -49.5 -138t-139.5 -50q-87 0 -135.5 50t-48.5 138q0 90 48 138t136 48q91 0 140 -48t49 -138z" />
    <glyph glyph-name="f_f_l" unicode="ffl" horiz-adv-x="1951" 
d="M1423 1313q-74 22 -133 22q-68 0 -103.5 -36.5t-35.5 -127.5v-104h254v-225h-254v-842h-309v842h-377v-842h-309v842h-144v225h144v123q0 192 98 285.5t272 93.5q67 0 130 -12.5t94 -26.5l-13 -215q-74 22 -133 22q-68 0 -103.5 -36t-35.5 -127v-107h377v123
q0 192 98 285.5t272 93.5q67 0 130 -12.5t94 -26.5zM1528 0v1546h309v-1546h-309z" />
    <glyph glyph-name="f_f_k" unicode="ffk" horiz-adv-x="2562" 
d="M1423 1311q-74 22 -133 22q-68 0 -103.5 -36.5t-35.5 -127.5v-102h254v-225h-254v-842h-309v842h-377v-842h-309v842h-144v225h144v123q0 192 98 285.5t272 93.5q67 0 130 -12.5t94 -26.5l-13 -215q-74 22 -133 22q-68 0 -103.5 -36t-35.5 -127v-107h377v123
q0 192 98 285.5t272 93.5q67 0 130 -12.5t94 -26.5zM2189 1067h344l-354 -383l381 -684h-342l-276 487l-105 -100v-387h-309v1546h309v-854z" />
    <glyph glyph-name="f_f_b" unicode="ffb" horiz-adv-x="2621" 
d="M1423 1313q-74 22 -133 22q-68 0 -103.5 -36.5t-35.5 -127.5v-104h254v-225h-254v-842h-309v842h-377v-842h-309v842h-144v225h144v123q0 192 98 285.5t272 93.5q67 0 130 -12.5t94 -26.5l-13 -215q-74 22 -133 22q-68 0 -103.5 -36t-35.5 -127v-107h377v123
q0 192 98 285.5t272 93.5q67 0 130 -12.5t94 -26.5zM1528 1546h303v-575q125 119 321 119q84 0 153 -29t124 -89.5t86 -166t31 -248.5q0 -123 -21.5 -221t-60.5 -165t-95 -111.5t-122.5 -64.5t-145.5 -20q-178 0 -293 115h-6l-14 -90h-260v1546zM1835 293q101 -70 186 -70
q102 0 150.5 80.5t48.5 245.5q0 67 -9 118t-29.5 91.5t-58 62t-91.5 21.5q-52 0 -105 -24t-92 -58v-467z" />
    <glyph glyph-name="f_f_h" unicode="ffh" horiz-adv-x="2605" 
d="M1423 1313q-74 22 -133 22q-68 0 -103.5 -36.5t-35.5 -127.5v-104h254v-225h-254v-842h-309v842h-377v-842h-309v842h-144v225h144v123q0 192 98 285.5t272 93.5q67 0 130 -12.5t94 -26.5l-13 -215q-74 22 -133 22q-68 0 -103.5 -36t-35.5 -127v-107h377v123
q0 192 98 285.5t272 93.5q67 0 130 -12.5t94 -26.5zM2187 0v674q0 86 -34 125t-107 39q-58 0 -116 -25.5t-93 -58.5v-754h-309v1546h307v-577q156 121 330 121q171 0 251.5 -88.5t80.5 -272.5v-729h-310z" />
    <glyph glyph-name="f_f_t" unicode="fft" horiz-adv-x="2197" 
d="M1423 1313q-74 22 -133 22q-68 0 -103.5 -36.5t-35.5 -127.5v-104h377v315l309 41v-356h283v-225h-283v-480q0 -73 27.5 -108t97.5 -35q45 0 94 14.5t82 34.5l45 -213q-48 -30 -134.5 -55t-178.5 -25q-171 0 -256.5 83.5t-85.5 263.5v520h-377v-842h-309v842h-377v-842
h-309v842h-144v225h144v123q0 192 98 285.5t272 93.5q67 0 130 -12.5t94 -26.5l-13 -215q-74 22 -133 22q-68 0 -103.5 -36t-35.5 -127v-107h377v123q0 192 98 285.5t272 93.5q67 0 130 -12.5t94 -26.5z" />
    <glyph glyph-name="f_iacute" unicode="f&#xed;" horiz-adv-x="1267" 
d="M842 0v842h-377v-842h-309v842h-144v225h144v123q0 192 98 285.5t272 93.5q108 0 197 -29l-12 -225q-79 18 -117 18q-63 0 -96 -35.5t-33 -126.5v-104h686v-1067h-309zM874 1190l152 332h332l-277 -351z" />
    <glyph glyph-name="idieresis_idieresis" unicode="&#xef;&#xef;" horiz-adv-x="1040" 
d="M23 1223q-76 0 -124.5 42.5t-48.5 110.5q0 71 48.5 113.5t124.5 42.5t123 -42.5t47 -113.5q0 -69 -47.5 -111t-122.5 -42zM522 1223q-78 0 -125 42t-47 111q0 72 47 114t125 42q76 0 122 -42.5t46 -113.5q0 -69 -46.5 -111t-121.5 -42zM1020 1223q-76 0 -124 42.5
t-48 110.5q0 71 48 113.5t124 42.5q78 0 124 -42t46 -114q0 -69 -46 -111t-124 -42zM96 0v1067h310v-1067h-310zM639 0v1067h309v-1067h-309z" />
    <glyph glyph-name="t_t" unicode="tt" horiz-adv-x="1556" 
d="M1540 55q-44 -30 -132.5 -55t-180.5 -25q-171 0 -256.5 83.5t-85.5 263.5v518h-402v-475q0 -76 24 -111t93 -35q53 0 141 37l47 -217q-48 -26 -121.5 -45t-152.5 -19q-170 0 -255 83.5t-85 263.5v518h-160v227h160v315l309 41v-356h402v315l309 41v-356h283v-227h-283
v-475q0 -73 27.5 -108.5t99.5 -35.5q92 0 176 49z" />
    <glyph glyph-name=".notdef" 
d="M205 1483h758v-1483h-758v1483zM266 1421v-1290l600 1290h-600zM901 61v1291l-600 -1289z" />
    <glyph glyph-name=".null" horiz-adv-x="0" 
 />
    <glyph glyph-name="nonmarkingreturn" horiz-adv-x="682" 
 />
    <glyph glyph-name="CR" unicode="&#xd;" horiz-adv-x="1024" 
 />
    <glyph glyph-name="space" unicode=" " horiz-adv-x="356" 
 />
    <glyph glyph-name="exclam" unicode="!" horiz-adv-x="593" 
d="M131 1483h336l-39 -1080h-258zM481 139q0 -79 -46 -121.5t-136 -42.5q-184 0 -184 164q0 166 184 166q182 0 182 -166z" />
    <glyph glyph-name="quotedbl" unicode="&#x22;" horiz-adv-x="878" 
d="M102 1483h277v-531h-277v531zM500 1483h276v-531h-276v531z" />
    <glyph glyph-name="numbersign" unicode="#" horiz-adv-x="1243" 
d="M655 285h-178l-43 -285h-213l43 285h-203l43 213h193l35 225h-205l43 215h192l41 276h213l-41 -276h177l41 276h213l-41 -276h206l-41 -215h-196l-35 -225h207l-41 -213h-197l-45 -285h-211zM545 723l-35 -225h178l33 225h-176z" />
    <glyph glyph-name="dollar" unicode="$" horiz-adv-x="1126" 
d="M565 1217q-90 0 -136 -40t-46 -106q0 -86 63 -132t201 -85q53 -14 88 -25t83.5 -31t80.5 -40.5t67 -52.5t55.5 -70t34 -89.5t13.5 -113.5q0 -186 -110.5 -296t-288.5 -140v-164h-262v164q-73 10 -131.5 34.5t-112 70t-88.5 123t-47 182.5l270 51q10 -62 24.5 -101.5
t42 -71.5t73 -46.5t112.5 -14.5q100 0 157.5 42t57.5 124q0 22 -5.5 41.5t-12 34.5t-22 29t-27 24t-35.5 20.5t-38.5 16.5t-45.5 15.5t-46 14t-51 13.5q-68 17 -119 35t-109.5 52t-96 77t-63 111t-25.5 153q0 164 99 270t255 142v184h260v-182q150 -16 245.5 -109.5
t106.5 -275.5l-274 -33q-14 103 -56.5 149t-140.5 46z" />
    <glyph glyph-name="percent" unicode="%" horiz-adv-x="1701" 
d="M385 768q-95 0 -163.5 28t-107 79t-56 113t-17.5 140q0 180 90 281.5t270 101.5q342 0 342 -356q0 -179 -91.5 -283t-266.5 -104zM395 948q63 0 90 47t27 152q0 96 -26 139t-91 43q-62 0 -90.5 -46t-28.5 -140q0 -102 27 -148.5t92 -46.5zM1290 -25q-94 0 -162.5 28
t-107.5 79t-56.5 114t-17.5 140q0 179 90 281t271 102q342 0 342 -357q0 -178 -92 -282.5t-267 -104.5zM1300 156q63 0 90 46.5t27 151.5q0 96 -26.5 139.5t-90.5 43.5q-62 0 -90 -46.5t-28 -140.5q0 -102 26.5 -148t91.5 -46zM1143 1483h270l-895 -1510h-272z" />
    <glyph glyph-name="ampersand" unicode="&#x26;" horiz-adv-x="1521" 
d="M1106 1143q0 -39 -7.5 -74.5t-29 -76t-57 -77.5t-95 -75.5t-139.5 -73.5l-28 -12q124 -169 270 -328q59 110 59 307h273q10 -260 -133 -454q70 -46 147 -46q34 0 78 13l33 -234q-83 -30 -170 -30q-149 0 -312 98q-146 -105 -401 -105q-124 0 -223.5 33t-163.5 90.5
t-97.5 134t-33.5 164.5q0 148 73 248.5t226 163.5q-72 124 -72 248q0 173 125 276t317 103q72 0 134 -15.5t114.5 -48.5t82.5 -91.5t30 -137.5zM645 201q94 0 154 32q-146 134 -322 388q-86 -70 -86 -191q0 -98 67 -163.5t187 -65.5zM604 1108q0 -80 55 -184q94 46 127 74
q62 53 62 128q0 49 -30 79t-85 30q-56 0 -92.5 -33.5t-36.5 -93.5z" />
    <glyph glyph-name="quotesingle" unicode="'" horiz-adv-x="481" 
d="M102 1483h277v-531h-277v531z" />
    <glyph glyph-name="parenleft" unicode="(" horiz-adv-x="743" 
d="M387 -313q-301 444 -301 886q0 134 25 261t71.5 240.5t101.5 210.5t128 198h319q-73 -108 -124.5 -201t-97.5 -205.5t-69.5 -237t-23.5 -259.5q0 -136 23 -261t69 -239t91 -199.5t112 -193.5h-324z" />
    <glyph glyph-name="parenright" unicode=")" horiz-adv-x="743" 
d="M324 1483q131 -182 216 -408t85 -479q0 -255 -87 -476.5t-239 -432.5h-319q74 107 126.5 201.5t97.5 206.5t68 236t23 259q0 137 -23 263t-69 239t-91.5 199.5t-111.5 191.5h324z" />
    <glyph glyph-name="asterisk" unicode="*" horiz-adv-x="976" 
d="M823 1352l43 -148l-219 -110l148 -222l-117 -92l-201 189l-194 -195l-119 94l145 226l-223 108l45 148l236 -58l41 254h147l37 -250z" />
    <glyph glyph-name="plus" unicode="+" 
d="M459 541h-273v243h273v285h246v-285h274v-243h-274v-293h-246v293z" />
    <glyph glyph-name="comma" unicode="," horiz-adv-x="499" 
d="M438 270l-200 -551l-252 25l129 526h323z" />
    <glyph glyph-name="hyphen" unicode="-" horiz-adv-x="641" 
d="M41 729h555v-264h-555v264z" />
    <glyph glyph-name="period" unicode="." horiz-adv-x="514" 
d="M449 156q0 -181 -191 -181q-190 0 -190 181q0 182 190 182q191 0 191 -182z" />
    <glyph glyph-name="slash" unicode="/" horiz-adv-x="907" 
d="M594 1546h280l-573 -1734h-283z" />
    <glyph glyph-name="zero" unicode="0" horiz-adv-x="1198" 
d="M592 -25q-151 0 -254.5 50t-163.5 152t-85.5 239t-25.5 329q0 189 28.5 326.5t92.5 238t170.5 150t257.5 49.5q122 0 212.5 -33.5t149.5 -94t95.5 -155t51 -206t14.5 -258.5q0 -157 -17 -278t-55.5 -219t-101 -160.5t-154.5 -96t-215 -33.5zM600 217q126 0 166 123
q41 128 41 410q0 290 -39.5 403t-159.5 113q-125 0 -170 -116.5t-45 -406.5q0 -280 39 -401q40 -125 168 -125z" />
    <glyph glyph-name="one" unicode="1" horiz-adv-x="905" 
d="M395 1114q-47 -24 -153.5 -43.5t-163.5 -19.5l-15 262q293 23 429 170h210v-1483h-307v1114z" />
    <glyph glyph-name="two" unicode="2" horiz-adv-x="1110" 
d="M567 1509q219 0 333 -99t114 -284q0 -80 -17 -146t-62 -138.5t-96 -136t-145 -166.5l-241 -267v-6h583v-266h-946v258l318 371q17 21 57.5 68t54.5 64t45 54.5t42 54.5t32 47.5t28.5 49.5t18 45t13.5 49.5t3 48.5q0 156 -165 156q-94 0 -139.5 -54t-63.5 -165l-279 47
q13 107 56 188t111.5 130t154.5 73t190 24z" />
    <glyph glyph-name="three" unicode="3" horiz-adv-x="1136" 
d="M317 410q13 -98 61 -146.5t148 -48.5q93 0 151 55.5t58 165.5q0 115 -59 164t-180 49h-146v234h96q129 0 199 60.5t70 164.5q0 79 -38 121.5t-130 42.5q-90 0 -137 -45t-68 -140l-266 54q19 102 67 175.5t117.5 114.5t146.5 59.5t168 18.5q213 0 329 -94.5t116 -265.5
q0 -69 -24.5 -129t-66 -102t-88.5 -71.5t-100 -47.5v-8q310 -68 310 -371q0 -204 -142.5 -324.5t-382.5 -120.5q-91 0 -169.5 20.5t-146.5 63.5t-112.5 119.5t-56.5 179.5z" />
    <glyph glyph-name="four" unicode="4" horiz-adv-x="1222" 
d="M719 332h-664v219l588 932h377v-901h166v-250h-168v-332h-299v332zM719 1200l-391 -618h391v618z" />
    <glyph glyph-name="five" unicode="5" horiz-adv-x="1146" 
d="M967 1483v-266h-555l-35 -371q112 98 282 98q85 0 155 -25.5t124.5 -78.5t84.5 -141.5t30 -206.5q0 -241 -144 -379t-387 -138q-74 0 -138.5 12t-123.5 40t-103.5 71.5t-75.5 109t-42 148.5l268 56q26 -193 215 -193q98 0 160.5 65.5t62.5 194.5q0 228 -196 228
q-118 0 -217 -99l-201 84l55 791h781z" />
    <glyph glyph-name="six" unicode="6" horiz-adv-x="1183" 
d="M829 1090q-17 101 -58 140.5t-116 39.5q-66 0 -118 -41.5t-82.5 -110.5t-46 -150t-15.5 -169q57 50 141 81t179 31q183 0 291 -109.5t108 -318.5q0 -127 -38.5 -225.5t-107 -159.5t-159 -92t-199.5 -31q-120 0 -210.5 37.5t-147 101t-92 159t-49 199.5t-13.5 233
q0 79 7 154t25.5 156.5t47.5 151.5t75 134t105 109.5t142 72t182 26.5q355 0 424 -344zM410 588q2 -55 6 -96.5t12.5 -88t23 -78.5t36 -59.5t54 -41t74.5 -13.5q90 0 136.5 67t46.5 183q0 113 -40 166t-134 53q-52 0 -111 -27t-104 -65z" />
    <glyph glyph-name="seven" unicode="7" horiz-adv-x="1087" 
d="M715 1217h-652v266h973v-238l-565 -1247h-328z" />
    <glyph glyph-name="eight" unicode="8" horiz-adv-x="1165" 
d="M838 807q152 -69 218 -159.5t66 -241.5q0 -117 -66.5 -214.5t-195.5 -157t-297 -59.5q-131 0 -232.5 31t-163 85t-93 122.5t-31.5 148.5q0 137 68.5 234t216.5 164q-228 110 -228 342q0 191 138.5 299t369.5 108q227 0 351 -93.5t124 -252.5q0 -118 -60.5 -200
t-184.5 -156zM520 645q-84 -48 -129 -104.5t-45 -145.5q0 -86 54.5 -135t168.5 -49q108 0 166 51.5t58 130.5q0 41 -16 75.5t-39 58.5t-63 47.5t-72 37.5t-83 33zM631 911q73 43 114 102.5t41 125.5q0 147 -184 147q-83 0 -132.5 -37t-49.5 -104q0 -77 51 -128.5t160 -105.5
z" />
    <glyph glyph-name="nine" unicode="9" horiz-adv-x="1181" 
d="M338 410q19 -104 64.5 -151.5t129.5 -47.5q86 0 147 66t88.5 169t29.5 234q-54 -47 -139 -77t-183 -30q-184 0 -291.5 110t-107.5 325q0 125 39.5 222t110 157t162.5 91t202 31q117 0 205.5 -37.5t144 -101t90.5 -158.5t48.5 -199t13.5 -233q0 -84 -6 -159t-22.5 -158.5
t-43 -152t-71 -132t-102.5 -107.5t-140.5 -70t-182.5 -26q-397 0 -461 353zM778 891q-2 59 -6 102.5t-12.5 89.5t-23.5 78t-36.5 58.5t-54 39.5t-74.5 13q-91 0 -136.5 -64t-45.5 -182q0 -113 42 -170t134 -57q54 0 111 25t102 67z" />
    <glyph glyph-name="colon" unicode=":" horiz-adv-x="544" 
d="M463 156q0 -181 -191 -181q-190 0 -190 181q0 182 190 182q191 0 191 -182zM463 858q0 -180 -191 -180q-190 0 -190 180q0 182 190 182q191 0 191 -182z" />
    <glyph glyph-name="semicolon" unicode=";" horiz-adv-x="532" 
d="M442 270l-200 -551l-252 25l129 526h323zM492 858q0 -180 -191 -180q-190 0 -190 180q0 182 190 182q191 0 191 -182z" />
    <glyph glyph-name="less" unicode="&#x3c;" 
d="M141 741l801 287v-256l-534 -174l534 -176v-252l-801 281v290z" />
    <glyph glyph-name="equal" unicode="=" 
d="M188 506h791v-246h-791v246zM188 893h791v-246h-791v246z" />
    <glyph glyph-name="greater" unicode="&#x3e;" 
d="M199 424l534 174l-534 174v256l800 -287v-286l-800 -281v250z" />
    <glyph glyph-name="question" unicode="?" horiz-adv-x="1120" 
d="M317 778q83 7 149 22.5t128 47t96.5 87.5t34.5 134q0 92 -47.5 135t-130.5 43q-94 0 -146 -51.5t-71 -161.5l-301 47q25 198 162.5 310t371.5 112q78 0 147 -13t132.5 -45t109 -81t72.5 -125.5t27 -173.5q0 -188 -110.5 -307.5t-315.5 -167.5v-187h-308v375zM649 139
q0 -79 -45.5 -121.5t-136.5 -42.5q-182 0 -182 164q0 166 182 166t182 -166z" />
    <glyph glyph-name="at" unicode="@" horiz-adv-x="1751" 
d="M1333 -297q-159 -98 -450 -98q-169 0 -313 48t-253.5 141t-172 242.5t-62.5 340.5q0 178 61 329.5t170.5 259t267.5 168t345 60.5q218 0 385 -81.5t261.5 -237.5t94.5 -365q0 -272 -111 -401q-112 -127 -280 -127q-91 0 -154 28t-88 76q-79 -102 -233 -102
q-143 0 -221 105.5t-78 277.5q0 195 92.5 320.5t249.5 125.5q111 0 176 -72l16 60h166v-539q0 -54 18.5 -82t71.5 -28q46 -2 80 30.5t51.5 88t25.5 111t9 114.5q0 238 -134.5 374t-412.5 136q-128 0 -232.5 -36t-173.5 -95.5t-116.5 -140.5t-68.5 -167.5t-21 -179.5
q0 -153 44.5 -268.5t127 -186t191 -105t243.5 -34.5q200 0 365 84zM1006 606q-44 47 -119 47q-79 0 -125.5 -64.5t-46.5 -195.5q0 -243 141 -243q82 0 150 81v375z" />
    <glyph glyph-name="A" unicode="A" horiz-adv-x="1443" 
d="M1423 0h-346l-123 360h-493l-115 -360h-326l486 1483h393zM696 1186l-182 -574h375l-184 574h-9z" />
    <glyph glyph-name="B" unicode="B" horiz-adv-x="1304" 
d="M152 1483h587q103 0 181.5 -18.5t128.5 -50t82 -78.5t44.5 -99.5t12.5 -116.5q0 -141 -78.5 -226.5t-202.5 -119.5v-4q174 -20 259 -112.5t85 -249.5q0 -89 -27.5 -158.5t-76 -116t-119.5 -77t-153.5 -43.5t-182.5 -13h-540v1483zM629 244q70 0 118 7.5t88.5 27.5t60 59
t19.5 98q0 60 -19 100t-57 60t-80 27.5t-100 7.5h-192v-387h162zM584 870q49 0 87.5 4t79 16.5t67.5 33.5t44 58t17 87q0 47 -13 79t-32.5 50t-55 27.5t-66.5 11.5t-81 2h-164v-369h117z" />
    <glyph glyph-name="C" unicode="C" horiz-adv-x="1423" 
d="M762 -25q-684 0 -684 750q0 176 47 320.5t136.5 247.5t225 159.5t306.5 56.5q261 0 416 -131.5t167 -400.5l-289 -25q-13 157 -84.5 227t-214.5 70q-185 0 -285 -125t-100 -383q0 -264 92 -384.5t271 -120.5q150 0 222 68.5t99 197.5l285 -49q-14 -103 -57 -185.5
t-102.5 -136t-135.5 -89.5t-154 -51.5t-161 -15.5z" />
    <glyph glyph-name="D" unicode="D" horiz-adv-x="1482" 
d="M152 1483h520q374 0 554.5 -188t180.5 -531q0 -173 -46 -311.5t-138.5 -240.5t-241 -157t-344.5 -55h-485v1483zM623 254q247 0 353.5 125.5t106.5 368.5q0 138 -26.5 231.5t-82.5 148.5t-135 78t-194 23h-178v-975h156z" />
    <glyph glyph-name="E" unicode="E" horiz-adv-x="1193" 
d="M1128 266v-266h-976v1483h940v-264h-625v-349h588v-258h-588v-346h661z" />
    <glyph glyph-name="F" unicode="F" horiz-adv-x="1132" 
d="M152 0v1483h933v-264h-618v-377h569v-260h-569v-582h-315z" />
    <glyph glyph-name="G" unicode="G" horiz-adv-x="1513" 
d="M1130 182q-44 -98 -162 -152.5t-261 -54.5q-163 0 -285.5 55t-197 155.5t-110.5 233.5t-36 298q0 241 80 418t243.5 275.5t395.5 98.5q124 0 224.5 -29t179 -89.5t125.5 -161.5t56 -238l-295 -28q-6 64 -23 112.5t-50 89.5t-89 62.5t-134 21.5q-192 0 -288.5 -131
t-96.5 -373q0 -265 90 -390.5t284 -125.5q144 0 223.5 73.5t79.5 184.5v54h-270v231h582v-772h-230z" />
    <glyph glyph-name="H" unicode="H" horiz-adv-x="1501" 
d="M1034 0v608h-567v-608h-315v1483h315v-602h567v602h318v-1483h-318z" />
    <glyph glyph-name="I" unicode="I" horiz-adv-x="618" 
d="M152 0v1483h315v-1483h-315z" />
    <glyph glyph-name="J" unicode="J" horiz-adv-x="1085" 
d="M948 1483v-1067q0 -441 -467 -441q-100 0 -177.5 21.5t-138.5 69t-95.5 130.5t-38.5 199l303 45q5 -53 12 -84.5t22.5 -63t44 -45.5t72.5 -14q75 0 110.5 40t35.5 135v1075h317z" />
    <glyph glyph-name="K" unicode="K" horiz-adv-x="1378" 
d="M1040 1483h336l-542 -617l534 -866h-369l-391 621l-143 -156v-465h-313v1483h313v-635z" />
    <glyph glyph-name="L" unicode="L" horiz-adv-x="1163" 
d="M1102 266v-266h-950v1483h315v-1217h635z" />
    <glyph glyph-name="M" unicode="M" horiz-adv-x="1873" 
d="M1430 0v1163h-9l-350 -1163h-285l-337 1165h-9v-1165h-288v1483h471l313 -1084h8l311 1084h469v-1483h-294z" />
    <glyph glyph-name="N" unicode="N" horiz-adv-x="1525" 
d="M440 1047v-1047h-288v1483h376l562 -1051v1051h286v-1483h-364z" />
    <glyph glyph-name="O" unicode="O" horiz-adv-x="1556" 
d="M768 -25q-145 0 -260.5 37t-195 103.5t-133 162t-77.5 209t-24 248.5q0 167 46.5 307.5t135 245t227 163t314.5 58.5q175 0 308 -58t213 -161.5t119.5 -235.5t39.5 -290q0 -181 -44 -325.5t-131 -248.5t-223.5 -159.5t-314.5 -55.5zM780 242q176 0 275.5 120t99.5 383
q0 251 -93 374.5t-267 123.5q-185 0 -288.5 -125.5t-103.5 -376.5q0 -257 98.5 -378t278.5 -121z" />
    <glyph glyph-name="P" unicode="P" horiz-adv-x="1271" 
d="M152 0v1483h561q110 0 196 -26t141 -69t91 -103.5t50.5 -125.5t14.5 -139q0 -541 -579 -541h-162v-479h-313zM592 733q66 0 114.5 11t90.5 38.5t64 81.5t22 133q0 69 -19.5 116t-57 71.5t-83 34.5t-107.5 10h-151v-496h127z" />
    <glyph glyph-name="Q" unicode="Q" horiz-adv-x="1556" 
d="M768 -25q-145 0 -260.5 37t-195 103.5t-133 162t-77.5 209t-24 248.5q0 167 46.5 307.5t135 245t227 163t314.5 58.5q175 0 308 -58t213 -161.5t119.5 -235.5t39.5 -290q0 -347 -170 -553l168 -180l-197 -166l-170 184q-165 -74 -344 -74zM784 236q81 0 142 20l-232 246
l191 170l219 -248q53 103 53 321q0 251 -94 374.5t-268 123.5q-185 0 -288.5 -125.5t-103.5 -376.5q0 -257 100.5 -381t280.5 -124z" />
    <glyph glyph-name="R" unicode="R" horiz-adv-x="1314" 
d="M961 0l-293 563h-203v-563h-313v1483h577q108 0 193 -22.5t140 -61t91.5 -92.5t52 -113.5t15.5 -128.5q0 -304 -256 -424l335 -641h-339zM627 811q112 0 188 49q80 50 80 174q0 104 -63 149.5t-193 45.5h-174v-418h162z" />
    <glyph glyph-name="S" unicode="S" horiz-adv-x="1220" 
d="M614 1266q-110 0 -165.5 -42t-55.5 -116q0 -38 17.5 -69t41.5 -51.5t70 -40t79.5 -30.5t94.5 -28q47 -13 73 -21t71.5 -24t72.5 -29t65.5 -34.5t61.5 -43.5t49 -53t40.5 -65.5t24 -79t9.5 -95.5q0 -122 -46.5 -214.5t-127 -146.5t-179.5 -81t-214 -27q-540 0 -573 471
l286 43q8 -48 19 -83t33 -71t52.5 -58.5t79 -37t111.5 -14.5q109 0 177.5 43.5t68.5 139.5q0 27 -9 50.5t-21.5 40.5t-38.5 33t-45 26t-57.5 22t-60 18t-67.5 18q-169 46 -238 79q-175 81 -219 240q-16 58 -16 128q0 141 73.5 243.5t194 152.5t272.5 50q85 0 155 -11
t138 -40.5t116.5 -77t80.5 -125.5t39 -180l-289 -33q-8 111 -63.5 167.5t-180.5 56.5z" />
    <glyph glyph-name="T" unicode="T" horiz-adv-x="1218" 
d="M453 1217h-437v266h1186v-266h-432v-1217h-317v1217z" />
    <glyph glyph-name="U" unicode="U" horiz-adv-x="1449" 
d="M729 240q154 0 212 77.5t58 262.5v903h316v-948q0 -286 -155 -423t-443 -137q-305 0 -444.5 137.5t-139.5 430.5v940h318v-897q0 -182 60 -264t218 -82z" />
    <glyph glyph-name="V" unicode="V" horiz-adv-x="1355" 
d="M-6 1483h354l338 -1172h12l338 1172h326l-461 -1483h-426z" />
    <glyph glyph-name="W" unicode="W" horiz-adv-x="1974" 
d="M997 1022h-8l-237 -1022h-416l-320 1483h330l209 -1143h8l264 1143h338l273 -1149h10l192 1149h318l-318 -1483h-403z" />
    <glyph glyph-name="X" unicode="X" horiz-adv-x="1333" 
d="M1335 0h-364l-324 494l-309 -494h-340l479 748l-457 735h353l303 -502l307 502h328l-463 -733z" />
    <glyph glyph-name="Y" unicode="Y" horiz-adv-x="1241" 
d="M477 0v555l-514 928h346l326 -635h10l313 635h320l-483 -924v-559h-318z" />
    <glyph glyph-name="Z" unicode="Z" horiz-adv-x="1212" 
d="M1153 266v-266h-1098v231l703 988h-684v264h1050v-236l-690 -981h719z" />
    <glyph glyph-name="bracketleft" unicode="[" horiz-adv-x="651" 
d="M113 1483h465v-201h-166v-1374h166v-201h-465v1776z" />
    <glyph glyph-name="backslash" unicode="\" horiz-adv-x="913" 
d="M39 1546h280l576 -1734h-283z" />
    <glyph glyph-name="bracketright" unicode="]" horiz-adv-x="651" 
d="M74 1483h465v-1776h-465v201h166v1374h-166v201z" />
    <glyph glyph-name="asciicircum" unicode="^" horiz-adv-x="1398" 
d="M698 1096l-266 -484h-291l404 748h313l408 -748h-295z" />
    <glyph glyph-name="underscore" unicode="_" horiz-adv-x="1024" 
d="M0 -145h1024v-226h-1024v226z" />
    <glyph glyph-name="grave" unicode="`" horiz-adv-x="1024" 
d="M526 1522l152 -332l-207 -19l-276 351h331z" />
    <glyph glyph-name="a" unicode="a" horiz-adv-x="1142" 
d="M985 266q0 -44 13.5 -63t50.5 -19q19 0 63 13l8 -179q-34 -15 -92 -28t-104 -13q-95 0 -148.5 31.5t-70.5 104.5q-107 -138 -318 -138q-77 0 -135.5 20t-92 50t-54.5 70t-28 75t-7 70q0 68 20 123.5t53 94t82.5 67t101 45t115.5 26.5t120 13.5t120 3.5v39q0 86 -25 141
q-24 53 -127 53q-73 0 -108 -33.5t-53 -113.5l-263 51q26 158 133.5 239t317.5 81q217 0 322.5 -89.5t105.5 -287.5v-447zM635 453q-254 0 -254 -142q0 -116 125 -116q52 0 101.5 21t76.5 48v189h-49z" />
    <glyph glyph-name="b" unicode="b" horiz-adv-x="1212" 
d="M121 1546h303v-575q125 119 321 119q84 0 153 -29t124 -89.5t86 -166t31 -248.5q0 -123 -21.5 -221t-60.5 -165t-95 -111.5t-122.5 -64.5t-145.5 -20q-178 0 -293 115h-6l-14 -90h-260v1546zM428 293q101 -70 186 -70q102 0 150.5 80.5t48.5 245.5q0 67 -9 118
t-29.5 91.5t-58 62t-91.5 21.5q-52 0 -105 -24t-92 -58v-467z" />
    <glyph glyph-name="c" unicode="c" horiz-adv-x="1114" 
d="M584 -25q-131 0 -230 40t-161 113t-92.5 170.5t-30.5 217.5q0 275 142 424.5t402 149.5q194 0 313 -105.5t132 -298.5l-277 -41q-8 105 -47.5 156t-126.5 51q-47 0 -83 -13t-67 -45t-48 -93.5t-17 -151.5q0 -178 53.5 -255t157.5 -77q90 0 137.5 47.5t61.5 147.5l260 -50
q-27 -199 -160 -294q-134 -93 -319 -93z" />
    <glyph glyph-name="d" unicode="d" horiz-adv-x="1210" 
d="M836 0l-19 104l-6 2q-118 -131 -315 -131q-196 0 -308 130.5t-112 406.5q0 124 26 223.5t69 164.5t101.5 108.5t121.5 62.5t132 19q174 0 271 -91v547h297v-1546h-258zM786 784q-79 60 -172 60q-111 0 -163 -86.5t-52 -235.5q0 -303 205 -303q95 0 182 76v489z" />
    <glyph glyph-name="e" unicode="e" horiz-adv-x="1120" 
d="M592 -25q-115 0 -205.5 30.5t-149 81.5t-97 123t-54.5 151t-16 169q0 140 41 249t113 176t165 101t203 34q236 0 347.5 -130.5t111.5 -363.5q0 -94 -7 -139h-649q4 -127 58 -184.5t157 -57.5q80 0 119.5 39t54.5 113l260 -64q-30 -152 -147.5 -240t-304.5 -88zM731 653
q0 112 -39 162.5t-117 50.5q-74 0 -124.5 -52t-51.5 -161h332z" />
    <glyph glyph-name="f" unicode="f" horiz-adv-x="749" 
d="M156 842h-144v225h144v123q0 191 104.5 285t288.5 94q150 0 235 -39l-12 -219q-76 26 -143 26q-81 0 -122.5 -37t-41.5 -139v-94h283v-225h-283v-842h-309v842z" />
    <glyph glyph-name="g" unicode="g" horiz-adv-x="1146" 
d="M561 1090q188 0 283 -66q79 162 196 162q37 0 86 -19v-202q-89 8 -176 -17q88 -95 88 -239q0 -176 -130.5 -279.5t-338.5 -103.5q-97 0 -178 22q-39 -39 -39 -65q0 -25 21.5 -38.5t75.5 -17.5l303 -18q179 -11 268.5 -81.5t89.5 -225.5q0 -96 -42.5 -167t-119.5 -113
t-175.5 -62.5t-219.5 -20.5q-143 0 -244.5 18t-159.5 52t-84 77.5t-26 100.5q0 74 51.5 125t140.5 68v8q-155 46 -155 180q0 73 40 124.5t126 113.5q-74 42 -115 116t-41 172q0 176 126.5 286t348.5 110zM756 711q0 161 -183 161q-88 0 -141 -39.5t-53 -121.5
q0 -164 190 -164q86 0 136.5 43.5t50.5 120.5zM809 -154q0 36 -27 58t-104 26l-297 19q-64 -44 -64 -103q0 -108 261 -108q74 0 122 8t78.5 33t30.5 67z" />
    <glyph glyph-name="h" unicode="h" horiz-adv-x="1193" 
d="M776 0v674q0 86 -34 125t-107 39q-58 0 -116 -25.5t-93 -58.5v-754h-309v1546h307v-577q156 121 330 121q171 0 251 -88.5t80 -272.5v-729h-309z" />
    <glyph glyph-name="i" unicode="i" horiz-adv-x="548" 
d="M123 0v1067h309v-1067h-309zM465 1395q0 -88 -49.5 -138.5t-136.5 -50.5q-88 0 -137.5 50.5t-49.5 138.5q0 90 49 138t138 48q88 0 137 -48t49 -138z" />
    <glyph glyph-name="j" unicode="j" horiz-adv-x="544" 
d="M51 -457q-77 0 -148.5 18t-103.5 40l23 231q90 -41 168 -41q62 0 97.5 35t35.5 125v1116h309v-1151q0 -191 -101 -282t-280 -91zM465 1401q0 -91 -48 -141t-138 -50q-88 0 -137.5 50.5t-49.5 140.5t49 137t138 47q91 0 138.5 -46.5t47.5 -137.5z" />
    <glyph glyph-name="k" unicode="k" horiz-adv-x="1155" 
d="M782 1067h342l-354 -383l381 -684h-342l-277 487l-102 -100v-387h-309v1546h309v-852z" />
    <glyph glyph-name="l" unicode="l" horiz-adv-x="548" 
d="M123 0v1546h309v-1546h-309z" />
    <glyph glyph-name="m" unicode="m" horiz-adv-x="1748" 
d="M117 0v1067h262l14 -100q144 123 324 123q204 0 272 -134q59 62 144.5 98t187.5 36q319 0 319 -355v-735h-309v686q0 78 -28 116t-93 38q-43 0 -95 -21.5t-81 -52.5q2 -6 2 -27v-739h-309v686q0 78 -27.5 116t-91.5 38q-46 0 -98.5 -22.5t-83.5 -53.5v-764h-309z" />
    <glyph glyph-name="n" unicode="n" horiz-adv-x="1193" 
d="M776 0v676q0 86 -34 125t-107 39q-58 0 -116 -25.5t-93 -58.5v-756h-309v1067h274l17 -106q143 129 340 129q175 0 256 -88t81 -273v-729h-309z" />
    <glyph glyph-name="o" unicode="o" horiz-adv-x="1202" 
d="M590 -25q-141 0 -243.5 41t-162 117t-87 173.5t-27.5 221.5q0 264 138 413t410 149q137 0 237.5 -39.5t160.5 -112.5t88.5 -169t28.5 -218q0 -271 -133 -423.5t-410 -152.5zM604 205q106 0 156.5 77.5t50.5 258.5q0 173 -48 244t-153 71q-108 0 -162.5 -75.5
t-54.5 -243.5q0 -178 49 -255t162 -77z" />
    <glyph glyph-name="p" unicode="p" horiz-adv-x="1212" 
d="M383 1067l18 -109q66 66 154 99t180 33q88 0 159 -28.5t126.5 -89.5t86 -166.5t30.5 -248.5q0 -123 -22.5 -222t-62 -165.5t-95.5 -111t-119 -64t-136 -19.5q-163 0 -282 103v-512h-299v1501h262zM426 295q29 -25 82 -48.5t104 -23.5q106 0 153.5 82.5t47.5 243.5
q0 158 -46 226.5t-142 68.5q-50 0 -104.5 -24.5t-94.5 -57.5v-467z" />
    <glyph glyph-name="q" unicode="q" horiz-adv-x="1208" 
d="M799 -434v526q-117 -117 -307 -117q-196 0 -306 131t-110 410q0 123 26 222t69 163.5t102 108t122.5 62t132.5 18.5q180 0 283 -121l29 98h254v-1501h-295zM786 780q-33 28 -80 46t-96 18q-108 0 -159.5 -84.5t-51.5 -231.5q0 -307 205 -307q98 0 182 74v485z" />
    <glyph glyph-name="r" unicode="r" horiz-adv-x="804" 
d="M793 786q-103 10 -201 -15.5t-166 -80.5v-690h-309v1067h264l22 -168q132 191 336 191q27 0 54 -3v-301z" />
    <glyph glyph-name="s" unicode="s" horiz-adv-x="1026" 
d="M498 -25q-200 0 -313 73.5t-140 209.5l250 86q11 -36 24 -61.5t36.5 -50.5t62 -38.5t90.5 -13.5q162 0 162 105q0 24 -10.5 42.5t-26 31t-44.5 22.5t-55.5 16.5t-68.5 14.5q-151 29 -215 59q-167 84 -170 272q0 112 62.5 192.5t161 117.5t220.5 37q345 0 426 -287
l-248 -74q-21 76 -62 116t-120 40q-72 0 -108.5 -28t-36.5 -75q0 -25 11.5 -43.5t26 -29.5t48.5 -21.5t57.5 -15.5t75.5 -15q39 -7 60 -11.5t58 -13.5t58 -17.5t52 -23t49 -30t39 -39t32.5 -50t19 -62t7.5 -76.5q0 -174 -131.5 -266.5t-339.5 -92.5z" />
    <glyph glyph-name="t" unicode="t" horiz-adv-x="843" 
d="M827 51q-43 -29 -130 -52.5t-183 -23.5q-170 0 -255 83.5t-85 263.5v520h-160v225h160v315l309 41v-356h283v-225h-283v-477q0 -73 27.5 -108.5t97.5 -35.5q45 0 94 14.5t82 34.5z" />
    <glyph glyph-name="u" unicode="u" horiz-adv-x="1183" 
d="M422 1067v-674q0 -87 31 -126.5t104 -39.5q54 0 109.5 26t93.5 58v756h309v-1067h-266l-23 115q-59 -65 -146.5 -101.5t-193.5 -36.5q-327 0 -327 355v735h309z" />
    <glyph glyph-name="v" unicode="v" horiz-adv-x="1097" 
d="M-8 1067h334l227 -770h8l227 770h318l-377 -1067h-360z" />
    <glyph glyph-name="w" unicode="w" horiz-adv-x="1665" 
d="M-8 1067h309l195 -750h4l188 750h303l189 -745h6l186 745h301l-317 -1067h-348l-172 696h-5l-157 -696h-367z" />
    <glyph glyph-name="x" unicode="x" horiz-adv-x="1087" 
d="M1075 0h-330l-217 330l-211 -330h-297l349 535l-355 532h334l207 -326l213 326h297l-348 -518z" />
    <glyph glyph-name="y" unicode="y" horiz-adv-x="1077" 
d="M326 1067l223 -743h6l215 743h317q-219 -613 -423 -1171q-69 -194 -156.5 -273.5t-245.5 -79.5q-61 0 -128.5 13.5t-104.5 31.5l22 224q105 -33 162 -33q55 0 91.5 27t60.5 88l32 83l-405 1090h334z" />
    <glyph glyph-name="z" unicode="z" horiz-adv-x="954" 
d="M911 248v-248h-856v219l492 617h-488v231h824v-219l-475 -600h503z" />
    <glyph glyph-name="braceleft" unicode="{" horiz-adv-x="690" 
d="M467 -297q-317 0 -317 266q0 59 14 187t14 204q0 148 -131 148h-43v188h43q131 0 131 148q0 77 -14 210.5t-14 188.5q0 137 79.5 201.5t237.5 64.5h156v-206h-45q-54 0 -75.5 -24.5t-21.5 -74.5q0 -60 15.5 -189.5t15.5 -191.5q0 -96 -40.5 -142.5t-131.5 -80.5
q90 -32 131 -78t41 -139q0 -63 -15.5 -187t-15.5 -184q0 -51 22.5 -76.5t82.5 -25.5h37v-207h-156z" />
    <glyph glyph-name="bar" unicode="|" horiz-adv-x="573" 
d="M147 1546h281v-1839h-281v1839z" />
    <glyph glyph-name="braceright" unicode="}" horiz-adv-x="690" 
d="M223 1509q318 0 318 -266q0 -59 -14.5 -187t-14.5 -204q0 -147 131 -147h43v-189h-43q-131 0 -131 -147q0 -77 14.5 -211t14.5 -189q0 -135 -79.5 -200.5t-238.5 -65.5h-155v207h45q56 0 76 24.5t20 73.5q0 60 -15.5 189.5t-15.5 191.5q0 96 40.5 142.5t131.5 80.5
q-90 32 -131 78t-41 139q0 63 15.5 188.5t15.5 182.5q0 52 -21.5 77.5t-83.5 25.5h-36v206h155z" />
    <glyph glyph-name="asciitilde" unicode="~" horiz-adv-x="1228" 
d="M373 922q69 0 263 -45.5t234 -45.5q35 0 48.5 20t13.5 71l170 -9q18 -130 -34.5 -215.5t-166.5 -85.5q-76 0 -273.5 45t-232.5 45t-49.5 -21t-7.5 -75l-182 6q-18 138 40 224t177 86z" />
    <glyph glyph-name="uni00A0" unicode="&#xa0;" horiz-adv-x="356" 
 />
    <glyph glyph-name="exclamdown" unicode="&#xa1;" horiz-adv-x="638" 
d="M492 -418h-336l39 1080h258zM141 926q0 79 46.5 121.5t136.5 42.5q184 0 184 -164q0 -166 -184 -166q-183 0 -183 166z" />
    <glyph glyph-name="cent" unicode="&#xa2;" horiz-adv-x="1099" 
d="M727 1243q136 -25 219.5 -120.5t95.5 -245.5l-278 -41q-8 96 -44 140t-112 44q-46 0 -79.5 -11.5t-62 -40t-43.5 -83.5t-15 -135q0 -148 46.5 -220.5t153.5 -72.5q83 0 122.5 41t57.5 137l259 -47q-20 -148 -109 -240t-227 -119v-229h-260v229q-178 34 -269.5 164.5
t-91.5 325.5q0 214 99 347.5t278 172.5v217h260v-213z" />
    <glyph glyph-name="sterling" unicode="&#xa3;" horiz-adv-x="1214" 
d="M154 246q74 65 106.5 122t32.5 130q0 63 -35 141h-197v225h134q-24 41 -37.5 68t-29 79t-15.5 101q0 179 138 288t372 109q211 0 329.5 -91.5t149.5 -299.5l-275 -47q-7 47 -18 81t-33 65t-60.5 47t-92.5 16q-189 0 -189 -172q0 -25 4 -49.5t16 -55.5t17 -44t24 -52
t21 -43h395v-225h-338q23 -61 23 -123q0 -77 -28.5 -140.5t-96.5 -129.5h215q125 0 171 40.5t65 153.5l260 -45q-17 -205 -128 -300t-339 -95h-682v246h121z" />
    <glyph glyph-name="currency" unicode="&#xa4;" 
d="M795 168q-105 -62 -244 -62q-141 0 -248 66l-178 -180l-164 168l186 186q-49 101 -49 227q0 108 54 213l-185 183l170 172l174 -172q112 67 254 67q152 0 250 -61l168 164l160 -168l-172 -174q47 -100 47 -215q0 -127 -60 -238l185 -182l-170 -170zM561 334q99 0 152 67
t53 172q0 111 -53.5 172.5t-157.5 61.5q-97 0 -151 -64.5t-54 -169.5q0 -106 53 -172.5t158 -66.5z" />
    <glyph glyph-name="yen" unicode="&#xa5;" horiz-adv-x="1175" 
d="M1014 854v-192h-264v-142h264v-192h-264v-328h-310v328h-260v192h260v142h-260v192h170l-325 629h331l244 -518h8l236 518h309l-319 -629h180z" />
    <glyph glyph-name="brokenbar" unicode="&#xa6;" horiz-adv-x="573" 
d="M147 502h281v-795h-281v795zM147 1546h281v-692h-281v692z" />
    <glyph glyph-name="section" unicode="&#xa7;" horiz-adv-x="1165" 
d="M84 483q0 92 45.5 164t138.5 133q-118 111 -118 275q0 122 66 213.5t174 137.5t241 46q188 0 308 -92.5t138 -290.5l-266 -31q-8 98 -52 146.5t-138 48.5q-81 0 -128 -35.5t-47 -101.5q0 -50 28 -86.5t73 -57.5t103 -41.5t119 -36.5t119 -43.5t103 -62t73 -93.5t28 -136
q0 -178 -185 -310q117 -106 117 -268q0 -188 -129 -293.5t-350 -105.5q-192 0 -311 91t-140 288l268 30q8 -97 52.5 -145.5t138.5 -48.5q81 0 128.5 37.5t47.5 105.5q0 56 -35.5 94t-92.5 59t-126 39t-137.5 43.5t-125.5 62t-92.5 104t-35.5 161.5zM360 553
q0 -33 15.5 -59.5t39 -43.5t62.5 -33t74 -26t85.5 -25.5t86.5 -29.5q92 55 92 129q0 37 -20.5 64.5t-62 47t-83 32.5t-104 32.5t-105.5 36.5q-80 -53 -80 -125z" />
    <glyph glyph-name="dieresis" unicode="&#xa8;" horiz-adv-x="1024" 
d="M453 1391q0 -77 -50.5 -123.5t-130.5 -46.5q-83 0 -134.5 46.5t-51.5 123.5t52 124.5t134 47.5q80 0 130.5 -47.5t50.5 -124.5zM934 1391q0 -78 -49 -124t-131 -46q-83 0 -134 46.5t-51 123.5q0 78 51.5 125t133.5 47t131 -47t49 -125z" />
    <glyph glyph-name="copyright" unicode="&#xa9;" horiz-adv-x="1642" 
d="M1542 696q0 -212 -91 -376.5t-255 -254.5t-375 -90q-174 0 -312 53t-226.5 146.5t-134.5 219t-46 274.5q0 132 37 247t103.5 200.5t156.5 147t198.5 92.5t227.5 31q332 0 524.5 -187t192.5 -503zM825 137q256 0 400.5 146.5t144.5 400.5q0 260 -149.5 401.5t-395.5 141.5
q-157 0 -279.5 -64.5t-194.5 -192t-72 -300.5q0 -249 144.5 -391t401.5 -142zM1157 549q-10 -76 -45 -130.5t-84.5 -82t-97.5 -39.5t-99 -12q-188 0 -276 107.5t-88 291.5q0 178 98.5 287.5t274.5 109.5q128 0 215.5 -68.5t93.5 -205.5l-150 -16q-7 81 -48 118t-120 37
q-89 0 -142.5 -64t-53.5 -202q0 -73 17.5 -129.5t63 -94.5t115.5 -38q152 0 181 157z" />
    <glyph glyph-name="ordfeminine" unicode="&#xaa;" horiz-adv-x="813" 
d="M698 770q0 -37 17 -47.5t61 2.5l6 -135q-73 -27 -131 -27q-139 0 -164 96q-74 -98 -215 -98q-64 0 -110 18.5t-68 49.5t-31.5 60.5t-9.5 60.5q0 53 18.5 93.5t53 66t73.5 42t89.5 24.5t89.5 10.5t86 2.5v27q0 28 -2.5 44.5t-11 32.5t-27.5 23.5t-49 7.5q-44 0 -66.5 -22
t-30.5 -72l-204 37q40 225 319 225q155 0 231 -59.5t76 -188.5v-274zM465 860h-26t-29.5 -1.5t-33.5 -4t-29.5 -8.5t-27 -14t-17 -21.5t-7.5 -30.5q0 -61 74 -61q54 0 96 37v104z" />
    <glyph glyph-name="guillemotleft" unicode="&#xab;" horiz-adv-x="950" 
d="M76 526l182 310h250l-180 -301l172 -324h-248zM457 526l182 310h250l-180 -301l172 -324h-248z" />
    <glyph glyph-name="logicalnot" unicode="&#xac;" 
d="M739 543h-565v243h793v-438h-228v195z" />
    <glyph glyph-name="uni00AD" unicode="&#xad;" horiz-adv-x="636" 
d="M41 729h555v-264h-555v264z" />
    <glyph glyph-name="registered" unicode="&#xae;" horiz-adv-x="952" 
d="M870 971q0 -175 -110 -285.5t-287 -110.5q-186 0 -288.5 106.5t-102.5 272.5q0 180 113.5 289t281.5 109q182 0 287.5 -104t105.5 -277zM768 965q0 138 -81 214t-210 76q-125 0 -208 -80.5t-83 -216.5q0 -130 78.5 -207t212.5 -77q133 0 212 79t79 212zM561 782l-86 146
h-35v-146h-96v389h145q80 0 114 -31.5t34 -80.5q0 -77 -72 -103l105 -174h-109zM467 997q72 0 72 54q0 49 -62 49h-37v-103h27z" />
    <glyph glyph-name="overscore" unicode="&#xaf;" horiz-adv-x="1024" 
d="M193 1440h636v-209h-636v209z" />
    <glyph glyph-name="degree" unicode="&#xb0;" horiz-adv-x="733" 
d="M371 1053q-109 0 -176.5 64.5t-67.5 170.5q0 112 70.5 179t173.5 67q102 0 170.5 -66t68.5 -174t-66.5 -174.5t-172.5 -66.5zM371 1188q42 0 70 30.5t28 75.5q0 47 -28 76t-70 29q-43 0 -73 -30.5t-30 -80.5q0 -43 29.5 -71.5t73.5 -28.5z" />
    <glyph glyph-name="plusminus" unicode="&#xb1;" 
d="M186 244h793v-244h-793v244zM459 541h-273v243h273v285h246v-285h274v-243h-274v-246h-246v246z" />
    <glyph glyph-name="uni00B2" unicode="&#xb2;" horiz-adv-x="829" 
d="M416 1657q164 0 243.5 -66t79.5 -180q0 -54 -14.5 -99.5t-51.5 -93.5t-84.5 -93.5t-127.5 -112.5l-66 -68v-8h359v-221h-670v221l199 199q108 108 146 160t38 98q0 69 -70 69q-87 0 -102 -116l-234 30q10 94 61.5 159t126.5 93.5t167 28.5z" />
    <glyph glyph-name="uni00B3" unicode="&#xb3;" horiz-adv-x="843" 
d="M279 997q6 -55 31.5 -78.5t74.5 -23.5q45 0 71.5 24.5t26.5 73.5q0 56 -25.5 79.5t-90.5 23.5h-103v176h64q72 0 107.5 32t35.5 89q0 73 -78 73q-79 0 -100 -96l-225 41q47 246 352 246q153 0 235 -57.5t82 -165.5q0 -154 -178 -222v-6q201 -41 201 -219
q0 -133 -103.5 -210t-267.5 -77q-63 0 -117 12.5t-103.5 40t-82 79t-41.5 122.5z" />
    <glyph glyph-name="acute" unicode="&#xb4;" horiz-adv-x="1024" 
d="M350 1190l154 332h330l-277 -351z" />
    <glyph glyph-name="uni00B5" unicode="&#xb5;" horiz-adv-x="1263" 
d="M997 -23q-97 0 -147 36.5t-62 107.5q-58 -62 -134 -100.5t-156 -38.5q-35 0 -80 10v-426h-299v1501h305v-678q0 -162 127 -162q50 0 108.5 23t102.5 61v756h309v-801q0 -46 13.5 -64t50.5 -18q19 0 63 13l8 -179q-93 -41 -209 -41z" />
    <glyph glyph-name="paragraph" unicode="&#xb6;" horiz-adv-x="1230" 
d="M870 -272v1562h-135v-1562h-215v772q-221 13 -331.5 136t-110.5 337q0 110 29.5 197.5t81.5 145.5t125.5 96t157.5 54.5t183 16.5h428v-1755h-213z" />
    <glyph glyph-name="middot" unicode="&#xb7;" horiz-adv-x="487" 
d="M420 633q0 -162 -174 -162q-176 0 -176 162q0 164 176 164q174 0 174 -164z" />
    <glyph glyph-name="cedilla" unicode="&#xb8;" horiz-adv-x="1024" 
d="M309 -332q58 -14 99 -14q102 0 102 76q0 44 -31 58.5t-100 16.5l33 256l147 -16l-18 -137q174 -31 174 -189q0 -109 -74 -166t-195 -57q-88 0 -167 29z" />
    <glyph glyph-name="uni00B9" unicode="&#xb9;" horiz-adv-x="671" 
d="M281 1354q-27 -14 -99 -25.5t-108 -11.5l-11 213q199 14 291 106h199v-925h-272v643z" />
    <glyph glyph-name="ordmasculine" unicode="&#xba;" horiz-adv-x="851" 
d="M416 561q-99 0 -170.5 27t-113.5 77t-61.5 114t-19.5 145q0 175 96 271.5t289 96.5q200 0 281 -100q84 -101 84 -252q0 -180 -94.5 -279.5t-290.5 -99.5zM426 729q65 0 94 45t29 158q0 107 -27.5 148.5t-91.5 41.5q-65 0 -96 -44.5t-31 -147.5q0 -107 28 -154t95 -47z
" />
    <glyph glyph-name="guillemotright" unicode="&#xbb;" horiz-adv-x="950" 
d="M496 522l-179 -311h-245l172 313l-181 312h250zM877 522l-179 -311h-245l172 313l-181 312h250z" />
    <glyph glyph-name="onequarter" unicode="&#xbc;" horiz-adv-x="2072" 
d="M1202 1483h283l-723 -1508h-285zM313 1214q-27 -14 -98.5 -25t-108.5 -11l-10 213q199 14 291 106h199v-926h-273v643zM1606 188h-426v183l360 555h326v-533h106v-205h-104v-188h-262v188zM1606 700l-201 -307h201v307z" />
    <glyph glyph-name="onehalf" unicode="&#xbd;" horiz-adv-x="2072" 
d="M1192 1483h283l-723 -1508h-285zM319 1214q-27 -14 -98 -25t-108 -11l-11 213q199 14 291 106h199v-926h-273v643zM1612 942q164 0 243.5 -66t79.5 -180q0 -54 -14.5 -99.5t-51.5 -93.5t-84.5 -93.5t-127.5 -112.5l-66 -68v-8h359v-221h-670v221l199 199q108 108 146 160
t38 98q0 70 -70 70q-87 0 -102 -117l-234 31q14 141 112.5 210.5t242.5 69.5z" />
    <glyph glyph-name="threequarters" unicode="&#xbe;" horiz-adv-x="2072" 
d="M1268 1483h282l-723 -1508h-284zM1630 188h-426v183l361 555h325v-533h107v-205h-105v-188h-262v188zM1630 700l-200 -307h200v307zM315 858q6 -55 32 -78.5t75 -23.5q45 0 71.5 24.5t26.5 73.5q0 56 -26 79t-91 23h-102v177h64q72 0 107.5 31.5t35.5 88.5q0 74 -78 74
q-79 0 -100 -96l-226 41q47 246 353 246q153 0 235 -58t82 -166q0 -153 -178 -221v-6q201 -41 201 -219q0 -133 -103.5 -210t-267.5 -77q-63 0 -117 12.5t-103.5 40t-82 79t-41.5 122.5z" />
    <glyph glyph-name="questiondown" unicode="&#xbf;" horiz-adv-x="1097" 
d="M791 287q-65 -5 -118.5 -15t-109.5 -31.5t-94 -52t-62 -80t-24 -112.5q0 -92 47.5 -135t130.5 -43q96 0 147 51t70 162l301 -47q-25 -198 -162.5 -310t-371.5 -112q-78 0 -147 13.5t-132.5 45.5t-109 81t-72.5 125t-27 173q0 375 426 475v187h308v-375zM459 926
q0 79 45.5 121.5t136.5 42.5q182 0 182 -164q0 -166 -182 -166t-182 166z" />
    <glyph glyph-name="Agrave" unicode="&#xc0;" horiz-adv-x="1452" 
d="M1423 0h-346l-123 360h-493l-115 -360h-326l486 1483h393zM696 1186l-182 -574h375l-184 574h-9zM369 1876h331l187 -287l-219 -16z" />
    <glyph glyph-name="Aacute" unicode="&#xc1;" horiz-adv-x="1452" 
d="M1423 0h-346l-123 360h-493l-115 -360h-326l486 1483h393zM696 1186l-182 -574h375l-184 574h-9zM528 1589l187 287h332l-299 -303z" />
    <glyph glyph-name="Acircumflex" unicode="&#xc2;" horiz-adv-x="1452" 
d="M1423 0h-346l-123 360h-493l-115 -360h-326l486 1483h393zM696 1186l-182 -574h375l-184 574h-9zM559 1573l-209 14l219 291h287l209 -291l-205 -12l-147 147z" />
    <glyph glyph-name="Atilde" unicode="&#xc3;" horiz-adv-x="1452" 
d="M1423 0h-346l-123 360h-493l-115 -360h-326l486 1483h393zM696 1186l-182 -574h375l-184 574h-9zM555 1905q57 0 113 -22t104 -44t86 -22q35 0 48.5 19.5t13.5 70.5l155 -9q18 -128 -31 -208t-155 -80q-60 0 -118.5 22.5t-107.5 45t-85 22.5q-35 0 -50 -21t-8 -75l-168 6
q-17 133 40 214t163 81z" />
    <glyph glyph-name="Adieresis" unicode="&#xc4;" horiz-adv-x="1452" 
d="M1423 0h-346l-123 360h-493l-115 -360h-326l486 1483h393zM696 1186l-182 -574h375l-184 574h-9zM649 1757q0 -77 -50 -123.5t-130 -46.5q-83 0 -134.5 46.5t-51.5 123.5t52 124.5t134 47.5q80 0 130 -47t50 -125zM1130 1757q0 -78 -49 -124t-131 -46t-133 46.5
t-51 123.5q0 78 51 125t133 47t131 -47t49 -125z" />
    <glyph glyph-name="Aring" unicode="&#xc5;" horiz-adv-x="1443" 
d="M958 1634q0 -100 -55 -161l520 -1473h-346l-123 360h-493l-115 -360h-326l480 1468q-56 62 -56 156q0 119 73 183.5t183 64.5q111 0 184.5 -62t73.5 -176zM696 1186l-182 -574h375l-184 574h-9zM700 1530q49 0 77 27t28 81q0 103 -105 103q-50 0 -80 -26.5t-30 -78.5
q0 -53 29 -79.5t81 -26.5z" />
    <glyph glyph-name="AE" unicode="&#xc6;" horiz-adv-x="2054" 
d="M1982 266v-266h-978v586h-365l-279 -586h-333l723 1483h1194v-266h-625v-371h588v-256h-588v-324h663zM915 1217l-184 -381h273v381h-89z" />
    <glyph glyph-name="Ccedilla" unicode="&#xc7;" horiz-adv-x="1423" 
d="M578 -332q58 -14 98 -14q102 0 102 76q0 44 -31 58.5t-100 16.5l23 175q-592 52 -592 745q0 176 47 320.5t136.5 247.5t225 159.5t306.5 56.5q261 0 416 -131.5t167 -400.5l-289 -25q-13 157 -84.5 227t-214.5 70q-185 0 -285 -125t-100 -383q0 -264 92 -384.5
t271 -120.5q150 0 222 68.5t99 197.5l285 -49q-16 -119 -70 -210.5t-132.5 -146t-166.5 -84t-186 -35.5l-8 -69q174 -31 174 -189q0 -109 -74 -166t-194 -57q-89 0 -168 29z" />
    <glyph glyph-name="Egrave" unicode="&#xc8;" horiz-adv-x="1193" 
d="M1128 266v-266h-976v1483h940v-264h-625v-349h588v-258h-588v-346h661zM289 1876h332l186 -287l-219 -16z" />
    <glyph glyph-name="Eacute" unicode="&#xc9;" horiz-adv-x="1193" 
d="M1128 266v-266h-976v1483h940v-264h-625v-349h588v-258h-588v-346h661zM449 1589l186 287h332l-299 -303z" />
    <glyph glyph-name="Ecircumflex" unicode="&#xca;" horiz-adv-x="1193" 
d="M1128 266v-266h-976v1483h940v-264h-625v-349h588v-258h-588v-346h661zM479 1573l-209 14l219 291h287l209 -291l-205 -12l-147 147z" />
    <glyph glyph-name="Edieresis" unicode="&#xcb;" horiz-adv-x="1193" 
d="M1128 266v-266h-976v1483h940v-264h-625v-349h588v-258h-588v-346h661zM569 1757q0 -77 -50 -123.5t-130 -46.5q-83 0 -134.5 46.5t-51.5 123.5t52 124.5t134 47.5q80 0 130 -47t50 -125zM1051 1757q0 -78 -49.5 -124t-131.5 -46t-133 46.5t-51 123.5q0 78 51 125t133 47
t131.5 -47t49.5 -125z" />
    <glyph glyph-name="Igrave" unicode="&#xcc;" horiz-adv-x="618" 
d="M152 0v1483h315v-1483h-315zM-31 1876h332l186 -287l-219 -16z" />
    <glyph glyph-name="Iacute" unicode="&#xcd;" horiz-adv-x="618" 
d="M152 0v1483h315v-1483h-315zM129 1589l186 287h332l-299 -303z" />
    <glyph glyph-name="Icircumflex" unicode="&#xce;" horiz-adv-x="618" 
d="M152 0v1483h315v-1483h-315zM160 1573l-209 14l219 291h287l209 -291l-205 -12l-148 147z" />
    <glyph glyph-name="Idieresis" unicode="&#xcf;" horiz-adv-x="618" 
d="M152 0v1483h315v-1483h-315zM250 1757q0 -77 -50 -123.5t-130 -46.5q-83 0 -135 46.5t-52 123.5t52.5 124.5t134.5 47.5q80 0 130 -47t50 -125zM731 1757q0 -78 -49 -124t-131 -46t-133 46.5t-51 123.5q0 78 51 125t133 47t131 -47t49 -125z" />
    <glyph glyph-name="Eth" unicode="&#xd0;" horiz-adv-x="1482" 
d="M152 625h-138v264h138v594h520q374 0 554.5 -188t180.5 -531q0 -173 -46 -311.5t-138.5 -240.5t-241 -157t-344.5 -55h-485v625zM623 254q247 0 353.5 125.5t106.5 368.5q0 138 -26.5 231.5t-82.5 148.5t-135 78t-194 23h-178v-340h350v-264h-350v-371h156z" />
    <glyph glyph-name="Ntilde" unicode="&#xd1;" horiz-adv-x="1525" 
d="M440 1047v-1047h-288v1483h376l562 -1051v1051h286v-1483h-364zM608 1905q57 0 113 -22t104 -44t86 -22q35 0 48.5 19.5t13.5 70.5l155 -9q18 -128 -31 -208t-155 -80q-60 0 -118.5 22.5t-107.5 45t-85 22.5q-35 0 -50 -21t-8 -75l-167 6q-17 133 39.5 214t162.5 81z" />
    <glyph glyph-name="Ograve" unicode="&#xd2;" horiz-adv-x="1556" 
d="M768 -25q-145 0 -260.5 37t-195 103.5t-133 162t-77.5 209t-24 248.5q0 167 46.5 307.5t135 245t227 163t314.5 58.5q175 0 308 -58t213 -161.5t119.5 -235.5t39.5 -290q0 -181 -44 -325.5t-131 -248.5t-223.5 -159.5t-314.5 -55.5zM780 242q176 0 275.5 120t99.5 383
q0 251 -93 374.5t-267 123.5q-185 0 -288.5 -125.5t-103.5 -376.5q0 -257 98.5 -378t278.5 -121zM459 1876h332l186 -287l-219 -16z" />
    <glyph glyph-name="Oacute" unicode="&#xd3;" horiz-adv-x="1556" 
d="M768 -25q-145 0 -260.5 37t-195 103.5t-133 162t-77.5 209t-24 248.5q0 167 46.5 307.5t135 245t227 163t314.5 58.5q175 0 308 -58t213 -161.5t119.5 -235.5t39.5 -290q0 -181 -44 -325.5t-131 -248.5t-223.5 -159.5t-314.5 -55.5zM780 242q176 0 275.5 120t99.5 383
q0 251 -93 374.5t-267 123.5q-185 0 -288.5 -125.5t-103.5 -376.5q0 -257 98.5 -378t278.5 -121zM618 1589l187 287h332l-299 -303z" />
    <glyph glyph-name="Ocircumflex" unicode="&#xd4;" horiz-adv-x="1556" 
d="M768 -25q-145 0 -260.5 37t-195 103.5t-133 162t-77.5 209t-24 248.5q0 167 46.5 307.5t135 245t227 163t314.5 58.5q175 0 308 -58t213 -161.5t119.5 -235.5t39.5 -290q0 -181 -44 -325.5t-131 -248.5t-223.5 -159.5t-314.5 -55.5zM780 242q176 0 275.5 120t99.5 383
q0 251 -93 374.5t-267 123.5q-185 0 -288.5 -125.5t-103.5 -376.5q0 -257 98.5 -378t278.5 -121zM649 1573l-209 14l219 291h287l209 -291l-205 -12l-147 147z" />
    <glyph glyph-name="Otilde" unicode="&#xd5;" horiz-adv-x="1556" 
d="M768 -25q-145 0 -260.5 37t-195 103.5t-133 162t-77.5 209t-24 248.5q0 167 46.5 307.5t135 245t227 163t314.5 58.5q175 0 308 -58t213 -161.5t119.5 -235.5t39.5 -290q0 -181 -44 -325.5t-131 -248.5t-223.5 -159.5t-314.5 -55.5zM780 242q176 0 275.5 120t99.5 383
q0 251 -93 374.5t-267 123.5q-185 0 -288.5 -125.5t-103.5 -376.5q0 -257 98.5 -378t278.5 -121zM645 1905q57 0 113 -22t104 -44t86 -22q35 0 48.5 19.5t13.5 70.5l155 -9q18 -128 -31 -208t-155 -80q-60 0 -118.5 22.5t-107.5 45t-85 22.5q-35 0 -50 -21t-8 -75l-168 6
q-17 133 40 214t163 81z" />
    <glyph glyph-name="Odieresis" unicode="&#xd6;" horiz-adv-x="1556" 
d="M768 -25q-145 0 -260.5 37t-195 103.5t-133 162t-77.5 209t-24 248.5q0 167 46.5 307.5t135 245t227 163t314.5 58.5q175 0 308 -58t213 -161.5t119.5 -235.5t39.5 -290q0 -181 -44 -325.5t-131 -248.5t-223.5 -159.5t-314.5 -55.5zM780 242q176 0 275.5 120t99.5 383
q0 251 -93 374.5t-267 123.5q-185 0 -288.5 -125.5t-103.5 -376.5q0 -257 98.5 -378t278.5 -121zM739 1757q0 -77 -50 -123.5t-130 -46.5q-83 0 -134.5 46.5t-51.5 123.5t52 124.5t134 47.5q80 0 130 -47t50 -125zM1221 1757q0 -78 -49.5 -124t-131.5 -46t-133 46.5
t-51 123.5q0 78 51 125t133 47t131.5 -47t49.5 -125z" />
    <glyph glyph-name="multiply" unicode="&#xd7;" 
d="M381 279l-172 178l203 200l-203 203l172 178l203 -202l202 202l172 -178l-202 -203l202 -200l-172 -178l-202 202z" />
    <glyph glyph-name="Oslash" unicode="&#xd8;" horiz-adv-x="1556" 
d="M768 -25q-76 0 -156 13l-55 -135h-293l94 229q-280 185 -280 653q0 167 46.5 307.5t135 245t227 163t314.5 58.5q79 0 147 -12l56 129h290l-94 -225q142 -95 211.5 -261t69.5 -376q0 -181 -44 -325.5t-131 -248.5t-223.5 -159.5t-314.5 -55.5zM403 741q0 -226 82 -358
l357 856q-28 4 -47 4q-185 0 -288.5 -125.5t-103.5 -376.5zM780 242q176 0 275.5 120t99.5 383q0 226 -80 355l-356 -856q23 -2 61 -2z" />
    <glyph glyph-name="Ugrave" unicode="&#xd9;" horiz-adv-x="1449" 
d="M729 240q154 0 212 77.5t58 262.5v903h316v-948q0 -286 -155 -423t-443 -137q-305 0 -444.5 137.5t-139.5 430.5v940h318v-897q0 -182 60 -264t218 -82zM383 1876h332l186 -287l-219 -16z" />
    <glyph glyph-name="Uacute" unicode="&#xda;" horiz-adv-x="1449" 
d="M729 240q154 0 212 77.5t58 262.5v903h316v-948q0 -286 -155 -423t-443 -137q-305 0 -444.5 137.5t-139.5 430.5v940h318v-897q0 -182 60 -264t218 -82zM559 1589l186 287h332l-299 -303z" />
    <glyph glyph-name="Ucircumflex" unicode="&#xdb;" horiz-adv-x="1449" 
d="M729 240q154 0 212 77.5t58 262.5v903h316v-948q0 -286 -155 -423t-443 -137q-305 0 -444.5 137.5t-139.5 430.5v940h318v-897q0 -182 60 -264t218 -82zM573 1573l-208 14l219 291h286l209 -291l-205 -12l-147 147z" />
    <glyph glyph-name="Udieresis" unicode="&#xdc;" horiz-adv-x="1449" 
d="M729 240q154 0 212 77.5t58 262.5v903h316v-948q0 -286 -155 -423t-443 -137q-305 0 -444.5 137.5t-139.5 430.5v940h318v-897q0 -182 60 -264t218 -82zM664 1757q0 -77 -50.5 -123.5t-130.5 -46.5q-83 0 -134.5 46.5t-51.5 123.5t52 124.5t134 47.5q80 0 130.5 -47.5
t50.5 -124.5zM1145 1757q0 -78 -49 -124t-131 -46q-83 0 -134 46.5t-51 123.5q0 78 51.5 125t133.5 47t131 -47t49 -125z" />
    <glyph glyph-name="Yacute" unicode="&#xdd;" horiz-adv-x="1241" 
d="M477 0v555l-514 928h346l326 -635h10l313 635h320l-483 -924v-559h-318zM451 1589l186 287h332l-299 -303z" />
    <glyph glyph-name="Thorn" unicode="&#xde;" horiz-adv-x="1271" 
d="M152 0v1483h313v-238h248q109 0 195.5 -26t141.5 -68.5t91 -102t50.5 -122.5t14.5 -133q0 -531 -579 -531h-162v-262h-313zM592 516q53 0 93 5.5t79 21.5t64 43.5t40 74t15 109.5q0 130 -76 176q-74 45 -191 45h-151v-475h127z" />
    <glyph glyph-name="germandbls" unicode="&#xdf;" horiz-adv-x="1329" 
d="M117 1051q0 115 27 205t75 149t117 97t148.5 54.5t174.5 16.5q239 0 371.5 -102.5t132.5 -290.5q0 -73 -21 -134t-55.5 -101.5t-71.5 -67t-77 -41.5v-7q57 -12 101.5 -29t89.5 -48t74.5 -73.5t48 -108.5t18.5 -150q0 -90 -26.5 -168.5t-78.5 -141t-138.5 -99
t-197.5 -36.5q-240 0 -354 148l117 188q90 -108 199 -108q167 0 167 237q0 71 -21.5 120.5t-61.5 75.5t-87 37t-108 11h-72v221h35q211 0 211 228q0 113 -54 166t-151 53q-53 0 -91.5 -12t-69.5 -42t-46.5 -86.5t-15.5 -140.5v-1071h-309v1051z" />
    <glyph glyph-name="agrave" unicode="&#xe0;" horiz-adv-x="1142" 
d="M985 266q0 -44 13.5 -63t50.5 -19q19 0 63 13l8 -179q-34 -15 -92 -28t-104 -13q-95 0 -148.5 31.5t-70.5 104.5q-107 -138 -318 -138q-77 0 -135.5 20t-92 50t-54.5 70t-28 75t-7 70q0 68 20 123.5t53 94t82.5 67t101 45t115.5 26.5t120 13.5t120 3.5v39q0 86 -25 141
q-24 53 -127 53q-73 0 -108 -33.5t-53 -113.5l-263 51q26 158 133.5 239t317.5 81q217 0 322.5 -89.5t105.5 -287.5v-447zM635 453q-254 0 -254 -142q0 -116 125 -116q52 0 101.5 21t76.5 48v189h-49zM567 1522l152 -332l-207 -19l-276 351h331z" />
    <glyph glyph-name="aacute" unicode="&#xe1;" horiz-adv-x="1142" 
d="M985 266q0 -44 13.5 -63t50.5 -19q19 0 63 13l8 -179q-34 -15 -92 -28t-104 -13q-95 0 -148.5 31.5t-70.5 104.5q-107 -138 -318 -138q-77 0 -135.5 20t-92 50t-54.5 70t-28 75t-7 70q0 68 20 123.5t53 94t82.5 67t101 45t115.5 26.5t120 13.5t120 3.5v39q0 86 -25 141
q-24 53 -127 53q-73 0 -108 -33.5t-53 -113.5l-263 51q26 158 133.5 239t317.5 81q217 0 322.5 -89.5t105.5 -287.5v-447zM635 453q-254 0 -254 -142q0 -116 125 -116q52 0 101.5 21t76.5 48v189h-49zM391 1190l154 332h329l-276 -351z" />
    <glyph glyph-name="acircumflex" unicode="&#xe2;" horiz-adv-x="1142" 
d="M985 266q0 -44 13.5 -63t50.5 -19q19 0 63 13l8 -179q-34 -15 -92 -28t-104 -13q-95 0 -148.5 31.5t-70.5 104.5q-107 -138 -318 -138q-77 0 -135.5 20t-92 50t-54.5 70t-28 75t-7 70q0 68 20 123.5t53 94t82.5 67t101 45t115.5 26.5t120 13.5t120 3.5v39q0 86 -25 141
q-24 53 -127 53q-73 0 -108 -33.5t-53 -113.5l-263 51q26 158 133.5 239t317.5 81q217 0 322.5 -89.5t105.5 -287.5v-447zM635 453q-254 0 -254 -142q0 -116 125 -116q52 0 101.5 21t76.5 48v189h-49zM555 1372l-156 -194l-206 12l215 336h294l207 -336l-204 -10z" />
    <glyph glyph-name="atilde" unicode="&#xe3;" horiz-adv-x="1142" 
d="M985 266q0 -44 13.5 -63t50.5 -19q19 0 63 13l8 -179q-34 -15 -92 -28t-104 -13q-95 0 -148.5 31.5t-70.5 104.5q-107 -138 -318 -138q-77 0 -135.5 20t-92 50t-54.5 70t-28 75t-7 70q0 68 20 123.5t53 94t82.5 67t101 45t115.5 26.5t120 13.5t120 3.5v39q0 86 -25 141
q-24 53 -127 53q-73 0 -108 -33.5t-53 -113.5l-263 51q26 158 133.5 239t317.5 81q217 0 322.5 -89.5t105.5 -287.5v-447zM635 453q-254 0 -254 -142q0 -116 125 -116q52 0 101.5 21t76.5 48v189h-49zM395 1499q57 0 113 -22.5t104 -45t86 -22.5q35 0 48.5 19.5t13.5 70.5
l155 -8q18 -128 -31 -208.5t-155 -80.5q-60 0 -118.5 22.5t-107.5 45t-85 22.5q-35 0 -50 -21t-8 -75l-167 6q-17 134 40 215.5t162 81.5z" />
    <glyph glyph-name="adieresis" unicode="&#xe4;" horiz-adv-x="1142" 
d="M985 266q0 -44 13.5 -63t50.5 -19q19 0 63 13l8 -179q-34 -15 -92 -28t-104 -13q-95 0 -148.5 31.5t-70.5 104.5q-107 -138 -318 -138q-77 0 -135.5 20t-92 50t-54.5 70t-28 75t-7 70q0 68 20 123.5t53 94t82.5 67t101 45t115.5 26.5t120 13.5t120 3.5v39q0 86 -25 141
q-24 53 -127 53q-73 0 -108 -33.5t-53 -113.5l-263 51q26 158 133.5 239t317.5 81q217 0 322.5 -89.5t105.5 -287.5v-447zM635 453q-254 0 -254 -142q0 -116 125 -116q52 0 101.5 21t76.5 48v189h-49zM494 1391q0 -77 -50.5 -123.5t-130.5 -46.5q-83 0 -134.5 46.5
t-51.5 123.5t52 124.5t134 47.5q80 0 130.5 -47.5t50.5 -124.5zM975 1391q0 -78 -49 -124t-131 -46q-83 0 -134 46.5t-51 123.5q0 78 51.5 125t133.5 47t131 -47t49 -125z" />
    <glyph glyph-name="aring" unicode="&#xe5;" horiz-adv-x="1142" 
d="M985 266q0 -44 13.5 -63t50.5 -19q19 0 63 13l8 -179q-34 -15 -92 -28t-104 -13q-95 0 -148.5 31.5t-70.5 104.5q-107 -138 -318 -138q-77 0 -135.5 20t-92 50t-54.5 70t-28 75t-7 70q0 68 20 123.5t53 94t82.5 67t101 45t115.5 26.5t120 13.5t120 3.5v39q0 86 -25 141
q-24 53 -127 53q-73 0 -108 -33.5t-53 -113.5l-263 51q26 158 133.5 239t317.5 81q217 0 322.5 -89.5t105.5 -287.5v-447zM635 453q-254 0 -254 -142q0 -116 125 -116q52 0 101.5 21t76.5 48v189h-49zM784 1382q0 -102 -63 -158.5t-168 -56.5q-102 0 -165.5 55t-63.5 152
q0 106 66 164.5t163 58.5q101 0 166 -56.5t65 -158.5zM553 1290q42 0 66 24t24 68q0 42 -24 64t-66 22q-40 0 -66 -23.5t-26 -64.5q0 -43 25 -66.5t67 -23.5z" />
    <glyph glyph-name="ae" unicode="&#xe6;" horiz-adv-x="1716" 
d="M1188 -25q-266 0 -397 160q-166 -160 -392 -160q-80 0 -141 20t-95.5 50t-56.5 70.5t-29 74.5t-7 70q0 70 19.5 125.5t51 93.5t80 66t98.5 44t116 25t121.5 12t125.5 3v43q0 86 -25 141q-24 53 -127 53q-73 0 -108 -33.5t-53 -113.5l-263 51q26 158 133.5 239t317.5 81
q110 0 183 -34.5t120 -111.5q54 67 147 106.5t199 39.5q222 0 331.5 -131.5t109.5 -362.5q0 -84 -7 -129h-649q1 -134 56 -193t159 -59q80 0 119.5 39t54.5 113l260 -64q-30 -152 -147.5 -240t-304.5 -88zM506 195q51 0 111 23t98 58q-28 84 -37 177h-43q-254 0 -254 -142
q0 -116 125 -116zM1327 653q4 113 -36.5 163t-119.5 50q-74 0 -124.5 -52t-51.5 -161h332z" />
    <glyph glyph-name="ccedilla" unicode="&#xe7;" horiz-adv-x="1114" 
d="M401 -332q58 -14 99 -14q102 0 102 76q0 44 -31 58.5t-100 16.5l23 177q-143 17 -239.5 90t-140.5 184.5t-44 259.5q0 275 142 424.5t402 149.5q194 0 313 -105.5t132 -298.5l-277 -41q-8 105 -47.5 156t-126.5 51q-47 0 -83 -13t-67 -45t-48 -93.5t-17 -151.5
q0 -178 53.5 -255t157.5 -77q90 0 137.5 47.5t61.5 147.5l260 -50q-25 -179 -137 -275t-285 -110l-8 -69q174 -31 174 -189q0 -109 -74 -166t-194 -57q-89 0 -168 29z" />
    <glyph glyph-name="egrave" unicode="&#xe8;" horiz-adv-x="1120" 
d="M592 -25q-115 0 -205.5 30.5t-149 81.5t-97 123t-54.5 151t-16 169q0 140 41 249t113 176t165 101t203 34q236 0 347.5 -130.5t111.5 -363.5q0 -94 -7 -139h-649q4 -127 58 -184.5t157 -57.5q80 0 119.5 39t54.5 113l260 -64q-30 -152 -147.5 -240t-304.5 -88zM731 653
q0 112 -39 162.5t-117 50.5q-74 0 -124.5 -52t-51.5 -161h332zM598 1522l152 -332l-207 -19l-277 351h332z" />
    <glyph glyph-name="eacute" unicode="&#xe9;" horiz-adv-x="1120" 
d="M592 -25q-115 0 -205.5 30.5t-149 81.5t-97 123t-54.5 151t-16 169q0 140 41 249t113 176t165 101t203 34q236 0 347.5 -130.5t111.5 -363.5q0 -94 -7 -139h-649q4 -127 58 -184.5t157 -57.5q80 0 119.5 39t54.5 113l260 -64q-30 -152 -147.5 -240t-304.5 -88zM731 653
q0 112 -39 162.5t-117 50.5q-74 0 -124.5 -52t-51.5 -161h332zM422 1190l153 332h330l-276 -351z" />
    <glyph glyph-name="ecircumflex" unicode="&#xea;" horiz-adv-x="1120" 
d="M592 -25q-115 0 -205.5 30.5t-149 81.5t-97 123t-54.5 151t-16 169q0 140 41 249t113 176t165 101t203 34q236 0 347.5 -130.5t111.5 -363.5q0 -94 -7 -139h-649q4 -127 58 -184.5t157 -57.5q80 0 119.5 39t54.5 113l260 -64q-30 -152 -147.5 -240t-304.5 -88zM731 653
q0 112 -39 162.5t-117 50.5q-74 0 -124.5 -52t-51.5 -161h332zM586 1372l-156 -194l-207 12l215 336h295l207 -336l-205 -10z" />
    <glyph glyph-name="edieresis" unicode="&#xeb;" horiz-adv-x="1120" 
d="M592 -25q-115 0 -205.5 30.5t-149 81.5t-97 123t-54.5 151t-16 169q0 140 41 249t113 176t165 101t203 34q236 0 347.5 -130.5t111.5 -363.5q0 -94 -7 -139h-649q4 -127 58 -184.5t157 -57.5q80 0 119.5 39t54.5 113l260 -64q-30 -152 -147.5 -240t-304.5 -88zM731 653
q0 112 -39 162.5t-117 50.5q-74 0 -124.5 -52t-51.5 -161h332zM524 1391q0 -77 -50 -123.5t-130 -46.5q-83 0 -134.5 46.5t-51.5 123.5t52 124.5t134 47.5q80 0 130 -47t50 -125zM1006 1391q0 -78 -49.5 -124t-131.5 -46t-133 46.5t-51 123.5q0 78 51 125t133 47t131.5 -47
t49.5 -125z" />
    <glyph glyph-name="igrave" unicode="&#xec;" horiz-adv-x="548" 
d="M123 0v1067h309v-1067h-309zM291 1522l151 -332l-206 -19l-277 351h332z" />
    <glyph glyph-name="iacute" unicode="&#xed;" horiz-adv-x="548" 
d="M123 0v1067h309v-1067h-309zM115 1190l153 332h330l-276 -351z" />
    <glyph glyph-name="icircumflex" unicode="&#xee;" horiz-adv-x="548" 
d="M123 0v1067h309v-1067h-309zM279 1372l-156 -194l-207 12l215 336h295l207 -336l-205 -10z" />
    <glyph glyph-name="idieresis" unicode="&#xef;" horiz-adv-x="548" 
d="M123 0v1067h309v-1067h-309zM217 1391q0 -77 -50 -123.5t-130 -46.5q-83 0 -135 46.5t-52 123.5t52.5 124.5t134.5 47.5q80 0 130 -47t50 -125zM698 1391q0 -78 -49 -124t-131 -46t-133 46.5t-51 123.5q0 78 51 125t133 47t131 -47t49 -125z" />
    <glyph glyph-name="eth" unicode="&#xf0;" horiz-adv-x="1204" 
d="M63 510q0 88 18 166t55.5 144t91.5 114t130 75t168 27q128 0 246 -55l8 10q-29 77 -89.5 143.5t-132 109.5t-142.5 69.5t-133 34.5l110 249q198 -36 340 -127l221 144l136 -193l-170 -108q213 -249 213 -660q0 -154 -30.5 -275t-94.5 -213t-172 -141t-256 -49
q-130 0 -229.5 39t-162 110.5t-94 168.5t-31.5 217zM387 516q0 -326 207 -326q117 0 171 107.5t54 327.5q0 55 -10 133q-88 67 -205 67q-106 0 -161.5 -70t-55.5 -239z" />
    <glyph glyph-name="ntilde" unicode="&#xf1;" horiz-adv-x="1193" 
d="M776 0v676q0 86 -34 125t-107 39q-58 0 -116 -25.5t-93 -58.5v-756h-309v1067h274l17 -106q143 129 340 129q175 0 256 -88t81 -273v-729h-309zM434 1499q57 0 113 -22.5t104 -45t86 -22.5q35 0 48.5 19.5t13.5 70.5l155 -8q18 -128 -31 -208.5t-155 -80.5
q-60 0 -118.5 22.5t-107.5 45t-85 22.5q-35 0 -50 -21t-8 -75l-168 6q-17 133 40 215t163 82z" />
    <glyph glyph-name="ograve" unicode="&#xf2;" horiz-adv-x="1202" 
d="M590 -25q-141 0 -243.5 41t-162 117t-87 173.5t-27.5 221.5q0 264 138 413t410 149q137 0 237.5 -39.5t160.5 -112.5t88.5 -169t28.5 -218q0 -271 -133 -423.5t-410 -152.5zM604 205q106 0 156.5 77.5t50.5 258.5q0 173 -48 244t-153 71q-108 0 -162.5 -75.5
t-54.5 -243.5q0 -178 49 -255t162 -77zM629 1522l151 -332l-207 -19l-276 351h332z" />
    <glyph glyph-name="oacute" unicode="&#xf3;" horiz-adv-x="1202" 
d="M590 -25q-141 0 -243.5 41t-162 117t-87 173.5t-27.5 221.5q0 264 138 413t410 149q137 0 237.5 -39.5t160.5 -112.5t88.5 -169t28.5 -218q0 -271 -133 -423.5t-410 -152.5zM604 205q106 0 156.5 77.5t50.5 258.5q0 173 -48 244t-153 71q-108 0 -162.5 -75.5
t-54.5 -243.5q0 -178 49 -255t162 -77zM453 1190l153 332h330l-277 -351z" />
    <glyph glyph-name="ocircumflex" unicode="&#xf4;" horiz-adv-x="1202" 
d="M590 -25q-141 0 -243.5 41t-162 117t-87 173.5t-27.5 221.5q0 264 138 413t410 149q137 0 237.5 -39.5t160.5 -112.5t88.5 -169t28.5 -218q0 -271 -133 -423.5t-410 -152.5zM604 205q106 0 156.5 77.5t50.5 258.5q0 173 -48 244t-153 71q-108 0 -162.5 -75.5
t-54.5 -243.5q0 -178 49 -255t162 -77zM616 1372l-155 -194l-207 12l215 336h295l207 -336l-205 -10z" />
    <glyph glyph-name="otilde" unicode="&#xf5;" horiz-adv-x="1202" 
d="M590 -25q-141 0 -243.5 41t-162 117t-87 173.5t-27.5 221.5q0 264 138 413t410 149q137 0 237.5 -39.5t160.5 -112.5t88.5 -169t28.5 -218q0 -271 -133 -423.5t-410 -152.5zM604 205q106 0 156.5 77.5t50.5 258.5q0 173 -48 244t-153 71q-108 0 -162.5 -75.5
t-54.5 -243.5q0 -178 49 -255t162 -77zM457 1499q57 0 113 -22.5t104 -45t86 -22.5q35 0 48 19.5t13 70.5l156 -8q18 -128 -31 -208.5t-155 -80.5q-60 0 -119 22.5t-108 45t-85 22.5q-35 0 -49.5 -21t-7.5 -75l-168 6q-17 133 40 215t163 82z" />
    <glyph glyph-name="odieresis" unicode="&#xf6;" horiz-adv-x="1202" 
d="M590 -25q-141 0 -243.5 41t-162 117t-87 173.5t-27.5 221.5q0 264 138 413t410 149q137 0 237.5 -39.5t160.5 -112.5t88.5 -169t28.5 -218q0 -271 -133 -423.5t-410 -152.5zM604 205q106 0 156.5 77.5t50.5 258.5q0 173 -48 244t-153 71q-108 0 -162.5 -75.5
t-54.5 -243.5q0 -178 49 -255t162 -77zM555 1391q0 -77 -50 -123.5t-130 -46.5q-83 0 -135 46.5t-52 123.5t52.5 124.5t134.5 47.5q80 0 130 -47t50 -125zM1036 1391q0 -78 -49 -124t-131 -46t-133 46.5t-51 123.5q0 78 51 125t133 47t131 -47t49 -125z" />
    <glyph glyph-name="divide" unicode="&#xf7;" 
d="M739 317q0 -71 -40.5 -111t-120.5 -40q-81 0 -121.5 39t-40.5 112q0 69 41.5 110.5t120.5 41.5t120 -41.5t41 -110.5zM186 780h793v-245h-793v245zM739 997q0 -71 -40.5 -110t-120.5 -39q-162 0 -162 149q0 69 41.5 110.5t120.5 41.5t120 -41.5t41 -110.5z" />
    <glyph glyph-name="oslash" unicode="&#xf8;" horiz-adv-x="1202" 
d="M590 -25q-58 0 -133 11l-58 -133h-217l88 202q-200 132 -200 473q0 264 138 413t410 149q58 0 107 -9l53 119h215l-80 -180q220 -126 220 -469q0 -271 -133 -423.5t-410 -152.5zM604 205q106 0 156.5 77.5t50.5 258.5q0 119 -25 192l-231 -524q28 -4 49 -4zM393 537
q0 -107 15 -172l217 491h-15q-108 0 -162.5 -75.5t-54.5 -243.5z" />
    <glyph glyph-name="ugrave" unicode="&#xf9;" horiz-adv-x="1183" 
d="M422 1067v-674q0 -87 31 -126.5t104 -39.5q54 0 109.5 26t93.5 58v756h309v-1067h-266l-23 115q-59 -65 -146.5 -101.5t-193.5 -36.5q-327 0 -327 355v735h309zM604 1522l152 -332l-207 -19l-277 351h332z" />
    <glyph glyph-name="uacute" unicode="&#xfa;" horiz-adv-x="1183" 
d="M422 1067v-674q0 -87 31 -126.5t104 -39.5q54 0 109.5 26t93.5 58v756h309v-1067h-266l-23 115q-59 -65 -146.5 -101.5t-193.5 -36.5q-327 0 -327 355v735h309zM428 1190l154 332h329l-276 -351z" />
    <glyph glyph-name="ucircumflex" unicode="&#xfb;" horiz-adv-x="1183" 
d="M422 1067v-674q0 -87 31 -126.5t104 -39.5q54 0 109.5 26t93.5 58v756h309v-1067h-266l-23 115q-59 -65 -146.5 -101.5t-193.5 -36.5q-327 0 -327 355v735h309zM592 1372l-156 -194l-207 12l215 336h295l207 -336l-205 -10z" />
    <glyph glyph-name="udieresis" unicode="&#xfc;" horiz-adv-x="1183" 
d="M422 1067v-674q0 -87 31 -126.5t104 -39.5q54 0 109.5 26t93.5 58v756h309v-1067h-266l-23 115q-59 -65 -146.5 -101.5t-193.5 -36.5q-327 0 -327 355v735h309zM530 1391q0 -77 -50 -123.5t-130 -46.5q-83 0 -134.5 46.5t-51.5 123.5t52 124.5t134 47.5q80 0 130 -47
t50 -125zM1012 1391q0 -78 -49.5 -124t-131.5 -46t-133 46.5t-51 123.5q0 78 51 125t133 47t131.5 -47t49.5 -125z" />
    <glyph glyph-name="yacute" unicode="&#xfd;" horiz-adv-x="1077" 
d="M326 1067l223 -743h6l215 743h317q-219 -613 -423 -1171q-69 -194 -156.5 -273.5t-245.5 -79.5q-61 0 -128.5 13.5t-104.5 31.5l22 224q105 -33 162 -33q55 0 91.5 27t60.5 88l32 83l-405 1090h334zM377 1190l153 332h330l-276 -351z" />
    <glyph glyph-name="thorn" unicode="&#xfe;" horiz-adv-x="1212" 
d="M424 1546v-575q125 119 317 119q86 0 156 -29t125.5 -89.5t86 -166t30.5 -248.5q0 -153 -34 -268t-95 -182t-137 -99.5t-168 -32.5q-164 0 -283 103v-512h-301v1980h303zM428 295q29 -25 82 -48.5t104 -23.5q106 0 153.5 82.5t47.5 243.5q0 158 -46 226.5t-142 68.5
q-50 0 -104.5 -24.5t-94.5 -57.5v-467z" />
    <glyph glyph-name="ydieresis" unicode="&#xff;" horiz-adv-x="1077" 
d="M326 1067l223 -743h6l215 743h317q-219 -613 -423 -1171q-69 -194 -156.5 -273.5t-245.5 -79.5q-61 0 -128.5 13.5t-104.5 31.5l22 224q105 -33 162 -33q55 0 91.5 27t60.5 88l32 83l-405 1090h334zM479 1391q0 -77 -50 -123.5t-130 -46.5q-83 0 -134.5 46.5t-51.5 123.5
t52 124.5t134 47.5q80 0 130 -47t50 -125zM961 1391q0 -78 -49.5 -124t-131.5 -46t-133 46.5t-51 123.5q0 78 51 125t133 47t131.5 -47t49.5 -125z" />
    <glyph glyph-name="Amacron" unicode="&#x100;" horiz-adv-x="1452" 
d="M1423 0h-346l-123 360h-493l-115 -360h-326l486 1483h393zM696 1186l-182 -574h375l-184 574h-9zM383 1817h649v-211h-649v211z" />
    <glyph glyph-name="amacron" unicode="&#x101;" horiz-adv-x="1142" 
d="M985 266q0 -44 13.5 -63t50.5 -19q19 0 63 13l8 -179q-34 -15 -92 -28t-104 -13q-95 0 -148.5 31.5t-70.5 104.5q-107 -138 -318 -138q-77 0 -135.5 20t-92 50t-54.5 70t-28 75t-7 70q0 68 20 123.5t53 94t82.5 67t101 45t115.5 26.5t120 13.5t120 3.5v39q0 86 -25 141
q-24 53 -127 53q-73 0 -108 -33.5t-53 -113.5l-263 51q26 158 133.5 239t317.5 81q217 0 322.5 -89.5t105.5 -287.5v-447zM635 453q-254 0 -254 -142q0 -116 125 -116q52 0 101.5 21t76.5 48v189h-49zM233 1440h637v-209h-637v209z" />
    <glyph glyph-name="Abreve" unicode="&#x102;" horiz-adv-x="1452" 
d="M1423 0h-346l-123 360h-493l-115 -360h-326l486 1483h393zM696 1186l-182 -574h375l-184 574h-9zM719 1763q68 0 105 31t50 107l197 -13q-33 -313 -362 -313q-153 0 -241.5 76t-98.5 233l204 21q12 -74 47 -108t99 -34z" />
    <glyph glyph-name="abreve" unicode="&#x103;" horiz-adv-x="1142" 
d="M985 266q0 -44 13.5 -63t50.5 -19q19 0 63 13l8 -179q-34 -15 -92 -28t-104 -13q-95 0 -148.5 31.5t-70.5 104.5q-107 -138 -318 -138q-77 0 -135.5 20t-92 50t-54.5 70t-28 75t-7 70q0 68 20 123.5t53 94t82.5 67t101 45t115.5 26.5t120 13.5t120 3.5v39q0 86 -25 141
q-24 53 -127 53q-73 0 -108 -33.5t-53 -113.5l-263 51q26 158 133.5 239t317.5 81q217 0 322.5 -89.5t105.5 -287.5v-447zM635 453q-254 0 -254 -142q0 -116 125 -116q52 0 101.5 21t76.5 48v189h-49zM913 1495q-12 -168 -107.5 -249t-256.5 -81q-158 0 -247 79.5t-95 244.5
l205 22q10 -85 44.5 -121t102.5 -36q71 0 108.5 35t49.5 120z" />
    <glyph glyph-name="Aogonek" unicode="&#x104;" horiz-adv-x="1452" 
d="M1495 -285q-32 -98 -110 -152.5t-177 -54.5q-115 0 -176 53t-61 148q0 165 207 291h-93l-122 360h-494l-115 -360h-325l485 1483h393l525 -1483q-114 -53 -173 -115.5t-59 -124.5q0 -67 64 -67q60 0 98 84zM705 1186l-183 -574h375l-184 574h-8z" />
    <glyph glyph-name="aogonek" unicode="&#x105;" horiz-adv-x="1142" 
d="M1169 -285q-32 -98 -109.5 -152.5t-176.5 -54.5q-116 0 -177 53t-61 148q0 141 174 281q-93 24 -114 123q-107 -138 -318 -138q-77 0 -135.5 20t-92 50t-54.5 70t-28 75t-7 70q0 68 20 123.5t53 94t82.5 67t101 45t115.5 26.5t120 13.5t120 3.5v39q0 86 -25 141
q-24 53 -127 53q-73 0 -108 -33.5t-53 -113.5l-263 51q26 158 133.5 239t317.5 81q217 0 322.5 -89.5t105.5 -287.5v-447q0 -44 13.5 -63t50.5 -19q19 0 63 13l8 -179q-94 -24 -170 -108.5t-76 -149.5q0 -67 64 -67q60 0 98 84zM635 453q-254 0 -254 -142q0 -116 125 -116
q52 0 101.5 21t76.5 48v189h-49z" />
    <glyph glyph-name="Cacute" unicode="&#x106;" horiz-adv-x="1423" 
d="M762 -25q-684 0 -684 750q0 176 47 320.5t136.5 247.5t225 159.5t306.5 56.5q261 0 416 -131.5t167 -400.5l-289 -25q-13 157 -84.5 227t-214.5 70q-185 0 -285 -125t-100 -383q0 -264 92 -384.5t271 -120.5q150 0 222 68.5t99 197.5l285 -49q-14 -103 -57 -185.5
t-102.5 -136t-135.5 -89.5t-154 -51.5t-161 -15.5zM610 1589l187 287h331l-299 -303z" />
    <glyph glyph-name="cacute" unicode="&#x107;" horiz-adv-x="1114" 
d="M584 -25q-131 0 -230 40t-161 113t-92.5 170.5t-30.5 217.5q0 275 142 424.5t402 149.5q194 0 313 -105.5t132 -298.5l-277 -41q-8 105 -47.5 156t-126.5 51q-47 0 -83 -13t-67 -45t-48 -93.5t-17 -151.5q0 -178 53.5 -255t157.5 -77q90 0 137.5 47.5t61.5 147.5l260 -50
q-27 -199 -160 -294q-134 -93 -319 -93zM451 1190l153 332h330l-277 -351z" />
    <glyph glyph-name="Ccircumflex" unicode="&#x108;" horiz-adv-x="1423" 
d="M762 -25q-684 0 -684 750q0 176 47 320.5t136.5 247.5t225 159.5t306.5 56.5q261 0 416 -131.5t167 -400.5l-289 -25q-13 157 -84.5 227t-214.5 70q-185 0 -285 -125t-100 -383q0 -264 92 -384.5t271 -120.5q150 0 222 68.5t99 197.5l285 -49q-14 -103 -57 -185.5
t-102.5 -136t-135.5 -89.5t-154 -51.5t-161 -15.5zM641 1573l-209 14l219 291h287l209 -291l-205 -12l-147 147z" />
    <glyph glyph-name="ccircumflex" unicode="&#x109;" horiz-adv-x="1114" 
d="M584 -25q-131 0 -230 40t-161 113t-92.5 170.5t-30.5 217.5q0 275 142 424.5t402 149.5q194 0 313 -105.5t132 -298.5l-277 -41q-8 105 -47.5 156t-126.5 51q-47 0 -83 -13t-67 -45t-48 -93.5t-17 -151.5q0 -178 53.5 -255t157.5 -77q90 0 137.5 47.5t61.5 147.5l260 -50
q-27 -199 -160 -294q-134 -93 -319 -93zM614 1372l-155 -194l-207 12l215 336h295l207 -336l-205 -10z" />
    <glyph glyph-name="Cdotaccent" unicode="&#x10a;" horiz-adv-x="1423" 
d="M762 -25q-684 0 -684 750q0 176 47 320.5t136.5 247.5t225 159.5t306.5 56.5q261 0 416 -131.5t167 -400.5l-289 -25q-13 157 -84.5 227t-214.5 70q-185 0 -285 -125t-100 -383q0 -264 92 -384.5t271 -120.5q150 0 222 68.5t99 197.5l285 -49q-14 -103 -57 -185.5
t-102.5 -136t-135.5 -89.5t-154 -51.5t-161 -15.5zM975 1778q0 -91 -48.5 -141t-138.5 -50q-88 0 -136 50t-48 141q0 90 48 137t136 47q91 0 139 -47t48 -137z" />
    <glyph glyph-name="cdotaccent" unicode="&#x10b;" horiz-adv-x="1114" 
d="M584 -25q-131 0 -230 40t-161 113t-92.5 170.5t-30.5 217.5q0 275 142 424.5t402 149.5q194 0 313 -105.5t132 -298.5l-277 -41q-8 105 -47.5 156t-126.5 51q-47 0 -83 -13t-67 -45t-48 -93.5t-17 -151.5q0 -178 53.5 -255t157.5 -77q90 0 137.5 47.5t61.5 147.5l260 -50
q-27 -199 -160 -294q-134 -93 -319 -93zM799 1395q0 -89 -48.5 -139t-138.5 -50q-87 0 -135.5 50.5t-48.5 138.5q0 90 48 138t136 48q91 0 139 -47.5t48 -138.5z" />
    <glyph glyph-name="Ccaron" unicode="&#x10c;" horiz-adv-x="1423" 
d="M762 -25q-684 0 -684 750q0 176 47 320.5t136.5 247.5t225 159.5t306.5 56.5q261 0 416 -131.5t167 -400.5l-289 -25q-13 157 -84.5 227t-214.5 70q-185 0 -285 -125t-100 -383q0 -264 92 -384.5t271 -120.5q150 0 222 68.5t99 197.5l285 -49q-14 -103 -57 -185.5
t-102.5 -136t-135.5 -89.5t-154 -51.5t-161 -15.5zM942 1882l209 -14l-219 -291h-287l-209 291l205 12l147 -147z" />
    <glyph glyph-name="ccaron" unicode="&#x10d;" horiz-adv-x="1114" 
d="M584 -25q-131 0 -230 40t-161 113t-92.5 170.5t-30.5 217.5q0 275 142 424.5t402 149.5q194 0 313 -105.5t132 -298.5l-277 -41q-8 105 -47.5 156t-126.5 51q-47 0 -83 -13t-67 -45t-48 -93.5t-17 -151.5q0 -178 53.5 -255t157.5 -77q90 0 137.5 47.5t61.5 147.5l260 -50
q-27 -199 -160 -294q-134 -93 -319 -93zM614 1327l156 193l203 -13l-215 -336h-295l-207 336l209 11z" />
    <glyph glyph-name="Dcaron" unicode="&#x10e;" horiz-adv-x="1482" 
d="M152 1483h520q374 0 554.5 -188t180.5 -531q0 -173 -46 -311.5t-138.5 -240.5t-241 -157t-344.5 -55h-485v1483zM623 254q247 0 353.5 125.5t106.5 368.5q0 138 -26.5 231.5t-82.5 148.5t-135 78t-194 23h-178v-975h156zM829 1882l209 -14l-219 -291h-287l-208 291
l204 12l148 -147z" />
    <glyph glyph-name="dcaron" unicode="&#x10f;" horiz-adv-x="1378" 
d="M836 0l-19 104l-6 2q-118 -131 -315 -131q-196 0 -308 130.5t-112 406.5q0 124 26 223.5t69 164.5t101.5 108.5t121.5 62.5t132 19q174 0 271 -91v547h297v-1546h-258zM786 784q-79 60 -172 60q-111 0 -163 -86.5t-52 -235.5q0 -303 205 -303q95 0 182 76v489zM1528 1546
l-135 -413l-215 18l67 395h283z" />
    <glyph glyph-name="Dcroat" unicode="&#x110;" horiz-adv-x="1482" 
d="M152 625h-138v264h138v594h520q374 0 554.5 -188t180.5 -531q0 -173 -46 -311.5t-138.5 -240.5t-241 -157t-344.5 -55h-485v625zM623 254q247 0 353.5 125.5t106.5 368.5q0 138 -26.5 231.5t-82.5 148.5t-135 78t-194 23h-178v-340h350v-264h-350v-371h156z" />
    <glyph glyph-name="dslash" unicode="&#x111;" horiz-adv-x="1210" 
d="M797 1386v160h297v-160h131v-206h-131v-1180h-258l-19 104l-6 2q-118 -131 -315 -131q-196 0 -308 130t-112 401q0 122 26 220t68.5 161.5t101.5 106.5t122 61t132 18q170 0 271 -90v197h-359v206h359zM786 768q-78 59 -172 59q-111 0 -163 -84t-52 -227q0 -297 205 -297
q95 0 182 76v473z" />
    <glyph glyph-name="Emacron" unicode="&#x112;" horiz-adv-x="1193" 
d="M1128 266v-266h-976v1483h940v-264h-625v-349h588v-258h-588v-346h661zM303 1817h649v-211h-649v211z" />
    <glyph glyph-name="emacron" unicode="&#x113;" horiz-adv-x="1120" 
d="M592 -25q-115 0 -205.5 30.5t-149 81.5t-97 123t-54.5 151t-16 169q0 140 41 249t113 176t165 101t203 34q236 0 347.5 -130.5t111.5 -363.5q0 -94 -7 -139h-649q4 -127 58 -184.5t157 -57.5q80 0 119.5 39t54.5 113l260 -64q-30 -152 -147.5 -240t-304.5 -88zM731 653
q0 112 -39 162.5t-117 50.5q-74 0 -124.5 -52t-51.5 -161h332zM264 1440h637v-209h-637v209z" />
    <glyph glyph-name="Ebreve" unicode="&#x114;" horiz-adv-x="1193" 
d="M1128 266v-266h-976v1483h940v-264h-625v-349h588v-258h-588v-346h661zM639 1763q68 0 105.5 31t50.5 107l196 -13q-33 -313 -362 -313q-153 0 -241.5 76t-98.5 233l205 21q12 -75 47 -108.5t98 -33.5z" />
    <glyph glyph-name="ebreve" unicode="&#x115;" horiz-adv-x="1120" 
d="M592 -25q-115 0 -205.5 30.5t-149 81.5t-97 123t-54.5 151t-16 169q0 140 41 249t113 176t165 101t203 34q236 0 347.5 -130.5t111.5 -363.5q0 -94 -7 -139h-649q4 -127 58 -184.5t157 -57.5q80 0 119.5 39t54.5 113l260 -64q-30 -152 -147.5 -240t-304.5 -88zM731 653
q0 112 -39 162.5t-117 50.5q-74 0 -124.5 -52t-51.5 -161h332zM944 1495q-12 -168 -107.5 -249t-256.5 -81q-158 0 -247 79.5t-95 244.5l204 22q10 -85 45 -121t103 -36q71 0 108.5 35t49.5 120z" />
    <glyph glyph-name="Edotaccent" unicode="&#x116;" horiz-adv-x="1193" 
d="M1128 266v-266h-976v1483h940v-264h-625v-349h588v-258h-588v-346h661zM813 1778q0 -91 -48 -141t-138 -50q-88 0 -136.5 50t-48.5 141q0 90 48 137t137 47q91 0 138.5 -46.5t47.5 -137.5z" />
    <glyph glyph-name="edotaccent" unicode="&#x117;" horiz-adv-x="1120" 
d="M592 -25q-115 0 -205.5 30.5t-149 81.5t-97 123t-54.5 151t-16 169q0 140 41 249t113 176t165 101t203 34q236 0 347.5 -130.5t111.5 -363.5q0 -94 -7 -139h-649q4 -127 58 -184.5t157 -57.5q80 0 119.5 39t54.5 113l260 -64q-30 -152 -147.5 -240t-304.5 -88zM731 653
q0 112 -39 162.5t-117 50.5q-74 0 -124.5 -52t-51.5 -161h332zM770 1395q0 -89 -48 -139t-138 -50q-87 0 -136 50.5t-49 138.5q0 90 48.5 138t136.5 48q91 0 138.5 -47.5t47.5 -138.5z" />
    <glyph glyph-name="Eogonek" unicode="&#x118;" horiz-adv-x="1193" 
d="M1161 -285q-32 -98 -110 -152.5t-177 -54.5q-115 0 -176 53t-61 148q0 152 188 291h-673v1483h940v-264h-625v-349h588v-258h-588v-346h661v-266h-102q-84 -81 -122 -133t-38 -107q0 -67 64 -67q60 0 98 84z" />
    <glyph glyph-name="eogonek" unicode="&#x119;" horiz-adv-x="1120" 
d="M946 -285q-32 -98 -110 -152.5t-177 -54.5q-115 0 -176 53t-61 148q0 144 158 266q-112 2 -200.5 33t-145.5 82.5t-95 123t-53.5 149.5t-15.5 167q0 140 41 249t113 176t165 101t203 34q236 0 347.5 -130.5t111.5 -363.5q0 -94 -7 -139h-649q4 -127 58 -184.5t157 -57.5
q80 0 119.5 39t54.5 113l260 -64q-18 -90 -67 -156.5t-131 -123.5q-90 -65 -142.5 -134t-52.5 -129q0 -67 64 -67q60 0 98 84zM731 653q0 112 -39 162.5t-117 50.5q-74 0 -124.5 -52t-51.5 -161h332z" />
    <glyph glyph-name="Ecaron" unicode="&#x11a;" horiz-adv-x="1193" 
d="M1128 266v-266h-976v1483h940v-264h-625v-349h588v-258h-588v-346h661zM780 1882l209 -14l-219 -291h-287l-209 291l205 12l148 -147z" />
    <glyph glyph-name="ecaron" unicode="&#x11b;" horiz-adv-x="1120" 
d="M592 -25q-115 0 -205.5 30.5t-149 81.5t-97 123t-54.5 151t-16 169q0 140 41 249t113 176t165 101t203 34q236 0 347.5 -130.5t111.5 -363.5q0 -94 -7 -139h-649q4 -127 58 -184.5t157 -57.5q80 0 119.5 39t54.5 113l260 -64q-30 -152 -147.5 -240t-304.5 -88zM731 653
q0 112 -39 162.5t-117 50.5q-74 0 -124.5 -52t-51.5 -161h332zM586 1327l155 193l203 -13l-215 -336h-295l-207 336l209 11z" />
    <glyph glyph-name="Gcircumflex" unicode="&#x11c;" horiz-adv-x="1513" 
d="M1130 182q-44 -98 -162 -152.5t-261 -54.5q-163 0 -285.5 55t-197 155.5t-110.5 233.5t-36 298q0 241 80 418t243.5 275.5t395.5 98.5q124 0 224.5 -29t179 -89.5t125.5 -161.5t56 -238l-295 -28q-6 64 -23 112.5t-50 89.5t-89 62.5t-134 21.5q-192 0 -288.5 -131
t-96.5 -373q0 -265 90 -390.5t284 -125.5q144 0 223.5 73.5t79.5 184.5v54h-270v231h582v-772h-230zM641 1573l-209 14l219 291h287l209 -291l-205 -12l-147 147z" />
    <glyph glyph-name="gcircumflex" unicode="&#x11d;" horiz-adv-x="1146" 
d="M561 1090q188 0 283 -66q79 162 196 162q37 0 86 -19v-202q-89 8 -176 -17q88 -95 88 -239q0 -176 -130.5 -279.5t-338.5 -103.5q-97 0 -178 22q-39 -39 -39 -65q0 -25 21.5 -38.5t75.5 -17.5l303 -18q179 -11 268.5 -81.5t89.5 -225.5q0 -96 -42.5 -167t-119.5 -113
t-175.5 -62.5t-219.5 -20.5q-143 0 -244.5 18t-159.5 52t-84 77.5t-26 100.5q0 74 51.5 125t140.5 68v8q-155 46 -155 180q0 73 40 124.5t126 113.5q-74 42 -115 116t-41 172q0 176 126.5 286t348.5 110zM756 711q0 161 -183 161q-88 0 -141 -39.5t-53 -121.5
q0 -164 190 -164q86 0 136.5 43.5t50.5 120.5zM809 -154q0 36 -27 58t-104 26l-297 19q-64 -44 -64 -103q0 -108 261 -108q74 0 122 8t78.5 33t30.5 67zM573 1372l-155 -194l-207 12l215 336h295l207 -336l-205 -10z" />
    <glyph glyph-name="Gbreve" unicode="&#x11e;" horiz-adv-x="1513" 
d="M1130 182q-44 -98 -162 -152.5t-261 -54.5q-163 0 -285.5 55t-197 155.5t-110.5 233.5t-36 298q0 241 80 418t243.5 275.5t395.5 98.5q124 0 224.5 -29t179 -89.5t125.5 -161.5t56 -238l-295 -28q-6 64 -23 112.5t-50 89.5t-89 62.5t-134 21.5q-192 0 -288.5 -131
t-96.5 -373q0 -265 90 -390.5t284 -125.5q144 0 223.5 73.5t79.5 184.5v54h-270v231h582v-772h-230zM801 1763q68 0 105 31t50 107l197 -13q-33 -313 -362 -313q-153 0 -241.5 76t-98.5 233l204 21q12 -74 47 -108t99 -34z" />
    <glyph glyph-name="gbreve" unicode="&#x11f;" horiz-adv-x="1146" 
d="M561 1090q188 0 283 -66q79 162 196 162q37 0 86 -19v-202q-89 8 -176 -17q88 -95 88 -239q0 -176 -130.5 -279.5t-338.5 -103.5q-97 0 -178 22q-39 -39 -39 -65q0 -25 21.5 -38.5t75.5 -17.5l303 -18q179 -11 268.5 -81.5t89.5 -225.5q0 -96 -42.5 -167t-119.5 -113
t-175.5 -62.5t-219.5 -20.5q-143 0 -244.5 18t-159.5 52t-84 77.5t-26 100.5q0 74 51.5 125t140.5 68v8q-155 46 -155 180q0 73 40 124.5t126 113.5q-74 42 -115 116t-41 172q0 176 126.5 286t348.5 110zM756 711q0 161 -183 161q-88 0 -141 -39.5t-53 -121.5
q0 -164 190 -164q86 0 136.5 43.5t50.5 120.5zM809 -154q0 36 -27 58t-104 26l-297 19q-64 -44 -64 -103q0 -108 261 -108q74 0 122 8t78.5 33t30.5 67zM932 1495q-12 -168 -108 -249t-257 -81q-158 0 -247 79.5t-95 244.5l205 22q10 -85 45 -121t103 -36q71 0 108 35
t49 120z" />
    <glyph glyph-name="Gdotaccent" unicode="&#x120;" horiz-adv-x="1513" 
d="M1130 182q-44 -98 -162 -152.5t-261 -54.5q-163 0 -285.5 55t-197 155.5t-110.5 233.5t-36 298q0 241 80 418t243.5 275.5t395.5 98.5q124 0 224.5 -29t179 -89.5t125.5 -161.5t56 -238l-295 -28q-6 64 -23 112.5t-50 89.5t-89 62.5t-134 21.5q-192 0 -288.5 -131
t-96.5 -373q0 -265 90 -390.5t284 -125.5q144 0 223.5 73.5t79.5 184.5v54h-270v231h582v-772h-230zM975 1778q0 -91 -48.5 -141t-138.5 -50q-88 0 -136 50t-48 141q0 90 48 137t136 47q91 0 139 -47t48 -137z" />
    <glyph glyph-name="gdotaccent" unicode="&#x121;" horiz-adv-x="1146" 
d="M561 1090q188 0 283 -66q79 162 196 162q37 0 86 -19v-202q-89 8 -176 -17q88 -95 88 -239q0 -176 -130.5 -279.5t-338.5 -103.5q-97 0 -178 22q-39 -39 -39 -65q0 -25 21.5 -38.5t75.5 -17.5l303 -18q179 -11 268.5 -81.5t89.5 -225.5q0 -96 -42.5 -167t-119.5 -113
t-175.5 -62.5t-219.5 -20.5q-143 0 -244.5 18t-159.5 52t-84 77.5t-26 100.5q0 74 51.5 125t140.5 68v8q-155 46 -155 180q0 73 40 124.5t126 113.5q-74 42 -115 116t-41 172q0 176 126.5 286t348.5 110zM756 711q0 161 -183 161q-88 0 -141 -39.5t-53 -121.5
q0 -164 190 -164q86 0 136.5 43.5t50.5 120.5zM809 -154q0 36 -27 58t-104 26l-297 19q-64 -44 -64 -103q0 -108 261 -108q74 0 122 8t78.5 33t30.5 67zM758 1395q0 -89 -48.5 -139t-138.5 -50q-87 0 -135.5 50.5t-48.5 138.5q0 90 48 138t136 48q91 0 139 -47.5t48 -138.5z
" />
    <glyph glyph-name="uni0122" unicode="&#x122;" horiz-adv-x="1513" 
d="M1130 182q-44 -98 -162 -152.5t-261 -54.5q-163 0 -285.5 55t-197 155.5t-110.5 233.5t-36 298q0 241 80 418t243.5 275.5t395.5 98.5q124 0 224.5 -29t179 -89.5t125.5 -161.5t56 -238l-295 -28q-6 64 -23 112.5t-50 89.5t-89 62.5t-134 21.5q-192 0 -288.5 -131
t-96.5 -373q0 -265 90 -390.5t284 -125.5q144 0 223.5 73.5t79.5 184.5v54h-270v231h582v-772h-230zM918 -139l-170 -422l-211 31l94 391h287z" />
    <glyph glyph-name="uni0123" unicode="&#x123;" horiz-adv-x="1146" 
d="M561 1090q188 0 283 -66q79 162 196 162q37 0 86 -19v-202q-89 8 -176 -17q88 -95 88 -239q0 -176 -130.5 -279.5t-338.5 -103.5q-97 0 -178 22q-39 -39 -39 -65q0 -25 21.5 -38.5t75.5 -17.5l303 -18q179 -11 268.5 -81.5t89.5 -225.5q0 -96 -42.5 -167t-119.5 -113
t-175.5 -62.5t-219.5 -20.5q-143 0 -244.5 18t-159.5 52t-84 77.5t-26 100.5q0 74 51.5 125t140.5 68v8q-155 46 -155 180q0 73 40 124.5t126 113.5q-74 42 -115 116t-41 172q0 176 126.5 286t348.5 110zM756 711q0 161 -183 161q-88 0 -141 -39.5t-53 -121.5
q0 -164 190 -164q86 0 136.5 43.5t50.5 120.5zM809 -154q0 36 -27 58t-104 26l-297 19q-64 -44 -64 -103q0 -108 261 -108q74 0 122 8t78.5 33t30.5 67zM403 1165l170 424l211 -30l-94 -394h-287z" />
    <glyph glyph-name="Hcircumflex" unicode="&#x124;" horiz-adv-x="1501" 
d="M1034 0v608h-567v-608h-315v1483h315v-602h567v602h318v-1483h-318zM602 1573l-209 14l219 291h287l209 -291l-205 -12l-147 147z" />
    <glyph glyph-name="hcircumflex" unicode="&#x125;" horiz-adv-x="1193" 
d="M776 0v674q0 86 -34 125t-107 39q-58 0 -116 -25.5t-93 -58.5v-754h-309v1546h307v-577q156 121 330 121q171 0 251 -88.5t80 -272.5v-729h-309zM121 1618l-209 14l219 291h287l209 -291l-205 -12l-148 147z" />
    <glyph glyph-name="Hbar" unicode="&#x126;" horiz-adv-x="1501" 
d="M1487 1290v-231h-135v-1059h-318v608h-567v-608h-315v1059h-138v231h138v193h315v-193h567v193h318v-193h135zM1034 1059h-567v-178h567v178z" />
    <glyph glyph-name="hbar" unicode="&#x127;" horiz-adv-x="1193" 
d="M117 1386v160h307v-160h358v-206h-358v-226q156 121 330 121q171 0 251 -88t80 -272v-715h-309v659q0 86 -34 125t-107 39q-58 0 -116 -25.5t-93 -58.5v-739h-309v1180h-119v206h119z" />
    <glyph glyph-name="Itilde" unicode="&#x128;" horiz-adv-x="618" 
d="M164 0v1483h315v-1483h-315zM168 1905q57 0 113 -22t104 -44t86 -22q35 0 48 19.5t13 70.5l156 -9q18 -128 -31 -208t-155 -80q-60 0 -119 22.5t-108 45t-85 22.5q-35 0 -49.5 -21t-7.5 -75l-168 6q-17 133 40 214t163 81z" />
    <glyph glyph-name="itilde" unicode="&#x129;" horiz-adv-x="548" 
d="M135 0v1067h309v-1067h-309zM131 1499q57 0 113 -22.5t104 -45t86 -22.5q35 0 48.5 19.5t13.5 70.5l155 -8q18 -128 -31 -208.5t-155 -80.5q-60 0 -118.5 22.5t-107.5 45t-85 22.5q-35 0 -50 -21t-8 -75l-168 6q-17 133 40 215t163 82z" />
    <glyph glyph-name="Imacron" unicode="&#x12a;" horiz-adv-x="618" 
d="M152 0v1483h315v-1483h-315zM-16 1817h649v-211h-649v211z" />
    <glyph glyph-name="imacron" unicode="&#x12b;" horiz-adv-x="548" 
d="M123 0v1067h309v-1067h-309zM-43 1440h637v-209h-637v209z" />
    <glyph glyph-name="Ibreve" unicode="&#x12c;" horiz-adv-x="618" 
d="M152 0v1483h315v-1483h-315zM319 1763q68 0 105.5 31t50.5 107l197 -13q-33 -313 -363 -313q-153 0 -241.5 76t-98.5 233l205 21q12 -75 47 -108.5t98 -33.5z" />
    <glyph glyph-name="ibreve" unicode="&#x12d;" horiz-adv-x="548" 
d="M123 0v1067h309v-1067h-309zM637 1495q-12 -168 -107.5 -249t-257.5 -81q-158 0 -247 79.5t-95 244.5l205 22q10 -85 45 -121t103 -36q71 0 108 35t49 120z" />
    <glyph glyph-name="Iogonek" unicode="&#x12e;" horiz-adv-x="618" 
d="M555 -285q-32 -98 -110 -152.5t-177 -54.5q-115 0 -176 53t-61 148q0 90 65 164q65 71 142 127h-86v1483h315v-1483q-109 -71 -158 -126.5t-49 -113.5q0 -67 64 -67q60 0 98 84z" />
    <glyph glyph-name="iogonek" unicode="&#x12f;" horiz-adv-x="548" 
d="M518 -285q-32 -98 -110 -152.5t-177 -54.5q-115 0 -176 53t-61 148q0 162 219 291h-90v1067h309v-1067q-111 -70 -160 -125.5t-49 -114.5q0 -67 64 -67q60 0 98 84zM465 1395q0 -88 -49.5 -138.5t-136.5 -50.5q-88 0 -137.5 50.5t-49.5 138.5q0 90 49 138t138 48
q88 0 137 -48t49 -138z" />
    <glyph glyph-name="Idot" unicode="&#x130;" horiz-adv-x="618" 
d="M152 0v1483h315v-1483h-315zM494 1778q0 -91 -48.5 -141t-138.5 -50q-88 0 -136 50t-48 141q0 90 48 137t136 47q91 0 139 -47t48 -137z" />
    <glyph glyph-name="dotlessi" unicode="&#x131;" horiz-adv-x="548" 
d="M123 0v1067h309v-1067h-309z" />
    <glyph glyph-name="IJ" unicode="&#x132;" horiz-adv-x="1703" 
d="M152 0v1483h315v-1483h-315zM1567 1483v-1067q0 -441 -467 -441q-207 0 -324.5 97.5t-126.5 322.5l303 45q4 -42 8.5 -69t15 -55.5t26 -45t41.5 -27t61 -10.5q75 0 110 40t35 135v1075h318z" />
    <glyph glyph-name="ij" unicode="&#x133;" horiz-adv-x="1093" 
d="M123 0v1067h309v-1067h-309zM465 1395q0 -88 -49.5 -138.5t-136.5 -50.5q-88 0 -137.5 50.5t-49.5 138.5q0 90 49 138t138 48q88 0 137 -48t49 -138zM600 -457q-77 0 -148.5 18t-103.5 40l23 231q90 -41 168 -41q62 0 97.5 35t35.5 125v1116h309v-1151q0 -191 -101 -282
t-280 -91zM1014 1401q0 -91 -48.5 -141t-138.5 -50q-88 0 -137 50t-49 141q0 90 48.5 137t137.5 47q91 0 139 -47t48 -137z" />
    <glyph glyph-name="Jcircumflex" unicode="&#x134;" horiz-adv-x="1085" 
d="M948 1483v-1067q0 -441 -467 -441q-100 0 -177.5 21.5t-138.5 69t-95.5 130.5t-38.5 199l303 45q5 -53 12 -84.5t22.5 -63t44 -45.5t72.5 -14q75 0 110.5 40t35.5 135v1075h317zM637 1573l-209 14l219 291h287l209 -291l-205 -12l-147 147z" />
    <glyph glyph-name="jcircumflex" unicode="&#x135;" horiz-adv-x="544" 
d="M51 -457q-77 0 -148.5 18t-103.5 40l23 231q90 -41 168 -41q62 0 97.5 35t35.5 125v1116h309v-1151q0 -191 -101 -282t-280 -91zM279 1372l-156 -194l-207 12l215 336h295l207 -336l-205 -10z" />
    <glyph glyph-name="uni0136" unicode="&#x136;" horiz-adv-x="1378" 
d="M1040 1483h336l-542 -617l534 -866h-369l-391 621l-143 -156v-465h-313v1483h313v-635zM874 -139l-169 -422l-211 31l94 391h286z" />
    <glyph glyph-name="uni0137" unicode="&#x137;" horiz-adv-x="1155" 
d="M782 1067h342l-354 -383l381 -684h-342l-277 487l-102 -100v-387h-309v1546h309v-852zM758 -139l-170 -422l-211 31l94 391h287z" />
    <glyph glyph-name="kgreenlandic" unicode="&#x138;" horiz-adv-x="1155" 
d="M782 1067h342l-354 -383l381 -684h-342l-277 487l-102 -100v-387h-309v1067h309v-373z" />
    <glyph glyph-name="Lacute" unicode="&#x139;" horiz-adv-x="1163" 
d="M1102 266v-266h-950v1483h315v-1217h635zM125 1589l186 287h332l-299 -303z" />
    <glyph glyph-name="lacute" unicode="&#x13a;" horiz-adv-x="548" 
d="M123 0v1546h309v-1546h-309zM84 1632l186 287h332l-299 -303z" />
    <glyph glyph-name="uni013B" unicode="&#x13b;" horiz-adv-x="1163" 
d="M1102 266v-266h-950v1483h315v-1217h635zM799 -139l-170 -422l-211 31l94 391h287z" />
    <glyph glyph-name="uni013C" unicode="&#x13c;" horiz-adv-x="548" 
d="M123 0v1546h309v-1546h-309zM444 -139l-170 -422l-211 31l95 391h286z" />
    <glyph glyph-name="Lcaron" unicode="&#x13d;" horiz-adv-x="1163" 
d="M1102 266v-266h-950v1483h315v-1217h635zM989 1483l-135 -414l-215 18l68 396h282z" />
    <glyph glyph-name="lcaron" unicode="&#x13e;" horiz-adv-x="720" 
d="M123 0v1546h309v-1546h-309zM866 1546l-135 -413l-215 18l68 395h282z" />
    <glyph glyph-name="Ldot" unicode="&#x13f;" horiz-adv-x="1163" 
d="M1102 266v-266h-950v1483h315v-1217h635zM1077 838q0 -91 -48 -141t-138 -50q-88 0 -136 50t-48 141q0 90 48 137t136 47q91 0 138.5 -46.5t47.5 -137.5z" />
    <glyph glyph-name="ldot" unicode="&#x140;" horiz-adv-x="815" 
d="M123 0v1546h309v-1546h-309zM866 821q0 -88 -48 -136t-134 -48t-134 48t-48 136q0 87 48 135t134 48t134 -48t48 -135z" />
    <glyph glyph-name="Lslash" unicode="&#x141;" horiz-adv-x="1163" 
d="M866 1065v-260l-399 -162v-377h635v-266h-950v537l-160 -64v258l160 64v688h315v-580z" />
    <glyph glyph-name="lslash" unicode="&#x142;" horiz-adv-x="632" 
d="M602 1096v-273l-133 -65v-758h-309v657l-129 -61v272l129 62v616h309v-516z" />
    <glyph glyph-name="Nacute" unicode="&#x143;" horiz-adv-x="1525" 
d="M440 1047v-1047h-288v1483h376l562 -1051v1051h286v-1483h-364zM633 1589l186 287h332l-299 -303z" />
    <glyph glyph-name="nacute" unicode="&#x144;" horiz-adv-x="1193" 
d="M776 0v676q0 86 -34 125t-107 39q-58 0 -116 -25.5t-93 -58.5v-756h-309v1067h274l17 -106q143 129 340 129q175 0 256 -88t81 -273v-729h-309zM467 1190l154 332h329l-276 -351z" />
    <glyph glyph-name="uni0145" unicode="&#x145;" horiz-adv-x="1525" 
d="M440 1047v-1047h-288v1483h376l562 -1051v1051h286v-1483h-364zM928 -139l-170 -422l-211 31l94 391h287z" />
    <glyph glyph-name="uni0146" unicode="&#x146;" horiz-adv-x="1193" 
d="M776 0v676q0 86 -34 125t-107 39q-58 0 -116 -25.5t-93 -58.5v-756h-309v1067h274l17 -106q143 129 340 129q175 0 256 -88t81 -273v-729h-309zM760 -139l-170 -422l-211 31l94 391h287z" />
    <glyph glyph-name="Ncaron" unicode="&#x147;" horiz-adv-x="1525" 
d="M440 1047v-1047h-288v1483h376l562 -1051v1051h286v-1483h-364zM940 1882l209 -14l-219 -291h-287l-209 291l205 12l147 -147z" />
    <glyph glyph-name="ncaron" unicode="&#x148;" horiz-adv-x="1193" 
d="M776 0v676q0 86 -34 125t-107 39q-58 0 -116 -25.5t-93 -58.5v-756h-309v1067h274l17 -106q143 129 340 129q175 0 256 -88t81 -273v-729h-309zM629 1327l155 193l203 -13l-215 -336h-295l-207 336l209 11z" />
    <glyph glyph-name="napostrophe" unicode="&#x149;" horiz-adv-x="1511" 
d="M66 1092l45 454h284l-121 -485zM1094 0v676q0 85 -34.5 124.5t-107.5 39.5q-58 0 -116 -25.5t-93 -58.5v-756h-309v1067h275l16 -106q143 129 340 129q176 0 257 -88t81 -273v-729h-309z" />
    <glyph glyph-name="Eng" unicode="&#x14a;" horiz-adv-x="1380" 
d="M848 1505q223 0 319.5 -116.5t96.5 -339.5v-1133q0 -97 -30 -170t-85 -116.5t-125.5 -65t-157.5 -21.5q-82 0 -160.5 18t-113.5 40l33 237q100 -41 184 -41q69 0 107 32.5t38 121.5v1053q0 123 -48.5 191.5t-164.5 68.5q-83 0 -162.5 -31t-117.5 -66v-1167h-309v1483h272
l16 -121q73 62 179.5 102.5t228.5 40.5z" />
    <glyph glyph-name="eng" unicode="&#x14b;" horiz-adv-x="1193" 
d="M705 -457q-77 0 -148.5 18t-103.5 40l22 231q90 -41 168 -41q62 0 97.5 35t35.5 125v725q0 86 -34 125t-107 39q-58 0 -116 -25.5t-93 -58.5v-756h-309v1067h274l17 -106q143 129 340 129q175 0 256 -88t81 -273v-813q0 -191 -101 -282t-279 -91z" />
    <glyph glyph-name="Omacron" unicode="&#x14c;" horiz-adv-x="1556" 
d="M768 -25q-145 0 -260.5 37t-195 103.5t-133 162t-77.5 209t-24 248.5q0 167 46.5 307.5t135 245t227 163t314.5 58.5q175 0 308 -58t213 -161.5t119.5 -235.5t39.5 -290q0 -181 -44 -325.5t-131 -248.5t-223.5 -159.5t-314.5 -55.5zM780 242q176 0 275.5 120t99.5 383
q0 251 -93 374.5t-267 123.5q-185 0 -288.5 -125.5t-103.5 -376.5q0 -257 98.5 -378t278.5 -121zM473 1817h649v-211h-649v211z" />
    <glyph glyph-name="omacron" unicode="&#x14d;" horiz-adv-x="1202" 
d="M590 -25q-141 0 -243.5 41t-162 117t-87 173.5t-27.5 221.5q0 264 138 413t410 149q137 0 237.5 -39.5t160.5 -112.5t88.5 -169t28.5 -218q0 -271 -133 -423.5t-410 -152.5zM604 205q106 0 156.5 77.5t50.5 258.5q0 173 -48 244t-153 71q-108 0 -162.5 -75.5
t-54.5 -243.5q0 -178 49 -255t162 -77zM295 1440h637v-209h-637v209z" />
    <glyph glyph-name="Obreve" unicode="&#x14e;" horiz-adv-x="1556" 
d="M768 -25q-145 0 -260.5 37t-195 103.5t-133 162t-77.5 209t-24 248.5q0 167 46.5 307.5t135 245t227 163t314.5 58.5q175 0 308 -58t213 -161.5t119.5 -235.5t39.5 -290q0 -181 -44 -325.5t-131 -248.5t-223.5 -159.5t-314.5 -55.5zM780 242q176 0 275.5 120t99.5 383
q0 251 -93 374.5t-267 123.5q-185 0 -288.5 -125.5t-103.5 -376.5q0 -257 98.5 -378t278.5 -121zM809 1763q68 0 105.5 31t50.5 107l196 -13q-33 -313 -362 -313q-153 0 -241.5 76t-98.5 233l205 21q12 -75 47 -108.5t98 -33.5z" />
    <glyph glyph-name="obreve" unicode="&#x14f;" horiz-adv-x="1202" 
d="M590 -25q-141 0 -243.5 41t-162 117t-87 173.5t-27.5 221.5q0 264 138 413t410 149q137 0 237.5 -39.5t160.5 -112.5t88.5 -169t28.5 -218q0 -271 -133 -423.5t-410 -152.5zM604 205q106 0 156.5 77.5t50.5 258.5q0 173 -48 244t-153 71q-108 0 -162.5 -75.5
t-54.5 -243.5q0 -178 49 -255t162 -77zM975 1495q-12 -168 -107.5 -249t-257.5 -81q-158 0 -247 79.5t-95 244.5l205 22q10 -85 45 -121t103 -36q71 0 108 35t49 120z" />
    <glyph glyph-name="Ohungarumlaut" unicode="&#x150;" horiz-adv-x="1556" 
d="M768 -25q-145 0 -260.5 37t-195 103.5t-133 162t-77.5 209t-24 248.5q0 167 46.5 307.5t135 245t227 163t314.5 58.5q175 0 308 -58t213 -161.5t119.5 -235.5t39.5 -290q0 -181 -44 -325.5t-131 -248.5t-223.5 -159.5t-314.5 -55.5zM780 242q176 0 275.5 120t99.5 383
q0 251 -93 374.5t-267 123.5q-185 0 -288.5 -125.5t-103.5 -376.5q0 -257 98.5 -378t278.5 -121zM514 1597l102 277h316l-219 -301zM825 1589l189 295h332l-314 -311z" />
    <glyph glyph-name="ohungarumlaut" unicode="&#x151;" horiz-adv-x="1202" 
d="M590 -25q-141 0 -243.5 41t-162 117t-87 173.5t-27.5 221.5q0 264 138 413t410 149q137 0 237.5 -39.5t160.5 -112.5t88.5 -169t28.5 -218q0 -271 -133 -423.5t-410 -152.5zM604 205q106 0 156.5 77.5t50.5 258.5q0 173 -48 244t-153 71q-108 0 -162.5 -75.5
t-54.5 -243.5q0 -178 49 -255t162 -77zM348 1196l90 326h316l-209 -351zM659 1190l175 340h331l-299 -359z" />
    <glyph glyph-name="OE" unicode="&#x152;" horiz-adv-x="2197" 
d="M1186 137q-69 -75 -181 -118.5t-237 -43.5q-145 0 -260.5 37t-195 103.5t-133 162t-77.5 209t-24 248.5q0 223 80.5 396.5t242.5 275.5t385 102q135 0 230 -39.5t170 -117.5v131h907v-264h-625v-349h588v-258h-588v-348h664v-264h-946v137zM780 240q172 0 273.5 120
t101.5 367q0 265 -90 390.5t-270 125.5q-185 0 -288.5 -125.5t-103.5 -376.5q0 -257 98.5 -379t278.5 -122z" />
    <glyph glyph-name="oe" unicode="&#x153;" horiz-adv-x="1841" 
d="M1317 -25q-245 0 -359 185q-126 -185 -385 -185q-132 0 -230 41t-157 116.5t-87.5 174t-28.5 221.5q0 259 137 408q139 154 391 154q134 0 222 -45t151 -134q58 82 150.5 130.5t207.5 48.5q226 0 334 -138q109 -136 109 -354q0 -96 -7 -141h-649q4 -127 58 -184.5
t157 -57.5q145 0 174 152l260 -64q-30 -152 -147.5 -240t-300.5 -88zM604 205q105 0 156 79t51 255q0 173 -48 245t-153 72q-108 0 -162.5 -75.5t-54.5 -243.5q0 -178 49 -255t162 -77zM1452 653q3 213 -156 213q-74 0 -124.5 -51.5t-51.5 -161.5h332z" />
    <glyph glyph-name="Racute" unicode="&#x154;" horiz-adv-x="1314" 
d="M961 0l-293 563h-203v-563h-313v1483h577q108 0 193 -22.5t140 -61t91.5 -92.5t52 -113.5t15.5 -128.5q0 -304 -256 -424l335 -641h-339zM627 811q112 0 188 49q80 50 80 174q0 104 -63 149.5t-193 45.5h-174v-418h162zM440 1589l187 287h331l-299 -303z" />
    <glyph glyph-name="racute" unicode="&#x155;" horiz-adv-x="804" 
d="M793 786q-103 10 -201 -15.5t-166 -80.5v-690h-309v1067h264l22 -168q132 191 336 191q27 0 54 -3v-301zM287 1190l153 332h330l-276 -351z" />
    <glyph glyph-name="uni0156" unicode="&#x156;" horiz-adv-x="1314" 
d="M961 0l-293 563h-203v-563h-313v1483h577q108 0 193 -22.5t140 -61t91.5 -92.5t52 -113.5t15.5 -128.5q0 -304 -256 -424l335 -641h-339zM627 811q112 0 188 49q80 50 80 174q0 104 -63 149.5t-193 45.5h-174v-418h162zM848 -139l-170 -422l-211 31l94 391h287z" />
    <glyph glyph-name="uni0157" unicode="&#x157;" horiz-adv-x="804" 
d="M793 786q-103 10 -201 -15.5t-166 -80.5v-690h-309v1067h264l22 -168q132 191 336 191q27 0 54 -3v-301zM436 -139l-170 -422l-211 31l95 391h286z" />
    <glyph glyph-name="Rcaron" unicode="&#x158;" horiz-adv-x="1314" 
d="M961 0l-293 563h-203v-563h-313v1483h577q108 0 193 -22.5t140 -61t91.5 -92.5t52 -113.5t15.5 -128.5q0 -304 -256 -424l335 -641h-339zM627 811q112 0 188 49q80 50 80 174q0 104 -63 149.5t-193 45.5h-174v-418h162zM772 1882l209 -14l-219 -291h-287l-209 291l205 12
l147 -147z" />
    <glyph glyph-name="rcaron" unicode="&#x159;" horiz-adv-x="804" 
d="M793 786q-103 10 -201 -15.5t-166 -80.5v-690h-309v1067h264l22 -168q132 191 336 191q27 0 54 -3v-301zM451 1327l155 193l203 -13l-215 -336h-295l-207 336l209 11z" />
    <glyph glyph-name="Sacute" unicode="&#x15a;" horiz-adv-x="1220" 
d="M614 1266q-110 0 -165.5 -42t-55.5 -116q0 -38 17.5 -69t41.5 -51.5t70 -40t79.5 -30.5t94.5 -28q47 -13 73 -21t71.5 -24t72.5 -29t65.5 -34.5t61.5 -43.5t49 -53t40.5 -65.5t24 -79t9.5 -95.5q0 -122 -46.5 -214.5t-127 -146.5t-179.5 -81t-214 -27q-540 0 -573 471
l286 43q8 -48 19 -83t33 -71t52.5 -58.5t79 -37t111.5 -14.5q109 0 177.5 43.5t68.5 139.5q0 27 -9 50.5t-21.5 40.5t-38.5 33t-45 26t-57.5 22t-60 18t-67.5 18q-169 46 -238 79q-175 81 -219 240q-16 58 -16 128q0 141 73.5 243.5t194 152.5t272.5 50q85 0 155 -11
t138 -40.5t116.5 -77t80.5 -125.5t39 -180l-289 -33q-8 111 -63.5 167.5t-180.5 56.5zM436 1589l187 287h331l-299 -303z" />
    <glyph glyph-name="sacute" unicode="&#x15b;" horiz-adv-x="1026" 
d="M498 -25q-200 0 -313 73.5t-140 209.5l250 86q11 -36 24 -61.5t36.5 -50.5t62 -38.5t90.5 -13.5q162 0 162 105q0 24 -10.5 42.5t-26 31t-44.5 22.5t-55.5 16.5t-68.5 14.5q-151 29 -215 59q-167 84 -170 272q0 112 62.5 192.5t161 117.5t220.5 37q345 0 426 -287
l-248 -74q-21 76 -62 116t-120 40q-72 0 -108.5 -28t-36.5 -75q0 -25 11.5 -43.5t26 -29.5t48.5 -21.5t57.5 -15.5t75.5 -15q39 -7 60 -11.5t58 -13.5t58 -17.5t52 -23t49 -30t39 -39t32.5 -50t19 -62t7.5 -76.5q0 -174 -131.5 -266.5t-339.5 -92.5zM354 1190l154 332h330
l-277 -351z" />
    <glyph glyph-name="Scircumflex" unicode="&#x15c;" horiz-adv-x="1220" 
d="M614 1266q-110 0 -165.5 -42t-55.5 -116q0 -38 17.5 -69t41.5 -51.5t70 -40t79.5 -30.5t94.5 -28q47 -13 73 -21t71.5 -24t72.5 -29t65.5 -34.5t61.5 -43.5t49 -53t40.5 -65.5t24 -79t9.5 -95.5q0 -122 -46.5 -214.5t-127 -146.5t-179.5 -81t-214 -27q-540 0 -573 471
l286 43q8 -48 19 -83t33 -71t52.5 -58.5t79 -37t111.5 -14.5q109 0 177.5 43.5t68.5 139.5q0 27 -9 50.5t-21.5 40.5t-38.5 33t-45 26t-57.5 22t-60 18t-67.5 18q-169 46 -238 79q-175 81 -219 240q-16 58 -16 128q0 141 73.5 243.5t194 152.5t272.5 50q85 0 155 -11
t138 -40.5t116.5 -77t80.5 -125.5t39 -180l-289 -33q-8 111 -63.5 167.5t-180.5 56.5zM467 1573l-209 14l219 291h287l209 -291l-205 -12l-147 147z" />
    <glyph glyph-name="scircumflex" unicode="&#x15d;" horiz-adv-x="1026" 
d="M498 -25q-200 0 -313 73.5t-140 209.5l250 86q11 -36 24 -61.5t36.5 -50.5t62 -38.5t90.5 -13.5q162 0 162 105q0 24 -10.5 42.5t-26 31t-44.5 22.5t-55.5 16.5t-68.5 14.5q-151 29 -215 59q-167 84 -170 272q0 112 62.5 192.5t161 117.5t220.5 37q345 0 426 -287
l-248 -74q-21 76 -62 116t-120 40q-72 0 -108.5 -28t-36.5 -75q0 -25 11.5 -43.5t26 -29.5t48.5 -21.5t57.5 -15.5t75.5 -15q39 -7 60 -11.5t58 -13.5t58 -17.5t52 -23t49 -30t39 -39t32.5 -50t19 -62t7.5 -76.5q0 -174 -131.5 -266.5t-339.5 -92.5zM518 1372l-156 -194
l-206 12l215 336h295l206 -336l-204 -10z" />
    <glyph glyph-name="Scedilla" unicode="&#x15e;" horiz-adv-x="1220" 
d="M432 -332q58 -14 98 -14q48 0 75.5 19.5t27.5 56.5q0 44 -31 58.5t-100 16.5l22 175q-470 31 -501 466l286 43q8 -48 19 -83t33 -71t52.5 -58.5t79 -37t111.5 -14.5q109 0 177.5 43.5t68.5 139.5q0 31 -10 57t-32.5 46t-46 35t-62.5 28.5t-70 22.5t-80 21
q-171 47 -242 80q-174 83 -215 244q-14 55 -14 121q0 141 73.5 243.5t194 152.5t272.5 50q85 0 155 -11t138 -40.5t116.5 -77t80.5 -125.5t39 -180l-289 -33q-8 111 -63.5 167.5t-180.5 56.5q-110 0 -165.5 -42t-55.5 -116q0 -38 17.5 -69t41.5 -51.5t70 -40t79.5 -30.5
t94.5 -28q58 -16 95 -27.5t91.5 -32.5t89.5 -42.5t74.5 -56t62.5 -73.5t38.5 -94t15.5 -119q0 -111 -39 -198.5t-108 -142t-155.5 -85t-188.5 -38.5l-8 -72q174 -31 174 -189q0 -109 -74 -166t-195 -57q-89 0 -168 29z" />
    <glyph glyph-name="scedilla" unicode="&#x15f;" horiz-adv-x="1026" 
d="M334 -332q58 -14 98 -14q48 0 75.5 19.5t27.5 56.5q0 44 -31.5 58.5t-100.5 16.5l23 175q-165 10 -259.5 82.5t-121.5 195.5l250 86q11 -36 24 -61.5t36.5 -50.5t62 -38.5t90.5 -13.5q162 0 162 103q0 56 -47 82t-158 47q-48 9 -80.5 15.5t-76.5 20t-73.5 29t-61 40.5
t-50.5 55.5t-31 73.5t-12 95q0 87 35.5 154.5t97.5 109.5t141 63.5t170 21.5q344 0 426 -287l-248 -74q-20 77 -63 116.5t-123 39.5q-70 0 -105.5 -27t-35.5 -76q0 -53 51 -78.5t168 -46.5q47 -8 79.5 -15.5t74.5 -20.5t71 -28.5t59.5 -40t49 -54t30 -71t11.5 -91.5
q0 -159 -109.5 -249.5t-286.5 -106.5l-8 -72q174 -31 174 -189q0 -109 -74 -166t-194 -57q-89 0 -168 29z" />
    <glyph glyph-name="Scaron" unicode="&#x160;" horiz-adv-x="1220" 
d="M614 1266q-110 0 -165.5 -42t-55.5 -116q0 -38 17.5 -69t41.5 -51.5t70 -40t79.5 -30.5t94.5 -28q47 -13 73 -21t71.5 -24t72.5 -29t65.5 -34.5t61.5 -43.5t49 -53t40.5 -65.5t24 -79t9.5 -95.5q0 -122 -46.5 -214.5t-127 -146.5t-179.5 -81t-214 -27q-540 0 -573 471
l286 43q8 -48 19 -83t33 -71t52.5 -58.5t79 -37t111.5 -14.5q109 0 177.5 43.5t68.5 139.5q0 27 -9 50.5t-21.5 40.5t-38.5 33t-45 26t-57.5 22t-60 18t-67.5 18q-169 46 -238 79q-175 81 -219 240q-16 58 -16 128q0 141 73.5 243.5t194 152.5t272.5 50q85 0 155 -11
t138 -40.5t116.5 -77t80.5 -125.5t39 -180l-289 -33q-8 111 -63.5 167.5t-180.5 56.5zM768 1882l209 -14l-219 -291h-287l-209 291l205 12l147 -147z" />
    <glyph glyph-name="scaron" unicode="&#x161;" horiz-adv-x="1026" 
d="M498 -25q-200 0 -313 73.5t-140 209.5l250 86q11 -36 24 -61.5t36.5 -50.5t62 -38.5t90.5 -13.5q162 0 162 105q0 24 -10.5 42.5t-26 31t-44.5 22.5t-55.5 16.5t-68.5 14.5q-151 29 -215 59q-167 84 -170 272q0 112 62.5 192.5t161 117.5t220.5 37q345 0 426 -287
l-248 -74q-21 76 -62 116t-120 40q-72 0 -108.5 -28t-36.5 -75q0 -25 11.5 -43.5t26 -29.5t48.5 -21.5t57.5 -15.5t75.5 -15q39 -7 60 -11.5t58 -13.5t58 -17.5t52 -23t49 -30t39 -39t32.5 -50t19 -62t7.5 -76.5q0 -174 -131.5 -266.5t-339.5 -92.5zM518 1327l156 193
l203 -13l-215 -336h-295l-207 336l209 11z" />
    <glyph glyph-name="uni0162" unicode="&#x162;" horiz-adv-x="1218" 
d="M440 -332q58 -14 99 -14q102 0 102 76q0 44 -31 58.5t-100 16.5l25 195h-82v1217h-437v266h1186v-266h-432v-1217h-86l-12 -92q174 -31 174 -189q0 -109 -74 -166t-194 -57q-89 0 -168 29z" />
    <glyph glyph-name="uni0163" unicode="&#x163;" horiz-adv-x="843" 
d="M313 -332q58 -14 99 -14q102 0 102 76q0 44 -31 58.5t-100 16.5l23 181q-117 23 -174.5 105.5t-57.5 230.5v520h-160v225h160v315l309 41v-356h283v-225h-283v-477q0 -73 27.5 -108.5t97.5 -35.5q45 0 94 14.5t82 34.5l43 -219q-40 -27 -114 -48.5t-160 -25.5l-8 -69
q174 -31 174 -189q0 -109 -74 -166t-194 -57q-89 0 -168 29z" />
    <glyph glyph-name="Tcaron" unicode="&#x164;" horiz-adv-x="1218" 
d="M453 1217h-437v266h1186v-266h-432v-1217h-317v1217zM760 1882l209 -14l-219 -291h-287l-209 291l205 12l147 -147z" />
    <glyph glyph-name="tcaron" unicode="&#x165;" horiz-adv-x="843" 
d="M827 51q-43 -29 -130 -52.5t-183 -23.5q-170 0 -255 83.5t-85 263.5v520h-160v225h160v315l309 41v-356h283v-225h-283v-477q0 -73 27.5 -108.5t97.5 -35.5q45 0 94 14.5t82 34.5zM926 1614l-135 -414l-216 19l68 395h283z" />
    <glyph glyph-name="Tbar" unicode="&#x166;" horiz-adv-x="1218" 
d="M453 604h-291v254h291v359h-437v266h1186v-266h-432v-359h287v-254h-287v-604h-317v604z" />
    <glyph glyph-name="tbar" unicode="&#x167;" horiz-adv-x="843" 
d="M827 51q-43 -29 -130 -52.5t-183 -23.5q-170 0 -255 83.5t-85 263.5v141h-160v217h160v162h-160v225h160v315l309 41v-356h283v-225h-283v-162h283v-217h-283v-98q0 -73 27.5 -108.5t97.5 -35.5q45 0 94 14.5t82 34.5z" />
    <glyph glyph-name="Utilde" unicode="&#x168;" horiz-adv-x="1449" 
d="M729 240q154 0 212 77.5t58 262.5v903h316v-948q0 -286 -155 -423t-443 -137q-305 0 -444.5 137.5t-139.5 430.5v940h318v-897q0 -182 60 -264t218 -82zM569 1905q57 0 113 -22t104 -44t86 -22q35 0 48.5 19.5t13.5 70.5l156 -9q18 -128 -31.5 -208t-155.5 -80
q-60 0 -118.5 22.5t-107.5 45t-85 22.5q-35 0 -49.5 -21t-7.5 -75l-168 6q-17 133 39.5 214t162.5 81z" />
    <glyph glyph-name="utilde" unicode="&#x169;" horiz-adv-x="1183" 
d="M422 1067v-674q0 -87 31 -126.5t104 -39.5q54 0 109.5 26t93.5 58v756h309v-1067h-266l-23 115q-59 -65 -146.5 -101.5t-193.5 -36.5q-327 0 -327 355v735h309zM432 1499q57 0 113 -22.5t104 -45t86 -22.5q35 0 48.5 19.5t13.5 70.5l155 -8q18 -128 -31 -208.5
t-155 -80.5q-60 0 -118.5 22.5t-107.5 45t-85 22.5q-35 0 -50 -21t-8 -75l-168 6q-17 133 40 215t163 82z" />
    <glyph glyph-name="Umacron" unicode="&#x16a;" horiz-adv-x="1449" 
d="M729 240q154 0 212 77.5t58 262.5v903h316v-948q0 -286 -155 -423t-443 -137q-305 0 -444.5 137.5t-139.5 430.5v940h318v-897q0 -182 60 -264t218 -82zM397 1817h650v-211h-650v211z" />
    <glyph glyph-name="umacron" unicode="&#x16b;" horiz-adv-x="1183" 
d="M422 1067v-674q0 -87 31 -126.5t104 -39.5q54 0 109.5 26t93.5 58v756h309v-1067h-266l-23 115q-59 -65 -146.5 -101.5t-193.5 -36.5q-327 0 -327 355v735h309zM268 1440h637v-209h-637v209z" />
    <glyph glyph-name="Ubreve" unicode="&#x16c;" horiz-adv-x="1449" 
d="M729 240q154 0 212 77.5t58 262.5v903h316v-948q0 -286 -155 -423t-443 -137q-305 0 -444.5 137.5t-139.5 430.5v940h318v-897q0 -182 60 -264t218 -82zM733 1763q68 0 105.5 31t50.5 107l196 -13q-33 -313 -362 -313q-153 0 -241.5 76t-98.5 233l205 21
q12 -75 47 -108.5t98 -33.5z" />
    <glyph glyph-name="ubreve" unicode="&#x16d;" horiz-adv-x="1183" 
d="M422 1067v-674q0 -87 31 -126.5t104 -39.5q54 0 109.5 26t93.5 58v756h309v-1067h-266l-23 115q-59 -65 -146.5 -101.5t-193.5 -36.5q-327 0 -327 355v735h309zM946 1495q-12 -168 -107.5 -249t-256.5 -81q-158 0 -247 79.5t-95 244.5l204 22q10 -85 45 -121t103 -36
q71 0 108.5 35t49.5 120z" />
    <glyph glyph-name="Uring" unicode="&#x16e;" horiz-adv-x="1449" 
d="M729 240q154 0 212 77.5t58 262.5v903h316v-948q0 -286 -155 -423t-443 -137q-305 0 -444.5 137.5t-139.5 430.5v940h318v-897q0 -182 60 -264t218 -82zM961 1710q0 -104 -65.5 -162.5t-172.5 -58.5q-105 0 -170.5 56.5t-65.5 156.5q0 110 68 168.5t168 58.5
q103 0 170.5 -57t67.5 -162zM723 1614q45 0 70.5 25t25.5 75q0 46 -25.5 70t-70.5 24t-72.5 -24t-27.5 -72t27 -73t73 -25z" />
    <glyph glyph-name="uring" unicode="&#x16f;" horiz-adv-x="1183" 
d="M422 1067v-674q0 -87 31 -126.5t104 -39.5q54 0 109.5 26t93.5 58v756h309v-1067h-266l-23 115q-59 -65 -146.5 -101.5t-193.5 -36.5q-327 0 -327 355v735h309zM821 1382q0 -102 -63 -158.5t-168 -56.5q-102 0 -166 55t-64 152q0 106 66 164.5t164 58.5q101 0 166 -56.5
t65 -158.5zM590 1290q42 0 66 24t24 68q0 42 -24 64t-66 22q-40 0 -66 -23.5t-26 -64.5q0 -43 25 -66.5t67 -23.5z" />
    <glyph glyph-name="Uhungarumlaut" unicode="&#x170;" horiz-adv-x="1449" 
d="M729 240q154 0 212 77.5t58 262.5v903h316v-948q0 -286 -155 -423t-443 -137q-305 0 -444.5 137.5t-139.5 430.5v940h318v-897q0 -182 60 -264t218 -82zM438 1597l103 277h315l-219 -301zM750 1589l188 295h332l-314 -311z" />
    <glyph glyph-name="uhungarumlaut" unicode="&#x171;" horiz-adv-x="1183" 
d="M422 1067v-674q0 -87 31 -126.5t104 -39.5q54 0 109.5 26t93.5 58v756h309v-1067h-266l-23 115q-59 -65 -146.5 -101.5t-193.5 -36.5q-327 0 -327 355v735h309zM324 1196l90 326h315l-209 -351zM635 1190l174 340h332l-299 -359z" />
    <glyph glyph-name="Uogonek" unicode="&#x172;" horiz-adv-x="1449" 
d="M1139 -285q-32 -98 -110 -152.5t-177 -54.5q-116 0 -177 53t-61 148q0 139 158 268q-18 -2 -55 -2q-305 0 -444.5 137.5t-139.5 430.5v940h318v-897q0 -182 60 -264t218 -82q154 0 212 77.5t58 262.5v903h316v-948q0 -189 -65.5 -307t-196.5 -203q-93 -62 -151 -133.5
t-58 -131.5q0 -67 63 -67q61 0 99 84z" />
    <glyph glyph-name="uogonek" unicode="&#x173;" horiz-adv-x="1183" 
d="M1163 -285q-32 -98 -109.5 -152.5t-176.5 -54.5q-116 0 -177 53t-61 148q0 149 164 291l-23 115q-59 -65 -146.5 -101.5t-193.5 -36.5q-327 0 -327 355v735h309v-674q0 -87 31 -126.5t104 -39.5q54 0 109.5 26t93.5 58v756h309v-1067q-85 -42 -141 -109q-60 -72 -60 -131
q0 -67 64 -67q60 0 98 84z" />
    <glyph glyph-name="Wcircumflex" unicode="&#x174;" horiz-adv-x="1974" 
d="M997 1022h-8l-237 -1022h-416l-320 1483h330l209 -1143h8l264 1143h338l273 -1149h10l192 1149h318l-318 -1483h-403zM840 1573l-209 14l219 291h287l209 -291l-205 -12l-148 147z" />
    <glyph glyph-name="wcircumflex" unicode="&#x175;" horiz-adv-x="1665" 
d="M-8 1067h309l195 -750h4l188 750h303l189 -745h6l186 745h301l-317 -1067h-348l-172 696h-5l-157 -696h-367zM842 1372l-156 -194l-207 12l215 336h295l207 -336l-205 -10z" />
    <glyph glyph-name="Ycircumflex" unicode="&#x176;" horiz-adv-x="1241" 
d="M477 0v555l-514 928h346l326 -635h10l313 635h320l-483 -924v-559h-318zM481 1573l-209 14l220 291h286l209 -291l-205 -12l-147 147z" />
    <glyph glyph-name="ycircumflex" unicode="&#x177;" horiz-adv-x="1077" 
d="M326 1067l223 -743h6l215 743h317q-219 -613 -423 -1171q-69 -194 -156.5 -273.5t-245.5 -79.5q-61 0 -128.5 13.5t-104.5 31.5l22 224q105 -33 162 -33q55 0 91.5 27t60.5 88l32 83l-405 1090h334zM541 1372l-156 -194l-207 12l215 336h295l207 -336l-205 -10z" />
    <glyph glyph-name="Ydieresis" unicode="&#x178;" horiz-adv-x="1241" 
d="M477 0v555l-514 928h346l326 -635h10l313 635h320l-483 -924v-559h-318zM571 1757q0 -77 -50 -123.5t-130 -46.5q-83 0 -134.5 46.5t-51.5 123.5t52 124.5t134 47.5q80 0 130 -47t50 -125zM1053 1757q0 -78 -49.5 -124t-131.5 -46t-133 46.5t-51 123.5q0 78 51 125
t133 47t131.5 -47t49.5 -125z" />
    <glyph glyph-name="Zacute" unicode="&#x179;" horiz-adv-x="1212" 
d="M1153 266v-266h-1098v231l703 988h-684v264h1050v-236l-690 -981h719zM397 1589l187 287h331l-299 -303z" />
    <glyph glyph-name="zacute" unicode="&#x17a;" horiz-adv-x="954" 
d="M911 248v-248h-856v219l492 617h-488v231h824v-219l-475 -600h503zM311 1190l154 332h330l-277 -351z" />
    <glyph glyph-name="Zdotaccent" unicode="&#x17b;" horiz-adv-x="1212" 
d="M1153 266v-266h-1098v231l703 988h-684v264h1050v-236l-690 -981h719zM762 1778q0 -91 -48.5 -141t-138.5 -50q-88 0 -136 50t-48 141q0 90 48 137t136 47q91 0 139 -47t48 -137z" />
    <glyph glyph-name="zdotaccent" unicode="&#x17c;" horiz-adv-x="954" 
d="M911 248v-248h-856v219l492 617h-488v231h824v-219l-475 -600h503zM659 1395q0 -89 -48 -139t-138 -50q-87 0 -135.5 50.5t-48.5 138.5q0 90 48 138t136 48q91 0 138.5 -47.5t47.5 -138.5z" />
    <glyph glyph-name="Zcaron" unicode="&#x17d;" horiz-adv-x="1212" 
d="M1153 266v-266h-1098v231l703 988h-684v264h1050v-236l-690 -981h719zM729 1882l209 -14l-219 -291h-287l-209 291l205 12l147 -147z" />
    <glyph glyph-name="zcaron" unicode="&#x17e;" horiz-adv-x="954" 
d="M911 248v-248h-856v219l492 617h-488v231h824v-219l-475 -600h503zM475 1327l156 193l203 -13l-216 -336h-294l-207 336l209 11z" />
    <glyph glyph-name="longs" unicode="&#x17f;" horiz-adv-x="612" 
d="M117 1190q0 191 104.5 285t288.5 94q150 0 235 -39l-12 -219q-76 26 -143 26q-81 0 -122.5 -37t-41.5 -139v-1161h-309v1190z" />
    <glyph glyph-name="uni0180" unicode="&#x180;" horiz-adv-x="1226" 
d="M709 -25q-168 0 -291 123h-6l-17 -98h-260v1180h-123v176h123v190h307v-190h357v-176h-357v-228q138 125 318 125q84 0 153 -29t124 -89t85.5 -164t30.5 -244q0 -294 -119.5 -435t-324.5 -141zM629 215q198 0 198 328q0 67 -9 118t-29.5 91.5t-58 62t-91.5 21.5
q-52 0 -106 -25.5t-89 -60.5v-461q107 -74 185 -74z" />
    <glyph glyph-name="uni0181" unicode="&#x181;" horiz-adv-x="1695" 
d="M537 1225h-27q-106 0 -156.5 -45.5t-50.5 -143.5q0 -46 10 -116l-270 -13q-7 12 -15 63t-8 103q0 197 135.5 303.5t366.5 106.5h602q103 0 181.5 -18.5t128.5 -50t82 -78.5t44.5 -99.5t12.5 -116.5q0 -141 -78.5 -226.5t-202.5 -119.5v-4q344 -39 344 -362
q0 -100 -33 -173.5t-88 -118t-140 -71t-174 -36t-206 -9.5h-458v1225zM1016 227q69 0 117 8t88 29.5t59.5 63t19.5 104.5q0 54 -15.5 92.5t-40 60t-64.5 34.5t-77.5 16.5t-90.5 3.5h-160v-412h164zM969 862q295 0 295 209q0 43 -9 74.5t-29 51t-41 31.5t-58 17t-65.5 6.5
t-76.5 1.5h-133v-391h117z" />
    <glyph glyph-name="uni0186" unicode="&#x186;" horiz-adv-x="1423" 
d="M631 -25q-127 0 -229 30.5t-179.5 93t-123 164t-52.5 237.5l289 28q12 -161 84 -234t215 -73q186 0 285.5 130.5t99.5 391.5q0 273 -93 397t-280 124q-141 0 -212 -68.5t-103 -200.5l-281 45q18 127 78 221t147.5 146.5t183.5 77t202 24.5q686 0 686 -749
q0 -238 -81 -413.5t-244 -273.5t-392 -98z" />
    <glyph glyph-name="uni0187" unicode="&#x187;" horiz-adv-x="1513" 
d="M762 -25q-181 0 -314 54t-213 154.5t-118.5 235t-38.5 306.5q0 360 182.5 572t509.5 212q249 0 375 -147v113q0 288 260 288q83 0 141 -30l-10 -203q-38 14 -74 14q-49 0 -67.5 -31t-18.5 -100v-428l-262 -24q-37 303 -326 303q-184 0 -284.5 -130t-100.5 -393
q0 -271 93 -395.5t280 -124.5q151 0 219 74q70 76 97 197l280 -48q-14 -102 -56.5 -183.5t-102 -134t-135.5 -87.5t-154 -49.5t-162 -14.5z" />
    <glyph glyph-name="uni0188" unicode="&#x188;" horiz-adv-x="1206" 
d="M571 -25q-131 0 -230 40t-161 113t-92.5 170.5t-30.5 217.5q0 273 139.5 423.5t383.5 150.5q159 0 247 -91v107q0 264 238 264q88 0 152 -29l-13 -200q-38 12 -74 12q-49 0 -66 -31.5t-17 -101.5v-324l-246 -37q-12 106 -60 155.5t-139 49.5q-221 0 -221 -317
q0 -181 55.5 -260.5t159.5 -79.5q174 0 201 201l254 -50q-27 -198 -160 -290q-134 -93 -320 -93z" />
    <glyph glyph-name="uni0189" unicode="&#x189;" horiz-adv-x="1482" 
d="M152 625h-138v264h138v594h520q374 0 554.5 -188t180.5 -531q0 -173 -46 -311.5t-138.5 -240.5t-241 -157t-344.5 -55h-485v625zM623 254q247 0 353.5 125.5t106.5 368.5q0 138 -26.5 231.5t-82.5 148.5t-135 78t-194 23h-178v-340h350v-264h-350v-371h156z" />
    <glyph glyph-name="uni018A" unicode="&#x18a;" horiz-adv-x="1867" 
d="M537 1225h-25q-107 0 -158 -46.5t-51 -148.5q0 -40 10 -110l-270 -13q-8 14 -15.5 63.5t-7.5 98.5q0 133 64 227.5t175 140.5t257 46h541q191 0 333 -49.5t229.5 -144.5t130 -225.5t42.5 -299.5q0 -173 -46 -311.5t-138.5 -240.5t-241 -157t-344.5 -55h-485v1225z
M1010 242q244 0 351 129t107 374q0 141 -26.5 237t-82.5 153t-135.5 81.5t-193.5 24.5h-178v-999h158z" />
    <glyph glyph-name="uni018E" unicode="&#x18e;" horiz-adv-x="1193" 
d="M66 252h661v364h-588v248h588v369h-625v250h942v-1483h-978v252z" />
    <glyph glyph-name="uni018F" unicode="&#x18f;" horiz-adv-x="1474" 
d="M705 -25q-100 0 -187.5 18t-170.5 63t-142 114t-95 178.5t-36 249.5q0 97 12 223h983q-1 233 -90 336t-256 103q-139 0 -223.5 -71t-114.5 -200l-285 55q44 233 215 349t422 116q139 0 250 -35.5t187 -100t126.5 -158t73.5 -205t23 -244.5q0 -371 -177 -581t-515 -210z
M705 223q158 0 251 96.5t107 270.5h-690v-35q0 -163 86 -247.5t246 -84.5z" />
    <glyph glyph-name="uni0190" unicode="&#x190;" horiz-adv-x="1214" 
d="M610 -25q-262 0 -409.5 110t-147.5 312q0 83 26 150t72 111t99.5 71.5t116.5 42.5v6q-59 17 -105 41t-88 62t-65 95.5t-23 131.5q0 180 138.5 290.5t377.5 110.5q105 0 187 -19.5t153.5 -64t117.5 -126t64 -197.5l-278 -55q-21 115 -72.5 175t-161.5 60q-97 0 -153 -48.5
t-56 -143.5q0 -105 80 -167.5t238 -62.5h98v-231h-180q-260 0 -260 -217q0 -99 69 -151t175 -52q116 0 179.5 63t84.5 164l280 -61q-15 -107 -64 -185.5t-124.5 -124.5t-167 -68t-201.5 -22z" />
    <glyph glyph-name="uni0191" unicode="&#x191;" horiz-adv-x="1132" 
d="M80 -461q-77 0 -152.5 17.5t-107.5 37.5l20 213q93 -38 172 -38q67 0 103.5 36.5t36.5 124.5v1553h933v-250h-618v-395h569v-246h-569v-684q0 -188 -103 -278.5t-284 -90.5z" />
    <glyph glyph-name="florin" unicode="&#x192;" horiz-adv-x="749" 
d="M84 -457q-77 0 -147.5 17t-102.5 39l21 213q95 -39 168 -39q133 0 133 159v922h-144v213h144v125q0 190 104.5 283.5t288.5 93.5q150 0 235 -39l-12 -207q-79 27 -143 27q-81 0 -122.5 -37t-41.5 -139v-107h283v-213h-283v-942q0 -189 -101 -279t-280 -90z" />
    <glyph glyph-name="uni0193" unicode="&#x193;" horiz-adv-x="1527" 
d="M707 -25q-163 0 -285.5 54.5t-197 155.5t-110.5 234t-36 300q0 242 77 417.5t235.5 274t385.5 98.5q246 0 369 -149v123q0 280 256 280q87 0 145 -30l-10 -203q-27 14 -76 14q-48 0 -66 -30.5t-18 -92.5v-422l-264 -28q-6 61 -27.5 112t-59 92.5t-97.5 65t-137 23.5
q-192 0 -288.5 -135t-96.5 -384q0 -272 89.5 -399t284.5 -127q144 0 223.5 75t79.5 189v72h-270v217h582v-772h-230l-35 182q-44 -96 -163 -151.5t-260 -55.5z" />
    <glyph glyph-name="uni0194" unicode="&#x194;" horiz-adv-x="1335" 
d="M477 627l-465 856h350l316 -627l313 627h332l-471 -862l385 -621h-1145zM803 197l-152 256l-153 -256h305z" />
    <glyph glyph-name="uni0196" unicode="&#x196;" horiz-adv-x="784" 
d="M479 -25q-170 0 -256 83t-86 259v1166h309v-1135q0 -71 27.5 -105t91.5 -34q59 0 135 35l43 -201q-107 -68 -264 -68z" />
    <glyph glyph-name="uni0197" unicode="&#x197;" horiz-adv-x="675" 
d="M10 889h170v594h316v-594h172v-242h-172v-647h-316v647h-170v242z" />
    <glyph glyph-name="uni0198" unicode="&#x198;" horiz-adv-x="1505" 
d="M844 1292q74 86 121 127.5t106 64.5t139 23q142 0 214 -71.5t79 -247.5l-209 -33q-6 109 -73 109q-37 0 -70 -28t-102 -114l-209 -262l542 -860h-368l-404 631l-145 -160v-471h-313v1483h313v-637z" />
    <glyph glyph-name="uni0199" unicode="&#x199;" horiz-adv-x="1155" 
d="M121 1153q0 213 105.5 314.5t297.5 101.5q136 0 224 -37l-13 -209q-70 16 -123 16q-98 0 -140 -46t-42 -163v-446l352 383h342l-354 -383l381 -684h-342l-277 492l-102 -105v-387h-309v1153z" />
    <glyph glyph-name="uni019A" unicode="&#x19a;" horiz-adv-x="690" 
d="M18 889h170v594h316v-594h172v-242h-172v-647h-316v647h-170v242z" />
    <glyph glyph-name="uni019C" unicode="&#x19c;" horiz-adv-x="1947" 
d="M1796 0h-272l-15 113q-154 -136 -354 -136q-226 0 -303 148q-74 -70 -161.5 -109t-209.5 -39q-172 0 -258 97t-86 284v1123h320v-1073q0 -89 30.5 -133t110.5 -44q58 0 116.5 24t92.5 58q-2 10 -2 33v1135h319v-1082q0 -86 31 -127t109 -41q60 0 119.5 25t93.5 59v1166
h319v-1481z" />
    <glyph glyph-name="uni019D" unicode="&#x19d;" horiz-adv-x="1570" 
d="M96 -461q-75 0 -137 16.5t-96 38.5l20 213q93 -38 172 -38q67 0 103.5 36.5t36.5 124.5v1553h378l562 -1065v1065h284v-1483h-362l-574 1063v-1159q0 -185 -103.5 -275t-283.5 -90z" />
    <glyph glyph-name="uni019E" unicode="&#x19e;" horiz-adv-x="1193" 
d="M776 676q0 170 -141 170q-58 0 -115.5 -27t-93.5 -61v-758h-309v1067h274l17 -113q151 136 340 136q175 0 256 -88t81 -273v-1163h-309v1110z" />
    <glyph glyph-name="uni019F" unicode="&#x19f;" horiz-adv-x="1556" 
d="M768 -25q-145 0 -260.5 37t-195 103.5t-133 162t-77.5 209t-24 248.5q0 167 46.5 307.5t135 245t227 163t314.5 58.5q175 0 308 -58t213 -161.5t119.5 -235.5t39.5 -290q0 -181 -44 -325.5t-131 -248.5t-223.5 -159.5t-314.5 -55.5zM795 1243q-159 0 -258 -93t-125 -280
h737q-45 373 -354 373zM780 242q156 0 253 93.5t116 295.5h-739q39 -389 370 -389z" />
    <glyph glyph-name="Ohorn" unicode="&#x1a0;" horiz-adv-x="1646" 
d="M768 -25q-145 0 -260.5 37t-195 103.5t-133 162t-77.5 209t-24 248.5q0 167 46.5 307.5t135 245t227 163t314.5 58.5q317 0 493 -186q84 15 99 61q16 50 16 148v100h219v-96q0 -168 -48.5 -251t-182.5 -111q84 -172 84 -410q0 -181 -44 -325.5t-131 -248.5t-223.5 -159.5
t-314.5 -55.5zM780 227q176 0 275.5 124t99.5 394q0 260 -93 386t-267 126q-186 0 -289 -127.5t-103 -388.5q0 -514 377 -514z" />
    <glyph glyph-name="ohorn" unicode="&#x1a1;" horiz-adv-x="1376" 
d="M590 -25q-141 0 -243.5 41t-162 117t-87 173.5t-27.5 221.5q0 264 138 413t410 149q279 0 410 -166q74 11 94.5 55t20.5 154v98h219v-94q0 -178 -53 -261.5t-205 -107.5q29 -83 29 -217q0 -271 -133 -423.5t-410 -152.5zM604 190q106 0 156.5 79.5t50.5 271.5
q0 125 -22.5 197t-65 101t-113.5 29q-110 0 -163.5 -74.5t-53.5 -256.5q0 -188 49 -267.5t162 -79.5z" />
    <glyph glyph-name="uni01A4" unicode="&#x1a4;" horiz-adv-x="1660" 
d="M539 1225h-29q-102 0 -153.5 -46t-51.5 -147q0 -42 10 -112l-270 -13q-20 63 -20 164q0 208 137.5 310t386.5 102h553q111 0 197.5 -26t141 -69t90 -103.5t50 -124.5t14.5 -138q0 -530 -581 -530h-160v-492h-315v1225zM981 731q66 0 114.5 11.5t90 39.5t63 82.5
t21.5 134.5q0 75 -20.5 124.5t-62 74.5t-90 34t-120.5 9h-123v-510h127z" />
    <glyph glyph-name="uni01A5" unicode="&#x1a5;" horiz-adv-x="1212" 
d="M121 1192q0 202 75.5 289.5t249.5 87.5q66 0 136.5 -12.5t101.5 -24.5l-12 -207q-44 23 -113 23q-158 0 -158 -150v-248q67 70 154.5 105t179.5 35q88 0 159 -28.5t126.5 -89.5t86 -166.5t30.5 -248.5q0 -123 -22.5 -222t-62 -165.5t-95.5 -111t-119 -64t-136 -19.5
q-92 0 -156.5 25.5t-119.5 73.5v-535h-305v1653zM612 215q105 0 153 85t48 249q0 161 -46 231t-142 70q-50 0 -104.5 -25.5t-94.5 -60.5v-473q31 -27 83 -51.5t103 -24.5z" />
    <glyph glyph-name="uni01A9" unicode="&#x1a9;" horiz-adv-x="1218" 
d="M49 201l395 553l-381 528v201h1082v-250h-666l324 -453l-375 -530h717v-250h-1096v201z" />
    <glyph glyph-name="uni01AA" unicode="&#x1aa;" horiz-adv-x="1191" 
d="M885 -25q-166 0 -254 80.5t-88 263.5v629q-30 -34 -85 -55t-120 -21q-138 0 -228 90t-90 242q0 168 112 266.5t312 98.5q210 0 309 -118t99 -323v-778q0 -28 4 -48.5t15.5 -44t38.5 -36t69 -12.5q92 0 176 49l43 -203q-5 -5 -41.5 -22t-115.5 -37.5t-156 -20.5zM401 1071
q52 0 93.5 21.5t50.5 42.5q13 221 -127 221q-66 0 -102.5 -38t-36.5 -104q0 -64 31 -103.5t91 -39.5z" />
    <glyph glyph-name="uni01AC" unicode="&#x1ac;" horiz-adv-x="1470" 
d="M705 1225h-187q-115 0 -167 -43t-52 -135q0 -57 10 -127l-270 -13q-23 72 -23 172q0 206 132.5 305t367.5 99h938v-258h-434v-1225h-315v1225z" />
    <glyph glyph-name="uni01AD" unicode="&#x1ad;" horiz-adv-x="843" 
d="M514 -25q-170 0 -255 82.5t-85 259.5v537h-160v213h160v125q0 199 87 288t267 89q66 0 136.5 -12.5t101.5 -24.5l-12 -207q-48 25 -129 25q-49 0 -99 -29q-43 -27 -43 -123v-131h283v-213h-283v-500q0 -76 27 -110.5t98 -34.5q45 0 94 14.5t82 34.5l43 -203
q-44 -30 -131 -55t-182 -25z" />
    <glyph glyph-name="uni01AE" unicode="&#x1ae;" horiz-adv-x="1218" 
d="M840 -461q-181 0 -284 90t-103 275v1321h-437v258h1186v-258h-432v-1307q0 -149 137 -149q89 0 172 38l23 -213q-35 -22 -108.5 -38.5t-153.5 -16.5z" />
    <glyph glyph-name="Uhorn" unicode="&#x1af;" horiz-adv-x="1681" 
d="M717 -25q-305 0 -444.5 137t-139.5 427v944h318v-910q0 -185 60 -267.5t218 -82.5q155 0 212.5 77.5t57.5 266.5v916h316v-164q38 5 63 16t39.5 25t21.5 42t9 55t2 75v100h219v-96q0 -101 -14 -165.5t-53 -113t-108.5 -71.5t-178.5 -27v-627q0 -283 -159 -420t-439 -137z
" />
    <glyph glyph-name="uhorn" unicode="&#x1b0;" horiz-adv-x="1437" 
d="M440 -23q-327 0 -327 357v733h309v-676q0 -89 31 -129.5t104 -40.5q55 0 111 27t92 61v758h309v-147q48 6 75 19t41 41t17.5 60.5t3.5 92.5v98h217v-94q0 -102 -14 -166.5t-53 -113.5t-108 -72t-179 -27v-758h-266l-23 125q-61 -67 -148.5 -107.5t-191.5 -40.5z" />
    <glyph glyph-name="uni01B1" unicode="&#x1b1;" horiz-adv-x="1640" 
d="M801 -25q-153 0 -275 38.5t-200.5 101t-130.5 147.5t-73.5 172.5t-21.5 181.5q0 205 95 357t278 213v59h-342v240h594v-430q-285 -71 -285 -414q0 -85 23 -158.5t67.5 -131t117.5 -91t165 -33.5q82 0 147 22t108.5 60.5t72.5 92.5t42 116t13 133q0 165 -74 266.5
t-211 137.5v430h596v-240h-344v-59q172 -53 273.5 -194.5t101.5 -352.5q0 -102 -25 -196t-82 -180t-141 -149.5t-209.5 -101t-279.5 -37.5z" />
    <glyph glyph-name="uni01B2" unicode="&#x1b2;" horiz-adv-x="1433" 
d="M606 -25q-243 0 -358 131.5t-115 389.5v987h318v-914q0 -74 4 -125t15 -96t31 -70.5t52 -40t78 -14.5q101 0 179.5 59t125 157.5t70.5 216.5t24 247q0 97 -10.5 166.5t-27.5 110.5t-45 64t-56.5 30.5t-67.5 7.5q-71 0 -145 -22l-10 215q20 11 94 24q66 14 137 14
q216 0 328 -144t112 -456q0 -176 -36 -326.5t-102 -262.5t-156.5 -191t-202 -118.5t-236.5 -39.5z" />
    <glyph glyph-name="uni01B3" unicode="&#x1b3;" horiz-adv-x="1366" 
d="M477 537l-514 946h346l326 -649l166 430q49 127 125 185t213 58q141 0 210 -71t76 -248l-208 -33q-6 109 -74 109q-37 0 -59.5 -26t-53.5 -95l-235 -608v-535h-318v537z" />
    <glyph glyph-name="uni01B4" unicode="&#x1b4;" horiz-adv-x="1400" 
d="M807 1133q95 305 358 305q152 0 223.5 -71t81.5 -249l-208 -33q-6 109 -76 109q-38 0 -64 -27.5t-49 -93.5l-397 -1147q-36 -105 -70 -171.5t-82 -117t-110.5 -72.5t-149.5 -22q-56 0 -127.5 13t-107.5 30l22 217q107 -30 162 -30q69 0 106 44.5t78 159.5l-405 1090h334
l219 -754h6z" />
    <glyph glyph-name="uni01B5" unicode="&#x1b5;" horiz-adv-x="1212" 
d="M55 215l305 442h-213v238h377l234 338h-678v250h1044v-223l-250 -365h205v-238h-366l-279 -407h719v-250h-1098v215z" />
    <glyph glyph-name="uni01B6" unicode="&#x1b6;" horiz-adv-x="954" 
d="M55 205l193 252h-142v207h304l137 182h-488v221h824v-207l-164 -213h119v-205h-279l-158 -209h510v-233h-856v205z" />
    <glyph glyph-name="uni01B7" unicode="&#x1b7;" horiz-adv-x="1245" 
d="M549 -502q-236 0 -380.5 109.5t-170.5 322.5l291 56q43 -242 272 -242q148 0 221.5 103.5t73.5 289.5q0 350 -346 350q-106 0 -164 -14v215l426 545h-666v250h1024v-219l-460 -572q236 3 374 -144t138 -398q0 -143 -39.5 -261t-116.5 -206t-199 -136.5t-278 -48.5z" />
    <glyph glyph-name="uni01B8" unicode="&#x1b8;" horiz-adv-x="1245" 
d="M692 -502q-155 0 -276.5 48t-198 134.5t-115.5 202.5t-39 256q0 257 137.5 406.5t374.5 146.5l-460 572v219h1024v-250h-666l428 -545v-215q-63 14 -166 14q-348 0 -348 -354q0 -184 74.5 -286.5t218.5 -102.5q55 0 99.5 14.5t74 38t51.5 56t33.5 64.5t17.5 69l289 -56
q-26 -213 -170 -322.5t-383 -109.5z" />
    <glyph glyph-name="uni01B9" unicode="&#x1b9;" horiz-adv-x="1011" 
d="M575 -461q-236 0 -377 129.5t-141 347.5q0 88 22.5 162.5t69 134.5t125.5 93t183 32l-351 420v209h785v-221h-463l328 -406v-198q-73 18 -174 18q-111 0 -168.5 -68t-57.5 -176q0 -115 54.5 -181t158.5 -66q86 0 130.5 45t52.5 120l256 -49q-55 -346 -433 -346z" />
    <glyph glyph-name="uni01C0" unicode="&#x1c0;" horiz-adv-x="618" 
d="M152 1546h315v-1792h-315v1792z" />
    <glyph glyph-name="uni01C1" unicode="&#x1c1;" horiz-adv-x="1081" 
d="M623 1546h317v-1792h-317v1792zM152 1546h315v-1792h-315v1792z" />
    <glyph glyph-name="uni01C2" unicode="&#x1c2;" horiz-adv-x="729" 
d="M35 604h172v191h-172v241h172v510h315v-510h170v-241h-170v-191h170v-242h-170v-608h-315v608h-172v242z" />
    <glyph glyph-name="uni01C3" unicode="&#x1c3;" horiz-adv-x="540" 
d="M129 1546h281v-960h-281v960zM129 336h281v-336h-281v336z" />
    <glyph glyph-name="uni01C4" unicode="&#x1c4;" horiz-adv-x="2611" 
d="M152 1483h520q374 0 554.5 -188t180.5 -531q0 -173 -46 -311.5t-138.5 -240.5t-241 -157t-344.5 -55h-485v1483zM623 254q247 0 353.5 125.5t106.5 368.5q0 138 -26.5 231.5t-82.5 148.5t-135 78t-194 23h-178v-975h156zM2552 266v-266h-1098v231l703 988h-684v264h1050
v-236l-690 -981h719zM1997 1747l155 192l203 -12l-215 -336h-295l-207 336l209 10z" />
    <glyph glyph-name="uni01C5" unicode="&#x1c5;" horiz-adv-x="2437" 
d="M152 1483h520q374 0 554.5 -188t180.5 -531q0 -173 -46 -311.5t-138.5 -240.5t-241 -157t-344.5 -55h-485v1483zM623 254q247 0 353.5 125.5t106.5 368.5q0 138 -26.5 231.5t-82.5 148.5t-135 78t-194 23h-178v-975h156zM2394 248v-248h-856v219l492 617h-488v231h823
v-219l-475 -600h504zM1958 1327l156 193l202 -13l-215 -336h-295l-207 336l209 11z" />
    <glyph glyph-name="uni01C6" unicode="&#x1c6;" horiz-adv-x="2160" 
d="M836 0l-19 104l-6 2q-118 -131 -315 -131q-196 0 -308 130.5t-112 406.5q0 124 26 223.5t69 164.5t101.5 108.5t121.5 62.5t132 19q174 0 271 -91v547h297v-1546h-258zM786 784q-79 60 -172 60q-111 0 -163 -86.5t-52 -235.5q0 -303 205 -303q95 0 182 76v489zM2118 248
v-248h-856v219l491 617h-487v231h823v-219l-475 -600h504zM1677 1327l156 193l203 -13l-215 -336h-295l-207 336l209 11z" />
    <glyph glyph-name="uni01C7" unicode="&#x1c7;" horiz-adv-x="2228" 
d="M1102 266v-266h-950v1483h315v-1217h635zM2091 1483v-1067q0 -441 -467 -441q-100 0 -177.5 21.5t-138.5 69t-95.5 130.5t-38.5 199l303 45q5 -53 12 -84.5t22.5 -63t44 -45.5t72.5 -14q75 0 110.5 40t35.5 135v1075h317z" />
    <glyph glyph-name="uni01C9" unicode="&#x1c9;" horiz-adv-x="1093" 
d="M123 0v1546h309v-1546h-309zM600 -457q-77 0 -148.5 18t-103.5 40l23 231q90 -41 168 -41q62 0 97.5 35t35.5 125v1116h309v-1151q0 -191 -101 -282t-280 -91zM1014 1401q0 -91 -48.5 -141t-138.5 -50q-88 0 -137 50t-49 141q0 90 48.5 137t137.5 47q91 0 139 -47
t48 -137z" />
    <glyph glyph-name="uni01CA" unicode="&#x1ca;" horiz-adv-x="2611" 
d="M440 1047v-1047h-288v1483h376l562 -1051v1051h286v-1483h-364zM2474 1483v-1067q0 -441 -467 -441q-207 0 -324.5 97.5t-126.5 322.5l304 45q5 -53 12 -84.5t22.5 -63t44 -45.5t72.5 -14q75 0 110.5 40t35.5 135v1075h317z" />
    <glyph glyph-name="uni01CB" unicode="&#x1cb;" horiz-adv-x="2070" 
d="M440 1047v-1047h-288v1483h376l562 -1051v1051h286v-1483h-364zM1577 -457q-77 0 -148.5 18t-103.5 40l23 231q90 -41 168 -41q62 0 97.5 35t35.5 125v1116h309v-1151q0 -191 -101 -282t-280 -91zM1991 1401q0 -91 -48.5 -141t-138.5 -50q-88 0 -137 50t-49 141
q0 90 48.5 137t137.5 47q91 0 139 -47t48 -137z" />
    <glyph glyph-name="uni01CC" unicode="&#x1cc;" horiz-adv-x="1740" 
d="M776 0v676q0 86 -34 125t-107 39q-58 0 -116 -25.5t-93 -58.5v-756h-309v1067h274l17 -106q143 129 340 129q175 0 256 -88t81 -273v-729h-309zM1245 -457q-77 0 -148.5 18t-103.5 40l23 231q90 -41 168 -41q62 0 97.5 35t35.5 125v1116h309v-1151q0 -191 -101 -282
t-280 -91zM1659 1401q0 -91 -48 -141t-138 -50q-88 0 -137.5 50.5t-49.5 140.5t49 137t138 47q91 0 138.5 -46.5t47.5 -137.5z" />
    <glyph glyph-name="uni01CD" unicode="&#x1cd;" horiz-adv-x="1443" 
d="M1423 0h-346l-123 360h-493l-115 -360h-326l486 1483h393zM696 1186l-182 -574h375l-184 574h-9zM860 1882l209 -14l-219 -291h-287l-209 291l205 12l148 -147z" />
    <glyph glyph-name="uni01CE" unicode="&#x1ce;" horiz-adv-x="1140" 
d="M985 266q0 -44 13.5 -63t50.5 -19q19 0 63 13l8 -179q-34 -15 -92 -28t-104 -13q-95 0 -148.5 31.5t-70.5 104.5q-107 -138 -318 -138q-77 0 -135.5 20t-92 50t-54.5 70t-28 75t-7 70q0 68 20 123.5t53 94t82.5 67t101 45t115.5 26.5t120 13.5t120 3.5v39q0 86 -25 141
q-24 53 -127 53q-73 0 -108 -33.5t-53 -113.5l-263 51q26 158 133.5 239t317.5 81q217 0 322.5 -89.5t105.5 -287.5v-447zM635 453q-254 0 -254 -142q0 -116 125 -116q52 0 101.5 21t76.5 48v189h-49zM551 1327l156 193l202 -13l-215 -336h-295l-206 336l208 11z" />
    <glyph glyph-name="uni01CF" unicode="&#x1cf;" horiz-adv-x="618" 
d="M152 0v1483h315v-1483h-315zM455 1882l209 -14l-220 -291h-286l-209 291l205 12l147 -147z" />
    <glyph glyph-name="uni01D0" unicode="&#x1d0;" horiz-adv-x="548" 
d="M123 0v1067h309v-1067h-309zM279 1327l155 193l203 -13l-215 -336h-295l-207 336l209 11z" />
    <glyph glyph-name="uni01D1" unicode="&#x1d1;" horiz-adv-x="1556" 
d="M768 -25q-145 0 -260.5 37t-195 103.5t-133 162t-77.5 209t-24 248.5q0 167 46.5 307.5t135 245t227 163t314.5 58.5q175 0 308 -58t213 -161.5t119.5 -235.5t39.5 -290q0 -181 -44 -325.5t-131 -248.5t-223.5 -159.5t-314.5 -55.5zM780 242q176 0 275.5 120t99.5 383
q0 251 -93 374.5t-267 123.5q-185 0 -288.5 -125.5t-103.5 -376.5q0 -257 98.5 -378t278.5 -121zM946 1882l209 -14l-219 -291h-287l-209 291l205 12l148 -147z" />
    <glyph glyph-name="uni01D2" unicode="&#x1d2;" horiz-adv-x="1202" 
d="M590 -25q-141 0 -243.5 41t-162 117t-87 173.5t-27.5 221.5q0 264 138 413t410 149q137 0 237.5 -39.5t160.5 -112.5t88.5 -169t28.5 -218q0 -271 -133 -423.5t-410 -152.5zM604 205q106 0 156.5 77.5t50.5 258.5q0 173 -48 244t-153 71q-108 0 -162.5 -75.5
t-54.5 -243.5q0 -178 49 -255t162 -77zM610 1327l156 193l203 -13l-215 -336h-295l-207 336l209 11z" />
    <glyph glyph-name="uni01D3" unicode="&#x1d3;" horiz-adv-x="1449" 
d="M729 240q154 0 212 77.5t58 262.5v903h316v-948q0 -286 -155 -423t-443 -137q-305 0 -444.5 137.5t-139.5 430.5v940h318v-897q0 -182 60 -264t218 -82zM879 1882l208 -14l-219 -291h-286l-209 291l205 12l147 -147z" />
    <glyph glyph-name="uni01D4" unicode="&#x1d4;" horiz-adv-x="1183" 
d="M422 1067v-674q0 -87 31 -126.5t104 -39.5q54 0 109.5 26t93.5 58v756h309v-1067h-266l-23 115q-59 -65 -146.5 -101.5t-193.5 -36.5q-327 0 -327 355v735h309zM598 1327l156 193l202 -13l-215 -336h-295l-206 336l209 11z" />
    <glyph glyph-name="uni01D5" unicode="&#x1d5;" horiz-adv-x="1449" 
d="M729 240q154 0 212 77.5t58 262.5v903h316v-948q0 -286 -155 -423t-443 -137q-305 0 -444.5 137.5t-139.5 430.5v940h318v-897q0 -182 60 -264t218 -82zM668 1757q0 -77 -50.5 -123.5t-130.5 -46.5q-83 0 -134.5 46.5t-51.5 123.5t52 124.5t134 47.5q80 0 130.5 -47.5
t50.5 -124.5zM1149 1757q0 -78 -49 -124t-131 -46q-83 0 -134 46.5t-51 123.5q0 78 51.5 125t133.5 47t131 -47t49 -125zM399 2234h650v-211h-650v211z" />
    <glyph glyph-name="uni01D6" unicode="&#x1d6;" horiz-adv-x="1183" 
d="M422 1067v-674q0 -87 31 -126.5t104 -39.5q54 0 109.5 26t93.5 58v756h309v-1067h-266l-23 115q-59 -65 -146.5 -101.5t-193.5 -36.5q-327 0 -327 355v735h309zM537 1391q0 -77 -50.5 -123.5t-130.5 -46.5q-83 0 -134.5 46.5t-51.5 123.5t52 124.5t134 47.5
q80 0 130.5 -47.5t50.5 -124.5zM1018 1391q0 -78 -49 -124t-131 -46q-83 0 -134 46.5t-51 123.5q0 78 51.5 125t133.5 47t131 -47t49 -125zM270 1858h650v-211h-650v211z" />
    <glyph glyph-name="uni01D7" unicode="&#x1d7;" horiz-adv-x="1449" 
d="M729 240q154 0 212 77.5t58 262.5v903h316v-948q0 -286 -155 -423t-443 -137q-305 0 -444.5 137.5t-139.5 430.5v940h318v-897q0 -182 60 -264t218 -82zM668 1757q0 -77 -50.5 -123.5t-130.5 -46.5q-83 0 -134.5 46.5t-51.5 123.5t52 124.5t134 47.5q80 0 130.5 -47.5
t50.5 -124.5zM1149 1757q0 -78 -49 -124t-131 -46q-83 0 -134 46.5t-51 123.5q0 78 51.5 125t133.5 47t131 -47t49 -125zM545 2011l186 287h332l-299 -303z" />
    <glyph glyph-name="uni01D8" unicode="&#x1d8;" horiz-adv-x="1183" 
d="M422 1067v-674q0 -87 31 -126.5t104 -39.5q54 0 109.5 26t93.5 58v756h309v-1067h-266l-23 115q-59 -65 -146.5 -101.5t-193.5 -36.5q-327 0 -327 355v735h309zM537 1391q0 -77 -50.5 -123.5t-130.5 -46.5q-83 0 -134.5 46.5t-51.5 123.5t52 124.5t134 47.5
q80 0 130.5 -47.5t50.5 -124.5zM1018 1391q0 -78 -49 -124t-131 -46q-83 0 -134 46.5t-51 123.5q0 78 51.5 125t133.5 47t131 -47t49 -125zM418 1647l186 286h332l-299 -303z" />
    <glyph glyph-name="uni01D9" unicode="&#x1d9;" horiz-adv-x="1449" 
d="M729 240q154 0 212 77.5t58 262.5v903h316v-948q0 -286 -155 -423t-443 -137q-305 0 -444.5 137.5t-139.5 430.5v940h318v-897q0 -182 60 -264t218 -82zM668 1757q0 -77 -50.5 -123.5t-130.5 -46.5q-83 0 -134.5 46.5t-51.5 123.5t52 124.5t134 47.5q80 0 130.5 -47.5
t50.5 -124.5zM1149 1757q0 -78 -49 -124t-131 -46q-83 0 -134 46.5t-51 123.5q0 78 51.5 125t133.5 47t131 -47t49 -125zM879 2296l208 -15l-219 -290h-286l-209 290l205 13l147 -148z" />
    <glyph glyph-name="uni01DA" unicode="&#x1da;" horiz-adv-x="1183" 
d="M422 1067v-674q0 -87 31 -126.5t104 -39.5q54 0 109.5 26t93.5 58v756h309v-1067h-266l-23 115q-59 -65 -146.5 -101.5t-193.5 -36.5q-327 0 -327 355v735h309zM537 1391q0 -77 -50.5 -123.5t-130.5 -46.5q-83 0 -134.5 46.5t-51.5 123.5t52 124.5t134 47.5
q80 0 130.5 -47.5t50.5 -124.5zM1018 1391q0 -78 -49 -124t-131 -46q-83 0 -134 46.5t-51 123.5q0 78 51.5 125t133.5 47t131 -47t49 -125zM748 1931l208 -14l-219 -291h-286l-209 291l204 12l148 -147z" />
    <glyph glyph-name="uni01DB" unicode="&#x1db;" horiz-adv-x="1449" 
d="M729 240q154 0 212 77.5t58 262.5v903h316v-948q0 -286 -155 -423t-443 -137q-305 0 -444.5 137.5t-139.5 430.5v940h318v-897q0 -182 60 -264t218 -82zM668 1757q0 -77 -50.5 -123.5t-130.5 -46.5q-83 0 -134.5 46.5t-51.5 123.5t52 124.5t134 47.5q80 0 130.5 -47.5
t50.5 -124.5zM1149 1757q0 -78 -49 -124t-131 -46q-83 0 -134 46.5t-51 123.5q0 78 51.5 125t133.5 47t131 -47t49 -125zM377 2290h332l186 -287l-219 -16z" />
    <glyph glyph-name="uni01DC" unicode="&#x1dc;" horiz-adv-x="1183" 
d="M422 1067v-674q0 -87 31 -126.5t104 -39.5q54 0 109.5 26t93.5 58v756h309v-1067h-266l-23 115q-59 -65 -146.5 -101.5t-193.5 -36.5q-327 0 -327 355v735h309zM537 1391q0 -77 -50.5 -123.5t-130.5 -46.5q-83 0 -134.5 46.5t-51.5 123.5t52 124.5t134 47.5
q80 0 130.5 -47.5t50.5 -124.5zM1018 1391q0 -78 -49 -124t-131 -46q-83 0 -134 46.5t-51 123.5q0 78 51.5 125t133.5 47t131 -47t49 -125zM250 1915h332l186 -287l-219 -16z" />
    <glyph glyph-name="uni01DD" unicode="&#x1dd;" horiz-adv-x="1120" 
d="M530 -25q-234 0 -346 130.5t-112 359.5q0 86 6 121h647q-1 149 -53.5 211.5t-159.5 62.5q-79 0 -122.5 -38t-61.5 -113l-252 59q31 151 148 236.5t306 85.5q115 0 205.5 -30.5t149 -82t96.5 -124t54 -151.5t16 -170q0 -139 -41 -247.5t-113 -175t-165 -100.5t-202 -34z
M545 186q74 0 125.5 56t52.5 172h-332q-3 -228 154 -228z" />
    <glyph glyph-name="uni01DE" unicode="&#x1de;" horiz-adv-x="1443" 
d="M1423 0h-346l-123 360h-493l-115 -360h-326l486 1483h393zM696 1186l-182 -574h375l-184 574h-9zM647 1757q0 -77 -50 -123.5t-130 -46.5q-83 0 -134.5 46.5t-51.5 123.5t52 124.5t134 47.5q80 0 130 -47t50 -125zM1128 1757q0 -78 -49 -124t-131 -46t-133 46.5
t-51 123.5q0 78 51 125t133 47t131 -47t49 -125zM381 2230h649v-211h-649v211z" />
    <glyph glyph-name="uni01DF" unicode="&#x1df;" horiz-adv-x="1140" 
d="M985 266q0 -44 13.5 -63t50.5 -19q19 0 63 13l8 -179q-34 -15 -92 -28t-104 -13q-95 0 -148.5 31.5t-70.5 104.5q-107 -138 -318 -138q-77 0 -135.5 20t-92 50t-54.5 70t-28 75t-7 70q0 68 20 123.5t53 94t82.5 67t101 45t115.5 26.5t120 13.5t120 3.5v39q0 86 -25 141
q-24 53 -127 53q-73 0 -108 -33.5t-53 -113.5l-263 51q26 158 133.5 239t317.5 81q217 0 322.5 -89.5t105.5 -287.5v-447zM635 453q-254 0 -254 -142q0 -116 125 -116q52 0 101.5 21t76.5 48v189h-49zM489 1391q0 -77 -50 -123.5t-130 -46.5q-83 0 -134.5 46.5t-51.5 123.5
t52 124.5t134 47.5q80 0 130 -47t50 -125zM971 1391q0 -78 -49 -124t-131 -46q-83 0 -134 46.5t-51 123.5q0 78 51.5 125t133.5 47t131 -47t49 -125zM223 1864h649v-211h-649v211z" />
    <glyph glyph-name="uni01E0" unicode="&#x1e0;" horiz-adv-x="1443" 
d="M1423 0h-346l-123 360h-493l-115 -360h-326l486 1483h393zM696 1186l-182 -574h375l-184 574h-9zM895 1763q0 -91 -48 -140.5t-138 -49.5q-88 0 -136.5 49.5t-48.5 140.5q0 90 48.5 137.5t136.5 47.5q91 0 138.5 -47t47.5 -138zM387 2236h649v-211h-649v211z" />
    <glyph glyph-name="uni01E1" unicode="&#x1e1;" horiz-adv-x="1140" 
d="M985 266q0 -44 13.5 -63t50.5 -19q19 0 63 13l8 -179q-34 -15 -92 -28t-104 -13q-95 0 -148.5 31.5t-70.5 104.5q-107 -138 -318 -138q-77 0 -135.5 20t-92 50t-54.5 70t-28 75t-7 70q0 68 20 123.5t53 94t82.5 67t101 45t115.5 26.5t120 13.5t120 3.5v39q0 86 -25 141
q-24 53 -127 53q-73 0 -108 -33.5t-53 -113.5l-263 51q26 158 133.5 239t317.5 81q217 0 322.5 -89.5t105.5 -287.5v-447zM635 453q-254 0 -254 -142q0 -116 125 -116q52 0 101.5 21t76.5 48v189h-49zM735 1397q0 -89 -48 -139t-138 -50q-87 0 -135.5 50.5t-48.5 138.5
q0 90 48 138t136 48q91 0 138.5 -47.5t47.5 -138.5zM223 1909h649v-211h-649v211z" />
    <glyph glyph-name="uni01E2" unicode="&#x1e2;" horiz-adv-x="2052" 
d="M1982 266v-266h-978v586h-365l-279 -586h-333l723 1483h1194v-266h-625v-371h588v-256h-588v-324h663zM915 1217l-184 -381h273v381h-89zM1004 1817h649v-211h-649v211z" />
    <glyph glyph-name="uni01E3" unicode="&#x1e3;" horiz-adv-x="1716" 
d="M1188 -25q-266 0 -397 160q-166 -160 -392 -160q-80 0 -141 20t-95.5 50t-56.5 70.5t-29 74.5t-7 70q0 70 19.5 125.5t51 93.5t80 66t98.5 44t116 25t121.5 12t125.5 3v43q0 86 -25 141q-24 53 -127 53q-73 0 -108 -33.5t-53 -113.5l-263 51q26 158 133.5 239t317.5 81
q110 0 183 -34.5t120 -111.5q54 67 147 106.5t199 39.5q222 0 331.5 -131.5t109.5 -362.5q0 -84 -7 -129h-649q1 -134 56 -193t159 -59q80 0 119.5 39t54.5 113l260 -64q-30 -152 -147.5 -240t-304.5 -88zM506 195q51 0 111 23t98 58q-28 84 -37 177h-43q-254 0 -254 -142
q0 -116 125 -116zM1327 653q4 113 -36.5 163t-119.5 50q-74 0 -124.5 -52t-51.5 -161h332zM580 1440h637v-209h-637v209z" />
    <glyph glyph-name="uni01E4" unicode="&#x1e4;" horiz-adv-x="1531" 
d="M1130 182q-44 -98 -162 -152.5t-261 -54.5q-163 0 -285.5 55t-197 155.5t-110.5 233.5t-36 298q0 241 80 418t243.5 275.5t395.5 98.5q124 0 224.5 -29t179 -89.5t125.5 -161.5t56 -238l-295 -28q-6 64 -23 112.5t-50 89.5t-89 62.5t-134 21.5q-192 0 -288.5 -131
t-96.5 -373q0 -265 90 -390.5t284 -125.5q144 0 223.5 73.5t79.5 184.5v54h-270v231h582v-194h157v-228h-157v-350h-230z" />
    <glyph glyph-name="uni01E5" unicode="&#x1e5;" horiz-adv-x="1171" 
d="M1081 23q0 -56 -10 -121h133v-215h-235q-132 -144 -430 -144q-410 0 -461 289l272 76q19 -67 64 -102t133 -35q117 0 171 54.5t54 180.5v94q-120 -110 -295 -110q-194 0 -305 132.5t-111 403.5q0 121 26.5 218t70 160.5t102.5 106t122.5 61t131.5 18.5q177 0 283 -125
l30 102h254v-1044zM590 229q93 0 182 78v477q-33 28 -80.5 47t-95.5 19q-108 0 -159.5 -87t-51.5 -237q0 -297 205 -297z" />
    <glyph glyph-name="Gcaron" unicode="&#x1e6;" horiz-adv-x="1513" 
d="M1130 182q-44 -98 -162 -152.5t-261 -54.5q-163 0 -285.5 55t-197 155.5t-110.5 233.5t-36 298q0 241 80 418t243.5 275.5t395.5 98.5q124 0 224.5 -29t179 -89.5t125.5 -161.5t56 -238l-295 -28q-6 64 -23 112.5t-50 89.5t-89 62.5t-134 21.5q-192 0 -288.5 -131
t-96.5 -373q0 -265 90 -390.5t284 -125.5q144 0 223.5 73.5t79.5 184.5v54h-270v231h582v-772h-230zM944 1882l209 -14l-219 -291h-287l-209 291l205 12l148 -147z" />
    <glyph glyph-name="gcaron" unicode="&#x1e7;" horiz-adv-x="1146" 
d="M561 1090q188 0 283 -66q79 162 196 162q37 0 86 -19v-202q-89 8 -176 -17q88 -95 88 -239q0 -176 -130.5 -279.5t-338.5 -103.5q-97 0 -178 22q-39 -39 -39 -65q0 -25 21.5 -38.5t75.5 -17.5l303 -18q179 -11 268.5 -81.5t89.5 -225.5q0 -96 -42.5 -167t-119.5 -113
t-175.5 -62.5t-219.5 -20.5q-143 0 -244.5 18t-159.5 52t-84 77.5t-26 100.5q0 74 51.5 125t140.5 68v8q-155 46 -155 180q0 73 40 124.5t126 113.5q-74 42 -115 116t-41 172q0 176 126.5 286t348.5 110zM756 711q0 161 -183 161q-88 0 -141 -39.5t-53 -121.5
q0 -164 190 -164q86 0 136.5 43.5t50.5 120.5zM809 -154q0 36 -27 58t-104 26l-297 19q-64 -44 -64 -103q0 -108 261 -108q74 0 122 8t78.5 33t30.5 67zM557 1327l156 193l202 -13l-215 -336h-294l-207 336l209 11z" />
    <glyph glyph-name="uni01E8" unicode="&#x1e8;" horiz-adv-x="1378" 
d="M1040 1483h336l-542 -617l534 -866h-369l-391 621l-143 -156v-465h-313v1483h313v-635zM850 1882l209 -14l-219 -291h-287l-209 291l205 12l147 -147z" />
    <glyph glyph-name="uni01E9" unicode="&#x1e9;" horiz-adv-x="1155" 
d="M782 1067h342l-354 -383l381 -684h-342l-277 487l-102 -100v-387h-309v1546h309v-852zM426 1903l209 -15l-219 -291h-287l-209 291l205 13l147 -148z" />
    <glyph glyph-name="uni01EA" unicode="&#x1ea;" horiz-adv-x="1556" 
d="M825 -489q-116 0 -176.5 51.5t-60.5 146.5q0 138 157 266q-139 4 -250 42t-188.5 105t-129 161t-75.5 206.5t-24 245.5q0 167 46.5 307.5t135 245t227 163t314.5 58.5q175 0 308 -58t213 -161.5t119.5 -235.5t39.5 -290q0 -309 -126.5 -508t-377.5 -258
q-84 -80 -122 -132.5t-38 -107.5q0 -67 64 -67q63 0 98 84l133 -62q-32 -96 -110 -149t-177 -53zM780 227q176 0 275.5 124t99.5 394q0 260 -93 386t-267 126q-186 0 -289 -127.5t-103 -388.5q0 -514 377 -514z" />
    <glyph glyph-name="uni01EB" unicode="&#x1eb;" horiz-adv-x="1202" 
d="M625 -489q-116 0 -177 51.5t-61 146.5q0 137 160 268q-477 22 -477 551q0 264 138 413t410 149q137 0 237.5 -39.5t160.5 -112.5t88.5 -169t28.5 -218q0 -461 -359 -555q-44 -44 -65 -66.5t-47 -55.5t-36 -60t-10 -56q0 -67 64 -67q60 0 98 84l133 -62
q-32 -96 -109.5 -149t-176.5 -53zM604 190q106 0 156.5 79.5t50.5 271.5q0 125 -22.5 197t-65 101t-113.5 29q-110 0 -163.5 -74.5t-53.5 -256.5q0 -188 49 -267.5t162 -79.5z" />
    <glyph glyph-name="uni01EC" unicode="&#x1ec;" horiz-adv-x="1556" 
d="M825 -489q-116 0 -176.5 51.5t-60.5 146.5q0 138 157 266q-139 4 -250 42t-188.5 105t-129 161t-75.5 206.5t-24 245.5q0 167 46.5 307.5t135 245t227 163t314.5 58.5q175 0 308 -58t213 -161.5t119.5 -235.5t39.5 -290q0 -309 -126.5 -508t-377.5 -258
q-84 -80 -122 -132.5t-38 -107.5q0 -67 64 -67q63 0 98 84l133 -62q-32 -96 -110 -149t-177 -53zM780 227q176 0 275.5 124t99.5 394q0 260 -93 386t-267 126q-186 0 -289 -127.5t-103 -388.5q0 -514 377 -514zM477 1817h649v-211h-649v211z" />
    <glyph glyph-name="uni01ED" unicode="&#x1ed;" horiz-adv-x="1202" 
d="M625 -489q-116 0 -177 51.5t-61 146.5q0 137 160 268q-477 22 -477 551q0 264 138 413t410 149q137 0 237.5 -39.5t160.5 -112.5t88.5 -169t28.5 -218q0 -461 -359 -555q-44 -44 -65 -66.5t-47 -55.5t-36 -60t-10 -56q0 -67 64 -67q60 0 98 84l133 -62
q-32 -96 -109.5 -149t-176.5 -53zM604 190q106 0 156.5 79.5t50.5 271.5q0 125 -22.5 197t-65 101t-113.5 29q-110 0 -163.5 -74.5t-53.5 -256.5q0 -188 49 -267.5t162 -79.5zM289 1440h637v-209h-637v209z" />
    <glyph glyph-name="uni01EE" unicode="&#x1ee;" horiz-adv-x="1245" 
d="M549 -502q-236 0 -380.5 109.5t-170.5 322.5l291 56q43 -242 272 -242q148 0 221.5 103.5t73.5 289.5q0 350 -346 350q-106 0 -164 -14v215l426 545h-666v250h1024v-219l-460 -572q236 3 374 -144t138 -398q0 -143 -39.5 -261t-116.5 -206t-199 -136.5t-278 -48.5z
M758 1882l209 -14l-219 -291h-287l-209 291l205 12l147 -147z" />
    <glyph glyph-name="uni01EF" unicode="&#x1ef;" horiz-adv-x="1011" 
d="M434 -461q-187 0 -296 87t-134 259l256 49q12 -77 52.5 -121t125.5 -44q105 0 161 68.5t56 178.5q0 112 -54.5 178t-174.5 66q-89 0 -168 -20v202l328 404h-465v221h784v-209l-352 -420q104 3 183 -28t125.5 -88.5t69.5 -131t23 -161.5q0 -220 -141.5 -355t-378.5 -135z
M510 1327l156 193l202 -13l-215 -336h-295l-206 336l208 11z" />
    <glyph glyph-name="uni01F0" unicode="&#x1f0;" horiz-adv-x="544" 
d="M51 -457q-77 0 -148.5 18t-103.5 40l23 231q90 -41 168 -41q62 0 97.5 35t35.5 125v1116h309v-1151q0 -191 -101 -282t-280 -91zM279 1327l155 193l203 -13l-215 -336h-295l-207 336l209 11z" />
    <glyph glyph-name="uni01F1" unicode="&#x1f1;" horiz-adv-x="2611" 
d="M152 1483h520q374 0 554.5 -188t180.5 -531q0 -173 -46 -311.5t-138.5 -240.5t-241 -157t-344.5 -55h-485v1483zM623 254q247 0 353.5 125.5t106.5 368.5q0 138 -26.5 231.5t-82.5 148.5t-135 78t-194 23h-178v-975h156zM2552 266v-266h-1098v231l703 988h-684v264h1050
v-236l-690 -981h719z" />
    <glyph glyph-name="uni01F2" unicode="&#x1f2;" horiz-adv-x="2437" 
d="M152 1483h520q374 0 554.5 -188t180.5 -531q0 -173 -46 -311.5t-138.5 -240.5t-241 -157t-344.5 -55h-485v1483zM623 254q247 0 353.5 125.5t106.5 368.5q0 138 -26.5 231.5t-82.5 148.5t-135 78t-194 23h-178v-975h156zM2394 248v-248h-856v219l492 617h-488v231h823
v-219l-475 -600h504z" />
    <glyph glyph-name="uni01F3" unicode="&#x1f3;" horiz-adv-x="2160" 
d="M836 0l-19 104l-6 2q-118 -131 -315 -131q-196 0 -308 130.5t-112 406.5q0 124 26 223.5t69 164.5t101.5 108.5t121.5 62.5t132 19q174 0 271 -91v547h297v-1546h-258zM786 784q-79 60 -172 60q-111 0 -163 -86.5t-52 -235.5q0 -303 205 -303q95 0 182 76v489zM2118 248
v-248h-856v219l491 617h-487v231h823v-219l-475 -600h504z" />
    <glyph glyph-name="uni01F4" unicode="&#x1f4;" horiz-adv-x="1513" 
d="M1130 182q-44 -98 -162 -152.5t-261 -54.5q-163 0 -285.5 55t-197 155.5t-110.5 233.5t-36 298q0 241 80 418t243.5 275.5t395.5 98.5q124 0 224.5 -29t179 -89.5t125.5 -161.5t56 -238l-295 -28q-6 64 -23 112.5t-50 89.5t-89 62.5t-134 21.5q-192 0 -288.5 -131
t-96.5 -373q0 -265 90 -390.5t284 -125.5q144 0 223.5 73.5t79.5 184.5v54h-270v231h582v-772h-230zM590 1589l186 287h332l-299 -303z" />
    <glyph glyph-name="uni01F5" unicode="&#x1f5;" horiz-adv-x="1146" 
d="M561 1090q188 0 283 -66q79 162 196 162q37 0 86 -19v-202q-89 8 -176 -17q88 -95 88 -239q0 -176 -130.5 -279.5t-338.5 -103.5q-97 0 -178 22q-39 -39 -39 -65q0 -25 21.5 -38.5t75.5 -17.5l303 -18q179 -11 268.5 -81.5t89.5 -225.5q0 -96 -42.5 -167t-119.5 -113
t-175.5 -62.5t-219.5 -20.5q-143 0 -244.5 18t-159.5 52t-84 77.5t-26 100.5q0 74 51.5 125t140.5 68v8q-155 46 -155 180q0 73 40 124.5t126 113.5q-74 42 -115 116t-41 172q0 176 126.5 286t348.5 110zM756 711q0 161 -183 161q-88 0 -141 -39.5t-53 -121.5
q0 -164 190 -164q86 0 136.5 43.5t50.5 120.5zM809 -154q0 36 -27 58t-104 26l-297 19q-64 -44 -64 -103q0 -108 261 -108q74 0 122 8t78.5 33t30.5 67zM410 1190l153 332h330l-277 -351z" />
    <glyph glyph-name="uni01F8" unicode="&#x1f8;" horiz-adv-x="1525" 
d="M440 1047v-1047h-288v1483h376l562 -1051v1051h286v-1483h-364zM774 1942l152 -332l-207 -19l-277 351h332z" />
    <glyph glyph-name="uni01F9" unicode="&#x1f9;" horiz-adv-x="1193" 
d="M776 0v676q0 86 -34 125t-107 39q-58 0 -116 -25.5t-93 -58.5v-756h-309v1067h274l17 -106q143 129 340 129q175 0 256 -88t81 -273v-729h-309zM584 1522l151 -332l-207 -19l-276 351h332z" />
    <glyph glyph-name="Aringacute" unicode="&#x1fa;" horiz-adv-x="1452" 
d="M967 1634q0 -99 -56 -161l521 -1473h-347l-122 360h-494l-115 -360h-325l479 1468q-55 61 -55 156q0 119 73 183.5t183 64.5q111 0 184.5 -62t73.5 -176zM705 1186l-183 -574h375l-184 574h-8zM543 1944l186 286h332l-299 -303zM709 1530q49 0 76.5 27t27.5 81
q0 103 -104 103q-50 0 -80.5 -26.5t-30.5 -78.5q0 -53 29.5 -79.5t81.5 -26.5z" />
    <glyph glyph-name="aringacute" unicode="&#x1fb;" horiz-adv-x="1142" 
d="M985 266q0 -44 13.5 -63t50.5 -19q19 0 63 13l8 -179q-34 -15 -92 -28t-104 -13q-95 0 -148.5 31.5t-70.5 104.5q-107 -138 -318 -138q-77 0 -135.5 20t-92 50t-54.5 70t-28 75t-7 70q0 68 20 123.5t53 94t82.5 67t101 45t115.5 26.5t120 13.5t120 3.5v39q0 86 -25 141
q-24 53 -127 53q-73 0 -108 -33.5t-53 -113.5l-263 51q26 158 133.5 239t317.5 81q217 0 322.5 -89.5t105.5 -287.5v-447zM635 453q-254 0 -254 -142q0 -116 125 -116q52 0 101.5 21t76.5 48v189h-49zM784 1376q0 -102 -63 -158.5t-168 -56.5q-102 0 -165.5 55t-63.5 152
q0 106 66 164.5t163 58.5q101 0 166 -56.5t65 -158.5zM553 1284q42 0 66 24t24 68q0 42 -24 64t-66 22q-40 0 -66 -23.5t-26 -64.5q0 -43 25 -66.5t67 -23.5zM365 1663l186 287h332l-299 -303z" />
    <glyph glyph-name="AEacute" unicode="&#x1fc;" horiz-adv-x="2054" 
d="M1982 266v-266h-978v586h-365l-279 -586h-333l723 1483h1194v-266h-625v-371h588v-256h-588v-324h663zM915 1217l-184 -381h273v381h-89zM1178 1589l186 287h332l-299 -303z" />
    <glyph glyph-name="aeacute" unicode="&#x1fd;" horiz-adv-x="1716" 
d="M1188 -25q-266 0 -397 160q-166 -160 -392 -160q-80 0 -141 20t-95.5 50t-56.5 70.5t-29 74.5t-7 70q0 70 19.5 125.5t51 93.5t80 66t98.5 44t116 25t121.5 12t125.5 3v43q0 86 -25 141q-24 53 -127 53q-73 0 -108 -33.5t-53 -113.5l-263 51q26 158 133.5 239t317.5 81
q110 0 183 -34.5t120 -111.5q54 67 147 106.5t199 39.5q222 0 331.5 -131.5t109.5 -362.5q0 -84 -7 -129h-649q1 -134 56 -193t159 -59q80 0 119.5 39t54.5 113l260 -64q-30 -152 -147.5 -240t-304.5 -88zM506 195q51 0 111 23t98 58q-28 84 -37 177h-43q-254 0 -254 -142
q0 -116 125 -116zM1327 653q4 113 -36.5 163t-119.5 50q-74 0 -124.5 -52t-51.5 -161h332zM723 1190l154 332h329l-276 -351z" />
    <glyph glyph-name="Oslashacute" unicode="&#x1fe;" horiz-adv-x="1556" 
d="M768 -25q-76 0 -156 13l-55 -135h-293l94 229q-280 185 -280 653q0 167 46.5 307.5t135 245t227 163t314.5 58.5q79 0 147 -12l56 129h290l-94 -225q142 -95 211.5 -261t69.5 -376q0 -181 -44 -325.5t-131 -248.5t-223.5 -159.5t-314.5 -55.5zM403 741q0 -226 82 -358
l357 856q-28 4 -47 4q-185 0 -288.5 -125.5t-103.5 -376.5zM780 242q176 0 275.5 120t99.5 383q0 226 -80 355l-356 -856q23 -2 61 -2zM610 1630l187 287h331l-299 -303z" />
    <glyph glyph-name="oslashacute" unicode="&#x1ff;" horiz-adv-x="1202" 
d="M590 -25q-58 0 -133 11l-58 -133h-217l88 202q-200 132 -200 473q0 264 138 413t410 149q58 0 107 -9l53 119h215l-80 -180q220 -126 220 -469q0 -271 -133 -423.5t-410 -152.5zM453 1190l153 332h330l-277 -351zM604 205q106 0 156.5 77.5t50.5 258.5q0 119 -25 192
l-231 -524q32 -4 49 -4zM393 537q0 -107 15 -172l217 491h-15q-108 0 -162.5 -75.5t-54.5 -243.5z" />
    <glyph glyph-name="uni0200" unicode="&#x200;" horiz-adv-x="1443" 
d="M1423 0h-346l-123 360h-493l-115 -360h-326l486 1483h393zM696 1186l-182 -574h375l-184 574h-9zM141 1884h332l191 -293l-209 -18zM557 1874h315l101 -277l-197 -24z" />
    <glyph glyph-name="uni0201" unicode="&#x201;" horiz-adv-x="1142" 
d="M985 266q0 -44 13.5 -63t50.5 -19q19 0 63 13l8 -179q-34 -15 -92 -28t-104 -13q-95 0 -148.5 31.5t-70.5 104.5q-107 -138 -318 -138q-77 0 -135.5 20t-92 50t-54.5 70t-28 75t-7 70q0 68 20 123.5t53 94t82.5 67t101 45t115.5 26.5t120 13.5t120 3.5v39q0 86 -25 141
q-24 53 -127 53q-73 0 -108 -33.5t-53 -113.5l-263 51q26 158 133.5 239t317.5 81q217 0 322.5 -89.5t105.5 -287.5v-447zM635 453q-254 0 -254 -142q0 -116 125 -116q52 0 101.5 21t76.5 48v189h-49zM0 1530h332l174 -340l-207 -19zM412 1522h315l92 -326l-196 -25z" />
    <glyph glyph-name="uni0202" unicode="&#x202;" horiz-adv-x="1443" 
d="M1423 0h-346l-123 360h-493l-115 -360h-326l486 1483h393zM696 1186l-182 -574h375l-184 574h-9zM356 1593q17 158 112 234t251 76q155 0 244 -75t96 -231l-205 -20q-12 77 -45 109t-100 32q-65 0 -101 -30.5t-53 -106.5z" />
    <glyph glyph-name="uni0203" unicode="&#x203;" horiz-adv-x="1142" 
d="M985 266q0 -44 13.5 -63t50.5 -19q19 0 63 13l8 -179q-34 -15 -92 -28t-104 -13q-95 0 -148.5 31.5t-70.5 104.5q-107 -138 -318 -138q-77 0 -135.5 20t-92 50t-54.5 70t-28 75t-7 70q0 68 20 123.5t53 94t82.5 67t101 45t115.5 26.5t120 13.5t120 3.5v39q0 86 -25 141
q-24 53 -127 53q-73 0 -108 -33.5t-53 -113.5l-263 51q26 158 133.5 239t317.5 81q217 0 322.5 -89.5t105.5 -287.5v-447zM635 453q-254 0 -254 -142q0 -116 125 -116q52 0 101.5 21t76.5 48v189h-49zM702 1167q-10 87 -44.5 123.5t-102.5 36.5q-72 0 -109 -35t-49 -123
l-196 13q12 166 107 247.5t255 81.5q158 0 247.5 -79t96.5 -244z" />
    <glyph glyph-name="uni0204" unicode="&#x204;" horiz-adv-x="1193" 
d="M1128 266v-266h-976v1483h940v-264h-625v-349h588v-258h-588v-346h661zM66 1884h331l191 -293l-209 -18zM481 1874h316l100 -277l-197 -24z" />
    <glyph glyph-name="uni0205" unicode="&#x205;" horiz-adv-x="1120" 
d="M592 -25q-115 0 -205.5 30.5t-149 81.5t-97 123t-54.5 151t-16 169q0 140 41 249t113 176t165 101t203 34q236 0 347.5 -130.5t111.5 -363.5q0 -94 -7 -139h-649q4 -127 58 -184.5t157 -57.5q80 0 119.5 39t54.5 113l260 -64q-30 -152 -147.5 -240t-304.5 -88zM731 653
q0 112 -39 162.5t-117 50.5q-74 0 -124.5 -52t-51.5 -161h332zM33 1530h332l174 -340l-207 -19zM444 1522h316l92 -326l-197 -25z" />
    <glyph glyph-name="uni0206" unicode="&#x206;" horiz-adv-x="1193" 
d="M1128 266v-266h-976v1483h940v-264h-625v-349h588v-258h-588v-346h661zM281 1593q17 159 111.5 234.5t250.5 75.5q155 0 244 -75t96 -231l-205 -20q-12 77 -45 109t-100 32q-65 0 -101 -30.5t-53 -106.5z" />
    <glyph glyph-name="uni0207" unicode="&#x207;" horiz-adv-x="1120" 
d="M592 -25q-115 0 -205.5 30.5t-149 81.5t-97 123t-54.5 151t-16 169q0 140 41 249t113 176t165 101t203 34q236 0 347.5 -130.5t111.5 -363.5q0 -94 -7 -139h-649q4 -127 58 -184.5t157 -57.5q80 0 119.5 39t54.5 113l260 -64q-30 -152 -147.5 -240t-304.5 -88zM731 653
q0 112 -39 162.5t-117 50.5q-74 0 -124.5 -52t-51.5 -161h332zM735 1167q-10 87 -44.5 123.5t-102.5 36.5q-72 0 -109 -35t-49 -123l-197 13q12 166 107.5 247.5t255.5 81.5q158 0 247.5 -79t96.5 -244z" />
    <glyph glyph-name="uni0208" unicode="&#x208;" horiz-adv-x="618" 
d="M152 0v1483h315v-1483h-315zM-254 1884h332l190 -293l-209 -18zM162 1874h315l101 -277l-197 -24z" />
    <glyph glyph-name="uni0209" unicode="&#x209;" horiz-adv-x="548" 
d="M123 0v1067h309v-1067h-309zM-276 1530h331l174 -340l-206 -19zM135 1522h316l92 -326l-197 -25z" />
    <glyph glyph-name="uni020A" unicode="&#x20a;" horiz-adv-x="618" 
d="M152 0v1483h315v-1483h-315zM-39 1593q17 158 112 234t251 76q155 0 244 -75t96 -231l-205 -20q-12 77 -45.5 109t-100.5 32q-65 0 -100.5 -30.5t-52.5 -106.5z" />
    <glyph glyph-name="uni020B" unicode="&#x20b;" horiz-adv-x="548" 
d="M123 0v1067h309v-1067h-309zM426 1167q-10 87 -44.5 123.5t-102.5 36.5q-72 0 -109 -35t-49 -123l-197 13q12 166 107.5 247.5t255.5 81.5q158 0 247.5 -79t96.5 -244z" />
    <glyph glyph-name="uni020C" unicode="&#x20c;" horiz-adv-x="1556" 
d="M768 -25q-145 0 -260.5 37t-195 103.5t-133 162t-77.5 209t-24 248.5q0 167 46.5 307.5t135 245t227 163t314.5 58.5q175 0 308 -58t213 -161.5t119.5 -235.5t39.5 -290q0 -181 -44 -325.5t-131 -248.5t-223.5 -159.5t-314.5 -55.5zM780 242q176 0 275.5 120t99.5 383
q0 251 -93 374.5t-267 123.5q-185 0 -288.5 -125.5t-103.5 -376.5q0 -257 98.5 -378t278.5 -121zM229 1884h332l191 -293l-209 -18zM645 1874h316l100 -277l-197 -24z" />
    <glyph glyph-name="uni020D" unicode="&#x20d;" horiz-adv-x="1202" 
d="M590 -25q-141 0 -243.5 41t-162 117t-87 173.5t-27.5 221.5q0 264 138 413t410 149q137 0 237.5 -39.5t160.5 -112.5t88.5 -169t28.5 -218q0 -271 -133 -423.5t-410 -152.5zM604 205q106 0 156.5 77.5t50.5 258.5q0 173 -48 244t-153 71q-108 0 -162.5 -75.5
t-54.5 -243.5q0 -178 49 -255t162 -77zM59 1530h332l174 -340l-207 -19zM471 1522h315l93 -326l-197 -25z" />
    <glyph glyph-name="uni020E" unicode="&#x20e;" horiz-adv-x="1556" 
d="M768 -25q-145 0 -260.5 37t-195 103.5t-133 162t-77.5 209t-24 248.5q0 167 46.5 307.5t135 245t227 163t314.5 58.5q175 0 308 -58t213 -161.5t119.5 -235.5t39.5 -290q0 -181 -44 -325.5t-131 -248.5t-223.5 -159.5t-314.5 -55.5zM780 242q176 0 275.5 120t99.5 383
q0 251 -93 374.5t-267 123.5q-185 0 -288.5 -125.5t-103.5 -376.5q0 -257 98.5 -378t278.5 -121zM444 1593q17 158 112 234t251 76q155 0 244 -75t96 -231l-205 -20q-12 77 -45 109t-100 32q-65 0 -101 -30.5t-53 -106.5z" />
    <glyph glyph-name="uni020F" unicode="&#x20f;" horiz-adv-x="1202" 
d="M590 -25q-141 0 -243.5 41t-162 117t-87 173.5t-27.5 221.5q0 264 138 413t410 149q137 0 237.5 -39.5t160.5 -112.5t88.5 -169t28.5 -218q0 -271 -133 -423.5t-410 -152.5zM604 205q106 0 156.5 77.5t50.5 258.5q0 173 -48 244t-153 71q-108 0 -162.5 -75.5
t-54.5 -243.5q0 -178 49 -255t162 -77zM762 1167q-10 87 -45 123.5t-103 36.5q-71 0 -108 -35t-49 -123l-197 13q12 166 107.5 247.5t255.5 81.5q158 0 247.5 -79t96.5 -244z" />
    <glyph glyph-name="uni0210" unicode="&#x210;" horiz-adv-x="1314" 
d="M961 0l-293 563h-203v-563h-313v1483h577q108 0 193 -22.5t140 -61t91.5 -92.5t52 -113.5t15.5 -128.5q0 -304 -256 -424l335 -641h-339zM627 811q112 0 188 49q80 50 80 174q0 104 -63 149.5t-193 45.5h-174v-418h162zM55 1884h332l191 -293l-209 -18zM471 1874h315
l101 -277l-197 -24z" />
    <glyph glyph-name="uni0211" unicode="&#x211;" horiz-adv-x="804" 
d="M793 786q-103 10 -201 -15.5t-166 -80.5v-690h-309v1067h264l22 -168q132 191 336 191q27 0 54 -3v-301zM-82 1530h332l174 -340l-207 -19zM330 1522h315l92 -326l-196 -25z" />
    <glyph glyph-name="uni0212" unicode="&#x212;" horiz-adv-x="1314" 
d="M961 0l-293 563h-203v-563h-313v1483h577q108 0 193 -22.5t140 -61t91.5 -92.5t52 -113.5t15.5 -128.5q0 -304 -256 -424l335 -641h-339zM627 811q112 0 188 49q80 50 80 174q0 104 -63 149.5t-193 45.5h-174v-418h162zM270 1593q17 158 112 234t251 76q155 0 244 -75
t96 -231l-205 -20q-12 77 -45 109t-100 32q-65 0 -101 -30.5t-53 -106.5z" />
    <glyph glyph-name="uni0213" unicode="&#x213;" horiz-adv-x="804" 
d="M793 786q-103 10 -201 -15.5t-166 -80.5v-690h-309v1067h264l22 -168q132 191 336 191q27 0 54 -3v-301zM621 1167q-10 87 -45 123.5t-103 36.5q-72 0 -109 -35t-49 -123l-196 13q12 166 107 247.5t255 81.5q158 0 247.5 -79t96.5 -244z" />
    <glyph glyph-name="uni0214" unicode="&#x214;" horiz-adv-x="1449" 
d="M729 240q154 0 212 77.5t58 262.5v903h316v-948q0 -286 -155 -423t-443 -137q-305 0 -444.5 137.5t-139.5 430.5v940h318v-897q0 -182 60 -264t218 -82zM162 1884h332l190 -293l-209 -18zM578 1874h315l100 -277l-196 -24z" />
    <glyph glyph-name="uni0215" unicode="&#x215;" horiz-adv-x="1183" 
d="M422 1067v-674q0 -87 31 -126.5t104 -39.5q54 0 109.5 26t93.5 58v756h309v-1067h-266l-23 115q-59 -65 -146.5 -101.5t-193.5 -36.5q-327 0 -327 355v735h309zM41 1530h332l174 -340l-207 -19zM453 1522h315l92 -326l-196 -25z" />
    <glyph glyph-name="uni0216" unicode="&#x216;" horiz-adv-x="1449" 
d="M729 240q154 0 212 77.5t58 262.5v903h316v-948q0 -286 -155 -423t-443 -137q-305 0 -444.5 137.5t-139.5 430.5v940h318v-897q0 -182 60 -264t218 -82zM377 1593q17 159 111.5 234.5t250.5 75.5q155 0 244 -75t96 -231l-205 -20q-12 77 -45 109t-100 32
q-65 0 -101 -30.5t-53 -106.5z" />
    <glyph glyph-name="uni0217" unicode="&#x217;" horiz-adv-x="1183" 
d="M422 1067v-674q0 -87 31 -126.5t104 -39.5q54 0 109.5 26t93.5 58v756h309v-1067h-266l-23 115q-59 -65 -146.5 -101.5t-193.5 -36.5q-327 0 -327 355v735h309zM743 1167q-10 87 -44.5 123.5t-102.5 36.5q-72 0 -109 -35t-49 -123l-196 13q12 166 107 247.5t255 81.5
q158 0 247.5 -79t96.5 -244z" />
    <glyph glyph-name="uni0218" unicode="&#x218;" horiz-adv-x="1220" 
d="M614 1266q-110 0 -165.5 -42t-55.5 -116q0 -38 17.5 -69t41.5 -51.5t70 -40t79.5 -30.5t94.5 -28q47 -13 73 -21t71.5 -24t72.5 -29t65.5 -34.5t61.5 -43.5t49 -53t40.5 -65.5t24 -79t9.5 -95.5q0 -122 -46.5 -214.5t-127 -146.5t-179.5 -81t-214 -27q-540 0 -573 471
l286 43q8 -48 19 -83t33 -71t52.5 -58.5t79 -37t111.5 -14.5q109 0 177.5 43.5t68.5 139.5q0 27 -9 50.5t-21.5 40.5t-38.5 33t-45 26t-57.5 22t-60 18t-67.5 18q-169 46 -238 79q-175 81 -219 240q-16 58 -16 128q0 141 73.5 243.5t194 152.5t272.5 50q85 0 155 -11
t138 -40.5t116.5 -77t80.5 -125.5t39 -180l-289 -33q-8 111 -63.5 167.5t-180.5 56.5zM780 -139l-170 -422l-211 31l95 391h286z" />
    <glyph glyph-name="uni0219" unicode="&#x219;" horiz-adv-x="1026" 
d="M498 -25q-200 0 -313 73.5t-140 209.5l250 86q11 -36 24 -61.5t36.5 -50.5t62 -38.5t90.5 -13.5q162 0 162 105q0 24 -10.5 42.5t-26 31t-44.5 22.5t-55.5 16.5t-68.5 14.5q-151 29 -215 59q-167 84 -170 272q0 112 62.5 192.5t161 117.5t220.5 37q345 0 426 -287
l-248 -74q-21 76 -62 116t-120 40q-72 0 -108.5 -28t-36.5 -75q0 -25 11.5 -43.5t26 -29.5t48.5 -21.5t57.5 -15.5t75.5 -15q39 -7 60 -11.5t58 -13.5t58 -17.5t52 -23t49 -30t39 -39t32.5 -50t19 -62t7.5 -76.5q0 -174 -131.5 -266.5t-339.5 -92.5zM682 -139l-170 -422
l-211 31l94 391h287z" />
    <glyph glyph-name="uni021A" unicode="&#x21a;" horiz-adv-x="1218" 
d="M453 1217h-437v266h1186v-266h-432v-1217h-317v1217zM772 -139l-170 -422l-211 31l94 391h287z" />
    <glyph glyph-name="uni021B" unicode="&#x21b;" horiz-adv-x="843" 
d="M827 51q-43 -29 -130 -52.5t-183 -23.5q-170 0 -255 83.5t-85 263.5v520h-160v225h160v315l309 41v-356h283v-225h-283v-477q0 -73 27.5 -108.5t97.5 -35.5q45 0 94 14.5t82 34.5zM637 -139l-170 -422l-211 31l94 391h287z" />
    <glyph glyph-name="uni021E" unicode="&#x21e;" horiz-adv-x="1501" 
d="M1034 0v608h-567v-608h-315v1483h315v-602h567v602h318v-1483h-318zM903 1882l209 -14l-219 -291h-287l-209 291l205 12l148 -147z" />
    <glyph glyph-name="uni021F" unicode="&#x21f;" horiz-adv-x="1193" 
d="M776 0v674q0 86 -34 125t-107 39q-58 0 -116 -25.5t-93 -58.5v-754h-309v1546h307v-577q156 121 330 121q171 0 251 -88.5t80 -272.5v-729h-309zM420 1913l209 -15l-219 -290h-287l-209 290l205 13l147 -148z" />
    <glyph glyph-name="uni0220" unicode="&#x220;" horiz-adv-x="1400" 
d="M954 1004q0 123 -48.5 191.5t-164.5 68.5q-83 0 -162.5 -31t-117.5 -66v-1167h-309v1483h272l16 -121q73 62 179.5 102.5t228.5 40.5q223 0 319.5 -116.5t96.5 -339.5v-1485h-310v1440z" />
    <glyph glyph-name="uni0226" unicode="&#x226;" horiz-adv-x="1443" 
d="M1423 0h-346l-123 360h-493l-115 -360h-326l486 1483h393zM696 1186l-182 -574h375l-184 574h-9zM887 1778q0 -91 -48.5 -141t-138.5 -50q-88 0 -136 50t-48 141q0 90 48 137t136 47q91 0 139 -47t48 -137z" />
    <glyph glyph-name="uni0227" unicode="&#x227;" horiz-adv-x="1140" 
d="M985 266q0 -44 13.5 -63t50.5 -19q19 0 63 13l8 -179q-34 -15 -92 -28t-104 -13q-95 0 -148.5 31.5t-70.5 104.5q-107 -138 -318 -138q-77 0 -135.5 20t-92 50t-54.5 70t-28 75t-7 70q0 68 20 123.5t53 94t82.5 67t101 45t115.5 26.5t120 13.5t120 3.5v39q0 86 -25 141
q-24 53 -127 53q-73 0 -108 -33.5t-53 -113.5l-263 51q26 158 133.5 239t317.5 81q217 0 322.5 -89.5t105.5 -287.5v-447zM635 453q-254 0 -254 -142q0 -116 125 -116q52 0 101.5 21t76.5 48v189h-49zM735 1395q0 -89 -48 -139t-138 -50q-87 0 -135.5 50.5t-48.5 138.5
q0 90 48 138t136 48q91 0 138.5 -47.5t47.5 -138.5z" />
    <glyph glyph-name="uni0228" unicode="&#x228;" horiz-adv-x="1193" 
d="M1128 266v-266h-415l-13 -92q174 -31 174 -189q0 -109 -74 -166t-194 -57q-89 0 -168 29l31 143q58 -14 98 -14q48 0 75.5 19.5t27.5 56.5q0 44 -31 58.5t-100 16.5l24 195h-411v1483h940v-264h-625v-349h588v-258h-588v-346h661z" />
    <glyph glyph-name="uni0229" unicode="&#x229;" horiz-adv-x="1120" 
d="M731 653q0 112 -39 162.5t-117 50.5q-74 0 -124.5 -52t-51.5 -161h332zM397 -332q58 -14 99 -14q102 0 102 76q0 44 -31 58.5t-100 16.5l22 177q-115 16 -198.5 66.5t-130.5 126.5t-68.5 163.5t-21.5 191.5q0 140 41 249t113 176t165 101t203 34q236 0 347.5 -130.5
t111.5 -363.5q0 -94 -7 -139h-649q4 -127 58 -184.5t157 -57.5q80 0 119.5 39t54.5 113l260 -64q-27 -142 -132 -229t-273 -97l-10 -69q174 -31 174 -189q0 -109 -74 -166t-194 -57q-89 0 -168 29z" />
    <glyph glyph-name="uni022A" unicode="&#x22a;" horiz-adv-x="1556" 
d="M768 -25q-145 0 -260.5 37t-195 103.5t-133 162t-77.5 209t-24 248.5q0 167 46.5 307.5t135 245t227 163t314.5 58.5q175 0 308 -58t213 -161.5t119.5 -235.5t39.5 -290q0 -181 -44 -325.5t-131 -248.5t-223.5 -159.5t-314.5 -55.5zM780 242q176 0 275.5 120t99.5 383
q0 251 -93 374.5t-267 123.5q-185 0 -288.5 -125.5t-103.5 -376.5q0 -257 98.5 -378t278.5 -121zM735 1757q0 -77 -50 -123.5t-130 -46.5q-83 0 -134.5 46.5t-51.5 123.5t52 124.5t134 47.5q80 0 130 -47t50 -125zM1217 1757q0 -78 -49.5 -124t-131.5 -46t-133 46.5
t-51 123.5q0 78 51 125t133 47t131.5 -47t49.5 -125zM469 2212h649v-211h-649v211z" />
    <glyph glyph-name="uni022B" unicode="&#x22b;" horiz-adv-x="1202" 
d="M590 -25q-141 0 -243.5 41t-162 117t-87 173.5t-27.5 221.5q0 264 138 413t410 149q137 0 237.5 -39.5t160.5 -112.5t88.5 -169t28.5 -218q0 -271 -133 -423.5t-410 -152.5zM604 205q106 0 156.5 77.5t50.5 258.5q0 173 -48 244t-153 71q-108 0 -162.5 -75.5
t-54.5 -243.5q0 -178 49 -255t162 -77zM549 1391q0 -77 -50 -123.5t-130 -46.5q-83 0 -135 46.5t-52 123.5t52.5 124.5t134.5 47.5q80 0 130 -47t50 -125zM1030 1391q0 -78 -49 -124t-131 -46t-133 46.5t-51 123.5q0 78 51 125t133 47t131 -47t49 -125zM283 1866h649v-211
h-649v211z" />
    <glyph glyph-name="uni022C" unicode="&#x22c;" horiz-adv-x="1556" 
d="M768 -25q-145 0 -260.5 37t-195 103.5t-133 162t-77.5 209t-24 248.5q0 167 46.5 307.5t135 245t227 163t314.5 58.5q175 0 308 -58t213 -161.5t119.5 -235.5t39.5 -290q0 -181 -44 -325.5t-131 -248.5t-223.5 -159.5t-314.5 -55.5zM780 242q176 0 275.5 120t99.5 383
q0 251 -93 374.5t-267 123.5q-185 0 -288.5 -125.5t-103.5 -376.5q0 -257 98.5 -378t278.5 -121zM641 1905q57 0 113 -22t104 -44t86 -22q35 0 48.5 19.5t13.5 70.5l155 -9q18 -128 -31 -208t-155 -80q-60 0 -118.5 22.5t-107.5 45t-85 22.5q-35 0 -50 -21t-8 -75l-168 6
q-17 133 40 214t163 81zM469 2220h649v-211h-649v211z" />
    <glyph glyph-name="uni022D" unicode="&#x22d;" horiz-adv-x="1202" 
d="M590 -25q-141 0 -243.5 41t-162 117t-87 173.5t-27.5 221.5q0 264 138 413t410 149q137 0 237.5 -39.5t160.5 -112.5t88.5 -169t28.5 -218q0 -271 -133 -423.5t-410 -152.5zM604 205q106 0 156.5 77.5t50.5 258.5q0 173 -48 244t-153 71q-108 0 -162.5 -75.5
t-54.5 -243.5q0 -178 49 -255t162 -77zM451 1499q57 0 113 -22.5t104 -45t86 -22.5q35 0 48 19.5t13 70.5l156 -8q18 -128 -31.5 -208.5t-155.5 -80.5q-60 0 -118.5 22.5t-107.5 45t-85 22.5q-35 0 -49.5 -21t-7.5 -75l-168 6q-17 133 40 215t163 82zM283 1825h649v-211
h-649v211z" />
    <glyph glyph-name="uni022E" unicode="&#x22e;" horiz-adv-x="1556" 
d="M768 -25q-145 0 -260.5 37t-195 103.5t-133 162t-77.5 209t-24 248.5q0 167 46.5 307.5t135 245t227 163t314.5 58.5q175 0 308 -58t213 -161.5t119.5 -235.5t39.5 -290q0 -181 -44 -325.5t-131 -248.5t-223.5 -159.5t-314.5 -55.5zM780 242q176 0 275.5 120t99.5 383
q0 251 -93 374.5t-267 123.5q-185 0 -288.5 -125.5t-103.5 -376.5q0 -257 98.5 -378t278.5 -121zM979 1778q0 -91 -48 -141t-138 -50q-88 0 -136.5 50t-48.5 141q0 90 48 137t137 47q91 0 138.5 -46.5t47.5 -137.5z" />
    <glyph glyph-name="uni022F" unicode="&#x22f;" horiz-adv-x="1202" 
d="M590 -25q-141 0 -243.5 41t-162 117t-87 173.5t-27.5 221.5q0 264 138 413t410 149q137 0 237.5 -39.5t160.5 -112.5t88.5 -169t28.5 -218q0 -271 -133 -423.5t-410 -152.5zM604 205q106 0 156.5 77.5t50.5 258.5q0 173 -48 244t-153 71q-108 0 -162.5 -75.5
t-54.5 -243.5q0 -178 49 -255t162 -77zM795 1395q0 -89 -48.5 -139t-138.5 -50q-87 0 -135.5 50.5t-48.5 138.5q0 90 48 138t136 48q91 0 139 -47.5t48 -138.5z" />
    <glyph glyph-name="uni0230" unicode="&#x230;" horiz-adv-x="1556" 
d="M768 -25q-145 0 -260.5 37t-195 103.5t-133 162t-77.5 209t-24 248.5q0 167 46.5 307.5t135 245t227 163t314.5 58.5q175 0 308 -58t213 -161.5t119.5 -235.5t39.5 -290q0 -181 -44 -325.5t-131 -248.5t-223.5 -159.5t-314.5 -55.5zM780 242q176 0 275.5 120t99.5 383
q0 251 -93 374.5t-267 123.5q-185 0 -288.5 -125.5t-103.5 -376.5q0 -257 98.5 -378t278.5 -121zM979 1778q0 -91 -48 -141t-138 -50q-88 0 -136.5 50t-48.5 141q0 90 48 137t137 47q91 0 138.5 -46.5t47.5 -137.5zM469 2247h649v-211h-649v211z" />
    <glyph glyph-name="uni0231" unicode="&#x231;" horiz-adv-x="1202" 
d="M590 -25q-141 0 -243.5 41t-162 117t-87 173.5t-27.5 221.5q0 264 138 413t410 149q137 0 237.5 -39.5t160.5 -112.5t88.5 -169t28.5 -218q0 -271 -133 -423.5t-410 -152.5zM604 205q106 0 156.5 77.5t50.5 258.5q0 173 -48 244t-153 71q-108 0 -162.5 -75.5
t-54.5 -243.5q0 -178 49 -255t162 -77zM795 1395q0 -89 -48.5 -139t-138.5 -50q-87 0 -135.5 50.5t-48.5 138.5q0 90 48 138t136 48q91 0 139 -47.5t48 -138.5zM283 1886h649v-211h-649v211z" />
    <glyph glyph-name="uni0232" unicode="&#x232;" horiz-adv-x="1241" 
d="M477 0v555l-514 928h346l326 -635h10l313 635h320l-483 -924v-559h-318zM309 1817h649v-211h-649v211z" />
    <glyph glyph-name="uni0233" unicode="&#x233;" horiz-adv-x="1077" 
d="M326 1067l223 -743h6l215 743h317q-219 -613 -423 -1171q-69 -194 -156.5 -273.5t-245.5 -79.5q-61 0 -128.5 13.5t-104.5 31.5l22 224q105 -33 162 -33q55 0 91.5 27t60.5 88l32 83l-405 1090h334zM229 1440h637v-209h-637v209z" />
    <glyph glyph-name="uni0237" unicode="&#x237;" horiz-adv-x="544" 
d="M51 -457q-77 0 -148.5 18t-103.5 40l23 231q90 -41 168 -41q62 0 97.5 35t35.5 125v1116h309v-1151q0 -191 -101 -282t-280 -91z" />
    <glyph glyph-name="uni0238" unicode="&#x238;" horiz-adv-x="1875" 
d="M496 -25q-196 0 -308 130.5t-112 406.5q0 124 26 223.5t69 164.5t101.5 108.5t121.5 62.5t132 19q160 0 258 -91v547h310v-581q131 125 315 125q67 0 124 -17.5t107 -57.5t85.5 -100.5t56 -151.5t20.5 -206q0 -299 -119 -440.5t-323 -141.5q-181 0 -291 129l-8 -2
l-14 -102h-211l-19 106l-6 3q-121 -134 -315 -134zM604 213q97 0 180 80v493q-76 64 -170 64q-111 0 -163 -89t-52 -241q0 -307 205 -307zM1280 215q199 0 199 334q0 144 -43.5 221.5t-147.5 77.5q-50 0 -102.5 -25t-91.5 -61v-469q92 -78 186 -78z" />
    <glyph glyph-name="uni0239" unicode="&#x239;" horiz-adv-x="1878" 
d="M786 90q-126 -113 -301 -113q-193 0 -301 129t-108 406q0 123 26 222.5t69 164.5t102 109t122.5 63t132.5 19q188 0 285 -129l2 106h234l18 -113q130 136 330 136q90 0 161.5 -29.5t127 -91t86 -167.5t30.5 -249q0 -153 -33.5 -267t-94.5 -180t-136.5 -97.5t-167.5 -31.5
q-94 0 -158 24t-118 71v-506h-308v524zM600 215q48 0 98 22.5t88 55.5v487q-32 31 -80 51.5t-96 20.5q-108 0 -159.5 -88t-51.5 -242q0 -307 201 -307zM1278 217q105 0 153 83.5t48 244.5q0 162 -46.5 234.5t-144.5 72.5q-51 0 -103.5 -25t-90.5 -63v-477q29 -25 81 -47.5
t103 -22.5z" />
    <glyph glyph-name="uni023A" unicode="&#x23a;" horiz-adv-x="1443" 
d="M1423 0h-346l-123 360h-71l-148 -518h-278l157 518h-153l-115 -360h-326l486 1483h393l14 -41l54 184h262l-168 -602zM696 1186l-182 -574h375l-184 574h-9z" />
    <glyph glyph-name="uni023B" unicode="&#x23b;" horiz-adv-x="1423" 
d="M762 -25q-66 0 -152 11l-55 -144h-307l98 240q-268 175 -268 643q0 176 47 320.5t136.5 247.5t225 159.5t306.5 56.5q30 0 84 -4l51 121h309l-86 -205q211 -133 225 -444l-289 -25q-13 157 -84.5 227t-214.5 70q-185 0 -285 -125t-100 -383q0 -264 92 -384.5t271 -120.5
q150 0 222 68.5t99 197.5l285 -49q-14 -103 -57 -185.5t-102.5 -136t-135.5 -89.5t-154 -51.5t-161 -15.5z" />
    <glyph glyph-name="uni023C" unicode="&#x23c;" horiz-adv-x="1114" 
d="M584 -25q-47 0 -70 2l-61 -147h-277l100 225q-103 67 -154.5 186t-51.5 275q0 275 142 424.5t402 149.5q12 0 70 -5l55 127h277l-98 -221q127 -108 141 -305l-277 -41q-8 105 -47.5 156t-126.5 51q-47 0 -83 -13t-67 -45t-48 -93.5t-17 -151.5q0 -178 53.5 -255
t157.5 -77q90 0 137.5 47.5t61.5 147.5l260 -50q-27 -199 -160 -294q-134 -93 -319 -93z" />
    <glyph glyph-name="uni023D" unicode="&#x23d;" horiz-adv-x="1163" 
d="M-8 979h160v504h315v-504h233v-242h-233v-471h635v-266h-950v737h-160v242z" />
    <glyph glyph-name="uni023E" unicode="&#x23e;" horiz-adv-x="1218" 
d="M453 1217h-437v266h811l58 143h307l-57 -143h67v-266h-432v-1217h-246l-67 -158h-295l291 719v656z" />
    <glyph glyph-name="uni023F" unicode="&#x23f;" horiz-adv-x="1026" 
d="M498 -25q-20 0 -88 5q71 -97 122.5 -140t106.5 -43q60 0 113 53l94 -122q-101 -131 -232 -131q-53 0 -101 20.5t-83.5 51.5t-76 84t-70 100.5t-75.5 119.5t-83 123q-62 66 -80 162l250 86q11 -36 24 -61.5t36.5 -50.5t62 -38.5t90.5 -13.5q162 0 162 105q0 24 -10.5 42.5
t-26 31t-44.5 22.5t-55.5 16.5t-68.5 14.5q-151 29 -215 59q-167 84 -170 272q0 112 62.5 192.5t161 117.5t220.5 37q345 0 426 -287l-248 -74q-21 76 -62 116t-120 40q-72 0 -108.5 -28t-36.5 -75q0 -25 11.5 -43.5t26 -29.5t48.5 -21.5t57.5 -15.5t75.5 -15
q39 -7 60 -11.5t58 -13.5t58 -17.5t52 -23t49 -30t39 -39t32.5 -50t19 -62t7.5 -76.5q0 -174 -131.5 -266.5t-339.5 -92.5z" />
    <glyph glyph-name="uni0240" unicode="&#x240;" horiz-adv-x="954" 
d="M913 -231q-44 -75 -110.5 -116.5t-138.5 -41.5q-49 0 -95.5 17t-93 53.5t-74.5 63.5t-75 77q-54 59 -86 90t-82 59.5t-97 28.5h-6v205l492 641h-488v221h824v-207l-559 -725q83 -43 163 -145q57 -69 104.5 -104.5t104.5 -35.5q63 0 121 58z" />
    <glyph glyph-name="uni0241" unicode="&#x241;" horiz-adv-x="1124" 
d="M328 684q78 6 148 30.5t129.5 66.5t94.5 110t35 153q0 218 -192 218q-101 0 -154.5 -50t-71.5 -170l-301 45q25 203 163.5 312.5t383.5 109.5q102 0 189.5 -26t159 -80t112.5 -147.5t41 -217.5q0 -197 -114.5 -342t-313.5 -194v-502h-309v684z" />
    <glyph glyph-name="uni0242" unicode="&#x242;" horiz-adv-x="1120" 
d="M317 322q80 6 147.5 25.5t128 55t95.5 96t35 140.5q0 101 -48.5 155t-131.5 54q-92 0 -143 -51.5t-70 -163.5l-293 47q25 194 158.5 300.5t367.5 106.5q98 0 182 -25.5t153 -77.5t109 -142.5t40 -210.5q0 -193 -109.5 -318.5t-312.5 -173.5v-139h-308v322z" />
    <glyph glyph-name="uni0243" unicode="&#x243;" horiz-adv-x="1339" 
d="M0 549h182v934h588q103 0 181.5 -18.5t128.5 -50t82 -78.5t44.5 -99.5t12.5 -116.5q0 -141 -78.5 -226.5t-202.5 -119.5v-4q174 -20 259 -112.5t85 -249.5q0 -89 -27.5 -158.5t-76 -116t-119.5 -77t-153.5 -43.5t-182.5 -13h-541v317h-182v232zM614 870q49 0 87.5 4
t79 16.5t67.5 33.5t44 58t17 87q0 47 -13 79t-32.5 50t-54.5 27.5t-66 11.5t-81 2h-164v-369h116zM659 244q56 0 96.5 4.5t78.5 16.5t61 33t37 55.5t14 82.5q0 60 -19 100t-57 60t-80 27.5t-100 7.5h-192v-387h161z" />
    <glyph glyph-name="uni0244" unicode="&#x244;" horiz-adv-x="1478" 
d="M731 -25q-305 0 -444.5 137t-139.5 427v194h-141v250h141v500h318v-500h549v500h317v-500h139v-250h-139v-201q0 -144 -42.5 -251.5t-122.5 -174t-189 -99t-246 -32.5zM465 573q0 -185 60 -267.5t218 -82.5q155 0 213 77.5t58 266.5v166h-549v-160z" />
    <glyph glyph-name="uni0245" unicode="&#x245;" horiz-adv-x="1355" 
d="M455 1483h428l479 -1483h-356l-340 1184h-13l-338 -1184h-319z" />
    <glyph glyph-name="uni0246" unicode="&#x246;" horiz-adv-x="1193" 
d="M1128 266v-266h-589l-60 -158h-309l66 158h-84v1483h583l60 143h307l-60 -143h50v-264h-625v-349h588v-258h-588v-346h661z" />
    <glyph glyph-name="uni0247" unicode="&#x247;" horiz-adv-x="1120" 
d="M592 -25q-16 0 -78 5l-61 -150h-277l100 227q-206 143 -206 473q0 140 41 249t113 176t165 101t203 34q39 0 90 -7l57 129h277l-101 -229q136 -124 136 -387q0 -94 -7 -139h-649q4 -127 58 -184.5t157 -57.5q80 0 119.5 39t54.5 113l260 -64q-30 -152 -147.5 -240
t-304.5 -88zM731 653q0 112 -39 162.5t-117 50.5q-74 0 -124.5 -52t-51.5 -161h332z" />
    <glyph glyph-name="uni0248" unicode="&#x248;" horiz-adv-x="1099" 
d="M430 979h201v504h317v-504h162v-242h-162v-321q0 -441 -467 -441q-100 0 -177.5 21.5t-138.5 69t-95.5 130.5t-38.5 199l303 45q5 -53 12 -84.5t22.5 -63t44 -45.5t72.5 -14q75 0 110.5 40t35.5 135v329h-201v242z" />
    <glyph glyph-name="uni0249" unicode="&#x249;" horiz-adv-x="630" 
d="M508 1401q0 -91 -48 -141t-138 -50q-88 0 -137.5 50.5t-49.5 140.5t49 137t138 47q91 0 138.5 -46.5t47.5 -137.5zM94 -457q-77 0 -148.5 18t-103.5 40l23 231q90 -41 168 -41q62 0 97.5 35t35.5 125v373h-170v241h170v502h309v-502h162v-241h-162v-408q0 -191 -101 -282
t-280 -91z" />
    <glyph glyph-name="uni024A" unicode="&#x24a;" horiz-adv-x="1548" 
d="M662 -25q-132 0 -237.5 44t-184 132.5t-120.5 231.5t-42 332q0 164 33 297.5t90 225t136.5 153.5t170 90t192.5 28q241 0 387 -143l15 117h268v-1612q0 -44 14.5 -63t51.5 -19q34 0 75 12l9 -217q-33 -15 -90.5 -27t-104.5 -12t-86 11.5t-72 37t-52 72t-19 109.5v372
q-179 -172 -434 -172zM750 223q75 0 165 35q89 35 140 86v825q-47 37 -119 62.5t-156 25.5q-60 -1 -111.5 -15.5t-102.5 -51.5t-86 -94.5t-56.5 -152t-20.5 -216.5q0 -117 19 -206.5t50 -145t76.5 -90.5t94 -48.5t107.5 -13.5z" />
    <glyph glyph-name="uni024B" unicode="&#x24b;" horiz-adv-x="1212" 
d="M496 -25q-196 0 -308 130.5t-112 406.5q0 124 26 223.5t69 164.5t101.5 108.5t121.5 62.5t132 19q92 0 166.5 -31t118.5 -90l25 98h258v-1173q0 -68 17.5 -100t64.5 -32q34 0 75 15l9 -203q-60 -31 -142 -31q-164 0 -232.5 77t-68.5 212v274q-1 0 -3 1.5t-3 1.5
q-130 -134 -315 -134zM604 213q97 0 180 80v493q-76 64 -170 64q-111 0 -163 -89t-52 -241q0 -307 205 -307z" />
    <glyph glyph-name="uni024C" unicode="&#x24c;" horiz-adv-x="1337" 
d="M-10 809h176v674h577q108 0 193 -22.5t140 -61t91.5 -92.5t52 -113.5t15.5 -128.5q0 -304 -256 -424l336 -641h-340l-293 563h-203v-563h-313v575h-176v234zM641 811q112 0 188 49q80 50 80 174q0 104 -63 149.5t-193 45.5h-174v-418h162z" />
    <glyph glyph-name="uni024D" unicode="&#x24d;" horiz-adv-x="833" 
d="M-8 537h153v530h265l22 -168q132 191 336 191q26 0 53 -3v-301q-103 10 -200.5 -15.5t-165.5 -80.5v-153h188v-242h-188v-295h-310v295h-153v242z" />
    <glyph glyph-name="uni024E" unicode="&#x24e;" horiz-adv-x="1320" 
d="M518 0v555l-307 553h-211v195h104l-100 180h346l92 -180h469l88 180h320l-94 -180h112v-195h-215l-286 -549v-559h-318zM676 848h10l129 260h-272z" />
    <glyph glyph-name="uni024F" unicode="&#x24f;" horiz-adv-x="1148" 
d="M0 813h129l-94 254h334l223 -743h6l215 743h317l-90 -254h134v-242h-222q-167 -471 -245 -675q-69 -194 -156.5 -273.5t-245.5 -79.5q-61 0 -128.5 13.5t-104.5 31.5l22 224q104 -33 162 -33q55 0 91.5 27t60.5 88l32 83l-221 594h-219v242z" />
    <glyph glyph-name="uni0250" unicode="&#x250;" horiz-adv-x="1140" 
d="M598 -25q-217 0 -323.5 91t-106.5 286v457q0 46 -12.5 64t-51.5 18q-22 0 -63 -12l-8 168q30 17 87 27.5t109 10.5q182 0 220 -145q113 150 317 150q77 0 135.5 -20t92 -50t54.5 -70.5t28 -75.5t7 -71q0 -95 -35 -163.5t-103 -109t-154.5 -61.5t-202.5 -27q-22 0 -61 -1
t-58 -1v-51q0 -108 29.5 -155.5t122.5 -47.5q76 0 112.5 36t50.5 116l260 -45q-26 -156 -132 -237t-314 -81zM522 608q123 5 185.5 36t62.5 112q0 118 -123 118q-53 0 -101.5 -21.5t-78.5 -51.5v-191q16 -2 55 -2z" />
    <glyph glyph-name="uni0251" unicode="&#x251;" horiz-adv-x="1210" 
d="M496 -25q-196 0 -308 130.5t-112 406.5q0 124 26 223.5t69 164.5t101.5 108.5t121.5 62.5t132 19q92 0 166.5 -31t118.5 -90l25 98h258v-1067h-258l-19 106q-1 0 -3 1.5t-3 1.5q-130 -134 -315 -134zM604 213q97 0 180 80v493q-76 64 -170 64q-111 0 -163 -89t-52 -241
q0 -307 205 -307z" />
    <glyph glyph-name="uni0252" unicode="&#x252;" horiz-adv-x="1212" 
d="M717 1092q196 0 308 -130t112 -407q0 -124 -26 -223.5t-69 -164.5t-102 -108.5t-122 -62.5t-132 -19q-89 0 -164 31t-121 90l-24 -98h-258v1067h258l18 -106q1 0 3 -1.5t3 -1.5q130 134 316 134zM608 854q-97 0 -180 -80v-493q76 -64 170 -64q111 0 163 89t52 241
q0 307 -205 307z" />
    <glyph glyph-name="uni0253" unicode="&#x253;" horiz-adv-x="1212" 
d="M694 -25q-83 0 -159.5 33t-131.5 90h-6l-16 -98h-260v1159q0 210 105.5 310t297.5 100q136 0 224 -37l-13 -209q-70 16 -133 16q-92 0 -133 -40.5t-41 -135.5v-198q137 125 317 125q84 0 153 -29t124 -89.5t86 -166t31 -248.5q0 -289 -117.5 -435.5t-327.5 -146.5z
M614 215q199 0 199 334q0 145 -42 222t-146 77q-52 0 -106 -25.5t-89 -60.5v-473q107 -74 184 -74z" />
    <glyph glyph-name="uni0254" unicode="&#x254;" horiz-adv-x="1114" 
d="M526 -25q-202 0 -325 101t-140 293l277 41q22 -211 190 -211q37 0 66.5 8.5t56.5 31.5t45 60t28.5 96t10.5 137q0 324 -205 324q-175 0 -202 -203l-254 47q26 190 156.5 290t332.5 100q126 0 222 -40t155.5 -112.5t89 -170t29.5 -216.5q0 -275 -140.5 -425.5
t-392.5 -150.5z" />
    <glyph glyph-name="uni0256" unicode="&#x256;" horiz-adv-x="1214" 
d="M1151 -461q-172 0 -253 88t-81 269v210q-1 0 -3 1.5t-3 1.5q-121 -134 -315 -134q-196 0 -308 130.5t-112 406.5q0 124 26 223.5t69 164.5t101.5 108.5t121.5 62.5t132 19q160 0 258 -91v547h310v-1624q0 -79 22.5 -115t81.5 -36q37 0 73.5 8.5t45.5 15.5l39 -213
q-122 -43 -205 -43zM604 213q97 0 180 80v493q-76 64 -170 64q-111 0 -163 -89t-52 -241q0 -307 205 -307z" />
    <glyph glyph-name="uni0257" unicode="&#x257;" horiz-adv-x="1290" 
d="M496 -25q-196 0 -308 130.5t-112 406.5q0 124 26 223.5t69 164.5t101.5 108.5t121.5 62.5t132 19q160 0 258 -91v168q0 207 94.5 304.5t278.5 97.5q104 0 193 -33l-13 -209q-56 16 -110 16q-74 0 -103.5 -40.5t-29.5 -135.5v-1167h-258l-19 106q-1 0 -3 1.5t-3 1.5
q-121 -134 -315 -134zM604 213q97 0 180 80v493q-76 64 -170 64q-111 0 -163 -89t-52 -241q0 -307 205 -307z" />
    <glyph glyph-name="uni0259" unicode="&#x259;" horiz-adv-x="1120" 
d="M543 -25q-123 0 -214.5 35t-147 101t-82.5 154t-27 200q0 86 6 121h649q-1 148 -50.5 211t-150.5 63q-159 0 -198 -151l-252 59q31 150 155 236t322 86q498 0 498 -545q0 -143 -41 -254t-112 -179t-161 -102.5t-194 -34.5zM545 186q74 0 125.5 56t52.5 172h-332
q-3 -228 154 -228z" />
    <glyph glyph-name="uni025B" unicode="&#x25b;" horiz-adv-x="1163" 
d="M557 -25q-247 0 -370.5 88.5t-123.5 237.5q0 86 44 151.5t131 90.5v4q-64 27 -102 84t-38 133q0 52 15 98.5t50 89t88.5 72.5t135.5 48t186 18q234 0 364.5 -91.5t152.5 -302.5l-269 -39q-8 116 -67 163.5t-195 47.5q-184 0 -184 -120q0 -47 37 -75t118 -28h179v-211
h-189q-76 0 -115.5 -24.5t-39.5 -83.5q0 -65 51.5 -95t132.5 -30q272 0 295 196l250 -49q-57 -373 -537 -373z" />
    <glyph glyph-name="uni0260" unicode="&#x260;" horiz-adv-x="1275" 
d="M539 -457q-410 0 -461 289l272 76q19 -67 64 -102t133 -35q117 0 171 54.5t54 180.5v94q-120 -110 -295 -110q-194 0 -305 132.5t-111 403.5q0 121 26.5 218t70 160.5t102.5 106t122.5 61t131.5 18.5q177 0 283 -125v217q0 202 83 294.5t263 92.5q103 0 192 -33l-10 -209
q-59 16 -113 16q-74 0 -103.5 -39t-29.5 -128v-1153q0 -480 -540 -480zM590 229q93 0 182 78v477q-33 28 -80.5 47t-95.5 19q-108 0 -159.5 -87t-51.5 -237q0 -297 205 -297z" />
    <glyph glyph-name="uni0263" unicode="&#x263;" horiz-adv-x="1097" 
d="M545 -502q-83 0 -145.5 22.5t-97.5 61.5t-52 85.5t-17 99.5q0 50 9.5 96t35 102t39 81.5t52.5 94.5l-381 926h331l238 -745l238 745h317l-383 -926q48 -75 72.5 -117.5t47.5 -113t23 -139.5q0 -114 -86 -193.5t-241 -79.5zM553 -309q48 0 75 29t27 75q0 99 -102 277
q-100 -165 -100 -271q0 -110 100 -110z" />
    <glyph glyph-name="uni0264" unicode="&#x264;" horiz-adv-x="1296" 
d="M1094 1090q124 0 206 -37l-16 -228q-63 25 -164 25q-148 0 -293 -100q101 -90 161.5 -201t60.5 -223q0 -166 -106 -258.5t-302 -92.5q-192 0 -288.5 88t-96.5 252q0 113 58.5 226t160.5 209q-73 53 -140 78.5t-145 25.5q-101 0 -180 -27l-14 226q105 37 211 37
q236 0 452 -181q216 181 435 181zM651 190q133 0 133 142q0 157 -135 295q-63 -65 -100 -143t-37 -154q0 -65 36 -102.5t103 -37.5z" />
    <glyph glyph-name="uni0265" unicode="&#x265;" horiz-adv-x="1196" 
d="M1081 -434h-305v543q-148 -132 -332 -132q-170 0 -250.5 88.5t-80.5 272.5v729h309v-678q0 -170 141 -170q58 0 117 27.5t92 60.5v760h309v-1501z" />
    <glyph glyph-name="uni0266" unicode="&#x266;" horiz-adv-x="1193" 
d="M117 1217q0 184 89.5 268t264.5 84q67 0 137 -12t101 -25l-11 -207q-55 25 -129 25q-50 0 -100 -29q-45 -26 -45 -123v-242q150 134 330 134q171 0 251 -88.5t80 -272.5v-729h-309v676q0 170 -141 170q-58 0 -115.5 -27t-93.5 -61v-758h-309v1217z" />
    <glyph glyph-name="uni0268" unicode="&#x268;" horiz-adv-x="645" 
d="M326 1217q-88 0 -136.5 48t-48.5 136q0 87 48.5 134.5t136.5 47.5q90 0 138 -47t48 -135t-48 -136t-138 -48zM27 735h143v332h309v-332h139v-239h-139v-496h-309v496h-143v239z" />
    <glyph glyph-name="uni0269" unicode="&#x269;" horiz-adv-x="774" 
d="M469 -25q-170 0 -256 83t-86 259v750h309v-719q0 -71 27.5 -105t91.5 -34q59 0 135 35l43 -201q-99 -68 -264 -68z" />
    <glyph glyph-name="uni026A" unicode="&#x26a;" horiz-adv-x="952" 
d="M74 211h248v645h-248v211h805v-211h-248v-645h248v-211h-805v211z" />
    <glyph glyph-name="uni026C" unicode="&#x26c;" horiz-adv-x="1042" 
d="M303 508q-130 0 -206.5 72.5t-76.5 197.5q0 116 71 182t198 66q87 0 149 -39v559h310v-745q138 63 270 153l16 -204q-139 -87 -286 -150v-600h-310v530q-61 -22 -135 -22zM225 778q0 -42 30.5 -65t82.5 -23q42 0 100 21v30q-18 115 -125 115q-39 0 -63.5 -21t-24.5 -57z
" />
    <glyph glyph-name="uni026F" unicode="&#x26f;" horiz-adv-x="1751" 
d="M1636 1067v-1067h-262l-14 100q-152 -123 -324 -123q-204 0 -272 134q-134 -134 -332 -134q-319 0 -319 355v735h309v-686q0 -78 28 -116t93 -38q43 0 95 21.5t81 52.5q-2 6 -2 27v739h309v-686q0 -78 27.5 -116t91.5 -38q46 0 98.5 22.5t83.5 53.5v764h309z" />
    <glyph glyph-name="uni0271" unicode="&#x271;" horiz-adv-x="1748" 
d="M1298 -457q-39 0 -82.5 7.5t-62.5 15.5l23 217q42 -10 67 -10q52 0 70 34t18 113v766q0 82 -27 121t-94 39q-42 0 -94 -23.5t-82 -54.5q2 -8 2 -31v-737h-309v686q0 81 -27.5 120.5t-91.5 39.5q-45 0 -97.5 -24t-84.5 -56v-766h-309v1067h262l14 -106q151 129 324 129
q201 0 272 -140q61 64 146 102t186 38q319 0 319 -357v-821q0 -369 -342 -369z" />
    <glyph glyph-name="uni0272" unicode="&#x272;" horiz-adv-x="1193" 
d="M748 1090q175 0 256 -88t81 -273v-729h-309v676q0 170 -141 170q-58 0 -115.5 -27t-93.5 -61v-842q0 -194 -85 -283.5t-253 -89.5q-68 0 -133 17l20 231q31 -8 60 -8q52 0 67 32.5t15 104.5v1147h274l17 -113q151 136 340 136z" />
    <glyph glyph-name="uni0275" unicode="&#x275;" horiz-adv-x="1202" 
d="M590 -25q-141 0 -243.5 41t-162 117t-87 173.5t-27.5 221.5q0 264 138 413t410 149q137 0 237.5 -39.5t160.5 -112.5t88.5 -169t28.5 -218q0 -271 -133 -423.5t-410 -152.5zM610 856q-89 0 -141.5 -49.5t-69.5 -161.5h406q-12 113 -59.5 162t-135.5 49zM604 205
q87 0 135.5 50.5t65.5 166.5h-406q13 -115 62 -166t143 -51z" />
    <glyph glyph-name="uni027D" unicode="&#x27d;" horiz-adv-x="804" 
d="M459 -461q-171 0 -256.5 82.5t-85.5 259.5v1186h264l22 -168q130 191 336 191q9 0 54 -5v-290q-102 10 -200 -17t-167 -82v-786q0 -72 28.5 -105.5t98.5 -33.5q84 0 176 49l43 -201q-44 -30 -132.5 -55t-180.5 -25z" />
    <glyph glyph-name="uni027E" unicode="&#x27e;" horiz-adv-x="763" 
d="M117 674q0 213 106 314.5t299 101.5q139 0 221 -37l-10 -209q-62 16 -125 16q-98 0 -140 -46t-42 -163v-651h-309v674z" />
    <glyph glyph-name="uni0283" unicode="&#x283;" horiz-adv-x="636" 
d="M74 -461q-74 0 -139.5 12.5t-96.5 26.5l12 207q79 -27 142 -27q81 0 122.5 37t41.5 139v1258q0 190 104.5 283.5t288.5 93.5q150 0 235 -39l-12 -207q-79 27 -143 27q-81 0 -122.5 -37t-41.5 -139v-1260q0 -189 -103.5 -282t-287.5 -93z" />
    <glyph glyph-name="uni0288" unicode="&#x288;" horiz-adv-x="825" 
d="M514 -436q-170 0 -255 82.5t-85 259.5v948h-160v213h160v313l309 41v-354h283v-213h-283v-913q0 -73 27.5 -108.5t97.5 -35.5q45 0 94 14.5t82 34.5l43 -202q-44 -30 -131 -55t-182 -25z" />
    <glyph glyph-name="uni0289" unicode="&#x289;" horiz-adv-x="1306" 
d="M506 -23q-328 0 -328 357v192h-151v224h151v317h309v-317h336v317h310v-317h153v-224h-153v-526h-265l-22 125q-61 -67 -148.5 -107.5t-191.5 -40.5zM487 391q0 -89 31.5 -129.5t102.5 -40.5q55 0 111.5 27t90.5 61v217h-336v-135z" />
    <glyph glyph-name="uni028A" unicode="&#x28a;" horiz-adv-x="1210" 
d="M598 -25q-111 0 -200.5 24t-149.5 65.5t-101 99t-59 122.5t-18 138q0 151 77.5 257.5t229.5 149.5v33h-279v203h463v-324q-176 -61 -176 -297q0 -114 57 -185t160 -71q112 0 167.5 73t55.5 192q0 236 -172 288v324h463v-203h-274v-33q129 -31 213 -118q86 -86 86 -262
q0 -90 -33.5 -173t-97.5 -152t-170.5 -110t-241.5 -41z" />
    <glyph glyph-name="uni028B" unicode="&#x28b;" horiz-adv-x="1171" 
d="M512 -23q-403 0 -403 379v711h309v-645q0 -84 16 -143q18 -56 101 -56q73 0 128 34t87.5 93.5t48.5 133t16 159.5q0 133 -34.5 186.5t-110.5 53.5q-38 0 -90 -13l-11 191q64 29 181 29q174 0 260 -105t86 -338q0 -164 -44.5 -293t-123.5 -211t-184.5 -124t-231.5 -42z
" />
    <glyph glyph-name="uni028C" unicode="&#x28c;" horiz-adv-x="1126" 
d="M383 1067h360l377 -1067h-334l-227 778h-8l-227 -778h-318z" />
    <glyph glyph-name="uni028E" unicode="&#x28e;" horiz-adv-x="1095" 
d="M418 1186q39 108 74.5 176t84 117t110 69.5t147.5 20.5q60 0 129 -13.5t102 -31.5l-23 -217q-98 32 -161 32q-66 0 -101.5 -43t-81.5 -161l-18 -45l405 -1090h-331l-219 754h-7l-219 -754h-319z" />
    <glyph glyph-name="uni0292" unicode="&#x292;" horiz-adv-x="1011" 
d="M434 -461q-187 0 -296 87t-134 259l256 49q12 -77 52.5 -121t125.5 -44q105 0 161 68.5t56 178.5q0 112 -54.5 178t-174.5 66q-89 0 -168 -20v202l328 404h-465v221h784v-209l-352 -420q104 3 183 -28t125.5 -88.5t69.5 -131t23 -161.5q0 -220 -141.5 -355t-378.5 -135z
" />
    <glyph glyph-name="uni0294" unicode="&#x294;" horiz-adv-x="1120" 
d="M317 778q62 5 119 20t110.5 42.5t92.5 65.5t62.5 92t23.5 118q0 102 -49 156.5t-133 54.5q-92 0 -143 -51.5t-70 -163.5l-301 47q25 193 162 300.5t372 107.5q98 0 182.5 -25.5t154.5 -78t110.5 -143t40.5 -210.5q0 -195 -112.5 -330.5t-313.5 -185.5v-594h-308v778z" />
    <glyph glyph-name="uni0295" unicode="&#x295;" horiz-adv-x="1120" 
d="M496 594q-201 42 -313.5 168t-112.5 321q0 120 41 214t113 152t164.5 88t199.5 30q223 0 348 -106.5t149 -301.5l-299 -47q-20 112 -65.5 163.5t-126.5 51.5q-94 0 -146.5 -59.5t-52.5 -167.5q0 -85 35 -147t96.5 -97t128.5 -53t148 -25v-778h-307v594z" />
    <glyph glyph-name="uni0298" unicode="&#x298;" horiz-adv-x="1435" 
d="M707 -25q-164 0 -287.5 57t-200 162.5t-114 248.5t-37.5 323q0 244 75.5 423.5t228 279.5t367.5 100q162 0 283.5 -56t196.5 -160t112 -243.5t37 -314.5q0 -390 -167.5 -605t-493.5 -215zM719 207q69 0 124.5 18t102.5 59.5t78 106.5t48.5 162t17.5 223q0 157 -23 266
t-70 173.5t-111 93t-153 28.5q-94 0 -163 -29t-120 -94t-76.5 -175.5t-25.5 -266.5q0 -124 16.5 -219t47 -160.5t76.5 -107t102.5 -60t128.5 -18.5zM614 950h211v-342h-211v342z" />
    <glyph glyph-name="uni029D" unicode="&#x29d;" horiz-adv-x="870" 
d="M543 1217q-88 0 -137.5 48.5t-49.5 135.5t49.5 134.5t137.5 47.5q90 0 138 -47t48 -135t-48 -136t-138 -48zM285 -457q-157 0 -244.5 81t-87.5 210q0 117 77.5 198t200.5 81q82 0 156 -23v977h309v-1071q86 -39 150 -74l-17 -184q-73 48 -149 80q-33 -132 -133 -203.5
t-262 -71.5zM176 -139q0 -40 31 -63t72 -23q53 0 80.5 39t27.5 108q-59 21 -117 21q-40 0 -67 -21t-27 -61z" />
    <glyph glyph-name="uni02B0" unicode="&#x2b0;" horiz-adv-x="841" 
d="M526 717v440q0 96 -86 96q-70 0 -121 -47v-489h-239v1009h237v-368q85 74 220 74q118 0 173.5 -57t55.5 -179v-479h-240z" />
    <glyph glyph-name="uni02B7" unicode="&#x2b7;" horiz-adv-x="1191" 
d="M0 1417h240l120 -469h5l118 469h234l123 -467h4l112 467h236l-217 -700h-268l-111 430h-2l-96 -430h-285z" />
    <glyph glyph-name="uni02BB" unicode="&#x2bb;" horiz-adv-x="1024" 
d="M350 1165l170 424l211 -30l-94 -394h-287z" />
    <glyph glyph-name="uni02BC" unicode="&#x2bc;" horiz-adv-x="458" 
d="M66 1092l45 454h284l-121 -485z" />
    <glyph glyph-name="uni02BE" unicode="&#x2be;" horiz-adv-x="514" 
d="M133 1290q42 0 65 24t23 68q0 42 -23 65t-65 23v125q125 0 191.5 -54t66.5 -159q0 -215 -258 -215v123z" />
    <glyph glyph-name="circumflex" unicode="&#x2c6;" horiz-adv-x="1024" 
d="M514 1372l-156 -194l-206 12l215 336h295l206 -336l-204 -10z" />
    <glyph glyph-name="caron" unicode="&#x2c7;" horiz-adv-x="1024" 
d="M514 1327l156 193l202 -13l-215 -336h-295l-206 336l209 11z" />
    <glyph glyph-name="uni02C9" unicode="&#x2c9;" horiz-adv-x="1024" 
d="M193 1440h636v-209h-636v209z" />
    <glyph glyph-name="breve" unicode="&#x2d8;" horiz-adv-x="1024" 
d="M872 1495q-12 -168 -107.5 -249t-256.5 -81q-158 0 -247 79.5t-95 244.5l205 22q10 -85 44.5 -121t102.5 -36q71 0 108.5 35t49.5 120z" />
    <glyph glyph-name="dotaccent" unicode="&#x2d9;" horiz-adv-x="1024" 
d="M698 1395q0 -89 -48 -139t-138 -50q-87 0 -135.5 50.5t-48.5 138.5q0 90 48 138t136 48q91 0 138.5 -47.5t47.5 -138.5z" />
    <glyph glyph-name="ring" unicode="&#x2da;" horiz-adv-x="1024" 
d="M743 1382q0 -102 -63 -158.5t-168 -56.5q-102 0 -165.5 55t-63.5 152q0 106 66 164.5t163 58.5q101 0 166 -56.5t65 -158.5zM512 1290q42 0 66 24t24 68q0 42 -24 64t-66 22q-40 0 -66 -23.5t-26 -64.5q0 -43 25 -66.5t67 -23.5z" />
    <glyph glyph-name="ogonek" unicode="&#x2db;" horiz-adv-x="1024" 
d="M782 -285q-32 -98 -109.5 -152.5t-176.5 -54.5q-116 0 -177 53t-61 148q0 53 21.5 102.5t61 92t80.5 75.5t95 68l146 -35q-64 -62 -94.5 -94.5t-55.5 -75.5t-25 -82q0 -67 64 -67q60 0 98 84z" />
    <glyph glyph-name="tilde" unicode="&#x2dc;" horiz-adv-x="1024" 
d="M367 1499q57 0 113 -22.5t104 -45t86 -22.5q35 0 48 19.5t13 70.5l156 -8q18 -128 -31.5 -208.5t-155.5 -80.5q-60 0 -118.5 22.5t-107.5 45t-85 22.5q-35 0 -49.5 -21t-7.5 -75l-168 6q-17 133 40 215t163 82z" />
    <glyph glyph-name="hungarumlaut" unicode="&#x2dd;" horiz-adv-x="1024" 
d="M246 1196l90 326h315l-209 -351zM557 1190l174 340h332l-299 -359z" />
    <glyph glyph-name="gravecomb" unicode="&#x300;" horiz-adv-x="0" 
d="M14 1522l152 -332l-207 -19l-276 351h331z" />
    <glyph glyph-name="acutecomb" unicode="&#x301;" horiz-adv-x="0" 
d="M-162 1190l154 332h330l-277 -351z" />
    <glyph glyph-name="uni0302" unicode="&#x302;" horiz-adv-x="0" 
d="M2 1372l-156 -194l-206 12l215 336h295l206 -336l-204 -10z" />
    <glyph glyph-name="tildecomb" unicode="&#x303;" horiz-adv-x="0" 
d="M-145 1499q57 0 113 -22.5t104 -45t86 -22.5q35 0 48 19.5t13 70.5l156 -8q18 -128 -31.5 -208.5t-155.5 -80.5q-60 0 -118.5 22.5t-107.5 45t-85 22.5q-35 0 -49.5 -21t-7.5 -75l-168 6q-17 133 40 215t163 82z" />
    <glyph glyph-name="uni0304" unicode="&#x304;" horiz-adv-x="0" 
d="M-319 1440h636v-209h-636v209z" />
    <glyph glyph-name="uni0306" unicode="&#x306;" horiz-adv-x="0" 
d="M360 1495q-12 -168 -107.5 -249t-256.5 -81q-158 0 -247 79.5t-95 244.5l205 22q10 -85 44.5 -121t102.5 -36q71 0 108.5 35t49.5 120z" />
    <glyph glyph-name="uni0307" unicode="&#x307;" horiz-adv-x="0" 
d="M186 1395q0 -89 -48 -139t-138 -50q-87 0 -135.5 50.5t-48.5 138.5q0 90 48 138t136 48q91 0 138.5 -47.5t47.5 -138.5z" />
    <glyph glyph-name="uni0308" unicode="&#x308;" horiz-adv-x="0" 
d="M-59 1391q0 -77 -50.5 -123.5t-130.5 -46.5q-83 0 -134.5 46.5t-51.5 123.5t52 124.5t134 47.5q80 0 130.5 -47.5t50.5 -124.5zM422 1391q0 -78 -49 -124t-131 -46q-83 0 -134 46.5t-51 123.5q0 78 51.5 125t133.5 47t131 -47t49 -125z" />
    <glyph glyph-name="hookabovecomb" unicode="&#x309;" horiz-adv-x="0" 
d="M-86 1161q0 71 22.5 112t61.5 73q45 41 45 71q0 45 -55 45q-23 0 -37 -12.5t-18.5 -25t-8.5 -33.5l-182 20q9 48 21.5 79.5t40 62.5t77.5 46t123 15q119 0 180.5 -53.5t61.5 -126.5q0 -80 -66 -146q-27 -25 -37.5 -37.5t-20.5 -36t-9 -53.5h-199z" />
    <glyph glyph-name="uni030A" unicode="&#x30a;" horiz-adv-x="0" 
d="M231 1382q0 -102 -63 -158.5t-168 -56.5q-102 0 -165.5 55t-63.5 152q0 106 66 164.5t163 58.5q101 0 166 -56.5t65 -158.5zM0 1290q42 0 66 24t24 68q0 42 -24 64t-66 22q-40 0 -66 -23.5t-26 -64.5q0 -43 25 -66.5t67 -23.5z" />
    <glyph glyph-name="uni030B" unicode="&#x30b;" horiz-adv-x="0" 
d="M-266 1196l90 326h315l-209 -351zM45 1190l174 340h332l-299 -359z" />
    <glyph glyph-name="uni030C" unicode="&#x30c;" horiz-adv-x="0" 
d="M2 1327l156 193l202 -13l-215 -336h-295l-206 336l209 11z" />
    <glyph glyph-name="uni030D" unicode="&#x30d;" horiz-adv-x="0" 
d="M-131 1577h262l-22 -387h-218z" />
    <glyph glyph-name="uni030F" unicode="&#x30f;" horiz-adv-x="0" 
d="M-553 1530h332l174 -340l-207 -19zM-141 1522h315l92 -326l-196 -25z" />
    <glyph glyph-name="uni0311" unicode="&#x311;" horiz-adv-x="0" 
d="M150 1167q-10 87 -45 123.5t-103 36.5q-72 0 -109 -35t-49 -123l-196 13q12 166 107 247.5t255 81.5q158 0 247.5 -79t96.5 -244z" />
    <glyph glyph-name="uni0312" unicode="&#x312;" horiz-adv-x="0" 
d="M-162 1165l170 424l211 -30l-94 -394h-287z" />
    <glyph glyph-name="uni0315" unicode="&#x315;" horiz-adv-x="0" 
d="M250 1591l-170 -424l-211 31l94 393h287z" />
    <glyph glyph-name="uni031B" unicode="&#x31b;" horiz-adv-x="0" 
d="M375 897q48 6 76 19t42 41t17.5 59.5t3.5 91.5v98h217v-94q0 -102 -14 -166t-53.5 -112t-108.5 -70.5t-180 -28.5v162z" />
    <glyph glyph-name="dotbelowcomb" unicode="&#x323;" horiz-adv-x="0" 
d="M0 -487q-88 0 -136 48t-48 136t48 135t136 47q90 0 138 -47t48 -135t-48 -136t-138 -48z" />
    <glyph glyph-name="uni0324" unicode="&#x324;" horiz-adv-x="0" 
d="M227 -475q-76 0 -124 42.5t-48 110.5q0 71 48 113.5t124 42.5q78 0 124 -42t46 -114q0 -69 -46 -111t-124 -42zM-227 -475q-76 0 -124 42.5t-48 110.5q0 71 48 113.5t124 42.5t123 -42.5t47 -113.5q0 -69 -47.5 -111t-122.5 -42z" />
    <glyph glyph-name="uni0325" unicode="&#x325;" horiz-adv-x="0" 
d="M2 -549q-107 0 -172.5 56t-65.5 157q0 107 69 166t169 59q102 0 169 -56.5t67 -160.5t-65 -162.5t-171 -58.5zM0 -426q45 0 71.5 26t26.5 76q0 46 -25.5 70.5t-70.5 24.5t-72.5 -25.5t-27.5 -71.5q0 -50 26 -75t72 -25z" />
    <glyph glyph-name="uni0326" unicode="&#x326;" horiz-adv-x="0" 
d="M182 -139l-170 -422l-211 31l95 391h286z" />
    <glyph glyph-name="uni0327" unicode="&#x327;" horiz-adv-x="0" 
d="M-188 -332q58 -14 98 -14q102 0 102 76q0 44 -31 58.5t-100 16.5l33 256l147 -16l-18 -137q174 -31 174 -189q0 -109 -74 -166t-194 -57q-89 0 -168 29z" />
    <glyph glyph-name="uni0328" unicode="&#x328;" horiz-adv-x="0" 
d="M262 -285q-32 -98 -110 -152.5t-177 -54.5q-115 0 -176 53t-61 148q0 53 21.5 102.5t61 92t80.5 75.5t95 68l145 -35q-94 -90 -134 -143t-40 -109q0 -67 64 -67q60 0 98 84z" />
    <glyph glyph-name="uni0329" unicode="&#x329;" horiz-adv-x="0" 
d="M-129 -133h262l-22 -387h-217z" />
    <glyph glyph-name="uni032D" unicode="&#x32d;" horiz-adv-x="0" 
d="M-360 -446l215 317h295l206 -317l-204 -11l-150 176l-154 -178z" />
    <glyph glyph-name="uni032E" unicode="&#x32e;" horiz-adv-x="0" 
d="M352 -186q-12 -168 -107.5 -249t-256.5 -81q-158 0 -247 79t-95 244l204 23q10 -85 45 -121.5t103 -36.5q71 0 108.5 35.5t49.5 120.5z" />
    <glyph glyph-name="uni032F" unicode="&#x32f;" horiz-adv-x="0" 
d="M-354 -489q12 168 107 248.5t257 80.5q158 0 247 -79t95 -244l-205 -23q-7 85 -42.5 121.5t-104.5 36.5q-72 0 -109 -34t-49 -122z" />
    <glyph glyph-name="uni0330" unicode="&#x330;" horiz-adv-x="0" 
d="M-342 -440q-17 133 40 213t161 80q57 0 114 -22.5t105.5 -44.5t85.5 -22q35 0 48 20t13 71l154 -9q18 -128 -30 -206t-156 -78q-60 0 -118.5 22.5t-107 45t-84.5 22.5q-35 0 -50.5 -21t-8.5 -77z" />
    <glyph glyph-name="uni0331" unicode="&#x331;" horiz-adv-x="0" 
d="M-317 -197h636v-204h-636v204z" />
    <glyph glyph-name="uni0332" unicode="&#x332;" horiz-adv-x="0" 
d="M-430 -203h842v-184h-842v184z" />
    <glyph glyph-name="uni0335" unicode="&#x335;" horiz-adv-x="0" 
d="M-643 688h641v-242h-641v242z" />
    <glyph glyph-name="uni0337" unicode="&#x337;" horiz-adv-x="0" 
d="M184 1171h246l-612 -1247h-246z" />
    <glyph glyph-name="uni0338" unicode="&#x338;" horiz-adv-x="0" 
d="M260 1307h246l-754 -1565h-246z" />
    <glyph glyph-name="uni0394" unicode="&#x394;" horiz-adv-x="1460" 
d="M1397 160v-160h-1334v160l453 1323h393zM707 1186l-291 -934h606l-307 934h-8z" />
    <glyph glyph-name="uni03A9" unicode="&#x3a9;" horiz-adv-x="1619" 
d="M815 1249q-187 0 -285 -108.5t-98 -296.5q0 -169 75 -268.5t212 -129.5v-446h-588v236h344v59q-179 61 -277 205.5t-98 357.5q0 98 24 189t79 176t135.5 148t202.5 100.5t272 37.5q181 0 319 -51.5t221.5 -143t125 -209t41.5 -257.5q0 -87 -21 -168.5t-63.5 -157
t-116.5 -135t-172 -92.5v-59h342v-236h-588v446q289 57 289 402q0 184 -95.5 292.5t-279.5 108.5z" />
    <glyph glyph-name="uni03BC" unicode="&#x3bc;" horiz-adv-x="1263" 
d="M997 -25q-184 0 -209 146q-58 -62 -134 -100.5t-156 -38.5q-35 0 -80 10v-426h-299v1501h305v-678q0 -162 127 -162q50 0 108.5 23t102.5 61v756h309v-801q0 -46 13.5 -64t50.5 -18q19 0 63 13l8 -179q-98 -43 -209 -43z" />
    <glyph glyph-name="pi" unicode="&#x3c0;" horiz-adv-x="1359" 
d="M537 827l-101 -827h-309l111 827h-199v240h1261v-240h-198v-563q0 -80 74 -80q31 0 75 13l9 -179q-80 -41 -199 -41q-254 0 -254 265v585h-270z" />
    <glyph glyph-name="uni1D7D" unicode="&#x1d7d;" horiz-adv-x="1251" 
d="M0 647h152v420h262l18 -109q66 66 154 99t180 33q167 0 273 -105.5t124 -337.5h115v-231h-119q-15 -116 -54 -202.5t-96.5 -137.5t-126 -76t-149.5 -25q-163 0 -282 103v-512h-299v850h-152v231zM457 295q29 -25 82 -48.5t104 -23.5q106 0 153.5 82.5t47.5 243.5
q0 158 -46.5 226.5t-142.5 68.5q-50 0 -104 -24.5t-94 -57.5v-467z" />
    <glyph glyph-name="uni1E00" unicode="&#x1e00;" horiz-adv-x="1443" 
d="M1423 0h-346l-123 360h-493l-115 -360h-326l486 1483h393zM696 1186l-182 -574h375l-184 574h-9zM721 -549q-107 0 -172.5 56t-65.5 157q0 107 69 166t169 59q102 0 168.5 -56.5t66.5 -160.5t-64.5 -162.5t-170.5 -58.5zM719 -426q45 0 71.5 26t26.5 76q0 46 -25.5 70.5
t-70.5 24.5t-72.5 -25.5t-27.5 -71.5q0 -50 26 -75t72 -25z" />
    <glyph glyph-name="uni1E01" unicode="&#x1e01;" horiz-adv-x="1142" 
d="M985 266q0 -44 13.5 -63t50.5 -19q19 0 63 13l8 -179q-34 -15 -92 -28t-104 -13q-95 0 -148.5 31.5t-70.5 104.5q-107 -138 -318 -138q-77 0 -135.5 20t-92 50t-54.5 70t-28 75t-7 70q0 68 20 123.5t53 94t82.5 67t101 45t115.5 26.5t120 13.5t120 3.5v39q0 86 -25 141
q-24 53 -127 53q-73 0 -108 -33.5t-53 -113.5l-263 51q26 158 133.5 239t317.5 81q217 0 322.5 -89.5t105.5 -287.5v-447zM635 453q-254 0 -254 -142q0 -116 125 -116q52 0 101.5 21t76.5 48v189h-49zM571 -549q-107 0 -172 56t-65 157q0 107 68.5 166t168.5 59
q102 0 169 -56.5t67 -160.5t-65 -162.5t-171 -58.5zM569 -426q46 0 72.5 26t26.5 76q0 46 -26 70.5t-71 24.5t-72.5 -25.5t-27.5 -71.5q0 -50 26 -75t72 -25z" />
    <glyph glyph-name="uni1E02" unicode="&#x1e02;" horiz-adv-x="1310" 
d="M152 1483h587q103 0 181.5 -18.5t128.5 -50t82 -78.5t44.5 -99.5t12.5 -116.5q0 -141 -78.5 -226.5t-202.5 -119.5v-4q174 -20 259 -112.5t85 -249.5q0 -89 -27.5 -158.5t-76 -116t-119.5 -77t-153.5 -43.5t-182.5 -13h-540v1483zM629 244q70 0 118 7.5t88.5 27.5t60 59
t19.5 98q0 60 -19 100t-57 60t-80 27.5t-100 7.5h-192v-387h162zM584 870q49 0 87.5 4t79 16.5t67.5 33.5t44 58t17 87q0 47 -13 79t-32.5 50t-55 27.5t-66.5 11.5t-81 2h-164v-369h117zM817 1778q0 -91 -48 -141t-138 -50q-88 0 -136.5 50t-48.5 141q0 90 48 137t137 47
q91 0 138.5 -46.5t47.5 -137.5z" />
    <glyph glyph-name="uni1E03" unicode="&#x1e03;" horiz-adv-x="1212" 
d="M121 1546h303v-575q125 119 321 119q84 0 153 -29t124 -89.5t86 -166t31 -248.5q0 -123 -21.5 -221t-60.5 -165t-95 -111.5t-122.5 -64.5t-145.5 -20q-178 0 -293 115h-6l-14 -90h-260v1546zM428 293q101 -70 186 -70q102 0 150.5 80.5t48.5 245.5q0 67 -9 118
t-29.5 91.5t-58 62t-91.5 21.5q-52 0 -105 -24t-92 -58v-467zM924 1380q0 -83 -45 -129.5t-129 -46.5q-82 0 -128.5 47t-46.5 129q0 84 46 129t129 45q85 0 129.5 -44.5t44.5 -129.5z" />
    <glyph glyph-name="uni1E04" unicode="&#x1e04;" horiz-adv-x="1304" 
d="M152 1483h587q103 0 181.5 -18.5t128.5 -50t82 -78.5t44.5 -99.5t12.5 -116.5q0 -141 -78.5 -226.5t-202.5 -119.5v-4q174 -20 259 -112.5t85 -249.5q0 -89 -27.5 -158.5t-76 -116t-119.5 -77t-153.5 -43.5t-182.5 -13h-540v1483zM629 244q70 0 118 7.5t88.5 27.5t60 59
t19.5 98q0 60 -19 100t-57 60t-80 27.5t-100 7.5h-192v-387h162zM584 870q49 0 87.5 4t79 16.5t67.5 33.5t44 58t17 87q0 47 -13 79t-32.5 50t-55 27.5t-66.5 11.5t-81 2h-164v-369h117zM625 -487q-88 0 -136.5 48t-48.5 136q0 87 48.5 134.5t136.5 47.5q90 0 138 -47
t48 -135t-48 -136t-138 -48z" />
    </font>
</defs>
</svg>
