<?xml version="1.0" standalone="no"?>
<!DOCTYPE svg PUBLIC "-//W3C//DTD SVG 1.1//EN" "http://www.w3.org/Graphics/SVG/1.1/DTD/svg11.dtd" >
<svg xmlns="http://www.w3.org/2000/svg" xmlns:xlink="http://www.w3.org/1999/xlink" version="1.1">
<metadata>
Created by FontForge 20170731 at Mon Nov  2 15:34:59 2020
 By Aleksey,,,
Copyright (c) 2012 Veronika Burian, Jose Scaglione. All rights reserved.
</metadata>
<defs>
<font id="AdelleSansEXT-Semibold" horiz-adv-x="1167" >
  <font-face 
    font-family="Adelle Sans EXT Semibold"
    font-weight="600"
    font-stretch="expanded"
    units-per-em="2048"
    panose-1="2 11 7 5 0 0 0 0 0 0"
    ascent="1638"
    descent="-410"
    x-height="1059"
    cap-height="1483"
    bbox="-551 -598 2566 2365"
    underline-thickness="145"
    underline-position="-659"
    unicode-range="U+000D-FB06"
  />
<missing-glyph 
d="M205 1483h758v-1483h-758v1483zM266 1421v-1290l600 1290h-600zM901 61v1291l-600 -1289z" />
    <glyph glyph-name="fi" unicode="fi" horiz-adv-x="1210" 
d="M834 0v885h-422v-885h-236v885h-151v174h151v151q0 179 86.5 268t245.5 89q93 0 178 -29l-8 -176q-56 20 -123 20q-68 0 -105.5 -39t-37.5 -133v-151h657v-1059h-235zM1106 1401q0 -73 -41 -114.5t-113 -41.5t-112.5 41.5t-40.5 114.5t40.5 113t112.5 40t113 -40t41 -113
z" />
    <glyph glyph-name="fl" unicode="fl" horiz-adv-x="1210" 
d="M700 1360q-74 24 -139 24q-73 0 -111 -39.5t-38 -134.5v-151h272v-174h-272v-885h-236v885h-151v174h151v151q0 179 86.5 268t245.5 89q122 0 203 -37zM834 0v1546h235v-1546h-235z" />
    <glyph glyph-name="f_f" unicode="ff" horiz-adv-x="1357" 
d="M176 1059v151q0 179 86.5 268t245.5 89q122 0 203 -37l-11 -170q-74 24 -139 24q-73 0 -111 -39.5t-38 -134.5v-151h419v151q0 179 91 268t256 89q127 0 208 -37l-10 -170q-76 26 -145 26q-80 0 -122 -39.5t-42 -142.5v-145h289v-174h-289v-885h-236v885h-419v-885h-236
v885h-151v174h151z" />
    <glyph glyph-name="f_k" unicode="fk" horiz-adv-x="1800" 
d="M700 1360q-74 24 -139 24q-73 0 -111 -39.5t-38 -134.5v-151h272v-174h-272v-885h-236v885h-151v174h151v151q0 179 86.5 268t245.5 89q122 0 203 -37zM1481 1059h264l-361 -381l388 -678h-261l-305 522l-137 -137v-385h-235v1546h235v-915z" />
    <glyph glyph-name="f_b" unicode="fb" horiz-adv-x="1884" 
d="M700 1360q-74 24 -139 24q-73 0 -111 -39.5t-38 -134.5v-151h272v-174h-272v-885h-236v885h-151v174h151v151q0 179 86.5 268t245.5 89q122 0 203 -37zM831 1546h232v-590q137 125 342 125q84 0 152.5 -28.5t122 -88.5t83 -164t29.5 -245q0 -152 -33.5 -265.5t-94.5 -181
t-139.5 -100.5t-174.5 -33q-168 0 -299 115l-4 -2l-15 -88h-201v1546zM1067 262q117 -90 238 -90q243 0 243 379q0 169 -53.5 253.5t-173.5 84.5q-67 0 -136.5 -34t-117.5 -79v-514z" />
    <glyph glyph-name="f_h" unicode="fh" horiz-adv-x="1880" 
d="M700 1360q-74 24 -139 24q-73 0 -111 -39.5t-38 -134.5v-151h272v-174h-272v-885h-236v885h-151v174h151v151q0 179 86.5 268t245.5 89q122 0 203 -37zM1511 0v682q0 102 -41 152.5t-133 50.5q-72 0 -147 -35.5t-121 -77.5v-772h-235v1546h233v-592q158 127 354 127
q168 0 247 -89t79 -271v-721h-236z" />
    <glyph glyph-name="f_t" unicode="ft" horiz-adv-x="1447" 
d="M1069 885v-555q0 -84 29 -122t112 -38q45 0 96 14.5t85 34.5l36 -170q-42 -29 -121 -51.5t-159 -22.5q-157 0 -235 77.5t-78 242.5v590h-422v-885h-236v885h-151v174h151v151q0 179 86.5 268t245.5 89q122 0 203 -37l-11 -170q-74 24 -139 24q-73 0 -111 -39.5
t-38 -134.5v-151h422v309l235 33v-342h287v-174h-287z" />
    <glyph glyph-name="f_j" unicode="fj" horiz-adv-x="1204" 
d="M735 -457q-62 0 -125.5 14t-93.5 33l21 183q90 -35 159 -35q138 0 138 164v983h-422v-885h-236v885h-151v174h151v151q0 179 86.5 268t245.5 89q110 0 186 -31l-8 -176q-61 22 -131 22q-68 0 -105.5 -39t-37.5 -133v-151h657v-1174q0 -175 -87.5 -258.5t-246.5 -83.5z
M1108 1413q0 -75 -41 -115.5t-115 -40.5q-72 0 -111.5 40.5t-39.5 115.5q0 73 39.5 113.5t111.5 40.5q74 0 115 -40.5t41 -113.5z" />
    <glyph glyph-name="f_f_j" unicode="ffj" horiz-adv-x="1861" 
d="M1391 -457q-62 0 -126 14t-94 33l21 183q90 -35 160 -35q137 0 137 164v983h-422v-885h-236v885h-419v-885h-236v885h-151v174h151v151q0 179 86.5 268t245.5 89q122 0 203 -37l-11 -170q-74 24 -139 24q-73 0 -111 -39.5t-38 -134.5v-151h419v151q0 179 86.5 268
t245.5 89q111 0 187 -31l-9 -176q-61 22 -131 22q-68 0 -105.5 -39t-37.5 -133v-151h657v-1174q0 -175 -87 -258.5t-246 -83.5zM1763 1413q0 -75 -40.5 -115.5t-114.5 -40.5q-72 0 -112 40.5t-40 115.5q0 73 40 113.5t112 40.5q74 0 114.5 -40.5t40.5 -113.5z" />
    <glyph glyph-name="f_f_i" unicode="ffi" horiz-adv-x="1867" 
d="M1491 0v885h-422v-885h-235v885h-422v-885h-236v885h-151v174h151v151q0 179 86.5 268t245.5 89q122 0 203 -37l-11 -170q-74 24 -139 24q-73 0 -111 -39.5t-38 -134.5v-151h422v151q0 179 86 268t245 89q93 0 178 -29l-8 -176q-56 20 -123 20q-68 0 -105.5 -39
t-37.5 -133v-151h657v-1059h-235zM1763 1401q0 -73 -40.5 -114.5t-112.5 -41.5t-113 41.5t-41 114.5t41 113t113 40t112.5 -40t40.5 -113z" />
    <glyph glyph-name="f_f_l" unicode="ffl" horiz-adv-x="1867" 
d="M1358 1360q-74 24 -139 24q-74 0 -112 -39.5t-38 -134.5v-151h272v-174h-272v-885h-235v885h-422v-885h-236v885h-151v174h151v151q0 179 86.5 268t245.5 89q122 0 203 -37l-11 -170q-74 24 -139 24q-73 0 -111 -39.5t-38 -134.5v-151h422v151q0 179 86 268t245 89
q122 0 203 -37zM1491 0v1546h235v-1546h-235z" />
    <glyph glyph-name="f_f_k" unicode="ffk" horiz-adv-x="2457" 
d="M1358 1360q-74 24 -139 24q-74 0 -112 -39.5t-38 -134.5v-151h272v-174h-272v-885h-235v885h-422v-885h-236v885h-151v174h151v151q0 179 86.5 268t245.5 89q122 0 203 -37l-11 -170q-74 24 -139 24q-73 0 -111 -39.5t-38 -134.5v-151h422v151q0 179 86 268t245 89
q122 0 203 -37zM2138 1059h264l-360 -381l387 -678h-260l-305 522l-138 -137v-385h-235v1546h235v-915z" />
    <glyph glyph-name="f_f_b" unicode="ffb" horiz-adv-x="2543" 
d="M1489 1546h231v-590q137 125 342 125q84 0 152.5 -28.5t122 -88.5t83 -164t29.5 -245q0 -152 -33.5 -265.5t-94.5 -181t-139.5 -100.5t-174.5 -33q-168 0 -299 115l-4 -2l-14 -88h-201v1546zM1358 1360q-74 24 -139 24q-74 0 -112 -39.5t-38 -134.5v-151h272v-174h-272
v-885h-235v885h-422v-885h-236v885h-151v174h151v151q0 179 86.5 268t245.5 89q122 0 203 -37l-11 -170q-74 24 -139 24q-73 0 -111 -39.5t-38 -134.5v-151h422v151q0 179 86 268t245 89q122 0 203 -37zM1724 262q117 -90 238 -90q244 0 244 379q0 169 -54 253.5t-174 84.5
q-67 0 -136.5 -34t-117.5 -79v-514z" />
    <glyph glyph-name="f_f_h" unicode="ffh" horiz-adv-x="2537" 
d="M1358 1360q-74 24 -139 24q-74 0 -112 -39.5t-38 -134.5v-151h272v-174h-272v-885h-235v885h-422v-885h-236v885h-151v174h151v151q0 179 86.5 268t245.5 89q122 0 203 -37l-11 -170q-74 24 -139 24q-73 0 -111 -39.5t-38 -134.5v-151h422v151q0 179 86 268t245 89
q122 0 203 -37zM2169 0v682q0 102 -41 152.5t-133 50.5q-72 0 -147.5 -35.5t-121.5 -77.5v-772h-235v1546h233v-592q158 127 355 127q168 0 246.5 -89t78.5 -271v-721h-235z" />
    <glyph glyph-name="f_f_t" unicode="fft" horiz-adv-x="2103" 
d="M834 1059v151q0 179 86 268t245 89q122 0 203 -37l-10 -170q-74 24 -139 24q-74 0 -112 -39.5t-38 -134.5v-151h422v309l235 33v-342h287v-174h-287v-555q0 -84 29.5 -122t112.5 -38q45 0 95 14.5t85 34.5l37 -170q-42 -29 -121.5 -51.5t-159.5 -22.5q-157 0 -235 77.5
t-78 242.5v590h-422v-885h-235v885h-422v-885h-236v885h-151v174h151v151q0 179 86.5 268t245.5 89q122 0 203 -37l-11 -170q-74 24 -139 24q-73 0 -111 -39.5t-38 -134.5v-151h422z" />
    <glyph glyph-name="f_iacute" unicode="f&#xed;" horiz-adv-x="1210" 
d="M834 0v885h-422v-885h-236v885h-151v174h151v151q0 179 86.5 268t245.5 89q110 0 186 -31l-8 -176q-61 22 -131 22q-68 0 -105.5 -39t-37.5 -133v-151h657v-1059h-235zM834 1192l180 336h266l-283 -357z" />
    <glyph glyph-name="idieresis_idieresis" unicode="&#xef;&#xef;" horiz-adv-x="1009" 
d="M35 1255q-64 0 -104 36.5t-40 97.5q0 60 40.5 96.5t103.5 36.5q66 0 104.5 -36.5t38.5 -96.5q0 -62 -38.5 -98t-104.5 -36zM514 1255q-64 0 -104.5 36.5t-40.5 97.5q0 59 40.5 96t104.5 37q63 0 103 -36.5t40 -96.5q0 -61 -39.5 -97.5t-103.5 -36.5zM983 1255
q-64 0 -103.5 36.5t-39.5 97.5q0 60 40 96.5t103 36.5q66 0 104.5 -36.5t38.5 -96.5q0 -62 -38.5 -98t-104.5 -36zM137 0v1059h236v-1059h-236zM651 0v1059h236v-1059h-236z" />
    <glyph glyph-name="t_t" unicode="tt" horiz-adv-x="1460" 
d="M1442 49q-42 -29 -121.5 -51.5t-159.5 -22.5q-315 0 -315 326v584h-422v-555q0 -85 27.5 -123.5t109.5 -38.5q80 0 160 43l41 -170q-45 -27 -116 -46.5t-142 -19.5q-158 0 -237 77.5t-79 242.5v590h-161v174h161v309l236 33v-342h422v309l235 33v-342h287v-174h-287v-555
q0 -83 30 -121.5t112 -38.5q45 0 95 14.5t85 34.5z" />
    <glyph glyph-name=".notdef" 
d="M205 1483h758v-1483h-758v1483zM266 1421v-1290l600 1290h-600zM901 61v1291l-600 -1289z" />
    <glyph glyph-name=".null" horiz-adv-x="0" 
 />
    <glyph glyph-name="nonmarkingreturn" horiz-adv-x="682" 
 />
    <glyph glyph-name="CR" unicode="&#xd;" horiz-adv-x="1024" 
 />
    <glyph glyph-name="space" unicode=" " horiz-adv-x="405" 
 />
    <glyph glyph-name="exclam" unicode="!" horiz-adv-x="565" 
d="M154 1483h258l-35 -1092h-187zM438 119q0 -144 -153 -144q-156 0 -156 144q0 145 156 145q153 0 153 -145z" />
    <glyph glyph-name="quotedbl" unicode="&#x22;" horiz-adv-x="802" 
d="M469 1483h221v-531h-221v531zM113 1483h221v-531h-221v531z" />
    <glyph glyph-name="numbersign" unicode="#" horiz-adv-x="1243" 
d="M684 291h-221l-43 -291h-174l43 291h-223l36 170h213l43 268h-223l35 172h213l39 273h174l-41 -273h217l41 273h174l-41 -273h225l-32 -172h-217l-39 -268h221l-33 -170h-215l-43 -291h-174zM530 729l-41 -268h220l39 268h-218z" />
    <glyph glyph-name="dollar" unicode="$" horiz-adv-x="1099" 
d="M786 1040q-15 89 -47 140.5t-100 70.5v-432q70 -18 119.5 -36t102.5 -50t86 -72.5t54 -103t21 -141.5q0 -176 -99 -281.5t-274 -130.5v-170h-182v170q-376 38 -418 404l209 38q22 -126 69 -186.5t154 -73.5v443q-66 17 -113 34t-102 49.5t-88.5 73.5t-56.5 105.5
t-23 146.5q0 86 29.5 157.5t81.5 121.5t117.5 82.5t142.5 46.5v176h180v-174q316 -29 352 -379zM793 385q0 79 -40 124.5t-114 74.5v-389q154 39 154 190zM330 1071q0 -73 35.5 -121.5t115.5 -83.5v387q-78 -18 -114.5 -66.5t-36.5 -115.5z" />
    <glyph glyph-name="percent" unicode="%" horiz-adv-x="1665" 
d="M1253 -25q-90 0 -156.5 29t-104 81t-55 114t-17.5 137q0 177 89 280t261 103t252 -94t80 -263q0 -178 -90 -282.5t-259 -104.5zM1262 121q82 0 115.5 58t33.5 175q0 106 -32.5 161.5t-112.5 55.5q-154 0 -154 -223q0 -111 34 -169t116 -58zM1155 1483h211l-897 -1514
h-213zM379 768q-90 0 -157 29t-104.5 80.5t-55 113.5t-17.5 137q0 177 89 280t261 103q332 0 332 -356q0 -178 -89.5 -282.5t-258.5 -104.5zM387 913q82 0 116 58.5t34 175.5q0 106 -33 161.5t-113 55.5q-153 0 -153 -223q0 -112 33.5 -170t115.5 -58z" />
    <glyph glyph-name="ampersand" unicode="&#x26;" horiz-adv-x="1468" 
d="M1040 1147q0 -50 -13.5 -95t-46.5 -94t-97.5 -95.5t-157.5 -86.5l-57 -22q127 -191 317 -400q83 126 86 361h209q0 -292 -145 -482q89 -63 170 -63q39 0 86 18l32 -176q-65 -32 -155 -32q-153 0 -295 104q-139 -109 -389 -109q-222 0 -354 116.5t-132 295.5q0 146 71 244
t216 166q-76 143 -76 276q0 158 114 259.5t288 101.5q49 0 93.5 -8t88.5 -29t76 -52.5t51.5 -82.5t19.5 -115zM625 154q120 0 202 49q-190 179 -362 448q-61 -39 -94 -95t-33 -144q0 -108 74 -183t213 -75zM539 1106q0 -87 57 -217l57 24q185 82 185 222q0 59 -35.5 95
t-104.5 36q-71 0 -115 -42t-44 -118z" />
    <glyph glyph-name="quotesingle" unicode="'" horiz-adv-x="446" 
d="M113 1483h221v-531h-221v531z" />
    <glyph glyph-name="parenleft" unicode="(" horiz-adv-x="686" 
d="M397 -311q-297 449 -297 884q0 457 320 910h242q-152 -235 -233 -450t-81 -455q0 -134 22 -256t67 -235t90 -199.5t114 -200.5z" />
    <glyph glyph-name="parenright" unicode=")" horiz-adv-x="686" 
d="M29 1483h241q320 -453 320 -910q0 -132 -24.5 -260t-70 -240t-93.5 -202t-109 -182l-244 -2q68 110 114.5 198.5t90.5 200.5t66 234.5t22 257.5q0 242 -80 458t-233 447z" />
    <glyph glyph-name="asterisk" unicode="*" horiz-adv-x="968" 
d="M821 1339l35 -112l-233 -117l155 -238l-90 -69l-209 196l-207 -202l-90 73l154 238l-238 117l35 112l248 -55l45 264h111l38 -268z" />
    <glyph glyph-name="plus" unicode="+" 
d="M481 561h-288v199h288v297h201v-297h291v-199h-291v-305h-201v305z" />
    <glyph glyph-name="comma" unicode="," horiz-adv-x="468" 
d="M397 238l-184 -508l-188 20l118 488h254z" />
    <glyph glyph-name="hyphen" unicode="-" horiz-adv-x="645" 
d="M41 707h555v-211h-555v211z" />
    <glyph glyph-name="period" unicode="." horiz-adv-x="499" 
d="M410 129q0 -154 -160 -154t-160 154q0 156 160 156t160 -156z" />
    <glyph glyph-name="slash" unicode="/" horiz-adv-x="827" 
d="M592 1546h213l-574 -1734h-215z" />
    <glyph glyph-name="zero" unicode="0" horiz-adv-x="1169" 
d="M580 -25q-101 -1 -179.5 23t-133 73t-92 113.5t-58.5 154.5t-30.5 185.5t-10.5 216.5q0 143 15.5 256.5t52.5 211.5t96 162.5t149.5 101t210.5 36.5t208 -37t142.5 -100t87 -160.5t44.5 -204t12 -245.5q0 -150 -14.5 -266t-50 -216.5t-93 -165.5t-147 -102t-209.5 -37z
M586 164q55 0 96 16.5t69.5 52t47 82.5t29 116.5t14.5 143.5t4 175q0 83 -2.5 145t-9 123.5t-18 104.5t-30.5 81t-45.5 60.5t-63 35.5t-83.5 13q-65 0 -112 -25t-77.5 -70t-48.5 -118.5t-25 -159.5t-7 -203q0 -95 4 -167t14.5 -140t29.5 -114.5t47.5 -82t70 -52.5t96.5 -17z
" />
    <glyph glyph-name="one" unicode="1" horiz-adv-x="868" 
d="M406 1186q-47 -26 -154 -46t-164 -20l-14 191q144 12 245.5 53t172.5 119h147v-1483h-233v1186z" />
    <glyph glyph-name="two" unicode="2" horiz-adv-x="1087" 
d="M555 1509q201 0 311.5 -95.5t110.5 -278.5q0 -65 -14.5 -125.5t-38 -113t-67 -116t-88 -118t-114.5 -134.5l-282 -323v-4h624v-201h-893v197l334 397q65 76 93.5 111.5t72 91.5t61.5 88t39 76t28 82.5t7 82.5q0 191 -207 191q-62 0 -105.5 -16.5t-70.5 -50.5t-41.5 -74
t-23.5 -97l-209 37q27 200 153.5 296.5t319.5 96.5z" />
    <glyph glyph-name="three" unicode="3" horiz-adv-x="1118" 
d="M276 379q19 -107 70 -159t172 -52q111 0 181.5 64t70.5 196q0 135 -72.5 194.5t-210.5 59.5h-137v186h94q145 0 225.5 69t80.5 187q0 195 -207 195q-111 0 -162 -47.5t-76 -151.5l-205 43q35 183 159 264.5t308 81.5q200 0 308 -94t108 -260q0 -75 -25 -138t-68 -105
t-90 -69t-100 -44v-6q312 -62 312 -375q0 -201 -136.5 -322t-359.5 -121q-189 0 -309 88.5t-144 274.5z" />
    <glyph glyph-name="four" unicode="4" 
d="M725 352h-676v170l615 961h290v-936h172v-195h-174v-352h-227v352zM727 1262l-459 -715h459v715z" />
    <glyph glyph-name="five" unicode="5" horiz-adv-x="1124" 
d="M934 1483v-201h-561l-41 -438q121 98 289 98q82 0 151.5 -24t127 -75t90 -141.5t32.5 -212.5q0 -233 -140.5 -373.5t-373.5 -140.5q-85 0 -159 20.5t-137 62.5t-105.5 113.5t-55.5 166.5l211 43q20 -100 76 -156.5t174 -56.5q53 0 100 18t86 54.5t61.5 98t22.5 142.5
q0 143 -65.5 206t-175.5 63q-130 0 -244 -109l-158 68l58 774h737z" />
    <glyph glyph-name="six" unicode="6" 
d="M860 1122q-24 111 -74 155t-133 44q-67 0 -120.5 -33t-88 -86.5t-58 -127.5t-34 -150t-12.5 -160q60 60 152.5 101.5t195.5 41.5q188 0 291.5 -112t103.5 -314q0 -243 -131.5 -374.5t-349.5 -131.5q-115 0 -202 38t-141 102t-87.5 159t-46 196.5t-12.5 227.5
q0 76 7 150.5t24.5 156.5t45 153t72.5 136.5t101.5 112.5t137 74.5t175.5 27.5q154 0 254.5 -75t138.5 -252zM352 588q2 -49 5.5 -86.5t11.5 -84.5t19.5 -81t31 -68.5t44.5 -56.5t62 -35.5t82 -13.5q111 0 173.5 77t62.5 224q0 256 -215 256q-71 0 -146.5 -38t-130.5 -93z
" />
    <glyph glyph-name="seven" unicode="7" horiz-adv-x="1064" 
d="M770 1282h-702v201h950v-178l-588 -1305h-250z" />
    <glyph glyph-name="eight" unicode="8" horiz-adv-x="1128" 
d="M770 788q73 -34 122 -66.5t92 -79t64 -109.5t21 -144q0 -177 -141.5 -295.5t-374.5 -118.5q-126 0 -222 30t-153.5 83.5t-86 121t-28.5 148.5q0 142 75.5 240.5t221.5 163.5q-121 55 -183 145.5t-62 206.5q0 186 131.5 290.5t345.5 104.5q212 0 328 -91t116 -251
q0 -125 -67.5 -215.5t-198.5 -163.5zM524 668q-110 -56 -168.5 -122t-58.5 -167q0 -100 64 -159.5t198 -59.5q131 0 198.5 64.5t67.5 158.5q0 48 -19 89t-44.5 68t-72 53.5t-79 40.5t-86.5 34zM596 872q207 113 207 279q0 88 -54.5 136t-164.5 48q-105 0 -167.5 -51.5
t-62.5 -138.5q0 -93 64 -158.5t178 -114.5z" />
    <glyph glyph-name="nine" unicode="9" 
d="M291 375q24 -113 82 -163t157 -50q65 0 116.5 29t86.5 78.5t58.5 119t34.5 148t12 168.5q-54 -57 -151 -96.5t-202 -39.5q-185 0 -289 117t-104 322q0 162 63 276.5t170.5 169.5t249.5 55q114 0 200.5 -38t140 -102t87 -158.5t46 -196.5t12.5 -228q0 -811 -545 -811
q-83 0 -152 18t-127.5 56.5t-98.5 105.5t-56 158zM821 887q-3 75 -9.5 130t-23.5 116t-44 99.5t-73 63.5t-108 25q-109 0 -171 -76t-62 -225q0 -268 213 -268q75 0 148 37.5t130 97.5z" />
    <glyph glyph-name="colon" unicode=":" horiz-adv-x="499" 
d="M410 129q0 -154 -160 -154t-160 154q0 156 160 156t160 -156zM410 877q0 -154 -160 -154t-160 154q0 155 160 155t160 -155z" />
    <glyph glyph-name="semicolon" unicode=";" horiz-adv-x="524" 
d="M399 238l-184 -508l-188 20l118 488h254zM459 877q0 -154 -160 -154t-160 154q0 155 160 155t160 -155z" />
    <glyph glyph-name="less" unicode="&#x3c;" 
d="M160 709l784 303v-205l-577 -211l577 -209v-205l-784 291v236z" />
    <glyph glyph-name="equal" unicode="=" 
d="M197 500h774v-203h-774v203zM197 856h774v-203h-774v203z" />
    <glyph glyph-name="greater" unicode="&#x3e;" 
d="M193 1012l784 -303v-230l-784 -289v199l575 207l-575 209v207z" />
    <glyph glyph-name="question" unicode="?" horiz-adv-x="1073" 
d="M324 760q69 7 124.5 18t112.5 34t95.5 55.5t62.5 84t24 117.5q0 219 -223 219q-105 0 -167.5 -51.5t-86.5 -173.5l-223 37q13 85 48 154.5t93.5 124.5t148 85.5t202.5 30.5q75 0 139.5 -12.5t123.5 -43t101 -77t67 -119t25 -164.5q0 -195 -116 -310t-322 -159v-219h-229
v369zM590 119q0 -144 -156 -144q-155 0 -155 144q0 145 155 145q156 0 156 -145z" />
    <glyph glyph-name="at" unicode="@" horiz-adv-x="1734" 
d="M1358 -246q-163 -129 -481 -129q-166 0 -307.5 47.5t-249 139.5t-169 238.5t-61.5 332.5q0 176 59.5 325t166 253t260 162.5t335.5 58.5q159 0 293.5 -44.5t232.5 -128.5t153 -211.5t55 -285.5q0 -262 -100.5 -393t-272.5 -131q-85 0 -148.5 31.5t-89.5 80.5
q-86 -116 -237 -116t-225 104t-74 277q0 197 94.5 322.5t251.5 125.5q110 0 182 -72l14 60h144v-527q0 -74 18.5 -109.5t81.5 -35.5q87 0 134.5 102t47.5 258q0 260 -142.5 396.5t-424.5 136.5q-123 0 -226.5 -33.5t-176.5 -92.5t-124 -139t-75.5 -172.5t-24.5 -193.5
q0 -154 46.5 -272t131.5 -190t197 -108t250 -36q236 0 393 109zM1016 618q-63 56 -144 56q-87 0 -141.5 -72.5t-54.5 -218.5q0 -256 160 -256q110 0 180 111v380z" />
    <glyph glyph-name="A" unicode="A" horiz-adv-x="1421" 
d="M1370 0h-262l-139 406h-539l-135 -406h-244l494 1483h305zM694 1262l-217 -656h436l-215 656h-4z" />
    <glyph glyph-name="B" unicode="B" horiz-adv-x="1292" 
d="M178 1483h545q128 0 218 -27t139 -78.5t70 -113.5t21 -144q0 -144 -82 -229.5t-212 -116.5v-6q350 -39 350 -362q0 -406 -553 -406h-496v1483zM635 193q64 0 111.5 5t92.5 19.5t73.5 39.5t45.5 66.5t17 98.5q0 235 -303 235h-256v-464h219zM592 852q340 0 340 233
q0 52 -13 89t-35 59.5t-59.5 35t-78.5 17t-99 4.5h-231v-438h176z" />
    <glyph glyph-name="C" unicode="C" horiz-adv-x="1419" 
d="M758 -25q-176 0 -305.5 53t-207.5 153.5t-115.5 234.5t-37.5 305q0 367 186 577.5t515 210.5q241 0 393 -125q157 -127 172 -393l-221 -20q-19 170 -101 251t-245 81q-216 0 -334.5 -141t-118.5 -425q0 -293 109 -426t323 -133q160 0 246.5 74t120.5 221l213 -41
q-14 -97 -55.5 -176t-99.5 -130.5t-131.5 -86t-149.5 -49.5t-156 -15z" />
    <glyph glyph-name="D" unicode="D" horiz-adv-x="1486" 
d="M178 1483h481q374 0 555 -188t181 -531q0 -173 -46 -311.5t-138.5 -240.5t-241 -157t-344.5 -55h-447v1483zM623 195q268 0 397 141t129 405q0 156 -32.5 263t-99.5 169t-157.5 88.5t-218.5 26.5h-223v-1093h205z" />
    <glyph glyph-name="E" unicode="E" horiz-adv-x="1183" 
d="M1106 201v-201h-928v1483h897v-201h-657v-438h616v-199h-616v-444h688z" />
    <glyph glyph-name="F" unicode="F" horiz-adv-x="1126" 
d="M178 0v1483h893v-201h-653v-463h604v-201h-604v-618h-240z" />
    <glyph glyph-name="G" unicode="G" horiz-adv-x="1509" 
d="M1161 193q-43 -96 -165.5 -157t-272.5 -61q-130 0 -235 36t-178.5 101t-122.5 158t-72 205.5t-23 245.5q0 371 185.5 579.5t519.5 208.5q120 0 217 -28.5t172 -88t120 -157.5t54 -231l-223 -25q-14 163 -97 245.5t-249 82.5q-219 0 -335 -147t-116 -417q0 -155 30 -265.5
t88 -176t136 -95.5t182 -30q86 0 156 27t113.5 72t66.5 101.5t23 117.5v96h-347v180h578v-770h-176z" />
    <glyph glyph-name="H" unicode="H" horiz-adv-x="1495" 
d="M1077 0v647h-659v-647h-240v1483h240v-625h659v625h240v-1483h-240z" />
    <glyph glyph-name="I" unicode="I" horiz-adv-x="595" 
d="M178 0v1483h240v-1483h-240z" />
    <glyph glyph-name="J" unicode="J" horiz-adv-x="1046" 
d="M885 1483v-1094q0 -414 -432 -414q-191 0 -295.5 89.5t-114.5 285.5l231 37q10 -109 47.5 -161t137.5 -52q93 0 139.5 44.5t46.5 164.5v1100h240z" />
    <glyph glyph-name="K" unicode="K" horiz-adv-x="1341" 
d="M1047 1483h260l-566 -629l580 -854h-281l-467 670l-155 -168v-502h-240v1483h240v-692z" />
    <glyph glyph-name="L" unicode="L" horiz-adv-x="1142" 
d="M1073 203v-203h-895v1483h240v-1280h655z" />
    <glyph glyph-name="M" unicode="M" horiz-adv-x="1851" 
d="M1450 0v1233h-6l-408 -1233h-233l-400 1237h-4v-1237h-221v1483h361l387 -1192h6l385 1192h356v-1483h-223z" />
    <glyph glyph-name="N" unicode="N" horiz-adv-x="1525" 
d="M399 1165v-1165h-221v1483h301l649 -1159v1159h220v-1483h-283z" />
    <glyph glyph-name="O" unicode="O" horiz-adv-x="1556" 
d="M768 -25q-173 0 -304 56.5t-211.5 159.5t-120.5 240t-40 306q0 167 46 307.5t133.5 244t222.5 162t305 58.5q136 0 247 -37.5t188 -104.5t129.5 -160.5t76.5 -203t24 -235.5q0 -181 -43.5 -326t-129 -249.5t-218.5 -161t-305 -56.5zM778 180q203 0 322 140.5t119 427.5
q0 276 -112.5 414t-313.5 138t-326 -137q-127 -139 -127 -422q0 -280 116.5 -420.5t321.5 -140.5z" />
    <glyph glyph-name="P" unicode="P" horiz-adv-x="1265" 
d="M178 0v1483h516q111 0 197.5 -24.5t141.5 -66t90.5 -100.5t50 -122.5t14.5 -137.5q0 -514 -574 -514h-198v-518h-238zM594 717q63 0 110.5 6.5t94 25.5t76 51t47.5 86.5t18 129.5q0 147 -79 208.5t-240 61.5h-205v-569h178z" />
    <glyph glyph-name="Q" unicode="Q" horiz-adv-x="1556" 
d="M768 -25q-170 0 -301 56.5t-212 159t-122 240.5t-41 306q0 167 46 307.5t133.5 244t222.5 162t305 58.5q136 0 247 -37.5t188 -104.5t129.5 -160.5t76.5 -203t24 -235.5q0 -377 -186 -580l178 -188l-137 -127l-186 197q-142 -95 -365 -95zM778 170q127 0 219 51l-254 277
l138 129l245 -271q97 154 97 392q0 275 -114.5 413.5t-315.5 138.5t-326 -137q-127 -139 -127 -422q0 -281 117.5 -426t320.5 -145z" />
    <glyph glyph-name="R" unicode="R" horiz-adv-x="1308" 
d="M1018 0l-320 596h-282v-596h-238v1483h537q107 0 191.5 -23t138.5 -61t89 -91.5t49.5 -111t14.5 -123.5q0 -160 -72.5 -263t-201.5 -153l354 -657h-260zM647 788q143 0 223 61t80 208q0 127 -77 178t-232 51h-225v-498h231z" />
    <glyph glyph-name="S" unicode="S" horiz-adv-x="1226" 
d="M627 1315q-141 0 -208 -53t-67 -148q0 -33 10 -61.5t23 -49t40.5 -40.5t48.5 -32t61.5 -27.5t64.5 -23t71 -22.5q4 -1 7 -2l6 -2q171 -53 239 -86q169 -84 209 -233q13 -51 13 -111q0 -94 -29.5 -170t-79.5 -127.5t-119.5 -86t-147.5 -50t-165 -15.5q-510 0 -553 441
l221 33q11 -51 24.5 -88.5t39 -76t60 -63t88.5 -40t124 -15.5q47 0 87.5 6.5t80 22.5t67.5 40.5t45 64.5t17 91q0 48 -19 86.5t-45.5 63t-75.5 46.5t-87.5 33.5t-102.5 28.5q-88 24 -134.5 38.5t-120 50.5t-111 77t-67 110.5t-29.5 159.5q0 131 68 228t184 146.5t264 49.5
q82 0 150 -12t131 -42.5t108.5 -78t76 -122t38.5 -171.5l-222 -26q-8 59 -24 101.5t-47 80t-84.5 57t-128.5 19.5z" />
    <glyph glyph-name="T" unicode="T" horiz-adv-x="1169" 
d="M467 1282h-444v201h1124v-201h-440v-1282h-240v1282z" />
    <glyph glyph-name="U" unicode="U" horiz-adv-x="1456" 
d="M731 176q172 0 247 82.5t75 278.5v946h239v-971q0 -271 -150 -404t-423 -133q-289 0 -422 134t-133 409v965h239v-940q0 -192 78 -279.5t250 -87.5z" />
    <glyph glyph-name="V" unicode="V" horiz-adv-x="1304" 
d="M10 1483h269l389 -1252h6l377 1252h243l-469 -1483h-323z" />
    <glyph glyph-name="W" unicode="W" horiz-adv-x="1882" 
d="M948 1141h-4l-289 -1141h-305l-323 1483h252l235 -1217h4l301 1217h260l307 -1227h5l223 1227h239l-313 -1483h-305z" />
    <glyph glyph-name="X" unicode="X" horiz-adv-x="1300" 
d="M1284 0h-274l-375 563l-359 -563h-260l484 750l-459 733h266l344 -553l348 553h250l-463 -727z" />
    <glyph glyph-name="Y" unicode="Y" horiz-adv-x="1191" 
d="M487 0v567l-507 916h262l368 -688h4l357 688h241l-485 -912l2 -571h-242z" />
    <glyph glyph-name="Z" unicode="Z" horiz-adv-x="1206" 
d="M1133 201v-201h-1070v172l756 1110h-735v201h1018v-178l-748 -1104h779z" />
    <glyph glyph-name="bracketleft" unicode="[" horiz-adv-x="593" 
d="M125 1483h391v-166h-166v-1444h166v-166h-391v1776z" />
    <glyph glyph-name="backslash" unicode="\" horiz-adv-x="831" 
d="M29 1546h213l575 -1734h-215z" />
    <glyph glyph-name="bracketright" unicode="]" horiz-adv-x="593" 
d="M78 1483h391v-1776h-391v166h166v1444h-166v166z" />
    <glyph glyph-name="asciicircum" unicode="^" horiz-adv-x="1261" 
d="M627 1153l-297 -541h-224l404 748h240l409 -748h-229z" />
    <glyph glyph-name="underscore" unicode="_" horiz-adv-x="1024" 
d="M0 -195h1024v-176h-1024v176z" />
    <glyph glyph-name="grave" unicode="`" horiz-adv-x="1024" 
d="M516 1528l180 -336l-164 -21l-282 357h266z" />
    <glyph glyph-name="a" unicode="a" horiz-adv-x="1126" 
d="M954 223q0 -44 13.5 -63t50.5 -19q19 0 63 13l9 -140q-77 -34 -166 -34q-80 0 -122.5 30.5t-56.5 93.5q-56 -60 -142.5 -94.5t-192.5 -34.5q-76 0 -134.5 20t-91.5 50t-54 70.5t-27.5 75t-6.5 69.5q0 99 40.5 172t113.5 114t163 60t201 19q55 0 109 -4v79
q0 106 -37 154.5t-147 48.5q-93 0 -135 -38t-60 -126l-207 37q25 152 127 228.5t293 76.5q205 0 301 -86.5t96 -281.5v-490zM725 459q-36 4 -98 4q-54 0 -96.5 -5t-91 -21t-76 -52.5t-27.5 -91.5q0 -141 158 -141q67 0 129.5 28.5t101.5 69.5v209z" />
    <glyph glyph-name="b" unicode="b" horiz-adv-x="1200" 
d="M147 1546h232v-590q137 125 342 125q84 0 152.5 -28.5t122 -88.5t83 -164t29.5 -245q0 -152 -33.5 -265.5t-94.5 -181t-139.5 -100.5t-174.5 -33q-168 0 -299 115l-5 -2l-14 -88h-201v1546zM383 262q117 -90 238 -90q243 0 243 379q0 169 -53.5 253.5t-173.5 84.5
q-67 0 -136.5 -34t-117.5 -79v-514z" />
    <glyph glyph-name="c" unicode="c" horiz-adv-x="1107" 
d="M584 -25q-128 0 -224 40t-155 113t-88 170t-29 218q0 273 137.5 419t386.5 146q180 0 292.5 -100.5t125.5 -286.5l-217 -30q-26 229 -211 229q-268 0 -268 -350q0 -375 262 -375q99 0 156.5 51t76.5 160l205 -41q-16 -123 -81.5 -206.5t-159 -120t-209.5 -36.5z" />
    <glyph glyph-name="d" unicode="d" horiz-adv-x="1193" 
d="M856 0l-16 106h-4q-138 -131 -334 -131q-192 0 -301 130.5t-109 406.5q0 122 24.5 220t66.5 162t100 107t121.5 61.5t134.5 18.5q175 0 284 -92v557h230v-1546h-197zM817 807q-40 32 -100.5 57t-128.5 25q-88 0 -145.5 -48.5t-82 -130t-24.5 -196.5q0 -175 58.5 -261.5
t183.5 -86.5q65 0 129.5 30.5t109.5 77.5v533z" />
    <glyph glyph-name="e" unicode="e" horiz-adv-x="1120" 
d="M588 -25q-111 0 -198.5 30t-143.5 81t-92 123t-51 150t-15 169q0 140 40 248t110 173.5t160 98.5t196 33q219 0 326.5 -127t107.5 -342q0 -68 -6 -141h-686q8 -303 266 -303q98 0 147.5 42.5t69.5 129.5l201 -49q-31 -149 -145.5 -232.5t-286.5 -83.5zM784 635
q0 135 -49 197.5t-155 62.5q-97 0 -165 -64t-75 -196h444z" />
    <glyph glyph-name="f" unicode="f" horiz-adv-x="700" 
d="M176 1059v151q0 179 90 268t254 89q128 0 209 -37l-8 -170q-76 26 -146 26q-79 0 -121 -39.5t-42 -142.5v-145h288v-174h-288v-885h-236v885h-151v174h151z" />
    <glyph glyph-name="g" unicode="g" horiz-adv-x="1136" 
d="M555 1081q201 0 297 -84q62 140 176 140q44 0 84 -13v-157q-105 6 -197 -21q46 -46 70.5 -111t24.5 -133q0 -175 -127 -275.5t-326 -100.5q-108 0 -184 22q-21 -14 -36 -38t-15 -46q0 -30 23 -47.5t85 -21.5l311 -19q176 -11 264.5 -73.5t88.5 -202.5q0 -100 -45 -172.5
t-124.5 -113t-173.5 -59t-206 -18.5q-114 0 -201.5 15t-141.5 39.5t-88.5 59.5t-47.5 71t-13 79q0 80 48 133t128 80v6q-125 44 -125 160q0 45 24 87t51 67.5t75 62.5q-71 43 -113.5 119.5t-42.5 173.5q0 174 123.5 282.5t333.5 108.5zM788 700q0 98 -59.5 148.5
t-167.5 50.5q-106 0 -169.5 -48t-63.5 -146q0 -199 231 -199q104 0 166.5 52t62.5 142zM852 -147q0 54 -33.5 82t-124.5 32l-334 19q-88 -62 -88 -144q0 -65 64.5 -97t210.5 -32q305 0 305 140z" />
    <glyph glyph-name="h" unicode="h" horiz-adv-x="1193" 
d="M823 0v682q0 102 -41 152.5t-133 50.5q-72 0 -147 -35.5t-121 -77.5v-772h-236v1546h234v-592q158 127 354 127q168 0 247 -89t79 -271v-721h-236z" />
    <glyph glyph-name="i" unicode="i" horiz-adv-x="526" 
d="M150 0v1059h235v-1059h-235zM422 1393q0 -156 -154 -156q-72 0 -112.5 40.5t-40.5 115.5q0 73 40.5 113t112.5 40q74 0 114 -40t40 -113z" />
    <glyph glyph-name="j" unicode="j" horiz-adv-x="522" 
d="M51 -457q-62 0 -125.5 14t-93.5 33l21 181q90 -35 159 -35q138 0 138 164v1159h235v-1174q0 -175 -87.5 -258.5t-246.5 -83.5zM424 1403q0 -73 -41 -114.5t-113 -41.5q-73 0 -113 41t-40 115q0 156 153 156q72 0 113 -40.5t41 -115.5z" />
    <glyph glyph-name="k" unicode="k" horiz-adv-x="1114" 
d="M795 1059h264l-361 -381l387 -678h-258l-305 522l-139 -137v-385h-236v1546h236v-915z" />
    <glyph glyph-name="l" unicode="l" horiz-adv-x="526" 
d="M150 0v1546h235v-1546h-235z" />
    <glyph glyph-name="m" unicode="m" horiz-adv-x="1763" 
d="M145 0v1059h203l8 -109q165 131 346 131q105 0 170 -32.5t97 -104.5q158 137 354 137q161 0 234 -88t73 -270v-723h-235v688q0 100 -32 148.5t-116 48.5q-59 0 -127.5 -32t-111.5 -71q2 -16 2 -55v-727h-236v688q0 101 -31 149t-114 48q-67 0 -137 -37q-68 -33 -111 -70
v-778h-236z" />
    <glyph glyph-name="n" unicode="n" horiz-adv-x="1193" 
d="M823 0v682q0 102 -41 152.5t-133 50.5q-72 0 -147 -35.5t-121 -77.5v-772h-236v1059h209l11 -111q168 133 366 133q170 0 249 -89t79 -271v-721h-236z" />
    <glyph glyph-name="o" unicode="o" horiz-adv-x="1191" 
d="M588 -25q-136 0 -235 41t-155.5 117t-83 172.5t-26.5 218.5q0 262 134 409.5t392 147.5q129 0 224.5 -38.5t153 -110t85 -167t27.5 -216.5q0 -272 -126 -423t-390 -151zM600 158q126 0 192 90.5t66 288.5q0 192 -61.5 273t-190.5 81q-272 0 -272 -359q0 -192 64.5 -283
t201.5 -91z" />
    <glyph glyph-name="p" unicode="p" horiz-adv-x="1198" 
d="M350 1059l12 -113q144 135 355 135q87 0 156 -28.5t123 -89t83 -164t29 -244.5q0 -122 -23 -220.5t-63 -164.5t-96 -110.5t-119.5 -64.5t-136.5 -20q-166 0 -295 103v-512h-228v1493h203zM381 262q43 -34 107 -64t130 -30q244 0 244 383q0 180 -54 259t-169 79
q-70 0 -140 -33.5t-118 -79.5v-514z" />
    <glyph glyph-name="q" unicode="q" horiz-adv-x="1191" 
d="M827 -434v534q-138 -125 -329 -125t-298.5 131t-107.5 408q0 121 25 219t67.5 162t100.5 106.5t121 61t133 18.5q181 0 295 -108l18 86h201v-1493h-226zM817 801q-38 34 -101 61t-130 27q-250 0 -250 -371q0 -173 57.5 -262.5t184.5 -89.5q64 0 128.5 31t110.5 77v527z
" />
    <glyph glyph-name="r" unicode="r" horiz-adv-x="770" 
d="M752 844q-99 12 -202 -18.5t-169 -90.5v-735h-236v1059h199l18 -158q64 92 147.5 136t199.5 44q20 0 43 -2v-235z" />
    <glyph glyph-name="s" unicode="s" horiz-adv-x="1009" 
d="M516 1081q178 0 274 -77.5t128 -223.5l-205 -53q-21 89 -63.5 133.5t-137.5 44.5q-93 0 -137.5 -34t-44.5 -91q0 -29 11 -51t29 -37t49 -27t62.5 -20t77.5 -16q49 -9 79 -15.5t74.5 -19.5t72 -27.5t59.5 -38.5t50 -53t30 -71t12 -93q0 -161 -118.5 -248.5t-317.5 -87.5
q-382 0 -432 299l200 66q13 -44 26.5 -72t39 -57.5t69 -44t105.5 -14.5q92 0 145.5 31t53.5 96q0 31 -11 54t-27 37.5t-48 26t-59.5 18t-76.5 15.5q-50 9 -76.5 15t-73 19.5t-72.5 27.5t-59.5 39t-51.5 54.5t-30.5 73t-12.5 95.5q0 158 115.5 242.5t291.5 84.5z" />
    <glyph glyph-name="t" unicode="t" horiz-adv-x="802" 
d="M784 49q-42 -29 -121 -51.5t-159 -22.5q-158 0 -237 77.5t-79 242.5v590h-161v174h161v309l236 33v-342h287v-174h-287v-557q0 -84 29.5 -122t111.5 -38q45 0 95 14.5t85 34.5z" />
    <glyph glyph-name="u" unicode="u" horiz-adv-x="1187" 
d="M379 1059v-682q0 -103 37.5 -152t128.5 -49q71 0 146 34.5t120 76.5v772h236v-1059h-205l-17 117q-153 -140 -362 -140q-164 0 -242 89.5t-78 269.5v723h236z" />
    <glyph glyph-name="v" unicode="v" horiz-adv-x="1058" 
d="M4 1059h256l277 -828h4l274 828h240l-387 -1059h-273z" />
    <glyph glyph-name="w" unicode="w" horiz-adv-x="1599" 
d="M4 1059h238l231 -815h2l213 815h238l213 -811h2l225 811h229l-323 -1059h-271l-198 776h-4l-191 -776h-280z" />
    <glyph glyph-name="x" unicode="x" horiz-adv-x="1040" 
d="M1016 0h-254l-256 379l-244 -379h-233l352 541l-354 518h256l239 -363l248 363h229l-350 -514z" />
    <glyph glyph-name="y" unicode="y" horiz-adv-x="1028" 
d="M260 1059l260 -795h2l260 795h242q-208 -579 -442 -1194q-64 -175 -146.5 -248.5t-222.5 -73.5q-55 0 -115.5 12.5t-97.5 28.5l23 176q94 -32 165 -32q57 0 99 33.5t73 111.5l43 111l-397 1075h254z" />
    <glyph glyph-name="z" unicode="z" horiz-adv-x="946" 
d="M897 193v-193h-838v168l551 706h-542v185h804v-170l-546 -696h571z" />
    <glyph glyph-name="braceleft" unicode="{" horiz-adv-x="651" 
d="M459 -297q-297 0 -297 250q0 63 14 197t14 204q0 166 -143 166h-41v156h39q145 0 145 164q0 73 -14 220t-14 200q0 249 295 249h129v-170h-64q-61 0 -86.5 -25.5t-25.5 -78.5q0 -59 14 -201t14 -209q0 -101 -39.5 -149t-119.5 -78q79 -30 119 -78.5t40 -150.5
q0 -67 -14 -197t-14 -186q0 -58 29 -87.5t100 -29.5h47v-166h-127z" />
    <glyph glyph-name="bar" unicode="|" horiz-adv-x="573" 
d="M180 1546h213v-1839h-213v1839z" />
    <glyph glyph-name="braceright" unicode="}" horiz-adv-x="651" 
d="M193 1509q296 0 296 -249q0 -61 -14 -196.5t-14 -205.5q0 -166 143 -166h41v-155h-39q-145 0 -145 -164q0 -73 14 -220t14 -200q0 -250 -294 -250h-129v170h63q63 0 88 25t25 79q0 59 -14.5 201t-14.5 209q0 101 40 149t120 78q-79 30 -119.5 79t-40.5 151q0 68 14.5 198
t14.5 185q0 59 -27.5 87.5t-101.5 28.5h-47v166h127z" />
    <glyph glyph-name="asciitilde" unicode="~" horiz-adv-x="1126" 
d="M324 885q69 0 258 -46t229 -46q39 0 55.5 20.5t16.5 77.5l137 -6q17 -123 -35 -197t-151 -74q-71 0 -263 46.5t-231 46.5q-76 0 -68 -107l-143 6q-13 131 41 205t154 74z" />
    <glyph glyph-name="uni00A0" unicode="&#xa0;" horiz-adv-x="405" 
 />
    <glyph glyph-name="exclamdown" unicode="&#xa1;" horiz-adv-x="589" 
d="M436 -428h-258l35 1092h186zM152 936q0 143 153 143q156 0 156 -143q0 -145 -156 -145q-153 0 -153 145z" />
    <glyph glyph-name="cent" unicode="&#xa2;" horiz-adv-x="1073" 
d="M672 1235q139 -21 229 -112t100 -238l-210 -31q-15 157 -119 190v-632q57 17 89.5 60.5t45.5 121.5l197 -37q-20 -144 -109.5 -229.5t-222.5 -106.5v-221h-172v221q-186 29 -288.5 162.5t-102.5 333.5q0 214 106 347.5t285 166.5v213h172v-209zM350 741q0 -135 34.5 -216
t115.5 -109v622q-150 -55 -150 -297z" />
    <glyph glyph-name="sterling" unicode="&#xa3;" horiz-adv-x="1175" 
d="M160 190q79 73 116 143.5t37 151.5q0 84 -43 166h-207v180h148q-27 51 -39.5 77t-29.5 85t-17 113q0 179 133 291t350 112q202 0 314.5 -91.5t138.5 -293.5l-211 -32q-15 115 -67.5 173t-174.5 58q-114 0 -178.5 -52.5t-64.5 -158.5q0 -25 5 -53t10 -48.5t17 -51
t18.5 -44t21.5 -45.5t18 -39h434v-180h-379q33 -73 33 -155q0 -169 -140 -306h293q118 0 168.5 51t71.5 173l201 -37q-20 -193 -122 -285t-302 -92h-672v190h119z" />
    <glyph glyph-name="currency" unicode="&#xa4;" 
d="M823 184q-109 -71 -258 -71q-151 0 -266 73l-182 -184l-133 139l190 189q-57 105 -57 245q0 121 59 230l-186 184l141 144l178 -179q109 80 269 80q164 0 268 -73l170 169l133 -139l-178 -178q55 -101 55 -229q0 -147 -68 -254l189 -187l-141 -141zM573 297
q117 0 180.5 78t63.5 200q0 130 -63 201.5t-185 71.5q-118 0 -180.5 -75t-62.5 -198q0 -125 61.5 -201.5t185.5 -76.5z" />
    <glyph glyph-name="yen" unicode="&#xa5;" horiz-adv-x="1122" 
d="M956 877v-172h-268v-170h268v-173h-268v-362h-235v362h-269v173h269v170h-269v172h187l-334 606h256l280 -537h5l270 537h239l-325 -606h194z" />
    <glyph glyph-name="brokenbar" unicode="&#xa6;" horiz-adv-x="573" 
d="M180 502h213v-795h-213v795zM180 1546h213v-698h-213v698z" />
    <glyph glyph-name="section" unicode="&#xa7;" horiz-adv-x="1138" 
d="M92 498q0 183 191 301q-123 103 -123 270q0 121 63 209.5t164.5 131t226.5 42.5q188 0 304 -92.5t129 -280.5l-218 -28q-8 112 -59 169.5t-162 57.5q-104 0 -161.5 -48.5t-57.5 -129.5q0 -58 29 -100.5t76.5 -65.5t108 -44t123.5 -36t123.5 -42t108 -61t76.5 -94.5
t29 -140.5q0 -86 -50.5 -163.5t-140.5 -139.5q125 -99 125 -268q0 -120 -62 -208.5t-164 -131.5t-230 -43q-191 0 -305 96.5t-127 284.5l210 26q11 -111 65 -168t165 -57q103 0 158 46.5t55 129.5q0 51 -23 88.5t-61.5 60t-89 39t-106 31t-111 31t-106 42.5t-89 61.5
t-61.5 92.5t-23 132zM315 545q0 -40 18 -71t45 -50.5t71 -37t83.5 -28.5t94.5 -27.5t94 -31.5q110 70 110 176q0 38 -17.5 68t-44 49t-70 36.5t-82.5 28t-94.5 27.5t-94.5 31q-113 -78 -113 -170z" />
    <glyph glyph-name="dieresis" unicode="&#xa8;" horiz-adv-x="1024" 
d="M438 1382q0 -67 -41 -106t-108 -39q-68 0 -110 39t-42 106q0 66 42 105t110 39q67 0 108 -39.5t41 -104.5zM889 1382q0 -67 -41.5 -106t-108.5 -39q-69 0 -110 39t-41 106q0 66 41 105t110 39q67 0 108.5 -39.5t41.5 -104.5z" />
    <glyph glyph-name="copyright" unicode="&#xa9;" horiz-adv-x="1605" 
d="M1503 680q0 -316 -194 -510.5t-508 -194.5q-170 0 -304.5 51.5t-220.5 143t-131 213.5t-45 266q0 129 36 241.5t101 196.5t152.5 144t193.5 90.5t222 30.5q324 0 511 -182t187 -490zM805 106q259 0 408 151t149 411q0 262 -153 407.5t-404 145.5q-244 0 -401.5 -154
t-157.5 -416q0 -254 148.5 -399.5t410.5 -145.5zM1130 532q-8 -61 -32.5 -109t-56.5 -76.5t-73 -47t-78.5 -25t-76.5 -6.5q-96 0 -168.5 30t-115.5 84.5t-64 126t-21 159.5q0 178 98.5 287.5t274.5 109.5q128 0 213.5 -65t91.5 -201l-133 -17q-15 164 -176 164
q-99 0 -159 -68t-60 -214q0 -78 20.5 -138t70 -99.5t124.5 -39.5q89 0 134 41.5t63 124.5z" />
    <glyph glyph-name="ordfeminine" unicode="&#xaa;" horiz-adv-x="788" 
d="M668 745q0 -39 16 -49t55 -4l6 -108q-67 -25 -110 -25q-58 0 -94.5 24.5t-42.5 61.5q-81 -88 -219 -88q-63 0 -108 20t-65.5 52t-29 61.5t-8.5 59.5q0 229 346 229q46 0 69 -2v35q0 66 -22.5 96.5t-89.5 30.5q-56 0 -83 -23t-38 -78l-158 27q37 211 295 211
q144 0 212.5 -56.5t68.5 -183.5v-291zM485 862q-16 2 -61 2q-42 0 -76 -7t-61 -29t-27 -58q0 -78 88 -78q39 0 77 15.5t60 37.5v117z" />
    <glyph glyph-name="guillemotleft" unicode="&#xab;" horiz-adv-x="915" 
d="M100 528l183 308h200l-176 -301l170 -324h-198zM449 528l182 308h200l-176 -301l170 -324h-198z" />
    <glyph glyph-name="logicalnot" unicode="&#xac;" 
d="M776 565h-590v201h781v-393h-191v192z" />
    <glyph glyph-name="uni00AD" unicode="&#xad;" horiz-adv-x="636" 
d="M41 707h555v-211h-555v211z" />
    <glyph glyph-name="registered" unicode="&#xae;" horiz-adv-x="935" 
d="M854 977q0 -173 -107.5 -280t-279.5 -107q-192 0 -289 106q-96 110 -96 265q0 177 111 283t276 106q178 0 281.5 -101t103.5 -272zM762 971q0 139 -81 215t-212 76q-127 0 -210 -80.5t-83 -216.5q0 -134 78.5 -210.5t214.5 -76.5q135 0 214 78.5t79 214.5zM561 784
l-90 150h-45v-150h-86v390h141q142 0 142 -113q0 -71 -72 -103l104 -174h-94zM455 999q38 0 57.5 12.5t19.5 45.5q0 51 -67 51h-39v-109h29z" />
    <glyph glyph-name="overscore" unicode="&#xaf;" horiz-adv-x="1024" 
d="M205 1432h612v-170h-612v170z" />
    <glyph glyph-name="degree" unicode="&#xb0;" horiz-adv-x="595" 
d="M299 1186q49 0 78 31.5t29 82.5q0 53 -29.5 83t-77.5 30q-46 0 -77.5 -32t-31.5 -87q0 -50 29 -79t80 -29zM532 1300q0 -106 -64.5 -170.5t-168.5 -64.5q-106 0 -171 62.5t-65 166.5q0 112 67 175t169 63t167.5 -62t65.5 -170z" />
    <glyph glyph-name="plusminus" unicode="&#xb1;" 
d="M193 199h780v-199h-780v199zM481 561h-288v199h288v297h201v-297h291v-199h-291v-276h-201v276z" />
    <glyph glyph-name="uni00B2" unicode="&#xb2;" horiz-adv-x="804" 
d="M408 1649q145 0 219.5 -62.5t74.5 -175.5q0 -101 -55.5 -183t-195.5 -212l-111 -121v-6h377v-174h-619v172l205 219q99 105 146 168q43 61 43 125q0 92 -103 92q-58 0 -87 -32.5t-40 -98.5l-180 26q16 133 104.5 198t221.5 65z" />
    <glyph glyph-name="uni00B3" unicode="&#xb3;" horiz-adv-x="786" 
d="M248 971q11 -60 39.5 -87.5t89.5 -27.5q59 0 95 32t36 97q0 70 -36.5 99.5t-111.5 29.5h-96v143h62q82 0 126 38t44 102q0 96 -105 96q-58 0 -86 -26t-41 -83l-178 35q49 230 326 230q139 0 214.5 -58t75.5 -161q0 -159 -178 -222v-4q197 -41 197 -225q0 -129 -94 -204
t-246 -75q-127 0 -213.5 57t-104.5 181z" />
    <glyph glyph-name="acute" unicode="&#xb4;" horiz-adv-x="1024" 
d="M328 1192l180 336h266l-282 -357z" />
    <glyph glyph-name="uni00B5" unicode="&#xb5;" horiz-adv-x="1247" 
d="M1014 -20q-81 0 -126 28.5t-61 108.5q-73 -65 -144.5 -102.5t-170.5 -37.5q-82 0 -137 41v-452h-228v1493h234v-688q0 -106 41.5 -150.5t116.5 -44.5q145 0 274 111v772h236v-836q0 -46 13 -64t50 -18q20 0 64 13l8 -140q-77 -34 -170 -34z" />
    <glyph glyph-name="paragraph" unicode="&#xb6;" horiz-adv-x="1183" 
d="M831 -272v1595h-153v-1595h-182v778q-210 17 -322.5 140t-112.5 331q0 109 30 195.5t81.5 144t125 95.5t156.5 54.5t179 16.5h379l2 -1755h-183z" />
    <glyph glyph-name="middot" unicode="&#xb7;" horiz-adv-x="434" 
d="M369 627q0 -144 -152 -144q-151 0 -151 144q0 143 151 143q152 0 152 -143z" />
    <glyph glyph-name="cedilla" unicode="&#xb8;" horiz-adv-x="1024" 
d="M309 -317q71 -23 107 -23q102 0 102 84q0 48 -33.5 67t-109.5 21l33 229l129 -16l-19 -123q166 -30 166 -182q0 -98 -68.5 -156.5t-173.5 -58.5q-88 0 -168 37z" />
    <glyph glyph-name="uni00B9" unicode="&#xb9;" horiz-adv-x="624" 
d="M276 1395q-28 -14 -98 -25.5t-104 -11.5l-11 164q190 13 279 106h145v-917h-211v684z" />
    <glyph glyph-name="ordmasculine" unicode="&#xba;" horiz-adv-x="831" 
d="M408 557q-179 0 -263 96.5t-84 261.5q0 170 93 265.5t274 95.5q175 0 257.5 -92.5t82.5 -253.5q0 -175 -87.5 -274t-272.5 -99zM414 709q77 0 117 50t40 163q0 112 -35.5 158t-113.5 46q-162 0 -162 -206q0 -107 36.5 -159t117.5 -52z" />
    <glyph glyph-name="guillemotright" unicode="&#xbb;" horiz-adv-x="915" 
d="M467 520l-178 -309h-201l172 309l-174 316h201zM815 520l-178 -309h-201l172 309l-174 316h201z" />
    <glyph glyph-name="onequarter" unicode="&#xbc;" horiz-adv-x="1935" 
d="M1176 1483h215l-725 -1508h-220zM324 1255q-28 -14 -98 -25t-105 -11l-10 163q188 13 278 107h146v-918h-211v684zM1511 201h-426v143l375 574h256v-556h107v-161h-107v-201h-205v201zM1513 737l-245 -375h245v375z" />
    <glyph glyph-name="onehalf" unicode="&#xbd;" horiz-adv-x="1935" 
d="M1155 1483h215l-725 -1508h-219zM336 1255q-28 -14 -98 -25t-105 -11l-10 163q188 13 278 107h146v-918h-211v684zM1505 934q145 0 220 -63t75 -175q0 -101 -55.5 -182.5t-196.5 -212.5l-110 -121v-6h377v-174h-619v172l205 219q94 100 145 168q43 61 43 125
q0 92 -102 92q-58 0 -87 -32.5t-40 -98.5l-180 27q16 133 104 197.5t221 64.5z" />
    <glyph glyph-name="threequarters" unicode="&#xbe;" horiz-adv-x="1935" 
d="M1245 1483h215l-725 -1508h-219zM1548 201h-426v143l375 574h256v-556h107v-161h-107v-201h-205v201zM1550 737l-245 -375h245v375zM276 831q11 -59 40 -86.5t90 -27.5q59 0 95 32t36 97q0 70 -36.5 99.5t-111.5 29.5h-96v143h61q82 0 126 38t44 101q0 97 -104 97
q-58 0 -86 -26t-41 -83l-178 35q49 229 325 229q139 0 215 -58t76 -161q0 -158 -178 -221v-4q197 -41 197 -225q0 -129 -94 -204t-246 -75q-127 0 -213.5 57t-104.5 181z" />
    <glyph glyph-name="questiondown" unicode="&#xbf;" horiz-adv-x="1028" 
d="M737 295q-420 -32 -420 -309q0 -113 60.5 -166t163.5 -53q104 0 167 52.5t87 172.5l223 -37q-23 -174 -147.5 -284.5t-344.5 -110.5q-94 0 -172.5 21t-144 67t-102.5 129.5t-37 197.5q0 207 120 318q122 110 318 151v220h229v-369zM471 936q0 143 156 143q155 0 155 -143
q0 -145 -155 -145q-156 0 -156 145z" />
    <glyph glyph-name="Agrave" unicode="&#xc0;" horiz-adv-x="1425" 
d="M670 1874l194 -281l-172 -22l-291 303h269zM694 1262l-217 -656h436l-215 656h-4zM1370 0h-262l-139 406h-539l-135 -406h-244l494 1483h305z" />
    <glyph glyph-name="Aacute" unicode="&#xc1;" horiz-adv-x="1425" 
d="M1370 0h-262l-139 406h-539l-135 -406h-244l494 1483h305zM694 1262l-217 -656h436l-215 656h-4zM541 1593l196 281h267l-291 -303z" />
    <glyph glyph-name="Acircumflex" unicode="&#xc2;" horiz-adv-x="1425" 
d="M1370 0h-262l-139 406h-539l-135 -406h-244l494 1483h305zM694 1262l-217 -656h436l-215 656h-4zM539 1571l-168 18l229 273h211l225 -273l-170 -14l-161 156z" />
    <glyph glyph-name="Atilde" unicode="&#xc3;" horiz-adv-x="1425" 
d="M1370 0h-262l-139 406h-539l-135 -406h-244l494 1483h305zM694 1262l-217 -656h436l-215 656h-4zM549 1874q56 0 113 -23t107 -46t87 -23q38 0 54 20t16 78l131 -6q17 -122 -32.5 -193t-145.5 -71q-57 0 -116.5 23t-110.5 46t-87 23t-53.5 -23t-13.5 -82l-136 7
q-16 127 39 198.5t148 71.5z" />
    <glyph glyph-name="Adieresis" unicode="&#xc4;" horiz-adv-x="1425" 
d="M1370 0h-262l-139 406h-539l-135 -406h-244l494 1483h305zM694 1262l-217 -656h436l-215 656h-4zM629 1737q0 -67 -41.5 -105.5t-108.5 -38.5q-68 0 -109.5 38.5t-41.5 105.5q0 66 41.5 104.5t109.5 38.5q67 0 108.5 -39t41.5 -104zM1079 1737q0 -67 -41 -105.5
t-108 -38.5q-70 0 -111 38.5t-41 105.5q0 66 41.5 104.5t110.5 38.5q67 0 108 -39t41 -104z" />
    <glyph glyph-name="Aring" unicode="&#xc5;" horiz-adv-x="1421" 
d="M936 1640q0 -116 -80 -178l514 -1462h-262l-139 406h-539l-135 -406h-244l488 1466q-74 59 -74 166q0 110 67.5 169t167.5 59q103 0 169.5 -56.5t66.5 -163.5zM694 1262l-217 -656h436l-215 656h-4zM698 1534q107 0 107 111q0 102 -105 102q-47 0 -77.5 -28.5
t-30.5 -80.5q0 -50 28 -77t78 -27z" />
    <glyph glyph-name="AE" unicode="&#xc6;" horiz-adv-x="2050" 
d="M1958 201v-201h-928v625h-412l-325 -625h-246l774 1483h1106v-201h-655v-457h616v-196h-616v-428h686zM946 1282l-248 -463h332v463h-84z" />
    <glyph glyph-name="Ccedilla" unicode="&#xc7;" horiz-adv-x="1419" 
d="M596 -317q71 -23 106 -23q103 0 103 84q0 48 -33.5 67t-109.5 21l20 148q-155 11 -269.5 68t-184 155.5t-103 227t-33.5 290.5q0 367 186 577.5t515 210.5q241 0 393 -125q157 -127 172 -393l-221 -20q-19 170 -101 251t-245 81q-216 0 -334.5 -141t-118.5 -425
q0 -293 109 -426t323 -133q160 0 246.5 74t120.5 221l213 -41q-18 -113 -69.5 -199.5t-126 -139.5t-160 -81.5t-181.5 -34.5l-8 -55q166 -30 166 -182q0 -98 -68.5 -156.5t-173.5 -58.5q-88 0 -168 37z" />
    <glyph glyph-name="Egrave" unicode="&#xc8;" horiz-adv-x="1183" 
d="M596 1874l195 -281l-173 -22l-290 303h268zM1106 201v-201h-928v1483h897v-201h-657v-438h616v-199h-616v-444h688z" />
    <glyph glyph-name="Eacute" unicode="&#xc9;" horiz-adv-x="1183" 
d="M1106 201v-201h-928v1483h897v-201h-657v-438h616v-199h-616v-444h688zM483 1593l197 281h266l-291 -303z" />
    <glyph glyph-name="Ecircumflex" unicode="&#xca;" horiz-adv-x="1183" 
d="M1106 201v-201h-928v1483h897v-201h-657v-438h616v-199h-616v-444h688zM465 1571l-168 18l229 273h211l226 -273l-170 -14l-162 156z" />
    <glyph glyph-name="Edieresis" unicode="&#xcb;" horiz-adv-x="1183" 
d="M1106 201v-201h-928v1483h897v-201h-657v-438h616v-199h-616v-444h688zM555 1737q0 -67 -41 -105.5t-108 -38.5q-68 0 -110 38.5t-42 105.5q0 65 42 104t110 39q67 0 108 -39t41 -104zM1006 1737q0 -67 -41.5 -105.5t-108.5 -38.5q-69 0 -110 38.5t-41 105.5
q0 66 41 104.5t110 38.5q67 0 108.5 -39t41.5 -104z" />
    <glyph glyph-name="Igrave" unicode="&#xcc;" horiz-adv-x="595" 
d="M264 1874l195 -281l-172 -22l-291 303h268zM178 0v1483h240v-1483h-240z" />
    <glyph glyph-name="Iacute" unicode="&#xcd;" horiz-adv-x="595" 
d="M178 0v1483h240v-1483h-240zM135 1593l197 281h266l-291 -303z" />
    <glyph glyph-name="Icircumflex" unicode="&#xce;" horiz-adv-x="595" 
d="M178 0v1483h240v-1483h-240zM133 1571l-168 18l230 273h211l225 -273l-170 -14l-162 156z" />
    <glyph glyph-name="Idieresis" unicode="&#xcf;" horiz-adv-x="595" 
d="M178 0v1483h240v-1483h-240zM223 1737q0 -67 -41 -105.5t-108 -38.5q-68 0 -110 38.5t-42 105.5q0 65 42 104t110 39q67 0 108 -39t41 -104zM674 1737q0 -67 -41.5 -105.5t-108.5 -38.5q-69 0 -110 38.5t-41 105.5q0 66 41 104.5t110 38.5q67 0 108.5 -39t41.5 -104z" />
    <glyph glyph-name="Eth" unicode="&#xd0;" horiz-adv-x="1486" 
d="M178 670h-149v186h149v627h481q374 0 555 -188t181 -531q0 -173 -46 -311.5t-138.5 -240.5t-241 -157t-344.5 -55h-447v670zM623 195q268 0 397 141t129 405q0 156 -32.5 263t-99.5 169t-157.5 88.5t-218.5 26.5h-223v-432h401v-186h-401v-475h205z" />
    <glyph glyph-name="Ntilde" unicode="&#xd1;" horiz-adv-x="1525" 
d="M399 1165v-1165h-221v1483h301l649 -1159v1159h220v-1483h-283zM627 1874q56 0 113 -23t107 -46t87 -23q38 0 54 20t16 78l131 -6q17 -122 -33 -193t-146 -71q-57 0 -116 23t-110 46t-87 23t-54 -23t-14 -82l-135 7q-16 127 39 198.5t148 71.5z" />
    <glyph glyph-name="Ograve" unicode="&#xd2;" horiz-adv-x="1556" 
d="M780 1874l195 -281l-172 -22l-291 303h268zM778 180q203 0 322 140.5t119 427.5q0 276 -112.5 414t-313.5 138t-326 -137q-127 -139 -127 -422q0 -280 116.5 -420.5t321.5 -140.5zM768 -25q-173 0 -304 56.5t-211.5 159.5t-120.5 240t-40 306q0 167 46 307.5t133.5 244
t222.5 162t305 58.5q136 0 247 -37.5t188 -104.5t129.5 -160.5t76.5 -203t24 -235.5q0 -181 -43.5 -326t-129 -249.5t-218.5 -161t-305 -56.5z" />
    <glyph glyph-name="Oacute" unicode="&#xd3;" horiz-adv-x="1556" 
d="M768 -25q-173 0 -304 56.5t-211.5 159.5t-120.5 240t-40 306q0 167 46 307.5t133.5 244t222.5 162t305 58.5q136 0 247 -37.5t188 -104.5t129.5 -160.5t76.5 -203t24 -235.5q0 -181 -43.5 -326t-129 -249.5t-218.5 -161t-305 -56.5zM778 180q203 0 322 140.5t119 427.5
q0 276 -112.5 414t-313.5 138t-326 -137q-127 -139 -127 -422q0 -280 116.5 -420.5t321.5 -140.5zM614 1593l197 281h266l-291 -303z" />
    <glyph glyph-name="Ocircumflex" unicode="&#xd4;" horiz-adv-x="1556" 
d="M768 -25q-173 0 -304 56.5t-211.5 159.5t-120.5 240t-40 306q0 167 46 307.5t133.5 244t222.5 162t305 58.5q136 0 247 -37.5t188 -104.5t129.5 -160.5t76.5 -203t24 -235.5q0 -181 -43.5 -326t-129 -249.5t-218.5 -161t-305 -56.5zM778 180q203 0 322 140.5t119 427.5
q0 276 -112.5 414t-313.5 138t-326 -137q-127 -139 -127 -422q0 -280 116.5 -420.5t321.5 -140.5zM631 1571l-168 18l229 273h211l225 -273l-170 -14l-161 156z" />
    <glyph glyph-name="Otilde" unicode="&#xd5;" horiz-adv-x="1556" 
d="M768 -25q-173 0 -304 56.5t-211.5 159.5t-120.5 240t-40 306q0 167 46 307.5t133.5 244t222.5 162t305 58.5q136 0 247 -37.5t188 -104.5t129.5 -160.5t76.5 -203t24 -235.5q0 -181 -43.5 -326t-129 -249.5t-218.5 -161t-305 -56.5zM778 180q203 0 322 140.5t119 427.5
q0 276 -112.5 414t-313.5 138t-326 -137q-127 -139 -127 -422q0 -280 116.5 -420.5t321.5 -140.5zM641 1874q56 0 113 -23t107 -46t87 -23q38 0 54 20t16 78l131 -6q17 -122 -32.5 -193t-145.5 -71q-57 0 -116.5 23t-110.5 46t-87 23t-53.5 -23t-13.5 -82l-135 7
q-16 128 38.5 199t147.5 71z" />
    <glyph glyph-name="Odieresis" unicode="&#xd6;" horiz-adv-x="1556" 
d="M768 -25q-173 0 -304 56.5t-211.5 159.5t-120.5 240t-40 306q0 167 46 307.5t133.5 244t222.5 162t305 58.5q136 0 247 -37.5t188 -104.5t129.5 -160.5t76.5 -203t24 -235.5q0 -181 -43.5 -326t-129 -249.5t-218.5 -161t-305 -56.5zM778 180q203 0 322 140.5t119 427.5
q0 276 -112.5 414t-313.5 138t-326 -137q-127 -139 -127 -422q0 -280 116.5 -420.5t321.5 -140.5zM721 1737q0 -67 -41.5 -105.5t-108.5 -38.5q-68 0 -109.5 38.5t-41.5 105.5q0 66 41.5 104.5t109.5 38.5q67 0 108.5 -39t41.5 -104zM1171 1737q0 -67 -41 -105.5t-108 -38.5
q-70 0 -111 38.5t-41 105.5q0 66 41.5 104.5t110.5 38.5q67 0 108 -39t41 -104z" />
    <glyph glyph-name="multiply" unicode="&#xd7;" 
d="M373 301l-142 145l211 211l-211 211l142 146l209 -211l211 211l141 -146l-211 -211l211 -211l-141 -145l-211 211z" />
    <glyph glyph-name="Oslash" unicode="&#xd8;" horiz-adv-x="1556" 
d="M768 -25q-94 0 -184 19l-58 -141h-231l92 219q-149 94 -222 265t-73 400q0 167 46 307.5t133.5 244t222.5 162t305 58.5q99 0 178 -20l57 137h230l-90 -217q145 -91 217.5 -259t72.5 -382q0 -181 -43.5 -326t-129 -249.5t-218.5 -161t-305 -56.5zM778 180
q203 0 322 140.5t119 427.5q0 299 -138 440l-413 -995q57 -13 110 -13zM340 741q0 -304 139 -446l414 995q-52 10 -100 10q-201 0 -326 -137q-127 -139 -127 -422z" />
    <glyph glyph-name="Ugrave" unicode="&#xd9;" horiz-adv-x="1456" 
d="M696 1874l195 -281l-172 -22l-291 303h268zM403 1483v-940q0 -192 78 -279.5t250 -87.5t247 82.5t75 278.5v946h239v-971q0 -271 -150 -404t-423 -133q-289 0 -422 134t-133 409v965h239z" />
    <glyph glyph-name="Uacute" unicode="&#xda;" horiz-adv-x="1456" 
d="M731 176q172 0 247 82.5t75 278.5v946h239v-971q0 -271 -150 -404t-423 -133q-289 0 -422 134t-133 409v965h239v-940q0 -192 78 -279.5t250 -87.5zM588 1593l196 281h267l-291 -303z" />
    <glyph glyph-name="Ucircumflex" unicode="&#xdb;" horiz-adv-x="1456" 
d="M731 176q172 0 247 82.5t75 278.5v946h239v-971q0 -271 -150 -404t-423 -133q-289 0 -422 134t-133 409v965h239v-940q0 -192 78 -279.5t250 -87.5zM563 1571l-168 18l230 273h211l225 -273l-170 -14l-162 156z" />
    <glyph glyph-name="Udieresis" unicode="&#xdc;" horiz-adv-x="1456" 
d="M731 176q172 0 247 82.5t75 278.5v946h239v-971q0 -271 -150 -404t-423 -133q-289 0 -422 134t-133 409v965h239v-940q0 -192 78 -279.5t250 -87.5zM653 1737q0 -67 -41 -105.5t-108 -38.5q-68 0 -110 38.5t-42 105.5q0 65 42 104t110 39q67 0 108 -39t41 -104z
M1104 1737q0 -67 -41.5 -105.5t-108.5 -38.5q-69 0 -110 38.5t-41 105.5q0 66 41 104.5t110 38.5q67 0 108.5 -39t41.5 -104z" />
    <glyph glyph-name="Yacute" unicode="&#xdd;" horiz-adv-x="1191" 
d="M487 0v567l-507 916h262l368 -688h4l357 688h241l-485 -912l2 -571h-242zM442 1593l197 281h266l-291 -303z" />
    <glyph glyph-name="Thorn" unicode="&#xde;" horiz-adv-x="1265" 
d="M178 0v1483h242v-250h274q111 0 197.5 -24.5t141.5 -65.5t90.5 -99t50 -119.5t14.5 -131.5q0 -504 -574 -504h-198v-289h-238zM594 487q63 0 110.5 6t94 24.5t76 49.5t47.5 84t18 125q0 141 -79 200.5t-240 59.5h-205v-549h178z" />
    <glyph glyph-name="germandbls" unicode="&#xdf;" horiz-adv-x="1337" 
d="M145 1081q0 132 38 228.5t108 152.5t160.5 82.5t205.5 26.5q232 0 355 -98t123 -281q0 -134 -67.5 -218t-166.5 -124v-8q79 -15 140 -42t112.5 -74t79 -123.5t27.5 -178.5q0 -128 -47 -227t-148 -159.5t-244 -60.5q-300 0 -377 261l179 75q30 -73 72.5 -114t119.5 -41
q203 0 203 270q0 301 -336 301h-80v170h33q71 0 123.5 21t82 57.5t43 79.5t13.5 94q0 246 -248 246q-65 0 -111.5 -14t-83.5 -48.5t-55 -96.5t-18 -153v-1085h-236v1081z" />
    <glyph glyph-name="agrave" unicode="&#xe0;" horiz-adv-x="1126" 
d="M954 223q0 -44 13.5 -63t50.5 -19q19 0 63 13l9 -140q-77 -34 -166 -34q-80 0 -122.5 30.5t-56.5 93.5q-56 -60 -142.5 -94.5t-192.5 -34.5q-76 0 -134.5 20t-91.5 50t-54 70.5t-27.5 75t-6.5 69.5q0 99 40.5 172t113.5 114t163 60t201 19q55 0 109 -4v79
q0 106 -37 154.5t-147 48.5q-93 0 -135 -38t-60 -126l-207 37q25 152 127 228.5t293 76.5q205 0 301 -86.5t96 -281.5v-490zM725 459q-36 4 -98 4q-54 0 -96.5 -5t-91 -21t-76 -52.5t-27.5 -91.5q0 -141 158 -141q67 0 129.5 28.5t101.5 69.5v209zM559 1528l180 -336
l-164 -21l-282 357h266z" />
    <glyph glyph-name="aacute" unicode="&#xe1;" horiz-adv-x="1126" 
d="M954 223q0 -44 13.5 -63t50.5 -19q19 0 63 13l9 -140q-77 -34 -166 -34q-80 0 -122.5 30.5t-56.5 93.5q-56 -60 -142.5 -94.5t-192.5 -34.5q-76 0 -134.5 20t-91.5 50t-54 70.5t-27.5 75t-6.5 69.5q0 99 40.5 172t113.5 114t163 60t201 19q55 0 109 -4v79
q0 106 -37 154.5t-147 48.5q-93 0 -135 -38t-60 -126l-207 37q25 152 127 228.5t293 76.5q205 0 301 -86.5t96 -281.5v-490zM725 459q-36 4 -98 4q-54 0 -96.5 -5t-91 -21t-76 -52.5t-27.5 -91.5q0 -141 158 -141q67 0 129.5 28.5t101.5 69.5v209zM371 1192l180 336h266
l-282 -357z" />
    <glyph glyph-name="acircumflex" unicode="&#xe2;" horiz-adv-x="1126" 
d="M954 223q0 -44 13.5 -63t50.5 -19q19 0 63 13l9 -140q-77 -34 -166 -34q-80 0 -122.5 30.5t-56.5 93.5q-56 -60 -142.5 -94.5t-192.5 -34.5q-76 0 -134.5 20t-91.5 50t-54 70.5t-27.5 75t-6.5 69.5q0 99 40.5 172t113.5 114t163 60t201 19q55 0 109 -4v79
q0 106 -37 154.5t-147 48.5q-93 0 -135 -38t-60 -126l-207 37q25 152 127 228.5t293 76.5q205 0 301 -86.5t96 -281.5v-490zM725 459q-36 4 -98 4q-54 0 -96.5 -5t-91 -21t-76 -52.5t-27.5 -91.5q0 -141 158 -141q67 0 129.5 28.5t101.5 69.5v209zM555 1397l-170 -219
l-168 14l223 338h228l223 -338l-166 -10z" />
    <glyph glyph-name="atilde" unicode="&#xe3;" horiz-adv-x="1126" 
d="M954 223q0 -44 13.5 -63t50.5 -19q19 0 63 13l9 -140q-77 -34 -166 -34q-80 0 -122.5 30.5t-56.5 93.5q-56 -60 -142.5 -94.5t-192.5 -34.5q-76 0 -134.5 20t-91.5 50t-54 70.5t-27.5 75t-6.5 69.5q0 99 40.5 172t113.5 114t163 60t201 19q55 0 109 -4v79
q0 106 -37 154.5t-147 48.5q-93 0 -135 -38t-60 -126l-207 37q25 152 127 228.5t293 76.5q205 0 301 -86.5t96 -281.5v-490zM725 459q-36 4 -98 4q-54 0 -96.5 -5t-91 -21t-76 -52.5t-27.5 -91.5q0 -141 158 -141q67 0 129.5 28.5t101.5 69.5v209zM397 1479
q56 0 113.5 -23.5t107.5 -46.5t87 -23q38 0 53.5 20.5t15.5 80.5l131 -8q17 -122 -33 -193.5t-145 -71.5q-57 0 -116 24t-110 47.5t-87 23.5q-76 0 -68 -107l-135 6q-13 128 40.5 199.5t145.5 71.5z" />
    <glyph glyph-name="adieresis" unicode="&#xe4;" horiz-adv-x="1126" 
d="M954 223q0 -44 13.5 -63t50.5 -19q19 0 63 13l9 -140q-77 -34 -166 -34q-80 0 -122.5 30.5t-56.5 93.5q-56 -60 -142.5 -94.5t-192.5 -34.5q-76 0 -134.5 20t-91.5 50t-54 70.5t-27.5 75t-6.5 69.5q0 99 40.5 172t113.5 114t163 60t201 19q55 0 109 -4v79
q0 106 -37 154.5t-147 48.5q-93 0 -135 -38t-60 -126l-207 37q25 152 127 228.5t293 76.5q205 0 301 -86.5t96 -281.5v-490zM725 459q-36 4 -98 4q-54 0 -96.5 -5t-91 -21t-76 -52.5t-27.5 -91.5q0 -141 158 -141q67 0 129.5 28.5t101.5 69.5v209zM481 1382q0 -67 -41 -106
t-108 -39q-68 0 -110 39t-42 106q0 66 42 105t110 39q67 0 108 -39.5t41 -104.5zM932 1382q0 -67 -41.5 -106t-108.5 -39q-69 0 -110 39t-41 106q0 66 41 105t110 39q67 0 108.5 -39.5t41.5 -104.5z" />
    <glyph glyph-name="aring" unicode="&#xe5;" horiz-adv-x="1126" 
d="M954 223q0 -44 13.5 -63t50.5 -19q19 0 63 13l9 -140q-77 -34 -166 -34q-80 0 -122.5 30.5t-56.5 93.5q-56 -60 -142.5 -94.5t-192.5 -34.5q-76 0 -134.5 20t-91.5 50t-54 70.5t-27.5 75t-6.5 69.5q0 99 40.5 172t113.5 114t163 60t201 19q55 0 109 -4v79
q0 106 -37 154.5t-147 48.5q-93 0 -135 -38t-60 -126l-207 37q25 152 127 228.5t293 76.5q205 0 301 -86.5t96 -281.5v-490zM725 459q-36 4 -98 4q-54 0 -96.5 -5t-91 -21t-76 -52.5t-27.5 -91.5q0 -141 158 -141q67 0 129.5 28.5t101.5 69.5v209zM778 1380
q0 -98 -61 -153.5t-162 -55.5t-162 54t-61 147q0 103 64.5 160t158.5 57q97 0 160 -54t63 -155zM553 1282q96 0 96 98q0 95 -94 95q-44 0 -71 -25.5t-27 -71.5q0 -96 96 -96z" />
    <glyph glyph-name="ae" unicode="&#xe6;" horiz-adv-x="1742" 
d="M1210 -25q-263 0 -385 160q-155 -160 -411 -160q-77 0 -136 20.5t-92.5 50.5t-54.5 70.5t-28 75.5t-7 70q0 100 37 171t108 111.5t160 60t207 22.5q53 0 115 -4v69q0 108 -38 159.5t-148 51.5q-93 0 -139 -39t-60 -125l-201 37q47 305 406 305q134 0 207.5 -38.5
t115.5 -124.5q129 163 369 163q209 0 312.5 -127t103.5 -346q0 -100 -6 -139h-687q3 -87 22.5 -146.5t56 -92.5t81.5 -46.5t107 -13.5q96 0 147 42t72 128l203 -47q-32 -149 -148 -233.5t-289 -84.5zM496 150q72 0 142.5 30t121.5 84q-26 72 -37 207h-98q-289 0 -289 -178
q0 -64 37 -103.5t123 -39.5zM1407 633q9 264 -205 264q-98 0 -167 -67t-72 -197h444z" />
    <glyph glyph-name="ccedilla" unicode="&#xe7;" horiz-adv-x="1107" 
d="M418 -317q71 -23 106 -23q103 0 103 84q0 48 -34 67t-110 21l21 148q-211 24 -313.5 165.5t-102.5 370.5q0 273 137.5 419t386.5 146q180 0 292.5 -100.5t125.5 -286.5l-217 -30q-26 229 -211 229q-268 0 -268 -350q0 -375 262 -375q99 0 156.5 51t76.5 160l205 -41
q-24 -169 -131 -258.5t-268 -102.5l-8 -55q166 -30 166 -182q0 -98 -68.5 -156.5t-173.5 -58.5q-88 0 -168 37z" />
    <glyph glyph-name="egrave" unicode="&#xe8;" horiz-adv-x="1120" 
d="M588 -25q-111 0 -198.5 30t-143.5 81t-92 123t-51 150t-15 169q0 140 40 248t110 173.5t160 98.5t196 33q219 0 326.5 -127t107.5 -342q0 -68 -6 -141h-686q8 -303 266 -303q98 0 147.5 42.5t69.5 129.5l201 -49q-31 -149 -145.5 -232.5t-286.5 -83.5zM784 635
q0 135 -49 197.5t-155 62.5q-97 0 -165 -64t-75 -196h444zM586 1528l180 -336l-164 -21l-283 357h267z" />
    <glyph glyph-name="eacute" unicode="&#xe9;" horiz-adv-x="1120" 
d="M588 -25q-111 0 -198.5 30t-143.5 81t-92 123t-51 150t-15 169q0 140 40 248t110 173.5t160 98.5t196 33q219 0 326.5 -127t107.5 -342q0 -68 -6 -141h-686q8 -303 266 -303q98 0 147.5 42.5t69.5 129.5l201 -49q-31 -149 -145.5 -232.5t-286.5 -83.5zM784 635
q0 135 -49 197.5t-155 62.5q-97 0 -165 -64t-75 -196h444zM461 1192l180 336h266l-282 -357z" />
    <glyph glyph-name="ecircumflex" unicode="&#xea;" horiz-adv-x="1120" 
d="M588 -25q-111 0 -198.5 30t-143.5 81t-92 123t-51 150t-15 169q0 140 40 248t110 173.5t160 98.5t196 33q219 0 326.5 -127t107.5 -342q0 -68 -6 -141h-686q8 -303 266 -303q98 0 147.5 42.5t69.5 129.5l201 -49q-31 -149 -145.5 -232.5t-286.5 -83.5zM784 635
q0 135 -49 197.5t-155 62.5q-97 0 -165 -64t-75 -196h444zM584 1397l-170 -219l-168 14l223 338h227l224 -338l-166 -10z" />
    <glyph glyph-name="edieresis" unicode="&#xeb;" horiz-adv-x="1120" 
d="M588 -25q-111 0 -198.5 30t-143.5 81t-92 123t-51 150t-15 169q0 140 40 248t110 173.5t160 98.5t196 33q219 0 326.5 -127t107.5 -342q0 -68 -6 -141h-686q8 -303 266 -303q98 0 147.5 42.5t69.5 129.5l201 -49q-31 -149 -145.5 -232.5t-286.5 -83.5zM784 635
q0 135 -49 197.5t-155 62.5q-97 0 -165 -64t-75 -196h444zM510 1382q0 -67 -41.5 -106t-108.5 -39q-68 0 -109.5 39t-41.5 106q0 66 41.5 105t109.5 39q67 0 108.5 -39.5t41.5 -104.5zM961 1382q0 -67 -41.5 -106t-108.5 -39q-69 0 -110.5 39t-41.5 106q0 66 41.5 105
t110.5 39q67 0 108.5 -39.5t41.5 -104.5z" />
    <glyph glyph-name="igrave" unicode="&#xec;" horiz-adv-x="526" 
d="M150 0v1059h235v-1059h-235zM250 1528l180 -336l-164 -21l-282 357h266z" />
    <glyph glyph-name="iacute" unicode="&#xed;" horiz-adv-x="526" 
d="M150 0v1059h235v-1059h-235zM113 1192l180 336h266l-283 -357z" />
    <glyph glyph-name="icircumflex" unicode="&#xee;" horiz-adv-x="526" 
d="M150 0v1059h235v-1059h-235zM266 1397l-170 -219l-168 14l224 338h227l223 -338l-166 -10z" />
    <glyph glyph-name="idieresis" unicode="&#xef;" horiz-adv-x="526" 
d="M150 0v1059h235v-1059h-235zM193 1382q0 -67 -41.5 -106t-108.5 -39q-68 0 -110 39t-42 106q0 66 42 105t110 39q67 0 108.5 -39.5t41.5 -104.5zM643 1382q0 -67 -41 -106t-108 -39q-69 0 -110.5 39t-41.5 106q0 66 41.5 105t110.5 39q67 0 108 -39.5t41 -104.5z" />
    <glyph glyph-name="eth" unicode="&#xf0;" horiz-adv-x="1189" 
d="M84 502q0 112 29.5 209t85.5 171.5t145 117t201 42.5q145 0 272 -71l8 6q-49 151 -147 244l-186 -105l-91 144l150 83q-111 60 -258 78l80 160q203 -26 356 -131l201 121l102 -154l-158 -90q222 -244 222 -680q0 -110 -15 -204.5t-52.5 -182.5t-95.5 -149.5t-150 -98.5
t-210 -37q-162 0 -273.5 68.5t-163.5 185t-52 273.5zM328 510q0 -164 61.5 -258t194.5 -94q78 0 133 34.5t86 99.5t45 147t14 190q0 76 -8 133q-39 43 -110 70.5t-148 27.5q-130 0 -199 -86.5t-69 -263.5z" />
    <glyph glyph-name="ntilde" unicode="&#xf1;" horiz-adv-x="1193" 
d="M823 0v682q0 102 -41 152.5t-133 50.5q-72 0 -147 -35.5t-121 -77.5v-772h-236v1059h209l11 -111q168 133 366 133q170 0 249 -89t79 -271v-721h-236zM444 1479q56 0 113.5 -23.5t107.5 -46.5t87 -23q38 0 53.5 20.5t15.5 80.5l131 -8q17 -122 -33 -193.5t-145 -71.5
q-57 0 -116 24t-110 47.5t-87 23.5q-76 0 -68 -107l-135 6q-13 128 40.5 199.5t145.5 71.5z" />
    <glyph glyph-name="ograve" unicode="&#xf2;" horiz-adv-x="1191" 
d="M588 -25q-136 0 -235 41t-155.5 117t-83 172.5t-26.5 218.5q0 262 134 409.5t392 147.5q129 0 224.5 -38.5t153 -110t85 -167t27.5 -216.5q0 -272 -126 -423t-390 -151zM600 158q126 0 192 90.5t66 288.5q0 192 -61.5 273t-190.5 81q-272 0 -272 -359q0 -192 64.5 -283
t201.5 -91zM612 1528l181 -336l-164 -21l-283 357h266z" />
    <glyph glyph-name="oacute" unicode="&#xf3;" horiz-adv-x="1191" 
d="M588 -25q-136 0 -235 41t-155.5 117t-83 172.5t-26.5 218.5q0 262 134 409.5t392 147.5q129 0 224.5 -38.5t153 -110t85 -167t27.5 -216.5q0 -272 -126 -423t-390 -151zM600 158q126 0 192 90.5t66 288.5q0 192 -61.5 273t-190.5 81q-272 0 -272 -359q0 -192 64.5 -283
t201.5 -91zM424 1192l180 336h266l-282 -357z" />
    <glyph glyph-name="ocircumflex" unicode="&#xf4;" horiz-adv-x="1191" 
d="M588 -25q-136 0 -235 41t-155.5 117t-83 172.5t-26.5 218.5q0 262 134 409.5t392 147.5q129 0 224.5 -38.5t153 -110t85 -167t27.5 -216.5q0 -272 -126 -423t-390 -151zM600 158q126 0 192 90.5t66 288.5q0 192 -61.5 273t-190.5 81q-272 0 -272 -359q0 -192 64.5 -283
t201.5 -91zM608 1397l-170 -219l-168 14l224 338h227l223 -338l-166 -10z" />
    <glyph glyph-name="otilde" unicode="&#xf5;" horiz-adv-x="1191" 
d="M588 -25q-136 0 -235 41t-155.5 117t-83 172.5t-26.5 218.5q0 262 134 409.5t392 147.5q129 0 224.5 -38.5t153 -110t85 -167t27.5 -216.5q0 -272 -126 -423t-390 -151zM600 158q126 0 192 90.5t66 288.5q0 192 -61.5 273t-190.5 81q-272 0 -272 -359q0 -192 64.5 -283
t201.5 -91zM451 1479q56 0 113 -23.5t107 -46.5t87 -23q38 0 53.5 20.5t15.5 80.5l131 -8q17 -122 -33 -193.5t-145 -71.5q-57 0 -116 24t-110 47.5t-87 23.5q-76 0 -68 -107l-135 6q-13 128 41 199.5t146 71.5z" />
    <glyph glyph-name="odieresis" unicode="&#xf6;" horiz-adv-x="1191" 
d="M588 -25q-136 0 -235 41t-155.5 117t-83 172.5t-26.5 218.5q0 262 134 409.5t392 147.5q129 0 224.5 -38.5t153 -110t85 -167t27.5 -216.5q0 -272 -126 -423t-390 -151zM600 158q126 0 192 90.5t66 288.5q0 192 -61.5 273t-190.5 81q-272 0 -272 -359q0 -192 64.5 -283
t201.5 -91zM535 1382q0 -67 -41.5 -106t-108.5 -39q-68 0 -110 39t-42 106q0 66 42 105t110 39q67 0 108.5 -39.5t41.5 -104.5zM985 1382q0 -67 -41 -106t-108 -39q-69 0 -110.5 39t-41.5 106q0 66 41.5 105t110.5 39q67 0 108 -39.5t41 -104.5z" />
    <glyph glyph-name="divide" unicode="&#xf7;" 
d="M717 330q0 -135 -144 -135q-143 0 -143 135q0 64 37.5 100.5t105.5 36.5q71 0 107.5 -36.5t36.5 -100.5zM193 758h780v-201h-780v201zM717 985q0 -135 -144 -135q-143 0 -143 135q0 64 37.5 100.5t105.5 36.5q71 0 107.5 -36.5t36.5 -100.5z" />
    <glyph glyph-name="oslash" unicode="&#xf8;" horiz-adv-x="1191" 
d="M588 -25q-66 0 -133 13l-60 -135h-217l92 208q-182 133 -182 463q0 262 134 409.5t392 147.5q61 0 105 -8l55 127h215l-86 -192q201 -127 201 -459q0 -272 -126 -423t-390 -151zM600 158q126 0 192 90.5t66 288.5q0 172 -49 254l-277 -627q30 -6 68 -6zM334 532
q0 -157 39 -239l264 596q-16 2 -31 2q-272 0 -272 -359z" />
    <glyph glyph-name="ugrave" unicode="&#xf9;" horiz-adv-x="1187" 
d="M379 1059v-682q0 -103 37.5 -152t128.5 -49q71 0 146 34.5t120 76.5v772h236v-1059h-205l-17 117q-153 -140 -362 -140q-164 0 -242 89.5t-78 269.5v723h236zM575 1528l181 -336l-164 -21l-283 357h266z" />
    <glyph glyph-name="uacute" unicode="&#xfa;" horiz-adv-x="1187" 
d="M379 1059v-682q0 -103 37.5 -152t128.5 -49q71 0 146 34.5t120 76.5v772h236v-1059h-205l-17 117q-153 -140 -362 -140q-164 0 -242 89.5t-78 269.5v723h236zM434 1192l180 336h267l-283 -357z" />
    <glyph glyph-name="ucircumflex" unicode="&#xfb;" horiz-adv-x="1187" 
d="M379 1059v-682q0 -103 37.5 -152t128.5 -49q71 0 146 34.5t120 76.5v772h236v-1059h-205l-17 117q-153 -140 -362 -140q-164 0 -242 89.5t-78 269.5v723h236zM598 1397l-170 -219l-168 14l223 338h228l223 -338l-166 -10z" />
    <glyph glyph-name="udieresis" unicode="&#xfc;" horiz-adv-x="1187" 
d="M379 1059v-682q0 -103 37.5 -152t128.5 -49q71 0 146 34.5t120 76.5v772h236v-1059h-205l-17 117q-153 -140 -362 -140q-164 0 -242 89.5t-78 269.5v723h236zM524 1382q0 -67 -41 -106t-108 -39q-68 0 -110 39t-42 106q0 66 42 105t110 39q67 0 108 -39.5t41 -104.5z
M975 1382q0 -67 -41.5 -106t-108.5 -39q-69 0 -110 39t-41 106q0 66 41 105t110 39q67 0 108.5 -39.5t41.5 -104.5z" />
    <glyph glyph-name="yacute" unicode="&#xfd;" horiz-adv-x="1028" 
d="M260 1059l260 -795h2l260 795h242q-208 -579 -442 -1194q-64 -175 -146.5 -248.5t-222.5 -73.5q-55 0 -115.5 12.5t-97.5 28.5l23 176q94 -32 165 -32q57 0 99 33.5t73 111.5l43 111l-397 1075h254zM406 1192l180 336h266l-283 -357z" />
    <glyph glyph-name="thorn" unicode="&#xfe;" horiz-adv-x="1200" 
d="M383 262q43 -34 107.5 -64t130.5 -30q243 0 243 383q0 181 -54 259.5t-173 78.5q-67 0 -136.5 -34t-117.5 -79v-514zM379 1546v-590q137 125 340 125q87 0 156 -28.5t123 -89t83 -164t29 -244.5q0 -122 -23 -220.5t-63 -164.5t-96 -110.5t-119.5 -64.5t-136.5 -20
q-166 0 -295 103v-512h-230v1980h232z" />
    <glyph glyph-name="ydieresis" unicode="&#xff;" horiz-adv-x="1028" 
d="M260 1059l260 -795h2l260 795h242q-208 -579 -442 -1194q-64 -175 -146.5 -248.5t-222.5 -73.5q-55 0 -115.5 12.5t-97.5 28.5l23 176q94 -32 165 -32q57 0 99 33.5t73 111.5l43 111l-397 1075h254zM449 1382q0 -67 -41.5 -106t-108.5 -39q-68 0 -110 39t-42 106
q0 66 42 105t110 39q67 0 108.5 -39.5t41.5 -104.5zM899 1382q0 -67 -41 -106t-108 -39q-69 0 -110.5 39t-41.5 106q0 66 41.5 105t110.5 39q67 0 108 -39.5t41 -104.5z" />
    <glyph glyph-name="Amacron" unicode="&#x100;" horiz-adv-x="1425" 
d="M1370 0h-262l-139 406h-539l-135 -406h-244l494 1483h305zM694 1262l-217 -656h436l-215 656h-4zM387 1788h637v-170h-637v170z" />
    <glyph glyph-name="amacron" unicode="&#x101;" horiz-adv-x="1126" 
d="M954 223q0 -44 13.5 -63t50.5 -19q19 0 63 13l9 -140q-77 -34 -166 -34q-80 0 -122.5 30.5t-56.5 93.5q-56 -60 -142.5 -94.5t-192.5 -34.5q-76 0 -134.5 20t-91.5 50t-54 70.5t-27.5 75t-6.5 69.5q0 99 40.5 172t113.5 114t163 60t201 19q55 0 109 -4v79
q0 106 -37 154.5t-147 48.5q-93 0 -135 -38t-60 -126l-207 37q25 152 127 228.5t293 76.5q205 0 301 -86.5t96 -281.5v-490zM725 459q-36 4 -98 4q-54 0 -96.5 -5t-91 -21t-76 -52.5t-27.5 -91.5q0 -141 158 -141q67 0 129.5 28.5t101.5 69.5v209zM248 1432h612v-170h-612
v170z" />
    <glyph glyph-name="Abreve" unicode="&#x102;" horiz-adv-x="1425" 
d="M1370 0h-262l-139 406h-539l-135 -406h-244l494 1483h305zM694 1262l-217 -656h436l-215 656h-4zM709 1741q72 0 112 32t53 111l162 -12q-13 -143 -100 -214t-236 -71q-291 0 -311 281l164 16q13 -78 50 -110.5t106 -32.5z" />
    <glyph glyph-name="abreve" unicode="&#x103;" horiz-adv-x="1126" 
d="M954 223q0 -44 13.5 -63t50.5 -19q19 0 63 13l9 -140q-77 -34 -166 -34q-80 0 -122.5 30.5t-56.5 93.5q-56 -60 -142.5 -94.5t-192.5 -34.5q-76 0 -134.5 20t-91.5 50t-54 70.5t-27.5 75t-6.5 69.5q0 99 40.5 172t113.5 114t163 60t201 19q55 0 109 -4v79
q0 106 -37 154.5t-147 48.5q-93 0 -135 -38t-60 -126l-207 37q25 152 127 228.5t293 76.5q205 0 301 -86.5t96 -281.5v-490zM725 459q-36 4 -98 4q-54 0 -96.5 -5t-91 -21t-76 -52.5t-27.5 -91.5q0 -141 158 -141q67 0 129.5 28.5t101.5 69.5v209zM893 1491
q-7 -159 -94.5 -240.5t-243.5 -81.5q-305 0 -317 318l163 18q10 -101 47.5 -141.5t114.5 -40.5q82 0 122.5 39.5t47.5 140.5z" />
    <glyph glyph-name="Aogonek" unicode="&#x104;" horiz-adv-x="1421" 
d="M1448 -295q-31 -86 -102 -133t-158 -47q-100 0 -158.5 49.5t-58.5 136.5q0 144 137 289l-139 406h-539l-135 -406h-244l494 1483h305l520 -1483q-111 -73 -161 -129t-50 -119q0 -76 72 -76q63 0 104 84zM694 1262l-217 -656h436l-215 656h-4z" />
    <glyph glyph-name="aogonek" unicode="&#x105;" horiz-adv-x="1126" 
d="M1133 -295q-31 -86 -102.5 -133t-158.5 -47q-100 0 -158.5 49.5t-58.5 136.5q0 96 60 162q54 60 131 117q-83 21 -101 114q-56 -60 -142.5 -94.5t-192.5 -34.5q-76 0 -134.5 20t-91.5 50t-54 70.5t-27.5 75t-6.5 69.5q0 99 40.5 172t113.5 114t163 60t201 19q55 0 109 -4
v79q0 106 -37 154.5t-147 48.5q-93 0 -135 -38t-60 -126l-207 37q25 152 127 228.5t293 76.5q205 0 301 -86.5t96 -281.5v-490q0 -44 13.5 -63t50.5 -19q19 0 63 13l9 -140q-96 -41 -171 -118.5t-75 -143.5q0 -76 71 -76q64 0 105 84zM725 459q-36 4 -98 4q-54 0 -96.5 -5
t-91 -21t-76 -52.5t-27.5 -91.5q0 -141 158 -141q67 0 129.5 28.5t101.5 69.5v209z" />
    <glyph glyph-name="Cacute" unicode="&#x106;" horiz-adv-x="1419" 
d="M758 -25q-176 0 -305.5 53t-207.5 153.5t-115.5 234.5t-37.5 305q0 367 186 577.5t515 210.5q241 0 393 -125q157 -127 172 -393l-221 -20q-19 170 -101 251t-245 81q-216 0 -334.5 -141t-118.5 -425q0 -293 109 -426t323 -133q160 0 246.5 74t120.5 221l213 -41
q-14 -97 -55.5 -176t-99.5 -130.5t-131.5 -86t-149.5 -49.5t-156 -15zM610 1593l197 281h266l-291 -303z" />
    <glyph glyph-name="cacute" unicode="&#x107;" horiz-adv-x="1107" 
d="M584 -25q-128 0 -224 40t-155 113t-88 170t-29 218q0 273 137.5 419t386.5 146q180 0 292.5 -100.5t125.5 -286.5l-217 -30q-26 229 -211 229q-268 0 -268 -350q0 -375 262 -375q99 0 156.5 51t76.5 160l205 -41q-16 -123 -81.5 -206.5t-159 -120t-209.5 -36.5zM420 1192
l180 336h266l-282 -357z" />
    <glyph glyph-name="Ccircumflex" unicode="&#x108;" horiz-adv-x="1419" 
d="M758 -25q-176 0 -305.5 53t-207.5 153.5t-115.5 234.5t-37.5 305q0 367 186 577.5t515 210.5q241 0 393 -125q157 -127 172 -393l-221 -20q-19 170 -101 251t-245 81q-216 0 -334.5 -141t-118.5 -425q0 -293 109 -426t323 -133q160 0 246.5 74t120.5 221l213 -41
q-14 -97 -55.5 -176t-99.5 -130.5t-131.5 -86t-149.5 -49.5t-156 -15zM608 1571l-168 18l230 273h211l225 -273l-170 -14l-162 156z" />
    <glyph glyph-name="ccircumflex" unicode="&#x109;" horiz-adv-x="1107" 
d="M584 -25q-128 0 -224 40t-155 113t-88 170t-29 218q0 273 137.5 419t386.5 146q180 0 292.5 -100.5t125.5 -286.5l-217 -30q-26 229 -211 229q-268 0 -268 -350q0 -375 262 -375q99 0 156.5 51t76.5 160l205 -41q-16 -123 -81.5 -206.5t-159 -120t-209.5 -36.5zM604 1397
l-170 -219l-168 14l223 338h228l223 -338l-166 -10z" />
    <glyph glyph-name="Cdotaccent" unicode="&#x10a;" horiz-adv-x="1419" 
d="M758 -25q-176 0 -305.5 53t-207.5 153.5t-115.5 234.5t-37.5 305q0 367 186 577.5t515 210.5q241 0 393 -125q157 -127 172 -393l-221 -20q-19 170 -101 251t-245 81q-216 0 -334.5 -141t-118.5 -425q0 -293 109 -426t323 -133q160 0 246.5 74t120.5 221l213 -41
q-14 -97 -55.5 -176t-99.5 -130.5t-131.5 -86t-149.5 -49.5t-156 -15zM926 1749q0 -73 -41 -114.5t-113 -41.5q-73 0 -113.5 41t-40.5 115q0 73 40 113.5t114 40.5q72 0 113 -40.5t41 -113.5z" />
    <glyph glyph-name="cdotaccent" unicode="&#x10b;" horiz-adv-x="1107" 
d="M584 -25q-128 0 -224 40t-155 113t-88 170t-29 218q0 273 137.5 419t386.5 146q180 0 292.5 -100.5t125.5 -286.5l-217 -30q-26 229 -211 229q-268 0 -268 -350q0 -375 262 -375q99 0 156.5 51t76.5 160l205 -41q-16 -123 -81.5 -206.5t-159 -120t-209.5 -36.5zM743 1393
q0 -75 -40.5 -115.5t-112.5 -40.5q-154 0 -154 156q0 73 40 113t114 40q72 0 112.5 -40t40.5 -113z" />
    <glyph glyph-name="Ccaron" unicode="&#x10c;" horiz-adv-x="1419" 
d="M758 -25q-176 0 -305.5 53t-207.5 153.5t-115.5 234.5t-37.5 305q0 367 186 577.5t515 210.5q241 0 393 -125q157 -127 172 -393l-221 -20q-19 170 -101 251t-245 81q-216 0 -334.5 -141t-118.5 -425q0 -293 109 -426t323 -133q160 0 246.5 74t120.5 221l213 -41
q-14 -97 -55.5 -176t-99.5 -130.5t-131.5 -86t-149.5 -49.5t-156 -15zM938 1870l168 -19l-229 -272h-211l-226 272l170 15l162 -156z" />
    <glyph glyph-name="ccaron" unicode="&#x10d;" horiz-adv-x="1107" 
d="M584 -25q-128 0 -224 40t-155 113t-88 170t-29 218q0 273 137.5 419t386.5 146q180 0 292.5 -100.5t125.5 -286.5l-217 -30q-26 229 -211 229q-268 0 -268 -350q0 -375 262 -375q99 0 156.5 51t76.5 160l205 -41q-16 -123 -81.5 -206.5t-159 -120t-209.5 -36.5zM590 1305
l172 217l162 -15l-224 -336h-227l-223 336l174 13z" />
    <glyph glyph-name="Dcaron" unicode="&#x10e;" horiz-adv-x="1486" 
d="M178 1483h481q374 0 555 -188t181 -531q0 -173 -46 -311.5t-138.5 -240.5t-241 -157t-344.5 -55h-447v1483zM623 195q268 0 397 141t129 405q0 156 -32.5 263t-99.5 169t-157.5 88.5t-218.5 26.5h-223v-1093h205zM842 1870l168 -19l-230 -272h-211l-225 272l170 15
l162 -156z" />
    <glyph glyph-name="dcaron" unicode="&#x10f;" horiz-adv-x="1361" 
d="M856 0l-16 106h-4q-138 -131 -334 -131q-192 0 -301 130.5t-109 406.5q0 122 24.5 220t66.5 162t100 107t121.5 61.5t134.5 18.5q175 0 284 -92v557h230v-1546h-197zM817 807q-40 32 -100.5 57t-128.5 25q-88 0 -145.5 -48.5t-82 -130t-24.5 -196.5q0 -175 58.5 -261.5
t183.5 -86.5q65 0 129.5 30.5t109.5 77.5v533zM1448 1546l-129 -411l-168 18l68 393h229z" />
    <glyph glyph-name="Dcroat" unicode="&#x110;" horiz-adv-x="1486" 
d="M178 670h-149v186h149v627h481q374 0 555 -188t181 -531q0 -173 -46 -311.5t-138.5 -240.5t-241 -157t-344.5 -55h-447v670zM623 195q268 0 397 141t129 405q0 156 -32.5 263t-99.5 169t-157.5 88.5t-218.5 26.5h-223v-432h401v-186h-401v-475h205z" />
    <glyph glyph-name="dslash" unicode="&#x111;" horiz-adv-x="1193" 
d="M1053 0h-197l-16 106h-4q-138 -131 -334 -131q-192 0 -301 128t-109 397q0 117 24.5 211.5t66.5 157.5t100 105.5t121.5 61.5t134.5 19q175 0 284 -92v217h-377v170h377v196h230v-196h133v-170h-133v-1180zM817 780q-40 32 -100.5 57t-128.5 25q-67 0 -116.5 -27.5
t-78.5 -77t-43 -113t-14 -142.5q0 -169 58.5 -252.5t183.5 -83.5q65 0 129.5 30.5t109.5 77.5v506z" />
    <glyph glyph-name="Emacron" unicode="&#x112;" horiz-adv-x="1183" 
d="M1106 201v-201h-928v1483h897v-201h-657v-438h616v-199h-616v-444h688zM313 1788h637v-170h-637v170z" />
    <glyph glyph-name="emacron" unicode="&#x113;" horiz-adv-x="1120" 
d="M588 -25q-111 0 -198.5 30t-143.5 81t-92 123t-51 150t-15 169q0 140 40 248t110 173.5t160 98.5t196 33q219 0 326.5 -127t107.5 -342q0 -68 -6 -141h-686q8 -303 266 -303q98 0 147.5 42.5t69.5 129.5l201 -49q-31 -149 -145.5 -232.5t-286.5 -83.5zM784 635
q0 135 -49 197.5t-155 62.5q-97 0 -165 -64t-75 -196h444zM276 1432h613v-170h-613v170z" />
    <glyph glyph-name="Ebreve" unicode="&#x114;" horiz-adv-x="1183" 
d="M1106 201v-201h-928v1483h897v-201h-657v-438h616v-199h-616v-444h688zM635 1741q72 0 112.5 32t53.5 111l162 -12q-13 -143 -100 -214t-236 -71q-292 0 -312 281l164 16q13 -78 50 -110.5t106 -32.5z" />
    <glyph glyph-name="ebreve" unicode="&#x115;" horiz-adv-x="1120" 
d="M588 -25q-111 0 -198.5 30t-143.5 81t-92 123t-51 150t-15 169q0 140 40 248t110 173.5t160 98.5t196 33q219 0 326.5 -127t107.5 -342q0 -68 -6 -141h-686q8 -303 266 -303q98 0 147.5 42.5t69.5 129.5l201 -49q-31 -149 -145.5 -232.5t-286.5 -83.5zM784 635
q0 135 -49 197.5t-155 62.5q-97 0 -165 -64t-75 -196h444zM924 1491q-7 -159 -94.5 -240.5t-243.5 -81.5q-306 0 -318 318l164 18q10 -101 47.5 -141.5t114.5 -40.5q82 0 122.5 39.5t47.5 140.5z" />
    <glyph glyph-name="Edotaccent" unicode="&#x116;" horiz-adv-x="1183" 
d="M1106 201v-201h-928v1483h897v-201h-657v-438h616v-199h-616v-444h688zM782 1749q0 -73 -40.5 -114.5t-112.5 -41.5q-73 0 -113.5 41t-40.5 115q0 73 40.5 113.5t113.5 40.5q72 0 112.5 -40.5t40.5 -113.5z" />
    <glyph glyph-name="edotaccent" unicode="&#x117;" horiz-adv-x="1120" 
d="M588 -25q-111 0 -198.5 30t-143.5 81t-92 123t-51 150t-15 169q0 140 40 248t110 173.5t160 98.5t196 33q219 0 326.5 -127t107.5 -342q0 -68 -6 -141h-686q8 -303 266 -303q98 0 147.5 42.5t69.5 129.5l201 -49q-31 -149 -145.5 -232.5t-286.5 -83.5zM784 635
q0 135 -49 197.5t-155 62.5q-97 0 -165 -64t-75 -196h444zM799 1393q0 -75 -40.5 -115.5t-113.5 -40.5q-153 0 -153 156q0 73 40 113t113 40q72 0 113 -40t41 -113z" />
    <glyph glyph-name="Eogonek" unicode="&#x118;" horiz-adv-x="1183" 
d="M1116 -295q-31 -86 -102 -133t-158 -47q-100 0 -158.5 49.5t-58.5 136.5q0 150 178 289h-639v1483h897v-201h-657v-438h616v-199h-616v-444h688v-201h-113q-88 -83 -127 -135.5t-39 -112.5q0 -76 72 -76q64 0 105 84z" />
    <glyph glyph-name="eogonek" unicode="&#x119;" horiz-adv-x="1120" 
d="M899 -295q-31 -86 -102 -133t-158 -47q-100 0 -158.5 49.5t-58.5 136.5q0 139 147 264q-107 2 -190.5 33t-137.5 82t-89 122t-49.5 148.5t-14.5 167.5q0 140 40 248t110 173.5t160 98.5t196 33q219 0 326.5 -127t107.5 -342q0 -68 -6 -141h-686q8 -303 266 -303
q98 0 147.5 42.5t69.5 129.5l201 -49q-19 -95 -72 -162.5t-143 -124.5q-195 -122 -195 -252q0 -76 72 -76q63 0 104 84zM784 635q0 135 -49 197.5t-155 62.5q-97 0 -165 -64t-75 -196h444z" />
    <glyph glyph-name="Ecaron" unicode="&#x11a;" horiz-adv-x="1183" 
d="M1106 201v-201h-928v1483h897v-201h-657v-438h616v-199h-616v-444h688zM795 1870l168 -19l-230 -272h-211l-225 272l170 15l162 -156z" />
    <glyph glyph-name="ecaron" unicode="&#x11b;" horiz-adv-x="1120" 
d="M588 -25q-111 0 -198.5 30t-143.5 81t-92 123t-51 150t-15 169q0 140 40 248t110 173.5t160 98.5t196 33q219 0 326.5 -127t107.5 -342q0 -68 -6 -141h-686q8 -303 266 -303q98 0 147.5 42.5t69.5 129.5l201 -49q-31 -149 -145.5 -232.5t-286.5 -83.5zM784 635
q0 135 -49 197.5t-155 62.5q-97 0 -165 -64t-75 -196h444zM647 1305l172 217l162 -15l-223 -336h-228l-223 336l174 13z" />
    <glyph glyph-name="Gcircumflex" unicode="&#x11c;" horiz-adv-x="1509" 
d="M1161 193q-43 -96 -165.5 -157t-272.5 -61q-130 0 -235 36t-178.5 101t-122.5 158t-72 205.5t-23 245.5q0 371 185.5 579.5t519.5 208.5q120 0 217 -28.5t172 -88t120 -157.5t54 -231l-223 -25q-14 163 -97 245.5t-249 82.5q-219 0 -335 -147t-116 -417q0 -155 30 -265.5
t88 -176t136 -95.5t182 -30q86 0 156 27t113.5 72t66.5 101.5t23 117.5v96h-347v180h578v-770h-176zM625 1571l-168 18l229 273h211l225 -273l-170 -14l-161 156z" />
    <glyph glyph-name="gcircumflex" unicode="&#x11d;" horiz-adv-x="1136" 
d="M555 1081q201 0 297 -84q62 140 176 140q44 0 84 -13v-157q-105 6 -197 -21q46 -46 70.5 -111t24.5 -133q0 -175 -127 -275.5t-326 -100.5q-108 0 -184 22q-21 -14 -36 -38t-15 -46q0 -30 23 -47.5t85 -21.5l311 -19q176 -11 264.5 -73.5t88.5 -202.5q0 -100 -45 -172.5
t-124.5 -113t-173.5 -59t-206 -18.5q-114 0 -201.5 15t-141.5 39.5t-88.5 59.5t-47.5 71t-13 79q0 80 48 133t128 80v6q-125 44 -125 160q0 45 24 87t51 67.5t75 62.5q-71 43 -113.5 119.5t-42.5 173.5q0 174 123.5 282.5t333.5 108.5zM788 700q0 98 -59.5 148.5
t-167.5 50.5q-106 0 -169.5 -48t-63.5 -146q0 -199 231 -199q104 0 166.5 52t62.5 142zM852 -147q0 54 -33.5 82t-124.5 32l-334 19q-88 -62 -88 -144q0 -65 64.5 -97t210.5 -32q305 0 305 140zM575 1397l-169 -219l-168 14l223 338h227l223 -338l-166 -10z" />
    <glyph glyph-name="Gbreve" unicode="&#x11e;" horiz-adv-x="1509" 
d="M1161 193q-43 -96 -165.5 -157t-272.5 -61q-130 0 -235 36t-178.5 101t-122.5 158t-72 205.5t-23 245.5q0 371 185.5 579.5t519.5 208.5q120 0 217 -28.5t172 -88t120 -157.5t54 -231l-223 -25q-14 163 -97 245.5t-249 82.5q-219 0 -335 -147t-116 -417q0 -155 30 -265.5
t88 -176t136 -95.5t182 -30q86 0 156 27t113.5 72t66.5 101.5t23 117.5v96h-347v180h578v-770h-176zM795 1741q72 0 112.5 32t53.5 111l161 -12q-13 -143 -100 -214t-236 -71q-291 0 -311 281l164 16q13 -78 50 -110.5t106 -32.5z" />
    <glyph glyph-name="gbreve" unicode="&#x11f;" horiz-adv-x="1136" 
d="M555 1081q201 0 297 -84q62 140 176 140q44 0 84 -13v-157q-105 6 -197 -21q46 -46 70.5 -111t24.5 -133q0 -175 -127 -275.5t-326 -100.5q-108 0 -184 22q-21 -14 -36 -38t-15 -46q0 -30 23 -47.5t85 -21.5l311 -19q176 -11 264.5 -73.5t88.5 -202.5q0 -100 -45 -172.5
t-124.5 -113t-173.5 -59t-206 -18.5q-114 0 -201.5 15t-141.5 39.5t-88.5 59.5t-47.5 71t-13 79q0 80 48 133t128 80v6q-125 44 -125 160q0 45 24 87t51 67.5t75 62.5q-71 43 -113.5 119.5t-42.5 173.5q0 174 123.5 282.5t333.5 108.5zM788 700q0 98 -59.5 148.5
t-167.5 50.5q-106 0 -169.5 -48t-63.5 -146q0 -199 231 -199q104 0 166.5 52t62.5 142zM852 -147q0 54 -33.5 82t-124.5 32l-334 19q-88 -62 -88 -144q0 -65 64.5 -97t210.5 -32q305 0 305 140zM897 1491q-7 -159 -94.5 -240.5t-243.5 -81.5q-305 0 -317 318l164 18
q10 -101 47.5 -141.5t113.5 -40.5q82 0 122.5 39.5t47.5 140.5z" />
    <glyph glyph-name="Gdotaccent" unicode="&#x120;" horiz-adv-x="1509" 
d="M1161 193q-43 -96 -165.5 -157t-272.5 -61q-130 0 -235 36t-178.5 101t-122.5 158t-72 205.5t-23 245.5q0 371 185.5 579.5t519.5 208.5q120 0 217 -28.5t172 -88t120 -157.5t54 -231l-223 -25q-14 163 -97 245.5t-249 82.5q-219 0 -335 -147t-116 -417q0 -155 30 -265.5
t88 -176t136 -95.5t182 -30q86 0 156 27t113.5 72t66.5 101.5t23 117.5v96h-347v180h578v-770h-176zM942 1749q0 -73 -41 -114.5t-113 -41.5q-73 0 -113 41t-40 115t40 114t113 40q72 0 113 -40.5t41 -113.5z" />
    <glyph glyph-name="gdotaccent" unicode="&#x121;" horiz-adv-x="1136" 
d="M555 1081q201 0 297 -84q62 140 176 140q44 0 84 -13v-157q-105 6 -197 -21q46 -46 70.5 -111t24.5 -133q0 -175 -127 -275.5t-326 -100.5q-108 0 -184 22q-21 -14 -36 -38t-15 -46q0 -30 23 -47.5t85 -21.5l311 -19q176 -11 264.5 -73.5t88.5 -202.5q0 -100 -45 -172.5
t-124.5 -113t-173.5 -59t-206 -18.5q-114 0 -201.5 15t-141.5 39.5t-88.5 59.5t-47.5 71t-13 79q0 80 48 133t128 80v6q-125 44 -125 160q0 45 24 87t51 67.5t75 62.5q-71 43 -113.5 119.5t-42.5 173.5q0 174 123.5 282.5t333.5 108.5zM788 700q0 98 -59.5 148.5
t-167.5 50.5q-106 0 -169.5 -48t-63.5 -146q0 -199 231 -199q104 0 166.5 52t62.5 142zM852 -147q0 54 -33.5 82t-124.5 32l-334 19q-88 -62 -88 -144q0 -65 64.5 -97t210.5 -32q305 0 305 140zM713 1393q0 -75 -40.5 -115.5t-113.5 -40.5q-153 0 -153 156q0 73 40 113
t113 40q72 0 113 -40t41 -113z" />
    <glyph glyph-name="uni0122" unicode="&#x122;" horiz-adv-x="1509" 
d="M1161 193q-43 -96 -165.5 -157t-272.5 -61q-130 0 -235 36t-178.5 101t-122.5 158t-72 205.5t-23 245.5q0 371 185.5 579.5t519.5 208.5q120 0 217 -28.5t172 -88t120 -157.5t54 -231l-223 -25q-14 163 -97 245.5t-249 82.5q-219 0 -335 -147t-116 -417q0 -155 30 -265.5
t88 -176t136 -95.5t182 -30q86 0 156 27t113.5 72t66.5 101.5t23 117.5v96h-347v180h578v-770h-176zM895 -139l-152 -383l-168 24l87 359h233z" />
    <glyph glyph-name="uni0123" unicode="&#x123;" horiz-adv-x="1136" 
d="M555 1081q201 0 297 -84q62 140 176 140q44 0 84 -13v-157q-105 6 -197 -21q46 -46 70.5 -111t24.5 -133q0 -175 -127 -275.5t-326 -100.5q-108 0 -184 22q-21 -14 -36 -38t-15 -46q0 -30 23 -47.5t85 -21.5l311 -19q176 -11 264.5 -73.5t88.5 -202.5q0 -100 -45 -172.5
t-124.5 -113t-173.5 -59t-206 -18.5q-114 0 -201.5 15t-141.5 39.5t-88.5 59.5t-47.5 71t-13 79q0 80 48 133t128 80v6q-125 44 -125 160q0 45 24 87t51 67.5t75 62.5q-71 43 -113.5 119.5t-42.5 173.5q0 174 123.5 282.5t333.5 108.5zM788 700q0 98 -59.5 148.5
t-167.5 50.5q-106 0 -169.5 -48t-63.5 -146q0 -199 231 -199q104 0 166.5 52t62.5 142zM852 -147q0 54 -33.5 82t-124.5 32l-334 19q-88 -62 -88 -144q0 -65 64.5 -97t210.5 -32q305 0 305 140zM418 1167l151 381l168 -24l-86 -357h-233z" />
    <glyph glyph-name="Hcircumflex" unicode="&#x124;" horiz-adv-x="1495" 
d="M1077 0v647h-659v-647h-240v1483h240v-625h659v625h240v-1483h-240zM584 1571l-168 18l229 273h211l225 -273l-170 -14l-161 156z" />
    <glyph glyph-name="hcircumflex" unicode="&#x125;" horiz-adv-x="1193" 
d="M823 0v682q0 102 -41 152.5t-133 50.5q-72 0 -147 -35.5t-121 -77.5v-772h-236v1546h234v-592q158 127 354 127q168 0 247 -89t79 -271v-721h-236zM102 1616l-168 18l230 273h211l225 -273l-170 -14l-162 156z" />
    <glyph glyph-name="Hbar" unicode="&#x126;" horiz-adv-x="1495" 
d="M1466 1249v-178h-149v-1071h-240v647h-659v-647h-240v1071h-149v178h149v234h240v-234h659v234h240v-234h149zM1077 1071h-659v-213h659v213z" />
    <glyph glyph-name="hbar" unicode="&#x127;" horiz-adv-x="1193" 
d="M823 0v655q0 102 -41 152.5t-133 50.5q-72 0 -147 -35.5t-121 -77.5v-745h-236v1180h-129v170h129v196h234v-196h377v-170h-377v-252q158 127 354 127q168 0 247 -89.5t79 -271.5v-694h-236z" />
    <glyph glyph-name="Itilde" unicode="&#x128;" horiz-adv-x="595" 
d="M190 0v1483h240v-1483h-240zM156 1874q56 0 113 -23t107 -46t87 -23q38 0 53.5 20t15.5 78l132 -6q17 -122 -33 -193t-146 -71q-57 0 -116 23t-110 46t-87 23t-54 -23t-14 -82l-135 7q-16 127 39 198.5t148 71.5z" />
    <glyph glyph-name="itilde" unicode="&#x129;" horiz-adv-x="526" 
d="M160 0v1059h235v-1059h-235zM119 1479q56 0 113 -23.5t107 -46.5t87 -23q38 0 54 21t16 80l131 -8q17 -122 -33 -193.5t-145 -71.5q-57 0 -116.5 24t-110.5 47.5t-87 23.5q-75 0 -67 -107l-136 6q-13 128 41 199.5t146 71.5z" />
    <glyph glyph-name="Imacron" unicode="&#x12a;" horiz-adv-x="595" 
d="M178 0v1483h240v-1483h-240zM-18 1788h636v-170h-636v170z" />
    <glyph glyph-name="imacron" unicode="&#x12b;" horiz-adv-x="526" 
d="M150 0v1059h235v-1059h-235zM-41 1432h612v-170h-612v170z" />
    <glyph glyph-name="Ibreve" unicode="&#x12c;" horiz-adv-x="595" 
d="M178 0v1483h240v-1483h-240zM303 1741q72 0 112.5 32t53.5 111l162 -12q-13 -143 -100 -214t-236 -71q-291 0 -311 281l163 16q13 -78 50 -110.5t106 -32.5z" />
    <glyph glyph-name="ibreve" unicode="&#x12d;" horiz-adv-x="526" 
d="M150 0v1059h235v-1059h-235zM604 1491q-7 -159 -94.5 -240.5t-243.5 -81.5q-305 0 -317 318l164 18q10 -101 47.5 -141.5t113.5 -40.5q82 0 122.5 39.5t47.5 140.5z" />
    <glyph glyph-name="Iogonek" unicode="&#x12e;" horiz-adv-x="595" 
d="M510 -295q-31 -86 -102 -133t-158 -47q-100 0 -158.5 49.5t-58.5 136.5q0 152 145 289v1483h240v-1483q-104 -74 -150.5 -129.5t-46.5 -118.5q0 -76 72 -76q63 0 104 84z" />
    <glyph glyph-name="iogonek" unicode="&#x12f;" horiz-adv-x="526" 
d="M479 -295q-31 -86 -102 -133t-158 -47q-100 0 -158.5 49.5t-58.5 136.5q0 85 39.5 152.5t108.5 136.5v1059h235v-1059q-102 -75 -148.5 -130.5t-46.5 -117.5q0 -76 72 -76q64 0 105 84zM422 1393q0 -156 -154 -156q-72 0 -112.5 40.5t-40.5 115.5q0 73 40.5 113t112.5 40
q74 0 114 -40t40 -113z" />
    <glyph glyph-name="Idot" unicode="&#x130;" horiz-adv-x="595" 
d="M178 0v1483h240v-1483h-240zM451 1749q0 -73 -41 -114.5t-113 -41.5q-73 0 -113.5 41t-40.5 115q0 73 40.5 113.5t113.5 40.5q72 0 113 -40.5t41 -113.5z" />
    <glyph glyph-name="dotlessi" unicode="&#x131;" horiz-adv-x="526" 
d="M150 0v1059h235v-1059h-235z" />
    <glyph glyph-name="IJ" unicode="&#x132;" horiz-adv-x="1642" 
d="M178 0v1483h240v-1483h-240zM1481 1483v-1094q0 -414 -432 -414q-191 0 -295.5 89.5t-114.5 285.5l231 37q10 -109 47.5 -161t137.5 -52q93 0 139.5 44.5t46.5 164.5v1100h240z" />
    <glyph glyph-name="ij" unicode="&#x133;" horiz-adv-x="1048" 
d="M150 0v1059h235v-1059h-235zM422 1393q0 -156 -154 -156q-72 0 -112.5 40.5t-40.5 115.5q0 73 40.5 113t112.5 40q74 0 114 -40t40 -113zM578 -457q-62 0 -126 14t-94 33l21 181q90 -35 160 -35q137 0 137 164v1159h235v-1174q0 -175 -87 -258.5t-246 -83.5zM950 1403
q0 -73 -40.5 -114.5t-112.5 -41.5q-73 0 -113.5 41t-40.5 115q0 156 154 156q72 0 112.5 -40.5t40.5 -115.5z" />
    <glyph glyph-name="Jcircumflex" unicode="&#x134;" horiz-adv-x="1046" 
d="M885 1483v-1094q0 -414 -432 -414q-191 0 -295.5 89.5t-114.5 285.5l231 37q10 -109 47.5 -161t137.5 -52q93 0 139.5 44.5t46.5 164.5v1100h240zM602 1571l-168 18l230 273h210l226 -273l-170 -14l-162 156z" />
    <glyph glyph-name="jcircumflex" unicode="&#x135;" horiz-adv-x="522" 
d="M51 -457q-62 0 -125.5 14t-93.5 33l21 181q90 -35 159 -35q138 0 138 164v1159h235v-1174q0 -175 -87.5 -258.5t-246.5 -83.5zM268 1397l-170 -219l-168 14l224 338h227l223 -338l-166 -10z" />
    <glyph glyph-name="uni0136" unicode="&#x136;" horiz-adv-x="1341" 
d="M1047 1483h260l-566 -629l580 -854h-281l-467 670l-155 -168v-502h-240v1483h240v-692zM831 -139l-151 -383l-168 24l86 359h233z" />
    <glyph glyph-name="uni0137" unicode="&#x137;" horiz-adv-x="1114" 
d="M795 1059h264l-361 -381l387 -678h-258l-305 522l-139 -137v-385h-236v1546h236v-915zM717 -139l-152 -383l-168 24l86 359h234z" />
    <glyph glyph-name="kgreenlandic" unicode="&#x138;" horiz-adv-x="1114" 
d="M795 1059h264l-361 -381l387 -678h-258l-305 522l-139 -137v-385h-236v1059h236v-428z" />
    <glyph glyph-name="Lacute" unicode="&#x139;" horiz-adv-x="1142" 
d="M1073 203v-203h-895v1483h240v-1280h655zM137 1593l197 281h266l-291 -303z" />
    <glyph glyph-name="lacute" unicode="&#x13a;" horiz-adv-x="526" 
d="M150 0v1546h235v-1546h-235zM90 1636l197 281h266l-291 -303z" />
    <glyph glyph-name="uni013B" unicode="&#x13b;" horiz-adv-x="1142" 
d="M1073 203v-203h-895v1483h240v-1280h655zM768 -139l-152 -383l-167 24l86 359h233z" />
    <glyph glyph-name="uni013C" unicode="&#x13c;" horiz-adv-x="526" 
d="M150 0v1546h235v-1546h-235zM408 -139l-152 -383l-168 24l86 359h234z" />
    <glyph glyph-name="Lcaron" unicode="&#x13d;" horiz-adv-x="1142" 
d="M1073 203v-203h-895v1483h240v-1280h655zM907 1483l-129 -412l-168 19l68 393h229z" />
    <glyph glyph-name="lcaron" unicode="&#x13e;" horiz-adv-x="694" 
d="M150 0v1546h235v-1546h-235zM780 1546l-129 -411l-168 18l68 393h229z" />
    <glyph glyph-name="Ldot" unicode="&#x13f;" horiz-adv-x="1142" 
d="M1073 203v-203h-895v1483h240v-1280h655zM1024 825q0 -73 -41 -114t-113 -41q-73 0 -113 40.5t-40 114.5t40 114t113 40q72 0 113 -40.5t41 -113.5z" />
    <glyph glyph-name="ldot" unicode="&#x140;" horiz-adv-x="714" 
d="M150 0v1546h235v-1546h-235zM778 817q0 -75 -40 -115t-113 -40q-154 0 -154 155q0 73 40.5 113.5t113.5 40.5q72 0 112.5 -40.5t40.5 -113.5z" />
    <glyph glyph-name="Lslash" unicode="&#x141;" horiz-adv-x="1142" 
d="M862 1038v-204l-444 -181v-450h655v-203h-895v575l-178 -71v201l178 73v705h240v-627z" />
    <glyph glyph-name="lslash" unicode="&#x142;" horiz-adv-x="630" 
d="M590 1036v-205l-162 -79v-752h-235v678l-152 -74v205l152 72v665h235v-590z" />
    <glyph glyph-name="Nacute" unicode="&#x143;" horiz-adv-x="1525" 
d="M399 1165v-1165h-221v1483h301l649 -1159v1159h220v-1483h-283zM664 1593l196 281h266l-290 -303z" />
    <glyph glyph-name="nacute" unicode="&#x144;" horiz-adv-x="1193" 
d="M823 0v682q0 102 -41 152.5t-133 50.5q-72 0 -147 -35.5t-121 -77.5v-772h-236v1059h209l11 -111q168 133 366 133q170 0 249 -89t79 -271v-721h-236zM504 1192l180 336h266l-282 -357z" />
    <glyph glyph-name="uni0145" unicode="&#x145;" horiz-adv-x="1525" 
d="M399 1165v-1165h-221v1483h301l649 -1159v1159h220v-1483h-283zM903 -139l-151 -383l-168 24l86 359h233z" />
    <glyph glyph-name="uni0146" unicode="&#x146;" horiz-adv-x="1193" 
d="M823 0v682q0 102 -41 152.5t-133 50.5q-72 0 -147 -35.5t-121 -77.5v-772h-236v1059h209l11 -111q168 133 366 133q170 0 249 -89t79 -271v-721h-236zM735 -139l-151 -383l-168 24l86 359h233z" />
    <glyph glyph-name="Ncaron" unicode="&#x147;" horiz-adv-x="1525" 
d="M399 1165v-1165h-221v1483h301l649 -1159v1159h220v-1483h-283zM963 1870l167 -19l-229 -272h-211l-225 272l170 15l162 -156z" />
    <glyph glyph-name="ncaron" unicode="&#x148;" horiz-adv-x="1193" 
d="M823 0v682q0 102 -41 152.5t-133 50.5q-72 0 -147 -35.5t-121 -77.5v-772h-236v1059h209l11 -111q168 133 366 133q170 0 249 -89t79 -271v-721h-236zM637 1305l172 217l162 -15l-223 -336h-228l-223 336l174 13z" />
    <glyph glyph-name="napostrophe" unicode="&#x149;" horiz-adv-x="1468" 
d="M74 1118l43 428h231l-108 -452zM1098 0v682q0 102 -41 152.5t-133 50.5q-72 0 -147.5 -35.5t-121.5 -77.5v-772h-235v1059h209l10 -111q168 133 367 133q170 0 248.5 -89t78.5 -271v-721h-235z" />
    <glyph glyph-name="Eng" unicode="&#x14a;" horiz-adv-x="1396" 
d="M893 -461q-61 0 -127 15t-96 34l20 170q95 -37 168 -37q70 0 105.5 39.5t35.5 130.5v1123q0 147 -55.5 225t-187.5 78q-95 0 -192.5 -40.5t-149.5 -84.5v-1192h-236v1483h209l12 -127q86 66 198 108.5t234 42.5q215 0 309.5 -117t94.5 -346v-1169q0 -169 -87.5 -252.5
t-254.5 -83.5z" />
    <glyph glyph-name="eng" unicode="&#x14b;" horiz-adv-x="1193" 
d="M725 -457q-62 0 -125.5 14t-93.5 33l20 181q90 -35 160 -35q137 0 137 164v782q0 102 -41 152.5t-133 50.5q-72 0 -147 -35.5t-121 -77.5v-772h-236v1059h209l11 -111q168 133 366 133q170 0 249 -89t79 -271v-836q0 -175 -87.5 -258.5t-246.5 -83.5z" />
    <glyph glyph-name="Omacron" unicode="&#x14c;" horiz-adv-x="1556" 
d="M768 -25q-173 0 -304 56.5t-211.5 159.5t-120.5 240t-40 306q0 167 46 307.5t133.5 244t222.5 162t305 58.5q136 0 247 -37.5t188 -104.5t129.5 -160.5t76.5 -203t24 -235.5q0 -181 -43.5 -326t-129 -249.5t-218.5 -161t-305 -56.5zM778 180q203 0 322 140.5t119 427.5
q0 276 -112.5 414t-313.5 138t-326 -137q-127 -139 -127 -422q0 -280 116.5 -420.5t321.5 -140.5zM479 1788h637v-170h-637v170z" />
    <glyph glyph-name="omacron" unicode="&#x14d;" horiz-adv-x="1191" 
d="M588 -25q-136 0 -235 41t-155.5 117t-83 172.5t-26.5 218.5q0 262 134 409.5t392 147.5q129 0 224.5 -38.5t153 -110t85 -167t27.5 -216.5q0 -272 -126 -423t-390 -151zM600 158q126 0 192 90.5t66 288.5q0 192 -61.5 273t-190.5 81q-272 0 -272 -359q0 -192 64.5 -283
t201.5 -91zM301 1432h612v-170h-612v170z" />
    <glyph glyph-name="Obreve" unicode="&#x14e;" horiz-adv-x="1556" 
d="M768 -25q-173 0 -304 56.5t-211.5 159.5t-120.5 240t-40 306q0 167 46 307.5t133.5 244t222.5 162t305 58.5q136 0 247 -37.5t188 -104.5t129.5 -160.5t76.5 -203t24 -235.5q0 -181 -43.5 -326t-129 -249.5t-218.5 -161t-305 -56.5zM778 180q203 0 322 140.5t119 427.5
q0 276 -112.5 414t-313.5 138t-326 -137q-127 -139 -127 -422q0 -280 116.5 -420.5t321.5 -140.5zM801 1741q72 0 112.5 32t53.5 111l161 -12q-13 -144 -99.5 -214.5t-235.5 -70.5q-292 0 -312 281l164 16q13 -78 50 -110.5t106 -32.5z" />
    <glyph glyph-name="obreve" unicode="&#x14f;" horiz-adv-x="1191" 
d="M588 -25q-136 0 -235 41t-155.5 117t-83 172.5t-26.5 218.5q0 262 134 409.5t392 147.5q129 0 224.5 -38.5t153 -110t85 -167t27.5 -216.5q0 -272 -126 -423t-390 -151zM600 158q126 0 192 90.5t66 288.5q0 192 -61.5 273t-190.5 81q-272 0 -272 -359q0 -192 64.5 -283
t201.5 -91zM946 1491q-7 -159 -94.5 -240.5t-243.5 -81.5q-305 0 -317 318l164 18q10 -101 47.5 -141.5t113.5 -40.5q82 0 122.5 39.5t47.5 140.5z" />
    <glyph glyph-name="Ohungarumlaut" unicode="&#x150;" horiz-adv-x="1556" 
d="M768 -25q-173 0 -304 56.5t-211.5 159.5t-120.5 240t-40 306q0 167 46 307.5t133.5 244t222.5 162t305 58.5q136 0 247 -37.5t188 -104.5t129.5 -160.5t76.5 -203t24 -235.5q0 -181 -43.5 -326t-129 -249.5t-218.5 -161t-305 -56.5zM778 180q203 0 322 140.5t119 427.5
q0 276 -112.5 414t-313.5 138t-326 -137q-127 -139 -127 -422q0 -280 116.5 -420.5t321.5 -140.5zM551 1597l123 275h258l-219 -301zM831 1593l199 287h266l-299 -309z" />
    <glyph glyph-name="ohungarumlaut" unicode="&#x151;" horiz-adv-x="1191" 
d="M588 -25q-136 0 -235 41t-155.5 117t-83 172.5t-26.5 218.5q0 262 134 409.5t392 147.5q129 0 224.5 -38.5t153 -110t85 -167t27.5 -216.5q0 -272 -126 -423t-390 -151zM600 158q126 0 192 90.5t66 288.5q0 192 -61.5 273t-190.5 81q-272 0 -272 -359q0 -192 64.5 -283
t201.5 -91zM365 1198l127 328h256l-226 -355zM651 1192l193 340h266l-295 -361z" />
    <glyph glyph-name="OE" unicode="&#x152;" horiz-adv-x="2215" 
d="M1237 193q-74 -104 -195.5 -161t-273.5 -57q-139 0 -251 37t-190.5 104.5t-131.5 163t-78 210t-25 249.5q0 167 46 307t132.5 243.5t220 161.5t300.5 58q297 0 446 -196v170h870v-201h-655v-438h616v-199h-616v-444h686v-201h-901v193zM778 180q200 0 319 137.5
t122 419.5q0 283 -111.5 423t-314.5 140q-208 0 -330.5 -140.5t-122.5 -418.5q0 -282 116.5 -421.5t321.5 -139.5z" />
    <glyph glyph-name="oe" unicode="&#x153;" horiz-adv-x="1873" 
d="M1356 -25q-275 0 -387 201q-118 -201 -391 -201q-131 0 -227.5 41t-153 116.5t-83 172.5t-26.5 219q0 261 133 409t383 148q140 0 229 -50t148 -148q60 96 158 147t223 51q211 0 315.5 -127.5t104.5 -343.5q0 -98 -6 -139h-686q8 -303 266 -303q98 0 146.5 42.5
t70.5 129.5l201 -49q-32 -150 -144.5 -233t-273.5 -83zM600 158q127 0 192.5 89.5t65.5 289.5q0 192 -61.5 273t-190.5 81q-130 0 -201 -87.5t-71 -271.5q0 -194 64.5 -284t201.5 -90zM1538 635q0 134 -49.5 197t-155.5 63q-97 0 -164.5 -64t-74.5 -196h444z" />
    <glyph glyph-name="Racute" unicode="&#x154;" horiz-adv-x="1308" 
d="M1018 0l-320 596h-282v-596h-238v1483h537q107 0 191.5 -23t138.5 -61t89 -91.5t49.5 -111t14.5 -123.5q0 -160 -72.5 -263t-201.5 -153l354 -657h-260zM647 788q143 0 223 61t80 208q0 127 -77 178t-232 51h-225v-498h231zM463 1593l196 281h267l-291 -303z" />
    <glyph glyph-name="racute" unicode="&#x155;" horiz-adv-x="770" 
d="M752 844q-99 12 -202 -18.5t-169 -90.5v-735h-236v1059h199l18 -158q64 92 147.5 136t199.5 44q20 0 43 -2v-235zM328 1192l180 336h266l-282 -357z" />
    <glyph glyph-name="uni0156" unicode="&#x156;" horiz-adv-x="1308" 
d="M1018 0l-320 596h-282v-596h-238v1483h537q107 0 191.5 -23t138.5 -61t89 -91.5t49.5 -111t14.5 -123.5q0 -160 -72.5 -263t-201.5 -153l354 -657h-260zM647 788q143 0 223 61t80 208q0 127 -77 178t-232 51h-225v-498h231zM819 -139l-151 -383l-168 24l86 359h233z" />
    <glyph glyph-name="uni0157" unicode="&#x157;" horiz-adv-x="770" 
d="M752 844q-99 12 -202 -18.5t-169 -90.5v-735h-236v1059h199l18 -158q64 92 147.5 136t199.5 44q20 0 43 -2v-235zM406 -139l-152 -383l-168 24l86 359h234z" />
    <glyph glyph-name="Rcaron" unicode="&#x158;" horiz-adv-x="1308" 
d="M1018 0l-320 596h-282v-596h-238v1483h537q107 0 191.5 -23t138.5 -61t89 -91.5t49.5 -111t14.5 -123.5q0 -160 -72.5 -263t-201.5 -153l354 -657h-260zM647 788q143 0 223 61t80 208q0 127 -77 178t-232 51h-225v-498h231zM791 1870l167 -19l-229 -272h-211l-225 272
l170 15l162 -156z" />
    <glyph glyph-name="rcaron" unicode="&#x159;" horiz-adv-x="770" 
d="M752 844q-99 12 -202 -18.5t-169 -90.5v-735h-236v1059h199l18 -158q64 92 147.5 136t199.5 44q20 0 43 -2v-235zM463 1305l172 217l162 -15l-224 -336h-227l-223 336l174 13z" />
    <glyph glyph-name="Sacute" unicode="&#x15a;" horiz-adv-x="1226" 
d="M627 1315q-141 0 -208 -53t-67 -148q0 -33 10 -61.5t23 -49t40.5 -40.5t48.5 -32t61.5 -27.5t64.5 -23t71 -22.5q4 -1 7 -2l6 -2q171 -53 239 -86q169 -84 209 -233q13 -51 13 -111q0 -94 -29.5 -170t-79.5 -127.5t-119.5 -86t-147.5 -50t-165 -15.5q-510 0 -553 441
l221 33q11 -51 24.5 -88.5t39 -76t60 -63t88.5 -40t124 -15.5q47 0 87.5 6.5t80 22.5t67.5 40.5t45 64.5t17 91q0 48 -19 86.5t-45.5 63t-75.5 46.5t-87.5 33.5t-102.5 28.5q-88 24 -134.5 38.5t-120 50.5t-111 77t-67 110.5t-29.5 159.5q0 131 68 228t184 146.5t264 49.5
q82 0 150 -12t131 -42.5t108.5 -78t76 -122t38.5 -171.5l-222 -26q-8 59 -24 101.5t-47 80t-84.5 57t-128.5 19.5zM467 1593l197 281h266l-291 -303z" />
    <glyph glyph-name="sacute" unicode="&#x15b;" horiz-adv-x="1009" 
d="M516 1081q178 0 274 -77.5t128 -223.5l-205 -53q-21 89 -63.5 133.5t-137.5 44.5q-93 0 -137.5 -34t-44.5 -91q0 -29 11 -51t29 -37t49 -27t62.5 -20t77.5 -16q49 -9 79 -15.5t74.5 -19.5t72 -27.5t59.5 -38.5t50 -53t30 -71t12 -93q0 -161 -118.5 -248.5t-317.5 -87.5
q-382 0 -432 299l200 66q13 -44 26.5 -72t39 -57.5t69 -44t105.5 -14.5q92 0 145.5 31t53.5 96q0 31 -11 54t-27 37.5t-48 26t-59.5 18t-76.5 15.5q-50 9 -76.5 15t-73 19.5t-72.5 27.5t-59.5 39t-51.5 54.5t-30.5 73t-12.5 95.5q0 158 115.5 242.5t291.5 84.5zM375 1192
l180 336h266l-282 -357z" />
    <glyph glyph-name="Scircumflex" unicode="&#x15c;" horiz-adv-x="1226" 
d="M627 1315q-141 0 -208 -53t-67 -148q0 -33 10 -61.5t23 -49t40.5 -40.5t48.5 -32t61.5 -27.5t64.5 -23t71 -22.5q4 -1 7 -2l6 -2q171 -53 239 -86q169 -84 209 -233q13 -51 13 -111q0 -94 -29.5 -170t-79.5 -127.5t-119.5 -86t-147.5 -50t-165 -15.5q-510 0 -553 441
l221 33q11 -51 24.5 -88.5t39 -76t60 -63t88.5 -40t124 -15.5q47 0 87.5 6.5t80 22.5t67.5 40.5t45 64.5t17 91q0 48 -19 86.5t-45.5 63t-75.5 46.5t-87.5 33.5t-102.5 28.5q-88 24 -134.5 38.5t-120 50.5t-111 77t-67 110.5t-29.5 159.5q0 131 68 228t184 146.5t264 49.5
q82 0 150 -12t131 -42.5t108.5 -78t76 -122t38.5 -171.5l-222 -26q-8 59 -24 101.5t-47 80t-84.5 57t-128.5 19.5zM465 1571l-168 18l229 273h211l226 -273l-170 -14l-162 156z" />
    <glyph glyph-name="scircumflex" unicode="&#x15d;" horiz-adv-x="1009" 
d="M516 1081q178 0 274 -77.5t128 -223.5l-205 -53q-21 89 -63.5 133.5t-137.5 44.5q-93 0 -137.5 -34t-44.5 -91q0 -29 11 -51t29 -37t49 -27t62.5 -20t77.5 -16q49 -9 79 -15.5t74.5 -19.5t72 -27.5t59.5 -38.5t50 -53t30 -71t12 -93q0 -161 -118.5 -248.5t-317.5 -87.5
q-382 0 -432 299l200 66q13 -44 26.5 -72t39 -57.5t69 -44t105.5 -14.5q92 0 145.5 31t53.5 96q0 31 -11 54t-27 37.5t-48 26t-59.5 18t-76.5 15.5q-50 9 -76.5 15t-73 19.5t-72.5 27.5t-59.5 39t-51.5 54.5t-30.5 73t-12.5 95.5q0 158 115.5 242.5t291.5 84.5zM516 1397
l-170 -219l-168 14l223 338h228l223 -338l-166 -10z" />
    <glyph glyph-name="Scedilla" unicode="&#x15e;" horiz-adv-x="1226" 
d="M455 -317q71 -23 106 -23q103 0 103 84q0 48 -34 67t-110 21l21 145q-103 6 -184 32t-147 76.5t-106.5 133.5t-52.5 197l221 33q11 -51 24.5 -88.5t39 -76t60 -63t88.5 -40t124 -15.5q47 0 87.5 6.5t80 22.5t67.5 40.5t45 64.5t17 91q0 41 -12 75t-38 59t-52.5 43.5
t-71.5 35t-77.5 26t-86.5 23.5q-44 11 -73 19t-70.5 22t-70 27t-64 33.5t-58.5 42t-47.5 52t-38.5 64.5t-23 78t-9 94q0 131 68 228t184 146.5t264 49.5q82 0 150 -12t131 -42.5t108.5 -78t76 -122t38.5 -171.5l-222 -26q-8 59 -24 101.5t-47 80t-84.5 57t-128.5 19.5
q-141 0 -208 -53t-67 -148q0 -47 19.5 -85t46.5 -62t77.5 -47t89.5 -35.5t105 -30.5q57 -16 94 -27.5t89.5 -32t86.5 -41.5t72.5 -54t60.5 -71t37 -90.5t15 -113.5q0 -107 -38 -191t-104.5 -136.5t-149.5 -82t-181 -37.5l-8 -55q165 -30 165 -182q0 -98 -68 -156.5
t-173 -58.5q-88 0 -168 37z" />
    <glyph glyph-name="scedilla" unicode="&#x15f;" horiz-adv-x="1009" 
d="M342 -317q71 -23 107 -23q102 0 102 84q0 48 -33.5 67t-109.5 21l20 148q-316 27 -360 294l200 66q13 -44 26.5 -72t39 -57.5t69 -44t105.5 -14.5q92 0 145.5 31t53.5 96q0 79 -60 104q-53 25 -162 47q-152 29 -218 61q-158 77 -158 263q0 158 115.5 242.5t291.5 84.5
q178 0 274 -77.5t128 -223.5l-205 -53q-21 89 -63.5 133.5t-137.5 44.5q-93 0 -137.5 -34t-44.5 -91q0 -29 11 -51t29 -37t49 -27t62.5 -20t77.5 -16q49 -9 79 -15.5t74.5 -19.5t72 -27.5t59.5 -38.5t50 -53t30 -71t12 -93q0 -149 -101.5 -235.5t-275.5 -98.5l-8 -55
q166 -30 166 -182q0 -98 -68.5 -156.5t-173.5 -58.5q-88 0 -168 37z" />
    <glyph glyph-name="Scaron" unicode="&#x160;" horiz-adv-x="1226" 
d="M627 1315q-141 0 -208 -53t-67 -148q0 -33 10 -61.5t23 -49t40.5 -40.5t48.5 -32t61.5 -27.5t64.5 -23t71 -22.5q4 -1 7 -2l6 -2q171 -53 239 -86q169 -84 209 -233q13 -51 13 -111q0 -94 -29.5 -170t-79.5 -127.5t-119.5 -86t-147.5 -50t-165 -15.5q-510 0 -553 441
l221 33q11 -51 24.5 -88.5t39 -76t60 -63t88.5 -40t124 -15.5q47 0 87.5 6.5t80 22.5t67.5 40.5t45 64.5t17 91q0 48 -19 86.5t-45.5 63t-75.5 46.5t-87.5 33.5t-102.5 28.5q-88 24 -134.5 38.5t-120 50.5t-111 77t-67 110.5t-29.5 159.5q0 131 68 228t184 146.5t264 49.5
q82 0 150 -12t131 -42.5t108.5 -78t76 -122t38.5 -171.5l-222 -26q-8 59 -24 101.5t-47 80t-84.5 57t-128.5 19.5zM795 1870l168 -19l-230 -272h-211l-225 272l170 15l162 -156z" />
    <glyph glyph-name="scaron" unicode="&#x161;" horiz-adv-x="1009" 
d="M516 1081q178 0 274 -77.5t128 -223.5l-205 -53q-21 89 -63.5 133.5t-137.5 44.5q-93 0 -137.5 -34t-44.5 -91q0 -29 11 -51t29 -37t49 -27t62.5 -20t77.5 -16q49 -9 79 -15.5t74.5 -19.5t72 -27.5t59.5 -38.5t50 -53t30 -71t12 -93q0 -161 -118.5 -248.5t-317.5 -87.5
q-382 0 -432 299l200 66q13 -44 26.5 -72t39 -57.5t69 -44t105.5 -14.5q92 0 145.5 31t53.5 96q0 31 -11 54t-27 37.5t-48 26t-59.5 18t-76.5 15.5q-50 9 -76.5 15t-73 19.5t-72.5 27.5t-59.5 39t-51.5 54.5t-30.5 73t-12.5 95.5q0 158 115.5 242.5t291.5 84.5zM518 1305
l172 217l162 -15l-223 -336h-228l-223 336l174 13z" />
    <glyph glyph-name="uni0162" unicode="&#x162;" horiz-adv-x="1169" 
d="M430 -317q71 -23 107 -23q102 0 102 84q0 48 -33.5 67t-109.5 21l22 168h-51v1282h-444v201h1124v-201h-440v-1282h-58l-10 -78q166 -30 166 -182q0 -98 -68.5 -156.5t-173.5 -58.5q-88 0 -168 37z" />
    <glyph glyph-name="uni0163" unicode="&#x163;" horiz-adv-x="802" 
d="M305 -317q71 -23 107 -23q102 0 102 84q0 48 -33.5 67t-109.5 21l22 156q-205 48 -205 307v590h-161v174h161v309l236 33v-342h287v-174h-287v-557q0 -84 29.5 -122t111.5 -38q45 0 95 14.5t85 34.5l39 -168q-41 -27 -113.5 -48.5t-148.5 -25.5l-8 -53q166 -30 166 -182
q0 -98 -68.5 -156.5t-173.5 -58.5q-88 0 -168 37z" />
    <glyph glyph-name="Tcaron" unicode="&#x164;" horiz-adv-x="1169" 
d="M467 1282h-444v201h1124v-201h-440v-1282h-240v1282zM750 1870l168 -19l-230 -272h-211l-225 272l170 15l162 -156z" />
    <glyph glyph-name="tcaron" unicode="&#x165;" horiz-adv-x="802" 
d="M784 49q-42 -29 -121 -51.5t-159 -22.5q-158 0 -237 77.5t-79 242.5v590h-161v174h161v309l236 33v-342h287v-174h-287v-557q0 -84 29.5 -122t111.5 -38q45 0 95 14.5t85 34.5zM825 1587l-129 -411l-168 18l68 393h229z" />
    <glyph glyph-name="Tbar" unicode="&#x166;" horiz-adv-x="1169" 
d="M467 645h-283v182h283v455h-444v201h1124v-201h-440v-455h278v-182h-278v-645h-240v645z" />
    <glyph glyph-name="tbar" unicode="&#x167;" horiz-adv-x="802" 
d="M784 49q-42 -29 -121 -51.5t-159 -22.5q-158 0 -237 77.5t-79 242.5v205h-161v172h161v213h-161v174h161v309l236 33v-342h287v-174h-287v-213h287v-172h-287v-172q0 -84 29.5 -122t111.5 -38q45 0 95 14.5t85 34.5z" />
    <glyph glyph-name="Utilde" unicode="&#x168;" horiz-adv-x="1456" 
d="M731 176q172 0 247 82.5t75 278.5v946h239v-971q0 -271 -150 -404t-423 -133q-289 0 -422 134t-133 409v965h239v-940q0 -192 78 -279.5t250 -87.5zM573 1874q56 0 113.5 -23t107.5 -46t87 -23q38 0 53.5 20t15.5 78l131 -6q17 -122 -32.5 -193t-145.5 -71q-57 0 -116 23
t-110 46t-87 23t-54 -23t-14 -82l-135 7q-16 128 38.5 199t147.5 71z" />
    <glyph glyph-name="utilde" unicode="&#x169;" horiz-adv-x="1187" 
d="M379 1059v-682q0 -103 37.5 -152t128.5 -49q71 0 146 34.5t120 76.5v772h236v-1059h-205l-17 117q-153 -140 -362 -140q-164 0 -242 89.5t-78 269.5v723h236zM440 1479q56 0 113.5 -23.5t107.5 -46.5t87 -23q38 0 53.5 20.5t15.5 80.5l131 -8q17 -122 -33 -193.5
t-145 -71.5q-57 0 -116 24t-110 47.5t-87 23.5q-76 0 -68 -107l-135 6q-13 128 40.5 199.5t145.5 71.5z" />
    <glyph glyph-name="Umacron" unicode="&#x16a;" horiz-adv-x="1456" 
d="M731 176q172 0 247 82.5t75 278.5v946h239v-971q0 -271 -150 -404t-423 -133q-289 0 -422 134t-133 409v965h239v-940q0 -192 78 -279.5t250 -87.5zM412 1788h637v-170h-637v170z" />
    <glyph glyph-name="umacron" unicode="&#x16b;" horiz-adv-x="1187" 
d="M379 1059v-682q0 -103 37.5 -152t128.5 -49q71 0 146 34.5t120 76.5v772h236v-1059h-205l-17 117q-153 -140 -362 -140q-164 0 -242 89.5t-78 269.5v723h236zM291 1432h612v-170h-612v170z" />
    <glyph glyph-name="Ubreve" unicode="&#x16c;" horiz-adv-x="1456" 
d="M731 176q172 0 247 82.5t75 278.5v946h239v-971q0 -271 -150 -404t-423 -133q-289 0 -422 134t-133 409v965h239v-940q0 -192 78 -279.5t250 -87.5zM733 1741q72 0 112.5 32t53.5 111l162 -12q-13 -143 -100 -214t-236 -71q-291 0 -311 281l164 16q13 -78 49.5 -110.5
t105.5 -32.5z" />
    <glyph glyph-name="ubreve" unicode="&#x16d;" horiz-adv-x="1187" 
d="M379 1059v-682q0 -103 37.5 -152t128.5 -49q71 0 146 34.5t120 76.5v772h236v-1059h-205l-17 117q-153 -140 -362 -140q-164 0 -242 89.5t-78 269.5v723h236zM936 1491q-7 -159 -94.5 -240.5t-243.5 -81.5q-305 0 -317 318l163 18q10 -101 47.5 -141.5t114.5 -40.5
q82 0 122.5 39.5t47.5 140.5z" />
    <glyph glyph-name="Uring" unicode="&#x16e;" horiz-adv-x="1456" 
d="M731 176q172 0 247 82.5t75 278.5v946h239v-971q0 -271 -150 -404t-423 -133q-289 0 -422 134t-133 409v965h239v-940q0 -192 78 -279.5t250 -87.5zM954 1708q0 -101 -60.5 -157t-164.5 -56q-102 0 -163.5 54t-61.5 151q0 104 64.5 160.5t160.5 56.5q98 0 161.5 -54
t63.5 -155zM727 1606q100 0 100 104q0 98 -98 98q-46 0 -75 -26.5t-29 -75.5t27 -74.5t75 -25.5z" />
    <glyph glyph-name="uring" unicode="&#x16f;" horiz-adv-x="1187" 
d="M379 1059v-682q0 -103 37.5 -152t128.5 -49q71 0 146 34.5t120 76.5v772h236v-1059h-205l-17 117q-153 -140 -362 -140q-164 0 -242 89.5t-78 269.5v723h236zM821 1380q0 -98 -61 -153.5t-162 -55.5t-162 54t-61 147q0 103 64.5 160t158.5 57q97 0 160 -54t63 -155z
M596 1282q96 0 96 98q0 95 -94 95q-44 0 -71 -25.5t-27 -71.5q0 -96 96 -96z" />
    <glyph glyph-name="Uhungarumlaut" unicode="&#x170;" horiz-adv-x="1456" 
d="M731 176q172 0 247 82.5t75 278.5v946h239v-971q0 -271 -150 -404t-423 -133q-289 0 -422 134t-133 409v965h239v-940q0 -192 78 -279.5t250 -87.5zM483 1597l123 275h258l-219 -301zM764 1593l199 287h266l-299 -309z" />
    <glyph glyph-name="uhungarumlaut" unicode="&#x171;" horiz-adv-x="1187" 
d="M379 1059v-682q0 -103 37.5 -152t128.5 -49q71 0 146 34.5t120 76.5v772h236v-1059h-205l-17 117q-153 -140 -362 -140q-164 0 -242 89.5t-78 269.5v723h236zM354 1198l127 328h256l-225 -355zM641 1192l193 340h266l-295 -361z" />
    <glyph glyph-name="Uogonek" unicode="&#x172;" horiz-adv-x="1456" 
d="M1122 -295q-31 -86 -102 -133t-158 -47q-100 0 -158.5 49.5t-58.5 136.5q0 143 152 269q-63 -5 -78 -5q-289 0 -422 134t-133 409v965h239v-940q0 -192 78 -279.5t250 -87.5t247 82.5t75 278.5v946h239v-971q0 -176 -63.5 -290t-184.5 -195q-95 -65 -152.5 -137
t-57.5 -138q0 -76 71 -76q64 0 105 84z" />
    <glyph glyph-name="uogonek" unicode="&#x173;" horiz-adv-x="1187" 
d="M1139 -295q-31 -86 -102 -133t-158 -47q-100 0 -158.5 49.5t-58.5 136.5q0 156 180 289l-17 117q-153 -140 -362 -140q-164 0 -242 89.5t-78 269.5v723h236v-682q0 -103 37.5 -152t128.5 -49q71 0 146 34.5t120 76.5v772h236v-1059q-104 -74 -150.5 -129.5t-46.5 -118.5
q0 -76 72 -76q63 0 104 84z" />
    <glyph glyph-name="Wcircumflex" unicode="&#x174;" horiz-adv-x="1882" 
d="M948 1141h-4l-289 -1141h-305l-323 1483h252l235 -1217h4l301 1217h260l307 -1227h5l223 1227h239l-313 -1483h-305zM784 1571l-168 18l230 273h211l225 -273l-170 -14l-162 156z" />
    <glyph glyph-name="wcircumflex" unicode="&#x175;" horiz-adv-x="1599" 
d="M4 1059h238l231 -815h2l213 815h238l213 -811h2l225 811h229l-323 -1059h-271l-198 776h-4l-191 -776h-280zM805 1397l-170 -219l-168 14l223 338h228l223 -338l-166 -10z" />
    <glyph glyph-name="Ycircumflex" unicode="&#x176;" horiz-adv-x="1191" 
d="M487 0v567l-507 916h262l368 -688h4l357 688h241l-485 -912l2 -571h-242zM434 1571l-168 18l230 273h211l225 -273l-170 -14l-162 156z" />
    <glyph glyph-name="ycircumflex" unicode="&#x177;" horiz-adv-x="1028" 
d="M260 1059l260 -795h2l260 795h242q-208 -579 -442 -1194q-64 -175 -146.5 -248.5t-222.5 -73.5q-55 0 -115.5 12.5t-97.5 28.5l23 176q94 -32 165 -32q57 0 99 33.5t73 111.5l43 111l-397 1075h254zM522 1397l-170 -219l-168 14l224 338h227l223 -338l-166 -10z" />
    <glyph glyph-name="Ydieresis" unicode="&#x178;" horiz-adv-x="1191" 
d="M487 0v567l-507 916h262l368 -688h4l357 688h241l-485 -912l2 -571h-242zM524 1737q0 -67 -41 -105.5t-108 -38.5q-68 0 -110 38.5t-42 105.5q0 65 42 104t110 39q67 0 108 -39t41 -104zM975 1737q0 -67 -41.5 -105.5t-108.5 -38.5q-69 0 -110 38.5t-41 105.5
q0 66 41 104.5t110 38.5q67 0 108.5 -39t41.5 -104z" />
    <glyph glyph-name="Zacute" unicode="&#x179;" horiz-adv-x="1206" 
d="M1133 201v-201h-1070v172l756 1110h-735v201h1018v-178l-748 -1104h779zM420 1593l196 281h267l-291 -303z" />
    <glyph glyph-name="zacute" unicode="&#x17a;" horiz-adv-x="946" 
d="M897 193v-193h-838v168l551 706h-542v185h804v-170l-546 -696h571zM344 1192l180 336h267l-283 -357z" />
    <glyph glyph-name="Zdotaccent" unicode="&#x17b;" horiz-adv-x="1206" 
d="M1133 201v-201h-1070v172l756 1110h-735v201h1018v-178l-748 -1104h779zM735 1749q0 -73 -40.5 -114.5t-112.5 -41.5q-73 0 -113.5 41t-40.5 115q0 73 40 113.5t114 40.5q72 0 112.5 -40.5t40.5 -113.5z" />
    <glyph glyph-name="zdotaccent" unicode="&#x17c;" horiz-adv-x="946" 
d="M897 193v-193h-838v168l551 706h-542v185h804v-170l-546 -696h571zM627 1393q0 -75 -40.5 -115.5t-113.5 -40.5q-154 0 -154 156q0 73 40 113t114 40q72 0 113 -40t41 -113z" />
    <glyph glyph-name="Zcaron" unicode="&#x17d;" horiz-adv-x="1206" 
d="M1133 201v-201h-1070v172l756 1110h-735v201h1018v-178l-748 -1104h779zM748 1870l167 -19l-229 -272h-211l-225 272l170 15l162 -156z" />
    <glyph glyph-name="zcaron" unicode="&#x17e;" horiz-adv-x="946" 
d="M897 193v-193h-838v168l551 706h-542v185h804v-170l-546 -696h571zM475 1305l172 217l162 -15l-223 -336h-228l-223 336l174 13z" />
    <glyph glyph-name="longs" unicode="&#x17f;" horiz-adv-x="595" 
d="M145 0v1210q0 179 90 268t254 89q128 0 209 -37l-8 -170q-76 26 -145 26q-80 0 -122 -39.5t-42 -142.5v-1204h-236z" />
    <glyph glyph-name="uni0180" unicode="&#x180;" horiz-adv-x="1208" 
d="M674 -25q-154 0 -299 119h-4l-15 -94h-200v1180h-131v149h131v217h233v-217h375v-149h-375v-258q146 133 340 133q84 0 152.5 -28t122 -87t83 -160.5t29.5 -238.5q0 -145 -34 -255.5t-94.5 -177t-139.5 -100t-174 -33.5zM629 162q243 0 243 377q0 165 -53.5 247
t-173.5 82q-68 0 -138 -34t-116 -80v-496q125 -96 238 -96z" />
    <glyph glyph-name="uni0181" unicode="&#x181;" horiz-adv-x="1638" 
d="M512 1284h-31q-119 0 -182 -45.5t-63 -161.5q0 -57 12 -119l-207 -10q-6 13 -13.5 64.5t-7.5 95.5q0 184 125.5 279.5t339.5 95.5h572q128 0 218 -27t139 -78.5t70 -113.5t21 -144q0 -144 -82.5 -229.5t-212.5 -116.5v-6q351 -39 351 -365q0 -95 -30 -166t-81 -116
t-128.5 -72.5t-163.5 -38t-195 -10.5h-451v1284zM969 182q65 0 111.5 5t92.5 19.5t74 40t45 69t17 104.5q0 64 -20.5 110t-52 71.5t-83 40t-99.5 18.5t-116 4h-186v-482h217zM928 844q51 0 95 5.5t90 21.5t78.5 42t53.5 70t21 102q0 43 -8.5 76t-21.5 56t-38 38.5
t-49.5 24.5t-65.5 13.5t-75.5 5.5t-89.5 1h-166v-456h176z" />
    <glyph glyph-name="uni0186" unicode="&#x186;" horiz-adv-x="1419" 
d="M627 -25q-121 0 -219.5 30t-173.5 90.5t-119.5 159t-51.5 228.5l220 21q19 -171 101.5 -253.5t246.5 -82.5q214 0 332 147t118 433q0 298 -109.5 434.5t-322.5 136.5q-160 0 -246 -74.5t-120 -222.5l-211 39q14 98 55.5 176t98.5 128t131 83t149.5 47t157.5 14
q175 0 304 -52.5t207 -152t115 -234t37 -306.5q0 -368 -185 -578.5t-515 -210.5z" />
    <glyph glyph-name="uni0187" unicode="&#x187;" horiz-adv-x="1488" 
d="M758 -25q-176 0 -305.5 53.5t-207.5 154.5t-115.5 234.5t-37.5 303.5q0 367 184 577.5t504 210.5q273 0 391 -163v104q0 293 238 293q79 0 125 -27l-8 -162q-33 17 -72 17q-52 0 -74 -35t-22 -104v-431l-199 -18q-47 334 -368 334q-215 0 -334 -146t-119 -434
q0 -295 109.5 -433t322.5 -138q160 0 246.5 74.5t120.5 222.5l213 -39q-14 -98 -55.5 -175.5t-98.5 -128t-131 -84t-149.5 -47.5t-157.5 -14z" />
    <glyph glyph-name="uni0188" unicode="&#x188;" horiz-adv-x="1163" 
d="M559 -25q-128 0 -224 40t-155 113t-88 170t-29 218q0 272 135 417.5t373 145.5q171 0 256 -94v115q0 270 222 270q85 0 133 -27l-11 -161q-32 14 -75 14q-52 0 -71 -32t-19 -105v-354l-195 -27q-24 223 -229 223q-55 0 -100.5 -17t-86 -55t-63.5 -111t-23 -175
q0 -106 21 -183t59.5 -119t85 -61.5t103.5 -19.5q100 0 157 52t76 163l199 -39q-24 -182 -147 -271.5t-304 -89.5z" />
    <glyph glyph-name="uni0189" unicode="&#x189;" horiz-adv-x="1486" 
d="M178 670h-149v186h149v627h481q374 0 555 -188t181 -531q0 -173 -46 -311.5t-138.5 -240.5t-241 -157t-344.5 -55h-447v670zM623 195q268 0 397 141t129 405q0 156 -32.5 263t-99.5 169t-157.5 88.5t-218.5 26.5h-223v-432h401v-186h-401v-475h205z" />
    <glyph glyph-name="uni018A" unicode="&#x18a;" horiz-adv-x="1820" 
d="M512 1284h-23q-125 0 -189 -45t-64 -160q0 -59 12 -121l-207 -10q-21 66 -21 158q0 94 35.5 166.5t98.5 118t146 69t181 23.5h512q191 0 333 -49.5t230 -144.5t130.5 -225.5t42.5 -299.5q0 -173 -46.5 -311.5t-139 -240.5t-241 -157t-344.5 -55h-446v1284zM956 188
q268 0 397.5 143t129.5 410q0 157 -32.5 265t-99.5 171t-157.5 90t-218.5 27h-223v-1106h204z" />
    <glyph glyph-name="uni018E" unicode="&#x18e;" horiz-adv-x="1183" 
d="M80 195h686v454h-616v193h616v446h-655v195h895v-1483h-926v195z" />
    <glyph glyph-name="uni018F" unicode="&#x18f;" horiz-adv-x="1464" 
d="M696 -25q-78 0 -148 12t-140.5 39t-127.5 75.5t-101 115t-68.5 164t-24.5 217.5q0 124 12 213h1026q-3 269 -107 387.5t-298 118.5q-313 0 -391 -307l-215 43q22 114 79.5 202.5t140.5 143.5t183.5 82.5t214.5 27.5q168 0 292.5 -54t200 -154t112 -233t36.5 -300
q0 -377 -174.5 -585t-501.5 -208zM696 168q190 0 300 119.5t124 339.5h-807v-54q0 -211 102.5 -308t280.5 -97z" />
    <glyph glyph-name="uni0190" unicode="&#x190;" horiz-adv-x="1183" 
d="M586 -25q-240 0 -380 108t-140 308q0 84 26.5 152t73.5 113t104.5 73t124.5 41v6q-299 70 -299 336q0 178 132.5 287.5t353.5 109.5q104 0 185 -20.5t147 -67t108 -127t57 -194.5l-215 -39q-10 61 -26.5 104.5t-46.5 82.5t-80 59t-121 20q-123 0 -187.5 -59.5
t-64.5 -165.5q0 -121 90 -189.5t260 -68.5h100v-185h-149q-70 0 -125 -11.5t-102.5 -39.5t-73 -81t-25.5 -128q0 -116 80.5 -176.5t206.5 -60.5q72 0 127 21t89.5 59.5t54.5 83t32 100.5l219 -45q-30 -205 -169 -305.5t-367 -100.5z" />
    <glyph glyph-name="uni0191" unicode="&#x191;" horiz-adv-x="1126" 
d="M76 -463q-62 0 -132 15t-100 34l21 170q95 -37 168 -37q74 0 109.5 39.5t35.5 130.5v1594h893v-195h-653v-473h604v-192h-604v-748q0 -170 -88.5 -254t-253.5 -84z" />
    <glyph glyph-name="florin" unicode="&#x192;" horiz-adv-x="700" 
d="M78 -457q-61 0 -125 13.5t-94 31.5l20 170q82 -32 160 -32q65 0 101 36.5t36 124.5v1000h-151v172h151v153q0 179 90 267t254 88q128 0 209 -37l-8 -166q-79 27 -146 27q-79 0 -121 -40t-42 -143v-149h288v-172h-288v-1006q0 -173 -87 -255.5t-247 -82.5z" />
    <glyph glyph-name="uni0193" unicode="&#x193;" horiz-adv-x="1517" 
d="M723 -25q-130 0 -235 36t-178.5 101t-122.5 158t-72 205.5t-23 245.5q0 374 180.5 581t511.5 207q267 0 387 -166v127q0 273 236 273q81 0 127 -27l-8 -164q-37 19 -76 19q-50 0 -71 -33.5t-21 -101.5v-426l-201 -21q-21 155 -111.5 241.5t-252.5 86.5
q-218 0 -335.5 -151.5t-117.5 -424.5q0 -306 112.5 -442.5t323.5 -136.5q86 0 156 27.5t113.5 73.5t66.5 103.5t23 120.5v107h-347v176h578v-770h-176l-29 195q-43 -97 -165 -158.5t-273 -61.5z" />
    <glyph glyph-name="uni0194" unicode="&#x194;" horiz-adv-x="1259" 
d="M485 600l-460 883h266l346 -703l340 703h258l-467 -891l356 -592h-995zM786 160l-168 295l-169 -295h337z" />
    <glyph glyph-name="uni0196" unicode="&#x196;" horiz-adv-x="747" 
d="M483 -25q-159 0 -236 77.5t-77 238.5v1192h236v-1172q0 -77 30.5 -115t102.5 -38q75 0 129 32l39 -157q-90 -58 -224 -58z" />
    <glyph glyph-name="uni0197" unicode="&#x197;" horiz-adv-x="653" 
d="M18 868h189v615h239v-615h189v-188h-189v-680h-239v680h-189v188z" />
    <glyph glyph-name="uni0198" unicode="&#x198;" horiz-adv-x="1449" 
d="M745 856l584 -856h-280l-476 682l-155 -176v-506h-240v1483h240v-690l434 512q104 126 169 165t171 39q120 0 183 -63.5t75 -216.5l-168 -27q-12 115 -88 115q-38 0 -67.5 -26.5t-141.5 -155.5z" />
    <glyph glyph-name="uni0199" unicode="&#x199;" horiz-adv-x="1114" 
d="M147 1165q0 402 381 402q110 0 199 -33l-8 -166q-50 18 -133 18q-110 0 -156.5 -53t-46.5 -180v-530l412 436h264l-361 -383l387 -676h-258l-305 524l-139 -139v-385h-236v1165z" />
    <glyph glyph-name="uni019A" unicode="&#x19a;" horiz-adv-x="661" 
d="M23 868h188v615h240v-615h188v-188h-188v-680h-240v680h-188v188z" />
    <glyph glyph-name="uni019C" unicode="&#x19c;" horiz-adv-x="1949" 
d="M1772 2h-209l-13 121q-86 -67 -174.5 -105t-199.5 -38q-225 0 -293 151q-85 -71 -177 -111t-210 -40q-176 0 -255 94.5t-79 285.5v1123h241v-1090q0 -109 35.5 -162t134.5 -53q72 0 148.5 34t122.5 77q-4 46 -4 63v1131h243v-1094q0 -109 35 -160t133 -51q75 0 153 36
t126 81v1188h242v-1481z" />
    <glyph glyph-name="uni019D" unicode="&#x19d;" horiz-adv-x="1572" 
d="M104 -463q-61 0 -121.5 14.5t-91.5 34.5l21 170q95 -37 168 -37q74 0 109.5 39.5t35.5 130.5v1594h301l650 -1174v1174h219v-1483h-283l-666 1180v-1309q0 -168 -88.5 -251t-253.5 -83z" />
    <glyph glyph-name="uni019E" unicode="&#x19e;" horiz-adv-x="1193" 
d="M823 684q0 105 -41 155t-133 50q-72 0 -147 -36t-121 -79v-774h-236v1059h209l13 -121q169 141 364 141q170 0 249 -89t79 -271v-1153h-236v1118z" />
    <glyph glyph-name="uni019F" unicode="&#x19f;" horiz-adv-x="1556" 
d="M768 -25q-173 0 -304 56.5t-211.5 159.5t-120.5 240t-40 306q0 167 46 307.5t133.5 244t222.5 162t305 58.5q136 0 247 -37.5t188 -104.5t129.5 -160.5t76.5 -203t24 -235.5q0 -181 -43.5 -326t-129 -249.5t-218.5 -161t-305 -56.5zM793 1300q-186 0 -305 -114.5
t-142 -339.5h868q-20 227 -130 340.5t-291 113.5zM778 180q187 0 302.5 117.5t133.5 359.5h-872q18 -239 132.5 -358t303.5 -119z" />
    <glyph glyph-name="Ohorn" unicode="&#x1a0;" horiz-adv-x="1617" 
d="M768 -25q-139 0 -251 37t-190.5 104.5t-131.5 163t-78 210t-25 249.5q0 167 46 307t133.5 243.5t222.5 161.5t305 58q312 0 485 -192q89 12 107 61q18 52 18 154v98h180v-92q0 -159 -45 -239.5t-172 -108.5q92 -171 92 -422q0 -181 -43.5 -326t-129 -249.5t-218.5 -161
t-305 -56.5zM778 170q203 0 322 143.5t119 436.5q0 277 -113 421t-313 144t-326 -144q-127 -145 -127 -430q0 -283 117 -427t321 -144z" />
    <glyph glyph-name="ohorn" unicode="&#x1a1;" horiz-adv-x="1318" 
d="M588 -25q-136 0 -235 41t-155.5 117t-83 172.5t-26.5 218.5q0 262 134 408.5t392 146.5q270 0 390 -164q88 12 106 64q18 53 18 151v101h183v-94q0 -165 -50.5 -247t-191.5 -104q35 -95 35 -237q0 -272 -126 -423t-390 -151zM600 150q127 0 192.5 90t65.5 297
q0 202 -61 284t-191 82q-272 0 -272 -371q0 -201 64 -291.5t202 -90.5z" />
    <glyph glyph-name="uni01A4" unicode="&#x1a4;" horiz-adv-x="1605" 
d="M518 1284h-35q-53 0 -94 -9.5t-75.5 -31t-53 -62.5t-18.5 -100q0 -29 5 -74t5 -49l-205 -10q-20 68 -20 160q0 189 129 282t350 93h528q111 0 197.5 -24.5t141.5 -66t90.5 -100.5t50 -122.5t14.5 -137.5q0 -510 -574 -510h-198v-522h-238v1284zM934 711q63 0 111 7
t94.5 26.5t75.5 53t47 89t18 131.5q0 69 -16.5 118t-45.5 79.5t-78 48t-103.5 24t-131.5 6.5h-149v-583h178z" />
    <glyph glyph-name="uni01A5" unicode="&#x1a5;" horiz-adv-x="1198" 
d="M147 1212q0 185 72.5 270t231.5 85q119 0 202 -33l-10 -164q-52 21 -113 21q-168 0 -168 -166v-287q154 141 355 141q87 0 156 -28t123 -88t83 -163.5t29 -246.5q0 -151 -34.5 -265t-96.5 -181t-138.5 -99.5t-168.5 -32.5q-156 0 -291 107v-543h-232v1673zM618 162
q244 0 244 389q0 183 -54 263.5t-169 80.5q-69 0 -139 -35t-119 -82v-520q44 -35 107.5 -65.5t129.5 -30.5z" />
    <glyph glyph-name="uni01A9" unicode="&#x1a9;" horiz-adv-x="1200" 
d="M51 156l410 598l-391 569v160h1050v-195h-737l348 -512l-393 -581h782v-195h-1069v156z" />
    <glyph glyph-name="uni01AA" unicode="&#x1aa;" horiz-adv-x="1126" 
d="M846 -25q-152 0 -233 73.5t-81 244.5v696q-33 -33 -87.5 -53.5t-114.5 -20.5q-129 0 -215 82.5t-86 231.5q0 158 102 248t279 90q358 0 358 -400v-856q0 -74 30.5 -113.5t112.5 -39.5q81 0 181 49l36 -158q-7 -7 -41.5 -23t-103.5 -33.5t-137 -17.5zM373 1075
q60 0 110 29q45 26 52 37q3 82 -7.5 136.5t-44.5 88t-92 33.5q-74 0 -116 -44.5t-42 -117.5q0 -72 36.5 -117t103.5 -45z" />
    <glyph glyph-name="uni01AC" unicode="&#x1ac;" horiz-adv-x="1376" 
d="M674 1284h-195q-252 0 -252 -194q0 -65 13 -132l-205 -10q-23 71 -23 164q0 127 62 212t163.5 122t239.5 37h877v-199h-441v-1284h-239v1284z" />
    <glyph glyph-name="uni01AD" unicode="&#x1ad;" horiz-adv-x="802" 
d="M504 -25q-158 0 -237 76.5t-79 239.5v596h-161v172h161v153q0 182 81 268.5t243 86.5q120 0 203 -33l-10 -166q-55 25 -123 25q-158 0 -158 -168v-166h287v-172h-287v-568q0 -85 29.5 -123t111.5 -38q45 0 95 14.5t85 34.5l39 -158q-42 -29 -121 -51.5t-159 -22.5z" />
    <glyph glyph-name="uni01AE" unicode="&#x1ae;" horiz-adv-x="1169" 
d="M809 -463q-165 0 -253.5 84t-88.5 254v1409h-444v199h1124v-199h-440v-1401q1 -86 37.5 -125t107.5 -39q73 0 168 37l18 -170q-33 -19 -100.5 -34t-128.5 -15z" />
    <glyph glyph-name="Uhorn" unicode="&#x1af;" horiz-adv-x="1632" 
d="M719 -25q-289 0 -422 133.5t-133 407.5v967h239v-944q0 -195 78 -282t250 -87t247 83t75 279v951h239v-168q40 5 66.5 16t42.5 25.5t23.5 43t9.5 56t2 76.5v98h180v-92q0 -94 -13.5 -155.5t-49 -108.5t-99 -69.5t-162.5 -26.5v-668q0 -270 -150 -402.5t-423 -132.5z" />
    <glyph glyph-name="uhorn" unicode="&#x1b0;" horiz-adv-x="1386" 
d="M463 -23q-164 0 -242 90t-78 269v723h236v-684q0 -104 37.5 -154.5t128.5 -50.5q71 0 146 36t120 77v776h236v-146q40 4 66.5 14.5t42 25t23 43.5t9.5 57t2 77v101h180v-94q0 -94 -13 -155.5t-48.5 -108t-99 -69t-162.5 -26.5v-778h-205l-17 127q-164 -150 -362 -150z
" />
    <glyph glyph-name="uni01B1" unicode="&#x1b1;" horiz-adv-x="1622" 
d="M791 -25q-145 0 -262.5 38t-194 100.5t-128.5 147.5t-74.5 175t-22.5 187q0 99 22 186.5t68 166.5t124.5 141.5t184.5 99.5v79h-354v189h557v-375q-346 -79 -346 -473q0 -203 115.5 -335t320.5 -132q96 0 173 26t128.5 70.5t86 107t49.5 132t15 147.5q0 191 -95 306
t-251 151v375h555v-189h-352v-77q179 -55 289 -204t110 -368q0 -108 -26 -206t-83 -183.5t-140 -148t-203 -98.5t-266 -36z" />
    <glyph glyph-name="uni01B2" unicode="&#x1b2;" horiz-adv-x="1431" 
d="M602 -25q-438 0 -438 498v1010h239v-953q0 -192 48 -276t165 -84t211 69.5t150 182t85.5 244t29.5 266.5q0 118 -14.5 196.5t-45 122t-71 61t-99.5 17.5q-79 0 -153 -24l-11 172q28 12 92 23t123 11q216 0 314 -145t98 -424q0 -274 -89.5 -494t-255 -346.5t-378.5 -126.5
z" />
    <glyph glyph-name="uni01B3" unicode="&#x1b3;" horiz-adv-x="1325" 
d="M487 557l-507 926h262l366 -697l189 461q58 142 127.5 202t195.5 60q120 0 183 -63.5t75 -216.5l-168 -27q-12 115 -88 115q-43 0 -72 -32t-65 -116l-256 -618v-551h-242v557z" />
    <glyph glyph-name="uni01B4" unicode="&#x1b4;" horiz-adv-x="1347" 
d="M823 1147q50 150 127.5 220.5t200.5 70.5q128 0 192 -63t76 -216l-168 -29q-12 117 -88 117q-45 0 -76.5 -34t-60.5 -115l-418 -1168q-36 -104 -69 -170.5t-78 -118.5t-103.5 -75t-138.5 -23q-112 0 -219 41l23 170q111 -33 165 -33q73 0 122 59t93 204l-397 1075h254
l258 -811h2z" />
    <glyph glyph-name="uni01B5" unicode="&#x1b5;" horiz-adv-x="1206" 
d="M63 166l349 518h-246v184h371l282 420h-731v195h1014v-172l-297 -443h227v-184h-350l-328 -489h779v-195h-1070v166z" />
    <glyph glyph-name="uni01B6" unicode="&#x1b6;" horiz-adv-x="946" 
d="M59 158l238 313h-170v168h299l184 244h-542v176h804v-162l-206 -268h139v-166h-266l-213 -281h571v-182h-838v158z" />
    <glyph glyph-name="uni01B7" unicode="&#x1b7;" horiz-adv-x="1214" 
d="M528 -502q-221 0 -361 108.5t-169 315.5l225 41q10 -54 31.5 -100t58 -86t95 -63t133.5 -23q74 0 134 22.5t100.5 62t68 95.5t39.5 121t12 141q0 182 -93.5 287.5t-293.5 105.5q-82 0 -160 -12v176l459 598h-698v195h983v-170l-492 -623q132 3 236 -37.5t169.5 -115.5
t99.5 -175.5t34 -220.5q0 -109 -22 -204t-70 -176t-118.5 -139t-173 -91t-227.5 -33z" />
    <glyph glyph-name="uni01B8" unicode="&#x1b8;" horiz-adv-x="1214" 
d="M678 -502q-152 0 -269.5 49t-189 135.5t-107.5 198t-36 242.5q0 125 34 229t99.5 181t169 118.5t235.5 38.5l-489 623v170h981v-195h-696l462 -598v-176q-82 12 -163 12q-201 0 -294 -106.5t-93 -294.5q0 -127 35.5 -222.5t114.5 -153.5t194 -58q78 0 139 23t98 63
t58.5 86t29.5 100l221 -41q-26 -208 -165.5 -316t-368.5 -108z" />
    <glyph glyph-name="uni01B9" unicode="&#x1b9;" horiz-adv-x="976" 
d="M555 -463q-232 0 -363 127t-131 340q0 131 45.5 228t143.5 152.5t239 51.5l-378 461v162h757v-176h-501l366 -447v-162q-96 15 -180 15q-122 0 -191 -73t-69 -202q0 -140 64.5 -217.5t195.5 -77.5q183 0 215 187l199 -39q-25 -159 -128 -244.5t-284 -85.5z" />
    <glyph glyph-name="uni01C0" unicode="&#x1c0;" horiz-adv-x="595" 
d="M178 1546h240v-1792h-240v1792z" />
    <glyph glyph-name="uni01C1" unicode="&#x1c1;" horiz-adv-x="1021" 
d="M623 1546h239v-1792h-239v1792zM178 1546h240v-1792h-240v1792z" />
    <glyph glyph-name="uni01C2" unicode="&#x1c2;" horiz-adv-x="694" 
d="M39 555h188v276h-188v189h188v526h240v-526h188v-189h-188v-276h188v-188h-188v-613h-240v613h-188v188z" />
    <glyph glyph-name="uni01C3" unicode="&#x1c3;" horiz-adv-x="520" 
d="M154 1546h213v-966h-213v966zM154 326h213v-326h-213v326z" />
    <glyph glyph-name="uni01C4" unicode="&#x1c4;" horiz-adv-x="2639" 
d="M178 1483h481q374 0 555 -188t181 -531q0 -173 -46 -311.5t-138.5 -240.5t-241 -157t-344.5 -55h-447v1483zM623 195q268 0 397 141t129 405q0 156 -32.5 263t-99.5 169t-157.5 88.5t-218.5 26.5h-223v-1093h205zM2566 201v-201h-1069v172l756 1110h-735v201h1017v-178
l-747 -1104h778zM1683 1927l175 12l163 -219l172 222l162 -15l-221 -336h-227z" />
    <glyph glyph-name="uni01C5" unicode="&#x1c5;" horiz-adv-x="2430" 
d="M178 1483h481q374 0 555 -188t181 -531q0 -173 -46 -311.5t-138.5 -240.5t-241 -157t-344.5 -55h-447v1483zM623 195q268 0 397 141t129 405q0 156 -32.5 263t-99.5 169t-157.5 88.5t-218.5 26.5h-223v-1093h205zM2384 193v-193h-838v168l551 706h-543v185h805v-170
l-547 -696h572zM1960 1305l172 217l162 -15l-223 -336h-228l-223 336l174 13z" />
    <glyph glyph-name="uni01C6" unicode="&#x1c6;" horiz-adv-x="2138" 
d="M856 0l-16 106h-4q-138 -131 -334 -131q-192 0 -301 130.5t-109 406.5q0 122 24.5 220t66.5 162t100 107t121.5 61.5t134.5 18.5q175 0 284 -92v557h230v-1546h-197zM817 807q-40 32 -100.5 57t-128.5 25q-88 0 -145.5 -48.5t-82 -130t-24.5 -196.5q0 -175 58.5 -261.5
t183.5 -86.5q65 0 129.5 30.5t109.5 77.5v533zM2089 193v-193h-838v168l551 706h-542v185h804v-170l-546 -696h571zM1663 1305l172 217l162 -15l-223 -336h-228l-223 336l174 13z" />
    <glyph glyph-name="uni01C7" unicode="&#x1c7;" horiz-adv-x="2170" 
d="M1073 203v-203h-895v1483h240v-1280h655zM2007 1483v-1094q0 -414 -432 -414q-191 0 -295.5 89.5t-114.5 285.5l232 37q10 -109 47 -161t137 -52q93 0 139.5 44.5t46.5 164.5v1100h240z" />
    <glyph glyph-name="uni01C9" unicode="&#x1c9;" horiz-adv-x="1046" 
d="M150 0v1546h235v-1546h-235zM578 -457q-62 0 -126 14t-94 33l21 181q90 -35 160 -35q137 0 137 164v1159h235v-1174q0 -175 -87 -258.5t-246 -83.5zM950 1403q0 -73 -40.5 -114.5t-112.5 -41.5q-73 0 -113.5 41t-40.5 115q0 156 154 156q72 0 112.5 -40.5t40.5 -115.5z
" />
    <glyph glyph-name="uni01CA" unicode="&#x1ca;" horiz-adv-x="2572" 
d="M399 1165v-1165h-221v1483h301l649 -1159v1159h220v-1483h-283zM2410 1483v-1094q0 -414 -432 -414q-191 0 -295 89.5t-114 285.5l231 37q10 -109 47.5 -161t137.5 -52q93 0 139.5 44.5t46.5 164.5v1100h239z" />
    <glyph glyph-name="uni01CB" unicode="&#x1cb;" horiz-adv-x="2048" 
d="M399 1165v-1165h-221v1483h301l649 -1159v1159h220v-1483h-283zM1577 -457q-62 0 -125.5 14t-93.5 33l20 181q90 -35 160 -35q137 0 137 164v1159h236v-1174q0 -175 -87.5 -258.5t-246.5 -83.5zM1950 1403q0 -73 -41 -114.5t-113 -41.5q-73 0 -113.5 41t-40.5 115
q0 156 154 156q72 0 113 -40.5t41 -115.5z" />
    <glyph glyph-name="uni01CC" unicode="&#x1cc;" horiz-adv-x="1714" 
d="M823 0v682q0 102 -41 152.5t-133 50.5q-72 0 -147 -35.5t-121 -77.5v-772h-236v1059h209l11 -111q168 133 366 133q170 0 249 -89t79 -271v-721h-236zM1245 -457q-62 0 -125.5 14t-93.5 33l21 181q90 -35 159 -35q137 0 137 164v1159h236v-1174q0 -175 -87.5 -258.5
t-246.5 -83.5zM1618 1403q0 -73 -41 -114.5t-113 -41.5q-73 0 -113 41t-40 115q0 156 153 156q72 0 113 -40.5t41 -115.5z" />
    <glyph glyph-name="uni01CD" unicode="&#x1cd;" horiz-adv-x="1421" 
d="M1370 0h-262l-139 406h-539l-135 -406h-244l494 1483h305zM694 1262l-217 -656h436l-215 656h-4zM866 1870l168 -19l-229 -272h-211l-225 272l170 15l161 -156z" />
    <glyph glyph-name="uni01CE" unicode="&#x1ce;" horiz-adv-x="1120" 
d="M954 223q0 -44 13.5 -63t50.5 -19q19 0 63 13l9 -140q-77 -34 -166 -34q-80 0 -122.5 30.5t-56.5 93.5q-56 -60 -142.5 -94.5t-192.5 -34.5q-76 0 -134.5 20t-91.5 50t-54 70.5t-27.5 75t-6.5 69.5q0 99 40.5 172t113.5 114t163 60t201 19q55 0 109 -4v79
q0 106 -37 154.5t-147 48.5q-93 0 -135 -38t-60 -126l-207 37q25 152 127 228.5t293 76.5q205 0 301 -86.5t96 -281.5v-490zM725 459q-36 4 -98 4q-54 0 -96.5 -5t-91 -21t-76 -52.5t-27.5 -91.5q0 -141 158 -141q67 0 129.5 28.5t101.5 69.5v209zM551 1305l172 217l162 -15
l-223 -336h-228l-223 336l174 13z" />
    <glyph glyph-name="uni01CF" unicode="&#x1cf;" horiz-adv-x="595" 
d="M178 0v1483h240v-1483h-240zM461 1870l168 -19l-230 -272h-211l-225 272l170 15l162 -156z" />
    <glyph glyph-name="uni01D0" unicode="&#x1d0;" horiz-adv-x="526" 
d="M150 0v1059h235v-1059h-235zM-72 1507l174 13l164 -220l172 222l162 -15l-221 -336h-227z" />
    <glyph glyph-name="uni01D1" unicode="&#x1d1;" horiz-adv-x="1556" 
d="M768 -25q-173 0 -304 56.5t-211.5 159.5t-120.5 240t-40 306q0 167 46 307.5t133.5 244t222.5 162t305 58.5q136 0 247 -37.5t188 -104.5t129.5 -160.5t76.5 -203t24 -235.5q0 -181 -43.5 -326t-129 -249.5t-218.5 -161t-305 -56.5zM778 180q203 0 322 140.5t119 427.5
q0 276 -112.5 414t-313.5 138t-326 -137q-127 -139 -127 -422q0 -280 116.5 -420.5t321.5 -140.5zM961 1870l167 -19l-229 -272h-211l-225 272l170 15l162 -156z" />
    <glyph glyph-name="uni01D2" unicode="&#x1d2;" horiz-adv-x="1191" 
d="M588 -25q-136 0 -235 41t-155.5 117t-83 172.5t-26.5 218.5q0 262 134 409.5t392 147.5q129 0 224.5 -38.5t153 -110t85 -167t27.5 -216.5q0 -272 -126 -423t-390 -151zM600 158q126 0 192 90.5t66 288.5q0 192 -61.5 273t-190.5 81q-272 0 -272 -359q0 -192 64.5 -283
t201.5 -91zM610 1305l172 217l162 -15l-223 -336h-227l-224 336l174 13z" />
    <glyph glyph-name="uni01D3" unicode="&#x1d3;" horiz-adv-x="1456" 
d="M731 176q172 0 247 82.5t75 278.5v946h239v-971q0 -271 -150 -404t-423 -133q-289 0 -422 134t-133 409v965h239v-940q0 -192 78 -279.5t250 -87.5zM895 1870l168 -19l-229 -272h-211l-226 272l170 15l162 -156z" />
    <glyph glyph-name="uni01D4" unicode="&#x1d4;" horiz-adv-x="1187" 
d="M379 1059v-682q0 -103 37.5 -152t128.5 -49q71 0 146 34.5t120 76.5v772h236v-1059h-205l-17 117q-153 -140 -362 -140q-164 0 -242 89.5t-78 269.5v723h236zM600 1305l172 217l162 -15l-223 -336h-228l-223 336l174 13z" />
    <glyph glyph-name="uni01D5" unicode="&#x1d5;" horiz-adv-x="1456" 
d="M731 176q172 0 247 82.5t75 278.5v946h239v-971q0 -271 -150 -404t-423 -133q-289 0 -422 134t-133 409v965h239v-940q0 -192 78 -279.5t250 -87.5zM655 1737q0 -67 -41 -105.5t-108 -38.5q-68 0 -110 38.5t-42 105.5q0 65 42 104t110 39q67 0 108 -39t41 -104z
M1106 1737q0 -67 -41.5 -105.5t-108.5 -38.5q-69 0 -110 38.5t-41 105.5q0 66 41 104.5t110 38.5q67 0 108.5 -39t41.5 -104zM410 2165h637v-170h-637v170z" />
    <glyph glyph-name="uni01D6" unicode="&#x1d6;" horiz-adv-x="1187" 
d="M379 1059v-682q0 -103 37.5 -152t128.5 -49q71 0 146 34.5t120 76.5v772h236v-1059h-205l-17 117q-153 -140 -362 -140q-164 0 -242 89.5t-78 269.5v723h236zM524 1382q0 -67 -41 -106t-108 -39q-68 0 -110 39t-42 106q0 66 42 105t110 39q67 0 108 -39.5t41 -104.5z
M975 1382q0 -67 -41.5 -106t-108.5 -39q-69 0 -110 39t-41 106q0 66 41 105t110 39q67 0 108.5 -39.5t41.5 -104.5zM283 1815h637v-170h-637v170z" />
    <glyph glyph-name="uni01D7" unicode="&#x1d7;" horiz-adv-x="1456" 
d="M731 176q172 0 247 82.5t75 278.5v946h239v-971q0 -271 -150 -404t-423 -133q-289 0 -422 134t-133 409v965h239v-940q0 -192 78 -279.5t250 -87.5zM655 1737q0 -67 -41 -105.5t-108 -38.5q-68 0 -110 38.5t-42 105.5q0 65 42 104t110 39q67 0 108 -39t41 -104z
M1106 1737q0 -67 -41.5 -105.5t-108.5 -38.5q-69 0 -110 38.5t-41 105.5q0 66 41 104.5t110 38.5q67 0 108.5 -39t41.5 -104zM563 1991l197 280h266l-291 -303z" />
    <glyph glyph-name="uni01D8" unicode="&#x1d8;" horiz-adv-x="1187" 
d="M379 1059v-682q0 -103 37.5 -152t128.5 -49q71 0 146 34.5t120 76.5v772h236v-1059h-205l-17 117q-153 -140 -362 -140q-164 0 -242 89.5t-78 269.5v723h236zM524 1382q0 -67 -41 -106t-108 -39q-68 0 -110 39t-42 106q0 66 42 105t110 39q67 0 108 -39.5t41 -104.5z
M975 1382q0 -67 -41.5 -106t-108.5 -39q-69 0 -110 39t-41 106q0 66 41 105t110 39q67 0 108.5 -39.5t41.5 -104.5zM438 1649l197 280h266l-291 -303z" />
    <glyph glyph-name="uni01D9" unicode="&#x1d9;" horiz-adv-x="1456" 
d="M731 176q172 0 247 82.5t75 278.5v946h239v-971q0 -271 -150 -404t-423 -133q-289 0 -422 134t-133 409v965h239v-940q0 -192 78 -279.5t250 -87.5zM655 1737q0 -67 -41 -105.5t-108 -38.5q-68 0 -110 38.5t-42 105.5q0 65 42 104t110 39q67 0 108 -39t41 -104z
M1106 1737q0 -67 -41.5 -105.5t-108.5 -38.5q-69 0 -110 38.5t-41 105.5q0 66 41 104.5t110 38.5q67 0 108.5 -39t41.5 -104zM895 2255l168 -19l-229 -272h-211l-226 272l170 15l162 -156z" />
    <glyph glyph-name="uni01DA" unicode="&#x1da;" horiz-adv-x="1187" 
d="M379 1059v-682q0 -103 37.5 -152t128.5 -49q71 0 146 34.5t120 76.5v772h236v-1059h-205l-17 117q-153 -140 -362 -140q-164 0 -242 89.5t-78 269.5v723h236zM524 1382q0 -67 -41 -106t-108 -39q-68 0 -110 39t-42 106q0 66 42 105t110 39q67 0 108 -39.5t41 -104.5z
M975 1382q0 -67 -41.5 -106t-108.5 -39q-69 0 -110 39t-41 106q0 66 41 105t110 39q67 0 108.5 -39.5t41.5 -104.5zM764 1917l168 -19l-230 -272h-210l-226 272l170 15l162 -156z" />
    <glyph glyph-name="uni01DB" unicode="&#x1db;" horiz-adv-x="1456" 
d="M678 2267l194 -280l-172 -23l-290 303h268zM1106 1737q0 -67 -41.5 -105.5t-108.5 -38.5q-69 0 -110 38.5t-41 105.5q0 66 41 104.5t110 38.5q67 0 108.5 -39t41.5 -104zM655 1737q0 -67 -41 -105.5t-108 -38.5q-68 0 -110 38.5t-42 105.5q0 65 42 104t110 39
q67 0 108 -39t41 -104zM403 1483v-940q0 -192 78 -279.5t250 -87.5t247 82.5t75 278.5v946h239v-971q0 -271 -150 -404t-423 -133q-289 0 -422 134t-133 409v965h239z" />
    <glyph glyph-name="uni01DC" unicode="&#x1dc;" horiz-adv-x="1187" 
d="M553 1901l195 -281l-173 -23l-290 304h268zM975 1382q0 -67 -41.5 -106t-108.5 -39q-69 0 -110 39t-41 106q0 66 41 105t110 39q67 0 108.5 -39.5t41.5 -104.5zM524 1382q0 -67 -41 -106t-108 -39q-68 0 -110 39t-42 106q0 66 42 105t110 39q67 0 108 -39.5t41 -104.5z
M379 1059v-682q0 -103 37.5 -152t128.5 -49q71 0 146 34.5t120 76.5v772h236v-1059h-205l-17 117q-153 -140 -362 -140q-164 0 -242 89.5t-78 269.5v723h236z" />
    <glyph glyph-name="uni01DD" unicode="&#x1dd;" horiz-adv-x="1120" 
d="M526 -25q-149 0 -248.5 61.5t-143.5 165t-44 244.5q5 105 8 123h684q-3 180 -71 253t-195 73q-96 0 -146.5 -42.5t-70.5 -127.5l-199 43q30 150 144 230.5t288 80.5q112 0 199 -30t143 -80.5t92 -122t51 -149.5t15 -169q0 -140 -40 -248t-110 -173.5t-160 -98.5t-196 -33
zM541 147q98 0 167 68.5t72 208.5h-446q-6 -277 207 -277z" />
    <glyph glyph-name="uni01DE" unicode="&#x1de;" horiz-adv-x="1421" 
d="M1370 0h-262l-139 406h-539l-135 -406h-244l494 1483h305zM694 1262l-217 -656h436l-215 656h-4zM625 1737q0 -67 -41.5 -105.5t-108.5 -38.5q-68 0 -109.5 38.5t-41.5 105.5q0 66 41.5 104.5t109.5 38.5q67 0 108.5 -39t41.5 -104zM1075 1737q0 -67 -41 -105.5
t-108 -38.5q-70 0 -111 38.5t-41 105.5q0 66 41.5 104.5t110.5 38.5q67 0 108 -39t41 -104zM383 2154h637v-169h-637v169z" />
    <glyph glyph-name="uni01DF" unicode="&#x1df;" horiz-adv-x="1120" 
d="M954 223q0 -44 13.5 -63t50.5 -19q19 0 63 13l9 -140q-77 -34 -166 -34q-80 0 -122.5 30.5t-56.5 93.5q-56 -60 -142.5 -94.5t-192.5 -34.5q-76 0 -134.5 20t-91.5 50t-54 70.5t-27.5 75t-6.5 69.5q0 99 40.5 172t113.5 114t163 60t201 19q55 0 109 -4v79
q0 106 -37 154.5t-147 48.5q-93 0 -135 -38t-60 -126l-207 37q25 152 127 228.5t293 76.5q205 0 301 -86.5t96 -281.5v-490zM725 459q-36 4 -98 4q-54 0 -96.5 -5t-91 -21t-76 -52.5t-27.5 -91.5q0 -141 158 -141q67 0 129.5 28.5t101.5 69.5v209zM475 1382q0 -67 -41 -106
t-108 -39q-68 0 -110 39t-42 106q0 66 42 105t110 39q67 0 108 -39.5t41 -104.5zM926 1382q0 -67 -41.5 -106t-108.5 -39q-69 0 -110 39t-41 106q0 66 41 105t110 39q67 0 108.5 -39.5t41.5 -104.5zM233 1821h637v-170h-637v170z" />
    <glyph glyph-name="uni01E0" unicode="&#x1e0;" horiz-adv-x="1421" 
d="M1370 0h-262l-139 406h-539l-135 -406h-244l494 1483h305zM694 1262l-217 -656h436l-215 656h-4zM854 1741q0 -73 -41 -114.5t-113 -41.5q-73 0 -113 41t-40 115q0 73 39.5 113t113.5 40q72 0 113 -40t41 -113zM387 2159h637v-170h-637v170z" />
    <glyph glyph-name="uni01E1" unicode="&#x1e1;" horiz-adv-x="1120" 
d="M954 223q0 -44 13.5 -63t50.5 -19q19 0 63 13l9 -140q-77 -34 -166 -34q-80 0 -122.5 30.5t-56.5 93.5q-56 -60 -142.5 -94.5t-192.5 -34.5q-76 0 -134.5 20t-91.5 50t-54 70.5t-27.5 75t-6.5 69.5q0 99 40.5 172t113.5 114t163 60t201 19q55 0 109 -4v79
q0 106 -37 154.5t-147 48.5q-93 0 -135 -38t-60 -126l-207 37q25 152 127 228.5t293 76.5q205 0 301 -86.5t96 -281.5v-490zM725 459q-36 4 -98 4q-54 0 -96.5 -5t-91 -21t-76 -52.5t-27.5 -91.5q0 -141 158 -141q67 0 129.5 28.5t101.5 69.5v209zM702 1397
q0 -75 -40.5 -115.5t-112.5 -40.5q-154 0 -154 156q0 73 40 113t114 40q72 0 112.5 -40t40.5 -113zM233 1868h637v-170h-637v170z" />
    <glyph glyph-name="uni01E2" unicode="&#x1e2;" horiz-adv-x="2048" 
d="M1958 201v-201h-928v625h-412l-325 -625h-246l774 1483h1106v-201h-655v-457h616v-196h-616v-428h686zM946 1282l-248 -463h332v463h-84zM1047 1788h636v-170h-636v170z" />
    <glyph glyph-name="uni01E3" unicode="&#x1e3;" horiz-adv-x="1742" 
d="M1210 -25q-263 0 -385 160q-155 -160 -411 -160q-77 0 -136 20.5t-92.5 50.5t-54.5 70.5t-28 75.5t-7 70q0 100 37 171t108 111.5t160 60t207 22.5q53 0 115 -4v69q0 108 -38 159.5t-148 51.5q-93 0 -139 -39t-60 -125l-201 37q47 305 406 305q134 0 207.5 -38.5
t115.5 -124.5q129 163 369 163q209 0 312.5 -127t103.5 -346q0 -100 -6 -139h-687q3 -87 22.5 -146.5t56 -92.5t81.5 -46.5t107 -13.5q96 0 147 42t72 128l203 -47q-32 -149 -148 -233.5t-289 -84.5zM496 150q72 0 142.5 30t121.5 84q-26 72 -37 207h-98q-289 0 -289 -178
q0 -64 37 -103.5t123 -39.5zM1407 633q9 264 -205 264q-98 0 -167 -67t-72 -197h444zM592 1432h612v-170h-612v170z" />
    <glyph glyph-name="uni01E4" unicode="&#x1e4;" horiz-adv-x="1515" 
d="M797 465h336q2 10 2 29v96h-347v180h578v-305h158v-148h-158v-317h-176l-29 193q-43 -96 -165.5 -157t-272.5 -61q-130 0 -235 36t-178.5 101t-122.5 158t-72 205.5t-23 245.5q0 371 185.5 579.5t519.5 208.5q120 0 217 -28.5t172 -88t120 -157.5t54 -231l-223 -25
q-14 163 -97 245.5t-249 82.5q-219 0 -335 -147t-116 -417q0 -155 30 -265.5t88 -176t136 -95.5t182 -30t182 38t123 103h-284v148z" />
    <glyph glyph-name="uni01E5" unicode="&#x1e5;" horiz-adv-x="1181" 
d="M1034 0q0 -45 -2 -68h150v-135h-178q-91 -254 -465 -254q-383 0 -430 273l210 57q20 -79 73 -118.5t153 -39.5q154 0 211 82h-252v135h295q2 16 2 56v116q-140 -120 -320 -120q-191 0 -299 131t-108 405q0 119 25 215t67 159.5t100.5 105.5t122 60.5t133.5 18.5
q189 0 295 -106l19 86h198v-1059zM559 168q65 0 129.5 32.5t112.5 80.5v522q-43 36 -104.5 63t-127.5 27q-250 0 -250 -377q0 -172 57 -260t183 -88z" />
    <glyph glyph-name="Gcaron" unicode="&#x1e6;" horiz-adv-x="1509" 
d="M1161 193q-43 -96 -165.5 -157t-272.5 -61q-130 0 -235 36t-178.5 101t-122.5 158t-72 205.5t-23 245.5q0 371 185.5 579.5t519.5 208.5q120 0 217 -28.5t172 -88t120 -157.5t54 -231l-223 -25q-14 163 -97 245.5t-249 82.5q-219 0 -335 -147t-116 -417q0 -155 30 -265.5
t88 -176t136 -95.5t182 -30q86 0 156 27t113.5 72t66.5 101.5t23 117.5v96h-347v180h578v-770h-176zM950 1870l168 -19l-229 -272h-211l-225 272l170 15l161 -156z" />
    <glyph glyph-name="gcaron" unicode="&#x1e7;" horiz-adv-x="1136" 
d="M555 1081q201 0 297 -84q62 140 176 140q44 0 84 -13v-157q-105 6 -197 -21q46 -46 70.5 -111t24.5 -133q0 -175 -127 -275.5t-326 -100.5q-108 0 -184 22q-21 -14 -36 -38t-15 -46q0 -30 23 -47.5t85 -21.5l311 -19q176 -11 264.5 -73.5t88.5 -202.5q0 -100 -45 -172.5
t-124.5 -113t-173.5 -59t-206 -18.5q-114 0 -201.5 15t-141.5 39.5t-88.5 59.5t-47.5 71t-13 79q0 80 48 133t128 80v6q-125 44 -125 160q0 45 24 87t51 67.5t75 62.5q-71 43 -113.5 119.5t-42.5 173.5q0 174 123.5 282.5t333.5 108.5zM788 700q0 98 -59.5 148.5
t-167.5 50.5q-106 0 -169.5 -48t-63.5 -146q0 -199 231 -199q104 0 166.5 52t62.5 142zM852 -147q0 54 -33.5 82t-124.5 32l-334 19q-88 -62 -88 -144q0 -65 64.5 -97t210.5 -32q305 0 305 140zM557 1305l172 217l162 -15l-223 -336h-228l-223 336l174 13z" />
    <glyph glyph-name="uni01E8" unicode="&#x1e8;" horiz-adv-x="1341" 
d="M1047 1483h260l-566 -629l580 -854h-281l-467 670l-155 -168v-502h-240v1483h240v-692zM854 1870l168 -19l-229 -272h-211l-226 272l170 15l162 -156z" />
    <glyph glyph-name="uni01E9" unicode="&#x1e9;" horiz-adv-x="1114" 
d="M795 1059h264l-361 -381l387 -678h-258l-305 522l-139 -137v-385h-236v1546h236v-915zM432 1890l168 -18l-229 -273h-211l-226 273l170 14l162 -155z" />
    <glyph glyph-name="uni01EA" unicode="&#x1ea;" horiz-adv-x="1556" 
d="M825 -475q-100 0 -158.5 50.5t-58.5 137.5q0 135 150 262q-170 1 -299.5 58.5t-208.5 160.5t-118.5 240t-39.5 305q0 167 46 307t133.5 243.5t222.5 161.5t305 58q136 0 247 -37.5t188 -104.5t129.5 -160.5t76.5 -203t24 -235.5q0 -314 -129 -516t-379 -258
q-85 -80 -123 -132t-38 -112q0 -74 71 -74q67 0 107 82l112 -55q-31 -85 -103 -131.5t-157 -46.5zM778 170q203 0 322 143.5t119 436.5q0 277 -113 421t-313 144t-326 -144q-127 -145 -127 -430q0 -283 117 -427t321 -144z" />
    <glyph glyph-name="uni01EB" unicode="&#x1eb;" horiz-adv-x="1191" 
d="M621 -475q-100 0 -159 50.5t-59 137.5q0 135 150 262q-465 22 -465 549q0 262 134 408.5t392 146.5q129 0 224.5 -38.5t153 -110t85 -166.5t27.5 -215q0 -225 -86 -368.5t-266 -186.5q-59 -58 -85.5 -86.5t-50.5 -72t-24 -85.5q0 -74 72 -74q66 0 106 82l111 -55
q-31 -85 -101.5 -131.5t-158.5 -46.5zM600 150q127 0 192.5 90t65.5 297q0 202 -61 284t-191 82q-272 0 -272 -371q0 -201 64 -291.5t202 -90.5z" />
    <glyph glyph-name="uni01EC" unicode="&#x1ec;" horiz-adv-x="1556" 
d="M825 -475q-100 0 -158.5 50.5t-58.5 137.5q0 135 150 262q-170 1 -299.5 58.5t-208.5 160.5t-118.5 240t-39.5 305q0 167 46 307t133.5 243.5t222.5 161.5t305 58q136 0 247 -37.5t188 -104.5t129.5 -160.5t76.5 -203t24 -235.5q0 -314 -129 -516t-379 -258
q-85 -80 -123 -132t-38 -112q0 -74 71 -74q67 0 107 82l112 -55q-31 -85 -103 -131.5t-157 -46.5zM778 170q203 0 322 143.5t119 436.5q0 277 -113 421t-313 144t-326 -144q-127 -145 -127 -430q0 -283 117 -427t321 -144zM485 1788h637v-170h-637v170z" />
    <glyph glyph-name="uni01ED" unicode="&#x1ed;" horiz-adv-x="1191" 
d="M621 -475q-100 0 -159 50.5t-59 137.5q0 135 150 262q-465 22 -465 549q0 262 134 408.5t392 146.5q129 0 224.5 -38.5t153 -110t85 -166.5t27.5 -215q0 -225 -86 -368.5t-266 -186.5q-59 -58 -85.5 -86.5t-50.5 -72t-24 -85.5q0 -74 72 -74q66 0 106 82l111 -55
q-31 -85 -101.5 -131.5t-158.5 -46.5zM600 150q127 0 192.5 90t65.5 297q0 202 -61 284t-191 82q-272 0 -272 -371q0 -201 64 -291.5t202 -90.5zM301 1432h612v-170h-612v170z" />
    <glyph glyph-name="uni01EE" unicode="&#x1ee;" horiz-adv-x="1214" 
d="M528 -502q-221 0 -361 108.5t-169 315.5l225 41q10 -54 31.5 -100t58 -86t95 -63t133.5 -23q74 0 134 22.5t100.5 62t68 95.5t39.5 121t12 141q0 182 -93.5 287.5t-293.5 105.5q-82 0 -160 -12v176l459 598h-698v195h983v-170l-492 -623q132 3 236 -37.5t169.5 -115.5
t99.5 -175.5t34 -220.5q0 -109 -22 -204t-70 -176t-118.5 -139t-173 -91t-227.5 -33zM754 1870l168 -19l-230 -272h-211l-225 272l170 15l162 -156z" />
    <glyph glyph-name="uni01EF" unicode="&#x1ef;" horiz-adv-x="976" 
d="M414 -463q-178 0 -281.5 86.5t-122.5 243.5l199 39q28 -187 207 -187q129 0 198.5 82.5t69.5 212.5q0 135 -62.5 205t-203.5 70q-68 0 -168 -17v166l362 445h-503v176h757v-162l-385 -461q213 12 322.5 -98t109.5 -309q0 -216 -133 -354t-366 -138zM485 1305l172 217
l162 -15l-223 -336h-227l-224 336l174 13z" />
    <glyph glyph-name="uni01F0" unicode="&#x1f0;" horiz-adv-x="522" 
d="M51 -457q-62 0 -125.5 14t-93.5 33l21 181q90 -35 159 -35q138 0 138 164v1159h235v-1174q0 -175 -87.5 -258.5t-246.5 -83.5zM268 1305l172 217l162 -15l-223 -336h-227l-224 336l174 13z" />
    <glyph glyph-name="uni01F1" unicode="&#x1f1;" horiz-adv-x="2639" 
d="M178 1483h481q374 0 555 -188t181 -531q0 -173 -46 -311.5t-138.5 -240.5t-241 -157t-344.5 -55h-447v1483zM623 195q268 0 397 141t129 405q0 156 -32.5 263t-99.5 169t-157.5 88.5t-218.5 26.5h-223v-1093h205zM2566 201v-201h-1069v172l756 1110h-735v201h1017v-178
l-747 -1104h778z" />
    <glyph glyph-name="uni01F2" unicode="&#x1f2;" horiz-adv-x="2430" 
d="M178 1483h481q374 0 555 -188t181 -531q0 -173 -46 -311.5t-138.5 -240.5t-241 -157t-344.5 -55h-447v1483zM623 195q268 0 397 141t129 405q0 156 -32.5 263t-99.5 169t-157.5 88.5t-218.5 26.5h-223v-1093h205zM2384 193v-193h-838v168l551 706h-543v185h805v-170
l-547 -696h572z" />
    <glyph glyph-name="uni01F3" unicode="&#x1f3;" horiz-adv-x="2138" 
d="M856 0l-16 106h-4q-138 -131 -334 -131q-192 0 -301 130.5t-109 406.5q0 122 24.5 220t66.5 162t100 107t121.5 61.5t134.5 18.5q175 0 284 -92v557h230v-1546h-197zM817 807q-40 32 -100.5 57t-128.5 25q-88 0 -145.5 -48.5t-82 -130t-24.5 -196.5q0 -175 58.5 -261.5
t183.5 -86.5q65 0 129.5 30.5t109.5 77.5v533zM2089 193v-193h-838v168l551 706h-542v185h804v-170l-546 -696h571z" />
    <glyph glyph-name="uni01F4" unicode="&#x1f4;" horiz-adv-x="1509" 
d="M1161 193q-43 -96 -165.5 -157t-272.5 -61q-130 0 -235 36t-178.5 101t-122.5 158t-72 205.5t-23 245.5q0 371 185.5 579.5t519.5 208.5q120 0 217 -28.5t172 -88t120 -157.5t54 -231l-223 -25q-14 163 -97 245.5t-249 82.5q-219 0 -335 -147t-116 -417q0 -155 30 -265.5
t88 -176t136 -95.5t182 -30q86 0 156 27t113.5 72t66.5 101.5t23 117.5v96h-347v180h578v-770h-176zM610 1593l197 281h266l-291 -303z" />
    <glyph glyph-name="uni01F5" unicode="&#x1f5;" horiz-adv-x="1136" 
d="M555 1081q201 0 297 -84q62 140 176 140q44 0 84 -13v-157q-105 6 -197 -21q46 -46 70.5 -111t24.5 -133q0 -175 -127 -275.5t-326 -100.5q-108 0 -184 22q-21 -14 -36 -38t-15 -46q0 -30 23 -47.5t85 -21.5l311 -19q176 -11 264.5 -73.5t88.5 -202.5q0 -100 -45 -172.5
t-124.5 -113t-173.5 -59t-206 -18.5q-114 0 -201.5 15t-141.5 39.5t-88.5 59.5t-47.5 71t-13 79q0 80 48 133t128 80v6q-125 44 -125 160q0 45 24 87t51 67.5t75 62.5q-71 43 -113.5 119.5t-42.5 173.5q0 174 123.5 282.5t333.5 108.5zM788 700q0 98 -59.5 148.5
t-167.5 50.5q-106 0 -169.5 -48t-63.5 -146q0 -199 231 -199q104 0 166.5 52t62.5 142zM852 -147q0 54 -33.5 82t-124.5 32l-334 19q-88 -62 -88 -144q0 -65 64.5 -97t210.5 -32q305 0 305 140zM406 1192l180 336h266l-283 -357z" />
    <glyph glyph-name="uni01F8" unicode="&#x1f8;" horiz-adv-x="1525" 
d="M725 1874l195 -281l-172 -22l-291 303h268zM399 1165v-1165h-221v1483h301l649 -1159v1159h220v-1483h-283z" />
    <glyph glyph-name="uni01F9" unicode="&#x1f9;" horiz-adv-x="1193" 
d="M823 0v682q0 102 -41 152.5t-133 50.5q-72 0 -147 -35.5t-121 -77.5v-772h-236v1059h209l11 -111q168 133 366 133q170 0 249 -89t79 -271v-721h-236zM565 1528l180 -336l-163 -21l-283 357h266z" />
    <glyph glyph-name="Aringacute" unicode="&#x1fa;" horiz-adv-x="1421" 
d="M936 1640q0 -116 -80 -178l514 -1462h-262l-139 406h-539l-135 -406h-244l488 1466q-74 59 -74 166q0 110 67.5 169t167.5 59q103 0 169.5 -56.5t66.5 -163.5zM694 1262l-217 -656h436l-215 656h-4zM516 1935l197 281h266l-291 -303zM698 1534q107 0 107 111
q0 102 -105 102q-47 0 -77.5 -28.5t-30.5 -80.5q0 -50 28 -77t78 -27z" />
    <glyph glyph-name="aringacute" unicode="&#x1fb;" horiz-adv-x="1126" 
d="M954 223q0 -44 13.5 -63t50.5 -19q19 0 63 13l9 -140q-77 -34 -166 -34q-80 0 -122.5 30.5t-56.5 93.5q-56 -60 -142.5 -94.5t-192.5 -34.5q-76 0 -134.5 20t-91.5 50t-54 70.5t-27.5 75t-6.5 69.5q0 99 40.5 172t113.5 114t163 60t201 19q55 0 109 -4v79
q0 106 -37 154.5t-147 48.5q-93 0 -135 -38t-60 -126l-207 37q25 152 127 228.5t293 76.5q205 0 301 -86.5t96 -281.5v-490zM725 459q-36 4 -98 4q-54 0 -96.5 -5t-91 -21t-76 -52.5t-27.5 -91.5q0 -141 158 -141q67 0 129.5 28.5t101.5 69.5v209zM778 1366
q0 -98 -61 -153.5t-162 -55.5t-162 54t-61 147q0 103 64.5 160t158.5 57q97 0 160 -54t63 -155zM553 1268q96 0 96 98q0 94 -94 94q-44 0 -71 -25t-27 -71q0 -96 96 -96zM389 1653l197 280h266l-291 -303z" />
    <glyph glyph-name="AEacute" unicode="&#x1fc;" horiz-adv-x="2050" 
d="M1958 201v-201h-928v625h-412l-325 -625h-246l774 1483h1106v-201h-655v-457h616v-196h-616v-428h686zM946 1282l-248 -463h332v463h-84zM1206 1593l197 281h266l-291 -303z" />
    <glyph glyph-name="aeacute" unicode="&#x1fd;" horiz-adv-x="1742" 
d="M1210 -25q-263 0 -385 160q-155 -160 -411 -160q-77 0 -136 20.5t-92.5 50.5t-54.5 70.5t-28 75.5t-7 70q0 100 37 171t108 111.5t160 60t207 22.5q53 0 115 -4v69q0 108 -38 159.5t-148 51.5q-93 0 -139 -39t-60 -125l-201 37q47 305 406 305q134 0 207.5 -38.5
t115.5 -124.5q129 163 369 163q209 0 312.5 -127t103.5 -346q0 -100 -6 -139h-687q3 -87 22.5 -146.5t56 -92.5t81.5 -46.5t107 -13.5q96 0 147 42t72 128l203 -47q-32 -149 -148 -233.5t-289 -84.5zM496 150q72 0 142.5 30t121.5 84q-26 72 -37 207h-98q-289 0 -289 -178
q0 -64 37 -103.5t123 -39.5zM1407 633q9 264 -205 264q-98 0 -167 -67t-72 -197h444zM727 1192l180 336h267l-283 -357z" />
    <glyph glyph-name="Oslashacute" unicode="&#x1fe;" horiz-adv-x="1556" 
d="M768 -25q-94 0 -184 19l-58 -141h-231l92 219q-149 94 -222 265t-73 400q0 167 46 307.5t133.5 244t222.5 162t305 58.5q99 0 178 -20l57 137h230l-90 -217q145 -91 217.5 -259t72.5 -382q0 -181 -43.5 -326t-129 -249.5t-218.5 -161t-305 -56.5zM778 180
q203 0 322 140.5t119 427.5q0 299 -138 440l-413 -995q57 -13 110 -13zM340 741q0 -304 139 -446l414 995q-52 10 -100 10q-201 0 -326 -137q-127 -139 -127 -422zM618 1614l197 280h266l-290 -303z" />
    <glyph glyph-name="oslashacute" unicode="&#x1ff;" horiz-adv-x="1191" 
d="M588 -25q-66 0 -133 13l-60 -135h-217l92 208q-182 133 -182 463q0 262 134 409.5t392 147.5q61 0 105 -8l55 127h215l-86 -192q201 -127 201 -459q0 -272 -126 -423t-390 -151zM600 158q126 0 192 90.5t66 288.5q0 172 -49 254l-277 -627q30 -6 68 -6zM334 532
q0 -157 39 -239l264 596q-5 0 -15.5 1t-15.5 1q-272 0 -272 -359zM424 1192l180 336h266l-282 -357z" />
    <glyph glyph-name="uni0200" unicode="&#x200;" horiz-adv-x="1421" 
d="M1370 0h-262l-139 406h-539l-135 -406h-244l494 1483h305zM694 1262l-217 -656h436l-215 656h-4zM193 1880h266l198 -287l-165 -22zM557 1872h258l123 -275l-162 -26z" />
    <glyph glyph-name="uni0201" unicode="&#x201;" horiz-adv-x="1126" 
d="M954 223q0 -44 13.5 -63t50.5 -19q19 0 63 13l9 -140q-77 -34 -166 -34q-80 0 -122.5 30.5t-56.5 93.5q-56 -60 -142.5 -94.5t-192.5 -34.5q-76 0 -134.5 20t-91.5 50t-54 70.5t-27.5 75t-6.5 69.5q0 99 40.5 172t113.5 114t163 60t201 19q55 0 109 -4v79
q0 106 -37 154.5t-147 48.5q-93 0 -135 -38t-60 -126l-207 37q25 152 127 228.5t293 76.5q205 0 301 -86.5t96 -281.5v-490zM725 459q-36 4 -98 4q-54 0 -96.5 -5t-91 -21t-76 -52.5t-27.5 -91.5q0 -141 158 -141q67 0 129.5 28.5t101.5 69.5v209zM45 1532h266l193 -338
l-164 -23zM406 1526h258l127 -328l-158 -27z" />
    <glyph glyph-name="uni0202" unicode="&#x202;" horiz-adv-x="1421" 
d="M1370 0h-262l-139 406h-539l-135 -406h-244l494 1483h305zM694 1262l-217 -656h436l-215 656h-4zM375 1602q17 140 104 210t232 70q291 0 311 -276l-164 -19q-13 80 -50 113t-106 33q-72 0 -110 -31t-55 -113z" />
    <glyph glyph-name="uni0203" unicode="&#x203;" horiz-adv-x="1126" 
d="M954 223q0 -44 13.5 -63t50.5 -19q19 0 63 13l9 -140q-77 -34 -166 -34q-80 0 -122.5 30.5t-56.5 93.5q-56 -60 -142.5 -94.5t-192.5 -34.5q-76 0 -134.5 20t-91.5 50t-54 70.5t-27.5 75t-6.5 69.5q0 99 40.5 172t113.5 114t163 60t201 19q55 0 109 -4v79
q0 106 -37 154.5t-147 48.5q-93 0 -135 -38t-60 -126l-207 37q25 152 127 228.5t293 76.5q205 0 301 -86.5t96 -281.5v-490zM725 459q-36 4 -98 4q-54 0 -96.5 -5t-91 -21t-76 -52.5t-27.5 -91.5q0 -141 158 -141q67 0 129.5 28.5t101.5 69.5v209zM223 1184q7 157 95 238
t243 81q306 0 318 -315l-164 -19q-7 102 -46 143.5t-116 41.5q-78 0 -119 -41t-51 -142z" />
    <glyph glyph-name="uni0204" unicode="&#x204;" horiz-adv-x="1183" 
d="M1106 201v-201h-928v1483h897v-201h-657v-438h616v-199h-616v-444h688zM125 1880h266l199 -287l-166 -22zM489 1872h259l122 -275l-161 -26z" />
    <glyph glyph-name="uni0205" unicode="&#x205;" horiz-adv-x="1120" 
d="M588 -25q-111 0 -198.5 30t-143.5 81t-92 123t-51 150t-15 169q0 140 40 248t110 173.5t160 98.5t196 33q219 0 326.5 -127t107.5 -342q0 -68 -6 -141h-686q8 -303 266 -303q98 0 147.5 42.5t69.5 129.5l201 -49q-31 -149 -145.5 -232.5t-286.5 -83.5zM784 635
q0 135 -49 197.5t-155 62.5q-97 0 -165 -64t-75 -196h444zM80 1532h266l193 -338l-164 -23zM440 1526h258l127 -328l-157 -27z" />
    <glyph glyph-name="uni0206" unicode="&#x206;" horiz-adv-x="1183" 
d="M1106 201v-201h-928v1483h897v-201h-657v-438h616v-199h-616v-444h688zM307 1602q17 140 104 210t232 70q291 0 311 -276l-163 -19q-13 80 -50 113t-106 33q-72 0 -110.5 -31t-55.5 -113z" />
    <glyph glyph-name="uni0207" unicode="&#x207;" horiz-adv-x="1120" 
d="M588 -25q-111 0 -198.5 30t-143.5 81t-92 123t-51 150t-15 169q0 140 40 248t110 173.5t160 98.5t196 33q219 0 326.5 -127t107.5 -342q0 -68 -6 -141h-686q8 -303 266 -303q98 0 147.5 42.5t69.5 129.5l201 -49q-31 -149 -145.5 -232.5t-286.5 -83.5zM784 635
q0 135 -49 197.5t-155 62.5q-97 0 -165 -64t-75 -196h444zM258 1184q7 157 95 238t243 81q305 0 317 -315l-163 -19q-7 102 -46 143.5t-116 41.5q-78 0 -119 -41t-51 -142z" />
    <glyph glyph-name="uni0208" unicode="&#x208;" horiz-adv-x="595" 
d="M178 0v1483h240v-1483h-240zM-209 1880h266l199 -287l-166 -22zM156 1872h258l123 -275l-162 -26z" />
    <glyph glyph-name="uni0209" unicode="&#x209;" horiz-adv-x="526" 
d="M150 0v1059h235v-1059h-235zM-240 1532h267l192 -338l-164 -23zM121 1526h258l127 -328l-158 -27z" />
    <glyph glyph-name="uni020A" unicode="&#x20a;" horiz-adv-x="595" 
d="M178 0v1483h240v-1483h-240zM-27 1602q17 140 104 210t232 70q292 0 312 -276l-164 -19q-13 80 -50 113t-106 33q-72 0 -110.5 -31t-55.5 -113z" />
    <glyph glyph-name="uni020B" unicode="&#x20b;" horiz-adv-x="526" 
d="M150 0v1059h235v-1059h-235zM-61 1184q7 157 94.5 238t242.5 81q306 0 318 -315l-164 -19q-7 102 -46 143.5t-116 41.5q-78 0 -119 -41t-51 -142z" />
    <glyph glyph-name="uni020C" unicode="&#x20c;" horiz-adv-x="1556" 
d="M768 -25q-173 0 -304 56.5t-211.5 159.5t-120.5 240t-40 306q0 167 46 307.5t133.5 244t222.5 162t305 58.5q136 0 247 -37.5t188 -104.5t129.5 -160.5t76.5 -203t24 -235.5q0 -181 -43.5 -326t-129 -249.5t-218.5 -161t-305 -56.5zM778 180q203 0 322 140.5t119 427.5
q0 276 -112.5 414t-313.5 138t-326 -137q-127 -139 -127 -422q0 -280 116.5 -420.5t321.5 -140.5zM289 1880h266l199 -287l-166 -22zM653 1872h258l123 -275l-162 -26z" />
    <glyph glyph-name="uni020D" unicode="&#x20d;" horiz-adv-x="1191" 
d="M588 -25q-136 0 -235 41t-155.5 117t-83 172.5t-26.5 218.5q0 262 134 409.5t392 147.5q129 0 224.5 -38.5t153 -110t85 -167t27.5 -216.5q0 -272 -126 -423t-390 -151zM600 158q126 0 192 90.5t66 288.5q0 192 -61.5 273t-190.5 81q-272 0 -272 -359q0 -192 64.5 -283
t201.5 -91zM104 1532h267l192 -338l-164 -23zM465 1526h258l127 -328l-158 -27z" />
    <glyph glyph-name="uni020E" unicode="&#x20e;" horiz-adv-x="1556" 
d="M768 -25q-173 0 -304 56.5t-211.5 159.5t-120.5 240t-40 306q0 167 46 307.5t133.5 244t222.5 162t305 58.5q136 0 247 -37.5t188 -104.5t129.5 -160.5t76.5 -203t24 -235.5q0 -181 -43.5 -326t-129 -249.5t-218.5 -161t-305 -56.5zM778 180q203 0 322 140.5t119 427.5
q0 276 -112.5 414t-313.5 138t-326 -137q-127 -139 -127 -422q0 -280 116.5 -420.5t321.5 -140.5zM471 1602q17 140 104 210t232 70q291 0 311 -276l-164 -19q-13 80 -49.5 113t-105.5 33q-72 0 -110.5 -31t-55.5 -113z" />
    <glyph glyph-name="uni020F" unicode="&#x20f;" horiz-adv-x="1191" 
d="M588 -25q-136 0 -235 41t-155.5 117t-83 172.5t-26.5 218.5q0 262 134 409.5t392 147.5q129 0 224.5 -38.5t153 -110t85 -167t27.5 -216.5q0 -272 -126 -423t-390 -151zM600 158q126 0 192 90.5t66 288.5q0 192 -61.5 273t-190.5 81q-272 0 -272 -359q0 -192 64.5 -283
t201.5 -91zM283 1184q7 157 95 238t243 81q305 0 317 -315l-164 -19q-7 102 -46 143.5t-116 41.5q-78 0 -119 -41t-51 -142z" />
    <glyph glyph-name="uni0210" unicode="&#x210;" horiz-adv-x="1308" 
d="M1018 0l-320 596h-282v-596h-238v1483h537q107 0 191.5 -23t138.5 -61t89 -91.5t49.5 -111t14.5 -123.5q0 -160 -72.5 -263t-201.5 -153l354 -657h-260zM647 788q143 0 223 61t80 208q0 127 -77 178t-232 51h-225v-498h231zM121 1880h266l199 -287l-166 -22zM485 1872
h258l123 -275l-161 -26z" />
    <glyph glyph-name="uni0211" unicode="&#x211;" horiz-adv-x="770" 
d="M752 844q-99 12 -202 -18.5t-169 -90.5v-735h-236v1059h199l18 -158q64 92 147.5 136t199.5 44q20 0 43 -2v-235zM-49 1532h266l193 -338l-164 -23zM311 1526h258l127 -328l-157 -27z" />
    <glyph glyph-name="uni0212" unicode="&#x212;" horiz-adv-x="1308" 
d="M1018 0l-320 596h-282v-596h-238v1483h537q107 0 191.5 -23t138.5 -61t89 -91.5t49.5 -111t14.5 -123.5q0 -160 -72.5 -263t-201.5 -153l354 -657h-260zM647 788q143 0 223 61t80 208q0 127 -77 178t-232 51h-225v-498h231zM303 1602q17 140 104 210t232 70
q291 0 311 -276l-164 -19q-13 80 -49.5 113t-105.5 33q-72 0 -110.5 -31t-55.5 -113z" />
    <glyph glyph-name="uni0213" unicode="&#x213;" horiz-adv-x="770" 
d="M752 844q-99 12 -202 -18.5t-169 -90.5v-735h-236v1059h199l18 -158q64 92 147.5 136t199.5 44q20 0 43 -2v-235zM129 1184q7 157 95 238t243 81q305 0 317 -315l-163 -19q-7 102 -46 143.5t-116 41.5q-78 0 -119 -41t-51 -142z" />
    <glyph glyph-name="uni0214" unicode="&#x214;" horiz-adv-x="1456" 
d="M731 176q172 0 247 82.5t75 278.5v946h239v-971q0 -271 -150 -404t-423 -133q-289 0 -422 134t-133 409v965h239v-940q0 -192 78 -279.5t250 -87.5zM223 1880h266l199 -287l-166 -22zM588 1872h258l123 -275l-162 -26z" />
    <glyph glyph-name="uni0215" unicode="&#x215;" horiz-adv-x="1187" 
d="M379 1059v-682q0 -103 37.5 -152t128.5 -49q71 0 146 34.5t120 76.5v772h236v-1059h-205l-17 117q-153 -140 -362 -140q-164 0 -242 89.5t-78 269.5v723h236zM90 1532h266l193 -338l-164 -23zM451 1526h258l127 -328l-158 -27z" />
    <glyph glyph-name="uni0216" unicode="&#x216;" horiz-adv-x="1456" 
d="M731 176q172 0 247 82.5t75 278.5v946h239v-971q0 -271 -150 -404t-423 -133q-289 0 -422 134t-133 409v965h239v-940q0 -192 78 -279.5t250 -87.5zM406 1602q17 140 103.5 210t231.5 70q292 0 312 -276l-164 -19q-13 80 -50 113t-106 33q-72 0 -110.5 -31t-55.5 -113z
" />
    <glyph glyph-name="uni0217" unicode="&#x217;" horiz-adv-x="1187" 
d="M379 1059v-682q0 -103 37.5 -152t128.5 -49q71 0 146 34.5t120 76.5v772h236v-1059h-205l-17 117q-153 -140 -362 -140q-164 0 -242 89.5t-78 269.5v723h236zM268 1184q7 157 95 238t243 81q306 0 318 -315l-164 -19q-7 102 -46 143.5t-116 41.5q-78 0 -119 -41t-51 -142
z" />
    <glyph glyph-name="uni0218" unicode="&#x218;" horiz-adv-x="1226" 
d="M627 1315q-141 0 -208 -53t-67 -148q0 -33 10 -61.5t23 -49t40.5 -40.5t48.5 -32t61.5 -27.5t64.5 -23t71 -22.5q4 -1 7 -2l6 -2q171 -53 239 -86q169 -84 209 -233q13 -51 13 -111q0 -94 -29.5 -170t-79.5 -127.5t-119.5 -86t-147.5 -50t-165 -15.5q-510 0 -553 441
l221 33q11 -51 24.5 -88.5t39 -76t60 -63t88.5 -40t124 -15.5q47 0 87.5 6.5t80 22.5t67.5 40.5t45 64.5t17 91q0 48 -19 86.5t-45.5 63t-75.5 46.5t-87.5 33.5t-102.5 28.5q-88 24 -134.5 38.5t-120 50.5t-111 77t-67 110.5t-29.5 159.5q0 131 68 228t184 146.5t264 49.5
q82 0 150 -12t131 -42.5t108.5 -78t76 -122t38.5 -171.5l-222 -26q-8 59 -24 101.5t-47 80t-84.5 57t-128.5 19.5zM750 -139l-152 -383l-168 24l86 359h234z" />
    <glyph glyph-name="uni0219" unicode="&#x219;" horiz-adv-x="1009" 
d="M516 1081q178 0 274 -77.5t128 -223.5l-205 -53q-21 89 -63.5 133.5t-137.5 44.5q-93 0 -137.5 -34t-44.5 -91q0 -29 11 -51t29 -37t49 -27t62.5 -20t77.5 -16q49 -9 79 -15.5t74.5 -19.5t72 -27.5t59.5 -38.5t50 -53t30 -71t12 -93q0 -161 -118.5 -248.5t-317.5 -87.5
q-382 0 -432 299l200 66q13 -44 26.5 -72t39 -57.5t69 -44t105.5 -14.5q92 0 145.5 31t53.5 96q0 31 -11 54t-27 37.5t-48 26t-59.5 18t-76.5 15.5q-50 9 -76.5 15t-73 19.5t-72.5 27.5t-59.5 39t-51.5 54.5t-30.5 73t-12.5 95.5q0 158 115.5 242.5t291.5 84.5zM645 -139
l-151 -383l-168 24l86 359h233z" />
    <glyph glyph-name="uni021A" unicode="&#x21a;" horiz-adv-x="1169" 
d="M467 1282h-444v201h1124v-201h-440v-1282h-240v1282zM719 -139l-152 -383l-168 24l86 359h234z" />
    <glyph glyph-name="uni021B" unicode="&#x21b;" horiz-adv-x="802" 
d="M784 49q-42 -29 -121 -51.5t-159 -22.5q-158 0 -237 77.5t-79 242.5v590h-161v174h161v309l236 33v-342h287v-174h-287v-557q0 -84 29.5 -122t111.5 -38q45 0 95 14.5t85 34.5zM598 -139l-152 -383l-167 24l86 359h233z" />
    <glyph glyph-name="uni021E" unicode="&#x21e;" horiz-adv-x="1495" 
d="M1077 0v647h-659v-647h-240v1483h240v-625h659v625h240v-1483h-240zM913 1870l168 -19l-229 -272h-211l-225 272l170 15l162 -156z" />
    <glyph glyph-name="uni021F" unicode="&#x21f;" horiz-adv-x="1193" 
d="M823 0v682q0 102 -41 152.5t-133 50.5q-72 0 -147 -35.5t-121 -77.5v-772h-236v1546h234v-592q158 127 354 127q168 0 247 -89t79 -271v-721h-236zM428 1911l168 -19l-229 -272h-211l-226 272l170 15l162 -156z" />
    <glyph glyph-name="uni0220" unicode="&#x220;" horiz-adv-x="1396" 
d="M999 1014q0 147 -55.5 225t-187.5 78q-95 0 -192.5 -40.5t-149.5 -84.5v-1192h-236v1483h209l12 -127q86 66 198 108.5t234 42.5q215 0 309.5 -117t94.5 -346v-1478l-236 -2v1450z" />
    <glyph glyph-name="uni0226" unicode="&#x226;" horiz-adv-x="1421" 
d="M1370 0h-262l-139 406h-539l-135 -406h-244l494 1483h305zM694 1262l-217 -656h436l-215 656h-4zM850 1749q0 -73 -41 -114.5t-113 -41.5q-73 0 -113 41t-40 115t40 114t113 40q72 0 113 -40.5t41 -113.5z" />
    <glyph glyph-name="uni0227" unicode="&#x227;" horiz-adv-x="1120" 
d="M954 223q0 -44 13.5 -63t50.5 -19q19 0 63 13l9 -140q-77 -34 -166 -34q-80 0 -122.5 30.5t-56.5 93.5q-56 -60 -142.5 -94.5t-192.5 -34.5q-76 0 -134.5 20t-91.5 50t-54 70.5t-27.5 75t-6.5 69.5q0 99 40.5 172t113.5 114t163 60t201 19q55 0 109 -4v79
q0 106 -37 154.5t-147 48.5q-93 0 -135 -38t-60 -126l-207 37q25 152 127 228.5t293 76.5q205 0 301 -86.5t96 -281.5v-490zM725 459q-36 4 -98 4q-54 0 -96.5 -5t-91 -21t-76 -52.5t-27.5 -91.5q0 -141 158 -141q67 0 129.5 28.5t101.5 69.5v209zM702 1393
q0 -75 -40.5 -115.5t-112.5 -40.5q-154 0 -154 156q0 73 40 113t114 40q72 0 112.5 -40t40.5 -113z" />
    <glyph glyph-name="uni0228" unicode="&#x228;" horiz-adv-x="1183" 
d="M1106 201v-201h-397l-13 -78q166 -30 166 -182q0 -98 -68 -156.5t-173 -58.5q-88 0 -168 37l34 121q71 -23 107 -23q102 0 102 84q0 48 -33.5 67t-109.5 21l25 168h-400v1483h897v-201h-657v-438h616v-199h-616v-444h688z" />
    <glyph glyph-name="uni0229" unicode="&#x229;" horiz-adv-x="1120" 
d="M784 635q0 135 -49 197.5t-155 62.5q-97 0 -165 -64t-75 -196h444zM406 -317q71 -23 106 -23q102 0 102 84q0 48 -33.5 67t-109.5 21l21 150q-89 12 -159 47.5t-115.5 86.5t-75 118.5t-42 139.5t-12.5 154q0 140 40 248t110 173.5t160 98.5t196 33q219 0 326.5 -127
t107.5 -342q0 -68 -6 -141h-686q8 -303 266 -303q98 0 147.5 42.5t69.5 129.5l201 -49q-29 -141 -133 -223t-264 -93l-9 -53q166 -30 166 -182q0 -98 -68 -156.5t-173 -58.5q-88 0 -168 37z" />
    <glyph glyph-name="uni022A" unicode="&#x22a;" horiz-adv-x="1556" 
d="M768 -25q-173 0 -304 56.5t-211.5 159.5t-120.5 240t-40 306q0 167 46 307.5t133.5 244t222.5 162t305 58.5q136 0 247 -37.5t188 -104.5t129.5 -160.5t76.5 -203t24 -235.5q0 -181 -43.5 -326t-129 -249.5t-218.5 -161t-305 -56.5zM778 180q203 0 322 140.5t119 427.5
q0 276 -112.5 414t-313.5 138t-326 -137q-127 -139 -127 -422q0 -280 116.5 -420.5t321.5 -140.5zM721 1737q0 -67 -41.5 -105.5t-108.5 -38.5q-68 0 -109.5 38.5t-41.5 105.5q0 66 41.5 104.5t109.5 38.5q67 0 108.5 -39t41.5 -104zM1171 1737q0 -67 -41 -105.5t-108 -38.5
q-70 0 -111 38.5t-41 105.5q0 66 41.5 104.5t110.5 38.5q67 0 108 -39t41 -104zM479 2144h637v-170h-637v170z" />
    <glyph glyph-name="uni022B" unicode="&#x22b;" horiz-adv-x="1191" 
d="M588 -25q-136 0 -235 41t-155.5 117t-83 172.5t-26.5 218.5q0 262 134 409.5t392 147.5q129 0 224.5 -38.5t153 -110t85 -167t27.5 -216.5q0 -272 -126 -423t-390 -151zM600 158q126 0 192 90.5t66 288.5q0 192 -61.5 273t-190.5 81q-272 0 -272 -359q0 -192 64.5 -283
t201.5 -91zM535 1382q0 -67 -41.5 -106t-108.5 -39q-68 0 -110 39t-42 106q0 66 42 105t110 39q67 0 108.5 -39.5t41.5 -104.5zM985 1382q0 -67 -41 -106t-108 -39q-69 0 -110.5 39t-41.5 106q0 66 41.5 105t110.5 39q67 0 108 -39.5t41 -104.5zM293 1812h637v-170h-637v170
z" />
    <glyph glyph-name="uni022C" unicode="&#x22c;" horiz-adv-x="1556" 
d="M768 -25q-173 0 -304 56.5t-211.5 159.5t-120.5 240t-40 306q0 167 46 307.5t133.5 244t222.5 162t305 58.5q136 0 247 -37.5t188 -104.5t129.5 -160.5t76.5 -203t24 -235.5q0 -181 -43.5 -326t-129 -249.5t-218.5 -161t-305 -56.5zM778 180q203 0 322 140.5t119 427.5
q0 276 -112.5 414t-313.5 138t-326 -137q-127 -139 -127 -422q0 -280 116.5 -420.5t321.5 -140.5zM641 1874q56 0 113 -23t107 -46t87 -23q38 0 54 20t16 78l131 -6q17 -122 -32.5 -193t-145.5 -71q-57 0 -116.5 23t-110.5 46t-87 23t-53.5 -23t-13.5 -82l-135 7
q-16 128 38.5 199t147.5 71zM479 2154h637v-169h-637v169z" />
    <glyph glyph-name="uni022D" unicode="&#x22d;" horiz-adv-x="1191" 
d="M588 -25q-136 0 -235 41t-155.5 117t-83 172.5t-26.5 218.5q0 262 134 409.5t392 147.5q129 0 224.5 -38.5t153 -110t85 -167t27.5 -216.5q0 -272 -126 -423t-390 -151zM600 158q126 0 192 90.5t66 288.5q0 192 -61.5 273t-190.5 81q-272 0 -272 -359q0 -192 64.5 -283
t201.5 -91zM451 1479q56 0 113 -23.5t107 -46.5t87 -23q38 0 53.5 20.5t15.5 80.5l131 -8q17 -122 -33 -193.5t-145 -71.5q-57 0 -116 24t-110 47.5t-87 23.5q-76 0 -68 -107l-135 6q-13 128 41 199.5t146 71.5zM293 1784h637v-170h-637v170z" />
    <glyph glyph-name="uni022E" unicode="&#x22e;" horiz-adv-x="1556" 
d="M768 -25q-173 0 -304 56.5t-211.5 159.5t-120.5 240t-40 306q0 167 46 307.5t133.5 244t222.5 162t305 58.5q136 0 247 -37.5t188 -104.5t129.5 -160.5t76.5 -203t24 -235.5q0 -181 -43.5 -326t-129 -249.5t-218.5 -161t-305 -56.5zM778 180q203 0 322 140.5t119 427.5
q0 276 -112.5 414t-313.5 138t-326 -137q-127 -139 -127 -422q0 -280 116.5 -420.5t321.5 -140.5zM948 1749q0 -73 -40.5 -114.5t-112.5 -41.5q-73 0 -113.5 41t-40.5 115q0 73 40.5 113.5t113.5 40.5q72 0 112.5 -40.5t40.5 -113.5z" />
    <glyph glyph-name="uni022F" unicode="&#x22f;" horiz-adv-x="1191" 
d="M588 -25q-136 0 -235 41t-155.5 117t-83 172.5t-26.5 218.5q0 262 134 409.5t392 147.5q129 0 224.5 -38.5t153 -110t85 -167t27.5 -216.5q0 -272 -126 -423t-390 -151zM600 158q126 0 192 90.5t66 288.5q0 192 -61.5 273t-190.5 81q-272 0 -272 -359q0 -192 64.5 -283
t201.5 -91zM762 1393q0 -75 -41 -115.5t-113 -40.5q-153 0 -153 156q0 73 39.5 113t113.5 40q72 0 113 -40t41 -113z" />
    <glyph glyph-name="uni0230" unicode="&#x230;" horiz-adv-x="1556" 
d="M768 -25q-173 0 -304 56.5t-211.5 159.5t-120.5 240t-40 306q0 167 46 307.5t133.5 244t222.5 162t305 58.5q136 0 247 -37.5t188 -104.5t129.5 -160.5t76.5 -203t24 -235.5q0 -181 -43.5 -326t-129 -249.5t-218.5 -161t-305 -56.5zM778 180q203 0 322 140.5t119 427.5
q0 276 -112.5 414t-313.5 138t-326 -137q-127 -139 -127 -422q0 -280 116.5 -420.5t321.5 -140.5zM948 1749q0 -73 -40.5 -114.5t-112.5 -41.5q-73 0 -113.5 41t-40.5 115q0 73 40.5 113.5t113.5 40.5q72 0 112.5 -40.5t40.5 -113.5zM479 2154h637v-169h-637v169z" />
    <glyph glyph-name="uni0231" unicode="&#x231;" horiz-adv-x="1191" 
d="M588 -25q-136 0 -235 41t-155.5 117t-83 172.5t-26.5 218.5q0 262 134 409.5t392 147.5q129 0 224.5 -38.5t153 -110t85 -167t27.5 -216.5q0 -272 -126 -423t-390 -151zM600 158q126 0 192 90.5t66 288.5q0 192 -61.5 273t-190.5 81q-272 0 -272 -359q0 -192 64.5 -283
t201.5 -91zM762 1393q0 -75 -41 -115.5t-113 -40.5q-153 0 -153 156q0 73 39.5 113t113.5 40q72 0 113 -40t41 -113zM293 1831h637v-170h-637v170z" />
    <glyph glyph-name="uni0232" unicode="&#x232;" horiz-adv-x="1191" 
d="M487 0v567l-507 916h262l368 -688h4l357 688h241l-485 -912l2 -571h-242zM289 1788h637v-170h-637v170z" />
    <glyph glyph-name="uni0233" unicode="&#x233;" horiz-adv-x="1028" 
d="M260 1059l260 -795h2l260 795h242q-208 -579 -442 -1194q-64 -175 -146.5 -248.5t-222.5 -73.5q-55 0 -115.5 12.5t-97.5 28.5l23 176q94 -32 165 -32q57 0 99 33.5t73 111.5l43 111l-397 1075h254zM213 1432h612v-170h-612v170z" />
    <glyph glyph-name="uni0237" unicode="&#x237;" horiz-adv-x="522" 
d="M51 -457q-62 0 -125.5 14t-93.5 33l21 181q90 -35 159 -35q138 0 138 164v1159h235v-1174q0 -175 -87.5 -258.5t-246.5 -83.5z" />
    <glyph glyph-name="uni0238" unicode="&#x238;" horiz-adv-x="1871" 
d="M502 -25q-192 0 -301 130.5t-109 406.5q0 122 24.5 219.5t66.5 161.5t100 106.5t121.5 61t134.5 18.5q166 0 278 -94v561h236v-600q146 133 340 133q85 0 152.5 -28t121.5 -87.5t83.5 -164t29.5 -246.5q0 -121 -22.5 -218t-62.5 -163.5t-96.5 -111.5t-122 -65t-141.5 -20
q-175 0 -301 129h-4l-10 -104h-164l-16 111l-4 2q-141 -138 -334 -138zM578 160q64 0 127.5 32t111.5 80v539q-40 32 -100.5 57t-128.5 25q-252 0 -252 -379q0 -179 58 -266.5t184 -87.5zM1290 162q244 0 244 389q0 175 -52.5 258.5t-172.5 83.5q-70 0 -140 -34.5
t-116 -80.5v-512q38 -38 103.5 -71t133.5 -33z" />
    <glyph glyph-name="uni0239" unicode="&#x239;" horiz-adv-x="1869" 
d="M819 104q-144 -127 -332 -127q-89 0 -159.5 29t-124 90.5t-82.5 165t-29 244.5q0 122 25 220t67.5 163.5t100.5 109.5t121 63t133 19q188 0 299 -129l4 107h176l16 -115q149 137 344 137q90 0 161.5 -29.5t126.5 -91.5t84.5 -166.5t29.5 -246.5q0 -152 -35 -265t-97 -178
t-138.5 -96t-168.5 -31q-165 0 -288 97v-508h-234v538zM567 162q67 0 135.5 33t116.5 79v523q-37 37 -102 67.5t-131 30.5q-250 0 -250 -385q0 -176 55 -262t176 -86zM1290 166q129 0 186.5 96.5t57.5 282.5q0 185 -56 268.5t-178 83.5q-65 0 -131.5 -34t-115.5 -83v-528
q37 -31 102 -58.5t135 -27.5z" />
    <glyph glyph-name="uni023A" unicode="&#x23a;" horiz-adv-x="1421" 
d="M633 -152h-217l170 558h-156l-135 -406h-244l494 1483h305l33 -97l73 240h205l-166 -557l375 -1069h-262l-139 406h-170zM694 1262l-217 -656h436l-215 656h-4z" />
    <glyph glyph-name="uni023B" unicode="&#x23b;" horiz-adv-x="1419" 
d="M758 -25q-103 0 -193 19l-57 -146h-238l88 230q-266 176 -266 643q0 367 186 577.5t515 210.5q71 0 118 -8l50 125h233l-76 -194q220 -126 240 -441l-221 -20q-15 166 -99 250l-397 -1028q55 -15 129 -15q160 0 246.5 74t120.5 221l213 -41q-14 -97 -55.5 -176
t-99.5 -130.5t-131.5 -86t-149.5 -49.5t-156 -15zM338 737q0 -289 111 -428l385 991q-15 3 -43 3q-216 0 -334.5 -141t-118.5 -425z" />
    <glyph glyph-name="uni023C" unicode="&#x23c;" horiz-adv-x="1107" 
d="M584 -25q-62 0 -129 13l-62 -148h-217l96 223q-184 141 -184 453q0 273 137.5 419t386.5 146q54 0 90 -8l58 133h215l-90 -211q131 -103 145 -301l-217 -30q-5 54 -25 104l-253 -594q30 -6 61 -6q99 0 156.5 51t76.5 160l205 -41q-16 -123 -81.5 -206.5t-159 -120
t-209.5 -36.5zM334 543q0 -148 41 -238l250 588h-23q-268 0 -268 -350z" />
    <glyph glyph-name="uni023D" unicode="&#x23d;" horiz-adv-x="1142" 
d="M6 946h172v537h240v-537h239v-188h-239v-555h655v-203h-895v758h-172v188z" />
    <glyph glyph-name="uni023E" unicode="&#x23e;" horiz-adv-x="1169" 
d="M467 1282h-444v201h837l53 143h234l-53 -143h53v-201h-440v-1282h-177l-57 -152h-229l223 584v850z" />
    <glyph glyph-name="uni023F" unicode="&#x23f;" horiz-adv-x="1009" 
d="M516 1081q178 0 274 -77.5t128 -223.5l-205 -53q-21 89 -63.5 133.5t-137.5 44.5q-93 0 -137.5 -34t-44.5 -91q0 -29 11 -51t29 -37t49 -27t62.5 -20t77.5 -16q49 -9 79 -15.5t74.5 -19.5t72 -27.5t59.5 -38.5t50 -53t30 -71t12 -93q0 -161 -118.5 -248.5t-317.5 -87.5
q-60 0 -113 9q74 -102 125 -148.5t104 -46.5q56 0 111 55l82 -104q-83 -115 -209 -115q-62 0 -113 25.5t-96.5 79t-79.5 105.5t-87 138.5t-93 143.5h2q-49 60 -65 157l200 66q13 -44 26.5 -72t39 -57.5t69 -44t105.5 -14.5q92 0 145.5 31t53.5 96q0 31 -11 54t-27 37.5
t-48 26t-59.5 18t-76.5 15.5q-50 9 -76.5 15t-73 19.5t-72.5 27.5t-59.5 39t-51.5 54.5t-30.5 73t-12.5 95.5q0 158 115.5 242.5t291.5 84.5z" />
    <glyph glyph-name="uni0240" unicode="&#x240;" horiz-adv-x="946" 
d="M893 -236q-42 -66 -101 -98.5t-120 -32.5q-46 0 -89 15t-87 48t-71 57.5t-73 70.5q-54 56 -88 87.5t-87 60t-103 28.5h-15v158l551 725h-542v176h804v-162l-596 -776q93 -41 203 -162q61 -65 111 -100t102 -35q64 0 115 57z" />
    <glyph glyph-name="uni0241" unicode="&#x241;" horiz-adv-x="1079" 
d="M330 692q84 6 157 30t134.5 67t97 113t35.5 159q0 134 -63.5 194t-184.5 60q-124 0 -188.5 -52.5t-88.5 -193.5l-225 37q12 92 47.5 163.5t96.5 125.5t155 83t217 29q81 0 151 -15t131.5 -48.5t105 -84t68.5 -126t25 -170.5q0 -204 -120 -342q-120 -135 -316 -176v-545
h-235v692z" />
    <glyph glyph-name="uni0242" unicode="&#x242;" horiz-adv-x="1064" 
d="M309 297q67 6 125 20t113 41t94 64t62.5 93t23.5 126q0 124 -60 186t-161 62q-105 0 -166.5 -50.5t-85.5 -172.5l-221 36q13 82 47 148.5t91.5 118.5t146.5 81t202 29q92 0 171.5 -25t144 -75t102 -136.5t37.5 -199.5q0 -200 -115.5 -324t-318.5 -167v-152h-232v297z" />
    <glyph glyph-name="uni0243" unicode="&#x243;" horiz-adv-x="1323" 
d="M20 514h175v969h544q103 0 181.5 -18.5t128.5 -50t82 -78.5t44.5 -99.5t12.5 -116.5q0 -144 -82.5 -229.5t-212.5 -116.5v-6q350 -39 350 -362q0 -406 -553 -406h-495v332h-175v182zM608 852q340 0 340 233q0 65 -18 106t-57.5 62.5t-87 29t-121.5 7.5h-232v-438h176z
M651 193q64 0 111.5 5t92.5 19.5t73.5 39.5t45.5 66.5t17 98.5q0 235 -303 235h-256v-143h270v-182h-270v-139h219z" />
    <glyph glyph-name="uni0244" unicode="&#x244;" horiz-adv-x="1472" 
d="M727 -25q-289 0 -422 133.5t-133 407.5v240h-158v194h158v533h240v-533h649v533h239v-533h160v-194h-160v-246q0 -270 -150 -402.5t-423 -132.5zM412 539q0 -195 77.5 -282t249.5 -87t247 83t75 279v224h-649v-217z" />
    <glyph glyph-name="uni0245" unicode="&#x245;" horiz-adv-x="1304" 
d="M479 1483h324l491 -1483h-268l-387 1260h-8l-377 -1260h-244z" />
    <glyph glyph-name="uni0246" unicode="&#x246;" horiz-adv-x="1183" 
d="M539 -152h-217l47 152h-191v1483h649l47 143h218l-48 -143h31v-201h-96l-143 -438h198v-199h-248l-137 -444h457v-201h-520zM418 844h200l144 438h-344v-438zM418 201h14l137 444h-151v-444z" />
    <glyph glyph-name="uni0247" unicode="&#x247;" horiz-adv-x="1120" 
d="M588 -25q-64 0 -131 13l-64 -148h-217l100 223q-188 135 -188 465q0 140 40 248t110 173.5t160 98.5t196 33q62 0 106 -8l60 133h215l-96 -211q149 -117 149 -383q0 -68 -6 -141h-686q8 -303 266 -303q98 0 147.5 42.5t69.5 129.5l201 -49q-31 -149 -145.5 -232.5
t-286.5 -83.5zM784 635q0 135 -49 197.5t-155 62.5q-97 0 -165 -64t-75 -196h444z" />
    <glyph glyph-name="uni0248" unicode="&#x248;" horiz-adv-x="1054" 
d="M432 946h213v537h240v-537h184v-188h-184v-369q0 -414 -432 -414q-191 0 -295.5 89.5t-114.5 285.5l231 37q10 -109 47.5 -161t137.5 -52q93 0 139.5 44.5t46.5 164.5v375h-213v188z" />
    <glyph glyph-name="uni0249" unicode="&#x249;" horiz-adv-x="571" 
d="M449 1403q0 -73 -41 -114.5t-113 -41.5q-73 0 -113.5 41t-40.5 115q0 156 154 156q73 0 113.5 -40.5t40.5 -115.5zM76 -457q-62 0 -125.5 14t-93.5 33l20 181q90 -35 160 -35q137 0 137 164v446h-178v189h178v524h236v-524h168v-189h-168v-461q0 -175 -87.5 -258.5
t-246.5 -83.5z" />
    <glyph glyph-name="uni024A" unicode="&#x24a;" horiz-adv-x="1538" 
d="M668 -25q-130 0 -234.5 44t-181.5 132.5t-118.5 231.5t-41.5 332q0 383 169 588.5t454 205.5q238 0 405 -141l8 115h213v-1667q0 -45 13.5 -64.5t50.5 -19.5t80 14l8 -166q-72 -35 -166 -35q-89 0 -143 48t-54 151v416q-208 -185 -462 -185zM727 168q103 0 206 47
t169 115v870q-61 46 -149 80.5t-191 34.5q-94 0 -169 -32.5t-133 -101.5t-89 -185t-31 -273q0 -555 387 -555z" />
    <glyph glyph-name="uni024B" unicode="&#x24b;" horiz-adv-x="1196" 
d="M502 -25q-192 0 -301 130.5t-109 406.5q0 122 24.5 219.5t66.5 161.5t100 106.5t121.5 61t134.5 18.5q188 0 292 -110l15 90h207v-1059h-2v-143q0 -69 22 -104.5t74 -35.5q26 0 72 17l8 -162q-47 -27 -125 -27q-145 0 -203.5 77t-58.5 216v273l-4 2q-153 -138 -334 -138z
M578 160q64 0 127.5 32t111.5 80v539q-40 32 -100.5 57t-128.5 25q-252 0 -252 -379q0 -179 58 -266.5t184 -87.5z" />
    <glyph glyph-name="uni024C" unicode="&#x24c;" horiz-adv-x="1320" 
d="M0 786h186v697h537q107 0 191.5 -23t138.5 -61t89 -91.5t49.5 -111t14.5 -123.5q0 -160 -72.5 -263t-201.5 -153l354 -657h-260l-319 596h-283v-596h-238v602h-186v184zM655 788q143 0 223 61t80 208q0 127 -77 178t-232 51h-225v-498h231z" />
    <glyph glyph-name="uni024D" unicode="&#x24d;" horiz-adv-x="786" 
d="M2 520h160v539h198l19 -158q64 92 147 136t199 44q20 0 43 -2v-235q-99 12 -202 -18.5t-169 -90.5v-215h187v-188h-187v-332h-235v332h-160v188z" />
    <glyph glyph-name="uni024E" unicode="&#x24e;" horiz-adv-x="1236" 
d="M512 0v567l-301 543h-227v162h137l-117 211h262l113 -211h508l108 211h242l-113 -211h131v-162h-217l-286 -539l2 -571h-242zM635 795h4l164 315h-336z" />
    <glyph glyph-name="uni024F" unicode="&#x24f;" horiz-adv-x="1069" 
d="M-12 784h145l-102 275h254l90 -275h342l90 275h242q-96 -263 -101 -275h146v-186h-213q-52 -143 -148 -396t-127 -337q-64 -175 -146.5 -248.5t-221.5 -73.5q-55 0 -115.5 12.5t-97.5 28.5l22 176q94 -32 166 -32q57 0 99 33.5t73 111.5l43 111l-227 614h-213v186z
M545 264h2l108 334h-219z" />
    <glyph glyph-name="uni0250" unicode="&#x250;" horiz-adv-x="1120" 
d="M590 -27q-205 0 -304.5 88t-99.5 283v492q0 46 -12 64t-51 18q-20 0 -64 -13l-8 133q66 37 166 37q159 0 184 -139q129 143 330 143q76 0 134.5 -20t91 -49.5t53.5 -70t27.5 -74.5t6.5 -70q0 -80 -26.5 -142t-71 -101t-110 -64.5t-135.5 -36t-156 -13.5q-71 -3 -127 0
v-76q0 -107 33 -163q35 -56 153 -56q93 0 138 40.5t59 125.5l205 -35q-25 -151 -126 -226t-290 -75zM504 578q42 1 72 3.5t68 9t64 19t49.5 31.5t35.5 48.5t12 68.5q0 151 -156 151q-66 0 -131 -30.5t-102 -73.5v-223q62 -4 88 -4z" />
    <glyph glyph-name="uni0251" unicode="&#x251;" horiz-adv-x="1193" 
d="M502 -25q-192 0 -301 130.5t-109 406.5q0 122 24.5 219.5t66.5 161.5t100 106.5t121.5 61t134.5 18.5q188 0 292 -110l15 90h207v-1059h-197l-16 111l-4 2q-153 -138 -334 -138zM578 160q64 0 127.5 32t111.5 80v539q-40 32 -100.5 57t-128.5 25q-252 0 -252 -379
q0 -179 58 -266.5t184 -87.5z" />
    <glyph glyph-name="uni0252" unicode="&#x252;" horiz-adv-x="1200" 
d="M698 1083q194 0 302 -129.5t108 -406.5q0 -122 -24.5 -219.5t-66 -161.5t-99.5 -106.5t-121.5 -61t-134.5 -18.5q-183 0 -293 110l-15 -90h-207v1059h197l16 -111l5 -2q144 137 333 137zM623 899q-65 0 -129 -31.5t-111 -81.5v-538q110 -82 229 -82q252 0 252 379
q0 180 -57.5 267t-183.5 87z" />
    <glyph glyph-name="uni0253" unicode="&#x253;" horiz-adv-x="1200" 
d="M666 -25q-83 0 -161.5 33t-137.5 86h-5l-14 -94h-201v1180q0 387 381 387q110 0 199 -33l-8 -166q-50 18 -141 18q-104 0 -150.5 -46.5t-46.5 -149.5v-244q146 133 340 133q85 0 152.5 -28t121.5 -87.5t83.5 -164t29.5 -246.5q0 -278 -115.5 -428t-326.5 -150zM621 162
q243 0 243 389q0 174 -53 258t-174 84q-68 0 -138 -34.5t-116 -80.5v-520q125 -96 238 -96z" />
    <glyph glyph-name="uni0254" unicode="&#x254;" horiz-adv-x="1107" 
d="M516 -25q-189 0 -307 96.5t-131 278.5l217 31q24 -227 227 -227q258 0 258 374q0 194 -68 280.5t-184 86.5q-204 0 -241 -219l-201 39q27 179 154 271.5t311 92.5q124 0 217 -39.5t149 -112t83.5 -167.5t27.5 -213q0 -278 -135 -425t-377 -147z" />
    <glyph glyph-name="uni0256" unicode="&#x256;" horiz-adv-x="1202" 
d="M1135 -463q-152 0 -223.5 79t-71.5 245v250l-4 2q-141 -138 -334 -138q-192 0 -301 130.5t-109 406.5q0 122 24.5 219.5t66.5 161.5t100 106.5t121.5 61t134.5 18.5q166 0 278 -94v561h236v-1669q0 -80 25 -120t89 -40q57 0 125 27l37 -162q-107 -45 -194 -45zM578 160
q64 0 127.5 32t111.5 80v539q-40 32 -100.5 57t-128.5 25q-252 0 -252 -379q0 -179 58 -266.5t184 -87.5z" />
    <glyph glyph-name="uni0257" unicode="&#x257;" horiz-adv-x="1257" 
d="M502 -25q-192 0 -301 130.5t-109 406.5q0 122 24.5 219.5t66.5 161.5t100 106.5t121.5 61t134.5 18.5q166 0 278 -94v211q0 184 82 277.5t256 93.5q101 0 180 -31l-8 -166q-61 21 -121 21q-90 0 -121.5 -45t-31.5 -150v-1196h-197l-16 111l-4 2q-141 -138 -334 -138z
M578 160q64 0 127.5 32t111.5 80v539q-40 32 -100.5 57t-128.5 25q-252 0 -252 -379q0 -179 58 -266.5t184 -87.5z" />
    <glyph glyph-name="uni0259" unicode="&#x259;" horiz-adv-x="1120" 
d="M539 -25q-117 0 -204 34.5t-139.5 98.5t-78 148.5t-25.5 189.5q0 82 6 123h686q-1 177 -63 251.5t-184 74.5q-197 0 -238 -170l-199 43q30 150 151.5 230.5t303.5 80.5q477 0 477 -540q0 -143 -39.5 -254t-108.5 -177t-156 -99.5t-189 -33.5zM541 147q98 0 167 68.5
t72 208.5h-446q-6 -277 207 -277z" />
    <glyph glyph-name="uni025B" unicode="&#x25b;" horiz-adv-x="1132" 
d="M545 -25q-225 0 -343 86.5t-118 231.5q0 96 47.5 161t136.5 85v4q-70 26 -109.5 81.5t-39.5 137.5q0 66 25.5 121.5t77.5 100t140.5 70t206.5 25.5q225 0 342.5 -88.5t135.5 -285.5l-213 -31q-12 125 -72.5 178t-206.5 53q-101 0 -161 -38t-60 -113q0 -57 44 -93t148 -36
h176v-172h-186q-97 0 -149 -31.5t-52 -110.5q0 -80 61.5 -118.5t160.5 -38.5q147 0 223.5 51.5t93.5 163.5l199 -39q-54 -355 -508 -355z" />
    <glyph glyph-name="uni0260" unicode="&#x260;" horiz-adv-x="1241" 
d="M539 -457q-383 0 -430 273l210 57q19 -75 72 -111t154 -36q132 0 194 59.5t62 202.5v116q-140 -120 -320 -120q-191 0 -299 131t-108 405q0 119 25 215t67 159.5t100.5 105.5t122 60.5t133.5 18.5q180 0 291 -118v243q0 183 76 273t250 90q101 0 180 -31l-10 -166
q-58 21 -121 21q-89 0 -121.5 -44t-32.5 -145v-1202q0 -229 -122 -343t-373 -114zM559 168q65 0 129.5 32.5t112.5 80.5v522q-43 36 -104.5 63t-127.5 27q-250 0 -250 -377q0 -172 57 -260t183 -88z" />
    <glyph glyph-name="uni0263" unicode="&#x263;" horiz-adv-x="1058" 
d="M524 -502q-74 0 -130 22t-86.5 59.5t-45 79.5t-14.5 89q0 64 27.5 144.5t51 124t68.5 122.5l-401 920h252l291 -770l290 770h238l-397 -920q44 -68 71.5 -118t53.5 -127t26 -144q0 -106 -77 -179t-218 -73zM532 -348q55 0 84 31t29 84q0 102 -110 294
q-111 -196 -111 -292q0 -54 26.5 -85.5t81.5 -31.5z" />
    <glyph glyph-name="uni0264" unicode="&#x264;" horiz-adv-x="1251" 
d="M1067 1081q109 0 182 -32l-12 -177q-54 23 -150 23q-91 0 -167 -31.5t-158 -103.5q98 -92 170 -209q74 -121 74 -244q0 -140 -95 -235q-97 -97 -288 -97q-181 0 -274 86.5t-93 233.5q0 116 64.5 236t173.5 229q-83 70 -154.5 103.5t-161.5 33.5q-96 0 -166 -25l-10 177
q94 32 193 32q229 0 438 -196q107 98 211 147t223 49zM631 141q172 0 172 168q0 91 -48 180t-126 164q-78 -78 -126 -170.5t-48 -177.5q0 -77 45 -120.5t131 -43.5z" />
    <glyph glyph-name="uni0265" unicode="&#x265;" horiz-adv-x="1198" 
d="M1057 -436h-234v553q-174 -140 -354 -140q-168 0 -247 89.5t-79 271.5v721h236v-684q0 -103 41.5 -155t132.5 -52q72 0 147 36t121 79v776h236v-1495z" />
    <glyph glyph-name="uni0266" unicode="&#x266;" horiz-adv-x="1193" 
d="M145 1233q0 334 324 334q121 0 203 -33l-10 -166q-59 25 -123 25q-160 0 -160 -168v-285q173 139 354 139q168 0 247 -89t79 -271v-719h-236v684q0 105 -41 155t-133 50q-72 0 -147 -36t-121 -79v-774h-236v1233z" />
    <glyph glyph-name="uni0268" unicode="&#x268;" horiz-adv-x="602" 
d="M307 1251q-72 0 -112.5 40.5t-40.5 113.5q0 72 40.5 110.5t112.5 38.5q73 0 113.5 -39t40.5 -110q0 -73 -41 -113.5t-113 -40.5zM33 698h155v361h236v-361h145v-186h-145v-512h-236v512h-155v186z" />
    <glyph glyph-name="uni0269" unicode="&#x269;" horiz-adv-x="727" 
d="M465 -25q-159 0 -236 77.5t-77 238.5v768h235v-748q0 -77 30.5 -115t102.5 -38q75 0 129 32l37 -157q-90 -58 -221 -58z" />
    <glyph glyph-name="uni026A" unicode="&#x26a;" horiz-adv-x="921" 
d="M86 166h256v725h-256v168h750v-168h-258v-725h258v-166h-750v166z" />
    <glyph glyph-name="uni026C" unicode="&#x26c;" horiz-adv-x="978" 
d="M289 535q-131 0 -200 65.5t-69 175.5q0 102 64 165t184 63q101 0 172 -54v596h236v-762q120 55 282 156l17 -168q-146 -90 -299 -154v-618h-236v563q-73 -28 -151 -28zM190 778q0 -43 33 -67.5t86 -24.5q49 0 131 29v26q-17 66 -60 93.5t-93 27.5q-44 0 -70.5 -22
t-26.5 -62z" />
    <glyph glyph-name="uni026F" unicode="&#x26f;" horiz-adv-x="1767" 
d="M1628 1059v-1059h-203l-8 109q-167 -132 -346 -132q-101 0 -166 33t-100 105q-159 -138 -354 -138q-159 0 -233.5 89t-74.5 270v723h236v-688q0 -100 32 -148.5t115 -48.5q59 0 128.5 31.5t111.5 70.5q-2 16 -2 56v727h235v-688q0 -101 31.5 -149t114.5 -48q65 0 137 35
q70 37 111 72v778h235z" />
    <glyph glyph-name="uni0271" unicode="&#x271;" horiz-adv-x="1763" 
d="M1319 -457q-38 0 -86.5 8t-71.5 19l21 172q56 -16 102 -16q60 0 85.5 36.5t25.5 118.5v807q0 104 -31 152.5t-117 48.5q-59 0 -128 -32.5t-111 -72.5q2 -18 2 -59v-725h-236v688q0 105 -29.5 153t-115.5 48q-67 0 -137 -37q-70 -38 -111 -72v-780h-236v1059h203l10 -119
q176 139 344 139q201 0 269 -145q167 145 352 145q161 0 234 -88t73 -268v-842q0 -175 -79 -256.5t-232 -81.5z" />
    <glyph glyph-name="uni0272" unicode="&#x272;" horiz-adv-x="1193" 
d="M381 -131q0 -165 -85.5 -248.5t-250.5 -83.5q-130 0 -229 45l37 166q78 -29 143 -29q84 0 116.5 39t32.5 127v1174h209l11 -111q168 133 366 133q170 0 249 -89t79 -271v-721h-236v682q0 102 -41 152.5t-133 50.5q-72 0 -147 -35.5t-121 -77.5v-903z" />
    <glyph glyph-name="uni0275" unicode="&#x275;" horiz-adv-x="1191" 
d="M588 -25q-136 0 -235 41t-155.5 117t-83 172.5t-26.5 218.5q0 262 134 409.5t392 147.5q129 0 224.5 -38.5t153 -110t85 -167t27.5 -216.5q0 -272 -126 -423t-390 -151zM606 891q-115 0 -183 -64.5t-85 -205.5h516q-12 147 -72.5 208.5t-175.5 61.5zM600 158
q229 0 254 286h-516q13 -148 76.5 -217t185.5 -69z" />
    <glyph glyph-name="uni027D" unicode="&#x27d;" horiz-adv-x="770" 
d="M461 -463q-158 0 -237 76.5t-79 241.5v1204h199l18 -160q64 92 148 136.5t199 43.5q27 0 43 -2v-227q-99 12 -202 -18.5t-169 -90.5v-874q0 -76 31 -112t110 -36q44 0 94 15.5t86 36.5l39 -160q-42 -29 -121 -51.5t-159 -22.5z" />
    <glyph glyph-name="uni027E" unicode="&#x27e;" horiz-adv-x="747" 
d="M145 678q0 401 381 401q117 0 201 -32l-10 -166q-50 18 -131 18q-111 0 -158 -52.5t-47 -180.5v-666h-236v678z" />
    <glyph glyph-name="uni0283" unicode="&#x283;" horiz-adv-x="608" 
d="M66 -463q-128 0 -209 37l10 166q79 -27 145 -27q79 0 121.5 40t42.5 143v1316q0 179 90 267t254 88q128 0 209 -37l-8 -166q-79 27 -146 27q-79 0 -121 -40t-42 -143v-1314q0 -176 -91.5 -266.5t-254.5 -90.5z" />
    <glyph glyph-name="uni0288" unicode="&#x288;" horiz-adv-x="765" 
d="M504 -436q-158 0 -237 76t-79 239v1008h-161v172h161v307l236 33v-340h287v-172h-287v-979q0 -85 29.5 -123.5t111.5 -38.5q45 0 95 14.5t85 34.5l39 -157q-42 -29 -121 -51.5t-159 -22.5z" />
    <glyph glyph-name="uni0289" unicode="&#x289;" horiz-adv-x="1271" 
d="M506 -23q-164 0 -242 90t-78 269v199h-157v176h157v348h236v-348h432v348h236v-348h157v-176h-157v-535h-205l-17 127q-164 -150 -362 -150zM422 375q0 -104 37.5 -154.5t128.5 -50.5q71 0 146 36t120 77v252h-432v-160z" />
    <glyph glyph-name="uni028A" unicode="&#x28a;" horiz-adv-x="1218" 
d="M600 -25q-129 0 -229 36t-160.5 99.5t-91.5 144.5t-31 175q0 96 31 179t104.5 151.5t182.5 97.5v35h-281v166h436v-279q-231 -60 -231 -338q0 -132 71 -213.5t201 -81.5q145 0 216 89t71 221q0 265 -232 323v279h439v-166h-271v-37q305 -83 305 -399q0 -96 -33.5 -181.5
t-97.5 -153t-167 -107.5t-232 -40z" />
    <glyph glyph-name="uni028B" unicode="&#x28b;" horiz-adv-x="1161" 
d="M504 -23q-367 0 -367 363v719h236v-660q0 -100 16.5 -149.5t67.5 -65.5q49 -15 108 -6q75 9 132 53t90 112t49 147t16 167q0 139 -38 196.5t-124 57.5q-64 0 -106 -14l-6 156q70 26 167 26q168 0 247 -105t79 -312q0 -314 -154 -499.5t-413 -185.5z" />
    <glyph glyph-name="uni028C" unicode="&#x28c;" horiz-adv-x="1075" 
d="M399 1059h273l391 -1059h-254l-277 836h-4l-276 -836h-240z" />
    <glyph glyph-name="uni028E" unicode="&#x28e;" horiz-adv-x="1062" 
d="M4 0q28 75 192 518t242 660q78 221 160.5 305t232.5 84q55 0 117 -13t99 -28l-23 -170q-92 30 -166 30q-71 0 -115.5 -55t-99.5 -205l-18 -51l395 -1075h-252l-258 811h-2l-262 -811h-242z" />
    <glyph glyph-name="uni0292" unicode="&#x292;" horiz-adv-x="976" 
d="M414 -463q-178 0 -281.5 86.5t-122.5 243.5l199 39q28 -187 207 -187q129 0 198.5 82.5t69.5 212.5q0 135 -62.5 205t-203.5 70q-68 0 -168 -17v166l362 445h-503v176h757v-162l-385 -461q213 12 322.5 -98t109.5 -309q0 -216 -133 -354t-366 -138z" />
    <glyph glyph-name="uni0294" unicode="&#x294;" horiz-adv-x="1073" 
d="M309 770q83 8 154.5 31.5t133 65t97 108.5t35.5 153q0 125 -60.5 187.5t-162.5 62.5q-105 0 -167.5 -51.5t-86.5 -175.5l-223 37q26 172 147.5 275.5t343.5 103.5q92 0 172 -25t145 -75.5t102.5 -137t37.5 -199.5q0 -201 -118.5 -331.5t-319.5 -173.5v-625h-230v770z" />
    <glyph glyph-name="uni0295" unicode="&#x295;" horiz-adv-x="1073" 
d="M535 625q-192 34 -316 149q-123 117 -123 326q0 114 38 204t105 147t154.5 86.5t190.5 29.5q205 0 318.5 -103.5t139.5 -275.5l-223 -37q-29 121 -85 174t-146 53q-114 0 -180 -69.5t-66 -198.5q0 -74 24.5 -131.5t62.5 -93t96 -60.5t113.5 -36.5t125.5 -18.5v-770h-229
v625z" />
    <glyph glyph-name="uni0298" unicode="&#x298;" horiz-adv-x="1445" 
d="M713 -25q-158 0 -279 57t-197.5 162.5t-115.5 250.5t-39 325q0 380 173 588.5t488 208.5q312 0 466.5 -201t154.5 -567q0 -389 -167.5 -606.5t-483.5 -217.5zM723 152q97 0 174 35t135 108t89.5 195.5t31.5 289.5q0 169 -28.5 288.5t-84.5 189.5t-130 101.5t-173 31.5
q-81 0 -146.5 -19.5t-121.5 -64.5t-93.5 -115t-59 -176.5t-21.5 -243.5q0 -331 117 -475q118 -145 311 -145zM639 952h174v-340h-174v340z" />
    <glyph glyph-name="uni029D" unicode="&#x29d;" horiz-adv-x="768" 
d="M455 1251q-72 0 -112 40.5t-40 113.5q0 72 40 110.5t112 38.5q74 0 114.5 -38.5t40.5 -110.5q0 -73 -40.5 -113.5t-114.5 -40.5zM227 -457q-138 0 -216.5 71.5t-78.5 186.5q0 113 75 181.5t181 68.5q80 0 148 -24v1032h235v-1106q75 -31 156 -76l-16 -151q-51 31 -148 79
q-25 -128 -109.5 -195t-226.5 -67zM115 -178q0 -44 32 -69t74 -25q53 0 84 40t31 119q-62 23 -119 23q-43 0 -72.5 -21t-29.5 -67z" />
    <glyph glyph-name="uni02B0" unicode="&#x2b0;" horiz-adv-x="827" 
d="M549 717v432q0 117 -107 117q-41 0 -84.5 -19.5t-70.5 -42.5v-487h-191v1001h189v-377q95 78 229 78q223 0 223 -248v-454h-188z" />
    <glyph glyph-name="uni02B7" unicode="&#x2b7;" horiz-adv-x="1128" 
d="M8 1407h191l139 -508h4l133 508h189l133 -504h2l137 504h184l-217 -690h-213l-125 477h-2l-117 -477h-223z" />
    <glyph glyph-name="uni02BB" unicode="&#x2bb;" horiz-adv-x="1024" 
d="M371 1167l151 381l168 -24l-86 -357h-233z" />
    <glyph glyph-name="uni02BC" unicode="&#x2bc;" horiz-adv-x="421" 
d="M74 1118l43 428h231l-108 -452z" />
    <glyph glyph-name="uni02BE" unicode="&#x2be;" horiz-adv-x="352" 
d="M53 1282q94 0 94 98q0 95 -94 95v112q112 0 175 -52t63 -155q0 -100 -61 -154.5t-177 -54.5v111z" />
    <glyph glyph-name="circumflex" unicode="&#x2c6;" horiz-adv-x="1024" 
d="M512 1397l-170 -219l-168 14l223 338h228l223 -338l-166 -10z" />
    <glyph glyph-name="caron" unicode="&#x2c7;" horiz-adv-x="1024" 
d="M514 1305l172 217l162 -15l-223 -336h-228l-223 336l174 13z" />
    <glyph glyph-name="uni02C9" unicode="&#x2c9;" horiz-adv-x="1024" 
d="M205 1432h612v-170h-612v170z" />
    <glyph glyph-name="breve" unicode="&#x2d8;" horiz-adv-x="1024" 
d="M850 1491q-7 -159 -94.5 -240.5t-243.5 -81.5q-305 0 -317 318l163 18q10 -101 47.5 -141.5t114.5 -40.5q82 0 122.5 39.5t47.5 140.5z" />
    <glyph glyph-name="dotaccent" unicode="&#x2d9;" horiz-adv-x="1024" 
d="M666 1393q0 -75 -41 -115.5t-113 -40.5q-154 0 -154 156q0 73 40 113t114 40q72 0 113 -40t41 -113z" />
    <glyph glyph-name="ring" unicode="&#x2da;" horiz-adv-x="1024" 
d="M735 1380q0 -98 -61 -153.5t-162 -55.5t-162 54t-61 147q0 103 64.5 160t158.5 57q97 0 160 -54t63 -155zM510 1282q96 0 96 98q0 95 -94 95q-44 0 -71 -25.5t-27 -71.5q0 -96 96 -96z" />
    <glyph glyph-name="ogonek" unicode="&#x2db;" horiz-adv-x="1024" 
d="M766 -295q-31 -86 -102 -133t-158 -47q-100 0 -158.5 49.5t-58.5 136.5q0 175 241 334l129 -31q-53 -50 -75.5 -72.5t-53 -59t-42 -67t-11.5 -63.5q0 -76 72 -76q63 0 104 84z" />
    <glyph glyph-name="tilde" unicode="&#x2dc;" horiz-adv-x="1024" 
d="M365 1479q56 0 113 -23.5t107 -46.5t87 -23q38 0 53.5 20.5t15.5 80.5l131 -8q17 -122 -33 -193.5t-145 -71.5q-57 0 -116 24t-110 47.5t-87 23.5q-76 0 -68 -107l-135 6q-13 128 41 199.5t146 71.5z" />
    <glyph glyph-name="hungarumlaut" unicode="&#x2dd;" horiz-adv-x="1024" 
d="M268 1198l127 328h256l-225 -355zM555 1192l193 340h266l-295 -361z" />
    <glyph glyph-name="gravecomb" unicode="&#x300;" horiz-adv-x="0" 
d="M-297 1528h266l181 -334l-164 -23z" />
    <glyph glyph-name="acutecomb" unicode="&#x301;" horiz-adv-x="0" 
d="M-178 1194l180 334h266l-282 -357z" />
    <glyph glyph-name="uni0302" unicode="&#x302;" horiz-adv-x="0" 
d="M-344 1192l223 338h227l222 -338l-164 -10l-172 219l-168 -223z" />
    <glyph glyph-name="tildecomb" unicode="&#x303;" horiz-adv-x="0" 
d="M-352 1208q-13 128 40.5 198.5t145.5 70.5q56 0 113 -23.5t107 -46.5t87 -23q39 0 55.5 21t16.5 80l129 -6q17 -122 -32.5 -192t-145.5 -70q-57 0 -116.5 23t-110.5 46t-87 23t-53.5 -23t-11.5 -82z" />
    <glyph glyph-name="uni0304" unicode="&#x304;" horiz-adv-x="0" 
d="M-315 1432h612v-168h-612v168z" />
    <glyph glyph-name="uni0306" unicode="&#x306;" horiz-adv-x="0" 
d="M-10 1174q-150 0 -232 78t-86 237l164 18q10 -101 48 -142.5t114 -41.5q81 0 122 41t48 143l160 -12q-7 -158 -95 -239.5t-243 -81.5z" />
    <glyph glyph-name="uni0307" unicode="&#x307;" horiz-adv-x="0" 
d="M0 1239q-72 0 -112 40.5t-40 113.5q0 72 40 110.5t112 38.5q74 0 115 -38.5t41 -110.5q0 -73 -41 -113.5t-115 -40.5z" />
    <glyph glyph-name="uni0308" unicode="&#x308;" horiz-adv-x="0" 
d="M-72 1382q0 -67 -41 -106t-108 -39q-68 0 -110 39t-42 106q0 66 42 105t110 39q67 0 108 -39.5t41 -104.5zM379 1382q0 -67 -41.5 -106t-108.5 -39q-69 0 -110 39t-41 106q0 66 41 105t110 39q67 0 108.5 -39.5t41.5 -104.5z" />
    <glyph glyph-name="hookabovecomb" unicode="&#x309;" horiz-adv-x="0" 
d="M-76 1167q0 68 22.5 108.5t61.5 72.5q17 16 24.5 24t16 23t8.5 30q0 52 -63 52q-21 0 -35.5 -7t-22 -21t-10.5 -23.5t-6 -26.5l-149 14q7 43 18.5 73t35.5 59t69.5 44t111.5 15q108 0 161.5 -48t53.5 -120q0 -79 -67 -140q-27 -24 -39 -37.5t-22 -37.5t-9 -54h-160z" />
    <glyph glyph-name="uni030A" unicode="&#x30a;" horiz-adv-x="0" 
d="M-2 1171q-99 0 -160 54t-61 147q0 103 63.5 159t157.5 56q98 0 160.5 -53t62.5 -154q0 -98 -61 -153.5t-162 -55.5zM-2 1282q44 0 70 27t26 71q0 46 -25.5 70.5t-70.5 24.5q-43 0 -70.5 -25.5t-27.5 -71.5q0 -96 98 -96z" />
    <glyph glyph-name="uni030B" unicode="&#x30b;" horiz-adv-x="0" 
d="M16 1194l193 338h266l-295 -361zM-268 1198l127 328h256l-226 -355z" />
    <glyph glyph-name="uni030C" unicode="&#x30c;" horiz-adv-x="0" 
d="M-338 1507l174 13l164 -220l172 222l162 -15l-221 -336h-228z" />
    <glyph glyph-name="uni030D" unicode="&#x30d;" horiz-adv-x="0" 
d="M-106 1575h210l-20 -383h-170z" />
    <glyph glyph-name="uni030F" unicode="&#x30f;" horiz-adv-x="0" 
d="M-506 1532h266l193 -338l-164 -23zM-145 1526h258l127 -328l-158 -27z" />
    <glyph glyph-name="uni0311" unicode="&#x311;" horiz-adv-x="0" 
d="M-328 1184q7 157 95 238t243 81q306 0 318 -315l-164 -19q-7 102 -46 143.5t-116 41.5q-78 0 -119 -41t-51 -142z" />
    <glyph glyph-name="uni0312" unicode="&#x312;" horiz-adv-x="0" 
d="M-141 1167l151 381l168 -24l-86 -357h-233z" />
    <glyph glyph-name="uni0315" unicode="&#x315;" horiz-adv-x="0" 
d="M203 1548l-152 -383l-168 25l86 358h234z" />
    <glyph glyph-name="uni031B" unicode="&#x31b;" horiz-adv-x="0" 
d="M381 883q41 5 67.5 15.5t42 24.5t22.5 42.5t9 55t2 77.5v98h181v-92q0 -94 -13.5 -154.5t-49 -106t-99 -67.5t-162.5 -26v133z" />
    <glyph glyph-name="dotbelowcomb" unicode="&#x323;" horiz-adv-x="0" 
d="M0 -440q-73 0 -113.5 39.5t-40.5 111.5q0 152 154 152q73 0 113.5 -39.5t40.5 -112.5q0 -72 -41 -111.5t-113 -39.5z" />
    <glyph glyph-name="uni0324" unicode="&#x324;" horiz-adv-x="0" 
d="M217 -440q-64 0 -103.5 36t-39.5 97q0 60 40 96.5t103 36.5q66 0 104.5 -36.5t38.5 -96.5q0 -61 -38.5 -97t-104.5 -36zM-217 -440q-64 0 -103.5 36t-39.5 97q0 60 40 96.5t103 36.5q66 0 104.5 -36.5t38.5 -96.5q0 -61 -38.5 -97t-104.5 -36z" />
    <glyph glyph-name="uni0325" unicode="&#x325;" horiz-adv-x="0" 
d="M-2 -530q-102 0 -163.5 53.5t-61.5 148.5q0 104 64.5 161.5t160.5 57.5q99 0 163 -53.5t64 -154.5t-61.5 -157t-165.5 -56zM-2 -422q100 0 100 107q0 98 -100 98q-46 0 -74 -26.5t-28 -75.5q0 -103 102 -103z" />
    <glyph glyph-name="uni0326" unicode="&#x326;" horiz-adv-x="0" 
d="M158 -139l-152 -383l-168 24l86 359h234z" />
    <glyph glyph-name="uni0327" unicode="&#x327;" horiz-adv-x="0" 
d="M-170 -317q71 -23 107 -23q102 0 102 84q0 48 -33.5 67t-109.5 21l32 229l129 -16l-18 -123q166 -30 166 -182q0 -98 -68.5 -156.5t-173.5 -58.5q-88 0 -168 37z" />
    <glyph glyph-name="uni0328" unicode="&#x328;" horiz-adv-x="0" 
d="M238 -295q-31 -86 -102.5 -133t-158.5 -47q-100 0 -158.5 49.5t-58.5 136.5q0 174 242 334l129 -31q-53 -50 -75.5 -72.5t-53 -59t-42 -67t-11.5 -63.5q0 -76 71 -76q64 0 105 84z" />
    <glyph glyph-name="uni0329" unicode="&#x329;" horiz-adv-x="0" 
d="M-106 -129h210l-20 -383h-170z" />
    <glyph glyph-name="uni032D" unicode="&#x32d;" horiz-adv-x="0" 
d="M-338 -442l223 309h228l221 -309l-166 -13l-170 191l-168 -193z" />
    <glyph glyph-name="uni032E" unicode="&#x32e;" horiz-adv-x="0" 
d="M334 -178q-7 -159 -94.5 -240.5t-243.5 -81.5q-306 0 -318 318l164 18q10 -101 47.5 -141.5t114.5 -40.5q82 0 122.5 39.5t47.5 140.5z" />
    <glyph glyph-name="uni032F" unicode="&#x32f;" horiz-adv-x="0" 
d="M-334 -487q7 159 94.5 240t243.5 81q306 0 318 -317l-164 -19q-7 100 -46 141.5t-116 41.5q-78 0 -119 -40t-51 -141z" />
    <glyph glyph-name="uni0330" unicode="&#x330;" horiz-adv-x="0" 
d="M-338 -424q-13 126 40.5 196t145.5 70q56 0 113.5 -23t107.5 -46t87 -23q39 0 55 20.5t16 79.5l129 -6q17 -122 -32.5 -191t-145.5 -69q-56 0 -114.5 23t-109.5 46t-89 23q-76 0 -66 -106z" />
    <glyph glyph-name="uni0331" unicode="&#x331;" horiz-adv-x="0" 
d="M-307 -209h612v-166h-612v166z" />
    <glyph glyph-name="uni0332" unicode="&#x332;" horiz-adv-x="0" 
d="M-377 -209h752v-166h-752v166z" />
    <glyph glyph-name="uni0335" unicode="&#x335;" horiz-adv-x="0" 
d="M-551 645h549v-166h-549v166z" />
    <glyph glyph-name="uni0337" unicode="&#x337;" horiz-adv-x="0" 
d="M215 1171h197l-627 -1249h-197z" />
    <glyph glyph-name="uni0338" unicode="&#x338;" horiz-adv-x="0" 
d="M297 1307h197l-770 -1565h-197z" />
    <glyph glyph-name="uni0394" unicode="&#x394;" horiz-adv-x="1435" 
d="M1352 135v-135h-1268v133l469 1350h305zM702 1262l-352 -1061h719l-362 1061h-5z" />
    <glyph glyph-name="uni03A9" unicode="&#x3a9;" horiz-adv-x="1613" 
d="M817 1307q-115 0 -204 -36t-144 -100t-83 -146.5t-28 -180.5q0 -204 97 -320t254 -149v-375h-553v184h344v78q-179 62 -284 212.5t-105 371.5q0 133 42.5 250t126 210.5t222.5 148t317 54.5q140 0 254.5 -35.5t193.5 -97t133 -146t78.5 -180t24.5 -202.5
q0 -72 -11 -138.5t-39 -135.5t-71 -126t-111.5 -106t-156.5 -80v-78h342v-184h-551v375q172 35 261 157t89 316q0 211 -114 335t-324 124z" />
    <glyph glyph-name="uni03BC" unicode="&#x3bc;" horiz-adv-x="1247" 
d="M1014 -20q-81 0 -126 28.5t-61 108.5q-73 -65 -144.5 -102.5t-170.5 -37.5q-82 0 -137 41v-452h-228v1493h234v-688q0 -106 41.5 -150.5t116.5 -44.5q145 0 274 111v772h236v-836q0 -46 13 -64t50 -18q20 0 64 13l8 -140q-77 -34 -170 -34z" />
    <glyph glyph-name="pi" unicode="&#x3c0;" horiz-adv-x="1308" 
d="M483 870l-110 -870h-234l117 870h-207v189h1194v-189h-199v-645q0 -84 78 -84q30 0 74 13l8 -140q-74 -34 -170 -34q-215 0 -215 239v651h-336z" />
    <glyph glyph-name="uni1D7D" unicode="&#x1d7d;" horiz-adv-x="1222" 
d="M2 625h162v434h203l12 -113q144 135 354 135q81 0 147 -25t119.5 -77.5t85 -142t37.5 -211.5h125v-183h-129q-24 -238 -141 -352.5t-291 -114.5q-166 0 -295 103v-512h-227v876h-162v183zM397 776v-151h480q-10 138 -65 201t-157 63q-70 0 -140 -33.5t-118 -79.5z
M397 262q43 -34 107.5 -64t130.5 -30q208 0 237 274h-475v-180z" />
    <glyph glyph-name="uni1E00" unicode="&#x1e00;" horiz-adv-x="1421" 
d="M1370 0h-262l-139 406h-539l-135 -406h-244l494 1483h305zM694 1262l-217 -656h436l-215 656h-4zM705 -530q-102 0 -164 53.5t-62 148.5q0 104 65 161.5t161 57.5q99 0 163 -53.5t64 -154.5t-61.5 -157t-165.5 -56zM705 -422q100 0 100 107q0 98 -100 98
q-46 0 -74.5 -26.5t-28.5 -75.5q0 -103 103 -103z" />
    <glyph glyph-name="uni1E01" unicode="&#x1e01;" horiz-adv-x="1126" 
d="M954 223q0 -44 13.5 -63t50.5 -19q19 0 63 13l9 -140q-77 -34 -166 -34q-80 0 -122.5 30.5t-56.5 93.5q-56 -60 -142.5 -94.5t-192.5 -34.5q-76 0 -134.5 20t-91.5 50t-54 70.5t-27.5 75t-6.5 69.5q0 99 40.5 172t113.5 114t163 60t201 19q55 0 109 -4v79
q0 106 -37 154.5t-147 48.5q-93 0 -135 -38t-60 -126l-207 37q25 152 127 228.5t293 76.5q205 0 301 -86.5t96 -281.5v-490zM725 459q-36 4 -98 4q-54 0 -96.5 -5t-91 -21t-76 -52.5t-27.5 -91.5q0 -141 158 -141q67 0 129.5 28.5t101.5 69.5v209zM555 -530
q-102 0 -163.5 53.5t-61.5 148.5q0 104 64.5 161.5t160.5 57.5q99 0 163 -53.5t64 -154.5t-61.5 -157t-165.5 -56zM555 -422q100 0 100 107q0 98 -100 98q-46 0 -74 -26.5t-28 -75.5q0 -103 102 -103z" />
    <glyph glyph-name="uni1E02" unicode="&#x1e02;" horiz-adv-x="1304" 
d="M178 1483h545q128 0 218 -27t139 -78.5t70 -113.5t21 -144q0 -144 -82 -229.5t-212 -116.5v-6q350 -39 350 -362q0 -406 -553 -406h-496v1483zM635 193q64 0 111.5 5t92.5 19.5t73.5 39.5t45.5 66.5t17 98.5q0 235 -303 235h-256v-464h219zM592 852q340 0 340 233
q0 52 -13 89t-35 59.5t-59.5 35t-78.5 17t-99 4.5h-231v-438h176zM788 1749q0 -73 -40.5 -114.5t-112.5 -41.5q-73 0 -113.5 41t-40.5 115q0 73 40.5 113.5t113.5 40.5q72 0 112.5 -40.5t40.5 -113.5z" />
    <glyph glyph-name="uni1E03" unicode="&#x1e03;" horiz-adv-x="1200" 
d="M147 1546h232v-590q137 125 342 125q84 0 152.5 -28.5t122 -88.5t83 -164t29.5 -245q0 -152 -33.5 -265.5t-94.5 -181t-139.5 -100.5t-174.5 -33q-168 0 -299 115l-5 -2l-14 -88h-201v1546zM383 262q117 -90 238 -90q243 0 243 379q0 169 -53.5 253.5t-173.5 84.5
q-67 0 -136.5 -34t-117.5 -79v-514zM850 1386q0 -73 -39 -112t-109 -39q-147 0 -147 151q0 71 38.5 109.5t108.5 38.5t109 -38.5t39 -109.5z" />
    <glyph glyph-name="uni1E04" unicode="&#x1e04;" horiz-adv-x="1292" 
d="M178 1483h545q128 0 218 -27t139 -78.5t70 -113.5t21 -144q0 -144 -82 -229.5t-212 -116.5v-6q350 -39 350 -362q0 -406 -553 -406h-496v1483zM635 193q64 0 111.5 5t92.5 19.5t73.5 39.5t45.5 66.5t17 98.5q0 235 -303 235h-256v-464h219zM592 852q340 0 340 233
q0 52 -13 89t-35 59.5t-59.5 35t-78.5 17t-99 4.5h-231v-438h176zM635 -440q-73 0 -113.5 39.5t-40.5 111.5q0 152 154 152q72 0 112.5 -39.5t40.5 -112.5q0 -72 -40.5 -111.5t-112.5 -39.5z" />
    </font>
</defs>
</svg>
