<?xml version="1.0" standalone="no"?>
<!DOCTYPE svg PUBLIC "-//W3C//DTD SVG 1.1//EN" "http://www.w3.org/Graphics/SVG/1.1/DTD/svg11.dtd" >
<svg xmlns="http://www.w3.org/2000/svg" xmlns:xlink="http://www.w3.org/1999/xlink" version="1.1">
<metadata>
Created by FontForge 20170731 at Mon Nov  2 15:35:00 2020
 By Aleksey,,,
Copyright (c) 2012 Veronika Burian, Jose Scaglione. All rights reserved.
</metadata>
<defs>
<font id="AdelleSansEXT-Thin" horiz-adv-x="1167" >
  <font-face 
    font-family="Adelle Sans EXT Thin"
    font-weight="250"
    font-stretch="expanded"
    units-per-em="2048"
    panose-1="2 11 3 5 0 0 0 0 0 0"
    ascent="1638"
    descent="-410"
    x-height="1040"
    cap-height="1483"
    bbox="-477 -596 2583 2298"
    underline-thickness="145"
    underline-position="-659"
    unicode-range="U+000D-FB06"
  />
<missing-glyph 
d="M205 1483h758v-1483h-758v1483zM266 1421v-1290l600 1290h-600zM901 61v1291l-600 -1289z" />
    <glyph glyph-name="fi" unicode="fi" horiz-adv-x="1103" 
d="M817 0v952h-506v-952h-100v952h-164v88h164v209q0 314 258 314q94 0 162 -31l-6 -82q-79 27 -150 27q-164 0 -164 -195v-242h607v-1040h-101zM967 1386q0 -86 -95 -86q-94 0 -94 86q0 89 94 89q95 0 95 -89z" />
    <glyph glyph-name="fl" unicode="fl" horiz-adv-x="1103" 
d="M817 0v1546h101v-1546h-101zM625 1450q-79 27 -150 27q-164 0 -164 -195v-242h299v-88h-299v-952h-100v952h-164v88h164v209q0 314 258 314q94 0 162 -31z" />
    <glyph glyph-name="f_f" unicode="ff" horiz-adv-x="1220" 
d="M817 1040v209q0 314 258 314q94 0 162 -31l-6 -82q-79 27 -150 27q-163 0 -163 -195v-242h299v-88h-299v-952h-101v952h-506v-952h-100v952h-164v88h164v209q0 314 258 314q94 0 162 -31l-6 -82q-79 27 -150 27q-164 0 -164 -195v-242h506z" />
    <glyph glyph-name="f_k" unicode="fk" horiz-adv-x="1658" 
d="M1438 1040h121l-369 -383l395 -657h-108l-359 586l-200 -203v-383h-101v1546h101v-1044zM211 1040v209q0 314 258 314q94 0 162 -31l-6 -82q-79 27 -150 27q-164 0 -164 -195v-242h299v-88h-299v-952h-100v952h-164v88h164z" />
    <glyph glyph-name="f_b" unicode="fb" horiz-adv-x="1810" 
d="M918 809v-619q152 -122 321 -122q89 0 154.5 35.5t104.5 102t57 153.5t18 198q0 118 -19.5 199.5t-58.5 128.5t-91 67.5t-124 20.5q-100 0 -203.5 -52t-158.5 -112zM817 1546h98v-637q182 152 381 152q89 0 157 -27t119 -86.5t78 -160t27 -240.5q0 -148 -34.5 -260
t-96 -179t-140.5 -100t-175 -33q-85 0 -169.5 32.5t-146.5 80.5l-8 -88h-90v1546zM211 1040v209q0 314 258 314q94 0 162 -31l-6 -82q-79 27 -150 27q-164 0 -164 -195v-242h299v-88h-299v-952h-100v952h-164v88h164z" />
    <glyph glyph-name="f_h" unicode="fh" horiz-adv-x="1810" 
d="M1530 0v696q0 136 -53 203.5t-181 67.5q-100 0 -208 -51.5t-170 -108.5v-807h-101v1546h101v-639q212 154 397 154q163 0 239 -90.5t76 -270.5v-700h-100zM211 1040v209q0 314 258 314q94 0 162 -31l-6 -82q-79 27 -150 27q-164 0 -164 -195v-242h299v-88h-299v-952h-100
v952h-164v88h164z" />
    <glyph glyph-name="f_t" unicode="ft" horiz-adv-x="1345" 
d="M1305 37q-36 -26 -102 -44t-122 -18q-141 0 -202.5 62.5t-61.5 200.5v714h-506v-952h-100v952h-164v88h164v209q0 314 258 314q94 0 162 -31l-6 -82q-79 27 -150 27q-164 0 -164 -195v-242h506v297l101 17v-314h294v-88h-294v-694q0 -103 35 -151t134 -48q44 0 97 17
t92 39z" />
    <glyph glyph-name="f_j" unicode="fj" horiz-adv-x="1095" 
d="M672 -457q-27 0 -81 10t-79 21l18 88q70 -24 146 -24q69 0 104 41t35 131v1142h-504v-952h-100v952h-164v88h164v209q0 314 258 314q94 0 162 -31l-6 -82q-79 27 -150 27q-164 0 -164 -195v-242h604v-1222q0 -141 -58.5 -208t-184.5 -67zM967 1411q0 -86 -95 -86
q-94 0 -94 86q0 88 94 88q95 0 95 -88z" />
    <glyph glyph-name="f_f_j" unicode="ffj" horiz-adv-x="1708" 
d="M1284 -457q-27 0 -81 10t-79 21l19 88q71 -24 145 -24q69 0 104 41t35 131v1142h-509v-952h-101v952h-506v-952h-100v952h-164v88h164v209q0 314 258 314q94 0 162 -31l-6 -82q-79 27 -150 27q-164 0 -164 -195v-242h506v209q0 314 258 314q94 0 162 -31l-6 -82
q-79 27 -150 27q-163 0 -163 -195v-242h610v-1222q0 -141 -58.5 -208t-185.5 -67zM1579 1411q0 -86 -94 -86t-94 86q0 88 94 88t94 -88z" />
    <glyph glyph-name="f_f_i" unicode="ffi" horiz-adv-x="1712" 
d="M1231 1450q-79 27 -150 27q-163 0 -163 -195v-242h299v-88h-299v-952h-101v952h-506v-952h-100v952h-164v88h164v209q0 314 264 314q94 0 162 -31l-4 -82q-79 27 -154 27q-80 0 -124 -44t-44 -153v-240h506v209q0 314 258 314q94 0 162 -31zM1425 0v1040h101v-1040h-101z
M1575 1386q0 -86 -94 -86q-95 0 -95 86q0 89 95 89q94 0 94 -89z" />
    <glyph glyph-name="f_f_l" unicode="ffl" horiz-adv-x="1710" 
d="M1231 1450q-79 27 -150 27q-163 0 -163 -195v-242h299v-88h-299v-952h-101v952h-506v-952h-100v952h-164v88h164v209q0 314 258 314q94 0 162 -31l-6 -82q-79 27 -150 27q-164 0 -164 -195v-242h506v209q0 314 258 314q94 0 162 -31zM1423 0v1546h101v-1546h-101z" />
    <glyph glyph-name="f_f_k" unicode="ffk" horiz-adv-x="2267" 
d="M1231 1450q-79 27 -150 27q-163 0 -163 -195v-242h299v-88h-299v-952h-101v952h-506v-952h-100v952h-164v88h164v209q0 314 264 314q94 0 162 -31l-4 -82q-79 27 -154 27q-80 0 -124 -44t-44 -153v-240h506v209q0 314 258 314q94 0 162 -31zM2046 1040h121l-369 -383
l395 -657h-108l-359 586l-200 -203v-383h-101v1546h101v-1044z" />
    <glyph glyph-name="f_f_b" unicode="ffb" horiz-adv-x="2418" 
d="M1425 1546h99v-637q182 152 381 152q89 0 157 -27t119 -86.5t78 -160t27 -240.5q0 -148 -34.5 -260t-96.5 -179t-141 -100t-175 -33q-85 0 -169 32.5t-146 80.5l-8 -88h-91v1546zM1526 190q152 -122 321 -122q89 0 154.5 35.5t104.5 102t57 153.5t18 198
q0 118 -19.5 199.5t-58.5 128.5t-91 67.5t-124 20.5q-100 0 -203.5 -52t-158.5 -112v-619zM1231 1450q-79 27 -150 27q-163 0 -163 -195v-242h299v-88h-299v-952h-101v952h-506v-952h-100v952h-164v88h164v209q0 314 258 314q94 0 162 -31l-6 -82q-79 27 -150 27
q-164 0 -164 -195v-242h506v209q0 314 258 314q94 0 162 -31z" />
    <glyph glyph-name="f_f_h" unicode="ffh" horiz-adv-x="2418" 
d="M1231 1450q-79 27 -150 27q-163 0 -163 -195v-242h299v-88h-299v-952h-101v952h-506v-952h-100v952h-164v88h164v209q0 314 258 314q94 0 162 -31l-6 -82q-79 27 -150 27q-164 0 -164 -195v-242h506v209q0 314 258 314q94 0 162 -31zM2138 0v696q0 136 -52.5 203.5
t-180.5 67.5q-100 0 -208.5 -51.5t-170.5 -108.5v-807h-101v1546h101v-639q212 154 397 154q163 0 239 -90.5t76 -270.5v-700h-100z" />
    <glyph glyph-name="f_f_t" unicode="fft" horiz-adv-x="1951" 
d="M625 1450q-79 27 -150 27q-164 0 -164 -195v-242h506v209q0 314 258 314q94 0 162 -31l-6 -82q-79 27 -150 27q-163 0 -163 -195v-242h505v297l101 17v-314h295v-88h-295v-694q0 -102 35 -150.5t135 -48.5q44 0 96.5 16.5t91.5 39.5l29 -78q-36 -26 -101.5 -44
t-121.5 -18q-141 0 -203 62.5t-62 200.5v714h-505v-952h-101v952h-506v-952h-100v952h-164v88h164v209q0 314 258 314q94 0 162 -31z" />
    <glyph glyph-name="f_iacute" unicode="f&#xed;" horiz-adv-x="1103" 
d="M625 1450q-79 27 -150 27q-164 0 -164 -195v-242h607v-1040h-101v952h-506v-952h-100v952h-164v88h164v209q0 314 258 314q94 0 162 -31zM758 1200l231 338h148l-295 -367z" />
    <glyph glyph-name="idieresis_idieresis" unicode="&#xef;&#xef;" horiz-adv-x="954" 
d="M1001 1395q0 -86 -94 -86t-94 86q0 88 94 88t94 -88zM584 1395q0 -86 -95 -86q-94 0 -94 86q0 88 94 88q95 0 95 -88zM145 1395q0 -86 -94 -86t-94 86q0 88 94 88t94 -88zM201 0v1040h100v-1040h-100zM662 0v1040h100v-1040h-100z" />
    <glyph glyph-name="t_t" unicode="tt" horiz-adv-x="1409" 
d="M1368 37q-36 -26 -101.5 -44t-121.5 -18q-141 0 -202.5 62.5t-61.5 200.5v714h-564v-694q0 -102 35 -150.5t135 -48.5q44 0 97 17t92 39l29 -78q-36 -26 -102 -44t-122 -18q-141 0 -202.5 62.5t-61.5 200.5v714h-166v88h166v297l100 17v-314h564v297l100 17v-314h295v-88
h-295v-694q0 -102 35 -150.5t135 -48.5q44 0 96.5 16.5t91.5 39.5z" />
    <glyph glyph-name=".notdef" 
d="M205 1483h758v-1483h-758v1483zM266 1421v-1290l600 1290h-600zM901 61v1291l-600 -1289z" />
    <glyph glyph-name=".null" horiz-adv-x="0" 
 />
    <glyph glyph-name="nonmarkingreturn" horiz-adv-x="682" 
 />
    <glyph glyph-name="CR" unicode="&#xd;" horiz-adv-x="1024" 
 />
    <glyph glyph-name="space" unicode=" " horiz-adv-x="495" 
 />
    <glyph glyph-name="exclam" unicode="!" horiz-adv-x="509" 
d="M193 1483h120l-24 -1116h-66zM362 80q0 -105 -106 -105q-104 0 -104 105q0 102 104 102q106 0 106 -102z" />
    <glyph glyph-name="quotedbl" unicode="&#x22;" horiz-adv-x="759" 
d="M496 1483h120v-531h-120v531zM143 1483h121v-531h-121v531z" />
    <glyph glyph-name="numbersign" unicode="#" horiz-adv-x="1243" 
d="M735 303h-297l-47 -303h-90l43 303h-268l24 78h260l62 389h-266l20 80h260l43 262h88l-41 -262h293l39 262h90l-37 -262h267l-19 -80h-262l-57 -389h262l-19 -78h-258l-45 -303h-90zM514 770l-63 -389h297l59 389h-293z" />
    <glyph glyph-name="dollar" unicode="$" horiz-adv-x="1054" 
d="M834 1085q-25 124 -78.5 195t-167.5 82v-600q45 -14 75.5 -24.5t71.5 -28t68 -36t56 -47t46 -60.5t28 -76.5t11 -96.5q0 -157 -92.5 -255t-261.5 -115v-185h-82v180q-179 6 -287.5 94t-134.5 283l98 25q31 -156 102.5 -231.5t215.5 -82.5v582q-41 13 -60.5 19t-57.5 20
t-57.5 24.5t-50 29.5t-47 37.5t-37 46t-30.5 58t-17.5 70.5t-7.5 86q0 88 30.5 158t83 114.5t116.5 70.5t137 32v168h84v-168q151 -17 235.5 -100.5t110.5 -247.5zM242 1081q0 -53 14.5 -96t36.5 -71.5t58 -53.5t69.5 -40t81.5 -32v574q-58 -3 -104 -21.5t-74.5 -45.5
t-47.5 -63t-26.5 -73t-7.5 -78zM836 377q0 65 -18.5 113.5t-56 80.5t-76.5 52t-97 39v-553q114 14 181 81.5t67 186.5z" />
    <glyph glyph-name="percent" unicode="%" horiz-adv-x="1597" 
d="M420 766q-85 0 -148.5 30t-98.5 82.5t-52 114t-17 133.5q0 170 88 276.5t244 106.5q158 0 235 -95t77 -261q0 -172 -86 -279.5t-242 -107.5zM424 854q61 0 104 23t65.5 65t32 91t9.5 112q0 274 -203 274q-49 0 -88 -18t-63 -46.5t-39 -67.5t-21 -76t-6 -76
q0 -281 209 -281zM1161 -25q-86 0 -149 30t-98 82.5t-51.5 114t-16.5 134.5q0 170 88 276.5t244 106.5q158 0 234.5 -95.5t76.5 -261.5q0 -172 -86 -279.5t-242 -107.5zM1165 63q61 0 104 23t65.5 65t32 91t9.5 112q0 275 -202 275q-61 0 -106 -27t-68 -71t-33.5 -90.5
t-10.5 -96.5q0 -281 209 -281zM1182 1483h104l-899 -1520h-104z" />
    <glyph glyph-name="ampersand" unicode="&#x26;" horiz-adv-x="1368" 
d="M920 1155q0 -66 -26 -126.5t-94 -122t-173 -105.5l-109 -49q168 -292 402 -547q122 153 135 471h90q-10 -343 -160 -524q117 -105 207 -105q41 0 104 29l31 -64q-51 -39 -133 -39q-78 0 -136 28.5t-130 88.5q-147 -115 -361 -115q-185 0 -310.5 109t-125.5 283
q0 146 66.5 243.5t201.5 173.5q-42 83 -63 149.5t-21 147.5q0 142 90.5 243t239.5 101q37 0 71 -5.5t72.5 -23t66.5 -45.5t46.5 -78.5t18.5 -117.5zM573 57q173 0 295 88q-216 222 -428 568q-103 -57 -159 -134t-56 -196q0 -63 22.5 -120.5t65 -104t110 -74t150.5 -27.5z
M637 1343q-101 0 -163 -70t-62 -188q0 -71 16.5 -128t52.5 -138l97 43q243 111 243 291q0 92 -46.5 141t-137.5 49z" />
    <glyph glyph-name="quotesingle" unicode="'" horiz-adv-x="407" 
d="M143 1483h121v-531h-121v531z" />
    <glyph glyph-name="parenleft" unicode="(" horiz-adv-x="583" 
d="M418 -311q-63 102 -107 188t-89.5 199t-69 238.5t-23.5 258.5q0 131 26.5 264.5t73 250.5t96.5 212t109 183h103q-155 -256 -232.5 -478t-77.5 -432q0 -130 20 -247.5t61.5 -228t88.5 -202t117 -208.5z" />
    <glyph glyph-name="parenright" unicode=")" horiz-adv-x="583" 
d="M96 1483h103q59 -85 109.5 -181.5t96.5 -213.5t72.5 -250.5t26.5 -264.5q0 -132 -23.5 -258.5t-67 -238t-90 -201t-108.5 -186.5l-96 -2q70 117 117 208.5t88.5 202t61.5 228t20 247.5q0 212 -77 434.5t-233 475.5z" />
    <glyph glyph-name="asterisk" unicode="*" horiz-adv-x="956" 
d="M821 1311l15 -39l-261 -131l173 -269l-37 -24l-232 219l-227 -223l-35 26l170 269l-266 131l18 39l283 -72l41 309h43l35 -309z" />
    <glyph glyph-name="plus" unicode="+" 
d="M535 612h-330v97h330v323h98v-323h330v-97h-330v-338h-98v338z" />
    <glyph glyph-name="comma" unicode="," horiz-adv-x="409" 
d="M289 168l-154 -418l-78 14l105 404h127z" />
    <glyph glyph-name="hyphen" unicode="-" horiz-adv-x="651" 
d="M41 659h555v-104h-555v104z" />
    <glyph glyph-name="period" unicode="." horiz-adv-x="428" 
d="M317 76q0 -101 -104 -101q-48 0 -75 25.5t-27 75.5q0 49 27 73.5t75 24.5q104 0 104 -98z" />
    <glyph glyph-name="slash" unicode="/" horiz-adv-x="684" 
d="M586 1546h90l-574 -1734h-92z" />
    <glyph glyph-name="zero" unicode="0" horiz-adv-x="1118" 
d="M555 -25q-84 0 -151.5 22t-114.5 59t-82 94.5t-55.5 119t-33 142t-16.5 155t-4 166.5q0 90 5 167.5t19.5 158.5t37 145.5t59.5 123t86 97.5t117.5 61.5t152.5 22.5q83 0 150 -23t113 -60.5t79.5 -96t53 -119.5t31 -141t15 -149.5t3.5 -155.5q0 -96 -4.5 -175t-18 -162.5
t-35 -148t-57 -123.5t-83.5 -97t-115.5 -60.5t-151.5 -22.5zM561 66q65 0 117.5 19t89.5 52t64.5 83.5t44 106t26.5 128t13.5 141.5t3.5 154t-3 151t-12 138.5t-24.5 125.5t-42 103.5t-62.5 81.5t-88 50t-117 19q-77 0 -137 -24t-100.5 -72t-67.5 -107.5t-41.5 -142
t-20 -164t-5.5 -184.5q0 -93 5 -167t18.5 -153t39.5 -137t65 -105.5t98 -72t136 -24.5z" />
    <glyph glyph-name="one" unicode="1" horiz-adv-x="802" 
d="M428 1309q-48 -31 -154 -53.5t-165 -22.5l-15 78q148 12 239.5 51.5t158.5 120.5h32v-1483h-96v1309z" />
    <glyph glyph-name="two" unicode="2" horiz-adv-x="1042" 
d="M532 1509q171 0 275 -86t104 -270q0 -88 -20.5 -167t-67 -161t-97 -150.5t-134.5 -170.5l-344 -420h682v-84h-801v72l371 458q94 118 144 186.5t91 143.5t55.5 139.5t14.5 145.5q0 276 -283 276q-68 0 -120 -16.5t-83.5 -41t-54.5 -64.5t-34 -75t-21 -85l-94 18
q57 352 417 352z" />
    <glyph glyph-name="three" unicode="3" horiz-adv-x="1087" 
d="M199 319q9 -41 19.5 -72.5t33.5 -67t54 -58t81.5 -38t116.5 -15.5q65 0 122.5 19t105.5 58t76 107t28 158q0 94 -26.5 161t-77 105t-114 55t-145.5 17h-123v86h94q169 0 270 89.5t101 231.5q0 266 -278 266q-142 0 -210.5 -63.5t-99.5 -183.5l-90 22q34 160 142.5 236.5
t271.5 76.5q177 0 272 -94.5t95 -247.5q0 -71 -19 -130.5t-48 -98t-69.5 -67.5t-79 -44.5t-79.5 -23.5v-4q150 -21 234.5 -115t84.5 -270q0 -196 -116.5 -317.5t-325.5 -121.5q-173 0 -276.5 84t-123.5 240z" />
    <glyph glyph-name="four" unicode="4" horiz-adv-x="1069" 
d="M737 387h-698v76l663 1020h134v-1008h180v-88h-182v-387h-97v387zM739 1386l-581 -911h581v911z" />
    <glyph glyph-name="five" unicode="5" horiz-adv-x="1081" 
d="M872 1483v-88h-571l-51 -572q134 117 311 117q58 0 111 -11.5t107.5 -43.5t94 -81t64.5 -131t25 -188q0 -109 -30.5 -201t-88 -161.5t-147.5 -108.5t-203 -39q-170 0 -279.5 83.5t-138.5 242.5l98 25q12 -53 31.5 -93.5t54.5 -80.5t95 -62t141 -22q53 0 102 13.5t96.5 45
t82 78.5t56 119.5t21.5 162.5q0 186 -82.5 274.5t-220.5 88.5q-179 0 -322 -133l-73 35l57 731h659z" />
    <glyph glyph-name="six" unicode="6" horiz-adv-x="1138" 
d="M913 1194q-33 132 -97 180.5t-165 48.5q-70 0 -128.5 -27t-99 -71.5t-72.5 -107.5t-51 -127.5t-31.5 -139.5t-18 -137t-6.5 -125q59 79 170.5 145t226.5 66q101 0 177.5 -34t121 -94.5t66.5 -135t22 -162.5q0 -223 -115 -362q-115 -136 -319 -136q-108 0 -189.5 39.5
t-130 104t-78.5 159.5t-40.5 191t-10.5 215q0 74 6 146.5t22 156t41 156.5t66 141.5t93.5 117t127.5 78t165 29.5q132 0 221 -70.5t117 -221.5zM250 586q4 -57 9 -103t16.5 -102.5t27.5 -99.5t42.5 -86t60.5 -71t83 -45.5t109 -17.5q68 0 125.5 23t104.5 69t73.5 125.5
t26.5 184.5q0 344 -289 344q-112 0 -212 -59.5t-177 -161.5z" />
    <glyph glyph-name="seven" unicode="7" horiz-adv-x="1021" 
d="M874 1395h-796v88h907v-76l-631 -1407h-108z" />
    <glyph glyph-name="eight" unicode="8" horiz-adv-x="1062" 
d="M635 762q42 -17 70 -30t68 -35t66 -43t55.5 -52.5t46.5 -66t28.5 -80.5t11.5 -99q0 -170 -124 -275.5t-327 -105.5q-220 0 -330 103t-110 272q0 66 19.5 123t51 98.5t77.5 77.5t91.5 59.5t100.5 45.5q-126 51 -208.5 148.5t-82.5 232.5q0 123 58.5 209t152 125.5
t213.5 39.5q183 0 290.5 -88t107.5 -247q0 -133 -88.5 -237t-237.5 -175zM522 713q-78 -31 -130 -60t-100 -71.5t-71.5 -100t-23.5 -131.5q0 -130 84.5 -209.5t255.5 -79.5q90 0 159 27t108 72t58 96t19 106q0 63 -24 116t-52.5 85t-85.5 64t-87.5 44.5t-93.5 35.5
q-11 4 -16 6zM541 795q319 149 319 381q0 120 -79 184.5t-230 64.5q-146 0 -228.5 -73.5t-82.5 -204.5q0 -60 17 -109t42 -83t68 -65t80.5 -50.5t93.5 -44.5z" />
    <glyph glyph-name="nine" unicode="9" horiz-adv-x="1138" 
d="M213 299q28 -120 106 -178t189 -58q91 0 160 37t112 99.5t70.5 155.5t39 192t13.5 223q-61 -79 -170.5 -143t-224.5 -64q-101 0 -178 36t-122.5 99.5t-68 142t-22.5 169.5q0 229 116.5 364t319.5 135q78 0 142 -20.5t110 -55.5t81 -88t56.5 -112t35 -132.5t18.5 -145
t5 -154.5q0 -96 -5.5 -178.5t-20 -168.5t-38.5 -155t-62.5 -131t-89.5 -103.5t-123 -65.5t-160 -24q-149 0 -251 75.5t-132 225.5zM897 879q-2 57 -6.5 104t-15.5 105.5t-26.5 104t-42 90.5t-61 75t-85 48.5t-111.5 18.5q-145 0 -237.5 -100t-92.5 -307q0 -178 75.5 -270.5
t217.5 -92.5q110 0 211 64t174 160z" />
    <glyph glyph-name="colon" unicode=":" horiz-adv-x="428" 
d="M317 76q0 -101 -104 -101q-48 0 -75 25.5t-27 75.5q0 49 27 73.5t75 24.5q104 0 104 -98zM317 905q0 -100 -104 -100q-48 0 -75 25t-27 75q0 49 27 74t75 25q104 0 104 -99z" />
    <glyph glyph-name="semicolon" unicode=";" horiz-adv-x="409" 
d="M262 168l-153 -418l-78 14l104 404h127zM336 905q0 -100 -105 -100q-48 0 -75 25t-27 75q0 49 27 74t75 25q105 0 105 -99z" />
    <glyph glyph-name="less" unicode="&#x3c;" 
d="M182 639l760 336v-103l-655 -288l655 -271v-100l-760 309v117z" />
    <glyph glyph-name="equal" unicode="=" 
d="M211 487h747v-92h-747v92zM211 778h747v-92h-747v92z" />
    <glyph glyph-name="greater" unicode="&#x3e;" 
d="M182 313l656 271l-656 288v103l760 -336v-117l-760 -309v100z" />
    <glyph glyph-name="question" unicode="?" horiz-adv-x="985" 
d="M293 723q78 8 138.5 21.5t121 40.5t100 65.5t64 99.5t24.5 140q0 90 -23 152.5t-67 94.5t-94 45t-117 13q-60 0 -106.5 -10.5t-90.5 -37.5t-76.5 -78.5t-51.5 -127.5l-88 18q80 318 417 318q85 0 153.5 -19t124.5 -60t87 -115t31 -177q0 -89 -25 -160.5t-66 -119.5
t-101.5 -84t-123.5 -56t-141 -33v-288h-90v358zM440 80q0 -105 -104 -105q-50 0 -78.5 27.5t-28.5 77.5q0 102 107 102q104 0 104 -102z" />
    <glyph glyph-name="at" unicode="@" horiz-adv-x="1705" 
d="M1382 -150q-85 -90 -220 -135t-294 -45q-162 0 -300 46.5t-241.5 135t-162 228t-58.5 315.5q0 228 98.5 401.5t275.5 266t407 92.5q121 0 226.5 -24t195.5 -75.5t154 -127t100 -184.5t36 -242q0 -252 -88 -377t-245 -125q-141 0 -197 115q-39 -54 -115.5 -92.5
t-162.5 -38.5q-70 0 -123.5 22t-87 57.5t-55 86.5t-30 103t-8.5 112q0 196 98 322t259 126q130 0 217 -74l6 62h80v-527q0 -39 0.5 -58t4 -49t11 -44.5t21 -30.5t35 -22.5t51.5 -6.5q34 0 65.5 11t64.5 40t57.5 74t40 119.5t15.5 169.5q0 604 -639 604q-313 0 -496 -187.5
t-183 -496.5q0 -136 36.5 -246t99.5 -184.5t150.5 -125t188 -73t213.5 -22.5q141 0 257.5 43t184.5 117zM1057 659q-89 78 -209 78q-117 0 -188.5 -96t-71.5 -279q0 -303 209 -303q80 0 154 47.5t106 120.5v432z" />
    <glyph glyph-name="A" unicode="A" horiz-adv-x="1304" 
d="M1233 0h-111l-172 508h-604l-172 -508h-102l508 1483h143zM375 594h547l-275 825z" />
    <glyph glyph-name="B" unicode="B" horiz-adv-x="1306" 
d="M229 1483h465q128 0 217.5 -27t138 -78.5t69 -113.5t20.5 -144q0 -79 -24.5 -141.5t-69.5 -103t-99.5 -65.5t-122.5 -38v-4q361 -51 361 -371q0 -112 -38.5 -190.5t-112.5 -123t-169 -64t-221 -19.5h-414v1483zM643 90q82 0 141 6t118.5 24.5t96 51t59.5 89t23 134.5
q0 160 -107 240t-282 80h-366v-625h317zM608 805q57 0 110.5 7.5t112 29.5t101 56t70.5 92.5t28 133.5q0 148 -82 209.5t-270 61.5h-352v-590h282z" />
    <glyph glyph-name="C" unicode="C" horiz-adv-x="1466" 
d="M776 -25q-133 0 -239.5 35.5t-179.5 100t-121.5 157t-70.5 203t-22 242.5q0 193 49.5 345t139 250t212.5 149.5t271 51.5q229 0 368.5 -119t159.5 -352l-94 -8q-27 197 -129.5 296t-306.5 99q-260 0 -413.5 -181.5t-153.5 -514.5q0 -670 536 -670q195 0 306 81.5
t155 267.5l86 -21q-21 -111 -72 -192.5t-126 -128.5t-163 -69t-192 -22z" />
    <glyph glyph-name="D" unicode="D" horiz-adv-x="1517" 
d="M229 1483h410q374 0 554.5 -188t180.5 -531q0 -173 -46 -311.5t-138.5 -240.5t-241 -157t-344.5 -55h-375v1483zM621 84q313 0 481 172t168 498q0 148 -29.5 259t-82 184t-133.5 118.5t-176.5 64.5t-217.5 19h-303v-1315h293z" />
    <glyph glyph-name="E" unicode="E" 
d="M1061 86v-86h-832v1483h815v-86h-716v-598h669v-88h-669v-625h733z" />
    <glyph glyph-name="F" unicode="F" horiz-adv-x="1112" 
d="M229 0v1483h818v-86h-719v-625h665v-90h-665v-682h-99z" />
    <glyph glyph-name="G" unicode="G" horiz-adv-x="1548" 
d="M1243 236q-43 -109 -167.5 -185t-297.5 -76q-164 0 -287 55t-198.5 156t-112.5 236.5t-37 304.5q0 193 49 342.5t139 245.5t213 145t275 49q234 0 369 -116t155 -359l-94 -10q-12 113 -46.5 191.5t-91.5 124t-129 65.5t-169 20q-264 0 -416 -180q-153 -179 -153 -510
q0 -160 31 -282t81.5 -195.5t123.5 -119.5t147.5 -62.5t163.5 -16.5q109 0 198.5 39.5t145 104t85 140.5t29.5 153v178h-481v92h567v-766h-75z" />
    <glyph glyph-name="H" unicode="H" horiz-adv-x="1484" 
d="M1157 0v717h-829v-717h-99v1483h99v-676h829v676h98v-1483h-98z" />
    <glyph glyph-name="I" unicode="I" horiz-adv-x="557" 
d="M229 0v1483h99v-1483h-99z" />
    <glyph glyph-name="J" unicode="J" horiz-adv-x="997" 
d="M791 1483v-1129q0 -108 -26 -183.5t-76.5 -117.5t-113.5 -60t-147 -18q-89 0 -155 24.5t-105.5 70t-60 101t-25.5 124.5l96 16q9 -58 22 -97.5t40.5 -76.5t76.5 -55.5t121 -18.5q43 0 77.5 6.5t69 26t57 51.5t36.5 86t14 127v1123h99z" />
    <glyph glyph-name="K" unicode="K" horiz-adv-x="1275" 
d="M1059 1483h123l-613 -654l668 -829h-119l-616 764l-174 -184v-580h-99v1483h99v-783z" />
    <glyph glyph-name="L" unicode="L" horiz-adv-x="1130" 
d="M1018 84v-84h-789v1483h99v-1399h690z" />
    <glyph glyph-name="M" unicode="M" horiz-adv-x="1812" 
d="M1487 0v1382h-4l-512 -1382h-135l-508 1384h-4v-1384h-95v1483h166l510 -1407h2l516 1407h160v-1483h-96z" />
    <glyph glyph-name="N" unicode="N" horiz-adv-x="1525" 
d="M326 1399v-1399h-97v1483h158l815 -1374v1374h94v-1483h-133z" />
    <glyph glyph-name="O" unicode="O" horiz-adv-x="1599" 
d="M791 -25q-160 0 -284.5 58t-203.5 162t-119.5 243t-40.5 307q0 222 78 393.5t232.5 271t365.5 99.5q156 0 278.5 -56.5t200 -156t118 -232t40.5 -288.5q0 -369 -173.5 -585t-491.5 -216zM799 59q122 0 223 45t175 131t115.5 219t41.5 302q0 314 -148 491.5t-391 177.5
q-120 0 -223 -46t-180 -131t-120.5 -215t-43.5 -290q0 -318 152.5 -501t398.5 -183z" />
    <glyph glyph-name="P" unicode="P" horiz-adv-x="1253" 
d="M229 0v1483h428q494 0 494 -430q0 -128 -38.5 -219.5t-113 -145t-174 -78t-231.5 -24.5h-268v-586h-97zM596 674q69 0 121.5 5.5t106.5 20t92.5 41.5t69 68t46 103t15.5 143q0 177 -98 260.5t-320 83.5h-303v-725h270z" />
    <glyph glyph-name="Q" unicode="Q" horiz-adv-x="1599" 
d="M791 -25q-161 0 -286 58t-203.5 162t-118.5 243t-40 307q0 222 78 393.5t232.5 271t365.5 99.5q156 0 278.5 -56.5t200 -156t118 -232t40.5 -288.5q0 -204 -54.5 -366.5t-158.5 -266.5l193 -211l-66 -55l-194 207q-170 -109 -385 -109zM799 63q174 0 305 93l-287 321
l72 60l293 -324q170 185 170 543q0 314 -147 491.5t-390 177.5q-120 0 -223 -46t-180 -131t-120.5 -215t-43.5 -290q0 -319 151 -499.5t400 -180.5z" />
    <glyph glyph-name="R" unicode="R" horiz-adv-x="1304" 
d="M1124 0l-368 657h-430v-657h-97v1483h457q473 0 473 -389q0 -163 -82.5 -269t-226.5 -145l383 -680h-109zM674 743q90 0 157 17.5t119 57.5t78.5 109.5t26.5 168.5q0 75 -20 129.5t-54 88t-88.5 52.5t-113 26t-138.5 7h-315v-656h348z" />
    <glyph glyph-name="S" unicode="S" horiz-adv-x="1183" 
d="M627 1421q-102 0 -175.5 -23t-115 -64.5t-60 -92t-18.5 -113.5q0 -59 17 -105.5t43.5 -77t73.5 -56.5t91 -42t113 -36q174 -51 227 -72q175 -71 232 -195q32 -70 32 -163q0 -85 -26.5 -154t-71.5 -115.5t-108 -77.5t-134 -45t-151 -14q-124 0 -218 30t-153 86t-93 126
t-50 160l100 20q11 -54 27.5 -98t48.5 -88.5t75.5 -74.5t110 -49t150.5 -19q58 0 109 7.5t103 28.5t88.5 54t59.5 87.5t23 125.5q0 70 -25.5 124.5t-57.5 87t-96.5 61.5t-106.5 41.5t-124 33.5q-75 19 -126 36.5t-110.5 50t-95 72.5t-59.5 103t-24 143q0 176 128 280.5
t341 104.5q411 0 460 -407l-94 -10q-9 40 -16 65.5t-21 63.5t-30.5 63t-44 53.5t-61 45t-81.5 27.5t-106 11z" />
    <glyph glyph-name="T" unicode="T" horiz-adv-x="1089" 
d="M496 1397h-455v86h1008v-86h-455v-1397h-98v1397z" />
    <glyph glyph-name="U" unicode="U" horiz-adv-x="1470" 
d="M737 66q101 0 175 20t129 66t82.5 125.5t27.5 193.5v1012h98v-1016q0 -244 -133.5 -368t-390.5 -124q-262 0 -383 125.5t-121 366.5v1016h98v-1008q0 -220 108.5 -314.5t309.5 -94.5z" />
    <glyph glyph-name="V" unicode="V" horiz-adv-x="1257" 
d="M61 1483h109l471 -1399h2l451 1399h102l-483 -1483h-142z" />
    <glyph glyph-name="W" unicode="W" horiz-adv-x="1781" 
d="M903 1378h-6l-377 -1378h-117l-321 1483h104l281 -1354h4l365 1354h129l358 -1379h4l277 1379h96l-307 -1483h-133z" />
    <glyph glyph-name="X" unicode="X" horiz-adv-x="1243" 
d="M1192 0h-109l-473 692l-448 -692h-111l494 756l-469 727h110l420 -658l424 658h109l-467 -719z" />
    <glyph glyph-name="Y" unicode="Y" horiz-adv-x="1101" 
d="M510 0v588l-502 895h111l442 -787h2l430 787h101l-486 -887v-596h-98z" />
    <glyph glyph-name="Z" unicode="Z" horiz-adv-x="1198" 
d="M1098 86v-86h-1018v70l854 1327h-828v86h957v-72l-858 -1325h893z" />
    <glyph glyph-name="bracketleft" unicode="[" horiz-adv-x="489" 
d="M145 1483h261v-78h-170v-1620h170v-78h-261v1776z" />
    <glyph glyph-name="backslash" unicode="\" horiz-adv-x="681" 
d="M6 1546h90l576 -1734h-92z" />
    <glyph glyph-name="bracketright" unicode="]" horiz-adv-x="489" 
d="M84 1483h260v-1776h-260v78h170v1620h-170v78z" />
    <glyph glyph-name="asciicircum" unicode="^" horiz-adv-x="1007" 
d="M498 1270l-355 -658h-98l404 748h104l410 -748h-107z" />
    <glyph glyph-name="underscore" unicode="_" horiz-adv-x="1024" 
d="M0 -297h1024v-74h-1024v74z" />
    <glyph glyph-name="grave" unicode="`" horiz-adv-x="1024" 
d="M442 1538l232 -338l-84 -29l-295 367h147z" />
    <glyph glyph-name="a" unicode="a" horiz-adv-x="1097" 
d="M901 147q0 -45 13.5 -65.5t50.5 -20.5q19 0 63 13l8 -66q-55 -24 -110 -24q-62 0 -91.5 38.5t-27.5 92.5q-63 -63 -154.5 -101.5t-197.5 -38.5q-76 0 -134 20.5t-90 50.5t-52 70.5t-26 74t-6 67.5q0 86 31 150t78.5 101t118 59.5t136.5 30t146 7.5q56 0 142 -4v92
q0 158 -52 220.5t-196 62.5q-126 0 -186 -47t-78 -148l-97 17q24 141 115.5 201.5t253.5 60.5q185 0 263.5 -77.5t78.5 -270.5v-566zM801 516q-71 6 -160 6q-86 0 -150 -10t-120.5 -36.5t-86.5 -78.5t-30 -129q0 -95 48 -151t167 -56q96 0 186 41.5t146 106.5v307z" />
    <glyph glyph-name="b" unicode="b" horiz-adv-x="1187" 
d="M195 1546h98v-637q182 152 381 152q89 0 157 -27t119 -86.5t78 -160t27 -240.5q0 -148 -34.5 -260t-96.5 -179t-141 -100t-175 -33q-85 0 -169 32.5t-146 80.5l-8 -88h-90v1546zM295 190q152 -122 321 -122q89 0 154.5 35.5t104.5 102t57 153.5t18 198q0 118 -19.5 199.5
t-58.5 128.5t-91 67.5t-124 20.5q-100 0 -203.5 -52t-158.5 -112v-619z" />
    <glyph glyph-name="c" unicode="c" horiz-adv-x="1085" 
d="M584 -25q-461 0 -461 541q0 271 126 408t357 137q154 0 258.5 -88t110.5 -250l-109 -12q-14 134 -79.5 198t-192.5 64q-55 0 -104.5 -12.5t-98.5 -44.5t-84.5 -81t-57.5 -127.5t-22 -177.5q0 -108 21 -190.5t54 -132.5t81 -82t95.5 -43.5t103.5 -11.5q260 0 299 237
l102 -20q-13 -80 -51.5 -141.5t-94 -98t-119.5 -54.5t-134 -18z" />
    <glyph glyph-name="d" unicode="d" horiz-adv-x="1189" 
d="M909 0l-10 119q-86 -69 -172.5 -106.5t-198.5 -37.5q-183 0 -289 130.5t-106 404.5q0 145 35.5 254t98.5 172.5t141.5 94t171.5 30.5q163 0 313 -103v588h102v-1546h-86zM895 858q-54 41 -139.5 77t-177.5 36q-180 0 -259 -120.5t-79 -342.5q0 -224 76 -334.5t233 -110.5
q100 0 192.5 45t153.5 113v637z" />
    <glyph glyph-name="e" unicode="e" horiz-adv-x="1112" 
d="M582 -25q-129 0 -221.5 43.5t-143 122t-72.5 171.5t-22 208q0 112 26 203.5t70.5 153.5t105.5 104t130 61t145 19q101 0 177 -33t121.5 -92t68 -134.5t22.5 -166.5q0 -76 -10 -135h-750q2 -101 21.5 -177t51 -123.5t78 -76.5t97 -40t113.5 -11q121 0 190.5 53.5
t96.5 161.5l96 -19q-36 -150 -141 -221.5t-250 -71.5zM885 588q5 190 -67 285.5t-230 95.5q-68 0 -127.5 -21.5t-109.5 -65t-82.5 -119t-39.5 -175.5h656z" />
    <glyph glyph-name="f" unicode="f" horiz-adv-x="612" 
d="M211 1040v209q0 314 258 314q94 0 162 -31l-6 -82q-79 27 -150 27q-164 0 -164 -195v-242h299v-88h-299v-952h-100v952h-164v88h164z" />
    <glyph glyph-name="g" unicode="g" horiz-adv-x="1120" 
d="M545 1061q224 0 325 -123q46 111 136 111q29 0 73 -13v-88q-111 0 -190 -39q65 -74 65 -219q0 -172 -114 -270t-287 -98q-134 0 -207 28q-41 -31 -63.5 -60t-22.5 -67q0 -42 35.5 -64t132.5 -28l297 -16q168 -8 248 -63.5t80 -188.5q0 -56 -17 -103t-46 -80t-70 -58.5
t-85.5 -41t-97 -25.5t-100 -14t-98.5 -4q-455 0 -455 268q0 103 53 162q53 56 121 105q-42 11 -70 47t-28 82q0 97 114 186q-71 35 -113 113.5t-42 173.5q0 183 119 284q121 103 307 103zM848 688q0 144 -77.5 215.5t-221.5 71.5q-68 0 -125 -16.5t-102.5 -50.5t-71 -92.5
t-25.5 -135.5q0 -127 77.5 -199.5t238.5 -72.5q140 0 223.5 75.5t83.5 204.5zM946 -133q0 146 -211 156l-391 20q-73 -52 -114.5 -104.5t-41.5 -118.5q0 -191 361 -191q397 0 397 238z" />
    <glyph glyph-name="h" unicode="h" horiz-adv-x="1183" 
d="M903 0v696q0 136 -52.5 203.5t-180.5 67.5q-100 0 -208.5 -51.5t-170.5 -108.5v-807h-101v1546h101v-639q212 154 397 154q163 0 239.5 -90.5t76.5 -270.5v-700h-101z" />
    <glyph glyph-name="i" unicode="i" horiz-adv-x="493" 
d="M197 0v1040h100v-1040h-100zM346 1395q0 -86 -94 -86t-94 86q0 88 94 88t94 -88z" />
    <glyph glyph-name="j" unicode="j" horiz-adv-x="477" 
d="M53 -457q-27 0 -80.5 10t-78.5 21l18 88q70 -24 145 -24q69 0 104.5 41t35.5 131v1230h100v-1222q0 -141 -58.5 -208t-185.5 -67zM348 1395q0 -86 -94 -86t-94 86q0 88 94 88t94 -88z" />
    <glyph glyph-name="k" unicode="k" horiz-adv-x="1032" 
d="M811 1040h121l-369 -383l395 -657h-108l-358 586l-201 -203v-383h-101v1546h101v-1044z" />
    <glyph glyph-name="l" unicode="l" horiz-adv-x="493" 
d="M197 0v1546h100v-1546h-100z" />
    <glyph glyph-name="m" unicode="m" horiz-adv-x="1781" 
d="M190 0v1040h91l8 -137q107 78 194.5 118t188.5 40q203 0 258 -158q105 76 196 117t191 41q164 0 224.5 -87t60.5 -276v-698h-101v694q0 72 -6.5 118t-26.5 85t-59.5 56.5t-101.5 17.5q-86 0 -188 -48.5t-171 -105.5q8 -47 8 -119v-698h-100v694q0 71 -7.5 117.5t-28 85
t-60 56.5t-101.5 18q-91 0 -199.5 -54.5t-168.5 -111.5v-805h-101z" />
    <glyph glyph-name="n" unicode="n" horiz-adv-x="1183" 
d="M903 0v696q0 137 -51.5 205t-179.5 68q-100 0 -210 -53t-171 -109v-807h-101v1040h89l6 -135q214 156 405 156q162 0 238 -90.5t76 -270.5v-700h-101z" />
    <glyph glyph-name="o" unicode="o" horiz-adv-x="1171" 
d="M582 -25q-125 0 -216 41t-143 116.5t-76 170t-24 213.5q0 256 127 400.5t358 144.5q224 0 332.5 -137.5t108.5 -380.5q0 -131 -26 -233t-81 -178t-146 -116.5t-214 -40.5zM590 68q352 0 352 462q0 238 -86 338.5t-256 100.5q-174 0 -275.5 -111t-101.5 -334
q0 -456 367 -456z" />
    <glyph glyph-name="p" unicode="p" horiz-adv-x="1187" 
d="M283 1040l8 -133q180 154 385 154q84 0 151 -27.5t119.5 -86t80.5 -160t28 -240.5q0 -146 -35 -258.5t-96.5 -179.5t-139 -100.5t-168.5 -33.5q-158 0 -325 115v-524h-96v1474h88zM295 190q34 -25 55.5 -38.5t66.5 -37.5t95.5 -36t103.5 -12q117 0 193 63.5t108.5 170
t32.5 257.5q0 226 -69.5 323t-223.5 97q-99 0 -199 -51t-163 -117v-619z" />
    <glyph glyph-name="q" unicode="q" horiz-adv-x="1187" 
d="M897 -434v555q-164 -146 -369 -146q-184 0 -289.5 130t-105.5 403q0 147 35 256.5t97.5 173t140.5 93.5t172 30q141 0 309 -107l6 86h100v-1474h-96zM893 842q-33 25 -54 39.5t-66.5 40.5t-97 39.5t-106.5 13.5q-331 0 -331 -477q0 -225 77.5 -331t237.5 -106
q99 0 187.5 45.5t152.5 114.5v621z" />
    <glyph glyph-name="r" unicode="r" horiz-adv-x="694" 
d="M670 961q-94 12 -205 -24.5t-174 -102.5v-834h-101v1040h80l11 -139q160 173 389 160v-100z" />
    <glyph glyph-name="s" unicode="s" horiz-adv-x="976" 
d="M494 1061q75 0 132 -15t94.5 -40.5t62.5 -66t37.5 -85.5t17.5 -104l-97 -13q-13 120 -68 179t-186 59q-69 0 -119 -16t-76.5 -44.5t-38 -60.5t-11.5 -70q0 -37 9 -65.5t29.5 -49.5t41 -35t58 -26.5t65 -19.5t75.5 -17q44 -9 71.5 -15.5t68 -19t66 -26.5t55 -36.5
t46.5 -49t28 -64.5t11 -84q0 -137 -93 -219t-275 -82q-172 0 -270 74.5t-122 245.5l97 18q10 -45 20.5 -76t32.5 -66t52 -56t79.5 -35t114.5 -14q117 0 188.5 50t71.5 156q0 42 -13.5 74t-34 52.5t-56.5 36.5t-69.5 25t-84.5 19q-39 8 -58 11.5t-56 13t-57 17t-50.5 21
t-48 28t-38 36t-31.5 45.5t-18.5 56t-7.5 69q0 135 103.5 210t251.5 75z" />
    <glyph glyph-name="t" unicode="t" horiz-adv-x="745" 
d="M705 37q-36 -26 -102 -44t-122 -18q-141 0 -202.5 62.5t-61.5 200.5v714h-166v88h166v297l100 17v-314h295v-88h-295v-694q0 -102 35 -150.5t135 -48.5q44 0 97 17t92 39z" />
    <glyph glyph-name="u" unicode="u" horiz-adv-x="1189" 
d="M285 1040v-696q0 -136 51 -204t176 -68q100 0 209 52.5t170 108.5v807h100v-1040h-88l-6 133q-103 -75 -196.5 -114t-206.5 -39q-163 0 -236.5 90t-73.5 272v698h101z" />
    <glyph glyph-name="v" unicode="v" horiz-adv-x="989" 
d="M27 1040h110l363 -925h4l358 925h101l-406 -1040h-117z" />
    <glyph glyph-name="w" unicode="w" horiz-adv-x="1476" 
d="M27 1040h104l295 -940h4l252 940h127l250 -936h4l293 936h94l-334 -1040h-125l-243 938h-5l-256 -938h-120z" />
    <glyph glyph-name="x" unicode="x" horiz-adv-x="950" 
d="M903 0h-112l-324 469l-309 -469h-113l356 543l-350 497h113l297 -424l301 424h108l-348 -489z" />
    <glyph glyph-name="y" unicode="y" horiz-adv-x="935" 
d="M141 1040l326 -903h2l334 903h106q-227 -599 -475 -1235q-58 -144 -131.5 -203t-177.5 -59q-75 0 -178 37l20 84q73 -33 164 -33q72 0 124 45.5t97 165.5l60 158l-377 1040h106z" />
    <glyph glyph-name="z" unicode="z" horiz-adv-x="929" 
d="M872 82v-82h-804v68l661 886h-649v86h772v-69l-664 -889h684z" />
    <glyph glyph-name="braceleft" unicode="{" horiz-adv-x="581" 
d="M442 -297q-266 0 -266 211q0 72 13.5 222t13.5 206q0 113 -43.5 156t-124.5 43h-33v94h27q174 0 174 199q0 57 -13.5 234.5t-13.5 229.5q0 102 69 156.5t195 54.5h80v-88h-102q-74 -1 -105.5 -30.5t-31.5 -92.5q0 -56 11 -224t11 -240q0 -62 -11.5 -107t-34 -71.5
t-43 -40.5t-48.5 -25q29 -12 49 -24.5t42.5 -38.5t34 -70.5t11.5 -106.5q0 -74 -10 -217t-10 -194q0 -75 36.5 -114.5t129.5 -39.5h71v-82h-78z" />
    <glyph glyph-name="bar" unicode="|" horiz-adv-x="573" 
d="M242 1546h90v-1839h-90v1839z" />
    <glyph glyph-name="braceright" unicode="}" horiz-adv-x="581" 
d="M139 1509q145 0 206 -56t61 -155q0 -72 -13.5 -222t-13.5 -206q0 -110 45 -154t123 -44h33v-94h-27q-174 0 -174 -199q0 -56 13.5 -233.5t13.5 -231.5q0 -102 -68.5 -156.5t-196.5 -54.5h-80v88h103q74 1 105.5 30.5t31.5 92.5q0 57 -11 224.5t-11 240.5q0 63 12 108
t34.5 71.5t42.5 39.5t48 25q-25 12 -38.5 19.5t-35.5 27t-33.5 42t-20.5 61.5t-9 89q0 77 10 219.5t10 192.5q0 75 -36.5 114t-129.5 39h-72v82h78z" />
    <glyph glyph-name="asciitilde" unicode="~" horiz-adv-x="940" 
d="M231 807q67 0 248.5 -49t222.5 -49q47 0 68 22t21 96l81 -2q7 -61 -4.5 -104.5t-37.5 -65.5t-55 -31.5t-64 -9.5q-60 0 -244.5 49.5t-230.5 49.5q-82 0 -80 -123l-76 4q-7 58 4.5 102t36 67t52.5 33.5t58 10.5z" />
    <glyph glyph-name="uni00A0" unicode="&#xa0;" horiz-adv-x="495" 
 />
    <glyph glyph-name="exclamdown" unicode="&#xa1;" horiz-adv-x="499" 
d="M336 -444h-121l25 1116h65zM166 958q0 105 106 105q105 0 105 -105q0 -102 -105 -102q-106 0 -106 102z" />
    <glyph glyph-name="cent" unicode="&#xa2;" horiz-adv-x="1026" 
d="M608 1212q140 -8 227 -87t93 -226l-94 -12q-13 117 -66.5 171t-157.5 60v-823q102 10 157.5 64.5t80.5 162.5l90 -20q-24 -136 -111.5 -210.5t-216.5 -88.5v-203h-80v203q-193 15 -290 150t-97 356q0 225 103.5 353.5t279.5 147.5v205h82v-203zM248 721q0 -83 14 -152
t44.5 -129t87.5 -98t136 -47v821q-58 -6 -106 -29t-89 -67t-64 -120t-23 -179z" />
    <glyph glyph-name="sterling" unicode="&#xa3;" horiz-adv-x="1101" 
d="M164 86q186 180 186 375q0 109 -57 217h-223v84h174l-12.5 25t-14.5 30t-14 31t-15 35.5t-13 36t-12.5 41t-9 41t-6.5 45t-2 45.5q0 183 124.5 300t310.5 117t284.5 -88t118.5 -280l-94 -11q-18 149 -85.5 219t-219.5 70q-150 0 -245 -79.5t-95 -231.5q0 -33 6 -70
t11.5 -62t20 -65t20 -53t23.5 -54t19 -42h506v-84h-459q49 -116 49 -225q0 -206 -161 -367h440q110 0 161 56.5t72 189.5l101 -23q-24 -164 -108 -236.5t-234 -72.5h-656v86h109z" />
    <glyph glyph-name="currency" unicode="&#xa4;" 
d="M874 215q-117 -90 -286 -90q-180 0 -295 94q9 16 -188 -189l-3 -3l-79 75l196 197q-72 118 -72 281q0 140 76 262l-194 192l88 80l186 -186q123 102 299 102q181 0 297 -96l178 178l80 -76l-184 -188q69 -106 69 -260q0 -165 -84 -289l197 -195l-88 -77zM598 219
q155 0 243.5 101t88.5 260q0 168 -87.5 261t-250.5 93q-156 0 -245 -96.5t-89 -257.5q0 -162 87.5 -261.5t252.5 -99.5z" />
    <glyph glyph-name="yen" unicode="&#xa5;" horiz-adv-x="1021" 
d="M571 0h-100v508h-281v86h281v203h-281v86h218l-349 600h117l346 -613h2l332 613h107l-336 -600h223v-86h-279v-203h279v-86h-279v-508z" />
    <glyph glyph-name="brokenbar" unicode="&#xa6;" horiz-adv-x="573" 
d="M242 502h90v-795h-90v795zM242 1546h90v-710h-90v710z" />
    <glyph glyph-name="section" unicode="&#xa7;" horiz-adv-x="1093" 
d="M106 530q0 83 51 156t158 148q-68 51 -102.5 113t-34.5 155q0 116 56.5 196.5t146.5 117t205 36.5q186 0 290.5 -98.5t110.5 -266.5l-102 -16q-14 140 -88.5 213.5t-221.5 73.5q-141 0 -214.5 -68.5t-73.5 -173.5q0 -83 40 -139.5t103.5 -85.5t140.5 -50t154.5 -44
t141 -56.5t103.5 -98.5t40 -159q0 -84 -56 -164t-149 -139q133 -89 133 -262q0 -172 -115.5 -264t-292.5 -92q-186 0 -290.5 98t-110.5 266l109 17q12 -141 83 -213t216 -72q143 0 217.5 71.5t74.5 188.5q0 63 -24.5 109t-66.5 73.5t-96.5 47t-114.5 34.5t-119.5 30.5
t-114 39.5t-96.5 58t-66.5 90t-24.5 130zM213 524q0 -54 23 -94.5t58.5 -64t89.5 -43.5t104.5 -32t115.5 -30t111 -37q188 123 188 264q0 54 -23 95t-58.5 65.5t-89.5 45t-104 32.5t-115 30.5t-110 37.5q-190 -123 -190 -269z" />
    <glyph glyph-name="dieresis" unicode="&#xa8;" horiz-adv-x="1024" 
d="M406 1362q0 -41 -24.5 -63.5t-66.5 -22.5q-92 0 -92 86q0 41 24.5 63.5t67.5 22.5q42 0 66.5 -22.5t24.5 -63.5zM797 1362q0 -41 -24 -63.5t-66 -22.5t-67.5 22.5t-25.5 63.5t25.5 63.5t67.5 22.5t66 -22.5t24 -63.5z" />
    <glyph glyph-name="copyright" unicode="&#xa9;" horiz-adv-x="1536" 
d="M1436 641q0 -146 -49.5 -270.5t-137 -211t-212.5 -135.5t-271 -49q-162 0 -290.5 49t-209.5 136t-123.5 202t-42.5 250q0 152 53 279t144 211t213 130t260 46q309 0 487.5 -172.5t178.5 -464.5zM770 43q268 0 424 158.5t156 427.5q0 140 -43 250.5t-120.5 182t-183 109
t-233.5 37.5q-166 0 -297 -69t-208 -205t-77 -320q0 -265 156.5 -418t425.5 -153zM1075 494q-10 -76 -41 -129.5t-75 -80t-88 -37.5t-95 -11q-188 0 -279 108.5t-91 290.5q0 178 98 287.5t274 109.5q125 0 202.5 -61.5t84.5 -196.5l-92 -12q-8 96 -54.5 143t-142.5 47
q-119 0 -194.5 -78.5t-75.5 -242.5q0 -139 67 -226.5t197 -87.5q105 0 152 45.5t69 145.5z" />
    <glyph glyph-name="ordfeminine" unicode="&#xaa;" horiz-adv-x="745" 
d="M610 688q0 -51 43 -51q17 0 41 6l6 -57q-35 -21 -82 -21t-70.5 24t-23.5 62q-90 -90 -225 -90q-61 0 -104 19t-63 49t-28 57.5t-8 54.5q0 226 334 226q21 0 48.5 -1t39.5 -1v77q0 72 -31.5 107t-117.5 35q-76 0 -111.5 -27.5t-46.5 -89.5l-84 14q13 94 74.5 135t175.5 41
q125 0 179 -51t54 -174v-344zM520 891q-46 4 -84 4q-29 0 -50.5 -1t-52.5 -5t-52.5 -13.5t-42.5 -23.5t-32 -38.5t-11 -55.5q0 -57 28 -89t101 -32q55 0 107 25.5t89 62.5v166z" />
    <glyph glyph-name="guillemotleft" unicode="&#xab;" horiz-adv-x="849" 
d="M145 535l183 301h110l-172 -299l172 -326h-112zM436 535l182 301h111l-172 -299l172 -326h-113z" />
    <glyph glyph-name="logicalnot" unicode="&#xac;" 
d="M842 616h-635v105h758v-297h-123v192z" />
    <glyph glyph-name="uni00AD" unicode="&#xad;" horiz-adv-x="636" 
d="M41 659h555v-104h-555v104z" />
    <glyph glyph-name="registered" unicode="&#xae;" horiz-adv-x="907" 
d="M825 987q0 -165 -103.5 -268t-268.5 -103q-184 0 -279 103q-92 103 -92 254q0 167 107.5 268.5t265.5 101.5q171 0 270.5 -97t99.5 -259zM752 981q0 142 -81.5 218.5t-215.5 76.5q-128 0 -211.5 -81t-83.5 -220q0 -136 79 -213.5t216 -77.5q139 0 218 80t79 217zM559 788
l-94 158h-62v-158h-69v392h133q127 0 127 -111q0 -66 -68 -102l105 -179h-72zM430 999q46 0 70 14.5t24 55.5q0 33 -19.5 45t-60.5 12h-41v-127h27z" />
    <glyph glyph-name="overscore" unicode="&#xaf;" horiz-adv-x="1024" 
d="M227 1413h568v-92h-568v92z" />
    <glyph glyph-name="degree" unicode="&#xb0;" horiz-adv-x="612" 
d="M311 1180q59 0 89 35.5t30 99.5q0 131 -119 131q-123 0 -123 -139q0 -127 123 -127zM530 1315q0 -104 -58 -162.5t-161 -58.5t-163 57t-60 156q0 108 62.5 166.5t160.5 58.5q100 0 159.5 -55.5t59.5 -161.5z" />
    <glyph glyph-name="plusminus" unicode="&#xb1;" 
d="M535 612h-330v97h330v323h98v-323h330v-97h-330v-338h-98v338zM205 88h758v-88h-758v88z" />
    <glyph glyph-name="uni00B2" unicode="&#xb2;" horiz-adv-x="761" 
d="M391 1632q114 0 179 -55t65 -168q0 -50 -12 -94.5t-44.5 -97t-59 -87.5t-85.5 -108l-198 -217h413v-90h-526v82l219 258q53 63 71.5 86t50.5 66.5t42 68t19.5 59.5t9.5 72q0 139 -158 139q-86 0 -122 -40.5t-48 -116.5l-90 18q36 225 274 225z" />
    <glyph glyph-name="uni00B3" unicode="&#xb3;" horiz-adv-x="798" 
d="M195 934q9 -37 17.5 -57.5t26 -44.5t49 -35t77.5 -11q82 0 134 44.5t52 138.5q0 97 -53 136.5t-152 39.5h-80v84h60q97 0 155 50.5t58 127.5q0 66 -34.5 101.5t-119.5 35.5q-82 0 -117.5 -31.5t-54.5 -99.5l-90 19q43 200 272 200q118 0 180 -58t62 -155
q0 -92 -54 -146.5t-126 -72.5v-2q196 -29 196 -233q0 -120 -78 -192.5t-210 -72.5q-111 0 -182 55.5t-83 159.5z" />
    <glyph glyph-name="acute" unicode="&#xb4;" horiz-adv-x="1024" 
d="M360 1200l232 338h147l-293 -367z" />
    <glyph glyph-name="uni00B5" unicode="&#xb5;" horiz-adv-x="1214" 
d="M1034 -18q-59 0 -89 33.5t-34 113.5q-112 -75 -165 -100q-113 -54 -240 -54q-156 0 -211 82v-491h-96v1474h100v-702q0 -151 58.5 -210.5t162.5 -59.5q87 0 191 41.5t194 119.5v811h101v-893q0 -47 13 -64t50 -17q30 0 64 10l8 -66q-51 -28 -107 -28z" />
    <glyph glyph-name="paragraph" unicode="&#xb6;" horiz-adv-x="1095" 
d="M784 -272v1661h-213v-1661h-100v790q-203 20 -320.5 143t-117.5 322q0 132 45 231t124 156.5t177 85t215 27.5h291v-1755h-101z" />
    <glyph glyph-name="middot" unicode="&#xb7;" horiz-adv-x="333" 
d="M272 614q0 -104 -106 -104q-50 0 -78.5 27t-28.5 77q0 105 107 105q106 0 106 -105z" />
    <glyph glyph-name="cedilla" unicode="&#xb8;" horiz-adv-x="1024" 
d="M313 -326q56 -39 117 -39q52 0 79.5 30.5t27.5 72.5q0 56 -37.5 83.5t-128.5 28.5l28 211l78 -14l-18 -135q75 -8 123.5 -49t48.5 -121q0 -82 -55 -134t-140 -52q-90 0 -153 49z" />
    <glyph glyph-name="uni00B9" unicode="&#xb9;" horiz-adv-x="579" 
d="M297 1473q-28 -17 -95.5 -29t-105.5 -12l-6 75q168 12 252 105h53v-901h-98v762z" />
    <glyph glyph-name="ordmasculine" unicode="&#xba;" horiz-adv-x="792" 
d="M393 561q-309 0 -309 348q0 163 85 255.5t243 92.5q152 0 224.5 -88t72.5 -243q0 -173 -76 -269t-240 -96zM401 643q209 0 209 275q0 141 -51 200.5t-153 59.5q-105 0 -165.5 -65.5t-60.5 -201.5q0 -268 221 -268z" />
    <glyph glyph-name="guillemotright" unicode="&#xbb;" horiz-adv-x="849" 
d="M416 516l-183 -305h-112l180 303l-176 322h111zM707 516l-183 -305h-112l180 303l-176 322h110z" />
    <glyph glyph-name="onequarter" unicode="&#xbc;" horiz-adv-x="1697" 
d="M1108 1483h96l-727 -1508h-98zM334 1333q-28 -17 -95.5 -29t-105.5 -12l-6 76q168 12 252 105h53v-902h-98v762zM1327 221h-430v78l403 602h125v-592h109v-88h-109v-221h-98v221zM1329 799l-325 -490h325v490z" />
    <glyph glyph-name="onehalf" unicode="&#xbd;" horiz-adv-x="1697" 
d="M1049 1483h96l-727 -1508h-99zM338 1333q-28 -17 -95.5 -29t-105.5 -12l-6 76q168 12 252 105h53v-902h-98v762zM1274 918q114 0 179 -55.5t65 -168.5q0 -50 -12 -94.5t-44.5 -97t-59 -87.5t-85.5 -108l-199 -217h414v-90h-526v82l219 258q51 61 71 85.5t50.5 67t41.5 68
t20 60t9 71.5q0 139 -157 139q-86 0 -122 -40.5t-48 -116.5l-91 18q18 115 90 170.5t185 55.5z" />
    <glyph glyph-name="threequarters" unicode="&#xbe;" horiz-adv-x="1697" 
d="M1174 1483h96l-727 -1508h-99zM1372 221h-430v78l404 602h124v-592h109v-88h-109v-221h-98v221zM1374 799l-325 -490h325v490zM184 795q9 -37 17.5 -57.5t26 -44.5t49 -35t77.5 -11q82 0 134.5 44t52.5 138q0 97 -53.5 137t-151.5 40h-80v84h59q97 0 155 50.5t58 127.5
q0 66 -34 101.5t-119 35.5q-82 0 -117.5 -31.5t-54.5 -99.5l-90 18q22 104 94 152.5t178 48.5q118 0 180 -58t62 -155q0 -92 -54.5 -146.5t-126.5 -72.5v-2q197 -29 197 -234q0 -119 -78 -191.5t-211 -72.5q-111 0 -181.5 55.5t-82.5 159.5z" />
    <glyph glyph-name="questiondown" unicode="&#xbf;" horiz-adv-x="901" 
d="M639 315q-77 -6 -138.5 -19t-121.5 -40t-100 -66t-64.5 -100.5t-24.5 -140.5q0 -90 23.5 -152.5t67 -94.5t94 -45t117.5 -13q61 0 107.5 10.5t90.5 37.5t76 78.5t51 127.5l88 -19q-80 -317 -418 -317q-84 0 -152 18.5t-124.5 59.5t-87.5 115.5t-31 176.5q0 89 25 161
t66 120.5t101 84t124 55.5t141 32v289h90v-359zM492 958q0 105 104 105q106 0 106 -105q0 -50 -28 -76t-78 -26q-104 0 -104 102z" />
    <glyph glyph-name="Agrave" unicode="&#xc0;" horiz-adv-x="1304" 
d="M588 1866l215 -267l-88 -28l-277 295h150zM375 594h547l-275 825zM1233 0h-111l-172 508h-604l-172 -508h-102l508 1483h143z" />
    <glyph glyph-name="Aacute" unicode="&#xc1;" horiz-adv-x="1304" 
d="M1233 0h-111l-172 508h-604l-172 -508h-102l508 1483h143zM375 594h547l-275 825zM510 1599l213 267h149l-276 -295z" />
    <glyph glyph-name="Acircumflex" unicode="&#xc2;" horiz-adv-x="1304" 
d="M1233 0h-111l-172 508h-604l-172 -508h-102l508 1483h143zM375 594h547l-275 825zM465 1571l-98 22l251 238h74l252 -238l-102 -18l-193 170z" />
    <glyph glyph-name="Atilde" unicode="&#xc3;" horiz-adv-x="1304" 
d="M1233 0h-111l-172 508h-604l-172 -508h-102l508 1483h143zM375 594h547l-275 825zM496 1788q41 3 86.5 -11t78.5 -32t72 -33.5t68 -15.5q43 0 63.5 23t20.5 96l78 -5q11 -109 -35 -154.5t-119 -45.5q-48 0 -106.5 23.5t-112 47t-92.5 23.5q-78 0 -76 -123l-74 4
q-11 108 35.5 159t112.5 44z" />
    <glyph glyph-name="Adieresis" unicode="&#xc4;" horiz-adv-x="1304" 
d="M1233 0h-111l-172 508h-604l-172 -508h-102l508 1483h143zM375 594h547l-275 825zM547 1692q0 -41 -24 -63.5t-66 -22.5q-92 0 -92 86q0 41 24.5 63.5t67.5 22.5q42 0 66 -22.5t24 -63.5zM938 1692q0 -41 -24 -63.5t-66 -22.5t-67 22.5t-25 63.5t25 63.5t67 22.5
t66 -22.5t24 -63.5z" />
    <glyph glyph-name="Aring" unicode="&#xc5;" horiz-adv-x="1304" 
d="M860 1659q0 -73 -35 -122.5t-98 -68.5l506 -1468h-111l-172 508h-604l-172 -508h-102l501 1468q-61 17 -95 64t-34 115q0 98 59.5 150t147.5 52q93 0 151 -46.5t58 -143.5zM375 594h547l-275 825zM651 1536q58 0 85.5 33t27.5 90q0 113 -113 113q-53 0 -84.5 -31.5
t-31.5 -89.5q0 -52 30 -83.5t86 -31.5z" />
    <glyph glyph-name="AE" unicode="&#xc6;" horiz-adv-x="2043" 
d="M1915 86v-86h-834v694h-483l-403 -694h-109l864 1483h948v-86h-716v-615h669v-88h-669v-608h733zM999 1397l-348 -617h430v617h-82z" />
    <glyph glyph-name="Ccedilla" unicode="&#xc7;" horiz-adv-x="1466" 
d="M637 -338q56 -39 117 -39q52 0 79 30.5t27 72.5q0 56 -37.5 83.5t-128.5 28.5l19 139q-120 9 -215.5 48.5t-161.5 104.5t-109.5 155.5t-63.5 196.5t-20 231q0 193 49.5 345t139 250t212.5 149.5t271 51.5q229 0 368.5 -119t159.5 -352l-94 -8q-27 197 -129.5 296
t-306.5 99q-260 0 -413.5 -181.5t-153.5 -514.5q0 -670 536 -670q195 0 306 81.5t155 267.5l86 -21q-21 -110 -70.5 -190.5t-122 -127.5t-157.5 -69.5t-186 -24.5l-11 -75q75 -8 123.5 -49t48.5 -121q0 -82 -54.5 -134.5t-139.5 -52.5q-91 0 -154 49z" />
    <glyph glyph-name="Egrave" unicode="&#xc8;" 
d="M578 1866l215 -267l-88 -28l-277 295h150zM1061 86v-86h-832v1483h815v-86h-716v-598h669v-88h-669v-625h733z" />
    <glyph glyph-name="Eacute" unicode="&#xc9;" 
d="M1061 86v-86h-832v1483h815v-86h-716v-598h669v-88h-669v-625h733zM500 1599l213 267h149l-276 -295z" />
    <glyph glyph-name="Ecircumflex" unicode="&#xca;" 
d="M1061 86v-86h-832v1483h815v-86h-716v-598h669v-88h-669v-625h733zM455 1571l-99 22l252 238h74l252 -238l-103 -18l-192 170z" />
    <glyph glyph-name="Edieresis" unicode="&#xcb;" 
d="M1061 86v-86h-832v1483h815v-86h-716v-598h669v-88h-669v-625h733zM537 1692q0 -41 -24.5 -63.5t-66.5 -22.5q-92 0 -92 86q0 41 24.5 63.5t67.5 22.5q42 0 66.5 -22.5t24.5 -63.5zM928 1692q0 -41 -24 -63.5t-66 -22.5t-67.5 22.5t-25.5 63.5t25.5 63.5t67.5 22.5
t66 -22.5t24 -63.5z" />
    <glyph glyph-name="Igrave" unicode="&#xcc;" horiz-adv-x="557" 
d="M215 1866l215 -267l-88 -28l-276 295h149zM229 0v1483h99v-1483h-99z" />
    <glyph glyph-name="Iacute" unicode="&#xcd;" horiz-adv-x="557" 
d="M229 0v1483h99v-1483h-99zM137 1599l213 267h150l-277 -295z" />
    <glyph glyph-name="Icircumflex" unicode="&#xce;" horiz-adv-x="557" 
d="M229 0v1483h99v-1483h-99zM92 1571l-98 22l252 238h73l252 -238l-102 -18l-193 170z" />
    <glyph glyph-name="Idieresis" unicode="&#xcf;" horiz-adv-x="557" 
d="M229 0v1483h99v-1483h-99zM174 1692q0 -41 -24 -63.5t-66 -22.5q-92 0 -92 86q0 41 24.5 63.5t67.5 22.5q42 0 66 -22.5t24 -63.5zM565 1692q0 -41 -24 -63.5t-66 -22.5t-67 22.5t-25 63.5t25 63.5t67 22.5t66 -22.5t24 -63.5z" />
    <glyph glyph-name="Eth" unicode="&#xd0;" horiz-adv-x="1517" 
d="M229 801v682h410q374 0 554.5 -188t180.5 -531q0 -173 -46 -311.5t-138.5 -240.5t-241 -157t-344.5 -55h-375v715h-194v86h194zM621 84q313 0 481 172t168 498q0 148 -29.5 259t-82 184t-133.5 118.5t-176.5 64.5t-217.5 19h-303v-598h534v-86h-534v-631h293z" />
    <glyph glyph-name="Ntilde" unicode="&#xd1;" horiz-adv-x="1525" 
d="M326 1399v-1399h-97v1483h158l815 -1374v1374h94v-1483h-133zM621 1788q41 3 86.5 -11t78.5 -32t72 -33.5t68 -15.5q43 0 63.5 23t20.5 96l77 -5q11 -109 -34.5 -154.5t-118.5 -45.5q-48 0 -106.5 23.5t-112 47t-92.5 23.5q-78 0 -76 -123l-74 4q-11 108 35.5 159
t112.5 44z" />
    <glyph glyph-name="Ograve" unicode="&#xd2;" horiz-adv-x="1599" 
d="M748 1866l215 -267l-89 -28l-276 295h150zM799 59q122 0 223 45t175 131t115.5 219t41.5 302q0 314 -148 491.5t-391 177.5q-120 0 -223 -46t-180 -131t-120.5 -215t-43.5 -290q0 -318 152.5 -501t398.5 -183zM791 -25q-160 0 -284.5 58t-203.5 162t-119.5 243t-40.5 307
q0 222 78 393.5t232.5 271t365.5 99.5q156 0 278.5 -56.5t200 -156t118 -232t40.5 -288.5q0 -369 -173.5 -585t-491.5 -216z" />
    <glyph glyph-name="Oacute" unicode="&#xd3;" horiz-adv-x="1599" 
d="M791 -25q-160 0 -284.5 58t-203.5 162t-119.5 243t-40.5 307q0 222 78 393.5t232.5 271t365.5 99.5q156 0 278.5 -56.5t200 -156t118 -232t40.5 -288.5q0 -369 -173.5 -585t-491.5 -216zM799 59q122 0 223 45t175 131t115.5 219t41.5 302q0 314 -148 491.5t-391 177.5
q-120 0 -223 -46t-180 -131t-120.5 -215t-43.5 -290q0 -318 152.5 -501t398.5 -183zM670 1599l213 267h149l-276 -295z" />
    <glyph glyph-name="Ocircumflex" unicode="&#xd4;" horiz-adv-x="1599" 
d="M791 -25q-160 0 -284.5 58t-203.5 162t-119.5 243t-40.5 307q0 222 78 393.5t232.5 271t365.5 99.5q156 0 278.5 -56.5t200 -156t118 -232t40.5 -288.5q0 -369 -173.5 -585t-491.5 -216zM799 59q122 0 223 45t175 131t115.5 219t41.5 302q0 314 -148 491.5t-391 177.5
q-120 0 -223 -46t-180 -131t-120.5 -215t-43.5 -290q0 -318 152.5 -501t398.5 -183zM625 1571l-99 22l252 238h74l252 -238l-103 -18l-192 170z" />
    <glyph glyph-name="Otilde" unicode="&#xd5;" horiz-adv-x="1599" 
d="M791 -25q-160 0 -284.5 58t-203.5 162t-119.5 243t-40.5 307q0 222 78 393.5t232.5 271t365.5 99.5q156 0 278.5 -56.5t200 -156t118 -232t40.5 -288.5q0 -369 -173.5 -585t-491.5 -216zM799 59q122 0 223 45t175 131t115.5 219t41.5 302q0 314 -148 491.5t-391 177.5
q-120 0 -223 -46t-180 -131t-120.5 -215t-43.5 -290q0 -318 152.5 -501t398.5 -183zM655 1788q41 3 86.5 -11t79 -32t72.5 -33.5t68 -15.5q42 0 62.5 23t20.5 96l78 -5q11 -109 -34.5 -154.5t-118.5 -45.5q-48 0 -106.5 23.5t-112.5 47t-93 23.5q-77 0 -75 -123l-74 4
q-11 108 35.5 159t111.5 44z" />
    <glyph glyph-name="Odieresis" unicode="&#xd6;" horiz-adv-x="1599" 
d="M791 -25q-160 0 -284.5 58t-203.5 162t-119.5 243t-40.5 307q0 222 78 393.5t232.5 271t365.5 99.5q156 0 278.5 -56.5t200 -156t118 -232t40.5 -288.5q0 -369 -173.5 -585t-491.5 -216zM799 59q122 0 223 45t175 131t115.5 219t41.5 302q0 314 -148 491.5t-391 177.5
q-120 0 -223 -46t-180 -131t-120.5 -215t-43.5 -290q0 -318 152.5 -501t398.5 -183zM707 1692q0 -41 -24.5 -63.5t-66.5 -22.5q-92 0 -92 86q0 41 24.5 63.5t67.5 22.5q42 0 66.5 -22.5t24.5 -63.5zM1098 1692q0 -41 -24 -63.5t-66 -22.5t-67.5 22.5t-25.5 63.5t25.5 63.5
t67.5 22.5t66 -22.5t24 -63.5z" />
    <glyph glyph-name="multiply" unicode="&#xd7;" 
d="M578 590l-234 -234l-68 68l234 233l-229 230l69 69l230 -229l233 234l68 -68l-234 -234l240 -239l-70 -70z" />
    <glyph glyph-name="Oslash" unicode="&#xd8;" horiz-adv-x="1599" 
d="M791 -25q-130 0 -242 39l-66 -157h-108l84 200q-156 90 -236 269.5t-80 418.5q0 222 78 393.5t232.5 271t365.5 99.5q126 0 232 -39l65 156h105l-82 -194q157 -89 237 -260t80 -396q0 -369 -173.5 -585t-491.5 -216zM799 59q122 0 223 45t175 131t115.5 219t41.5 302
q0 207 -66 356t-186 229l-516 -1241q100 -41 213 -41zM248 743q0 -207 65.5 -358.5t184.5 -234.5l518 1239q-88 36 -201 36q-120 0 -223 -46t-180 -131t-120.5 -215t-43.5 -290z" />
    <glyph glyph-name="Ugrave" unicode="&#xd9;" horiz-adv-x="1470" 
d="M672 1866l215 -267l-88 -28l-277 295h150zM319 1483v-1008q0 -220 108.5 -314.5t309.5 -94.5q101 0 175 20t129 66t82.5 125.5t27.5 193.5v1012h98v-1016q0 -244 -133.5 -368t-390.5 -124q-262 0 -383 125.5t-121 366.5v1016h98z" />
    <glyph glyph-name="Uacute" unicode="&#xda;" horiz-adv-x="1470" 
d="M737 66q101 0 175 20t129 66t82.5 125.5t27.5 193.5v1012h98v-1016q0 -244 -133.5 -368t-390.5 -124q-262 0 -383 125.5t-121 366.5v1016h98v-1008q0 -220 108.5 -314.5t309.5 -94.5zM594 1599l213 267h149l-276 -295z" />
    <glyph glyph-name="Ucircumflex" unicode="&#xdb;" horiz-adv-x="1470" 
d="M737 66q101 0 175 20t129 66t82.5 125.5t27.5 193.5v1012h98v-1016q0 -244 -133.5 -368t-390.5 -124q-262 0 -383 125.5t-121 366.5v1016h98v-1008q0 -220 108.5 -314.5t309.5 -94.5zM549 1571l-98 22l251 238h74l252 -238l-102 -18l-193 170z" />
    <glyph glyph-name="Udieresis" unicode="&#xdc;" horiz-adv-x="1470" 
d="M737 66q101 0 175 20t129 66t82.5 125.5t27.5 193.5v1012h98v-1016q0 -244 -133.5 -368t-390.5 -124q-262 0 -383 125.5t-121 366.5v1016h98v-1008q0 -220 108.5 -314.5t309.5 -94.5zM631 1692q0 -41 -24 -63.5t-66 -22.5q-92 0 -92 86q0 41 24.5 63.5t67.5 22.5
q42 0 66 -22.5t24 -63.5zM1022 1692q0 -41 -24 -63.5t-66 -22.5t-67 22.5t-25 63.5t25 63.5t67 22.5t66 -22.5t24 -63.5z" />
    <glyph glyph-name="Yacute" unicode="&#xdd;" horiz-adv-x="1101" 
d="M510 0v588l-502 895h111l442 -787h2l430 787h101l-486 -887v-596h-98zM418 1599l213 267h149l-276 -295z" />
    <glyph glyph-name="Thorn" unicode="&#xde;" horiz-adv-x="1253" 
d="M229 0v1483h95v-269h333q111 0 197.5 -23t141.5 -61.5t90.5 -93.5t50 -114t14.5 -127q0 -124 -38.5 -213t-113 -142t-174.5 -77.5t-231 -24.5h-268v-338h-97zM596 426q58 0 104.5 3.5t95 13.5t84.5 27.5t68.5 45.5t53.5 66.5t33 92.5t12 122q0 164 -99.5 248.5
t-318.5 84.5h-303v-704h270z" />
    <glyph glyph-name="germandbls" unicode="&#xdf;" horiz-adv-x="1349" 
d="M199 1100q0 471 452 471q216 0 322 -91.5t106 -265.5q0 -131 -66.5 -219t-176.5 -127v-6q193 -29 297 -131.5t104 -300.5q0 -213 -105.5 -333t-289.5 -120q-169 0 -261.5 76t-121.5 242l100 20q45 -245 279 -245q139 0 215.5 89t76.5 249q0 389 -448 389h-88v94h29
q95 0 166.5 27t110 72.5t57 97t18.5 108.5q0 281 -324 281q-86 0 -146.5 -17.5t-109 -61t-72.5 -124.5t-24 -201v-1073h-100v1100z" />
    <glyph glyph-name="agrave" unicode="&#xe0;" horiz-adv-x="1097" 
d="M901 147q0 -45 13.5 -65.5t50.5 -20.5q19 0 63 13l8 -66q-55 -24 -110 -24q-62 0 -91.5 38.5t-27.5 92.5q-63 -63 -154.5 -101.5t-197.5 -38.5q-76 0 -134 20.5t-90 50.5t-52 70.5t-26 74t-6 67.5q0 86 31 150t78.5 101t118 59.5t136.5 30t146 7.5q56 0 142 -4v92
q0 158 -52 220.5t-196 62.5q-126 0 -186 -47t-78 -148l-97 17q24 141 115.5 201.5t253.5 60.5q185 0 263.5 -77.5t78.5 -270.5v-566zM801 516q-71 6 -160 6q-86 0 -150 -10t-120.5 -36.5t-86.5 -78.5t-30 -129q0 -95 48 -151t167 -56q96 0 186 41.5t146 106.5v307zM487 1538
l232 -338l-84 -29l-295 367h147z" />
    <glyph glyph-name="aacute" unicode="&#xe1;" horiz-adv-x="1097" 
d="M901 147q0 -45 13.5 -65.5t50.5 -20.5q19 0 63 13l8 -66q-55 -24 -110 -24q-62 0 -91.5 38.5t-27.5 92.5q-63 -63 -154.5 -101.5t-197.5 -38.5q-76 0 -134 20.5t-90 50.5t-52 70.5t-26 74t-6 67.5q0 86 31 150t78.5 101t118 59.5t136.5 30t146 7.5q56 0 142 -4v92
q0 158 -52 220.5t-196 62.5q-126 0 -186 -47t-78 -148l-97 17q24 141 115.5 201.5t253.5 60.5q185 0 263.5 -77.5t78.5 -270.5v-566zM801 516q-71 6 -160 6q-86 0 -150 -10t-120.5 -36.5t-86.5 -78.5t-30 -129q0 -95 48 -151t167 -56q96 0 186 41.5t146 106.5v307zM406 1200
l231 338h147l-292 -367z" />
    <glyph glyph-name="acircumflex" unicode="&#xe2;" horiz-adv-x="1097" 
d="M901 147q0 -45 13.5 -65.5t50.5 -20.5q19 0 63 13l8 -66q-55 -24 -110 -24q-62 0 -91.5 38.5t-27.5 92.5q-63 -63 -154.5 -101.5t-197.5 -38.5q-76 0 -134 20.5t-90 50.5t-52 70.5t-26 74t-6 67.5q0 86 31 150t78.5 101t118 59.5t136.5 30t146 7.5q56 0 142 -4v92
q0 158 -52 220.5t-196 62.5q-126 0 -186 -47t-78 -148l-97 17q24 141 115.5 201.5t253.5 60.5q185 0 263.5 -77.5t78.5 -270.5v-566zM801 516q-71 6 -160 6q-86 0 -150 -10t-120.5 -36.5t-86.5 -78.5t-30 -129q0 -95 48 -151t167 -56q96 0 186 41.5t146 106.5v307zM555 1450
l-195 -270l-92 18l238 338h102l250 -338l-96 -12z" />
    <glyph glyph-name="atilde" unicode="&#xe3;" horiz-adv-x="1097" 
d="M901 147q0 -45 13.5 -65.5t50.5 -20.5q19 0 63 13l8 -66q-55 -24 -110 -24q-62 0 -91.5 38.5t-27.5 92.5q-63 -63 -154.5 -101.5t-197.5 -38.5q-76 0 -134 20.5t-90 50.5t-52 70.5t-26 74t-6 67.5q0 86 31 150t78.5 101t118 59.5t136.5 30t146 7.5q56 0 142 -4v92
q0 158 -52 220.5t-196 62.5q-126 0 -186 -47t-78 -148l-97 17q24 141 115.5 201.5t253.5 60.5q185 0 263.5 -77.5t78.5 -270.5v-566zM801 516q-71 6 -160 6q-86 0 -150 -10t-120.5 -36.5t-86.5 -78.5t-30 -129q0 -95 48 -151t167 -56q96 0 186 41.5t146 106.5v307zM395 1427
q53 5 110 -18t108.5 -48.5t86.5 -25.5q43 0 63.5 23t20.5 96l78 -4q11 -109 -34.5 -155t-118.5 -46q-48 0 -106.5 23.5t-112.5 47t-93 23.5q-77 0 -75 -122l-74 4q-6 56 5 96.5t34.5 62t50 31.5t57.5 12z" />
    <glyph glyph-name="adieresis" unicode="&#xe4;" horiz-adv-x="1097" 
d="M901 147q0 -45 13.5 -65.5t50.5 -20.5q19 0 63 13l8 -66q-55 -24 -110 -24q-62 0 -91.5 38.5t-27.5 92.5q-63 -63 -154.5 -101.5t-197.5 -38.5q-76 0 -134 20.5t-90 50.5t-52 70.5t-26 74t-6 67.5q0 86 31 150t78.5 101t118 59.5t136.5 30t146 7.5q56 0 142 -4v92
q0 158 -52 220.5t-196 62.5q-126 0 -186 -47t-78 -148l-97 17q24 141 115.5 201.5t253.5 60.5q185 0 263.5 -77.5t78.5 -270.5v-566zM801 516q-71 6 -160 6q-86 0 -150 -10t-120.5 -36.5t-86.5 -78.5t-30 -129q0 -95 48 -151t167 -56q96 0 186 41.5t146 106.5v307zM451 1362
q0 -41 -24.5 -63.5t-66.5 -22.5q-92 0 -92 86q0 41 24.5 63.5t67.5 22.5q42 0 66.5 -22.5t24.5 -63.5zM842 1362q0 -41 -24 -63.5t-66 -22.5t-67.5 22.5t-25.5 63.5t25.5 63.5t67.5 22.5t66 -22.5t24 -63.5z" />
    <glyph glyph-name="aring" unicode="&#xe5;" horiz-adv-x="1097" 
d="M901 147q0 -45 13.5 -65.5t50.5 -20.5q19 0 63 13l8 -66q-55 -24 -110 -24q-62 0 -91.5 38.5t-27.5 92.5q-63 -63 -154.5 -101.5t-197.5 -38.5q-76 0 -134 20.5t-90 50.5t-52 70.5t-26 74t-6 67.5q0 86 31 150t78.5 101t118 59.5t136.5 30t146 7.5q56 0 142 -4v92
q0 158 -52 220.5t-196 62.5q-126 0 -186 -47t-78 -148l-97 17q24 141 115.5 201.5t253.5 60.5q185 0 263.5 -77.5t78.5 -270.5v-566zM801 516q-71 6 -160 6q-86 0 -150 -10t-120.5 -36.5t-86.5 -78.5t-30 -129q0 -95 48 -151t167 -56q96 0 186 41.5t146 106.5v307zM766 1380
q0 -93 -56 -146.5t-153 -53.5q-94 0 -150.5 50.5t-56.5 137.5q0 98 59.5 150.5t147.5 52.5q93 0 151 -47t58 -144zM557 1257q58 0 85.5 33t27.5 90q0 113 -113 113q-53 0 -85 -31.5t-32 -89.5q0 -52 30.5 -83.5t86.5 -31.5z" />
    <glyph glyph-name="ae" unicode="&#xe6;" horiz-adv-x="1787" 
d="M1253 -25q-254 0 -364 168q-183 -168 -436 -168q-76 0 -134 20.5t-90 50.5t-51.5 70.5t-25 73.5t-5.5 68q0 86 30 150t77.5 101.5t116.5 60.5t135 30.5t145 7.5q54 0 148 -4v146q0 111 -57 169t-193 58q-123 0 -183 -47t-79 -148l-97 19q24 139 115.5 199.5t257.5 60.5
q264 0 318 -203q134 203 383 203q104 0 182.5 -33t124.5 -92.5t68 -135t22 -167.5q0 -55 -10 -133h-752q4 -126 33 -212.5t80 -132t111 -64.5t139 -19q127 0 193 52.5t93 162.5l97 -21q-32 -149 -138.5 -220t-253.5 -71zM471 63q103 0 201.5 44t171.5 120q-42 127 -45 289
q-86 4 -150 4q-44 0 -80 -2t-78.5 -8.5t-75 -17t-64 -29.5t-52 -44.5t-33 -63t-12.5 -83.5q0 -94 48 -151.5t169 -57.5zM1556 608q0 361 -296 361q-68 0 -129 -22t-111.5 -66t-82.5 -117.5t-36 -169.5h655v14z" />
    <glyph glyph-name="ccedilla" unicode="&#xe7;" horiz-adv-x="1085" 
d="M440 -326q56 -39 117 -39q52 0 79.5 30.5t27.5 72.5q0 56 -37.5 83.5t-128.5 28.5l16 130q-391 40 -391 536q0 271 126 408t357 137q154 0 258.5 -88t110.5 -250l-109 -12q-14 134 -79.5 198t-192.5 64q-55 0 -104.5 -12.5t-98.5 -44.5t-84.5 -81t-57.5 -127.5
t-22 -177.5q0 -108 21 -190.5t54 -132.5t81 -82t95.5 -43.5t103.5 -11.5q260 0 299 237l102 -20q-18 -105 -78.5 -176.5t-139 -102.5t-171.5 -33l-8 -63q75 -8 123.5 -49t48.5 -121q0 -82 -55 -134t-140 -52q-90 0 -153 49z" />
    <glyph glyph-name="egrave" unicode="&#xe8;" horiz-adv-x="1112" 
d="M582 -25q-129 0 -221.5 43.5t-143 122t-72.5 171.5t-22 208q0 112 26 203.5t70.5 153.5t105.5 104t130 61t145 19q101 0 177 -33t121.5 -92t68 -134.5t22.5 -166.5q0 -76 -10 -135h-750q2 -101 21.5 -177t51 -123.5t78 -76.5t97 -40t113.5 -11q121 0 190.5 53.5
t96.5 161.5l96 -19q-36 -150 -141 -221.5t-250 -71.5zM885 588q5 190 -67 285.5t-230 95.5q-68 0 -127.5 -21.5t-109.5 -65t-82.5 -119t-39.5 -175.5h656zM516 1538l232 -338l-84 -29l-295 367h147z" />
    <glyph glyph-name="eacute" unicode="&#xe9;" horiz-adv-x="1112" 
d="M582 -25q-129 0 -221.5 43.5t-143 122t-72.5 171.5t-22 208q0 112 26 203.5t70.5 153.5t105.5 104t130 61t145 19q101 0 177 -33t121.5 -92t68 -134.5t22.5 -166.5q0 -76 -10 -135h-750q2 -101 21.5 -177t51 -123.5t78 -76.5t97 -40t113.5 -11q121 0 190.5 53.5
t96.5 161.5l96 -19q-36 -150 -141 -221.5t-250 -71.5zM885 588q5 190 -67 285.5t-230 95.5q-68 0 -127.5 -21.5t-109.5 -65t-82.5 -119t-39.5 -175.5h656zM434 1200l232 338h147l-293 -367z" />
    <glyph glyph-name="ecircumflex" unicode="&#xea;" horiz-adv-x="1112" 
d="M582 -25q-129 0 -221.5 43.5t-143 122t-72.5 171.5t-22 208q0 112 26 203.5t70.5 153.5t105.5 104t130 61t145 19q101 0 177 -33t121.5 -92t68 -134.5t22.5 -166.5q0 -76 -10 -135h-750q2 -101 21.5 -177t51 -123.5t78 -76.5t97 -40t113.5 -11q121 0 190.5 53.5
t96.5 161.5l96 -19q-36 -150 -141 -221.5t-250 -71.5zM885 588q5 190 -67 285.5t-230 95.5q-68 0 -127.5 -21.5t-109.5 -65t-82.5 -119t-39.5 -175.5h656zM584 1450l-195 -270l-92 18l238 338h102l250 -338l-96 -12z" />
    <glyph glyph-name="edieresis" unicode="&#xeb;" horiz-adv-x="1112" 
d="M582 -25q-129 0 -221.5 43.5t-143 122t-72.5 171.5t-22 208q0 112 26 203.5t70.5 153.5t105.5 104t130 61t145 19q101 0 177 -33t121.5 -92t68 -134.5t22.5 -166.5q0 -76 -10 -135h-750q2 -101 21.5 -177t51 -123.5t78 -76.5t97 -40t113.5 -11q121 0 190.5 53.5
t96.5 161.5l96 -19q-36 -150 -141 -221.5t-250 -71.5zM885 588q5 190 -67 285.5t-230 95.5q-68 0 -127.5 -21.5t-109.5 -65t-82.5 -119t-39.5 -175.5h656zM479 1362q0 -41 -24 -63.5t-66 -22.5q-92 0 -92 86q0 41 24.5 63.5t67.5 22.5q42 0 66 -22.5t24 -63.5zM870 1362
q0 -41 -24 -63.5t-66 -22.5t-67 22.5t-25 63.5t25 63.5t67 22.5t66 -22.5t24 -63.5z" />
    <glyph glyph-name="igrave" unicode="&#xec;" horiz-adv-x="483" 
d="M197 0v1040h100v-1040h-100zM176 1538l232 -338l-84 -29l-295 367h147z" />
    <glyph glyph-name="iacute" unicode="&#xed;" horiz-adv-x="483" 
d="M197 0v1040h100v-1040h-100zM94 1200l232 338h147l-293 -367z" />
    <glyph glyph-name="icircumflex" unicode="&#xee;" horiz-adv-x="483" 
d="M197 0v1040h100v-1040h-100zM244 1450l-195 -270l-92 18l238 338h102l250 -338l-96 -12z" />
    <glyph glyph-name="idieresis" unicode="&#xef;" horiz-adv-x="483" 
d="M197 0v1040h100v-1040h-100zM139 1362q0 -41 -24 -63.5t-66 -22.5q-92 0 -92 86q0 41 24.5 63.5t67.5 22.5q42 0 66 -22.5t24 -63.5zM530 1362q0 -41 -24 -63.5t-66 -22.5t-67 22.5t-25 63.5t25 63.5t67 22.5t66 -22.5t24 -63.5z" />
    <glyph glyph-name="eth" unicode="&#xf0;" horiz-adv-x="1163" 
d="M629 1386q-128 88 -324 115l35 74q225 -27 381 -141l207 112l45 -71l-185 -101q126 -133 189 -320.5t63 -406.5q0 -66 -5 -127t-19 -129.5t-36 -127t-59 -113t-85 -92.5t-116.5 -60.5t-150.5 -22.5q-239 0 -353 141t-114 402q0 105 30.5 196t88.5 161t149.5 110.5
t204.5 40.5q190 0 334 -115q-59 265 -213 416l-231 -127l-41 72zM215 516q0 -72 9.5 -133.5t34 -120.5t63 -100.5t101 -66.5t144.5 -25q85 0 150.5 33t105.5 86.5t65 129.5t34.5 152.5t9.5 165.5q0 71 -6 141q-45 61 -142 106.5t-198 45.5q-182 0 -276.5 -110t-94.5 -304z
" />
    <glyph glyph-name="ntilde" unicode="&#xf1;" horiz-adv-x="1183" 
d="M903 0v696q0 137 -51.5 205t-179.5 68q-100 0 -210 -53t-171 -109v-807h-101v1040h89l6 -135q214 156 405 156q162 0 238 -90.5t76 -270.5v-700h-101zM438 1427q53 5 110 -18t108.5 -48.5t86.5 -25.5q43 0 63.5 23t20.5 96l78 -4q11 -109 -34.5 -155t-118.5 -46
q-48 0 -106.5 23.5t-112.5 47t-93 23.5q-77 0 -75 -122l-74 4q-6 56 5 96.5t34.5 62t50 31.5t57.5 12z" />
    <glyph glyph-name="ograve" unicode="&#xf2;" horiz-adv-x="1171" 
d="M582 -25q-125 0 -216 41t-143 116.5t-76 170t-24 213.5q0 256 127 400.5t358 144.5q224 0 332.5 -137.5t108.5 -380.5q0 -131 -26 -233t-81 -178t-146 -116.5t-214 -40.5zM590 68q352 0 352 462q0 238 -86 338.5t-256 100.5q-174 0 -275.5 -111t-101.5 -334
q0 -456 367 -456zM532 1538l232 -338l-84 -29l-295 367h147z" />
    <glyph glyph-name="oacute" unicode="&#xf3;" horiz-adv-x="1171" 
d="M582 -25q-125 0 -216 41t-143 116.5t-76 170t-24 213.5q0 256 127 400.5t358 144.5q224 0 332.5 -137.5t108.5 -380.5q0 -131 -26 -233t-81 -178t-146 -116.5t-214 -40.5zM590 68q352 0 352 462q0 238 -86 338.5t-256 100.5q-174 0 -275.5 -111t-101.5 -334
q0 -456 367 -456zM451 1200l231 338h147l-292 -367z" />
    <glyph glyph-name="ocircumflex" unicode="&#xf4;" horiz-adv-x="1171" 
d="M582 -25q-125 0 -216 41t-143 116.5t-76 170t-24 213.5q0 256 127 400.5t358 144.5q224 0 332.5 -137.5t108.5 -380.5q0 -131 -26 -233t-81 -178t-146 -116.5t-214 -40.5zM590 68q352 0 352 462q0 238 -86 338.5t-256 100.5q-174 0 -275.5 -111t-101.5 -334
q0 -456 367 -456zM600 1450l-194 -270l-93 18l238 338h102l250 -338l-96 -12z" />
    <glyph glyph-name="otilde" unicode="&#xf5;" horiz-adv-x="1171" 
d="M582 -25q-125 0 -216 41t-143 116.5t-76 170t-24 213.5q0 256 127 400.5t358 144.5q224 0 332.5 -137.5t108.5 -380.5q0 -131 -26 -233t-81 -178t-146 -116.5t-214 -40.5zM590 68q352 0 352 462q0 238 -86 338.5t-256 100.5q-174 0 -275.5 -111t-101.5 -334
q0 -456 367 -456zM440 1427q53 5 110 -18t108.5 -48.5t86.5 -25.5q43 0 63.5 23t20.5 96l78 -4q11 -109 -34.5 -155t-118.5 -46q-48 0 -106.5 23.5t-112.5 47t-93 23.5q-77 0 -75 -122l-74 4q-6 56 5 96.5t34.5 62t50 31.5t57.5 12z" />
    <glyph glyph-name="odieresis" unicode="&#xf6;" horiz-adv-x="1171" 
d="M582 -25q-125 0 -216 41t-143 116.5t-76 170t-24 213.5q0 256 127 400.5t358 144.5q224 0 332.5 -137.5t108.5 -380.5q0 -131 -26 -233t-81 -178t-146 -116.5t-214 -40.5zM590 68q352 0 352 462q0 238 -86 338.5t-256 100.5q-174 0 -275.5 -111t-101.5 -334
q0 -456 367 -456zM496 1362q0 -41 -24 -63.5t-66 -22.5q-93 0 -93 86q0 41 25 63.5t68 22.5q42 0 66 -22.5t24 -63.5zM887 1362q0 -41 -24 -63.5t-66 -22.5t-67 22.5t-25 63.5t25 63.5t67 22.5t66 -22.5t24 -63.5z" />
    <glyph glyph-name="divide" unicode="&#xf7;" 
d="M678 358q0 -106 -111 -106q-108 0 -108 106q0 109 108 109q111 0 111 -109zM205 711h758v-107h-758v107zM678 961q0 -107 -111 -107q-108 0 -108 107q0 108 108 108q111 0 111 -108z" />
    <glyph glyph-name="oslash" unicode="&#xf8;" horiz-adv-x="1171" 
d="M582 -25q-88 0 -176 25l-66 -147h-102l81 186q-196 125 -196 477q0 256 127 400.5t358 144.5q88 0 156 -21l70 158h102l-88 -197q201 -119 201 -458q0 -131 -26 -233t-81 -178t-146 -116.5t-214 -40.5zM590 68q352 0 352 462q0 292 -133 381l-365 -821q59 -22 146 -22z
M223 524q0 -280 139 -389l363 817q-66 17 -125 17q-174 0 -275.5 -111t-101.5 -334z" />
    <glyph glyph-name="ugrave" unicode="&#xf9;" horiz-adv-x="1189" 
d="M285 1040v-696q0 -136 51 -204t176 -68q100 0 209 52.5t170 108.5v807h100v-1040h-88l-6 133q-103 -75 -196.5 -114t-206.5 -39q-163 0 -236.5 90t-73.5 272v698h101zM518 1538l232 -338l-84 -29l-295 367h147z" />
    <glyph glyph-name="uacute" unicode="&#xfa;" horiz-adv-x="1189" 
d="M285 1040v-696q0 -136 51 -204t176 -68q100 0 209 52.5t170 108.5v807h100v-1040h-88l-6 133q-103 -75 -196.5 -114t-206.5 -39q-163 0 -236.5 90t-73.5 272v698h101zM436 1200l232 338h147l-293 -367z" />
    <glyph glyph-name="ucircumflex" unicode="&#xfb;" horiz-adv-x="1189" 
d="M285 1040v-696q0 -136 51 -204t176 -68q100 0 209 52.5t170 108.5v807h100v-1040h-88l-6 133q-103 -75 -196.5 -114t-206.5 -39q-163 0 -236.5 90t-73.5 272v698h101zM586 1450l-195 -270l-92 18l238 338h102l250 -338l-96 -12z" />
    <glyph glyph-name="udieresis" unicode="&#xfc;" horiz-adv-x="1189" 
d="M285 1040v-696q0 -136 51 -204t176 -68q100 0 209 52.5t170 108.5v807h100v-1040h-88l-6 133q-103 -75 -196.5 -114t-206.5 -39q-163 0 -236.5 90t-73.5 272v698h101zM481 1362q0 -41 -24 -63.5t-66 -22.5q-92 0 -92 86q0 41 24.5 63.5t67.5 22.5q42 0 66 -22.5t24 -63.5
zM872 1362q0 -41 -24 -63.5t-66 -22.5t-67 22.5t-25 63.5t25 63.5t67 22.5t66 -22.5t24 -63.5z" />
    <glyph glyph-name="yacute" unicode="&#xfd;" horiz-adv-x="935" 
d="M141 1040l326 -903h2l334 903h106q-227 -599 -475 -1235q-58 -144 -131.5 -203t-177.5 -59q-75 0 -178 37l20 84q73 -33 164 -33q72 0 124 45.5t97 165.5l60 158l-377 1040h106zM330 1200l231 338h148l-293 -367z" />
    <glyph glyph-name="thorn" unicode="&#xfe;" horiz-adv-x="1187" 
d="M293 1546v-639q175 154 383 154q84 0 151 -27.5t119.5 -86t80.5 -160t28 -240.5q0 -146 -35 -258.5t-96.5 -179.5t-139 -100.5t-168.5 -33.5q-158 0 -325 115v-524h-96v1980h98zM295 190q34 -25 55.5 -38.5t66.5 -37.5t95.5 -36t103.5 -12q117 0 193 63.5t108.5 170
t32.5 257.5q0 223 -69.5 319.5t-223.5 96.5q-98 0 -200 -50t-162 -114v-619z" />
    <glyph glyph-name="ydieresis" unicode="&#xff;" horiz-adv-x="935" 
d="M141 1040l326 -903h2l334 903h106q-227 -599 -475 -1235q-58 -144 -131.5 -203t-177.5 -59q-75 0 -178 37l20 84q73 -33 164 -33q72 0 124 45.5t97 165.5l60 158l-377 1040h106zM375 1362q0 -41 -24 -63.5t-66 -22.5q-92 0 -92 86q0 41 24.5 63.5t67.5 22.5
q42 0 66 -22.5t24 -63.5zM766 1362q0 -41 -24 -63.5t-66 -22.5t-67 22.5t-25 63.5t25 63.5t67 22.5t66 -22.5t24 -63.5z" />
    <glyph glyph-name="Amacron" unicode="&#x100;" horiz-adv-x="1304" 
d="M1233 0h-111l-172 508h-604l-172 -508h-102l508 1483h143zM375 594h547l-275 825zM344 1731h614v-93h-614v93z" />
    <glyph glyph-name="amacron" unicode="&#x101;" horiz-adv-x="1097" 
d="M901 147q0 -45 13.5 -65.5t50.5 -20.5q19 0 63 13l8 -66q-55 -24 -110 -24q-62 0 -91.5 38.5t-27.5 92.5q-63 -63 -154.5 -101.5t-197.5 -38.5q-76 0 -134 20.5t-90 50.5t-52 70.5t-26 74t-6 67.5q0 86 31 150t78.5 101t118 59.5t136.5 30t146 7.5q56 0 142 -4v92
q0 158 -52 220.5t-196 62.5q-126 0 -186 -47t-78 -148l-97 17q24 141 115.5 201.5t253.5 60.5q185 0 263.5 -77.5t78.5 -270.5v-566zM801 516q-71 6 -160 6q-86 0 -150 -10t-120.5 -36.5t-86.5 -78.5t-30 -129q0 -95 48 -151t167 -56q96 0 186 41.5t146 106.5v307zM272 1413
h568v-92h-568v92z" />
    <glyph glyph-name="Abreve" unicode="&#x102;" horiz-adv-x="1304" 
d="M1233 0h-111l-172 508h-604l-172 -508h-102l508 1483h143zM375 594h547l-275 825zM653 1694q80 0 128 35.5t61 119.5l92 -8q-14 -106 -85 -169.5t-198 -63.5q-235 0 -260 231l90 10q17 -86 57 -120.5t115 -34.5z" />
    <glyph glyph-name="abreve" unicode="&#x103;" horiz-adv-x="1097" 
d="M901 147q0 -45 13.5 -65.5t50.5 -20.5q19 0 63 13l8 -66q-55 -24 -110 -24q-62 0 -91.5 38.5t-27.5 92.5q-63 -63 -154.5 -101.5t-197.5 -38.5q-76 0 -134 20.5t-90 50.5t-52 70.5t-26 74t-6 67.5q0 86 31 150t78.5 101t118 59.5t136.5 30t146 7.5q56 0 142 -4v92
q0 158 -52 220.5t-196 62.5q-126 0 -186 -47t-78 -148l-97 17q24 141 115.5 201.5t253.5 60.5q185 0 263.5 -77.5t78.5 -270.5v-566zM801 516q-71 6 -160 6q-86 0 -150 -10t-120.5 -36.5t-86.5 -78.5t-30 -129q0 -95 48 -151t167 -56q96 0 186 41.5t146 106.5v307zM840 1483
q5 -140 -67.5 -223.5t-217.5 -83.5q-138 0 -204 76t-68 227l90 12q7 -131 50 -180t134 -49q98 0 146 50.5t49 178.5z" />
    <glyph glyph-name="Aogonek" unicode="&#x104;" horiz-adv-x="1304" 
d="M1313 -328q-30 -64 -89.5 -96.5t-121.5 -32.5q-77 0 -128.5 43.5t-51.5 120.5q0 51 17.5 97t51.5 86t60 64.5t67 57.5l-168 496h-604l-172 -508h-102l508 1483h143l510 -1483q-53 -41 -82.5 -67.5t-60.5 -62t-44.5 -71.5t-13.5 -78q0 -39 23 -63.5t63 -24.5q74 0 121 80z
M375 594h547l-275 825z" />
    <glyph glyph-name="aogonek" unicode="&#x105;" horiz-adv-x="1097" 
d="M1087 -328q-30 -64 -89 -96.5t-121 -32.5q-77 0 -129 43.5t-52 120.5q0 47 15 89.5t45 80t54.5 62t61.5 55.5q-36 13 -51.5 46.5t-13.5 74.5q-63 -63 -154.5 -101.5t-197.5 -38.5q-76 0 -134 20.5t-90 50.5t-52 70.5t-26 74t-6 67.5q0 86 31 150t78.5 101t118 59.5
t136.5 30t146 7.5q56 0 142 -4v92q0 158 -52 220.5t-196 62.5q-126 0 -186 -47t-78 -148l-97 17q24 141 115.5 201.5t253.5 60.5q185 0 263.5 -77.5t78.5 -270.5v-566q0 -45 13.5 -65.5t50.5 -20.5q19 0 63 13l8 -66q-90 -40 -159.5 -121.5t-69.5 -165.5q0 -39 23 -63.5
t63 -24.5q74 0 121 80zM801 516q-71 6 -160 6q-86 0 -150 -10t-120.5 -36.5t-86.5 -78.5t-30 -129q0 -95 48 -151t167 -56q96 0 186 41.5t146 106.5v307z" />
    <glyph glyph-name="Cacute" unicode="&#x106;" horiz-adv-x="1466" 
d="M776 -25q-133 0 -239.5 35.5t-179.5 100t-121.5 157t-70.5 203t-22 242.5q0 193 49.5 345t139 250t212.5 149.5t271 51.5q229 0 368.5 -119t159.5 -352l-94 -8q-27 197 -129.5 296t-306.5 99q-260 0 -413.5 -181.5t-153.5 -514.5q0 -670 536 -670q195 0 306 81.5
t155 267.5l86 -21q-21 -111 -72 -192.5t-126 -128.5t-163 -69t-192 -22zM668 1599l213 267h149l-276 -295z" />
    <glyph glyph-name="cacute" unicode="&#x107;" horiz-adv-x="1085" 
d="M584 -25q-461 0 -461 541q0 271 126 408t357 137q154 0 258.5 -88t110.5 -250l-109 -12q-14 134 -79.5 198t-192.5 64q-55 0 -104.5 -12.5t-98.5 -44.5t-84.5 -81t-57.5 -127.5t-22 -177.5q0 -108 21 -190.5t54 -132.5t81 -82t95.5 -43.5t103.5 -11.5q260 0 299 237
l102 -20q-13 -80 -51.5 -141.5t-94 -98t-119.5 -54.5t-134 -18zM430 1200l232 338h147l-293 -367z" />
    <glyph glyph-name="Ccircumflex" unicode="&#x108;" horiz-adv-x="1466" 
d="M776 -25q-133 0 -239.5 35.5t-179.5 100t-121.5 157t-70.5 203t-22 242.5q0 193 49.5 345t139 250t212.5 149.5t271 51.5q229 0 368.5 -119t159.5 -352l-94 -8q-27 197 -129.5 296t-306.5 99q-260 0 -413.5 -181.5t-153.5 -514.5q0 -670 536 -670q195 0 306 81.5
t155 267.5l86 -21q-21 -111 -72 -192.5t-126 -128.5t-163 -69t-192 -22zM623 1571l-99 22l252 238h74l252 -238l-103 -18l-192 170z" />
    <glyph glyph-name="ccircumflex" unicode="&#x109;" horiz-adv-x="1085" 
d="M584 -25q-461 0 -461 541q0 271 126 408t357 137q154 0 258.5 -88t110.5 -250l-109 -12q-14 134 -79.5 198t-192.5 64q-55 0 -104.5 -12.5t-98.5 -44.5t-84.5 -81t-57.5 -127.5t-22 -177.5q0 -108 21 -190.5t54 -132.5t81 -82t95.5 -43.5t103.5 -11.5q260 0 299 237
l102 -20q-13 -80 -51.5 -141.5t-94 -98t-119.5 -54.5t-134 -18zM580 1450l-195 -270l-92 18l237 338h103l250 -338l-97 -12z" />
    <glyph glyph-name="Cdotaccent" unicode="&#x10a;" horiz-adv-x="1466" 
d="M776 -25q-133 0 -239.5 35.5t-179.5 100t-121.5 157t-70.5 203t-22 242.5q0 193 49.5 345t139 250t212.5 149.5t271 51.5q229 0 368.5 -119t159.5 -352l-94 -8q-27 197 -129.5 296t-306.5 99q-260 0 -413.5 -181.5t-153.5 -514.5q0 -670 536 -670q195 0 306 81.5
t155 267.5l86 -21q-21 -111 -72 -192.5t-126 -128.5t-163 -69t-192 -22zM903 1692q0 -86 -94 -86t-94 86q0 88 94 88t94 -88z" />
    <glyph glyph-name="cdotaccent" unicode="&#x10b;" horiz-adv-x="1085" 
d="M584 -25q-461 0 -461 541q0 271 126 408t357 137q154 0 258.5 -88t110.5 -250l-109 -12q-14 134 -79.5 198t-192.5 64q-55 0 -104.5 -12.5t-98.5 -44.5t-84.5 -81t-57.5 -127.5t-22 -177.5q0 -108 21 -190.5t54 -132.5t81 -82t95.5 -43.5t103.5 -11.5q260 0 299 237
l102 -20q-13 -80 -51.5 -141.5t-94 -98t-119.5 -54.5t-134 -18zM676 1386q0 -86 -94 -86q-95 0 -95 86q0 89 95 89q94 0 94 -89z" />
    <glyph glyph-name="Ccaron" unicode="&#x10c;" horiz-adv-x="1466" 
d="M776 -25q-133 0 -239.5 35.5t-179.5 100t-121.5 157t-70.5 203t-22 242.5q0 193 49.5 345t139 250t212.5 149.5t271 51.5q229 0 368.5 -119t159.5 -352l-94 -8q-27 197 -129.5 296t-306.5 99q-260 0 -413.5 -181.5t-153.5 -514.5q0 -670 536 -670q195 0 306 81.5
t155 267.5l86 -21q-21 -111 -72 -192.5t-126 -128.5t-163 -69t-192 -22zM999 1841l99 -22l-252 -238h-74l-252 238l103 18l192 -170z" />
    <glyph glyph-name="ccaron" unicode="&#x10d;" horiz-adv-x="1085" 
d="M584 -25q-461 0 -461 541q0 271 126 408t357 137q154 0 258.5 -88t110.5 -250l-109 -12q-14 134 -79.5 198t-192.5 64q-55 0 -104.5 -12.5t-98.5 -44.5t-84.5 -81t-57.5 -127.5t-22 -177.5q0 -108 21 -190.5t54 -132.5t81 -82t95.5 -43.5t103.5 -11.5q260 0 299 237
l102 -20q-13 -80 -51.5 -141.5t-94 -98t-119.5 -54.5t-134 -18zM584 1257l200 271l88 -19l-237 -338h-105l-247 338l104 15z" />
    <glyph glyph-name="Dcaron" unicode="&#x10e;" horiz-adv-x="1517" 
d="M229 1483h410q374 0 554.5 -188t180.5 -531q0 -173 -46 -311.5t-138.5 -240.5t-241 -157t-344.5 -55h-375v1483zM621 84q313 0 481 172t168 498q0 148 -29.5 259t-82 184t-133.5 118.5t-176.5 64.5t-217.5 19h-303v-1315h293zM864 1841l99 -22l-252 -238h-74l-252 238
l102 18l193 -170z" />
    <glyph glyph-name="dcaron" unicode="&#x10f;" horiz-adv-x="1284" 
d="M909 0l-10 119q-86 -69 -172.5 -106.5t-198.5 -37.5q-183 0 -289 130.5t-106 404.5q0 145 35.5 254t98.5 172.5t141.5 94t171.5 30.5q163 0 313 -103v588h102v-1546h-86zM895 858q-54 41 -139.5 77t-177.5 36q-180 0 -259 -120.5t-79 -342.5q0 -224 76 -334.5t233 -110.5
q100 0 192.5 45t153.5 113v637zM1341 1546l-120 -403l-78 16l67 387h131z" />
    <glyph glyph-name="Dcroat" unicode="&#x110;" horiz-adv-x="1517" 
d="M229 801v682h410q374 0 554.5 -188t180.5 -531q0 -173 -46 -311.5t-138.5 -240.5t-241 -157t-344.5 -55h-375v715h-194v86h194zM621 84q313 0 481 172t168 498q0 148 -29.5 259t-82 184t-133.5 118.5t-176.5 64.5t-217.5 19h-303v-598h534v-86h-534v-631h293z" />
    <glyph glyph-name="dslash" unicode="&#x111;" horiz-adv-x="1189" 
d="M1128 1292v-96h-133v-1196h-86l-10 119q-86 -69 -172.5 -106.5t-198.5 -37.5q-183 0 -289 125t-106 389q0 140 35.5 245.5t98.5 166t141.5 90t171.5 29.5q165 0 313 -102v278h-432v96h432v254h102v-254h133zM895 817q-54 41 -139.5 77t-177.5 36q-180 0 -259 -115.5
t-79 -327.5t76 -318t233 -106q100 0 192.5 45t153.5 113v596z" />
    <glyph glyph-name="Emacron" unicode="&#x112;" 
d="M1061 86v-86h-832v1483h815v-86h-716v-598h669v-88h-669v-625h733zM334 1731h614v-93h-614v93z" />
    <glyph glyph-name="emacron" unicode="&#x113;" horiz-adv-x="1112" 
d="M582 -25q-129 0 -221.5 43.5t-143 122t-72.5 171.5t-22 208q0 112 26 203.5t70.5 153.5t105.5 104t130 61t145 19q101 0 177 -33t121.5 -92t68 -134.5t22.5 -166.5q0 -76 -10 -135h-750q2 -101 21.5 -177t51 -123.5t78 -76.5t97 -40t113.5 -11q121 0 190.5 53.5
t96.5 161.5l96 -19q-36 -150 -141 -221.5t-250 -71.5zM885 588q5 190 -67 285.5t-230 95.5q-68 0 -127.5 -21.5t-109.5 -65t-82.5 -119t-39.5 -175.5h656zM301 1413h567v-92h-567v92z" />
    <glyph glyph-name="Ebreve" unicode="&#x114;" 
d="M1061 86v-86h-832v1483h815v-86h-716v-598h669v-88h-669v-625h733zM643 1694q80 0 127.5 35.5t60.5 119.5l93 -8q-14 -106 -85 -169.5t-198 -63.5q-235 0 -260 231l90 10q17 -86 57 -120.5t115 -34.5z" />
    <glyph glyph-name="ebreve" unicode="&#x115;" horiz-adv-x="1112" 
d="M582 -25q-129 0 -221.5 43.5t-143 122t-72.5 171.5t-22 208q0 112 26 203.5t70.5 153.5t105.5 104t130 61t145 19q101 0 177 -33t121.5 -92t68 -134.5t22.5 -166.5q0 -76 -10 -135h-750q2 -101 21.5 -177t51 -123.5t78 -76.5t97 -40t113.5 -11q121 0 190.5 53.5
t96.5 161.5l96 -19q-36 -150 -141 -221.5t-250 -71.5zM885 588q5 190 -67 285.5t-230 95.5q-68 0 -127.5 -21.5t-109.5 -65t-82.5 -119t-39.5 -175.5h656zM868 1483q5 -140 -67 -223.5t-217 -83.5q-270 0 -273 303l90 12q7 -130 50 -179.5t135 -49.5q98 0 145.5 50.5
t48.5 178.5z" />
    <glyph glyph-name="Edotaccent" unicode="&#x116;" 
d="M1061 86v-86h-832v1483h815v-86h-716v-598h669v-88h-669v-625h733zM735 1692q0 -86 -94 -86t-94 86q0 88 94 88t94 -88z" />
    <glyph glyph-name="edotaccent" unicode="&#x117;" horiz-adv-x="1112" 
d="M582 -25q-129 0 -221.5 43.5t-143 122t-72.5 171.5t-22 208q0 112 26 203.5t70.5 153.5t105.5 104t130 61t145 19q101 0 177 -33t121.5 -92t68 -134.5t22.5 -166.5q0 -76 -10 -135h-750q2 -101 21.5 -177t51 -123.5t78 -76.5t97 -40t113.5 -11q121 0 190.5 53.5
t96.5 161.5l96 -19q-36 -150 -141 -221.5t-250 -71.5zM885 588q5 190 -67 285.5t-230 95.5q-68 0 -127.5 -21.5t-109.5 -65t-82.5 -119t-39.5 -175.5h656zM680 1386q0 -86 -94 -86t-94 86q0 89 94 89t94 -89z" />
    <glyph glyph-name="Eogonek" unicode="&#x118;" 
d="M1096 -328q-30 -64 -89.5 -96.5t-121.5 -32.5q-77 0 -128.5 43.5t-51.5 120.5q0 147 163 293h-639v1483h815v-86h-716v-598h669v-88h-669v-625h733v-86h-72q-89 -77 -131.5 -140t-42.5 -139q0 -39 23 -63.5t63 -24.5q74 0 121 80z" />
    <glyph glyph-name="eogonek" unicode="&#x119;" horiz-adv-x="1112" 
d="M866 -328q-30 -64 -89.5 -96.5t-121.5 -32.5q-77 0 -128.5 43.5t-51.5 120.5q0 54 22 103t51 83.5t81 83.5q-14 -2 -47 -2q-129 0 -221.5 43.5t-143 122t-72.5 171.5t-22 208q0 112 26 203.5t70.5 153.5t105.5 104t130 61t145 19q101 0 177 -33t121.5 -92t68 -134.5
t22.5 -166.5q0 -76 -10 -135h-750q2 -101 21.5 -177t51 -123.5t78 -76.5t97 -40t113.5 -11q121 0 190.5 53.5t96.5 161.5l96 -19q-21 -89 -67 -145.5t-120 -108.5q-200 -142 -200 -293q0 -39 23 -63.5t63 -24.5q74 0 121 80zM885 588q5 190 -67 285.5t-230 95.5
q-68 0 -127.5 -21.5t-109.5 -65t-82.5 -119t-39.5 -175.5h656z" />
    <glyph glyph-name="Ecaron" unicode="&#x11a;" 
d="M1061 86v-86h-832v1483h815v-86h-716v-598h669v-88h-669v-625h733zM831 1841l99 -22l-252 -238h-74l-252 238l103 18l192 -170z" />
    <glyph glyph-name="ecaron" unicode="&#x11b;" horiz-adv-x="1112" 
d="M582 -25q-129 0 -221.5 43.5t-143 122t-72.5 171.5t-22 208q0 112 26 203.5t70.5 153.5t105.5 104t130 61t145 19q101 0 177 -33t121.5 -92t68 -134.5t22.5 -166.5q0 -76 -10 -135h-750q2 -101 21.5 -177t51 -123.5t78 -76.5t97 -40t113.5 -11q121 0 190.5 53.5
t96.5 161.5l96 -19q-36 -150 -141 -221.5t-250 -71.5zM885 588q5 190 -67 285.5t-230 95.5q-68 0 -127.5 -21.5t-109.5 -65t-82.5 -119t-39.5 -175.5h656zM588 1257l200 271l89 -19l-238 -338h-104l-248 338l104 15z" />
    <glyph glyph-name="Gcircumflex" unicode="&#x11c;" horiz-adv-x="1548" 
d="M1243 236q-43 -109 -167.5 -185t-297.5 -76q-164 0 -287 55t-198.5 156t-112.5 236.5t-37 304.5q0 193 49 342.5t139 245.5t213 145t275 49q234 0 369 -116t155 -359l-94 -10q-12 113 -46.5 191.5t-91.5 124t-129 65.5t-169 20q-264 0 -416 -180q-153 -179 -153 -510
q0 -160 31 -282t81.5 -195.5t123.5 -119.5t147.5 -62.5t163.5 -16.5q109 0 198.5 39.5t145 104t85 140.5t29.5 153v178h-481v92h567v-766h-75zM625 1571l-99 22l252 238h74l252 -238l-103 -18l-192 170z" />
    <glyph glyph-name="gcircumflex" unicode="&#x11d;" horiz-adv-x="1120" 
d="M545 1061q224 0 325 -123q46 111 136 111q29 0 73 -13v-88q-111 0 -190 -39q65 -74 65 -219q0 -172 -114 -270t-287 -98q-134 0 -207 28q-41 -31 -63.5 -60t-22.5 -67q0 -42 35.5 -64t132.5 -28l297 -16q168 -8 248 -63.5t80 -188.5q0 -56 -17 -103t-46 -80t-70 -58.5
t-85.5 -41t-97 -25.5t-100 -14t-98.5 -4q-455 0 -455 268q0 103 53 162q53 56 121 105q-42 11 -70 47t-28 82q0 97 114 186q-71 35 -113 113.5t-42 173.5q0 183 119 284q121 103 307 103zM848 688q0 144 -77.5 215.5t-221.5 71.5q-68 0 -125 -16.5t-102.5 -50.5t-71 -92.5
t-25.5 -135.5q0 -127 77.5 -199.5t238.5 -72.5q140 0 223.5 75.5t83.5 204.5zM946 -133q0 146 -211 156l-391 20q-73 -52 -114.5 -104.5t-41.5 -118.5q0 -191 361 -191q397 0 397 238zM551 1450l-195 -270l-92 18l238 338h102l250 -338l-96 -12z" />
    <glyph glyph-name="Gbreve" unicode="&#x11e;" horiz-adv-x="1548" 
d="M1243 236q-43 -109 -167.5 -185t-297.5 -76q-164 0 -287 55t-198.5 156t-112.5 236.5t-37 304.5q0 193 49 342.5t139 245.5t213 145t275 49q234 0 369 -116t155 -359l-94 -10q-12 113 -46.5 191.5t-91.5 124t-129 65.5t-169 20q-264 0 -416 -180q-153 -179 -153 -510
q0 -160 31 -282t81.5 -195.5t123.5 -119.5t147.5 -62.5t163.5 -16.5q109 0 198.5 39.5t145 104t85 140.5t29.5 153v178h-481v92h567v-766h-75zM813 1694q80 0 127.5 35.5t60.5 119.5l93 -8q-14 -106 -85 -169.5t-198 -63.5q-235 0 -260 231l90 10q17 -86 57 -120.5
t115 -34.5z" />
    <glyph glyph-name="gbreve" unicode="&#x11f;" horiz-adv-x="1120" 
d="M545 1061q224 0 325 -123q46 111 136 111q29 0 73 -13v-88q-111 0 -190 -39q65 -74 65 -219q0 -172 -114 -270t-287 -98q-134 0 -207 28q-41 -31 -63.5 -60t-22.5 -67q0 -42 35.5 -64t132.5 -28l297 -16q168 -8 248 -63.5t80 -188.5q0 -56 -17 -103t-46 -80t-70 -58.5
t-85.5 -41t-97 -25.5t-100 -14t-98.5 -4q-455 0 -455 268q0 103 53 162q53 56 121 105q-42 11 -70 47t-28 82q0 97 114 186q-71 35 -113 113.5t-42 173.5q0 183 119 284q121 103 307 103zM848 688q0 144 -77.5 215.5t-221.5 71.5q-68 0 -125 -16.5t-102.5 -50.5t-71 -92.5
t-25.5 -135.5q0 -127 77.5 -199.5t238.5 -72.5q140 0 223.5 75.5t83.5 204.5zM946 -133q0 146 -211 156l-391 20q-73 -52 -114.5 -104.5t-41.5 -118.5q0 -191 361 -191q397 0 397 238zM836 1483q5 -140 -67.5 -223.5t-217.5 -83.5q-138 0 -204 76t-68 227l90 12
q7 -131 50 -180t134 -49q98 0 146 50.5t49 178.5z" />
    <glyph glyph-name="Gdotaccent" unicode="&#x120;" horiz-adv-x="1548" 
d="M1243 236q-43 -109 -167.5 -185t-297.5 -76q-164 0 -287 55t-198.5 156t-112.5 236.5t-37 304.5q0 193 49 342.5t139 245.5t213 145t275 49q234 0 369 -116t155 -359l-94 -10q-12 113 -46.5 191.5t-91.5 124t-129 65.5t-169 20q-264 0 -416 -180q-153 -179 -153 -510
q0 -160 31 -282t81.5 -195.5t123.5 -119.5t147.5 -62.5t163.5 -16.5q109 0 198.5 39.5t145 104t85 140.5t29.5 153v178h-481v92h567v-766h-75zM905 1692q0 -86 -94 -86t-94 86q0 88 94 88t94 -88z" />
    <glyph glyph-name="gdotaccent" unicode="&#x121;" horiz-adv-x="1120" 
d="M545 1061q224 0 325 -123q46 111 136 111q29 0 73 -13v-88q-111 0 -190 -39q65 -74 65 -219q0 -172 -114 -270t-287 -98q-134 0 -207 28q-41 -31 -63.5 -60t-22.5 -67q0 -42 35.5 -64t132.5 -28l297 -16q168 -8 248 -63.5t80 -188.5q0 -56 -17 -103t-46 -80t-70 -58.5
t-85.5 -41t-97 -25.5t-100 -14t-98.5 -4q-455 0 -455 268q0 103 53 162q53 56 121 105q-42 11 -70 47t-28 82q0 97 114 186q-71 35 -113 113.5t-42 173.5q0 183 119 284q121 103 307 103zM848 688q0 144 -77.5 215.5t-221.5 71.5q-68 0 -125 -16.5t-102.5 -50.5t-71 -92.5
t-25.5 -135.5q0 -127 77.5 -199.5t238.5 -72.5q140 0 223.5 75.5t83.5 204.5zM946 -133q0 146 -211 156l-391 20q-73 -52 -114.5 -104.5t-41.5 -118.5q0 -191 361 -191q397 0 397 238zM647 1386q0 -86 -94 -86t-94 86q0 89 94 89t94 -89z" />
    <glyph glyph-name="uni0122" unicode="&#x122;" horiz-adv-x="1548" 
d="M1243 236q-43 -109 -167.5 -185t-297.5 -76q-164 0 -287 55t-198.5 156t-112.5 236.5t-37 304.5q0 193 49 342.5t139 245.5t213 145t275 49q234 0 369 -116t155 -359l-94 -10q-12 113 -46.5 191.5t-91.5 124t-129 65.5t-169 20q-264 0 -416 -180q-153 -179 -153 -510
q0 -160 31 -282t81.5 -195.5t123.5 -119.5t147.5 -62.5t163.5 -16.5q109 0 198.5 39.5t145 104t85 140.5t29.5 153v178h-481v92h567v-766h-75zM858 -141l-119 -301l-86 14l70 287h135z" />
    <glyph glyph-name="uni0123" unicode="&#x123;" horiz-adv-x="1120" 
d="M545 1061q224 0 325 -123q46 111 136 111q29 0 73 -13v-88q-111 0 -190 -39q65 -74 65 -219q0 -172 -114 -270t-287 -98q-134 0 -207 28q-41 -31 -63.5 -60t-22.5 -67q0 -42 35.5 -64t132.5 -28l297 -16q168 -8 248 -63.5t80 -188.5q0 -56 -17 -103t-46 -80t-70 -58.5
t-85.5 -41t-97 -25.5t-100 -14t-98.5 -4q-455 0 -455 268q0 103 53 162q53 56 121 105q-42 11 -70 47t-28 82q0 97 114 186q-71 35 -113 113.5t-42 173.5q0 183 119 284q121 103 307 103zM848 688q0 144 -77.5 215.5t-221.5 71.5q-68 0 -125 -16.5t-102.5 -50.5t-71 -92.5
t-25.5 -135.5q0 -127 77.5 -199.5t238.5 -72.5q140 0 223.5 75.5t83.5 204.5zM946 -133q0 146 -211 156l-391 20q-73 -52 -114.5 -104.5t-41.5 -118.5q0 -191 361 -191q397 0 397 238zM463 1167l117 299l88 -12l-70 -287h-135z" />
    <glyph glyph-name="Hcircumflex" unicode="&#x124;" horiz-adv-x="1484" 
d="M1157 0v717h-829v-717h-99v1483h99v-676h829v676h98v-1483h-98zM555 1571l-98 22l252 238h73l252 -238l-102 -18l-193 170z" />
    <glyph glyph-name="hcircumflex" unicode="&#x125;" horiz-adv-x="1183" 
d="M903 0v696q0 136 -52.5 203.5t-180.5 67.5q-100 0 -208.5 -51.5t-170.5 -108.5v-807h-101v1546h101v-639q212 154 397 154q163 0 239.5 -90.5t76.5 -270.5v-700h-101zM70 1618l-99 22l252 238h74l252 -238l-103 -18l-192 170z" />
    <glyph glyph-name="Hbar" unicode="&#x126;" horiz-adv-x="1484" 
d="M1419 1184v-92h-164v-1092h-98v717h-829v-717h-99v1092h-163v92h163v299h99v-299h829v299h98v-299h164zM1157 1092h-829v-285h829v285z" />
    <glyph glyph-name="hbar" unicode="&#x127;" horiz-adv-x="1183" 
d="M190 1282v264h101v-264h414v-96h-414v-320q212 154 397 154q163 0 239.5 -90.5t76.5 -270.5v-659h-101v655q0 136 -52.5 203.5t-180.5 67.5q-100 0 -208.5 -51.5t-170.5 -108.5v-766h-101v1186h-141v96h141z" />
    <glyph glyph-name="Itilde" unicode="&#x128;" horiz-adv-x="557" 
d="M236 0v1483h98v-1483h-98zM129 1788q41 3 86.5 -11t78.5 -32t72 -33.5t68 -15.5q43 0 63.5 23t20.5 96l78 -5q11 -109 -35 -154.5t-119 -45.5q-48 0 -106.5 23.5t-112 47t-92.5 23.5q-78 0 -76 -123l-73 4q-11 108 35.5 159t111.5 44z" />
    <glyph glyph-name="itilde" unicode="&#x129;" horiz-adv-x="483" 
d="M203 0v1040h100v-1040h-100zM90 1427q53 5 110 -18t108.5 -48.5t86.5 -25.5q43 0 63.5 23t20.5 96l78 -4q11 -109 -35 -155t-119 -46q-48 0 -106.5 23.5t-112 47t-92.5 23.5q-78 0 -76 -122l-73 4q-6 56 5 96.5t34.5 62t50 31.5t57.5 12z" />
    <glyph glyph-name="Imacron" unicode="&#x12a;" horiz-adv-x="557" 
d="M229 0v1483h99v-1483h-99zM-29 1731h615v-93h-615v93z" />
    <glyph glyph-name="imacron" unicode="&#x12b;" horiz-adv-x="483" 
d="M197 0v1040h100v-1040h-100zM-39 1413h567v-92h-567v92z" />
    <glyph glyph-name="Ibreve" unicode="&#x12c;" horiz-adv-x="557" 
d="M229 0v1483h99v-1483h-99zM281 1694q80 0 127.5 35.5t60.5 119.5l92 -8q-14 -106 -84.5 -169.5t-197.5 -63.5q-236 0 -261 231l91 10q17 -86 57 -120.5t115 -34.5z" />
    <glyph glyph-name="ibreve" unicode="&#x12d;" horiz-adv-x="483" 
d="M197 0v1040h100v-1040h-100zM528 1483q5 -140 -67 -223.5t-217 -83.5q-270 0 -273 303l90 12q7 -130 50 -179.5t135 -49.5q98 0 145.5 50.5t48.5 178.5z" />
    <glyph glyph-name="Iogonek" unicode="&#x12e;" horiz-adv-x="557" 
d="M446 -328q-30 -64 -89 -96.5t-121 -32.5q-77 0 -129 43.5t-52 120.5q0 156 174 307v1469h99v-1483q-85 -79 -123.5 -139.5t-38.5 -139.5q0 -39 23 -63.5t63 -24.5q74 0 121 80z" />
    <glyph glyph-name="iogonek" unicode="&#x12f;" horiz-adv-x="483" 
d="M420 -328q-30 -64 -89.5 -96.5t-121.5 -32.5q-77 0 -128.5 43.5t-51.5 120.5q0 98 55 174q57 79 113 129v1030h100v-1040q-82 -80 -120 -140t-38 -139q0 -39 23 -63.5t63 -24.5q74 0 121 80zM346 1386q0 -86 -94 -86t-94 86q0 89 94 89t94 -89z" />
    <glyph glyph-name="Idot" unicode="&#x130;" horiz-adv-x="557" 
d="M229 0v1483h99v-1483h-99zM373 1692q0 -86 -94 -86q-95 0 -95 86q0 88 95 88q94 0 94 -88z" />
    <glyph glyph-name="dotlessi" unicode="&#x131;" horiz-adv-x="483" 
d="M197 0v1040h100v-1040h-100z" />
    <glyph glyph-name="IJ" unicode="&#x132;" horiz-adv-x="1554" 
d="M229 0v1483h99v-1483h-99zM1348 1483v-1129q0 -108 -26 -183.5t-76.5 -117.5t-113.5 -60t-147 -18q-89 0 -155 24.5t-105.5 70t-60 101t-25.5 124.5l96 16q9 -58 22 -97.5t40.5 -76.5t76.5 -55.5t121 -18.5q43 0 77.5 6.5t69 26t57 51.5t36.5 86t14 127v1123h99z" />
    <glyph glyph-name="ij" unicode="&#x133;" horiz-adv-x="960" 
d="M197 0v1040h100v-1040h-100zM346 1395q0 -86 -94 -86t-94 86q0 88 94 88t94 -88zM537 -457q-28 0 -81 10t-79 21l18 88q71 -24 146 -24q69 0 104 41t35 131v1230h100v-1222q0 -141 -58.5 -208t-184.5 -67zM831 1395q0 -86 -94 -86t-94 86q0 88 94 88t94 -88z" />
    <glyph glyph-name="Jcircumflex" unicode="&#x134;" horiz-adv-x="997" 
d="M791 1483v-1129q0 -108 -26 -183.5t-76.5 -117.5t-113.5 -60t-147 -18q-89 0 -155 24.5t-105.5 70t-60 101t-25.5 124.5l96 16q9 -58 22 -97.5t40.5 -76.5t76.5 -55.5t121 -18.5q43 0 77.5 6.5t69 26t57 51.5t36.5 86t14 127v1123h99zM553 1571l-98 22l252 238h73
l252 -238l-102 -18l-193 170z" />
    <glyph glyph-name="jcircumflex" unicode="&#x135;" horiz-adv-x="477" 
d="M53 -457q-27 0 -80.5 10t-78.5 21l18 88q70 -24 145 -24q69 0 104.5 41t35.5 131v1230h100v-1222q0 -141 -58.5 -208t-185.5 -67zM244 1450l-195 -270l-92 18l238 338h102l250 -338l-96 -12z" />
    <glyph glyph-name="uni0136" unicode="&#x136;" horiz-adv-x="1275" 
d="M1059 1483h123l-613 -654l668 -829h-119l-616 764l-174 -184v-580h-99v1483h99v-783zM739 -141l-118 -301l-86 14l69 287h135z" />
    <glyph glyph-name="uni0137" unicode="&#x137;" horiz-adv-x="1032" 
d="M811 1040h121l-369 -383l395 -657h-108l-358 586l-201 -203v-383h-101v1546h101v-1044zM618 -141l-118 -301l-86 14l69 287h135z" />
    <glyph glyph-name="kgreenlandic" unicode="&#x138;" horiz-adv-x="1032" 
d="M811 1040h121l-369 -383l395 -657h-108l-358 586l-201 -203v-383h-101v1040h101v-538z" />
    <glyph glyph-name="Lacute" unicode="&#x139;" horiz-adv-x="1130" 
d="M1018 84v-84h-789v1483h99v-1399h690zM160 1599l213 267h149l-276 -295z" />
    <glyph glyph-name="lacute" unicode="&#x13a;" horiz-adv-x="483" 
d="M197 0v1546h100v-1546h-100zM115 1642l213 267h149l-276 -295z" />
    <glyph glyph-name="uni013B" unicode="&#x13b;" horiz-adv-x="1130" 
d="M1018 84v-84h-789v1483h99v-1399h690zM711 -141l-119 -301l-86 14l69 287h136z" />
    <glyph glyph-name="uni013C" unicode="&#x13c;" horiz-adv-x="483" 
d="M197 0v1546h100v-1546h-100zM336 -141l-119 -301l-86 14l70 287h135z" />
    <glyph glyph-name="Lcaron" unicode="&#x13d;" horiz-adv-x="1130" 
d="M1018 84v-84h-789v1483h99v-1399h690zM952 1485l-121 -404l-77 17l67 387h131z" />
    <glyph glyph-name="lcaron" unicode="&#x13e;" horiz-adv-x="577" 
d="M197 0v1546h100v-1546h-100zM639 1546l-121 -403l-78 16l68 387h131z" />
    <glyph glyph-name="Ldot" unicode="&#x13f;" horiz-adv-x="1130" 
d="M1018 84v-84h-789v1483h99v-1399h690zM940 817q0 -86 -94 -86t-94 86q0 88 94 88t94 -88z" />
    <glyph glyph-name="ldot" unicode="&#x140;" horiz-adv-x="600" 
d="M197 0v1546h100v-1546h-100zM641 815q0 -86 -94 -86t-94 86q0 88 94 88t94 -88z" />
    <glyph glyph-name="Lslash" unicode="&#x141;" horiz-adv-x="1130" 
d="M825 985v-100l-497 -211v-590h690v-84h-789v637l-190 -80v98l190 80v748h99v-711z" />
    <glyph glyph-name="lslash" unicode="&#x142;" horiz-adv-x="534" 
d="M504 969v-109l-191 -88v-772h-100v727l-182 -84v109l182 84v710h100v-667z" />
    <glyph glyph-name="Nacute" unicode="&#x143;" horiz-adv-x="1525" 
d="M326 1399v-1399h-97v1483h158l815 -1374v1374h94v-1483h-133zM684 1599l213 267h150l-277 -295z" />
    <glyph glyph-name="nacute" unicode="&#x144;" horiz-adv-x="1183" 
d="M903 0v696q0 137 -51.5 205t-179.5 68q-100 0 -210 -53t-171 -109v-807h-101v1040h89l6 -135q214 156 405 156q162 0 238 -90.5t76 -270.5v-700h-101zM502 1200l231 338h148l-293 -367z" />
    <glyph glyph-name="uni0145" unicode="&#x145;" horiz-adv-x="1525" 
d="M326 1399v-1399h-97v1483h158l815 -1374v1374h94v-1483h-133zM854 -141l-119 -301l-86 14l70 287h135z" />
    <glyph glyph-name="uni0146" unicode="&#x146;" horiz-adv-x="1183" 
d="M903 0v696q0 137 -51.5 205t-179.5 68q-100 0 -210 -53t-171 -109v-807h-101v1040h89l6 -135q214 156 405 156q162 0 238 -90.5t76 -270.5v-700h-101zM670 -141l-119 -301l-86 14l70 287h135z" />
    <glyph glyph-name="Ncaron" unicode="&#x147;" horiz-adv-x="1525" 
d="M326 1399v-1399h-97v1483h158l815 -1374v1374h94v-1483h-133zM985 1841l98 -22l-252 -238h-73l-252 238l102 18l193 -170z" />
    <glyph glyph-name="ncaron" unicode="&#x148;" horiz-adv-x="1183" 
d="M903 0v696q0 137 -51.5 205t-179.5 68q-100 0 -210 -53t-171 -109v-807h-101v1040h89l6 -135q214 156 405 156q162 0 238 -90.5t76 -270.5v-700h-101zM621 1257l200 271l88 -19l-237 -338h-105l-248 338l105 15z" />
    <glyph glyph-name="napostrophe" unicode="&#x149;" horiz-adv-x="1382" 
d="M96 1169l41 377h119l-88 -391zM1102 0v696q0 137 -52 205t-180 68q-100 0 -210 -53t-171 -109v-807h-100v1040h88l6 -135q215 156 406 156q162 0 237.5 -90.5t75.5 -270.5v-700h-100z" />
    <glyph glyph-name="Eng" unicode="&#x14a;" horiz-adv-x="1390" 
d="M928 -463q-33 0 -91 10t-83 21l18 92q91 -31 160 -31q82 0 116.5 45.5t34.5 141.5v1212q0 192 -69 287.5t-236 95.5q-111 0 -243 -57.5t-205 -116.5v-1237h-101v1483h88l7 -142q254 166 477 166q202 0 292.5 -117t90.5 -352v-1224q0 -137 -61.5 -207t-194.5 -70z" />
    <glyph glyph-name="eng" unicode="&#x14b;" horiz-adv-x="1183" 
d="M1004 -182q0 -141 -58.5 -208t-185.5 -67q-27 0 -81 10t-79 21l18 88q70 -24 146 -24q69 0 104 41t35 131v886q0 137 -51.5 205t-179.5 68q-100 0 -210 -53t-171 -109v-807h-101v1040h89l6 -135q214 156 405 156q162 0 238 -90.5t76 -270.5v-882z" />
    <glyph glyph-name="Omacron" unicode="&#x14c;" horiz-adv-x="1599" 
d="M791 -25q-160 0 -284.5 58t-203.5 162t-119.5 243t-40.5 307q0 222 78 393.5t232.5 271t365.5 99.5q156 0 278.5 -56.5t200 -156t118 -232t40.5 -288.5q0 -369 -173.5 -585t-491.5 -216zM799 59q122 0 223 45t175 131t115.5 219t41.5 302q0 314 -148 491.5t-391 177.5
q-120 0 -223 -46t-180 -131t-120.5 -215t-43.5 -290q0 -318 152.5 -501t398.5 -183zM504 1731h614v-93h-614v93z" />
    <glyph glyph-name="omacron" unicode="&#x14d;" horiz-adv-x="1171" 
d="M582 -25q-125 0 -216 41t-143 116.5t-76 170t-24 213.5q0 256 127 400.5t358 144.5q224 0 332.5 -137.5t108.5 -380.5q0 -131 -26 -233t-81 -178t-146 -116.5t-214 -40.5zM590 68q352 0 352 462q0 238 -86 338.5t-256 100.5q-174 0 -275.5 -111t-101.5 -334
q0 -456 367 -456zM317 1413h568v-92h-568v92z" />
    <glyph glyph-name="Obreve" unicode="&#x14e;" horiz-adv-x="1599" 
d="M791 -25q-160 0 -284.5 58t-203.5 162t-119.5 243t-40.5 307q0 222 78 393.5t232.5 271t365.5 99.5q156 0 278.5 -56.5t200 -156t118 -232t40.5 -288.5q0 -369 -173.5 -585t-491.5 -216zM799 59q122 0 223 45t175 131t115.5 219t41.5 302q0 314 -148 491.5t-391 177.5
q-120 0 -223 -46t-180 -131t-120.5 -215t-43.5 -290q0 -318 152.5 -501t398.5 -183zM813 1694q80 0 127.5 35.5t60.5 119.5l93 -8q-14 -106 -85 -169.5t-198 -63.5q-235 0 -260 231l90 10q17 -86 57 -120.5t115 -34.5z" />
    <glyph glyph-name="obreve" unicode="&#x14f;" horiz-adv-x="1171" 
d="M582 -25q-125 0 -216 41t-143 116.5t-76 170t-24 213.5q0 256 127 400.5t358 144.5q224 0 332.5 -137.5t108.5 -380.5q0 -131 -26 -233t-81 -178t-146 -116.5t-214 -40.5zM590 68q352 0 352 462q0 238 -86 338.5t-256 100.5q-174 0 -275.5 -111t-101.5 -334
q0 -456 367 -456zM885 1483q5 -140 -67.5 -223.5t-217.5 -83.5q-138 0 -204 76t-68 227l90 12q7 -131 50 -180t134 -49q98 0 146 50.5t49 178.5z" />
    <glyph glyph-name="Ohungarumlaut" unicode="&#x150;" horiz-adv-x="1599" 
d="M791 -25q-160 0 -284.5 58t-203.5 162t-119.5 243t-40.5 307q0 222 78 393.5t232.5 271t365.5 99.5q156 0 278.5 -56.5t200 -156t118 -232t40.5 -288.5q0 -369 -173.5 -585t-491.5 -216zM799 59q122 0 223 45t175 131t115.5 219t41.5 302q0 314 -148 491.5t-391 177.5
q-120 0 -223 -46t-180 -131t-120.5 -215t-43.5 -290q0 -318 152.5 -501t398.5 -183zM641 1597l156 269h143l-219 -295zM858 1599l213 275h148l-275 -303z" />
    <glyph glyph-name="ohungarumlaut" unicode="&#x151;" horiz-adv-x="1171" 
d="M582 -25q-125 0 -216 41t-143 116.5t-76 170t-24 213.5q0 256 127 400.5t358 144.5q224 0 332.5 -137.5t108.5 -380.5q0 -131 -26 -233t-81 -178t-146 -116.5t-214 -40.5zM590 68q352 0 352 462q0 238 -86 338.5t-256 100.5q-174 0 -275.5 -111t-101.5 -334
q0 -456 367 -456zM410 1198l192 336h141l-256 -363zM643 1200l225 336h142l-289 -365z" />
    <glyph glyph-name="OE" unicode="&#x152;" horiz-adv-x="2281" 
d="M1356 299q-174 -324 -565 -324q-161 0 -285.5 58t-203 162t-119 243t-40.5 307q0 223 78 394t233 270.5t367 99.5q187 0 322 -77t213 -215v266h803v-86h-717v-598h669v-88h-669v-625h733v-86h-819v299zM799 59q122 0 223 45.5t175 132t115.5 220.5t41.5 303
q0 310 -148.5 487.5t-390.5 177.5q-120 0 -223.5 -46t-180 -131.5t-120 -215.5t-43.5 -289q0 -318 152.5 -501t398.5 -183z" />
    <glyph glyph-name="oe" unicode="&#x153;" horiz-adv-x="1927" 
d="M1393 -25q-296 0 -402 238q-110 -238 -403 -238q-102 0 -182.5 27.5t-133 75.5t-86.5 117t-48.5 148t-14.5 173q0 254 129 399.5t362 145.5q288 0 385 -238q61 119 168 178.5t242 59.5q104 0 181.5 -33t123.5 -92.5t68 -135.5t22 -169q0 -77 -10 -131h-750
q2 -101 22 -177t52 -123.5t78.5 -76.5t96.5 -40t112 -11q128 0 193.5 53t93.5 162l96 -19q-34 -148 -140.5 -220.5t-254.5 -72.5zM594 68q350 0 350 462q0 235 -86.5 337t-255.5 102q-173 0 -275 -112t-102 -333q0 -456 369 -456zM1700 588q5 189 -67 285t-230 96
q-68 0 -128.5 -22t-110.5 -66.5t-82 -119.5t-38 -173h656z" />
    <glyph glyph-name="Racute" unicode="&#x154;" horiz-adv-x="1304" 
d="M1124 0l-368 657h-430v-657h-97v1483h457q473 0 473 -389q0 -163 -82.5 -269t-226.5 -145l383 -680h-109zM674 743q90 0 157 17.5t119 57.5t78.5 109.5t26.5 168.5q0 75 -20 129.5t-54 88t-88.5 52.5t-113 26t-138.5 7h-315v-656h348zM508 1599l213 267h149l-276 -295z
" />
    <glyph glyph-name="racute" unicode="&#x155;" horiz-adv-x="694" 
d="M670 961q-94 12 -205 -24.5t-174 -102.5v-834h-101v1040h80l11 -139q160 173 389 160v-100zM332 1200l231 338h148l-293 -367z" />
    <glyph glyph-name="uni0156" unicode="&#x156;" horiz-adv-x="1304" 
d="M1124 0l-368 657h-430v-657h-97v1483h457q473 0 473 -389q0 -163 -82.5 -269t-226.5 -145l383 -680h-109zM674 743q90 0 157 17.5t119 57.5t78.5 109.5t26.5 168.5q0 75 -20 129.5t-54 88t-88.5 52.5t-113 26t-138.5 7h-315v-656h348zM778 -141l-119 -301l-86 14l70 287
h135z" />
    <glyph glyph-name="uni0157" unicode="&#x157;" horiz-adv-x="694" 
d="M670 961q-94 12 -205 -24.5t-174 -102.5v-834h-101v1040h80l11 -139q160 173 389 160v-100zM334 -141l-119 -301l-86 14l70 287h135z" />
    <glyph glyph-name="Rcaron" unicode="&#x158;" horiz-adv-x="1304" 
d="M1124 0l-368 657h-430v-657h-97v1483h457q473 0 473 -389q0 -163 -82.5 -269t-226.5 -145l383 -680h-109zM674 743q90 0 157 17.5t119 57.5t78.5 109.5t26.5 168.5q0 75 -20 129.5t-54 88t-88.5 52.5t-113 26t-138.5 7h-315v-656h348zM840 1841l98 -22l-252 -238h-74
l-252 238l103 18l192 -170z" />
    <glyph glyph-name="rcaron" unicode="&#x159;" horiz-adv-x="694" 
d="M670 961q-94 12 -205 -24.5t-174 -102.5v-834h-101v1040h80l11 -139q160 173 389 160v-100zM426 1257l201 271l88 -19l-238 -338h-104l-248 338l104 15z" />
    <glyph glyph-name="Sacute" unicode="&#x15a;" horiz-adv-x="1183" 
d="M627 1421q-102 0 -175.5 -23t-115 -64.5t-60 -92t-18.5 -113.5q0 -59 17 -105.5t43.5 -77t73.5 -56.5t91 -42t113 -36q174 -51 227 -72q175 -71 232 -195q32 -70 32 -163q0 -85 -26.5 -154t-71.5 -115.5t-108 -77.5t-134 -45t-151 -14q-124 0 -218 30t-153 86t-93 126
t-50 160l100 20q11 -54 27.5 -98t48.5 -88.5t75.5 -74.5t110 -49t150.5 -19q58 0 109 7.5t103 28.5t88.5 54t59.5 87.5t23 125.5q0 70 -25.5 124.5t-57.5 87t-96.5 61.5t-106.5 41.5t-124 33.5q-75 19 -126 36.5t-110.5 50t-95 72.5t-59.5 103t-24 143q0 176 128 280.5
t341 104.5q411 0 460 -407l-94 -10q-9 40 -16 65.5t-21 63.5t-30.5 63t-44 53.5t-61 45t-81.5 27.5t-106 11zM479 1599l213 267h150l-277 -295z" />
    <glyph glyph-name="sacute" unicode="&#x15b;" horiz-adv-x="976" 
d="M494 1061q75 0 132 -15t94.5 -40.5t62.5 -66t37.5 -85.5t17.5 -104l-97 -13q-13 120 -68 179t-186 59q-69 0 -119 -16t-76.5 -44.5t-38 -60.5t-11.5 -70q0 -37 9 -65.5t29.5 -49.5t41 -35t58 -26.5t65 -19.5t75.5 -17q44 -9 71.5 -15.5t68 -19t66 -26.5t55 -36.5
t46.5 -49t28 -64.5t11 -84q0 -137 -93 -219t-275 -82q-172 0 -270 74.5t-122 245.5l97 18q10 -45 20.5 -76t32.5 -66t52 -56t79.5 -35t114.5 -14q117 0 188.5 50t71.5 156q0 42 -13.5 74t-34 52.5t-56.5 36.5t-69.5 25t-84.5 19q-39 8 -58 11.5t-56 13t-57 17t-50.5 21
t-48 28t-38 36t-31.5 45.5t-18.5 56t-7.5 69q0 135 103.5 210t251.5 75zM340 1200l231 338h148l-293 -367z" />
    <glyph glyph-name="Scircumflex" unicode="&#x15c;" horiz-adv-x="1183" 
d="M627 1421q-102 0 -175.5 -23t-115 -64.5t-60 -92t-18.5 -113.5q0 -59 17 -105.5t43.5 -77t73.5 -56.5t91 -42t113 -36q174 -51 227 -72q175 -71 232 -195q32 -70 32 -163q0 -85 -26.5 -154t-71.5 -115.5t-108 -77.5t-134 -45t-151 -14q-124 0 -218 30t-153 86t-93 126
t-50 160l100 20q11 -54 27.5 -98t48.5 -88.5t75.5 -74.5t110 -49t150.5 -19q58 0 109 7.5t103 28.5t88.5 54t59.5 87.5t23 125.5q0 70 -25.5 124.5t-57.5 87t-96.5 61.5t-106.5 41.5t-124 33.5q-75 19 -126 36.5t-110.5 50t-95 72.5t-59.5 103t-24 143q0 176 128 280.5
t341 104.5q411 0 460 -407l-94 -10q-9 40 -16 65.5t-21 63.5t-30.5 63t-44 53.5t-61 45t-81.5 27.5t-106 11zM434 1571l-98 22l252 238h74l251 -238l-102 -18l-193 170z" />
    <glyph glyph-name="scircumflex" unicode="&#x15d;" horiz-adv-x="976" 
d="M494 1061q75 0 132 -15t94.5 -40.5t62.5 -66t37.5 -85.5t17.5 -104l-97 -13q-13 120 -68 179t-186 59q-69 0 -119 -16t-76.5 -44.5t-38 -60.5t-11.5 -70q0 -37 9 -65.5t29.5 -49.5t41 -35t58 -26.5t65 -19.5t75.5 -17q44 -9 71.5 -15.5t68 -19t66 -26.5t55 -36.5
t46.5 -49t28 -64.5t11 -84q0 -137 -93 -219t-275 -82q-172 0 -270 74.5t-122 245.5l97 18q10 -45 20.5 -76t32.5 -66t52 -56t79.5 -35t114.5 -14q117 0 188.5 50t71.5 156q0 42 -13.5 74t-34 52.5t-56.5 36.5t-69.5 25t-84.5 19q-39 8 -58 11.5t-56 13t-57 17t-50.5 21
t-48 28t-38 36t-31.5 45.5t-18.5 56t-7.5 69q0 135 103.5 210t251.5 75zM489 1450l-194 -270l-92 18l237 338h103l250 -338l-97 -12z" />
    <glyph glyph-name="Scedilla" unicode="&#x15e;" horiz-adv-x="1183" 
d="M627 1421q-102 0 -175.5 -23t-115 -64.5t-60 -92t-18.5 -113.5q0 -59 17 -105.5t43.5 -77t73.5 -56.5t91 -42t113 -36q174 -51 227 -72q175 -71 232 -195q32 -70 32 -163q0 -84 -25.5 -152.5t-69.5 -114.5t-105 -77.5t-130.5 -46t-148.5 -15.5l-8 -63q75 -8 123.5 -49
t48.5 -121q0 -82 -54.5 -134t-139.5 -52q-91 0 -154 49l31 69q56 -39 116 -39q52 0 79.5 30.5t27.5 72.5q0 56 -37.5 83.5t-128.5 28.5l16 127q-106 9 -186 42.5t-131.5 88t-82 120t-46.5 149.5l100 20q11 -54 27.5 -98t48.5 -88.5t75.5 -74.5t110 -49t150.5 -19
q58 0 109 7.5t103 28.5t88.5 54t59.5 87.5t23 125.5q0 70 -25.5 124.5t-57.5 87t-96.5 61.5t-106.5 41.5t-124 33.5q-75 19 -126 36.5t-110.5 50t-95 72.5t-59.5 103t-24 143q0 176 128 280.5t341 104.5q411 0 460 -407l-94 -10q-9 40 -16 65.5t-21 63.5t-30.5 63t-44 53.5
t-61 45t-81.5 27.5t-106 11z" />
    <glyph glyph-name="scedilla" unicode="&#x15f;" horiz-adv-x="976" 
d="M371 -326q56 -39 116 -39q52 0 79.5 30.5t27.5 72.5q0 56 -37.5 83.5t-128.5 28.5l16 127q-146 11 -230.5 86.5t-107.5 231.5l97 18q10 -45 20.5 -76t32.5 -66t52 -56t79.5 -35t114.5 -14q117 0 188.5 50t71.5 156q0 42 -13.5 74t-34 52.5t-56.5 36.5t-69.5 25t-84.5 19
q-39 8 -58 11.5t-56 13t-57 17t-50.5 21t-48 28t-38 36t-31.5 45.5t-18.5 56t-7.5 69q0 135 103.5 210t251.5 75q75 0 132 -15t94.5 -40.5t62.5 -66t37.5 -85.5t17.5 -104l-97 -13q-13 120 -68 179t-186 59q-69 0 -119 -16t-76.5 -44.5t-38 -60.5t-11.5 -70q0 -37 9 -65.5
t29.5 -49.5t41 -35t58 -26.5t65 -19.5t75.5 -17q44 -9 71.5 -15.5t68 -19t66 -26.5t55 -36.5t46.5 -49t28 -64.5t11 -84q0 -130 -87 -212t-255 -89l-8 -63q75 -8 123.5 -49t48.5 -121q0 -82 -54.5 -134t-139.5 -52q-91 0 -154 49z" />
    <glyph glyph-name="Scaron" unicode="&#x160;" horiz-adv-x="1183" 
d="M627 1421q-102 0 -175.5 -23t-115 -64.5t-60 -92t-18.5 -113.5q0 -59 17 -105.5t43.5 -77t73.5 -56.5t91 -42t113 -36q174 -51 227 -72q175 -71 232 -195q32 -70 32 -163q0 -85 -26.5 -154t-71.5 -115.5t-108 -77.5t-134 -45t-151 -14q-124 0 -218 30t-153 86t-93 126
t-50 160l100 20q11 -54 27.5 -98t48.5 -88.5t75.5 -74.5t110 -49t150.5 -19q58 0 109 7.5t103 28.5t88.5 54t59.5 87.5t23 125.5q0 70 -25.5 124.5t-57.5 87t-96.5 61.5t-106.5 41.5t-124 33.5q-75 19 -126 36.5t-110.5 50t-95 72.5t-59.5 103t-24 143q0 176 128 280.5
t341 104.5q411 0 460 -407l-94 -10q-9 40 -16 65.5t-21 63.5t-30.5 63t-44 53.5t-61 45t-81.5 27.5t-106 11zM811 1841l98 -22l-252 -238h-73l-252 238l102 18l193 -170z" />
    <glyph glyph-name="scaron" unicode="&#x161;" horiz-adv-x="976" 
d="M494 1061q75 0 132 -15t94.5 -40.5t62.5 -66t37.5 -85.5t17.5 -104l-97 -13q-13 120 -68 179t-186 59q-69 0 -119 -16t-76.5 -44.5t-38 -60.5t-11.5 -70q0 -37 9 -65.5t29.5 -49.5t41 -35t58 -26.5t65 -19.5t75.5 -17q44 -9 71.5 -15.5t68 -19t66 -26.5t55 -36.5
t46.5 -49t28 -64.5t11 -84q0 -137 -93 -219t-275 -82q-172 0 -270 74.5t-122 245.5l97 18q10 -45 20.5 -76t32.5 -66t52 -56t79.5 -35t114.5 -14q117 0 188.5 50t71.5 156q0 42 -13.5 74t-34 52.5t-56.5 36.5t-69.5 25t-84.5 19q-39 8 -58 11.5t-56 13t-57 17t-50.5 21
t-48 28t-38 36t-31.5 45.5t-18.5 56t-7.5 69q0 135 103.5 210t251.5 75zM494 1257l200 271l88 -19l-237 -338h-105l-247 338l104 15z" />
    <glyph glyph-name="uni0162" unicode="&#x162;" horiz-adv-x="1089" 
d="M426 -326q56 -39 117 -39q52 0 79 30.5t27 72.5q0 56 -37.5 83.5t-128.5 28.5l21 150h-8v1397h-455v86h1008v-86h-455v-1397h-10l-13 -88q75 -8 123.5 -49t48.5 -121q0 -82 -54.5 -134t-139.5 -52q-91 0 -154 49z" />
    <glyph glyph-name="uni0163" unicode="&#x163;" horiz-adv-x="745" 
d="M303 -326q56 -39 117 -39q52 0 79 30.5t27 72.5q0 56 -37.5 83.5t-128.5 28.5l19 136q-86 20 -124 80.5t-38 171.5v714h-166v88h166v297l100 17v-314h295v-88h-295v-694q0 -102 35 -150.5t135 -48.5q44 0 97 17t92 39l29 -78q-36 -26 -102 -44t-122 -18h-24l-8 -63
q75 -8 123.5 -49t48.5 -121q0 -82 -55 -134t-140 -52q-91 0 -154 49z" />
    <glyph glyph-name="Tcaron" unicode="&#x164;" horiz-adv-x="1089" 
d="M496 1397h-455v86h1008v-86h-455v-1397h-98v1397zM735 1841l99 -22l-252 -238h-74l-252 238l102 18l193 -170z" />
    <glyph glyph-name="tcaron" unicode="&#x165;" horiz-adv-x="745" 
d="M705 37q-36 -26 -102 -44t-122 -18q-141 0 -202.5 62.5t-61.5 200.5v714h-166v88h166v297l100 17v-314h295v-88h-295v-694q0 -102 35 -150.5t135 -48.5q44 0 97 17t92 39zM659 1567l-120 -404l-78 17l67 387h131z" />
    <glyph glyph-name="Tbar" unicode="&#x166;" horiz-adv-x="1089" 
d="M496 721h-299v90h299v586h-455v86h1008v-86h-455v-586h299v-90h-299v-721h-98v721z" />
    <glyph glyph-name="tbar" unicode="&#x167;" horiz-adv-x="745" 
d="M705 37q-36 -26 -102 -44t-122 -18q-141 0 -202.5 62.5t-61.5 200.5v299h-166v88h166v327h-166v88h166v297l100 17v-314h295v-88h-295v-327h295v-88h-295v-279q0 -102 35 -150.5t135 -48.5q44 0 97 17t92 39z" />
    <glyph glyph-name="Utilde" unicode="&#x168;" horiz-adv-x="1470" 
d="M737 66q101 0 175 20t129 66t82.5 125.5t27.5 193.5v1012h98v-1016q0 -244 -133.5 -368t-390.5 -124q-262 0 -383 125.5t-121 366.5v1016h98v-1008q0 -220 108.5 -314.5t309.5 -94.5zM580 1788q41 3 86.5 -11t78.5 -32t72 -33.5t68 -15.5q43 0 63.5 23t20.5 96l78 -5
q11 -109 -35 -154.5t-119 -45.5q-48 0 -106.5 23.5t-112 47t-92.5 23.5q-78 0 -76 -123l-74 4q-11 108 35.5 159t112.5 44z" />
    <glyph glyph-name="utilde" unicode="&#x169;" horiz-adv-x="1189" 
d="M285 1040v-696q0 -136 51 -204t176 -68q100 0 209 52.5t170 108.5v807h100v-1040h-88l-6 133q-103 -75 -196.5 -114t-206.5 -39q-163 0 -236.5 90t-73.5 272v698h101zM426 1427q53 5 110 -18t108.5 -48.5t86.5 -25.5q43 0 63.5 23t20.5 96l78 -4q11 -109 -35 -155
t-119 -46q-48 0 -106.5 23.5t-112 47t-92.5 23.5q-78 0 -76 -122l-73 4q-6 56 5 96.5t34.5 62t50 31.5t57.5 12z" />
    <glyph glyph-name="Umacron" unicode="&#x16a;" horiz-adv-x="1470" 
d="M737 66q101 0 175 20t129 66t82.5 125.5t27.5 193.5v1012h98v-1016q0 -244 -133.5 -368t-390.5 -124q-262 0 -383 125.5t-121 366.5v1016h98v-1008q0 -220 108.5 -314.5t309.5 -94.5zM428 1731h614v-93h-614v93z" />
    <glyph glyph-name="umacron" unicode="&#x16b;" horiz-adv-x="1189" 
d="M285 1040v-696q0 -136 51 -204t176 -68q100 0 209 52.5t170 108.5v807h100v-1040h-88l-6 133q-103 -75 -196.5 -114t-206.5 -39q-163 0 -236.5 90t-73.5 272v698h101zM303 1413h567v-92h-567v92z" />
    <glyph glyph-name="Ubreve" unicode="&#x16c;" horiz-adv-x="1470" 
d="M737 66q101 0 175 20t129 66t82.5 125.5t27.5 193.5v1012h98v-1016q0 -244 -133.5 -368t-390.5 -124q-262 0 -383 125.5t-121 366.5v1016h98v-1008q0 -220 108.5 -314.5t309.5 -94.5zM737 1694q80 0 128 35.5t61 119.5l92 -8q-14 -106 -85 -169.5t-198 -63.5
q-235 0 -260 231l90 10q17 -86 57 -120.5t115 -34.5z" />
    <glyph glyph-name="ubreve" unicode="&#x16d;" horiz-adv-x="1189" 
d="M285 1040v-696q0 -136 51 -204t176 -68q100 0 209 52.5t170 108.5v807h100v-1040h-88l-6 133q-103 -75 -196.5 -114t-206.5 -39q-163 0 -236.5 90t-73.5 272v698h101zM870 1483q5 -140 -67 -223.5t-217 -83.5q-270 0 -273 303l90 12q7 -130 50 -179.5t135 -49.5
q98 0 145.5 50.5t48.5 178.5z" />
    <glyph glyph-name="Uring" unicode="&#x16e;" horiz-adv-x="1470" 
d="M737 66q101 0 175 20t129 66t82.5 125.5t27.5 193.5v1012h98v-1016q0 -244 -133.5 -368t-390.5 -124q-262 0 -383 125.5t-121 366.5v1016h98v-1008q0 -220 108.5 -314.5t309.5 -94.5zM944 1706q0 -94 -56 -147.5t-153 -53.5q-94 0 -150.5 51t-56.5 138q0 98 59.5 150
t147.5 52q93 0 151 -46.5t58 -143.5zM735 1583q58 0 85.5 33t27.5 90q0 113 -113 113q-53 0 -85 -31.5t-32 -89.5q0 -52 30.5 -83.5t86.5 -31.5z" />
    <glyph glyph-name="uring" unicode="&#x16f;" horiz-adv-x="1189" 
d="M285 1040v-696q0 -136 51 -204t176 -68q100 0 209 52.5t170 108.5v807h100v-1040h-88l-6 133q-103 -75 -196.5 -114t-206.5 -39q-163 0 -236.5 90t-73.5 272v698h101zM797 1380q0 -93 -56 -146.5t-153 -53.5q-94 0 -150.5 50.5t-56.5 137.5q0 98 59.5 150.5t147.5 52.5
q93 0 151 -47t58 -144zM588 1257q112 0 112 123q0 113 -112 113q-53 0 -85 -31.5t-32 -89.5q0 -52 30.5 -83.5t86.5 -31.5z" />
    <glyph glyph-name="Uhungarumlaut" unicode="&#x170;" horiz-adv-x="1470" 
d="M737 66q101 0 175 20t129 66t82.5 125.5t27.5 193.5v1012h98v-1016q0 -244 -133.5 -368t-390.5 -124q-262 0 -383 125.5t-121 366.5v1016h98v-1008q0 -220 108.5 -314.5t309.5 -94.5zM565 1597l156 269h143l-219 -295zM782 1599l213 275h148l-275 -303z" />
    <glyph glyph-name="uhungarumlaut" unicode="&#x171;" horiz-adv-x="1189" 
d="M285 1040v-696q0 -136 51 -204t176 -68q100 0 209 52.5t170 108.5v807h100v-1040h-88l-6 133q-103 -75 -196.5 -114t-206.5 -39q-163 0 -236.5 90t-73.5 272v698h101zM395 1198l193 336h141l-256 -363zM629 1200l225 336h141l-288 -365z" />
    <glyph glyph-name="Uogonek" unicode="&#x172;" horiz-adv-x="1470" 
d="M1083 -328q-30 -64 -89.5 -96.5t-121.5 -32.5q-77 0 -128.5 43.5t-51.5 120.5q0 139 146 277q-11 -1 -51 -5t-62 -4q-262 0 -383 125.5t-121 366.5v1016h98v-1008q0 -220 108.5 -314.5t309.5 -94.5q101 0 175 20t129 66t82.5 125.5t27.5 193.5v1012h98v-1016
q0 -162 -56 -264.5t-173 -177.5q-97 -60 -157 -140.5t-60 -163.5q0 -39 23 -63.5t63 -24.5q74 0 121 80z" />
    <glyph glyph-name="uogonek" unicode="&#x173;" horiz-adv-x="1189" 
d="M1112 -328q-30 -64 -89.5 -96.5t-121.5 -32.5q-77 0 -128.5 43.5t-51.5 120.5q0 155 180 307l-4 119q-103 -75 -196.5 -114t-206.5 -39q-163 0 -236.5 90t-73.5 272v698h101v-696q0 -136 51 -204t176 -68q100 0 209 52.5t170 108.5v807h100v-1040q-84 -77 -122 -138
t-38 -141q0 -39 23.5 -63.5t63.5 -24.5q73 0 120 80z" />
    <glyph glyph-name="Wcircumflex" unicode="&#x174;" horiz-adv-x="1781" 
d="M903 1378h-6l-377 -1378h-117l-321 1483h104l281 -1354h4l365 1354h129l358 -1379h4l277 1379h96l-307 -1483h-133zM715 1571l-99 22l252 238h74l252 -238l-102 -18l-193 170z" />
    <glyph glyph-name="wcircumflex" unicode="&#x175;" horiz-adv-x="1476" 
d="M27 1040h104l295 -940h4l252 940h127l250 -936h4l293 936h94l-334 -1040h-125l-243 938h-5l-256 -938h-120zM743 1450l-194 -270l-92 18l237 338h103l250 -338l-97 -12z" />
    <glyph glyph-name="Ycircumflex" unicode="&#x176;" horiz-adv-x="1101" 
d="M510 0v588l-502 895h111l442 -787h2l430 787h101l-486 -887v-596h-98zM373 1571l-99 22l252 238h74l252 -238l-102 -18l-193 170z" />
    <glyph glyph-name="ycircumflex" unicode="&#x177;" horiz-adv-x="935" 
d="M141 1040l326 -903h2l334 903h106q-227 -599 -475 -1235q-58 -144 -131.5 -203t-177.5 -59q-75 0 -178 37l20 84q73 -33 164 -33q72 0 124 45.5t97 165.5l60 158l-377 1040h106zM479 1450l-194 -270l-92 18l237 338h102l250 -338l-96 -12z" />
    <glyph glyph-name="Ydieresis" unicode="&#x178;" horiz-adv-x="1101" 
d="M510 0v588l-502 895h111l442 -787h2l430 787h101l-486 -887v-596h-98zM455 1692q0 -41 -24 -63.5t-66 -22.5q-93 0 -93 86q0 41 25 63.5t68 22.5q42 0 66 -22.5t24 -63.5zM846 1692q0 -41 -24 -63.5t-66 -22.5t-67 22.5t-25 63.5t25 63.5t67 22.5t66 -22.5t24 -63.5z" />
    <glyph glyph-name="Zacute" unicode="&#x179;" horiz-adv-x="1198" 
d="M1098 86v-86h-1018v70l854 1327h-828v86h957v-72l-858 -1325h893zM434 1599l213 267h150l-277 -295z" />
    <glyph glyph-name="zacute" unicode="&#x17a;" horiz-adv-x="929" 
d="M872 82v-82h-804v68l661 886h-649v86h772v-69l-664 -889h684zM311 1200l232 338h147l-293 -367z" />
    <glyph glyph-name="Zdotaccent" unicode="&#x17b;" horiz-adv-x="1198" 
d="M1098 86v-86h-1018v70l854 1327h-828v86h957v-72l-858 -1325h893zM670 1692q0 -86 -95 -86q-94 0 -94 86q0 88 94 88q95 0 95 -88z" />
    <glyph glyph-name="zdotaccent" unicode="&#x17c;" horiz-adv-x="929" 
d="M872 82v-82h-804v68l661 886h-649v86h772v-69l-664 -889h684zM557 1386q0 -86 -94 -86t-94 86q0 89 94 89t94 -89z" />
    <glyph glyph-name="Zcaron" unicode="&#x17d;" horiz-adv-x="1198" 
d="M1098 86v-86h-1018v70l854 1327h-828v86h957v-72l-858 -1325h893zM766 1841l98 -22l-252 -238h-73l-252 238l102 18l193 -170z" />
    <glyph glyph-name="zcaron" unicode="&#x17e;" horiz-adv-x="929" 
d="M872 82v-82h-804v68l661 886h-649v86h772v-69l-664 -889h684zM465 1257l201 271l88 -19l-238 -338h-104l-248 338l104 15z" />
    <glyph glyph-name="longs" unicode="&#x17f;" horiz-adv-x="550" 
d="M190 0v1249q0 314 259 314q93 0 161 -31l-6 -82q-79 27 -149 27q-164 0 -164 -195v-1282h-101z" />
    <glyph glyph-name="uni0180" unicode="&#x180;" horiz-adv-x="1187" 
d="M47 1317h148v229h98v-229h409v-86h-409v-322q182 152 381 152q89 0 157 -27t119 -86.5t78 -160t27 -240.5q0 -148 -34.5 -260t-96.5 -179t-141 -100t-175 -33q-85 0 -169 32.5t-146 80.5l-8 -88h-90v1231h-148v86zM295 190q152 -122 321 -122q89 0 154.5 35.5t104.5 102
t57 153.5t18 198q0 118 -19.5 199.5t-58.5 128.5t-91 67.5t-124 20.5q-100 0 -203.5 -52t-158.5 -112v-619z" />
    <glyph glyph-name="uni0181" unicode="&#x181;" horiz-adv-x="1546" 
d="M1063 768q360 -51 360 -371q0 -90 -25.5 -158.5t-71.5 -113.5t-114.5 -73t-148.5 -40t-180 -12h-414v1395h-53q-303 0 -303 -219q0 -56 16 -144l-90 -6q-19 78 -19 148q0 156 106.5 232.5t281.5 76.5h526q128 0 217 -27t137.5 -78.5t69 -113.5t20.5 -144
q0 -79 -24.5 -141.5t-69 -103t-99 -65.5t-122.5 -38v-4zM565 805h283q57 0 110.5 7.5t112 29.5t101 56t70.5 92.5t28 133.5q0 148 -82 209.5t-270 61.5h-353v-590zM883 90q82 0 141 6t118.5 24.5t96 51t59.5 89t23 134.5q0 160 -107 240t-282 80h-367v-625h318z" />
    <glyph glyph-name="uni0186" unicode="&#x186;" horiz-adv-x="1486" 
d="M711 1509q167 0 290 -54t197 -154t109.5 -231.5t35.5 -297.5q0 -193 -49.5 -345t-139 -250.5t-212 -150t-270.5 -51.5q-228 0 -367 118.5t-162 352.5l95 9q31 -198 132 -297t304 -99q262 0 414.5 180.5t152.5 516.5q0 669 -536 669q-195 0 -304.5 -81t-156.5 -267l-86 21
q22 112 74 193.5t126.5 128t161.5 68t191 21.5z" />
    <glyph glyph-name="uni0187" unicode="&#x187;" horiz-adv-x="1466" 
d="M1452 1708q47 0 86 -10l-6 -86q-33 10 -78 10q-60 0 -85.5 -33.5t-25.5 -126.5v-424l-94 -8q-27 197 -129.5 296t-306.5 99q-260 0 -413.5 -181.5t-153.5 -514.5q0 -670 536 -670q195 0 306 81.5t155 267.5l86 -21q-21 -111 -72 -192.5t-126 -128.5t-163 -69t-192 -22
q-133 0 -239.5 35.5t-179.5 100t-121.5 157t-70.5 203t-22 242.5q0 193 49.5 345t139 250t212.5 149.5t271 51.5q142 0 255.5 -50.5t174.5 -149.5v96q0 73 7.5 122.5t28.5 93.5t63.5 65.5t107.5 21.5z" />
    <glyph glyph-name="uni0188" unicode="&#x188;" horiz-adv-x="1132" 
d="M584 -25q-461 0 -461 541q0 271 126 408t357 137q171 0 266 -109v138q0 59 8 104.5t27.5 87t58.5 64t97 22.5q76 0 104 -22l-6 -86q-23 18 -80 18q-56 0 -81 -35t-25 -110v-410l-109 -12q-14 134 -79.5 198t-192.5 64q-55 0 -104.5 -12.5t-98.5 -44.5t-84.5 -81
t-57.5 -127.5t-22 -177.5q0 -108 21 -190.5t54 -132.5t81 -82t95.5 -43.5t103.5 -11.5q260 0 299 237l102 -20q-13 -80 -51.5 -141.5t-94 -98t-119.5 -54.5t-134 -18z" />
    <glyph glyph-name="uni0189" unicode="&#x189;" horiz-adv-x="1517" 
d="M229 801v682h410q374 0 554.5 -188t180.5 -531q0 -173 -46 -311.5t-138.5 -240.5t-241 -157t-344.5 -55h-375v715h-194v86h194zM621 84q313 0 481 172t168 498q0 148 -29.5 259t-82 184t-133.5 118.5t-176.5 64.5t-217.5 19h-303v-598h534v-86h-534v-631h293z" />
    <glyph glyph-name="uni018A" unicode="&#x18a;" horiz-adv-x="1757" 
d="M416 1399q-88 0 -153 -20.5t-107.5 -72t-42.5 -130.5q0 -56 16 -144l-90 -6q-19 78 -19 148q0 156 106.5 232.5t281.5 76.5h471q374 0 554.5 -188t180.5 -531q0 -173 -46 -311.5t-138.5 -240.5t-241 -157t-344.5 -55h-375v1399h-53zM860 84q313 0 481 172t168 498
q0 148 -29.5 259t-82 184t-133.5 118.5t-176.5 64.5t-217.5 19h-303v-1315h293z" />
    <glyph glyph-name="uni018E" unicode="&#x18e;" horiz-adv-x="1165" 
d="M838 711h-670v88h670v598h-717v86h815v-1483h-832v86h734v625z" />
    <glyph glyph-name="uni018F" unicode="&#x18f;" horiz-adv-x="1505" 
d="M719 -25q-84 0 -159.5 15t-154 58t-134.5 110.5t-92 180.5t-36 261q0 90 11 184h1110q-2 138 -27.5 245.5t-70 181.5t-109 121.5t-142 69t-172.5 21.5q-212 0 -325 -104q-117 -108 -156 -266l-86 22q28 141 114 241t204 146.5t258 46.5q126 0 227.5 -35t172.5 -99
t118.5 -156.5t69.5 -204t22 -244.5q0 -383 -171 -589t-472 -206zM719 66q250 0 389.5 163.5t153.5 466.5h-1016q-4 -55 -4 -86q0 -126 26 -222.5t69 -156.5t105.5 -98t129.5 -52.5t147 -14.5z" />
    <glyph glyph-name="uni0190" unicode="&#x190;" horiz-adv-x="1124" 
d="M543 -25q-202 0 -328.5 104t-126.5 298q0 171 95.5 269.5t252.5 119.5v4q-319 69 -319 352q0 177 120 282t308 105q204 0 317.5 -97t136.5 -314l-94 -8q-10 56 -23 98.5t-39.5 88t-63 75t-95.5 48.5t-135 19q-88 0 -154 -24t-103 -66.5t-55 -94t-18 -112.5
q0 -152 106.5 -232.5t303.5 -80.5h100v-90h-90q-76 0 -136 -7.5t-121 -29.5t-101 -59t-65.5 -100t-25.5 -148q0 -146 102.5 -226.5t262.5 -80.5q77 0 137.5 19t100.5 49t70 75.5t46.5 90t28.5 101.5l96 -14q-32 -206 -147 -310t-344 -104z" />
    <glyph glyph-name="uni0191" unicode="&#x191;" horiz-adv-x="1112" 
d="M66 -463q-32 0 -91.5 10.5t-83.5 22.5l19 88q91 -31 160 -31q87 0 123 47t36 142v1667h818v-86h-719v-625h665v-90h-665v-868q0 -138 -62.5 -207.5t-199.5 -69.5z" />
    <glyph glyph-name="florin" unicode="&#x192;" horiz-adv-x="612" 
d="M63 -457q-31 0 -82 8.5t-75 20.5l18 84q73 -25 146 -25q141 0 141 176v1147h-164v88h164v205q0 316 264 316q88 0 156 -31l-6 -82q-79 27 -150 27q-78 0 -121 -45.5t-43 -155.5v-234h299v-88h-299v-1132q0 -143 -60 -211t-188 -68z" />
    <glyph glyph-name="uni0193" unicode="&#x193;" horiz-adv-x="1548" 
d="M1243 236q-43 -109 -167.5 -185t-297.5 -76q-164 0 -287 55t-198.5 156t-112.5 236.5t-37 304.5q0 193 49 342.5t139 245.5t213 145t275 49q307 0 426 -194v90q0 73 7.5 122.5t28.5 93.5t63.5 65.5t107.5 21.5q47 0 86 -10l-6 -86q-33 10 -78 10q-60 0 -85.5 -33.5
t-25.5 -126.5v-428l-94 -10q-12 113 -46.5 191.5t-91.5 124t-129 65.5t-169 20q-264 0 -416 -180q-153 -179 -153 -510q0 -160 31 -282t81.5 -195.5t123.5 -119.5t147.5 -62.5t163.5 -16.5q109 0 198.5 39.5t145 104t85 140.5t29.5 153v178h-481v92h567v-766h-75z" />
    <glyph glyph-name="uni0194" unicode="&#x194;" horiz-adv-x="1118" 
d="M506 580l-459 903h100l418 -817l410 817h96l-457 -908l306 -575h-717zM774 86l-213 410l-217 -410h430z" />
    <glyph glyph-name="uni0196" unicode="&#x196;" horiz-adv-x="681" 
d="M494 -25q-263 0 -263 269v1239h101v-1241q0 -89 35.5 -135t126.5 -46q58 0 118 29l29 -78q-70 -37 -147 -37z" />
    <glyph glyph-name="uni0197" unicode="&#x197;" horiz-adv-x="608" 
d="M35 831h219v652h100v-652h219v-86h-219v-745h-100v745h-219v86z" />
    <glyph glyph-name="uni0198" unicode="&#x198;" horiz-adv-x="1406" 
d="M967 1393q63 69 110.5 92.5t106.5 23.5q81 0 131.5 -47.5t70.5 -156.5l-94 -19q-11 69 -37 99t-75 30q-41 0 -69.5 -15.5t-70.5 -58.5l-471 -512l668 -829h-119l-616 764l-174 -184v-580h-99v1483h99v-783z" />
    <glyph glyph-name="uni0199" unicode="&#x199;" horiz-adv-x="1032" 
d="M190 1190q0 86 17 151.5t55 117.5t105 79t161 27q74 0 156 -25l-4 -84q-68 23 -148 23q-134 0 -187.5 -67t-53.5 -220v-690l520 538h121l-369 -383l395 -657h-108l-358 586l-201 -203v-383h-101v1190z" />
    <glyph glyph-name="uni019A" unicode="&#x19a;" horiz-adv-x="606" 
d="M33 831h219v652h100v-652h219v-86h-219v-745h-100v745h-219v86z" />
    <glyph glyph-name="uni019C" unicode="&#x19c;" horiz-adv-x="1961" 
d="M1741 2h-90l-9 150q-106 -83 -202.5 -127.5t-204.5 -44.5q-121 0 -189 43t-100 131q-104 -83 -202 -128.5t-207 -45.5q-176 0 -246 93t-70 289v1121h101v-1112q0 -63 4.5 -106t18 -82.5t37.5 -62.5t64 -36.5t97 -13.5q97 0 203.5 53t181.5 117q-6 117 -6 127v1116h100
v-1110q0 -64 4.5 -107t18 -83t37.5 -63t64 -36.5t97 -13.5q101 0 212.5 58t184.5 122v1233h101v-1481z" />
    <glyph glyph-name="uni019D" unicode="&#x19d;" horiz-adv-x="1558" 
d="M358 -186q0 -138 -62.5 -207.5t-199.5 -69.5q-29 0 -85.5 10t-86.5 23l21 88q91 -31 157 -31q87 0 123.5 47t36.5 142v1667h158l815 -1374v1374h94v-1483h-133l-838 1399v-1585z" />
    <glyph glyph-name="uni019E" unicode="&#x19e;" horiz-adv-x="1183" 
d="M903 696q0 135 -52.5 204t-180.5 69q-100 0 -205 -52t-174 -112v-805h-101v1042h89l6 -135q214 156 405 156q162 0 238 -90.5t76 -270.5v-1136h-101v1130z" />
    <glyph glyph-name="uni019F" unicode="&#x19f;" horiz-adv-x="1599" 
d="M791 -25q-160 0 -284.5 58t-203.5 162t-119.5 243t-40.5 307q0 222 78 393.5t232.5 271t365.5 99.5q156 0 278.5 -56.5t200 -156t118 -232t40.5 -288.5q0 -369 -173.5 -585t-491.5 -216zM815 1425q-238 0 -394 -165.5t-171 -462.5h1104q-9 296 -156 462t-383 166zM799 59
q240 0 391.5 168.5t163.5 481.5h-1106q9 -305 159.5 -477.5t391.5 -172.5z" />
    <glyph glyph-name="Ohorn" unicode="&#x1a0;" horiz-adv-x="1589" 
d="M791 -25q-160 0 -284.5 58t-203.5 162t-119.5 243t-40.5 307q0 222 78 393.5t232.5 271t365.5 99.5q307 0 473 -206q93 10 121.5 60t28.5 167v100h102v-92q0 -144 -40.5 -218.5t-155.5 -96.5q108 -188 108 -447q0 -369 -173.5 -585t-491.5 -216zM799 59q122 0 223 45
t175 131t115.5 219t41.5 302q0 314 -148 491.5t-391 177.5q-120 0 -223 -46t-180 -131t-120.5 -215t-43.5 -290q0 -318 152.5 -501t398.5 -183z" />
    <glyph glyph-name="ohorn" unicode="&#x1a1;" horiz-adv-x="1212" 
d="M582 -25q-125 0 -216 41t-143 116.5t-76 170t-24 213.5q0 256 127 400.5t358 144.5q243 0 348 -160q42 4 71 15.5t46 28.5t25.5 47t11 60t2.5 78v101h98v-92q0 -148 -43.5 -224t-165.5 -94q48 -111 48 -278q0 -131 -26 -233t-81 -178t-146 -116.5t-214 -40.5zM590 68
q352 0 352 462q0 238 -86 338.5t-256 100.5q-174 0 -275.5 -111t-101.5 -334q0 -456 367 -456z" />
    <glyph glyph-name="uni01A4" unicode="&#x1a4;" horiz-adv-x="1507" 
d="M483 0v1399h-67q-303 0 -303 -223q0 -56 16 -144l-90 -6q-19 78 -19 148q0 156 106.5 232.5t281.5 76.5h503q494 0 494 -430q0 -128 -38.5 -219.5t-113 -145t-174 -78t-231.5 -24.5h-268v-586h-97zM850 674q83 0 144.5 7.5t122 31.5t98.5 65t61.5 111t23.5 166
q0 177 -97.5 260.5t-319.5 83.5h-303v-725h270z" />
    <glyph glyph-name="uni01A5" unicode="&#x1a5;" horiz-adv-x="1187" 
d="M195 1247q0 155 66 236.5t196 81.5q67 0 137 -25l-6 -90q-50 23 -117 23q-81 0 -130.5 -50t-49.5 -153v-363q180 154 385 154q84 0 151 -27.5t119.5 -86t80.5 -160t28 -240.5q0 -146 -35 -258.5t-96.5 -179.5t-139 -100.5t-168.5 -33.5q-158 0 -325 115v-524h-96v1681z
M295 190q34 -25 55.5 -38.5t66.5 -37.5t95.5 -36t103.5 -12q117 0 193 63.5t108.5 170t32.5 257.5q0 226 -69.5 323t-223.5 97q-99 0 -199 -51t-163 -117v-619z" />
    <glyph glyph-name="uni01A9" unicode="&#x1a9;" 
d="M57 76l432 678l-405 643v86h989v-90h-876l407 -643l-420 -660h889v-90h-1016v76z" />
    <glyph glyph-name="uni01AA" unicode="&#x1aa;" horiz-adv-x="1003" 
d="M766 -25q-121 0 -187.5 60t-66.5 213v819q-42 -33 -96.5 -52.5t-104.5 -19.5q-51 0 -97 16t-84.5 48t-61.5 88t-23 129q0 135 83 212t212 77q140 0 206 -77.5t66 -246.5v-991q0 -101 40 -145t124 -44q95 0 193 52l28 -74q-93 -64 -231 -64zM313 1083q59 0 104 16t93 52
q3 71 -2 125t-22 102.5t-54 74.5t-92 26q-94 0 -144.5 -58t-50.5 -145q0 -89 44.5 -141t123.5 -52z" />
    <glyph glyph-name="uni01AC" unicode="&#x1ac;" horiz-adv-x="1214" 
d="M618 1397h-208q-314 0 -314 -226q0 -56 17 -139l-86 -6q-21 65 -21 148q0 81 32.5 142.5t89.5 97t126 52.5t149 17h771v-86h-455v-1397h-101v1397z" />
    <glyph glyph-name="uni01AD" unicode="&#x1ad;" horiz-adv-x="745" 
d="M705 37q-36 -26 -102 -44t-122 -18q-141 0 -202.5 62.5t-61.5 200.5v714h-166v88h166v207q0 154 68 236t198 82q73 0 135 -25l-4 -84q-54 23 -120 23q-79 0 -128 -50t-49 -159v-230h295v-88h-295v-694q0 -102 35 -150.5t135 -48.5q44 0 97 17t92 39z" />
    <glyph glyph-name="uni01AE" unicode="&#x1ae;" horiz-adv-x="1089" 
d="M750 -463q-133 0 -193.5 71t-60.5 212v1577h-455v86h1008v-86h-455v-1579q0 -96 37.5 -143.5t122.5 -47.5q78 0 159 31l19 -88q-62 -33 -182 -33z" />
    <glyph glyph-name="Uhorn" unicode="&#x1af;" horiz-adv-x="1542" 
d="M737 66q101 0 175 20t129 66t82.5 125.5t27.5 193.5v1012h98v-183q105 6 136.5 56t31.5 174v100h103v-92q0 -81 -11 -135.5t-40.5 -97.5t-83.5 -65t-136 -26v-747q0 -244 -133.5 -368t-390.5 -124q-262 0 -383 125.5t-121 366.5v1016h98v-1008q0 -220 108.5 -314.5
t309.5 -94.5z" />
    <glyph glyph-name="uhorn" unicode="&#x1b0;" horiz-adv-x="1282" 
d="M285 1040v-696q0 -136 51 -204t176 -68q100 0 209 52.5t170 108.5v807h100v-139q46 2 77 13t49 27t26.5 47t11 60.5t2.5 81.5v101h98v-92q0 -82 -10.5 -135.5t-38.5 -97t-80.5 -65.5t-134.5 -26v-815h-88l-6 133q-103 -75 -196.5 -114t-206.5 -39q-163 0 -236.5 90
t-73.5 272v698h101z" />
    <glyph glyph-name="uni01B1" unicode="&#x1b1;" horiz-adv-x="1585" 
d="M776 -25q-132 0 -241.5 37t-184.5 100t-126.5 148t-75 180t-23.5 197q0 74 11 142t42.5 143.5t81 137.5t132.5 118t192 92v125h-385v90h485v-277q-222 -41 -341.5 -191.5t-119.5 -387.5q0 -253 152 -408t405 -155q123 0 221.5 33t164 88.5t109 131.5t62.5 159t19 175
q0 104 -27 191.5t-71 148t-104.5 106t-123.5 71.5t-131 38v277h483v-90h-383v-125q204 -55 330.5 -212t126.5 -396q0 -199 -77.5 -353t-233 -244t-369.5 -90z" />
    <glyph glyph-name="uni01B2" unicode="&#x1b2;" horiz-adv-x="1431" 
d="M596 -25q-192 0 -283.5 120.5t-91.5 338.5v1049h101v-1022q0 -212 69.5 -303.5t208.5 -91.5q98 0 185 41.5t151.5 112.5t116 163t84 195.5t49 206.5t16.5 200q0 230 -58.5 333t-211.5 103q-90 0 -164 -22l-10 84q80 26 184 26q79 0 140.5 -22t99.5 -63t63.5 -88.5
t37 -110.5t16 -115.5t4.5 -116.5q0 -117 -21 -236.5t-60.5 -233t-101 -213t-137.5 -174.5t-176 -118t-211 -43z" />
    <glyph glyph-name="uni01B3" unicode="&#x1b3;" horiz-adv-x="1249" 
d="M510 592l-502 891h111l440 -783l232 519q78 174 136.5 232t164.5 58q81 0 131.5 -47.5t70.5 -156.5l-94 -19q-10 69 -36.5 99t-76.5 30q-56 0 -95.5 -42t-94.5 -156l-289 -631v-586h-98v592z" />
    <glyph glyph-name="uni01B4" unicode="&#x1b4;" horiz-adv-x="1249" 
d="M852 1174q56 153 121 207.5t168 54.5q79 0 128 -47t68 -158l-94 -19q-10 69 -36.5 99t-76.5 30q-54 0 -98.5 -45t-85.5 -153l-512 -1338q-55 -143 -129.5 -202.5t-179.5 -59.5q-75 0 -178 37l20 84q73 -33 164 -33q72 0 124 45.5t97 165.5l60 158l-377 1040h106l326 -903
h2z" />
    <glyph glyph-name="uni01B5" unicode="&#x1b5;" horiz-adv-x="1198" 
d="M203 819h360l371 578h-828v86h957v-72l-383 -592h262v-84h-317l-420 -649h893v-86h-1018v70l428 665h-305v84z" />
    <glyph glyph-name="uni01B6" unicode="&#x1b6;" horiz-adv-x="929" 
d="M162 496v86h289l278 372h-649v86h772v-69l-295 -396h195v-86h-258l-306 -407h684v-82h-804v68l319 428h-225z" />
    <glyph glyph-name="uni01B7" unicode="&#x1b7;" horiz-adv-x="1148" 
d="M500 -500q-206 0 -338 105.5t-162 300.5l94 14q27 -145 131.5 -238.5t288.5 -93.5q95 0 171 31.5t124.5 83.5t81 123t46 145t13.5 154q0 100 -24.5 182.5t-76.5 149.5t-143.5 105t-216.5 38q-88 0 -143 -6v86l539 713h-783v90h904v-78l-543 -715q129 3 231.5 -27.5
t168 -84t109 -128t61.5 -155t18 -170.5q0 -99 -18 -187.5t-59.5 -170t-103.5 -140t-157 -93t-213 -34.5z" />
    <glyph glyph-name="uni01B8" unicode="&#x1b8;" horiz-adv-x="1148" 
d="M1055 -80l94 -14q-30 -195 -162 -300.5t-338 -105.5q-118 0 -213 34.5t-157 93t-103.5 140t-59.5 170t-18 187.5q0 90 18 170.5t61.5 155t109 128t168 84t231.5 27.5l-543 715v78h904v-90h-783l539 -713v-86q-51 6 -144 6q-100 0 -179.5 -25.5t-131.5 -68.5t-86 -104.5
t-48.5 -129.5t-14.5 -147q0 -80 13.5 -154t46 -145t81 -123t124.5 -83.5t171 -31.5q184 0 288.5 93.5t131.5 238.5z" />
    <glyph glyph-name="uni01B9" unicode="&#x1b9;" horiz-adv-x="909" 
d="M532 -463q-115 0 -205 40t-144.5 109t-82.5 156.5t-28 188.5q0 220 130.5 325.5t344.5 77.5l-432 531v77h708v-88h-581l434 -540v-76q-72 14 -168 14q-171 0 -252.5 -83t-81.5 -255q0 -173 92 -280t269 -107q221 0 268 219l88 -16q-13 -127 -104.5 -210t-254.5 -83z" />
    <glyph glyph-name="uni01C0" unicode="&#x1c0;" horiz-adv-x="557" 
d="M229 1483h99v-1483h-99v1483z" />
    <glyph glyph-name="uni01C1" unicode="&#x1c1;" horiz-adv-x="950" 
d="M623 1483h98v-1483h-98v1483zM229 1483h99v-1483h-99v1483z" />
    <glyph glyph-name="uni01C2" unicode="&#x1c2;" horiz-adv-x="997" 
d="M229 649h220v273h-220v86h220v475h100v-475h219v-86h-219v-273h219v-86h-219v-563h-100v563h-220v86z" />
    <glyph glyph-name="uni01C3" unicode="&#x1c3;" horiz-adv-x="481" 
d="M197 1546h88v-981h-88v981zM197 309h88v-309h-88v309z" />
    <glyph glyph-name="uni01C4" unicode="&#x1c4;" horiz-adv-x="2682" 
d="M229 1483h410q374 0 554.5 -188t180.5 -531q0 -173 -46 -311.5t-138.5 -240.5t-241 -157t-344.5 -55h-375v1483zM621 84q313 0 481 172t168 498q0 148 -29.5 259t-82 184t-133.5 118.5t-176.5 64.5t-217.5 19h-303v-1315h293zM2583 86v-86h-1018v70l854 1327h-828v86h957
v-72l-858 -1325h893zM2058 1677l201 271l88 -19l-238 -338h-104l-248 338l105 15z" />
    <glyph glyph-name="uni01C5" unicode="&#x1c5;" horiz-adv-x="2422" 
d="M229 1483h410q374 0 554.5 -188t180.5 -531q0 -173 -46 -311.5t-138.5 -240.5t-241 -157t-344.5 -55h-375v1483zM621 84q313 0 481 172t168 498q0 148 -29.5 259t-82 184t-133.5 118.5t-176.5 64.5t-217.5 19h-303v-1315h293zM2365 82v-82h-804v68l661 886h-649v86h772
v-69l-664 -889h684zM1962 1257l201 271l88 -19l-238 -338h-104l-248 338l104 15z" />
    <glyph glyph-name="uni01C6" unicode="&#x1c6;" horiz-adv-x="2097" 
d="M909 0l-10 119q-86 -69 -172.5 -106.5t-198.5 -37.5q-183 0 -289 130.5t-106 404.5q0 145 35.5 254t98.5 172.5t141.5 94t171.5 30.5q163 0 313 -103v588h102v-1546h-86zM895 858q-54 41 -139.5 77t-177.5 36q-180 0 -259 -120.5t-79 -342.5q0 -224 76 -334.5t233 -110.5
q100 0 192.5 45t153.5 113v637zM2040 82v-82h-805v68l661 886h-649v86h772v-69l-663 -889h684zM1638 1257l201 271l88 -19l-237 -338h-105l-248 338l105 15z" />
    <glyph glyph-name="uni01C7" unicode="&#x1c7;" horiz-adv-x="2082" 
d="M1018 84v-84h-789v1483h99v-1399h690zM1876 1483v-1129q0 -108 -26 -183.5t-76.5 -117.5t-113.5 -60t-147 -18q-89 0 -155 24.5t-105.5 70t-60 101t-25.5 124.5l97 16q9 -58 22 -97.5t40.5 -76.5t76.5 -55.5t121 -18.5q43 0 77.5 6.5t69 26t57 51.5t36.5 86t14 127v1123
h98z" />
    <glyph glyph-name="uni01C9" unicode="&#x1c9;" horiz-adv-x="962" 
d="M197 0v1546h100v-1546h-100zM537 -457q-28 0 -81 10t-79 21l18 88q71 -24 146 -24q69 0 104 41t35 131v1230h100v-1222q0 -141 -58.5 -208t-184.5 -67zM831 1395q0 -86 -94 -86t-94 86q0 88 94 88t94 -88z" />
    <glyph glyph-name="uni01CA" unicode="&#x1ca;" horiz-adv-x="2523" 
d="M326 1399v-1399h-97v1483h158l815 -1374v1374h94v-1483h-133zM2316 1483v-1129q0 -108 -26 -183.5t-76 -117.5t-113 -60t-147 -18q-89 0 -155 24.5t-105.5 70t-60 101t-25.5 124.5l96 16q9 -58 22 -97.5t40.5 -76.5t76.5 -55.5t121 -18.5q43 0 77.5 6.5t69 26t57 51.5
t36.5 86t14 127v1123h98z" />
    <glyph glyph-name="uni01CB" unicode="&#x1cb;" horiz-adv-x="2002" 
d="M326 1399v-1399h-97v1483h158l815 -1374v1374h94v-1483h-133zM1579 -457q-27 0 -81 10t-79 21l19 88q70 -24 145 -24q69 0 104 41t35 131v1230h101v-1222q0 -141 -58.5 -208t-185.5 -67zM1874 1395q0 -86 -94 -86t-94 86q0 88 94 88t94 -88z" />
    <glyph glyph-name="uni01CC" unicode="&#x1cc;" horiz-adv-x="1669" 
d="M903 0v696q0 137 -51.5 205t-179.5 68q-100 0 -210 -53t-171 -109v-807h-101v1040h89l6 -135q214 156 405 156q162 0 238 -90.5t76 -270.5v-700h-101zM1245 -457q-27 0 -81 10t-79 21l19 88q70 -24 145 -24q69 0 104.5 41t35.5 131v1230h100v-1222q0 -141 -58.5 -208
t-185.5 -67zM1540 1395q0 -86 -94 -86t-94 86q0 88 94 88t94 -88z" />
    <glyph glyph-name="uni01CD" unicode="&#x1cd;" horiz-adv-x="1304" 
d="M1233 0h-111l-172 508h-604l-172 -508h-102l508 1483h143zM375 594h547l-275 825zM840 1841l98 -22l-252 -238h-74l-252 238l103 18l192 -170z" />
    <glyph glyph-name="uni01CE" unicode="&#x1ce;" horiz-adv-x="1097" 
d="M901 147q0 -45 13.5 -65.5t50.5 -20.5q19 0 63 13l8 -66q-55 -24 -110 -24q-62 0 -91.5 38.5t-27.5 92.5q-63 -63 -154.5 -101.5t-197.5 -38.5q-76 0 -134 20.5t-90 50.5t-52 70.5t-26 74t-6 67.5q0 86 31 150t78.5 101t118 59.5t136.5 30t146 7.5q56 0 142 -4v92
q0 158 -52 220.5t-196 62.5q-126 0 -186 -47t-78 -148l-97 17q24 141 115.5 201.5t253.5 60.5q185 0 263.5 -77.5t78.5 -270.5v-566zM801 516q-71 6 -160 6q-86 0 -150 -10t-120.5 -36.5t-86.5 -78.5t-30 -129q0 -95 48 -151t167 -56q96 0 186 41.5t146 106.5v307zM551 1257
l201 271l88 -19l-238 -338h-104l-248 338l104 15z" />
    <glyph glyph-name="uni01CF" unicode="&#x1cf;" horiz-adv-x="557" 
d="M229 0v1483h99v-1483h-99zM469 1841l98 -22l-252 -238h-73l-252 238l102 18l193 -170z" />
    <glyph glyph-name="uni01D0" unicode="&#x1d0;" horiz-adv-x="483" 
d="M197 0v1040h100v-1040h-100zM248 1257l201 271l88 -19l-238 -338h-104l-248 338l104 15z" />
    <glyph glyph-name="uni01D1" unicode="&#x1d1;" horiz-adv-x="1599" 
d="M791 -25q-160 0 -284.5 58t-203.5 162t-119.5 243t-40.5 307q0 222 78 393.5t232.5 271t365.5 99.5q156 0 278.5 -56.5t200 -156t118 -232t40.5 -288.5q0 -369 -173.5 -585t-491.5 -216zM799 59q122 0 223 45t175 131t115.5 219t41.5 302q0 314 -148 491.5t-391 177.5
q-120 0 -223 -46t-180 -131t-120.5 -215t-43.5 -290q0 -318 152.5 -501t398.5 -183zM985 1841l98 -22l-252 -238h-73l-252 238l102 18l193 -170z" />
    <glyph glyph-name="uni01D2" unicode="&#x1d2;" horiz-adv-x="1171" 
d="M582 -25q-125 0 -216 41t-143 116.5t-76 170t-24 213.5q0 256 127 400.5t358 144.5q224 0 332.5 -137.5t108.5 -380.5q0 -131 -26 -233t-81 -178t-146 -116.5t-214 -40.5zM590 68q352 0 352 462q0 238 -86 338.5t-256 100.5q-174 0 -275.5 -111t-101.5 -334
q0 -456 367 -456zM594 1257l201 271l88 -19l-238 -338h-104l-248 338l104 15z" />
    <glyph glyph-name="uni01D3" unicode="&#x1d3;" horiz-adv-x="1470" 
d="M737 66q101 0 175 20t129 66t82.5 125.5t27.5 193.5v1012h98v-1016q0 -244 -133.5 -368t-390.5 -124q-262 0 -383 125.5t-121 366.5v1016h98v-1008q0 -220 108.5 -314.5t309.5 -94.5zM922 1841l98 -22l-252 -238h-74l-252 238l103 18l192 -170z" />
    <glyph glyph-name="uni01D4" unicode="&#x1d4;" horiz-adv-x="1189" 
d="M285 1040v-696q0 -136 51 -204t176 -68q100 0 209 52.5t170 108.5v807h100v-1040h-88l-6 133q-103 -75 -196.5 -114t-206.5 -39q-163 0 -236.5 90t-73.5 272v698h101zM600 1257l201 271l88 -19l-238 -338h-104l-248 338l104 15z" />
    <glyph glyph-name="uni01D5" unicode="&#x1d5;" horiz-adv-x="1470" 
d="M737 66q101 0 175 20t129 66t82.5 125.5t27.5 193.5v1012h98v-1016q0 -244 -133.5 -368t-390.5 -124q-262 0 -383 125.5t-121 366.5v1016h98v-1008q0 -220 108.5 -314.5t309.5 -94.5zM631 1692q0 -41 -24 -63.5t-66 -22.5q-92 0 -92 86q0 41 24.5 63.5t67.5 22.5
q42 0 66 -22.5t24 -63.5zM1022 1692q0 -41 -24 -63.5t-66 -22.5t-67 22.5t-25 63.5t25 63.5t67 22.5t66 -22.5t24 -63.5zM420 2034h614v-92h-614v92z" />
    <glyph glyph-name="uni01D6" unicode="&#x1d6;" horiz-adv-x="1189" 
d="M285 1040v-696q0 -136 51 -204t176 -68q100 0 209 52.5t170 108.5v807h100v-1040h-88l-6 133q-103 -75 -196.5 -114t-206.5 -39q-163 0 -236.5 90t-73.5 272v698h101zM481 1362q0 -41 -24 -63.5t-66 -22.5q-92 0 -92 86q0 41 24.5 63.5t67.5 22.5q42 0 66 -22.5t24 -63.5
zM872 1362q0 -41 -24 -63.5t-66 -22.5t-67 22.5t-25 63.5t25 63.5t67 22.5t66 -22.5t24 -63.5zM281 1735h614v-93h-614v93z" />
    <glyph glyph-name="uni01D7" unicode="&#x1d7;" horiz-adv-x="1470" 
d="M737 66q101 0 175 20t129 66t82.5 125.5t27.5 193.5v1012h98v-1016q0 -244 -133.5 -368t-390.5 -124q-262 0 -383 125.5t-121 366.5v1016h98v-1008q0 -220 108.5 -314.5t309.5 -94.5zM623 1692q0 -41 -24.5 -63.5t-66.5 -22.5q-92 0 -92 86q0 41 24.5 63.5t67.5 22.5
q42 0 66.5 -22.5t24.5 -63.5zM1014 1692q0 -41 -24 -63.5t-66 -22.5t-67.5 22.5t-25.5 63.5t25.5 63.5t67.5 22.5t66 -22.5t24 -63.5zM578 1954l213 266h149l-276 -295z" />
    <glyph glyph-name="uni01D8" unicode="&#x1d8;" horiz-adv-x="1189" 
d="M285 1040v-696q0 -136 51 -204t176 -68q100 0 209 52.5t170 108.5v807h100v-1040h-88l-6 133q-103 -75 -196.5 -114t-206.5 -39q-163 0 -236.5 90t-73.5 272v698h101zM485 1362q0 -41 -24 -63.5t-66 -22.5q-92 0 -92 86q0 41 24.5 63.5t67.5 22.5q42 0 66 -22.5t24 -63.5
zM877 1362q0 -41 -24.5 -63.5t-66.5 -22.5t-67 22.5t-25 63.5t25 63.5t67 22.5t66.5 -22.5t24.5 -63.5zM459 1653l213 266h149l-276 -295z" />
    <glyph glyph-name="uni01D9" unicode="&#x1d9;" horiz-adv-x="1470" 
d="M737 66q101 0 175 20t129 66t82.5 125.5t27.5 193.5v1012h98v-1016q0 -244 -133.5 -368t-390.5 -124q-262 0 -383 125.5t-121 366.5v1016h98v-1008q0 -220 108.5 -314.5t309.5 -94.5zM631 1692q0 -41 -24 -63.5t-66 -22.5q-92 0 -92 86q0 41 24.5 63.5t67.5 22.5
q42 0 66 -22.5t24 -63.5zM1022 1692q0 -41 -24 -63.5t-66 -22.5t-67 22.5t-25 63.5t25 63.5t67 22.5t66 -22.5t24 -63.5zM926 2173l98 -23l-252 -237h-74l-252 237l103 19l192 -170z" />
    <glyph glyph-name="uni01DA" unicode="&#x1da;" horiz-adv-x="1189" 
d="M285 1040v-696q0 -136 51 -204t176 -68q100 0 209 52.5t170 108.5v807h100v-1040h-88l-6 133q-103 -75 -196.5 -114t-206.5 -39q-163 0 -236.5 90t-73.5 272v698h101zM485 1362q0 -41 -24 -63.5t-66 -22.5q-92 0 -92 86q0 41 24.5 63.5t67.5 22.5q42 0 66 -22.5t24 -63.5
zM877 1362q0 -41 -24.5 -63.5t-66.5 -22.5t-67 22.5t-25 63.5t25 63.5t67 22.5t66.5 -22.5t24.5 -63.5zM764 1886l98 -22l-252 -238h-73l-252 238l102 18l193 -170z" />
    <glyph glyph-name="uni01DB" unicode="&#x1db;" horiz-adv-x="1470" 
d="M637 2220l215 -266l-88 -29l-277 295h150zM1022 1692q0 -41 -24 -63.5t-66 -22.5t-67 22.5t-25 63.5t25 63.5t67 22.5t66 -22.5t24 -63.5zM631 1692q0 -41 -24 -63.5t-66 -22.5q-92 0 -92 86q0 41 24.5 63.5t67.5 22.5q42 0 66 -22.5t24 -63.5zM319 1483v-1008
q0 -220 108.5 -314.5t309.5 -94.5q101 0 175 20t129 66t82.5 125.5t27.5 193.5v1012h98v-1016q0 -244 -133.5 -368t-390.5 -124q-262 0 -383 125.5t-121 366.5v1016h98z" />
    <glyph glyph-name="uni01DC" unicode="&#x1dc;" horiz-adv-x="1189" 
d="M487 1868l215 -266l-88 -29l-276 295h149zM877 1362q0 -41 -24.5 -63.5t-66.5 -22.5t-67 22.5t-25 63.5t25 63.5t67 22.5t66.5 -22.5t24.5 -63.5zM485 1362q0 -41 -24 -63.5t-66 -22.5q-92 0 -92 86q0 41 24.5 63.5t67.5 22.5q42 0 66 -22.5t24 -63.5zM285 1040v-696
q0 -136 51 -204t176 -68q100 0 209 52.5t170 108.5v807h100v-1040h-88l-6 133q-103 -75 -196.5 -114t-206.5 -39q-163 0 -236.5 90t-73.5 272v698h101z" />
    <glyph glyph-name="uni01DD" unicode="&#x1dd;" horiz-adv-x="1114" 
d="M532 1061q129 0 221.5 -43.5t143 -122t72.5 -171.5t22 -208q0 -112 -26 -203t-70.5 -153t-105.5 -104.5t-130 -61.5t-145 -19q-195 0 -292 118.5t-97 307.5q0 77 10 136h750q-2 101 -21.5 176.5t-50.5 123t-77.5 76.5t-97 40.5t-114.5 11.5q-120 0 -188 -53t-98 -162
l-97 18q36 150 141 221.5t250 71.5zM229 449q-5 -190 67 -285.5t230 -95.5q67 0 127 21.5t110.5 65.5t83 119.5t38.5 174.5h-656z" />
    <glyph glyph-name="uni01DE" unicode="&#x1de;" horiz-adv-x="1304" 
d="M1233 0h-111l-172 508h-604l-172 -508h-102l508 1483h143zM375 594h547l-275 825zM549 1692q0 -41 -24 -63.5t-66 -22.5q-92 0 -92 86q0 41 24.5 63.5t67.5 22.5q42 0 66 -22.5t24 -63.5zM940 1692q0 -41 -24 -63.5t-66 -22.5t-67 22.5t-25 63.5t25 63.5t67 22.5
t66 -22.5t24 -63.5zM346 2013h615v-92h-615v92z" />
    <glyph glyph-name="uni01DF" unicode="&#x1df;" horiz-adv-x="1097" 
d="M901 147q0 -45 13.5 -65.5t50.5 -20.5q19 0 63 13l8 -66q-55 -24 -110 -24q-62 0 -91.5 38.5t-27.5 92.5q-63 -63 -154.5 -101.5t-197.5 -38.5q-76 0 -134 20.5t-90 50.5t-52 70.5t-26 74t-6 67.5q0 86 31 150t78.5 101t118 59.5t136.5 30t146 7.5q56 0 142 -4v92
q0 158 -52 220.5t-196 62.5q-126 0 -186 -47t-78 -148l-97 17q24 141 115.5 201.5t253.5 60.5q185 0 263.5 -77.5t78.5 -270.5v-566zM801 516q-71 6 -160 6q-86 0 -150 -10t-120.5 -36.5t-86.5 -78.5t-30 -129q0 -95 48 -151t167 -56q96 0 186 41.5t146 106.5v307zM442 1362
q0 -41 -24 -63.5t-66 -22.5q-92 0 -92 86q0 41 24.5 63.5t67.5 22.5q42 0 66 -22.5t24 -63.5zM834 1362q0 -41 -24.5 -63.5t-66.5 -22.5t-67 22.5t-25 63.5t25 63.5t67 22.5t66.5 -22.5t24.5 -63.5zM242 1735h614v-93h-614v93z" />
    <glyph glyph-name="uni01E0" unicode="&#x1e0;" horiz-adv-x="1304" 
d="M1233 0h-111l-172 508h-604l-172 -508h-102l508 1483h143zM375 594h547l-275 825zM748 1696q0 -86 -95 -86q-94 0 -94 86q0 88 94 88q95 0 95 -88zM344 2011h614v-92h-614v92z" />
    <glyph glyph-name="uni01E1" unicode="&#x1e1;" horiz-adv-x="1097" 
d="M901 147q0 -45 13.5 -65.5t50.5 -20.5q19 0 63 13l8 -66q-55 -24 -110 -24q-62 0 -91.5 38.5t-27.5 92.5q-63 -63 -154.5 -101.5t-197.5 -38.5q-76 0 -134 20.5t-90 50.5t-52 70.5t-26 74t-6 67.5q0 86 31 150t78.5 101t118 59.5t136.5 30t146 7.5q56 0 142 -4v92
q0 158 -52 220.5t-196 62.5q-126 0 -186 -47t-78 -148l-97 17q24 141 115.5 201.5t253.5 60.5q185 0 263.5 -77.5t78.5 -270.5v-566zM801 516q-71 6 -160 6q-86 0 -150 -10t-120.5 -36.5t-86.5 -78.5t-30 -129q0 -95 48 -151t167 -56q96 0 186 41.5t146 106.5v307zM643 1393
q0 -86 -94 -86t-94 86q0 88 94 88t94 -88zM242 1788h614v-92h-614v92z" />
    <glyph glyph-name="uni01E2" unicode="&#x1e2;" horiz-adv-x="2007" 
d="M1901 86v-86h-834v694h-483l-404 -694h-108l864 1483h948v-86h-717v-615h670v-88h-670v-608h734zM985 1397l-348 -617h430v617h-82zM1102 1731h614v-93h-614v93z" />
    <glyph glyph-name="uni01E3" unicode="&#x1e3;" horiz-adv-x="1783" 
d="M1253 -25q-254 0 -364 168q-183 -168 -436 -168q-76 0 -134 20.5t-90 50.5t-51.5 70.5t-25 73.5t-5.5 68q0 86 30 150t77.5 101.5t116.5 60.5t135 30.5t145 7.5q54 0 148 -4v146q0 111 -57 169t-193 58q-123 0 -183 -47t-79 -148l-97 19q24 139 115.5 199.5t257.5 60.5
q264 0 318 -203q134 203 383 203q104 0 182.5 -33t124.5 -92.5t68 -135t22 -167.5q0 -55 -10 -133h-752q4 -126 33 -212.5t80 -132t111 -64.5t139 -19q127 0 193 52.5t93 162.5l97 -21q-32 -149 -138.5 -220t-253.5 -71zM471 63q103 0 201.5 44t171.5 120q-42 127 -45 289
q-86 4 -150 4q-44 0 -80 -2t-78.5 -8.5t-75 -17t-64 -29.5t-52 -44.5t-33 -63t-12.5 -83.5q0 -94 48 -151.5t169 -57.5zM1556 608q0 361 -296 361q-68 0 -129 -22t-111.5 -66t-82.5 -117.5t-36 -169.5h655v14zM614 1413h568v-92h-568v92z" />
    <glyph glyph-name="uni01E4" unicode="&#x1e4;" horiz-adv-x="1515" 
d="M770 500h479v174h-481v92h567v-266h166v-86h-166v-414h-75l-17 236q-43 -109 -167.5 -185t-297.5 -76q-164 0 -287 55t-198.5 156t-112.5 236.5t-37 304.5q0 193 49 342.5t139 245.5t213 145t275 49q234 0 369 -116t155 -359l-94 -10q-12 113 -46.5 191.5t-91.5 124
t-129 65.5t-169 20q-264 0 -416 -180q-153 -179 -153 -510q0 -160 31 -282t81.5 -195.5t123.5 -119.5t147.5 -62.5t163.5 -16.5q95 0 175 30t135 81t90.5 113t49.5 131h-471v86z" />
    <glyph glyph-name="uni01E5" unicode="&#x1e5;" horiz-adv-x="1136" 
d="M944 -39q0 -49 -6 -92h195v-82h-211q-72 -244 -387 -244q-178 0 -266 62.5t-113 177.5l92 22q24 -89 92.5 -131.5t194.5 -42.5q222 0 286 156h-313v82h334q6 37 6 84v168q-83 -69 -170 -107.5t-195 -38.5q-90 0 -161 29.5t-125.5 91t-83.5 165.5t-29 245q0 148 35.5 258
t98.5 173.5t140.5 93.5t171.5 30q135 0 318 -111l6 90h90v-1079zM506 61q98 0 189.5 48t152.5 120v613q-58 49 -143 91t-179 42q-174 0 -256 -124.5t-82 -350.5q0 -439 318 -439z" />
    <glyph glyph-name="Gcaron" unicode="&#x1e6;" horiz-adv-x="1548" 
d="M1243 236q-43 -109 -167.5 -185t-297.5 -76q-164 0 -287 55t-198.5 156t-112.5 236.5t-37 304.5q0 193 49 342.5t139 245.5t213 145t275 49q234 0 369 -116t155 -359l-94 -10q-12 113 -46.5 191.5t-91.5 124t-129 65.5t-169 20q-264 0 -416 -180q-153 -179 -153 -510
q0 -160 31 -282t81.5 -195.5t123.5 -119.5t147.5 -62.5t163.5 -16.5q109 0 198.5 39.5t145 104t85 140.5t29.5 153v178h-481v92h567v-766h-75zM963 1841l98 -22l-252 -238h-74l-252 238l103 18l192 -170z" />
    <glyph glyph-name="gcaron" unicode="&#x1e7;" horiz-adv-x="1120" 
d="M545 1061q224 0 325 -123q46 111 136 111q29 0 73 -13v-88q-111 0 -190 -39q65 -74 65 -219q0 -172 -114 -270t-287 -98q-134 0 -207 28q-41 -31 -63.5 -60t-22.5 -67q0 -42 35.5 -64t132.5 -28l297 -16q168 -8 248 -63.5t80 -188.5q0 -56 -17 -103t-46 -80t-70 -58.5
t-85.5 -41t-97 -25.5t-100 -14t-98.5 -4q-455 0 -455 268q0 103 53 162q53 56 121 105q-42 11 -70 47t-28 82q0 97 114 186q-71 35 -113 113.5t-42 173.5q0 183 119 284q121 103 307 103zM848 688q0 144 -77.5 215.5t-221.5 71.5q-68 0 -125 -16.5t-102.5 -50.5t-71 -92.5
t-25.5 -135.5q0 -127 77.5 -199.5t238.5 -72.5q140 0 223.5 75.5t83.5 204.5zM946 -133q0 146 -211 156l-391 20q-73 -52 -114.5 -104.5t-41.5 -118.5q0 -191 361 -191q397 0 397 238zM557 1257l201 271l88 -19l-238 -338h-104l-248 338l104 15z" />
    <glyph glyph-name="uni01E8" unicode="&#x1e8;" horiz-adv-x="1275" 
d="M1059 1483h123l-613 -654l668 -829h-119l-616 764l-174 -184v-580h-99v1483h99v-783zM856 1841l98 -22l-252 -238h-73l-252 238l102 18l193 -170z" />
    <glyph glyph-name="uni01E9" unicode="&#x1e9;" horiz-adv-x="1032" 
d="M811 1040h121l-369 -383l395 -657h-108l-358 586l-201 -203v-383h-101v1546h101v-1044zM430 1862l98 -23l-252 -237h-73l-252 237l102 19l193 -170z" />
    <glyph glyph-name="uni01EA" unicode="&#x1ea;" horiz-adv-x="1599" 
d="M791 -25q-160 0 -284.5 58t-203.5 162t-119.5 243t-40.5 307q0 222 78 393.5t232.5 271t365.5 99.5q156 0 278.5 -56.5t200 -156t118 -232t40.5 -288.5q0 -315 -133 -528q-132 -209 -385 -258q-91 -87 -118 -123q-48 -65 -48 -131q0 -40 22.5 -64t63.5 -24q68 0 121 80
l72 -41q-30 -65 -90 -99t-121 -34q-78 0 -129.5 43.5t-51.5 121.5q0 130 136 256h-4zM799 59q122 0 223 45t175 131t115.5 219t41.5 302q0 314 -148 491.5t-391 177.5q-120 0 -223 -46t-180 -131t-120.5 -215t-43.5 -290q0 -318 152.5 -501t398.5 -183z" />
    <glyph glyph-name="uni01EB" unicode="&#x1eb;" horiz-adv-x="1171" 
d="M582 -25q-125 0 -216 41t-143 116.5t-76 170t-24 213.5q0 256 127 400.5t358 144.5q224 0 332.5 -137.5t108.5 -380.5q0 -467 -322 -551q-49 -41 -74.5 -64t-54 -56.5t-40 -65.5t-11.5 -70q0 -94 86 -94q69 0 121 79l73 -40q-30 -65 -88 -96t-125 -31q-76 0 -123 43
t-47 122q0 133 140 256h-2zM590 68q352 0 352 462q0 238 -86 338.5t-256 100.5q-174 0 -275.5 -111t-101.5 -334q0 -456 367 -456z" />
    <glyph glyph-name="uni01EC" unicode="&#x1ec;" horiz-adv-x="1599" 
d="M791 -25q-160 0 -284.5 58t-203.5 162t-119.5 243t-40.5 307q0 222 78 393.5t232.5 271t365.5 99.5q156 0 278.5 -56.5t200 -156t118 -232t40.5 -288.5q0 -315 -133 -528q-132 -209 -385 -258q-91 -87 -118 -123q-48 -65 -48 -131q0 -40 22.5 -64t63.5 -24q68 0 121 80
l72 -41q-30 -65 -90 -99t-121 -34q-78 0 -129.5 43.5t-51.5 121.5q0 130 136 256h-4zM799 59q122 0 223 45t175 131t115.5 219t41.5 302q0 314 -148 491.5t-391 177.5q-120 0 -223 -46t-180 -131t-120.5 -215t-43.5 -290q0 -318 152.5 -501t398.5 -183zM487 1731h615v-93
h-615v93z" />
    <glyph glyph-name="uni01ED" unicode="&#x1ed;" horiz-adv-x="1171" 
d="M582 -25q-125 0 -216 41t-143 116.5t-76 170t-24 213.5q0 256 127 400.5t358 144.5q224 0 332.5 -137.5t108.5 -380.5q0 -467 -322 -551q-49 -41 -74.5 -64t-54 -56.5t-40 -65.5t-11.5 -70q0 -94 86 -94q69 0 121 79l73 -40q-30 -65 -88 -96t-125 -31q-76 0 -123 43
t-47 122q0 133 140 256h-2zM590 68q352 0 352 462q0 238 -86 338.5t-256 100.5q-174 0 -275.5 -111t-101.5 -334q0 -456 367 -456zM311 1413h568v-92h-568v92z" />
    <glyph glyph-name="uni01EE" unicode="&#x1ee;" horiz-adv-x="1148" 
d="M500 -500q-206 0 -338 105.5t-162 300.5l94 14q27 -145 131.5 -238.5t288.5 -93.5q95 0 171 31.5t124.5 83.5t81 123t46 145t13.5 154q0 100 -24.5 182.5t-76.5 149.5t-143.5 105t-216.5 38q-88 0 -143 -6v86l539 713h-783v90h904v-78l-543 -715q129 3 231.5 -27.5
t168 -84t109 -128t61.5 -155t18 -170.5q0 -99 -18 -187.5t-59.5 -170t-103.5 -140t-157 -93t-213 -34.5zM745 1841l99 -22l-252 -238h-74l-252 238l103 18l192 -170z" />
    <glyph glyph-name="uni01EF" unicode="&#x1ef;" horiz-adv-x="909" 
d="M377 -463q-163 0 -254.5 83t-104.5 210l88 16q54 -219 269 -219q177 0 268.5 107t91.5 280q0 172 -81.5 255t-252.5 83q-96 0 -168 -14v76l435 540h-582v88h709v-77l-433 -531q214 28 345 -77.5t131 -325.5q0 -100 -28.5 -188t-83.5 -157t-145 -109t-204 -40zM438 1257
l201 271l88 -19l-238 -338h-104l-248 338l105 15z" />
    <glyph glyph-name="uni01F0" unicode="&#x1f0;" horiz-adv-x="477" 
d="M53 -457q-27 0 -80.5 10t-78.5 21l18 88q70 -24 145 -24q69 0 104.5 41t35.5 131v1230h100v-1222q0 -141 -58.5 -208t-185.5 -67zM252 1257l201 271l88 -19l-238 -338h-104l-248 338l104 15z" />
    <glyph glyph-name="uni01F1" unicode="&#x1f1;" horiz-adv-x="2682" 
d="M229 1483h410q374 0 554.5 -188t180.5 -531q0 -173 -46 -311.5t-138.5 -240.5t-241 -157t-344.5 -55h-375v1483zM621 84q313 0 481 172t168 498q0 148 -29.5 259t-82 184t-133.5 118.5t-176.5 64.5t-217.5 19h-303v-1315h293zM2583 86v-86h-1018v70l854 1327h-828v86h957
v-72l-858 -1325h893z" />
    <glyph glyph-name="uni01F2" unicode="&#x1f2;" horiz-adv-x="2422" 
d="M229 1483h410q374 0 554.5 -188t180.5 -531q0 -173 -46 -311.5t-138.5 -240.5t-241 -157t-344.5 -55h-375v1483zM621 84q313 0 481 172t168 498q0 148 -29.5 259t-82 184t-133.5 118.5t-176.5 64.5t-217.5 19h-303v-1315h293zM2365 82v-82h-804v68l661 886h-649v86h772
v-69l-664 -889h684z" />
    <glyph glyph-name="uni01F3" unicode="&#x1f3;" horiz-adv-x="2097" 
d="M909 0l-10 119q-86 -69 -172.5 -106.5t-198.5 -37.5q-183 0 -289 130.5t-106 404.5q0 145 35.5 254t98.5 172.5t141.5 94t171.5 30.5q163 0 313 -103v588h102v-1546h-86zM895 858q-54 41 -139.5 77t-177.5 36q-180 0 -259 -120.5t-79 -342.5q0 -224 76 -334.5t233 -110.5
q100 0 192.5 45t153.5 113v637zM2040 82v-82h-805v68l661 886h-649v86h772v-69l-663 -889h684z" />
    <glyph glyph-name="uni01F4" unicode="&#x1f4;" horiz-adv-x="1548" 
d="M1243 236q-43 -109 -167.5 -185t-297.5 -76q-164 0 -287 55t-198.5 156t-112.5 236.5t-37 304.5q0 193 49 342.5t139 245.5t213 145t275 49q234 0 369 -116t155 -359l-94 -10q-12 113 -46.5 191.5t-91.5 124t-129 65.5t-169 20q-264 0 -416 -180q-153 -179 -153 -510
q0 -160 31 -282t81.5 -195.5t123.5 -119.5t147.5 -62.5t163.5 -16.5q109 0 198.5 39.5t145 104t85 140.5t29.5 153v178h-481v92h567v-766h-75zM637 1599l213 267h149l-276 -295z" />
    <glyph glyph-name="uni01F5" unicode="&#x1f5;" horiz-adv-x="1120" 
d="M545 1061q224 0 325 -123q46 111 136 111q29 0 73 -13v-88q-111 0 -190 -39q65 -74 65 -219q0 -172 -114 -270t-287 -98q-134 0 -207 28q-41 -31 -63.5 -60t-22.5 -67q0 -42 35.5 -64t132.5 -28l297 -16q168 -8 248 -63.5t80 -188.5q0 -56 -17 -103t-46 -80t-70 -58.5
t-85.5 -41t-97 -25.5t-100 -14t-98.5 -4q-455 0 -455 268q0 103 53 162q53 56 121 105q-42 11 -70 47t-28 82q0 97 114 186q-71 35 -113 113.5t-42 173.5q0 183 119 284q121 103 307 103zM848 688q0 144 -77.5 215.5t-221.5 71.5q-68 0 -125 -16.5t-102.5 -50.5t-71 -92.5
t-25.5 -135.5q0 -127 77.5 -199.5t238.5 -72.5q140 0 223.5 75.5t83.5 204.5zM946 -133q0 146 -211 156l-391 20q-73 -52 -114.5 -104.5t-41.5 -118.5q0 -191 361 -191q397 0 397 238zM469 1200l231 338h148l-293 -367z" />
    <glyph glyph-name="uni01F8" unicode="&#x1f8;" horiz-adv-x="1525" 
d="M688 1866l215 -267l-88 -28l-276 295h149zM326 1399v-1399h-97v1483h158l815 -1374v1374h94v-1483h-133z" />
    <glyph glyph-name="uni01F9" unicode="&#x1f9;" horiz-adv-x="1183" 
d="M903 0v696q0 137 -51.5 205t-179.5 68q-100 0 -210 -53t-171 -109v-807h-101v1040h89l6 -135q214 156 405 156q162 0 238 -90.5t76 -270.5v-700h-101zM477 1538l232 -338l-84 -29l-295 367h147z" />
    <glyph glyph-name="Aringacute" unicode="&#x1fa;" horiz-adv-x="1304" 
d="M860 1659q0 -73 -35 -122.5t-98 -68.5l506 -1468h-111l-172 508h-604l-172 -508h-102l501 1468q-61 17 -95 64t-34 115q0 98 59.5 150t147.5 52q93 0 151 -46.5t58 -143.5zM375 594h547l-275 825zM651 1536q58 0 85.5 33t27.5 90q0 113 -113 113q-53 0 -84.5 -31.5
t-31.5 -89.5q0 -52 30 -83.5t86 -31.5zM508 1911l213 266h149l-276 -295z" />
    <glyph glyph-name="aringacute" unicode="&#x1fb;" horiz-adv-x="1097" 
d="M901 147q0 -45 13.5 -65.5t50.5 -20.5q19 0 63 13l8 -66q-55 -24 -110 -24q-62 0 -91.5 38.5t-27.5 92.5q-63 -63 -154.5 -101.5t-197.5 -38.5q-76 0 -134 20.5t-90 50.5t-52 70.5t-26 74t-6 67.5q0 86 31 150t78.5 101t118 59.5t136.5 30t146 7.5q56 0 142 -4v92
q0 158 -52 220.5t-196 62.5q-126 0 -186 -47t-78 -148l-97 17q24 141 115.5 201.5t253.5 60.5q185 0 263.5 -77.5t78.5 -270.5v-566zM801 516q-71 6 -160 6q-86 0 -150 -10t-120.5 -36.5t-86.5 -78.5t-30 -129q0 -95 48 -151t167 -56q96 0 186 41.5t146 106.5v307zM766 1341
q0 -93 -56 -146.5t-153 -53.5q-94 0 -150.5 50.5t-56.5 137.5q0 98 59.5 150.5t147.5 52.5q93 0 151 -47t58 -144zM557 1219q58 0 85.5 32.5t27.5 89.5q0 113 -113 113q-53 0 -85 -31.5t-32 -89.5q0 -52 30.5 -83t86.5 -31zM393 1599l213 267h150l-277 -295z" />
    <glyph glyph-name="AEacute" unicode="&#x1fc;" horiz-adv-x="2043" 
d="M1915 86v-86h-834v694h-483l-403 -694h-109l864 1483h948v-86h-716v-615h669v-88h-669v-608h733zM999 1397l-348 -617h430v617h-82zM1288 1599l213 267h150l-277 -295z" />
    <glyph glyph-name="aeacute" unicode="&#x1fd;" horiz-adv-x="1787" 
d="M1253 -25q-254 0 -364 168q-183 -168 -436 -168q-76 0 -134 20.5t-90 50.5t-51.5 70.5t-25 73.5t-5.5 68q0 86 30 150t77.5 101.5t116.5 60.5t135 30.5t145 7.5q54 0 148 -4v146q0 111 -57 169t-193 58q-123 0 -183 -47t-79 -148l-97 19q24 139 115.5 199.5t257.5 60.5
q264 0 318 -203q134 203 383 203q104 0 182.5 -33t124.5 -92.5t68 -135t22 -167.5q0 -55 -10 -133h-752q4 -126 33 -212.5t80 -132t111 -64.5t139 -19q127 0 193 52.5t93 162.5l97 -21q-32 -149 -138.5 -220t-253.5 -71zM471 63q103 0 201.5 44t171.5 120q-42 127 -45 289
q-86 4 -150 4q-44 0 -80 -2t-78.5 -8.5t-75 -17t-64 -29.5t-52 -44.5t-33 -63t-12.5 -83.5q0 -94 48 -151.5t169 -57.5zM1556 608q0 361 -296 361q-68 0 -129 -22t-111.5 -66t-82.5 -117.5t-36 -169.5h655v14zM797 1200l231 338h148l-293 -367z" />
    <glyph glyph-name="Oslashacute" unicode="&#x1fe;" horiz-adv-x="1599" 
d="M791 -25q-130 0 -242 39l-66 -157h-108l84 200q-156 90 -236 269.5t-80 418.5q0 222 78 393.5t232.5 271t365.5 99.5q126 0 232 -39l65 156h105l-82 -194q157 -89 237 -260t80 -396q0 -369 -173.5 -585t-491.5 -216zM799 59q122 0 223 45t175 131t115.5 219t41.5 302
q0 207 -66 356t-186 229l-516 -1241q100 -41 213 -41zM248 743q0 -207 65.5 -358.5t184.5 -234.5l518 1239q-88 36 -201 36q-120 0 -223 -46t-180 -131t-120.5 -215t-43.5 -290zM670 1599l213 267h149l-276 -295z" />
    <glyph glyph-name="oslashacute" unicode="&#x1ff;" horiz-adv-x="1171" 
d="M582 -25q-88 0 -176 25l-66 -147h-102l81 186q-196 125 -196 477q0 256 127 400.5t358 144.5q88 0 156 -21l70 158h102l-88 -197q201 -119 201 -458q0 -131 -26 -233t-81 -178t-146 -116.5t-214 -40.5zM590 68q352 0 352 462q0 292 -133 381l-365 -821q59 -22 146 -22z
M223 524q0 -280 139 -389l363 817q-66 17 -125 17q-174 0 -275.5 -111t-101.5 -334zM451 1200l231 338h147l-292 -367z" />
    <glyph glyph-name="uni0200" unicode="&#x200;" horiz-adv-x="1304" 
d="M1233 0h-111l-172 508h-604l-172 -508h-102l508 1483h143zM375 594h547l-275 825zM242 1874h153l209 -275l-90 -28zM524 1866h148l157 -269l-92 -26z" />
    <glyph glyph-name="uni0201" unicode="&#x201;" horiz-adv-x="1097" 
d="M901 147q0 -45 13.5 -65.5t50.5 -20.5q19 0 63 13l8 -66q-55 -24 -110 -24q-62 0 -91.5 38.5t-27.5 92.5q-63 -63 -154.5 -101.5t-197.5 -38.5q-76 0 -134 20.5t-90 50.5t-52 70.5t-26 74t-6 67.5q0 86 31 150t78.5 101t118 59.5t136.5 30t146 7.5q56 0 142 -4v92
q0 158 -52 220.5t-196 62.5q-126 0 -186 -47t-78 -148l-97 17q24 141 115.5 201.5t253.5 60.5q185 0 263.5 -77.5t78.5 -270.5v-566zM801 516q-71 6 -160 6q-86 0 -150 -10t-120.5 -36.5t-86.5 -78.5t-30 -129q0 -95 48 -151t167 -56q96 0 186 41.5t146 106.5v307zM139 1534
h142l225 -334l-78 -29zM408 1534h141l194 -336l-79 -27z" />
    <glyph glyph-name="uni0202" unicode="&#x202;" horiz-adv-x="1304" 
d="M1233 0h-111l-172 508h-604l-172 -508h-102l508 1483h143zM375 594h547l-275 825zM383 1616q14 108 86 169.5t199 61.5q122 0 184 -57t76 -172l-90 -10q-17 85 -57.5 119t-116.5 34q-79 0 -125.5 -35.5t-63.5 -119.5z" />
    <glyph glyph-name="uni0203" unicode="&#x203;" horiz-adv-x="1097" 
d="M901 147q0 -45 13.5 -65.5t50.5 -20.5q19 0 63 13l8 -66q-55 -24 -110 -24q-62 0 -91.5 38.5t-27.5 92.5q-63 -63 -154.5 -101.5t-197.5 -38.5q-76 0 -134 20.5t-90 50.5t-52 70.5t-26 74t-6 67.5q0 86 31 150t78.5 101t118 59.5t136.5 30t146 7.5q56 0 142 -4v92
q0 158 -52 220.5t-196 62.5q-126 0 -186 -47t-78 -148l-97 17q24 141 115.5 201.5t253.5 60.5q185 0 263.5 -77.5t78.5 -270.5v-566zM801 516q-71 6 -160 6q-86 0 -150 -10t-120.5 -36.5t-86.5 -78.5t-30 -129q0 -95 48 -151t167 -56q96 0 186 41.5t146 106.5v307zM272 1184
q-2 141 69.5 224t215.5 83q138 0 204 -75t68 -228l-90 -12q-7 131 -50 180t-134 49q-97 0 -144 -50.5t-51 -178.5z" />
    <glyph glyph-name="uni0204" unicode="&#x204;" 
d="M1061 86v-86h-832v1483h815v-86h-716v-598h669v-88h-669v-625h733zM231 1874h154l209 -275l-90 -28zM514 1866h148l157 -269l-92 -26z" />
    <glyph glyph-name="uni0205" unicode="&#x205;" horiz-adv-x="1112" 
d="M582 -25q-129 0 -221.5 43.5t-143 122t-72.5 171.5t-22 208q0 112 26 203.5t70.5 153.5t105.5 104t130 61t145 19q101 0 177 -33t121.5 -92t68 -134.5t22.5 -166.5q0 -76 -10 -135h-750q2 -101 21.5 -177t51 -123.5t78 -76.5t97 -40t113.5 -11q121 0 190.5 53.5
t96.5 161.5l96 -19q-36 -150 -141 -221.5t-250 -71.5zM885 588q5 190 -67 285.5t-230 95.5q-68 0 -127.5 -21.5t-109.5 -65t-82.5 -119t-39.5 -175.5h656zM172 1534h141l226 -334l-78 -29zM440 1534h142l194 -336l-80 -27z" />
    <glyph glyph-name="uni0206" unicode="&#x206;" 
d="M1061 86v-86h-832v1483h815v-86h-716v-598h669v-88h-669v-625h733zM360 1616q14 108 86 169.5t199 61.5q122 0 184 -57t76 -172l-90 -10q-17 85 -57.5 119t-116.5 34q-79 0 -125 -35.5t-63 -119.5z" />
    <glyph glyph-name="uni0207" unicode="&#x207;" horiz-adv-x="1112" 
d="M582 -25q-129 0 -221.5 43.5t-143 122t-72.5 171.5t-22 208q0 112 26 203.5t70.5 153.5t105.5 104t130 61t145 19q101 0 177 -33t121.5 -92t68 -134.5t22.5 -166.5q0 -76 -10 -135h-750q2 -101 21.5 -177t51 -123.5t78 -76.5t97 -40t113.5 -11q121 0 190.5 53.5
t96.5 161.5l96 -19q-36 -150 -141 -221.5t-250 -71.5zM885 588q5 190 -67 285.5t-230 95.5q-68 0 -127.5 -21.5t-109.5 -65t-82.5 -119t-39.5 -175.5h656zM305 1184q-2 141 69.5 224t215.5 83q138 0 204 -75t68 -228l-90 -12q-7 131 -50 180t-134 49q-97 0 -144 -50.5
t-51 -178.5z" />
    <glyph glyph-name="uni0208" unicode="&#x208;" horiz-adv-x="557" 
d="M229 0v1483h99v-1483h-99zM-125 1874h154l209 -275l-91 -28zM158 1866h147l158 -269l-92 -26z" />
    <glyph glyph-name="uni0209" unicode="&#x209;" horiz-adv-x="483" 
d="M197 0v1040h100v-1040h-100zM-166 1534h141l226 -334l-78 -29zM102 1534h142l194 -336l-80 -27z" />
    <glyph glyph-name="uni020A" unicode="&#x20a;" horiz-adv-x="557" 
d="M229 0v1483h99v-1483h-99zM4 1616q14 108 86 169.5t199 61.5q122 0 184 -57t76 -172l-90 -10q-17 85 -57.5 119t-116.5 34q-79 0 -125.5 -35.5t-63.5 -119.5z" />
    <glyph glyph-name="uni020B" unicode="&#x20b;" horiz-adv-x="483" 
d="M199 0v1040h100v-1040h-100zM-31 1184q-2 141 69.5 224t215.5 83q138 0 204 -75t68 -228l-90 -12q-7 131 -50 180t-134 49q-97 0 -144 -50.5t-51 -178.5z" />
    <glyph glyph-name="uni020C" unicode="&#x20c;" horiz-adv-x="1599" 
d="M791 -25q-160 0 -284.5 58t-203.5 162t-119.5 243t-40.5 307q0 222 78 393.5t232.5 271t365.5 99.5q156 0 278.5 -56.5t200 -156t118 -232t40.5 -288.5q0 -369 -173.5 -585t-491.5 -216zM799 59q122 0 223 45t175 131t115.5 219t41.5 302q0 314 -148 491.5t-391 177.5
q-120 0 -223 -46t-180 -131t-120.5 -215t-43.5 -290q0 -318 152.5 -501t398.5 -183zM391 1874h154l209 -275l-90 -28zM674 1866h147l158 -269l-92 -26z" />
    <glyph glyph-name="uni020D" unicode="&#x20d;" horiz-adv-x="1171" 
d="M582 -25q-125 0 -216 41t-143 116.5t-76 170t-24 213.5q0 256 127 400.5t358 144.5q224 0 332.5 -137.5t108.5 -380.5q0 -131 -26 -233t-81 -178t-146 -116.5t-214 -40.5zM590 68q352 0 352 462q0 238 -86 338.5t-256 100.5q-174 0 -275.5 -111t-101.5 -334
q0 -456 367 -456zM197 1534h141l225 -334l-78 -29zM465 1534h141l195 -336l-80 -27z" />
    <glyph glyph-name="uni020E" unicode="&#x20e;" horiz-adv-x="1599" 
d="M791 -25q-160 0 -284.5 58t-203.5 162t-119.5 243t-40.5 307q0 222 78 393.5t232.5 271t365.5 99.5q156 0 278.5 -56.5t200 -156t118 -232t40.5 -288.5q0 -369 -173.5 -585t-491.5 -216zM799 59q122 0 223 45t175 131t115.5 219t41.5 302q0 314 -148 491.5t-391 177.5
q-120 0 -223 -46t-180 -131t-120.5 -215t-43.5 -290q0 -318 152.5 -501t398.5 -183zM520 1616q14 108 86 169.5t199 61.5q122 0 184 -57t76 -172l-90 -10q-17 85 -57.5 119t-116.5 34q-79 0 -125.5 -35.5t-63.5 -119.5z" />
    <glyph glyph-name="uni020F" unicode="&#x20f;" horiz-adv-x="1171" 
d="M582 -25q-125 0 -216 41t-143 116.5t-76 170t-24 213.5q0 256 127 400.5t358 144.5q224 0 332.5 -137.5t108.5 -380.5q0 -131 -26 -233t-81 -178t-146 -116.5t-214 -40.5zM590 68q352 0 352 462q0 238 -86 338.5t-256 100.5q-174 0 -275.5 -111t-101.5 -334
q0 -456 367 -456zM330 1184q-2 141 69 224t215 83q139 0 205 -75t68 -228l-90 -12q-7 130 -50 179.5t-135 49.5q-97 0 -143.5 -50t-50.5 -179z" />
    <glyph glyph-name="uni0210" unicode="&#x210;" horiz-adv-x="1304" 
d="M1124 0l-368 657h-430v-657h-97v1483h457q473 0 473 -389q0 -163 -82.5 -269t-226.5 -145l383 -680h-109zM674 743q90 0 157 17.5t119 57.5t78.5 109.5t26.5 168.5q0 75 -20 129.5t-54 88t-88.5 52.5t-113 26t-138.5 7h-315v-656h348zM233 1874h154l209 -275l-90 -28z
M516 1866h148l157 -269l-92 -26z" />
    <glyph glyph-name="uni0211" unicode="&#x211;" horiz-adv-x="694" 
d="M670 961q-94 12 -205 -24.5t-174 -102.5v-834h-101v1040h80l11 -139q160 173 389 160v-100zM23 1534h141l225 -334l-78 -29zM291 1534h141l195 -336l-80 -27z" />
    <glyph glyph-name="uni0212" unicode="&#x212;" horiz-adv-x="1304" 
d="M1124 0l-368 657h-430v-657h-97v1483h457q473 0 473 -389q0 -163 -82.5 -269t-226.5 -145l383 -680h-109zM674 743q90 0 157 17.5t119 57.5t78.5 109.5t26.5 168.5q0 75 -20 129.5t-54 88t-88.5 52.5t-113 26t-138.5 7h-315v-656h348zM362 1616q14 108 86 169.5t199 61.5
q122 0 184 -57t76 -172l-90 -10q-17 85 -57.5 119t-116.5 34q-79 0 -125 -35.5t-63 -119.5z" />
    <glyph glyph-name="uni0213" unicode="&#x213;" horiz-adv-x="694" 
d="M672 961q-94 12 -205 -24.5t-174 -102.5v-834h-100v1040h79l11 -139q160 173 389 160v-100zM158 1184q-2 141 69 224t215 83q139 0 205 -75t68 -228l-90 -12q-7 130 -50 179.5t-135 49.5q-97 0 -143.5 -50t-50.5 -179z" />
    <glyph glyph-name="uni0214" unicode="&#x214;" horiz-adv-x="1470" 
d="M737 66q101 0 175 20t129 66t82.5 125.5t27.5 193.5v1012h98v-1016q0 -244 -133.5 -368t-390.5 -124q-262 0 -383 125.5t-121 366.5v1016h98v-1008q0 -220 108.5 -314.5t309.5 -94.5zM332 1874h153l209 -275l-90 -28zM614 1866h148l158 -269l-93 -26z" />
    <glyph glyph-name="uni0215" unicode="&#x215;" horiz-adv-x="1189" 
d="M285 1040v-696q0 -136 51 -204t176 -68q100 0 209 52.5t170 108.5v807h100v-1040h-88l-6 133q-103 -75 -196.5 -114t-206.5 -39q-163 0 -236.5 90t-73.5 272v698h101zM170 1534h141l226 -334l-78 -29zM438 1534h142l194 -336l-80 -27z" />
    <glyph glyph-name="uni0216" unicode="&#x216;" horiz-adv-x="1470" 
d="M737 66q101 0 175 20t129 66t82.5 125.5t27.5 193.5v1012h98v-1016q0 -244 -133.5 -368t-390.5 -124q-262 0 -383 125.5t-121 366.5v1016h98v-1008q0 -220 108.5 -314.5t309.5 -94.5zM461 1616q14 108 85.5 169.5t198.5 61.5q122 0 184.5 -57t76.5 -172l-91 -10
q-17 85 -57.5 119t-116.5 34q-79 0 -125 -35.5t-63 -119.5z" />
    <glyph glyph-name="uni0217" unicode="&#x217;" horiz-adv-x="1189" 
d="M285 1040v-696q0 -136 51 -204t176 -68q100 0 209 52.5t170 108.5v807h100v-1040h-88l-6 133q-103 -75 -196.5 -114t-206.5 -39q-163 0 -236.5 90t-73.5 272v698h101zM303 1184q-2 141 69.5 224t215.5 83q138 0 204 -75t68 -228l-90 -12q-7 131 -50 180t-134 49
q-97 0 -144 -50.5t-51 -178.5z" />
    <glyph glyph-name="uni0218" unicode="&#x218;" horiz-adv-x="1183" 
d="M627 1421q-102 0 -175.5 -23t-115 -64.5t-60 -92t-18.5 -113.5q0 -59 17 -105.5t43.5 -77t73.5 -56.5t91 -42t113 -36q174 -51 227 -72q175 -71 232 -195q32 -70 32 -163q0 -85 -26.5 -154t-71.5 -115.5t-108 -77.5t-134 -45t-151 -14q-124 0 -218 30t-153 86t-93 126
t-50 160l100 20q11 -54 27.5 -98t48.5 -88.5t75.5 -74.5t110 -49t150.5 -19q58 0 109 7.5t103 28.5t88.5 54t59.5 87.5t23 125.5q0 70 -25.5 124.5t-57.5 87t-96.5 61.5t-106.5 41.5t-124 33.5q-75 19 -126 36.5t-110.5 50t-95 72.5t-59.5 103t-24 143q0 176 128 280.5
t341 104.5q411 0 460 -407l-94 -10q-9 40 -16 65.5t-21 63.5t-30.5 63t-44 53.5t-61 45t-81.5 27.5t-106 11zM700 -141l-118 -301l-86 14l69 287h135z" />
    <glyph glyph-name="uni0219" unicode="&#x219;" horiz-adv-x="976" 
d="M494 1061q75 0 132 -15t94.5 -40.5t62.5 -66t37.5 -85.5t17.5 -104l-97 -13q-13 120 -68 179t-186 59q-69 0 -119 -16t-76.5 -44.5t-38 -60.5t-11.5 -70q0 -37 9 -65.5t29.5 -49.5t41 -35t58 -26.5t65 -19.5t75.5 -17q44 -9 71.5 -15.5t68 -19t66 -26.5t55 -36.5
t46.5 -49t28 -64.5t11 -84q0 -137 -93 -219t-275 -82q-172 0 -270 74.5t-122 245.5l97 18q10 -45 20.5 -76t32.5 -66t52 -56t79.5 -35t114.5 -14q117 0 188.5 50t71.5 156q0 42 -13.5 74t-34 52.5t-56.5 36.5t-69.5 25t-84.5 19q-39 8 -58 11.5t-56 13t-57 17t-50.5 21
t-48 28t-38 36t-31.5 45.5t-18.5 56t-7.5 69q0 135 103.5 210t251.5 75zM586 -141l-119 -301l-86 14l70 287h135z" />
    <glyph glyph-name="uni021A" unicode="&#x21a;" horiz-adv-x="1089" 
d="M496 1397h-455v86h1008v-86h-455v-1397h-98v1397zM629 -141l-119 -301l-86 14l70 287h135z" />
    <glyph glyph-name="uni021B" unicode="&#x21b;" horiz-adv-x="745" 
d="M705 37q-36 -26 -102 -44t-122 -18q-141 0 -202.5 62.5t-61.5 200.5v714h-166v88h166v297l100 17v-314h295v-88h-295v-694q0 -102 35 -150.5t135 -48.5q44 0 97 17t92 39zM528 -141l-118 -301l-86 14l69 287h135z" />
    <glyph glyph-name="uni021E" unicode="&#x21e;" horiz-adv-x="1484" 
d="M1157 0v717h-829v-717h-99v1483h99v-676h829v676h98v-1483h-98zM932 1841l98 -22l-252 -238h-73l-252 238l102 18l193 -170z" />
    <glyph glyph-name="uni021F" unicode="&#x21f;" horiz-adv-x="1183" 
d="M903 0v696q0 136 -52.5 203.5t-180.5 67.5q-100 0 -208.5 -51.5t-170.5 -108.5v-807h-101v1546h101v-639q212 154 397 154q163 0 239.5 -90.5t76.5 -270.5v-700h-101zM430 1903l98 -23l-252 -238h-73l-252 238l102 18l193 -169z" />
    <glyph glyph-name="uni0220" unicode="&#x220;" horiz-adv-x="1413" 
d="M1083 1030q0 193 -69.5 289t-235.5 96q-111 0 -239 -56t-209 -116v-1243h-101v1483h88l7 -142q254 166 471 166q202 0 295.5 -118.5t93.5 -350.5v-1472l-101 -2v1466z" />
    <glyph glyph-name="uni0226" unicode="&#x226;" horiz-adv-x="1304" 
d="M1233 0h-111l-172 508h-604l-172 -508h-102l508 1483h143zM375 594h547l-275 825zM752 1692q0 -86 -95 -86q-94 0 -94 86q0 88 94 88q95 0 95 -88z" />
    <glyph glyph-name="uni0227" unicode="&#x227;" horiz-adv-x="1097" 
d="M901 147q0 -45 13.5 -65.5t50.5 -20.5q19 0 63 13l8 -66q-55 -24 -110 -24q-62 0 -91.5 38.5t-27.5 92.5q-63 -63 -154.5 -101.5t-197.5 -38.5q-76 0 -134 20.5t-90 50.5t-52 70.5t-26 74t-6 67.5q0 86 31 150t78.5 101t118 59.5t136.5 30t146 7.5q56 0 142 -4v92
q0 158 -52 220.5t-196 62.5q-126 0 -186 -47t-78 -148l-97 17q24 141 115.5 201.5t253.5 60.5q185 0 263.5 -77.5t78.5 -270.5v-566zM801 516q-71 6 -160 6q-86 0 -150 -10t-120.5 -36.5t-86.5 -78.5t-30 -129q0 -95 48 -151t167 -56q96 0 186 41.5t146 106.5v307zM643 1386
q0 -86 -94 -86t-94 86q0 89 94 89t94 -89z" />
    <glyph glyph-name="uni0228" unicode="&#x228;" 
d="M1061 86v-86h-381l-12 -88q75 -8 123.5 -49t48.5 -121q0 -82 -55 -134t-140 -52q-90 0 -153 49l30 69q56 -39 117 -39q52 0 79 30.5t27 72.5q0 56 -37 83.5t-128 28.5l20 150h-371v1483h815v-86h-716v-598h669v-88h-669v-625h733z" />
    <glyph glyph-name="uni0229" unicode="&#x229;" horiz-adv-x="1112" 
d="M885 588q5 190 -67 285.5t-230 95.5q-68 0 -127.5 -21.5t-109.5 -65t-82.5 -119t-39.5 -175.5h656zM440 -326q56 -39 117 -39q52 0 79.5 30.5t27.5 72.5q0 56 -37.5 83.5t-128.5 28.5l18 130q-89 8 -158 41.5t-112.5 83.5t-71.5 118t-39.5 140.5t-11.5 156.5
q0 112 26 203.5t70.5 153.5t105.5 104t130 61t145 19q101 0 177 -33t121.5 -92t68 -134.5t22.5 -166.5q0 -76 -10 -135h-750q2 -101 21.5 -177t51 -123.5t78 -76.5t97 -40t113.5 -11q121 0 190.5 53.5t96.5 161.5l96 -19q-35 -147 -135 -217.5t-244 -75.5l-8 -63
q75 -8 123.5 -49t48.5 -121q0 -82 -55 -134t-140 -52q-90 0 -153 49z" />
    <glyph glyph-name="uni022A" unicode="&#x22a;" horiz-adv-x="1599" 
d="M791 -25q-160 0 -284.5 58t-203.5 162t-119.5 243t-40.5 307q0 222 78 393.5t232.5 271t365.5 99.5q156 0 278.5 -56.5t200 -156t118 -232t40.5 -288.5q0 -369 -173.5 -585t-491.5 -216zM799 59q122 0 223 45t175 131t115.5 219t41.5 302q0 314 -148 491.5t-391 177.5
q-120 0 -223 -46t-180 -131t-120.5 -215t-43.5 -290q0 -318 152.5 -501t398.5 -183zM690 1692q0 -41 -24 -63.5t-66 -22.5q-92 0 -92 86q0 41 24.5 63.5t67.5 22.5q42 0 66 -22.5t24 -63.5zM1081 1692q0 -41 -24 -63.5t-66 -22.5t-67 22.5t-25 63.5t25 63.5t67 22.5
t66 -22.5t24 -63.5zM487 2013h615v-92h-615v92z" />
    <glyph glyph-name="uni022B" unicode="&#x22b;" horiz-adv-x="1171" 
d="M582 -25q-125 0 -216 41t-143 116.5t-76 170t-24 213.5q0 256 127 400.5t358 144.5q224 0 332.5 -137.5t108.5 -380.5q0 -131 -26 -233t-81 -178t-146 -116.5t-214 -40.5zM590 68q352 0 352 462q0 238 -86 338.5t-256 100.5q-174 0 -275.5 -111t-101.5 -334
q0 -456 367 -456zM481 1362q0 -41 -24 -63.5t-66 -22.5q-92 0 -92 86q0 41 24.5 63.5t67.5 22.5q42 0 66 -22.5t24 -63.5zM872 1362q0 -41 -24 -63.5t-66 -22.5t-67 22.5t-25 63.5t25 63.5t67 22.5t66 -22.5t24 -63.5zM276 1712h615v-92h-615v92z" />
    <glyph glyph-name="uni022C" unicode="&#x22c;" horiz-adv-x="1599" 
d="M791 -25q-160 0 -284.5 58t-203.5 162t-119.5 243t-40.5 307q0 222 78 393.5t232.5 271t365.5 99.5q156 0 278.5 -56.5t200 -156t118 -232t40.5 -288.5q0 -369 -173.5 -585t-491.5 -216zM799 59q122 0 223 45t175 131t115.5 219t41.5 302q0 314 -148 491.5t-391 177.5
q-120 0 -223 -46t-180 -131t-120.5 -215t-43.5 -290q0 -318 152.5 -501t398.5 -183zM639 1788q41 3 86.5 -11t78.5 -32t72 -33.5t68 -15.5q43 0 63.5 23t20.5 96l78 -5q11 -109 -35 -154.5t-119 -45.5q-48 0 -106.5 23.5t-112 47t-92.5 23.5q-78 0 -76 -123l-73 4
q-11 108 35.5 159t111.5 44zM487 2030h615v-93h-615v93z" />
    <glyph glyph-name="uni022D" unicode="&#x22d;" horiz-adv-x="1171" 
d="M582 -25q-125 0 -216 41t-143 116.5t-76 170t-24 213.5q0 256 127 400.5t358 144.5q224 0 332.5 -137.5t108.5 -380.5q0 -131 -26 -233t-81 -178t-146 -116.5t-214 -40.5zM590 68q352 0 352 462q0 238 -86 338.5t-256 100.5q-174 0 -275.5 -111t-101.5 -334
q0 -456 367 -456zM426 1427q53 5 110 -18t108.5 -48.5t86.5 -25.5q43 0 63.5 23t20.5 96l78 -4q11 -109 -35 -155t-119 -46q-48 0 -106.5 23.5t-112 47t-92.5 23.5q-78 0 -76 -122l-73 4q-6 56 5 96.5t34.5 62t50 31.5t57.5 12zM281 1702h614v-92h-614v92z" />
    <glyph glyph-name="uni022E" unicode="&#x22e;" horiz-adv-x="1599" 
d="M791 -25q-160 0 -284.5 58t-203.5 162t-119.5 243t-40.5 307q0 222 78 393.5t232.5 271t365.5 99.5q156 0 278.5 -56.5t200 -156t118 -232t40.5 -288.5q0 -369 -173.5 -585t-491.5 -216zM799 59q122 0 223 45t175 131t115.5 219t41.5 302q0 314 -148 491.5t-391 177.5
q-120 0 -223 -46t-180 -131t-120.5 -215t-43.5 -290q0 -318 152.5 -501t398.5 -183zM889 1692q0 -86 -94 -86q-95 0 -95 86q0 88 95 88q94 0 94 -88z" />
    <glyph glyph-name="uni022F" unicode="&#x22f;" horiz-adv-x="1171" 
d="M582 -25q-125 0 -216 41t-143 116.5t-76 170t-24 213.5q0 256 127 400.5t358 144.5q224 0 332.5 -137.5t108.5 -380.5q0 -131 -26 -233t-81 -178t-146 -116.5t-214 -40.5zM590 68q352 0 352 462q0 238 -86 338.5t-256 100.5q-174 0 -275.5 -111t-101.5 -334
q0 -456 367 -456zM678 1386q0 -86 -94 -86q-95 0 -95 86q0 89 95 89q94 0 94 -89z" />
    <glyph glyph-name="uni0230" unicode="&#x230;" horiz-adv-x="1599" 
d="M791 -25q-160 0 -284.5 58t-203.5 162t-119.5 243t-40.5 307q0 222 78 393.5t232.5 271t365.5 99.5q156 0 278.5 -56.5t200 -156t118 -232t40.5 -288.5q0 -369 -173.5 -585t-491.5 -216zM799 59q122 0 223 45t175 131t115.5 219t41.5 302q0 314 -148 491.5t-391 177.5
q-120 0 -223 -46t-180 -131t-120.5 -215t-43.5 -290q0 -318 152.5 -501t398.5 -183zM889 1692q0 -86 -94 -86q-95 0 -95 86q0 88 95 88q94 0 94 -88zM487 1985h615v-93h-615v93z" />
    <glyph glyph-name="uni0231" unicode="&#x231;" horiz-adv-x="1171" 
d="M582 -25q-125 0 -216 41t-143 116.5t-76 170t-24 213.5q0 256 127 400.5t358 144.5q224 0 332.5 -137.5t108.5 -380.5q0 -131 -26 -233t-81 -178t-146 -116.5t-214 -40.5zM590 68q352 0 352 462q0 238 -86 338.5t-256 100.5q-174 0 -275.5 -111t-101.5 -334
q0 -456 367 -456zM680 1386q0 -86 -94 -86t-94 86q0 89 94 89t94 -89zM279 1722h614v-92h-614v92z" />
    <glyph glyph-name="uni0232" unicode="&#x232;" horiz-adv-x="1101" 
d="M510 0v588l-502 895h111l442 -787h2l430 787h101l-486 -887v-596h-98zM242 1731h614v-93h-614v93z" />
    <glyph glyph-name="uni0233" unicode="&#x233;" horiz-adv-x="935" 
d="M141 1040l326 -903h2l334 903h106q-227 -599 -475 -1235q-58 -144 -131.5 -203t-177.5 -59q-75 0 -178 37l20 84q73 -33 164 -33q72 0 124 45.5t97 165.5l60 158l-377 1040h106zM184 1413h568v-92h-568v92z" />
    <glyph glyph-name="uni0237" unicode="&#x237;" horiz-adv-x="477" 
d="M53 -457q-27 0 -80.5 10t-78.5 21l18 88q70 -24 145 -24q69 0 104.5 41t35.5 131v1230h100v-1222q0 -141 -58.5 -208t-185.5 -67z" />
    <glyph glyph-name="uni0238" unicode="&#x238;" horiz-adv-x="1888" 
d="M133 510q0 145 35.5 254t98.5 172.5t141.5 94t171.5 30.5q163 0 313 -103v588h100v-637q182 152 381 152q89 0 157 -27t119 -86.5t78 -160t27 -240.5q0 -148 -34.5 -260t-96 -179t-140.5 -100t-175 -33q-85 0 -169.5 32.5t-146.5 80.5l-8 -88h-76l-10 119
q-86 -69 -172.5 -106.5t-198.5 -37.5q-183 0 -289 130.5t-106 404.5zM240 508q0 -224 76 -334.5t233 -110.5q100 0 192.5 45t153.5 113v637q-54 41 -139.5 77t-177.5 36q-180 0 -259 -120.5t-79 -342.5zM995 190q152 -122 322 -122q89 0 154.5 35.5t104.5 102t57 153.5
t18 198q0 118 -19.5 199.5t-58.5 128.5t-91 67.5t-124 20.5q-101 0 -204.5 -52t-158.5 -112v-619z" />
    <glyph glyph-name="uni0239" unicode="&#x239;" horiz-adv-x="1886" 
d="M897 121q-164 -146 -369 -146q-184 0 -289.5 130t-105.5 403q0 147 35 256.5t97.5 173t140.5 93.5t172 30q141 0 309 -107l6 86h88l8 -133q180 154 385 154q84 0 151 -27.5t119.5 -86t80.5 -160t28 -240.5q0 -146 -35 -258.5t-96 -179.5t-138.5 -100.5t-168.5 -33.5
q-159 0 -326 115v-524h-92v555zM553 61q99 0 187.5 45.5t152.5 114.5v621q-33 25 -54 39.5t-66.5 40.5t-97 39.5t-106.5 13.5q-331 0 -331 -477q0 -225 77.5 -331t237.5 -106zM1315 66q117 0 193 63.5t108.5 170t32.5 257.5q0 226 -69.5 323t-223.5 97q-99 0 -199.5 -51
t-163.5 -117v-619q33 -24 55.5 -38t67.5 -38t95.5 -36t103.5 -12z" />
    <glyph glyph-name="uni023A" unicode="&#x23a;" horiz-adv-x="1304" 
d="M1233 0h-111l-172 508h-297l-217 -651h-94l217 651h-213l-172 -508h-102l508 1483h143l82 -242l129 383h90l-172 -516zM375 594h215l166 498l-109 327zM922 594l-121 360l-119 -360h240z" />
    <glyph glyph-name="uni023B" unicode="&#x23b;" horiz-adv-x="1413" 
d="M776 -25q-168 0 -289 56l-69 -174h-94l86 215q-267 177 -267 641q0 193 49.5 345t139 250t212.5 149.5t271 51.5q82 0 160 -16l51 131h92l-61 -156q125 -51 199 -159t87 -271l-94 -8q-21 138 -74.5 226t-150.5 130l-504 -1271q112 -56 262 -56q195 0 306 81.5t155 267.5
l86 -21q-21 -111 -72 -192.5t-126 -128.5t-163 -69t-192 -22zM246 729q0 -402 198 -567l498 1251q-58 12 -129 12q-260 0 -413.5 -181.5t-153.5 -514.5z" />
    <glyph glyph-name="uni023C" unicode="&#x23c;" horiz-adv-x="1085" 
d="M584 -25q-121 0 -226 45l-75 -163h-101l99 213q-158 134 -158 446q0 271 126 408t357 137q55 0 125 -17l72 154h98l-88 -188q71 -39 114.5 -113t47.5 -174l-109 -12q-15 145 -94 209l-371 -807q76 -43 181 -43q260 0 299 237l102 -20q-13 -80 -51.5 -141.5t-94 -98
t-119.5 -54.5t-134 -18zM227 530q0 -235 101 -358l364 789q-44 12 -98 12q-55 0 -104.5 -12.5t-98.5 -44.5t-84.5 -81t-57.5 -127.5t-22 -177.5z" />
    <glyph glyph-name="uni023D" unicode="&#x23d;" horiz-adv-x="1130" 
d="M29 881h200v602h99v-602h254v-86h-254v-711h690v-84h-789v795h-200v86z" />
    <glyph glyph-name="uni023E" unicode="&#x23e;" horiz-adv-x="1089" 
d="M496 1397h-455v86h985l55 141h95l-582 -1489v-135h-53l-56 -143h-100l111 280v1260zM594 1397v-1010l397 1010h-397z" />
    <glyph glyph-name="uni023F" unicode="&#x23f;" horiz-adv-x="976" 
d="M494 1061q75 0 132 -15t94.5 -40.5t62.5 -66t37.5 -85.5t17.5 -104l-97 -13q-13 120 -68 179t-186 59q-69 0 -119 -16t-76.5 -44.5t-38 -60.5t-11.5 -70q0 -37 9 -65.5t29.5 -49.5t41 -35t58 -26.5t65 -19.5t75.5 -17q44 -9 71.5 -15.5t68 -19t66 -26.5t55 -36.5
t46.5 -49t28 -64.5t11 -84q0 -137 -93 -219t-275 -82q-70 0 -150 17q8 -11 25.5 -37t25.5 -37.5t24 -33.5t25.5 -33t24 -27t26.5 -24t26 -17t28 -12.5t29 -3.5q47 0 102 55l57 -58q-64 -83 -166 -83q-45 0 -84.5 17t-68.5 42t-62.5 71t-56.5 84t-61 102t-66 107
q-55 73 -70 191l97 18q10 -45 20.5 -76t32.5 -66t52 -56t79.5 -35t114.5 -14q117 0 188.5 50t71.5 156q0 42 -13.5 74t-34 52.5t-56.5 36.5t-69.5 25t-84.5 19q-39 8 -58 11.5t-56 13t-57 17t-50.5 21t-48 28t-38 36t-31.5 45.5t-18.5 56t-7.5 69q0 135 103.5 210t251.5 75z
" />
    <glyph glyph-name="uni0240" unicode="&#x240;" horiz-adv-x="929" 
d="M854 -244q-56 -75 -168 -75q-41 0 -80.5 12t-79.5 38.5t-67 48.5t-70 60q-44 39 -70.5 60.5t-66.5 48t-79 39t-79 12.5h-26v70l661 884h-649v86h772v-69l-666 -893q109 -21 273 -170q75 -67 128.5 -103t98.5 -36q72 0 117 53z" />
    <glyph glyph-name="uni0241" unicode="&#x241;" horiz-adv-x="999" 
d="M336 705q93 8 170.5 32.5t142 69t101 118t36.5 169.5q0 173 -91.5 248t-264.5 75q-75 0 -129 -12t-104 -43t-83 -92t-51 -154l-83 21q11 62 28 111t51 99t81.5 83.5t123 55t172.5 21.5q101 0 182 -23.5t142.5 -71t95 -126.5t33.5 -184q0 -107 -36.5 -192.5t-101 -141.5
t-143 -90.5t-172.5 -50.5v-627h-100v705z" />
    <glyph glyph-name="uni0242" unicode="&#x242;" horiz-adv-x="966" 
d="M295 250q93 8 170.5 33.5t140.5 71.5t98 120.5t35 171.5q0 170 -81 246t-218 76q-64 0 -114.5 -13t-84 -34t-58.5 -54t-39.5 -66.5t-26.5 -78.5l-92 20q12 54 31 98t52.5 86t78.5 70.5t112 46t150 17.5t153 -22t125.5 -68t87 -124.5t31.5 -182.5q0 -110 -35.5 -198
t-98.5 -146t-142 -94t-175 -52v-174h-100v250z" />
    <glyph glyph-name="uni0243" unicode="&#x243;" horiz-adv-x="1300" 
d="M57 446h166v1037h465q128 0 217.5 -27t138 -78.5t69 -113.5t20.5 -144q0 -79 -24.5 -141.5t-69.5 -103t-99.5 -65.5t-122.5 -38v-4q361 -51 361 -371q0 -112 -38.5 -190.5t-112.5 -123t-169 -64t-221 -19.5h-414v360h-166v86zM602 805q57 0 110.5 7.5t112 29.5t101 56
t70.5 92.5t28 133.5q0 148 -82 209.5t-270 61.5h-353v-590h283zM637 90q82 0 141 6t118.5 24.5t96 51t59.5 89t23 134.5q0 160 -107 240t-282 80h-367v-269h420v-86h-420v-270h318z" />
    <glyph glyph-name="uni0244" unicode="&#x244;" horiz-adv-x="1464" 
d="M27 887h190v596h98v-596h832v596h98v-596h193v-86h-193v-334q0 -244 -133.5 -368t-390.5 -124q-262 0 -383 125.5t-121 366.5v334h-190v86zM733 66q100 0 173.5 20t129 66t83.5 125.5t28 193.5v330h-832v-326q0 -220 108.5 -314.5t309.5 -94.5z" />
    <glyph glyph-name="uni0245" unicode="&#x245;" horiz-adv-x="1277" 
d="M555 1483h137l514 -1483h-108l-475 1395l-451 -1395h-100z" />
    <glyph glyph-name="uni0246" unicode="&#x246;" 
d="M1061 86v-86h-627l-55 -143h-96l55 143h-109v1483h674l53 141h93l-54 -141h49v-86h-81l-228 -598h262v-88h-295l-237 -625h596zM328 799h313l229 598h-542v-598zM328 86h43l237 625h-280v-625z" />
    <glyph glyph-name="uni0247" unicode="&#x247;" horiz-adv-x="1112" 
d="M582 -25q-126 0 -224 45l-75 -163h-95l97 209q-162 134 -162 454q0 112 26 203.5t70.5 153.5t105.5 104t130 61t145 19q72 0 137 -19l72 156h92l-88 -188q89 -52 132.5 -150t43.5 -225q0 -76 -10 -135h-399l-181 -389q79 -39 191 -39q121 0 190.5 53.5t96.5 161.5l96 -19
q-36 -150 -141 -221.5t-250 -71.5zM229 588h297l170 366q-46 15 -108 15q-68 0 -127.5 -21.5t-109.5 -65t-82.5 -119t-39.5 -175.5zM885 588q6 245 -113 330l-151 -330h264zM229 500q8 -230 103 -336l153 336h-256z" />
    <glyph glyph-name="uni0248" unicode="&#x248;" horiz-adv-x="974" 
d="M434 885h258v598h99v-598h202v-86h-202v-445q0 -108 -26 -183.5t-76.5 -117.5t-113.5 -60t-147 -18q-89 0 -155 24.5t-105.5 70t-60 101t-25.5 124.5l96 16q9 -58 22 -97.5t40.5 -76.5t76.5 -55.5t121 -18.5q43 0 77.5 6.5t69 26t57 51.5t36.5 86t14 127v439h-258v86z
" />
    <glyph glyph-name="uni0249" unicode="&#x249;" horiz-adv-x="458" 
d="M338 1395q0 -86 -94 -86t-94 86q0 88 94 88t94 -88zM43 -457q-27 0 -81 10t-79 21l19 88q71 -24 145 -24q69 0 104 41t35 131v581h-188v88h188v561h101v-561h184v-88h-184v-573q0 -141 -58.5 -208t-185.5 -67z" />
    <glyph glyph-name="uni024A" unicode="&#x24a;" horiz-adv-x="1544" 
d="M705 -25q-129 0 -231 44t-176.5 133t-114.5 232t-40 333q0 180 38.5 325t113.5 250t192.5 162t268.5 57q130 0 238.5 -39.5t215.5 -109.5l9 121h90v-1747q0 -60 12 -82.5t49 -22.5q40 0 86 15l17 -78q-63 -23 -117 -23q-71 0 -106.5 44t-35.5 114v483
q-117 -102 -238 -156.5t-271 -54.5zM717 61q248 0 491 224v972q-220 168 -452 168q-251 0 -381.5 -183.5t-130.5 -524.5q0 -334 125.5 -495t347.5 -161z" />
    <glyph glyph-name="uni024B" unicode="&#x24b;" horiz-adv-x="1138" 
d="M1143 -444q-42 -11 -76 -11q-46 0 -79.5 15t-53.5 39.5t-31.5 63.5t-15.5 79.5t-4 95.5v279h-2q-86 -69 -171.5 -105.5t-197.5 -36.5q-389 0 -389 541q0 144 34 252t95 171t138 93.5t169 30.5q174 0 326 -107l8 86h86v-1251q0 -162 102 -162q38 0 56 6zM528 63
q103 0 193.5 45.5t157.5 112.5v633q-55 46 -138.5 83.5t-187.5 37.5q-167 0 -248.5 -121.5t-81.5 -337.5q0 -236 74.5 -344.5t230.5 -108.5z" />
    <glyph glyph-name="uni024C" unicode="&#x24c;" horiz-adv-x="1517" 
d="M229 748h213v735h457q473 0 473 -389q0 -163 -82.5 -269t-226.5 -145l383 -680h-109l-368 657h-430v-657h-97v653h-213v95zM887 743q90 0 157 17.5t119 57.5t78.5 109.5t26.5 168.5q0 75 -20 129.5t-54 88t-88.5 52.5t-113 26t-138.5 7h-315v-656h348z" />
    <glyph glyph-name="uni024D" unicode="&#x24d;" horiz-adv-x="856" 
d="M190 539h162v501h80l10 -139q160 173 389 160v-100q-94 12 -204.5 -24.5t-173.5 -102.5v-295h209v-82h-209v-457h-101v457h-162v82z" />
    <glyph glyph-name="uni024E" unicode="&#x24e;" horiz-adv-x="1146" 
d="M532 0v588l-296 528h-228v84h180l-157 283h110l160 -283h561l154 283h100l-155 -283h178v-84h-224l-284 -520v-596h-99zM584 696h2l229 420h-467z" />
    <glyph glyph-name="uni024F" unicode="&#x24f;" horiz-adv-x="985" 
d="M-23 733h168l-110 307h106l111 -307h438l113 307h106q-18 -49 -57.5 -152t-58.5 -155h165v-88h-200q-228 -597 -324 -840q-58 -144 -131.5 -203t-177.5 -59q-75 0 -178 37l20 84q73 -33 164 -33q72 0 124 45.5t97 165.5l60 158l-234 645h-201v88zM467 137h2l188 508h-372
z" />
    <glyph glyph-name="uni0250" unicode="&#x250;" horiz-adv-x="1085" 
d="M223 889q0 47 -12 66.5t-51 19.5q-24 0 -64 -12l-8 65q45 25 111 25q63 0 93 -39.5t25 -91.5q63 63 155 101t198 38q76 0 133.5 -20.5t89.5 -50.5t52 -70.5t26 -74t6 -67.5q0 -86 -31 -150t-78.5 -101t-118 -59.5t-136.5 -30t-146 -7.5q-47 0 -141 4v-92
q0 -158 51.5 -220.5t195.5 -62.5q126 0 186.5 47.5t78.5 147.5l96 -16q-24 -139 -115 -201t-254 -62q-184 0 -263 79t-79 270v565zM324 520q70 -6 159 -6q86 0 150 10.5t120.5 37t86.5 78.5t30 128q0 96 -47 151.5t-168 55.5q-97 0 -186.5 -40.5t-144.5 -107.5v-307z" />
    <glyph glyph-name="uni0251" unicode="&#x251;" horiz-adv-x="1064" 
d="M537 -25q-183 0 -286.5 128.5t-103.5 412.5q0 144 34.5 252t95.5 171t138 93.5t169 30.5q173 0 325 -107l9 86h86v-1042h-86l-13 117q-86 -69 -171 -105.5t-197 -36.5zM553 63q103 0 193 45.5t157 112.5v633q-55 47 -138.5 84t-186.5 37q-167 0 -248.5 -121.5
t-81.5 -337.5q0 -236 74.5 -344.5t230.5 -108.5z" />
    <glyph glyph-name="uni0252" unicode="&#x252;" horiz-adv-x="1169" 
d="M657 1067q390 0 390 -541q0 -116 -23 -209t-62.5 -155t-95 -103.5t-119.5 -60t-137 -18.5q-167 0 -325 106l-9 -86h-86v1042h86l13 -116q85 68 171.5 104.5t196.5 36.5zM641 979q-104 0 -195 -45t-155 -113v-633q54 -46 138.5 -83t186.5 -37q170 0 250 121.5t80 336.5
q0 236 -74.5 344.5t-230.5 108.5z" />
    <glyph glyph-name="uni0253" unicode="&#x253;" horiz-adv-x="1187" 
d="M195 1217q0 78 17 139t54.5 109t104.5 74t161 26q82 0 158 -23l-6 -90q-68 23 -154 23q-129 0 -183 -59t-54 -179v-328q182 152 381 152q89 0 157 -27t119 -86.5t78 -160t27 -240.5q0 -148 -34.5 -260t-96.5 -179t-141 -100t-175 -33q-85 0 -169 32.5t-146 80.5l-8 -88
h-90v1217zM295 190q152 -122 321 -122q89 0 154.5 35.5t104.5 102t57 153.5t18 198q0 118 -19.5 199.5t-58.5 128.5t-91 67.5t-124 20.5q-100 0 -203.5 -52t-158.5 -112v-619z" />
    <glyph glyph-name="uni0254" unicode="&#x254;" horiz-adv-x="1105" 
d="M522 1061q461 0 461 -541q0 -271 -126 -408t-357 -137q-155 0 -257.5 87.5t-111.5 250.5l109 13q13 -133 80 -198t192 -65q55 0 105 12.5t99 44.5t84.5 81t57 127t21.5 178q0 108 -21 191t-54 133t-81 82t-96 43.5t-103 11.5q-122 0 -199 -59t-100 -179l-102 21
q29 157 139.5 234t259.5 77z" />
    <glyph glyph-name="uni0256" unicode="&#x256;" horiz-adv-x="1198" 
d="M995 -205q0 -84 29.5 -130t105.5 -46q77 0 138 35l28 -74q-23 -16 -72.5 -29.5t-99.5 -13.5q-113 0 -170 60.5t-57 197.5v328q-84 -71 -171.5 -109.5t-197.5 -38.5q-183 0 -289 130.5t-106 404.5q0 145 35.5 254t98.5 172.5t141.5 94t171.5 30.5q163 0 313 -103v588h102
v-1751zM895 858q-54 41 -139.5 77t-177.5 36q-180 0 -259 -120.5t-79 -342.5q0 -224 76 -334.5t233 -110.5q100 0 192.5 45t153.5 113v637z" />
    <glyph glyph-name="uni0257" unicode="&#x257;" horiz-adv-x="1218" 
d="M893 1247q0 69 11 121.5t40 99.5t86 72t141 25q89 0 156 -27l-6 -84q-70 25 -152 25q-104 0 -139 -54.5t-35 -173.5v-1251h-86l-10 119q-86 -69 -172.5 -106.5t-198.5 -37.5q-183 0 -289 130.5t-106 404.5q0 145 35.5 254t98.5 172.5t141.5 94t171.5 30.5q163 0 313 -103
v289zM895 858q-54 41 -139.5 77t-177.5 36q-180 0 -259 -120.5t-79 -342.5q0 -224 76 -334.5t233 -110.5q100 0 192.5 45t153.5 113v637z" />
    <glyph glyph-name="uni0259" unicode="&#x259;" horiz-adv-x="1114" 
d="M532 1061q129 0 221.5 -43.5t143 -122t72.5 -171.5t22 -208q0 -112 -26 -203t-70.5 -153t-105.5 -104.5t-130 -61.5t-145 -19q-195 0 -292 118.5t-97 307.5q0 77 10 136h750q-2 101 -21.5 176.5t-50.5 123t-77.5 76.5t-97 40.5t-114.5 11.5q-120 0 -188 -53t-98 -162
l-97 18q36 150 141 221.5t250 71.5zM229 449q-5 -190 67 -285.5t230 -95.5q67 0 127 21.5t110.5 65.5t83 119.5t38.5 174.5h-656z" />
    <glyph glyph-name="uni025B" unicode="&#x25b;" horiz-adv-x="1077" 
d="M522 -25q-186 0 -292.5 83.5t-106.5 220.5q0 111 55.5 174.5t151.5 81.5v4q-78 18 -126 74.5t-48 148.5q0 134 103 217.5t298 83.5q202 0 297 -85t113 -257l-103 -12q-10 70 -27 115t-51 81.5t-92 53t-145 16.5q-130 0 -210.5 -56t-80.5 -151q0 -27 5.5 -50.5t23 -49.5
t45 -44t75.5 -30t111 -12h168v-88h-180q-64 0 -111.5 -9t-87.5 -30.5t-61 -63.5t-21 -104q0 -106 82.5 -163.5t212.5 -57.5q123 0 195.5 27.5t105.5 79t51 142.5l103 -22q-48 -318 -453 -318z" />
    <glyph glyph-name="uni0260" unicode="&#x260;" horiz-adv-x="1173" 
d="M539 -457q-326 0 -369 242l90 20q23 -92 91 -132t192 -40q157 0 233 72t76 248v156q-173 -134 -356 -134q-186 0 -293 128t-107 403q0 120 24 215t65.5 158.5t99 105.5t122 60t138.5 18q162 0 307 -100l-6 280q-8 322 284 322q88 0 156 -27l-6 -86q-64 23 -137 23
q-115 0 -153 -53t-38 -173v-1282q0 -424 -413 -424zM512 61q98 0 188 43.5t152 110.5v647q-51 39 -140 74t-186 35q-323 0 -323 -471q0 -227 78 -333t231 -106z" />
    <glyph glyph-name="uni0263" unicode="&#x263;" horiz-adv-x="989" 
d="M117 1040l383 -811l377 811h104l-422 -897q64 -95 117 -212t53 -205q0 -98 -62 -163t-173 -65q-60 0 -105.5 20t-71 53.5t-37.5 72.5t-12 82q0 150 172 413l-432 901h109zM373 -279q0 -61 33 -97t92 -36q64 0 95.5 36.5t31.5 99.5q0 127 -125 327q-127 -195 -127 -330z
" />
    <glyph glyph-name="uni0264" unicode="&#x264;" horiz-adv-x="1169" 
d="M1022 1061q78 0 135 -25l-4 -82q-74 19 -127 19q-105 0 -191.5 -43t-187.5 -150q122 -112 205.5 -242t83.5 -253q0 -62 -20 -116t-60.5 -98.5t-110 -70t-159.5 -25.5q-94 0 -163 24.5t-107 66.5t-56 92t-18 108q0 125 80 257.5t208 254.5q-120 117 -195.5 156t-182.5 39
q-63 0 -134 -23l-4 84q78 27 154 27q115 0 208.5 -46t217.5 -173q106 113 206.5 166t221.5 53zM590 59q116 0 183 62t67 162q0 197 -248 434q-116 -102 -184 -219.5t-68 -223.5q0 -98 62.5 -156.5t187.5 -58.5z" />
    <glyph glyph-name="uni0265" unicode="&#x265;" horiz-adv-x="1140" 
d="M281 1040v-696q0 -135 53.5 -202.5t179.5 -67.5q102 0 210 51.5t169 107.5v807h100v-1474h-100v567q-210 -153 -397 -153q-316 0 -316 360v700h101z" />
    <glyph glyph-name="uni0266" unicode="&#x266;" horiz-adv-x="1183" 
d="M190 1266q0 145 70 222t199 77q73 0 135 -25l-6 -88q-50 23 -113 23q-83 0 -133.5 -50.5t-50.5 -154.5v-363q212 154 397 154q163 0 239.5 -90.5t76.5 -270.5v-700h-101v696q0 136 -52.5 203.5t-180.5 67.5q-100 0 -208.5 -51.5t-170.5 -108.5v-807h-101v1266z" />
    <glyph glyph-name="uni0268" unicode="&#x268;" horiz-adv-x="524" 
d="M358 1395q0 -86 -94 -86t-94 86q0 88 94 88t94 -88zM209 0v535h-164v83h164v422h100v-422h172v-83h-172v-535h-100z" />
    <glyph glyph-name="uni0269" unicode="&#x269;" horiz-adv-x="643" 
d="M457 -25q-136 0 -199 67.5t-63 201.5v798h100v-800q0 -88 35.5 -134.5t124.5 -46.5q65 0 118 33l29 -78q-63 -41 -145 -41z" />
    <glyph glyph-name="uni026A" unicode="&#x26a;" horiz-adv-x="862" 
d="M109 86h270v868h-270v86h645v-86h-275v-868h275v-86h-645v86z" />
    <glyph glyph-name="uni026C" unicode="&#x26c;" horiz-adv-x="862" 
d="M252 582q-63 0 -110 16.5t-72.5 45.5t-37.5 62t-12 70q0 34 11.5 65.5t35.5 60t69 46t106 17.5q127 0 200 -84v665h101v-794q172 79 305 166l16 -99q-158 -100 -321 -170v-649h-101v614q-105 -32 -190 -32zM125 778q0 -45 36.5 -72.5t98.5 -27.5q82 0 182 41
q-12 50 -37 84t-56.5 48t-54.5 18.5t-46 4.5q-57 0 -90 -25t-33 -71z" />
    <glyph glyph-name="uni026F" unicode="&#x26f;" horiz-adv-x="1742" 
d="M1595 1042v-1040h-90l-8 137q-101 -76 -191 -116.5t-192 -40.5q-203 0 -258 157q-103 -74 -195.5 -115.5t-191.5 -41.5q-163 0 -224 87t-61 275v698h101v-694q0 -58 4 -97t15.5 -75.5t32.5 -57.5t56.5 -33.5t85.5 -12.5q87 0 186 47.5t173 105.5q-9 59 -9 119v698h101
v-694q0 -72 7 -118.5t27.5 -84.5t60 -55.5t101.5 -17.5q91 0 199 54.5t170 111.5v804h100z" />
    <glyph glyph-name="uni0271" unicode="&#x271;" horiz-adv-x="1781" 
d="M190 1040h91l8 -137q107 78 194.5 118t188.5 40q203 0 258 -158q105 76 196 117t191 41q164 0 224.5 -87t60.5 -276v-876q0 -143 -61.5 -211t-190.5 -68q-38 0 -98.5 10.5t-84.5 24.5l19 90q90 -33 166 -33q149 0 149 177v882q0 72 -6.5 118t-26.5 85t-59.5 56.5
t-101.5 17.5q-86 0 -188 -48.5t-171 -105.5q8 -47 8 -119v-698h-100v694q0 71 -7.5 117.5t-28 85t-60 56.5t-101.5 18q-91 0 -199.5 -54.5t-168.5 -111.5v-805h-101v1040z" />
    <glyph glyph-name="uni0272" unicode="&#x272;" horiz-adv-x="1183" 
d="M291 -168q0 -293 -266 -293q-120 0 -201 43l29 80q75 -37 178 -37q92 0 125.5 48.5t33.5 154.5v1212h89l6 -135q214 156 405 156q162 0 238 -90.5t76 -270.5v-700h-101v696q0 137 -51.5 205t-179.5 68q-100 0 -210 -53t-171 -109v-975z" />
    <glyph glyph-name="uni0275" unicode="&#x275;" horiz-adv-x="1171" 
d="M582 -25q-125 0 -216 41t-143 116.5t-76 170t-24 213.5q0 256 127 400.5t358 144.5q224 0 332.5 -137.5t108.5 -380.5q0 -131 -26 -233t-81 -178t-146 -116.5t-214 -40.5zM600 969q-165 0 -265 -100t-110 -300h717q-7 215 -93 307.5t-249 92.5zM590 68q338 0 352 417
h-719q15 -417 367 -417z" />
    <glyph glyph-name="uni027D" unicode="&#x27d;" horiz-adv-x="702" 
d="M291 -209q0 -84 37.5 -126t132.5 -42q45 0 99.5 16.5t88.5 38.5l29 -79q-38 -26 -102.5 -44t-120.5 -18q-135 0 -200 64t-65 202v1237h80l11 -139q160 173 389 160v-100q-94 12 -205 -24.5t-174 -102.5v-1043z" />
    <glyph glyph-name="uni027E" unicode="&#x27e;" horiz-adv-x="714" 
d="M199 688q0 86 17 151.5t55 117.5t105 79t161 27q69 0 157 -25l-6 -88q-68 23 -147 23q-133 0 -187.5 -65.5t-54.5 -217.5v-690h-100v688z" />
    <glyph glyph-name="uni0283" unicode="&#x283;" horiz-adv-x="557" 
d="M51 -463q-99 0 -162 29l7 90q73 -25 151 -25q164 0 164 199v1417q0 318 262 318q87 0 158 -29l-6 -94q-76 26 -156 26q-75 0 -116.5 -45.5t-41.5 -158.5v-1409q0 -318 -260 -318z" />
    <glyph glyph-name="uni0288" unicode="&#x288;" horiz-adv-x="659" 
d="M705 -373q-36 -26 -102 -43.5t-122 -17.5q-141 0 -202.5 62t-61.5 200v1124h-166v88h166v297l100 17v-314h295v-88h-295v-1104q0 -102 35 -150t135 -48q44 0 97 16.5t92 38.5z" />
    <glyph glyph-name="uni0289" unicode="&#x289;" horiz-adv-x="1206" 
d="M31 643h170v397h100v-397h606v397h101v-397h166v-88h-166v-555h-88l-7 133q-103 -75 -196.5 -114t-206.5 -39q-163 0 -236 90t-73 272v213h-170v88zM301 344q0 -136 51 -204t176 -68q100 0 209 52.5t170 108.5v322h-606v-211z" />
    <glyph glyph-name="uni028A" unicode="&#x28a;" horiz-adv-x="1230" 
d="M606 -25q-154 0 -265 62t-164.5 165.5t-53.5 235.5q0 69 17 135.5t54 133t107 116.5t166 70v68h-295v81h389v-204q-160 -19 -249 -122.5t-89 -279.5q0 -162 101.5 -267.5t277.5 -105.5q87 0 157.5 25t116 65t76 93t43.5 105.5t13 105.5q0 95 -29.5 168.5t-78 116.5
t-101 66t-109.5 30v204h367v-81h-273v-70q143 -31 233.5 -134.5t90.5 -285.5q0 -216 -135.5 -356t-366.5 -140z" />
    <glyph glyph-name="uni028B" unicode="&#x28b;" horiz-adv-x="1140" 
d="M492 -20q-304 0 -304 346v716h101v-682q0 -151 46 -222.5t165 -71.5q88 0 160.5 36t119.5 96t79.5 140.5t46.5 166.5t14 177q0 153 -44.5 220t-146.5 67q-73 0 -135 -21l-4 88q62 23 147 23q69 0 120.5 -21.5t82 -55.5t49 -84t25 -99t6.5 -109q0 -114 -19 -217
t-60.5 -194t-102 -157t-149.5 -104t-197 -38z" />
    <glyph glyph-name="uni028C" unicode="&#x28c;" horiz-adv-x="983" 
d="M430 1042h109l419 -1042h-110l-365 938l-360 -938h-98z" />
    <glyph glyph-name="uni028E" unicode="&#x28e;" horiz-adv-x="1011" 
d="M612 1272l-88 -232l377 -1040h-106l-326 903h-2l-334 -903h-106l503 1309q57 146 131 204t179 58q86 0 178 -37l-21 -84q-73 33 -163 33q-70 0 -123 -45t-99 -166z" />
    <glyph glyph-name="uni0292" unicode="&#x292;" horiz-adv-x="909" 
d="M377 -463q-163 0 -254.5 83t-104.5 210l88 16q54 -219 269 -219q177 0 268.5 107t91.5 280q0 172 -81.5 255t-252.5 83q-96 0 -168 -14v76l435 540h-582v88h709v-77l-433 -531q214 28 345 -77.5t131 -325.5q0 -100 -28.5 -188t-83.5 -157t-145 -109t-204 -40z" />
    <glyph glyph-name="uni0294" unicode="&#x294;" horiz-adv-x="983" 
d="M291 756q74 8 137 24.5t121.5 47.5t99 74t64.5 106t24 141q0 173 -83 250.5t-218 77.5q-61 0 -108 -10.5t-91 -37t-76.5 -77.5t-51.5 -127l-82 18q11 49 27.5 90.5t48.5 86.5t75 76t111 51t153 20q83 0 153 -23t125.5 -70t86.5 -126t31 -183q0 -109 -36.5 -197
t-101 -145.5t-141.5 -93t-168 -51.5v-678h-100v756z" />
    <glyph glyph-name="uni0295" unicode="&#x295;" horiz-adv-x="985" 
d="M596 672q-77 13 -140 33.5t-122 56.5t-99 85t-64 122t-24 164q0 199 119.5 316.5t308.5 117.5q91 0 163 -30t116 -80t69.5 -103t37.5 -111l-84 -18q-42 140 -116 196t-181 56q-152 0 -242 -89t-90 -255q0 -86 24.5 -150.5t63 -104t100 -65.5t120.5 -37.5t140 -19.5v-756
h-100v672z" />
    <glyph glyph-name="uni0298" unicode="&#x298;" horiz-adv-x="1468" 
d="M725 -25q-195 0 -334.5 102t-209.5 281.5t-70 417.5q0 391 170 588t471 197q296 0 451 -189t155 -565q0 -386 -169.5 -609t-463.5 -223zM731 51q116 0 212.5 45t169.5 133t114 230.5t41 326.5q0 156 -25.5 277t-71 200t-112 130t-142.5 72.5t-169 21.5
q-77 0 -144.5 -15.5t-130.5 -49t-112 -89.5t-86 -133.5t-56.5 -185.5t-19.5 -240q0 -176 40.5 -314.5t112 -227t168 -135t211.5 -46.5zM684 952h104v-331h-104v331z" />
    <glyph glyph-name="uni029D" unicode="&#x29d;" horiz-adv-x="581" 
d="M389 1395q0 -86 -94 -86t-94 86q0 88 94 88t94 -88zM115 -457q-100 0 -156.5 51t-56.5 142q0 55 20 96t52 62t64.5 30.5t65.5 9.5q69 0 136 -26v1134h100v-1173q66 -26 172 -86l-16 -82q-70 42 -158 84q-7 -119 -65.5 -180.5t-157.5 -61.5zM0 -258q0 -55 32.5 -84
t84.5 -29q123 0 123 178v17q-67 26 -123 26q-46 0 -81.5 -25.5t-35.5 -82.5z" />
    <glyph glyph-name="uni02B0" unicode="&#x2b0;" horiz-adv-x="798" 
d="M588 717v440q0 79 -30 117.5t-105 38.5q-63 0 -129 -28.5t-99 -61.5v-506h-96v985h94v-399q125 94 252 94q107 0 157 -57t50 -171v-452h-94z" />
    <glyph glyph-name="uni02B7" unicode="&#x2b7;" horiz-adv-x="1009" 
d="M23 1384h98l178 -573l154 573h110l156 -567q0 1 1 3q30 81 179 564h88l-213 -667h-115l-153 561l-152 -561h-114z" />
    <glyph glyph-name="uni02BB" unicode="&#x2bb;" horiz-adv-x="1024" 
d="M428 1167l117 299l88 -12l-70 -287h-135z" />
    <glyph glyph-name="uni02BC" unicode="&#x2bc;" horiz-adv-x="352" 
d="M96 1169l41 377h119l-88 -391z" />
    <glyph glyph-name="uni02BE" unicode="&#x2be;" horiz-adv-x="415" 
d="M106 1264q54 0 81.5 31.5t27.5 84.5q0 107 -109 107v86q87 0 145 -48t58 -145q0 -93 -55.5 -146.5t-147.5 -53.5v84z" />
    <glyph glyph-name="circumflex" unicode="&#x2c6;" horiz-adv-x="1024" 
d="M510 1450l-195 -270l-92 18l238 338h102l250 -338l-96 -12z" />
    <glyph glyph-name="caron" unicode="&#x2c7;" horiz-adv-x="1024" 
d="M514 1257l201 271l88 -19l-238 -338h-104l-248 338l104 15z" />
    <glyph glyph-name="uni02C9" unicode="&#x2c9;" horiz-adv-x="1024" 
d="M227 1413h568v-92h-568v92z" />
    <glyph glyph-name="breve" unicode="&#x2d8;" horiz-adv-x="1024" 
d="M795 1483q5 -140 -67.5 -223.5t-217.5 -83.5q-138 0 -204 76t-68 227l90 12q7 -131 50 -180t134 -49q98 0 146 50.5t49 178.5z" />
    <glyph glyph-name="dotaccent" unicode="&#x2d9;" horiz-adv-x="1024" 
d="M606 1386q0 -86 -94 -86t-94 86q0 89 94 89t94 -89z" />
    <glyph glyph-name="ring" unicode="&#x2da;" horiz-adv-x="1024" 
d="M721 1380q0 -93 -56 -146.5t-153 -53.5q-94 0 -150.5 50.5t-56.5 137.5q0 98 59.5 150.5t147.5 52.5q93 0 151 -47t58 -144zM512 1257q58 0 85.5 33t27.5 90q0 113 -113 113q-53 0 -85 -31.5t-32 -89.5q0 -52 30.5 -83.5t86.5 -31.5z" />
    <glyph glyph-name="ogonek" unicode="&#x2db;" horiz-adv-x="1024" 
d="M737 -328q-30 -64 -89.5 -96.5t-121.5 -32.5q-76 0 -126 43.5t-50 120.5q0 44 16 88.5t35.5 76t54 68.5t54 55t53.5 46l86 -23q-101 -86 -148.5 -151.5t-47.5 -145.5q0 -39 23.5 -63.5t66.5 -24.5q74 0 121 80z" />
    <glyph glyph-name="tilde" unicode="&#x2dc;" horiz-adv-x="1024" 
d="M356 1427q53 5 110 -18t109 -48.5t87 -25.5q42 0 62.5 23t20.5 96l78 -4q11 -109 -34.5 -155t-118.5 -46q-48 0 -106.5 23.5t-112.5 47t-93 23.5q-77 0 -75 -122l-74 4q-6 56 5 96.5t34.5 62t50 31.5t57.5 12z" />
    <glyph glyph-name="hungarumlaut" unicode="&#x2dd;" horiz-adv-x="1024" 
d="M319 1198l193 336h141l-256 -363zM553 1200l225 336h142l-289 -365z" />
    <glyph glyph-name="gravecomb" unicode="&#x300;" horiz-adv-x="0" 
d="M-70 1538l232 -338l-84 -29l-295 367h147z" />
    <glyph glyph-name="acutecomb" unicode="&#x301;" horiz-adv-x="0" 
d="M-152 1200l232 338h147l-293 -367z" />
    <glyph glyph-name="uni0302" unicode="&#x302;" horiz-adv-x="0" 
d="M-2 1450l-195 -270l-92 18l238 338h102l250 -338l-96 -12z" />
    <glyph glyph-name="tildecomb" unicode="&#x303;" horiz-adv-x="0" 
d="M-154 1427q53 5 110 -18t109 -48.5t87 -25.5q43 0 63.5 23t20.5 96l77 -4q11 -109 -34.5 -155t-118.5 -46q-48 0 -106.5 23.5t-112.5 47t-93 23.5q-77 0 -75 -122l-74 4q-6 56 5 96.5t34.5 62t50 31.5t57.5 12z" />
    <glyph glyph-name="uni0304" unicode="&#x304;" horiz-adv-x="0" 
d="M-285 1413h568v-92h-568v92z" />
    <glyph glyph-name="uni0306" unicode="&#x306;" horiz-adv-x="0" 
d="M279 1483q5 -140 -67.5 -223.5t-217.5 -83.5q-270 0 -273 303l91 12q7 -131 50 -180t134 -49q98 0 145.5 50.5t48.5 178.5z" />
    <glyph glyph-name="uni0307" unicode="&#x307;" horiz-adv-x="0" 
d="M94 1386q0 -86 -94 -86t-94 86q0 89 94 89t94 -89z" />
    <glyph glyph-name="uni0308" unicode="&#x308;" horiz-adv-x="0" 
d="M-104 1362q0 -41 -24.5 -63.5t-66.5 -22.5q-92 0 -92 86q0 41 24.5 63.5t67.5 22.5q42 0 66.5 -22.5t24.5 -63.5zM287 1362q0 -41 -24 -63.5t-66 -22.5t-67.5 22.5t-25.5 63.5t25.5 63.5t67.5 22.5t66 -22.5t24 -63.5z" />
    <glyph glyph-name="hookabovecomb" unicode="&#x309;" horiz-adv-x="0" 
d="M-55 1180q-1 46 12 81.5t27.5 53t40.5 39.5q55 44 55 88q0 27 -15.5 42t-60.5 15q-56 0 -75 -24.5t-17 -61.5l-88 2q0 72 42 119t140 47q172 0 172 -139q0 -38 -17 -66.5t-59 -64.5q-39 -34 -54.5 -60.5t-14.5 -70.5h-88z" />
    <glyph glyph-name="uni030A" unicode="&#x30a;" horiz-adv-x="0" 
d="M209 1380q0 -93 -56 -146.5t-153 -53.5q-94 0 -150.5 50.5t-56.5 137.5q0 98 59.5 150.5t147.5 52.5q93 0 151 -47t58 -144zM0 1257q58 0 85.5 33t27.5 90q0 113 -113 113q-53 0 -85 -31.5t-32 -89.5q0 -52 30.5 -83.5t86.5 -31.5z" />
    <glyph glyph-name="uni030B" unicode="&#x30b;" horiz-adv-x="0" 
d="M-193 1198l193 336h141l-256 -363zM41 1200l225 336h142l-289 -365z" />
    <glyph glyph-name="uni030C" unicode="&#x30c;" horiz-adv-x="0" 
d="M2 1257l201 271l88 -19l-238 -338h-104l-248 338l104 15z" />
    <glyph glyph-name="uni030D" unicode="&#x30d;" horiz-adv-x="0" 
d="M-51 1573h104l-14 -375h-74z" />
    <glyph glyph-name="uni030F" unicode="&#x30f;" horiz-adv-x="0" 
d="M-412 1534h142l225 -334l-78 -29zM-143 1534h141l195 -336l-80 -27z" />
    <glyph glyph-name="uni0311" unicode="&#x311;" horiz-adv-x="0" 
d="M-276 1184q-2 141 69 224t215 83q139 0 205 -75t68 -228l-91 -12q-7 131 -50 180t-134 49q-97 0 -143.5 -50t-50.5 -179z" />
    <glyph glyph-name="uni0312" unicode="&#x312;" horiz-adv-x="0" 
d="M-84 1167l117 299l88 -12l-70 -287h-135z" />
    <glyph glyph-name="uni0315" unicode="&#x315;" horiz-adv-x="0" 
d="M109 1493l-119 -301l-86 14l69 287h136z" />
    <glyph glyph-name="uni031B" unicode="&#x31b;" horiz-adv-x="0" 
d="M383 852q47 2 78 13t49 27t27 47t11.5 60.5t2.5 81.5v101h98v-92q0 -65 -6.5 -111t-23.5 -86.5t-47 -66t-76.5 -41t-112.5 -19.5v86z" />
    <glyph glyph-name="dotbelowcomb" unicode="&#x323;" horiz-adv-x="0" 
d="M94 -260q0 -86 -94 -86t-94 86q0 88 94 88t94 -88z" />
    <glyph glyph-name="uni0324" unicode="&#x324;" horiz-adv-x="0" 
d="M-104 -283q0 -41 -24.5 -63.5t-66.5 -22.5q-92 0 -92 86q0 41 24.5 63.5t67.5 22.5q42 0 66.5 -22.5t24.5 -63.5zM287 -283q0 -41 -24 -63.5t-66 -22.5t-67.5 22.5t-25.5 63.5t25.5 63.5t67.5 22.5t66 -22.5t24 -63.5z" />
    <glyph glyph-name="uni0325" unicode="&#x325;" horiz-adv-x="0" 
d="M207 -303q0 -94 -56 -147.5t-153 -53.5q-94 0 -150.5 51t-56.5 138q0 98 59.5 150t147.5 52q93 0 151 -46.5t58 -143.5zM-2 -426q58 0 85.5 33t27.5 90q0 113 -113 113q-53 0 -85 -31.5t-32 -89.5q0 -52 30.5 -83.5t86.5 -31.5z" />
    <glyph glyph-name="uni0326" unicode="&#x326;" horiz-adv-x="0" 
d="M102 -141l-118 -301l-86 14l69 287h135z" />
    <glyph glyph-name="uni0327" unicode="&#x327;" horiz-adv-x="0" 
d="M-143 -326q56 -39 116 -39q52 0 79.5 30.5t27.5 72.5q0 56 -37.5 83.5t-128.5 28.5l29 211l77 -14l-18 -135q75 -8 123.5 -49t48.5 -121q0 -82 -54.5 -134t-139.5 -52q-91 0 -154 49z" />
    <glyph glyph-name="uni0328" unicode="&#x328;" horiz-adv-x="0" 
d="M193 -328q-30 -64 -89.5 -96.5t-121.5 -32.5q-77 0 -127 43.5t-50 120.5q0 44 16 88.5t35.5 76t54 68.5t54 55t53.5 46l86 -23q-101 -86 -148.5 -151.5t-47.5 -145.5q0 -39 23.5 -63.5t66.5 -24.5q74 0 121 80z" />
    <glyph glyph-name="uni0329" unicode="&#x329;" horiz-adv-x="0" 
d="M-51 -133h104l-14 -375h-74z" />
    <glyph glyph-name="uni032D" unicode="&#x32d;" horiz-adv-x="0" 
d="M-8 -231l-195 -222l-92 19l238 289h102l250 -289l-96 -12z" />
    <glyph glyph-name="uni032E" unicode="&#x32e;" horiz-adv-x="0" 
d="M279 -164q5 -140 -67.5 -223.5t-217.5 -83.5q-270 0 -273 303l91 12q7 -131 50 -180t134 -49q98 0 145.5 50.5t48.5 178.5z" />
    <glyph glyph-name="uni032F" unicode="&#x32f;" horiz-adv-x="0" 
d="M-276 -485q-2 141 69 224t215 83q139 0 205 -75t68 -228l-91 -13q-7 131 -50 180.5t-134 49.5q-97 0 -143.5 -50.5t-50.5 -179.5z" />
    <glyph glyph-name="uni0330" unicode="&#x330;" horiz-adv-x="0" 
d="M-154 -186q53 5 110 -18t109 -49t87 -26q43 0 63.5 23t20.5 96l77 -4q11 -109 -34.5 -155t-118.5 -46q-48 0 -106.5 23.5t-112.5 47.5t-93 24q-77 0 -75 -123l-74 4q-6 56 5 96.5t34.5 62.5t50 32t57.5 12z" />
    <glyph glyph-name="uni0331" unicode="&#x331;" horiz-adv-x="0" 
d="M-285 -231h568v-93h-568v93z" />
    <glyph glyph-name="uni0332" unicode="&#x332;" horiz-adv-x="0" 
d="M-340 -238h684v-92h-684v92z" />
    <glyph glyph-name="uni0335" unicode="&#x335;" horiz-adv-x="0" 
d="M-477 610h477v-96h-477v96z" />
    <glyph glyph-name="uni0337" unicode="&#x337;" horiz-adv-x="0" 
d="M279 1171h100l-658 -1249h-100z" />
    <glyph glyph-name="uni0338" unicode="&#x338;" horiz-adv-x="0" 
d="M352 1307h101l-805 -1565h-101z" />
    <glyph glyph-name="uni0394" unicode="&#x394;" horiz-adv-x="1386" 
d="M1264 90v-90h-1141v88l498 1395h143zM223 86h932l-467 1333z" />
    </font>
</defs>
</svg>
