<?xml version="1.0" standalone="no"?>
<!DOCTYPE svg PUBLIC "-//W3C//DTD SVG 1.1//EN" "http://www.w3.org/Graphics/SVG/1.1/DTD/svg11.dtd" >
<svg xmlns="http://www.w3.org/2000/svg" xmlns:xlink="http://www.w3.org/1999/xlink" version="1.1">
<metadata>
Created by FontForge 20170731 at Mon Nov  2 15:35:05 2020
 By Aleksey,,,
Copyright (c) 2012 Veronika Burian, Jose Scaglione. All rights reserved.
</metadata>
<defs>
<font id="AdelleSansEXT-Heavy" horiz-adv-x="1167" >
  <font-face 
    font-family="Adelle Sans EXT Heavy"
    font-weight="900"
    font-stretch="expanded"
    units-per-em="2048"
    panose-1="2 11 10 5 0 0 0 0 0 0"
    ascent="1638"
    descent="-410"
    x-height="1081"
    cap-height="1483"
    bbox="-653 -618 2773 2464"
    underline-thickness="145"
    underline-position="-659"
    unicode-range="U+000D-FB06"
  />
<missing-glyph 
d="M205 1483h758v-1483h-758v1483zM266 1421v-1290l600 1290h-600zM901 61v1291l-600 -1289z" />
    <glyph glyph-name="fi" unicode="fi" horiz-adv-x="1363" 
d="M856 0v786h-299v-786h-432v786h-133v295h133v80q0 210 116 311t316 101q111 0 213 -29l-12 -291q-58 15 -99 15q-52 0 -77 -31.5t-25 -112.5v-43h731v-1081h-432zM1311 1423q0 -113 -63.5 -176t-178.5 -63q-112 0 -175 63t-63 176q0 112 62.5 173t175.5 61q116 0 179 -61
t63 -173z" />
    <glyph glyph-name="fl" unicode="fl" horiz-adv-x="1363" 
d="M856 0v1546h432v-1546h-432zM758 1253q-58 15 -99 15q-52 0 -77 -31.5t-25 -112.5v-43h223v-295h-223v-786h-432v786h-133v295h133v80q0 210 116 311t316 101q111 0 213 -29z" />
    <glyph glyph-name="f_f" unicode="ff" horiz-adv-x="1556" 
d="M125 1081v80q0 210 116 311t316 101q76 0 150.5 -15t107.5 -30l-16 -277q-81 23 -121 23q-62 0 -91.5 -34t-29.5 -116v-43h297v80q0 107 35.5 187.5t100 129t148 72t185.5 23.5q92 0 168.5 -14.5t110.5 -30.5l-15 -277q-79 27 -137 27q-41 0 -67 -5t-50 -21.5t-35.5 -51
t-11.5 -88.5v-31h273v-293h-273v-788h-432v788h-297v-788h-432v788h-133v293h133z" />
    <glyph glyph-name="f_k" unicode="fk" horiz-adv-x="2004" 
d="M1540 1081h475l-344 -387l371 -694h-479l-228 436l-47 -45v-391h-432v1546h432v-760zM758 1253q-58 15 -99 15q-52 0 -77 -31.5t-25 -112.5v-43h223v-295h-223v-786h-432v786h-133v295h133v80q0 210 116 311t316 101q111 0 213 -29z" />
    <glyph glyph-name="f_b" unicode="fb" horiz-adv-x="2017" 
d="M1280 1546v-561q108 119 285 119q84 0 154.5 -29.5t127.5 -91.5t89 -169t32 -251q0 -588 -444 -588q-176 0 -275 129l-12 -2l-20 -102h-361v1546h424zM1286 340q46 -37 103 -37q60 0 92 55t32 187q0 36 -1.5 62t-9 59.5t-21 54.5t-39 36t-60.5 15q-21 0 -49 -10t-47 -27
v-395zM758 1253q-58 15 -99 15q-52 0 -77 -31.5t-25 -112.5v-43h223v-295h-223v-786h-432v786h-133v295h133v80q0 210 116 311t316 101q111 0 213 -29z" />
    <glyph glyph-name="f_h" unicode="fh" horiz-adv-x="1984" 
d="M1485 0v666q0 61 -23 84.5t-65 23.5q-66 0 -109 -43v-731h-432v1546h426v-563q108 121 293 121q177 0 259.5 -87.5t82.5 -273.5v-743h-432zM758 1253q-58 15 -99 15q-52 0 -77 -31.5t-25 -112.5v-43h223v-295h-223v-786h-432v786h-133v295h133v80q0 210 116 311t316 101
q111 0 213 -29z" />
    <glyph glyph-name="f_t" unicode="ft" horiz-adv-x="1617" 
d="M758 1253q-58 15 -99 15q-52 0 -77 -31.5t-25 -112.5v-43h299v324l432 53v-377h275v-295h-275v-376q0 -60 23.5 -87.5t77.5 -27.5q69 0 167 45l54 -274q-52 -33 -152 -62t-215 -29q-193 0 -290 93.5t-97 293.5v424h-299v-786h-432v786h-133v295h133v80q0 210 116 311
t316 101q111 0 213 -29z" />
    <glyph glyph-name="f_j" unicode="fj" horiz-adv-x="1361" 
d="M758 1253q-58 15 -99 15q-52 0 -77 -31.5t-25 -112.5v-43h731v-1116q0 -111 -35.5 -194t-99.5 -132t-145.5 -72.5t-182.5 -23.5q-106 0 -186 22t-117 50l23 285q87 -45 182 -45q58 0 93.5 31t35.5 118v782h-299v-786h-432v786h-133v295h133v80q0 210 116 311t316 101
q111 0 213 -29zM1311 1419q0 -113 -63.5 -176t-178.5 -63q-112 0 -175 63t-63 176q0 112 62.5 173t175.5 61q116 0 179 -61t63 -173z" />
    <glyph glyph-name="f_f_j" unicode="ffj" horiz-adv-x="2093" 
d="M1554 -457q-106 0 -186 22t-117 50l23 285q87 -45 182 -45q58 0 93.5 31t35.5 118v782h-299v-786h-432v786h-297v-786h-432v788h-133v293h133v80q0 210 116 311t316 101q76 0 150.5 -15t107.5 -30l-16 -277q-81 23 -121 23q-62 0 -91.5 -34t-29.5 -116v-43h297v80
q0 210 116 311t316 101q112 0 213 -29l-12 -291q-58 15 -98 15q-53 0 -78 -31.5t-25 -112.5v-43h731v-1116q0 -111 -35.5 -194t-99.5 -132t-145.5 -72.5t-182.5 -23.5zM2040 1419q0 -113 -63.5 -176t-178.5 -63q-112 0 -174.5 63t-62.5 176q0 112 62 173t175 61
q116 0 179 -61t63 -173z" />
    <glyph glyph-name="f_f_i" unicode="ffi" horiz-adv-x="2095" 
d="M1587 0v786h-299v-786h-432v788h-299v-788h-432v788h-133v293h133v80q0 210 116 311t316 101q76 0 150.5 -15t107.5 -30l-16 -277q-81 23 -121 23q-62 0 -91.5 -34t-29.5 -116v-43h299v80q0 210 116 311t316 101q112 0 213 -29l-12 -291q-58 15 -98 15q-53 0 -78 -31.5
t-25 -112.5v-43h731v-1081h-432zM2042 1423q0 -113 -63.5 -176t-178.5 -63q-112 0 -174.5 63t-62.5 176q0 112 62 173t175 61q116 0 179 -61t63 -173z" />
    <glyph glyph-name="f_f_l" unicode="ffl" horiz-adv-x="2095" 
d="M1489 1253q-58 15 -98 15q-53 0 -78 -31.5t-25 -112.5v-43h223v-295h-223v-786h-432v788h-299v-788h-432v788h-133v293h133v80q0 210 116 311t316 101q76 0 150.5 -15t107.5 -30l-16 -277q-81 23 -121 23q-62 0 -91.5 -34t-29.5 -116v-43h299v80q0 210 116 311t316 101
q112 0 213 -29zM1587 0v1546h432v-1546h-432z" />
    <glyph glyph-name="f_f_k" unicode="ffk" horiz-adv-x="2736" 
d="M1489 1253q-58 15 -98 15q-53 0 -78 -31.5t-25 -112.5v-43h223v-295h-223v-786h-432v788h-299v-788h-432v788h-133v293h133v80q0 210 116 311t316 101q76 0 150.5 -15t107.5 -30l-16 -277q-81 23 -121 23q-62 0 -91.5 -34t-29.5 -116v-43h299v80q0 210 116 311t316 101
q112 0 213 -29zM2271 1081h475l-344 -387l371 -694h-479l-228 436l-47 -45v-391h-432v1546h432v-760z" />
    <glyph glyph-name="f_f_b" unicode="ffb" horiz-adv-x="2750" 
d="M1491 1253q-58 15 -98 15q-53 0 -78 -31.5t-25 -112.5v-43h223v-295h-223v-786h-432v788h-301v-788h-432v788h-133v293h133v80q0 210 116 311t316 101q76 0 150.5 -15t107.5 -30l-16 -277q-81 23 -121 23q-62 0 -91.5 -34t-29.5 -116v-43h301v80q0 210 116 311t316 101
q112 0 213 -29zM2013 1546v-561q108 119 285 119q84 0 154.5 -29.5t127.5 -91.5t89 -169t32 -251q0 -588 -444 -588q-176 0 -275 129l-12 -2l-20 -102h-361v1546h424zM2019 340q46 -37 103 -37q60 0 92.5 55t32.5 187q0 36 -1.5 62t-9 59.5t-21 54.5t-39 36t-60.5 15
q-21 0 -49.5 -10t-47.5 -27v-395z" />
    <glyph glyph-name="f_f_h" unicode="ffh" horiz-adv-x="2715" 
d="M1489 1253q-58 15 -98 15q-53 0 -78 -31.5t-25 -112.5v-43h223v-295h-223v-786h-432v788h-299v-788h-432v788h-133v293h133v80q0 210 116 311t316 101q76 0 150.5 -15t107.5 -30l-16 -277q-81 23 -121 23q-62 0 -91.5 -34t-29.5 -116v-43h299v80q0 210 116 311t316 101
q112 0 213 -29zM2216 0v666q0 61 -23 84.5t-65 23.5q-66 0 -109 -43v-731h-432v1546h426v-563q108 121 293 121q177 0 259.5 -87.5t82.5 -273.5v-743h-432z" />
    <glyph glyph-name="f_f_t" unicode="fft" horiz-adv-x="2351" 
d="M1491 1253q-58 15 -98 15q-53 0 -78 -31.5t-25 -112.5v-43h299v324l432 53v-377h275v-295h-275v-376q0 -60 23.5 -87.5t77.5 -27.5q70 0 168 45l53 -274q-52 -33 -152 -62t-215 -29q-193 0 -290 93.5t-97 293.5v424h-299v-786h-432v788h-301v-788h-432v788h-133v293h133
v80q0 210 116 311t316 101q76 0 150.5 -15t107.5 -30l-16 -277q-81 23 -121 23q-62 0 -91.5 -34t-29.5 -116v-43h301v80q0 210 116 311t316 101q112 0 213 -29z" />
    <glyph glyph-name="f_iacute" unicode="f&#xed;" horiz-adv-x="1363" 
d="M856 0v788h-299v-788h-432v788h-133v293h133v80q0 210 116 311t316 101q109 0 211 -29l-14 -291q-58 15 -95 15q-52 0 -77 -31.5t-25 -112.5v-43h731v-1081h-432zM942 1184l107 329h438l-266 -342z" />
    <glyph glyph-name="idieresis_idieresis" unicode="&#xef;&#xef;" horiz-adv-x="1046" 
d="M6 1182q-98 0 -157.5 56.5t-59.5 154.5q0 101 59 156t158 55t157 -55t58 -156q0 -99 -58.5 -155t-156.5 -56zM520 1182q-98 0 -157.5 56.5t-59.5 154.5q0 101 59 156t158 55t157 -55t58 -156q0 -99 -58.5 -155t-156.5 -56zM1044 1182q-96 0 -156.5 56.5t-60.5 154.5
q0 100 60 155.5t157 55.5q100 0 158 -55t58 -156q0 -99 -58.5 -155t-157.5 -56zM14 0v1081h432v-1081h-432zM604 0v1081h432v-1081h-432z" />
    <glyph glyph-name="t_t" unicode="tt" horiz-adv-x="1656" 
d="M1649 66q-52 -33 -152 -62t-215 -29q-191 0 -289 93.5t-98 293.5v426h-315v-378q0 -64 17.5 -90.5t68.5 -26.5q53 0 110 24l58 -278q-140 -64 -299 -64q-191 0 -289.5 94t-98.5 293v426h-155v293h155v324l433 53v-377h315v324l432 53v-377h277v-293h-277v-378
q0 -61 23 -88t77 -27q67 0 170 45z" />
    <glyph glyph-name=".notdef" 
d="M205 1483h758v-1483h-758v1483zM266 1421v-1290l600 1290h-600zM901 61v1291l-600 -1289z" />
    <glyph glyph-name=".null" horiz-adv-x="0" 
 />
    <glyph glyph-name="nonmarkingreturn" horiz-adv-x="682" 
 />
    <glyph glyph-name="CR" unicode="&#xd;" horiz-adv-x="1024" 
 />
    <glyph glyph-name="space" unicode=" " horiz-adv-x="327" 
 />
    <glyph glyph-name="exclam" unicode="!" horiz-adv-x="645" 
d="M94 1483h463l-43 -1061h-379zM551 168q0 -93 -57 -143t-170 -50q-118 0 -174 48t-56 145q0 197 230 197q114 0 170.5 -51t56.5 -146z" />
    <glyph glyph-name="quotedbl" unicode="&#x22;" horiz-adv-x="964" 
d="M61 1483h369v-531h-369v531zM535 1483h368v-531h-368v531z" />
    <glyph glyph-name="numbersign" unicode="#" horiz-adv-x="1243" 
d="M608 274h-106l-43 -274h-279l43 274h-172l58 281h157l25 160h-174l55 280h160l41 285h278l-41 -285h107l41 285h278l-41 -285h179l-54 -280h-166l-24 -160h180l-55 -281h-168l-43 -274h-279zM569 715l-24 -160h106l25 160h-107z" />
    <glyph glyph-name="dollar" unicode="$" 
d="M580 1153q-52 0 -85.5 -25.5t-33.5 -68.5q0 -27 12 -48.5t28.5 -36t54.5 -30t68 -25t91 -26.5q49 -13 83 -23.5t82.5 -30t82 -41t70 -55t59 -73t37 -94t14.5 -119.5q0 -102 -35 -186t-96 -140.5t-135.5 -92.5t-161.5 -54v-156h-365v158q-65 16 -118.5 42t-106 73
t-87 125.5t-44.5 183.5l368 53q9 -86 50 -139q42 -54 151 -54q75 0 117.5 31t42.5 86q0 61 -57 94t-203 74q-50 14 -85.5 25t-83.5 31.5t-81.5 42.5t-69 56.5t-57 74.5t-35.5 95.5t-14 120.5q0 168 98 269q99 105 242 151v201h364v-182q57 -9 105.5 -26.5t95.5 -49t80 -74.5
t54 -107.5t22 -144.5l-379 -39q-8 86 -38 120t-101 34z" />
    <glyph glyph-name="percent" unicode="%" horiz-adv-x="1763" 
d="M414 766q-98 0 -169.5 27.5t-112.5 77.5t-60 113t-19 142q0 383 377 383q188 0 274.5 -91.5t86.5 -264.5q0 -183 -95 -285t-282 -102zM1137 1483h370l-895 -1506h-370zM1335 -25q-100 0 -172 27.5t-112.5 78t-59 113.5t-18.5 142q0 383 379 383q188 0 273 -92t85 -265
q0 -183 -95 -285t-280 -102zM1346 188q30 0 45.5 35.5t15.5 130.5q0 87 -16 118.5t-48 31.5q-29 0 -46 -31t-17 -119q0 -94 17 -130t49 -36zM426 979q30 0 45.5 35.5t15.5 130.5q0 87 -15.5 118t-47.5 31q-30 0 -47 -30.5t-17 -118.5q0 -94 17 -130t49 -36z" />
    <glyph glyph-name="ampersand" unicode="&#x26;" horiz-adv-x="1626" 
d="M1227 1137q0 -52 -11.5 -95t-44 -93.5t-101 -99.5t-171.5 -93q26 -34 57 -70t72 -81.5t62 -69.5q27 87 16 227h381q14 -225 -119 -418q59 -16 115 -16q23 0 59 4l33 -320q-99 -24 -191 -24q-198 0 -335 88q-60 -45 -171 -73t-257 -28q-143 0 -254 35t-179 96.5
t-102.5 139t-34.5 166.5q0 151 76.5 253t243.5 158q-64 104 -64 209q0 99 39.5 177.5t108.5 129t161 77t199 26.5q87 0 160.5 -18t130.5 -54t89 -95.5t32 -137.5zM512 573q-37 -58 -37 -120q0 -87 56.5 -144t152.5 -57q58 0 100 12q-131 116 -272 309zM725 1108
q0 -48 49 -133q42 21 72.5 56t30.5 81q0 76 -74 76q-32 0 -55 -20.5t-23 -59.5z" />
    <glyph glyph-name="quotesingle" unicode="'" horiz-adv-x="491" 
d="M61 1483h369v-531h-369v531z" />
    <glyph glyph-name="parenleft" unicode="(" horiz-adv-x="843" 
d="M371 -313q-61 83 -113 175t-98 204.5t-72.5 243.5t-26.5 263q0 260 85.5 475t250.5 435h447q-72 -98 -121.5 -181.5t-98 -195t-73.5 -242.5t-25 -280q0 -113 19.5 -223.5t45 -193.5t71.5 -180t78.5 -154.5t86.5 -145.5h-456z" />
    <glyph glyph-name="parenright" unicode=")" horiz-adv-x="843" 
d="M473 1481q84 -111 149.5 -238t112.5 -300.5t47 -348.5q0 -259 -85.5 -473t-250.5 -436h-446q56 79 96.5 142.5t85 153t72 175t45.5 197t18 231.5q0 113 -18.5 223t-45.5 195.5t-70.5 178.5t-79.5 156t-87 144h457z" />
    <glyph glyph-name="asterisk" unicode="*" horiz-adv-x="987" 
d="M823 1372l60 -201l-193 -100l131 -199l-164 -124l-180 172l-178 -179l-166 127l129 203l-196 98l61 201l217 -51l31 227h209l28 -227z" />
    <glyph glyph-name="plus" unicode="+" 
d="M422 508h-246v313h246v266h319v-266h248v-313h-248v-275h-319v275z" />
    <glyph glyph-name="comma" unicode="," horiz-adv-x="643" 
d="M602 322l-229 -617l-353 29l144 588h438z" />
    <glyph glyph-name="hyphen" unicode="-" horiz-adv-x="634" 
d="M41 762h555v-340h-555v340z" />
    <glyph glyph-name="period" unicode="." horiz-adv-x="606" 
d="M545 195q0 -220 -240 -220q-244 0 -244 220q0 223 244 223q240 0 240 -223z" />
    <glyph glyph-name="slash" unicode="/" horiz-adv-x="1038" 
d="M598 1546h393l-573 -1734h-395z" />
    <glyph glyph-name="zero" unicode="0" horiz-adv-x="1245" 
d="M614 -25q-309 0 -440 182.5t-131 594.5q0 404 141 579q141 178 451 178q159 0 267 -42.5t175 -135.5t96 -231.5t29 -339.5q0 -416 -137 -600.5t-451 -184.5zM625 287q44 0 67.5 35t36 136.5t12.5 291.5q0 186 -11.5 282t-34 129t-66.5 33q-43 0 -67.5 -30.5t-40 -130
t-15.5 -281.5q0 -189 13 -290.5t37.5 -138t68.5 -36.5z" />
    <glyph glyph-name="one" unicode="1" horiz-adv-x="964" 
d="M375 1024q-43 -21 -149.5 -38t-164.5 -17l-14 344q138 11 256 53.5t189 116.5h317v-1483h-434v1024z" />
    <glyph glyph-name="two" unicode="2" horiz-adv-x="1150" 
d="M575 1509q270 0 383 -110q117 -108 117 -285q0 -75 -16 -136.5t-58 -128.5t-98.5 -131.5t-152.5 -160.5l-183 -184v-13h531v-360h-1032v356l288 328q20 23 58 65.5t55.5 62t46.5 54t42 53t31 46t26 46.5t14 41.5t6 43.5q0 90 -90 90q-58 0 -90.5 -42.5t-42.5 -139.5
l-392 61q11 114 58 200.5t122 139t169.5 78.5t207.5 26z" />
    <glyph glyph-name="three" unicode="3" horiz-adv-x="1165" 
d="M397 457q10 -88 44.5 -125t99.5 -37q64 0 100.5 38.5t36.5 115.5q0 83 -37.5 118t-130.5 35h-160v301h96q211 0 211 170q0 117 -104 117q-60 0 -90.5 -38.5t-44.5 -121.5l-383 68q21 113 69 193.5t121.5 127.5t162.5 68.5t202 21.5q234 0 361.5 -94.5t127.5 -275.5
q0 -117 -76.5 -206t-189.5 -136v-11q153 -39 228 -126t75 -236q0 -209 -157 -329t-416 -120q-478 0 -531 406z" />
    <glyph glyph-name="four" unicode="4" horiz-adv-x="1312" 
d="M709 299h-643v295l530 889h530v-850h158v-334h-158v-299h-417v299zM709 1118l-287 -485h287v485z" />
    <glyph glyph-name="five" unicode="5" horiz-adv-x="1183" 
d="M1030 1483v-353h-543l-30 -280q112 98 276 98q180 0 280.5 -115t100.5 -337q0 -125 -45.5 -225t-124.5 -164t-182.5 -98t-222.5 -34q-78 0 -146 12.5t-132 42.5t-111.5 76t-80.5 118.5t-44 164.5l366 70q11 -164 154 -164q68 0 108.5 48.5t40.5 135.5q0 44 -8.5 75
t-20 46.5t-30.5 24.5t-32 10.5t-32 1.5q-88 0 -170 -86l-276 108l53 824h852z" />
    <glyph glyph-name="six" unicode="6" horiz-adv-x="1208" 
d="M786 1051q-6 85 -36 120t-91 35q-38 0 -67.5 -16.5t-55 -55.5t-40 -114t-15.5 -182q118 77 275 77q64 0 122 -13.5t111 -46t91.5 -80.5t61.5 -121t23 -165q0 -109 -29 -196.5t-79 -146t-120.5 -97.5t-150 -56.5t-170.5 -17.5q-127 0 -223.5 37t-158 100.5t-99.5 159
t-53.5 202.5t-15.5 241q0 116 16.5 221t60 212.5t111.5 185t180 126.5t256 49q70 0 127.5 -9t115 -33.5t100 -64.5t76.5 -105t52 -152zM498 580q0 -66 6 -116.5t20 -91.5t39.5 -63t61.5 -22q34 0 56 14t32.5 39.5t14 51t3.5 59.5q0 88 -26.5 127.5t-88.5 39.5
q-65 0 -118 -38z" />
    <glyph glyph-name="seven" unicode="7" horiz-adv-x="1124" 
d="M621 1130h-568v353h1014v-316l-528 -1169h-455z" />
    <glyph glyph-name="eight" unicode="8" horiz-adv-x="1232" 
d="M942 815q144 -68 204 -157t60 -222q0 -92 -42.5 -175t-120.5 -147t-197 -101.5t-262 -37.5q-147 0 -260 34.5t-179 93t-98.5 128.5t-32.5 148q0 123 63 210.5t212 145.5q-213 109 -213 340q0 194 151 314t408 120q254 0 388 -100t134 -264q0 -80 -27.5 -142t-71.5 -103.5
t-116 -84.5zM520 592q-88 -80 -88 -172q0 -67 39.5 -108.5t120.5 -41.5q66 0 107.5 37.5t41.5 98.5q0 29 -10.5 52.5t-27 40.5t-47.5 34t-59.5 29t-76.5 30zM684 950q82 71 82 168q0 49 -31.5 80t-85.5 31q-55 0 -87 -29.5t-32 -75.5q0 -48 32 -88t122 -86z" />
    <glyph glyph-name="nine" unicode="9" horiz-adv-x="1206" 
d="M410 467q12 -84 44 -131t101 -47q81 0 129.5 90t48.5 268q-100 -69 -278 -69q-83 0 -154 22.5t-131.5 70t-95.5 133.5t-35 202q0 105 31 190.5t84.5 143t127 96.5t155.5 56t173 17q121 0 213.5 -36t153 -99.5t98.5 -158t54 -203t16 -242.5q0 -78 -6.5 -149.5t-24 -153.5
t-45.5 -150.5t-75 -133t-109 -109.5t-150.5 -72t-195.5 -27q-437 0 -506 379zM709 897q-2 66 -5.5 110t-11.5 83.5t-21 62t-34 35t-51 12.5q-33 0 -55.5 -13.5t-33.5 -38.5t-15.5 -52t-4.5 -62q0 -170 119 -170q56 0 113 33z" />
    <glyph glyph-name="colon" unicode=":" horiz-adv-x="647" 
d="M565 195q0 -220 -239 -220q-244 0 -244 220q0 223 244 223q239 0 239 -223zM565 821q0 -219 -239 -219q-244 0 -244 219q0 223 244 223q239 0 239 -223z" />
    <glyph glyph-name="semicolon" unicode=";" horiz-adv-x="690" 
d="M592 322l-230 -617l-352 29l144 588h438zM629 821q0 -219 -240 -219q-244 0 -244 219q0 223 244 223q240 0 240 -223z" />
    <glyph glyph-name="less" unicode="&#x3c;" 
d="M113 788l823 265v-332l-461 -119l461 -129v-321l-823 266v370z" />
    <glyph glyph-name="equal" unicode="=" 
d="M174 516h815v-311h-815v311zM174 948h815v-311h-815v311z" />
    <glyph glyph-name="greater" unicode="&#x3e;" 
d="M211 1053l823 -265v-372l-823 -266v325l461 127l-461 123v328z" />
    <glyph glyph-name="question" unicode="?" horiz-adv-x="1198" 
d="M332 805q57 4 107 13t102.5 28.5t89.5 47t60.5 71.5t23.5 100q0 125 -111 125q-74 0 -106.5 -50t-40.5 -145l-426 62q18 157 98.5 261.5t203 151t285.5 46.5q89 0 167 -14.5t151 -49t125.5 -87t83.5 -134t31 -184.5q0 -375 -410 -490v-135h-434v383zM772 168
q0 -93 -56 -143t-171 -50q-230 0 -230 193q0 95 57.5 146t172.5 51q114 0 170.5 -51t56.5 -146z" />
    <glyph glyph-name="at" unicode="@" horiz-adv-x="1775" 
d="M1290 -377q-177 -51 -399 -51q-137 0 -259 30t-225.5 94t-178.5 156.5t-117.5 224.5t-42.5 292q0 146 40 275.5t117 233t183.5 178.5t245 115.5t296.5 40.5q345 0 551.5 -193.5t206.5 -508.5q0 -136 -31.5 -240t-89.5 -169t-134.5 -97.5t-170.5 -32.5q-95 0 -167.5 33
t-98.5 80q-79 -100 -209 -100t-212.5 104.5t-82.5 278.5q0 194 90 320t242 126q108 0 164 -70l22 58h205v-553q0 -64 72 -64q135 0 135 322q0 76 -15 141.5t-51.5 127.5t-93 105.5t-145.5 70t-203 26.5q-99 0 -182.5 -20t-143.5 -54.5t-107 -82t-77 -100t-49.5 -112.5
t-27 -114.5t-7.5 -110.5q0 -152 41.5 -264.5t119.5 -180.5t182 -100.5t237 -32.5q125 0 319 48zM989 592q-10 13 -34 21t-44 8q-135 0 -135 -213q0 -224 115 -224q25 0 43 7.5t55 31.5v369z" />
    <glyph glyph-name="A" unicode="A" horiz-adv-x="1484" 
d="M1516 0h-484l-98 289h-420l-82 -289h-463l475 1483h539zM705 1073l-130 -450h273l-131 450h-12z" />
    <glyph glyph-name="B" unicode="B" horiz-adv-x="1323" 
d="M104 1483h660q127 0 218 -27t141.5 -78t73 -114t22.5 -144q0 -132 -75.5 -219t-187.5 -125v-6q334 -36 334 -356q0 -111 -43 -192.5t-121.5 -129t-179 -70t-225.5 -22.5h-617v1483zM621 303q103 0 149.5 31.5t46.5 118.5q0 50 -13 80.5t-41.5 43.5t-53 16t-68.5 3h-92
v-293h72zM569 895q112 0 167 30t55 119q0 28 -7 49.5t-16.5 35t-27 23t-30.5 14.5t-36 7t-35 2.5t-35 0.5h-55v-281h20z" />
    <glyph glyph-name="C" unicode="C" horiz-adv-x="1429" 
d="M768 -25q-191 0 -329.5 51t-223 150.5t-124.5 236.5t-40 318q0 169 45.5 308.5t134.5 245.5t232.5 165t329.5 59q134 0 243 -33t192.5 -99.5t130.5 -177t50 -257.5l-401 -39q-1 143 -57.5 202.5t-166.5 59.5q-134 0 -203 -100t-69 -317q0 -229 65.5 -329t208.5 -100
q61 0 104 18t67.5 53t37 69t21.5 82l393 -62q-11 -109 -55.5 -196.5t-108 -144t-145.5 -94t-164.5 -53.5t-167.5 -16z" />
    <glyph glyph-name="D" unicode="D" horiz-adv-x="1476" 
d="M104 1483h586q374 0 554.5 -188t180.5 -531q0 -173 -46 -311.5t-138.5 -240.5t-241 -157t-344.5 -55h-551v1483zM625 340q88 0 151 19.5t101.5 52.5t60.5 87.5t29.5 114t7.5 142.5q0 222 -70 306.5t-250 84.5h-106v-807h76z" />
    <glyph glyph-name="E" unicode="E" horiz-adv-x="1230" 
d="M1169 360v-360h-1065v1483h1014v-353h-569v-231h541v-338h-541v-201h620z" />
    <glyph glyph-name="F" unicode="F" horiz-adv-x="1144" 
d="M104 0v1483h1006v-353h-561v-256h512v-335h-512v-539h-445z" />
    <glyph glyph-name="G" unicode="G" horiz-adv-x="1517" 
d="M1079 164q-52 -95 -162.5 -142t-240.5 -47q-162 0 -284 55t-195.5 155t-109.5 232t-36 296q0 174 45 317t134.5 251t234 168t332.5 60q131 0 236.5 -29t190 -91t134.5 -167t59 -249l-411 -39q-2 35 -5.5 57.5t-17 59t-34.5 58.5t-61.5 39t-96.5 17q-149 0 -213 -105
t-64 -308q0 -60 2 -105.5t9 -93.5t19 -82.5t32.5 -66t49 -51t69 -31t91.5 -11.5q211 0 211 166v12h-145v287h590v-776h-320z" />
    <glyph glyph-name="H" unicode="H" horiz-adv-x="1511" 
d="M963 0v551h-414v-551h-445v1483h445v-565h414v565h444v-1483h-444z" />
    <glyph glyph-name="I" unicode="I" horiz-adv-x="653" 
d="M104 0v1483h445v-1483h-445z" />
    <glyph glyph-name="J" unicode="J" horiz-adv-x="1146" 
d="M1051 1483v-1030q0 -220 -138.5 -349t-386.5 -129q-86 0 -156 11.5t-138 43.5t-114.5 83.5t-76.5 136t-33 196.5l428 62q2 -33 3 -48.5t3.5 -41.5t6.5 -38t10.5 -28.5t16 -24t23 -13t31.5 -5.5q44 0 60 31t16 92v1051h445z" />
    <glyph glyph-name="K" unicode="K" horiz-adv-x="1437" 
d="M1030 1483h459l-500 -598l455 -885h-516l-258 547l-123 -137v-410h-443v1483h443l2 -572z" />
    <glyph glyph-name="L" unicode="L" horiz-adv-x="1198" 
d="M1153 360v-360h-1049v1483h445v-1123h604z" />
    <glyph glyph-name="M" unicode="M" horiz-adv-x="1910" 
d="M1395 0v1055h-15l-252 -1055h-372l-232 1059h-16v-1059h-404v1483h656l190 -920h17l186 920h653v-1483h-411z" />
    <glyph glyph-name="N" unicode="N" horiz-adv-x="1525" 
d="M506 868v-868h-402v1483h508l412 -885v885h397v-1483h-497z" />
    <glyph glyph-name="O" unicode="O" horiz-adv-x="1558" 
d="M768 -25q-190 0 -330.5 55t-224 157t-123 236.5t-39.5 305.5q0 167 47 307.5t138 247t236.5 166t332.5 59.5q150 0 270 -39t200 -106.5t133 -163.5t76 -205.5t23 -236.5q0 -182 -43.5 -324t-132.5 -245.5t-231 -158.5t-332 -55zM784 319q63 0 110 20t84 66.5t56 130
t19 203.5q0 228 -62 324t-196 96q-145 0 -215 -98t-70 -322q0 -159 32 -252.5t90 -130.5t152 -37z" />
    <glyph glyph-name="P" unicode="P" horiz-adv-x="1282" 
d="M104 0v1483h641q109 0 195.5 -27.5t141.5 -73t91 -108.5t51 -129t15 -139q0 -568 -594 -568h-98v-438h-443zM588 762q93 0 144.5 46.5t51.5 160.5q0 49 -12 85t-29 54.5t-43 29t-45.5 13t-44.5 2.5h-63v-391h41z" />
    <glyph glyph-name="Q" unicode="Q" horiz-adv-x="1558" 
d="M768 -25q-190 0 -330.5 55t-224 157t-123 236.5t-39.5 305.5q0 167 47 307.5t138 247t236.5 166t332.5 59.5q150 0 270 -39t200 -106.5t133 -163.5t76 -205.5t23 -236.5q0 -309 -153 -518l162 -160l-240 -213l-170 172q-158 -64 -338 -64zM895 741l121 -141l45 -96
q18 93 18 229q0 224 -73.5 325t-210.5 101q-145 0 -215 -98t-70 -322q0 -235 66.5 -335.5t207.5 -100.5q44 0 74 10l-190 209z" />
    <glyph glyph-name="R" unicode="R" horiz-adv-x="1349" 
d="M862 0l-246 524h-69v-524h-443v1483h650q134 0 233.5 -34t157 -95t85 -136t27.5 -165q0 -285 -227 -422l311 -631h-479zM596 844q205 0 205 166q0 143 -162 143h-92v-309h49z" />
    <glyph glyph-name="S" unicode="S" horiz-adv-x="1245" 
d="M614 1198q-141 0 -141 -100q0 -68 74 -103q95 -37 182 -59q45 -12 74 -19.5t74 -22.5t75 -28.5t69 -35.5t65 -45t53.5 -55.5t43 -69t26 -83.5t10.5 -100q0 -129 -51 -228.5t-138.5 -157.5t-194.5 -87t-229 -29q-56 0 -102.5 3t-110.5 14.5t-114.5 31.5t-103.5 57.5
t-89 88t-60.5 127.5t-27.5 172l393 53q6 -44 12.5 -74t22 -62.5t38.5 -51t62 -31t92 -12.5q175 0 175 125q0 23 -8 42t-29 34t-37 24.5t-54.5 21t-57.5 16.5t-68 17q-41 9 -67 15.5t-67 18t-68.5 23t-64 28t-61.5 35.5t-53 43.5t-46 55t-34 66t-23.5 80t-7.5 94.5
q0 93 30.5 172t84 135t127 95t159.5 58t181 19q89 0 161 -9t149 -37t129.5 -74.5t87.5 -128t38 -191.5l-401 -45q0 99 -42 136.5t-137 37.5z" />
    <glyph glyph-name="T" unicode="T" horiz-adv-x="1302" 
d="M432 1130h-426v353h1290v-353h-419v-1130h-445v1130z" />
    <glyph glyph-name="U" unicode="U" horiz-adv-x="1437" 
d="M723 319q34 0 60.5 4t46 15.5t33 23t22.5 34.5t14.5 42t8 54t3 62t0.5 73v856h441v-916q0 -156 -47.5 -271.5t-134.5 -185t-201.5 -102.5t-257.5 -33q-328 0 -478.5 144t-150.5 461v903h444v-848v-56.5t1.5 -50.5t4 -47.5t7 -40.5t12 -37t18 -28.5t25 -24.5t33.5 -16.5
t43 -11.5t53 -3z" />
    <glyph glyph-name="V" unicode="V" horiz-adv-x="1441" 
d="M-31 1483h504l258 -1055h19l270 1055h453l-449 -1483h-596z" />
    <glyph glyph-name="W" unicode="W" horiz-adv-x="2129" 
d="M1077 842h-12l-156 -842h-598l-311 1483h461l166 -1034h12l203 1034h465l217 -1030h16l141 1030h449l-322 -1483h-567z" />
    <glyph glyph-name="X" unicode="X" horiz-adv-x="1388" 
d="M1421 0h-516l-237 389l-226 -389h-475l469 743l-446 740h491l238 -422l237 422h455l-459 -744z" />
    <glyph glyph-name="Y" unicode="Y" horiz-adv-x="1323" 
d="M457 0v541l-518 942h483l256 -555h16l244 555h446l-483 -942l2 -541h-446z" />
    <glyph glyph-name="Z" unicode="Z" horiz-adv-x="1220" 
d="M1184 360v-360h-1143v315l612 815h-600v353h1106v-318l-590 -805h615z" />
    <glyph glyph-name="bracketleft" unicode="[" horiz-adv-x="747" 
d="M94 1483h584v-240h-162v-1296h162v-240h-584v1776z" />
    <glyph glyph-name="backslash" unicode="\" horiz-adv-x="1050" 
d="M59 1546h394l575 -1734h-395z" />
    <glyph glyph-name="bracketright" unicode="]" horiz-adv-x="747" 
d="M70 1483h583v-1776h-583v240h161v1296h-161v240z" />
    <glyph glyph-name="asciicircum" unicode="^" horiz-adv-x="1628" 
d="M815 1012l-215 -400h-403l403 748h436l408 -748h-408z" />
    <glyph glyph-name="underscore" unicode="_" horiz-adv-x="1024" 
d="M0 -72h1024v-299h-1024v299z" />
    <glyph glyph-name="grave" unicode="`" horiz-adv-x="1024" 
d="M567 1513l107 -329l-279 -13l-266 342h438z" />
    <glyph glyph-name="a" unicode="a" horiz-adv-x="1169" 
d="M1034 317q0 -44 13.5 -62.5t50.5 -18.5q22 0 63 12l8 -225q-33 -15 -113.5 -32.5t-133.5 -17.5q-112 0 -182.5 36t-98.5 120q-99 -154 -295 -154q-77 0 -136 19.5t-93.5 49t-56.5 69.5t-29.5 75.5t-7.5 73.5q0 67 18.5 120.5t49 91t77.5 66t95 45t111.5 27.5t117.5 16
t122 7v49q0 54 -12 94q-9 41 -76 41q-49 0 -72.5 -27.5t-41.5 -97.5l-355 62q13 80 45 141.5t89 109t148.5 72.5t215.5 25q479 0 479 -391v-396zM616 424q-24 0 -46.5 -3t-50.5 -12t-45 -29.5t-17 -49.5q0 -30 18 -52t53 -22q50 0 88 27v141z" />
    <glyph glyph-name="b" unicode="b" horiz-adv-x="1234" 
d="M74 1546h430v-557q104 115 280 115q66 0 124 -18t110 -58.5t89.5 -102t59 -154t21.5 -208.5q0 -588 -447 -588q-180 0 -282 129l-13 -2l-18 -102h-354v1546zM504 340q46 -37 102 -37q60 0 92.5 55t32.5 187q0 36 -1.5 62t-9 59.5t-20.5 54.5t-38 36t-60 15q-52 0 -98 -37
v-395z" />
    <glyph glyph-name="c" unicode="c" horiz-adv-x="1126" 
d="M584 -25q-265 0 -405 148t-140 393q0 277 151 432.5t428 155.5q220 0 346 -109.5t146 -318.5l-377 -55q-9 97 -30 138.5t-85 41.5q-66 0 -96 -54t-30 -190q0 -147 26.5 -209.5t102.5 -62.5q70 0 103 43t44 135l342 -64q-29 -212 -165 -318t-361 -106z" />
    <glyph glyph-name="d" unicode="d" horiz-adv-x="1236" 
d="M805 0l-25 100l-10 2q-89 -127 -283 -127q-203 0 -320.5 132.5t-117.5 406.5q0 127 27.5 229.5t72.5 168.5t105.5 110.5t123 63t128.5 18.5q77 0 129.5 -18t97.5 -60v520h428v-1546h-356zM733 752q-31 26 -78 26q-75 0 -112 -69.5t-37 -176.5q0 -104 34.5 -167.5
t108.5 -63.5q51 0 84 27v424z" />
    <glyph glyph-name="e" unicode="e" horiz-adv-x="1122" 
d="M596 -25q-121 0 -217 31t-159 83t-104.5 125t-59 152.5t-17.5 170.5q0 140 43 250t118 178.5t173 103.5t213 35q499 0 499 -522q0 -93 -4 -115h-587q0 -100 27 -143t100 -43q54 0 86.5 31.5t40.5 84.5l337 -84q-28 -152 -151 -245t-338 -93zM645 682q0 48 -6 78t-18 43.5
t-23 17.5t-29 4q-38 0 -56.5 -30.5t-18.5 -112.5h151z" />
    <glyph glyph-name="f" unicode="f" horiz-adv-x="829" 
d="M125 1081v80q0 107 35.5 187.5t100 129t148 72t185.5 23.5q92 0 169 -14.5t111 -30.5l-16 -277q-79 27 -137 27q-41 0 -67 -5t-50 -21.5t-35.5 -51t-11.5 -88.5v-31h272v-293h-272v-788h-432v788h-133v293h133z" />
    <glyph glyph-name="g" unicode="g" horiz-adv-x="1163" 
d="M571 1104q188 0 279 -47q15 80 66 136t133 56q33 0 77 -12v-250q-40 4 -82 -0.5t-63 -15.5q104 -107 104 -254q0 -179 -133 -278t-366 -99q-100 0 -197 20q-32 -32 -22 -59t53 -29l346 -18q381 -16 381 -324q0 -196 -151.5 -293.5t-428.5 -97.5q-290 0 -422.5 57
t-132.5 181q0 67 52.5 111.5t156.5 45.5v11q-194 57 -194 213q0 83 46 141t146 119q-151 103 -151 282q0 176 130.5 290t372.5 114zM705 717q0 57 -30.5 87t-84.5 30t-88.5 -30.5t-34.5 -90.5q0 -111 119 -111q51 0 85 30.5t34 84.5zM737 -160q0 26 -19 38t-75 13l-242 15
q-16 -16 -16 -47q0 -25 19 -42t54.5 -23.5t65 -8.5t70.5 -2q143 0 143 57z" />
    <glyph glyph-name="h" unicode="h" horiz-adv-x="1196" 
d="M698 0v666q0 61 -23 84.5t-65 23.5q-68 0 -108 -43v-731h-432v1546h426v-563q108 121 292 121q174 0 258 -88t84 -273v-743h-432z" />
    <glyph glyph-name="i" unicode="i" horiz-adv-x="585" 
d="M78 0v1081h432v-1081h-432zM535 1399q0 -113 -63.5 -176.5t-178.5 -63.5q-112 0 -175 63.5t-63 176.5q0 112 62.5 172.5t175.5 60.5q116 0 179 -60.5t63 -172.5z" />
    <glyph glyph-name="j" unicode="j" horiz-adv-x="585" 
d="M49 -457q-106 0 -186 22t-119 50l25 285q87 -45 180 -45q58 0 93.5 31t35.5 118v1077h432v-1116q0 -111 -35 -194t-99 -132t-145.5 -72.5t-181.5 -23.5zM532 1395q0 -113 -62 -176.5t-177 -63.5q-113 0 -176.5 63.5t-63.5 176.5q0 112 63.5 172.5t176.5 60.5
q115 0 177 -60t62 -173z" />
    <glyph glyph-name="k" unicode="k" horiz-adv-x="1222" 
d="M760 1081h473l-344 -387l371 -694h-480l-227 436l-47 -45v-391h-432v1546h432v-760z" />
    <glyph glyph-name="l" unicode="l" horiz-adv-x="585" 
d="M78 0v1546h432v-1546h-432z" />
    <glyph glyph-name="m" unicode="m" horiz-adv-x="1724" 
d="M70 0v1081h362l19 -90q121 113 286 113q204 0 283 -129q38 58 117 93.5t180 35.5q160 0 250 -88t90 -262v-754h-432v682q0 92 -76 92q-46 0 -72 -33v-741h-432v682q0 45 -20 68.5t-52 23.5q-46 0 -71 -29v-745h-432z" />
    <glyph glyph-name="n" unicode="n" horiz-adv-x="1196" 
d="M698 0v666q0 61 -23 84.5t-65 23.5q-68 0 -108 -43v-731h-432v1081h383l20 -100q45 54 123.5 88.5t181.5 34.5q183 0 267.5 -87.5t84.5 -273.5v-743h-432z" />
    <glyph glyph-name="o" unicode="o" horiz-adv-x="1222" 
d="M594 -25q-555 0 -555 560q0 268 144.5 418.5t439.5 150.5q150 0 260 -40.5t175 -115t95.5 -172.5t30.5 -221q0 -275 -145 -427.5t-445 -152.5zM610 262q67 0 95 61t28 222q0 154 -24.5 210t-92.5 56q-47 0 -73 -22.5t-38.5 -80.5t-12.5 -165q0 -163 23.5 -222t94.5 -59z
" />
    <glyph glyph-name="p" unicode="p" horiz-adv-x="1232" 
d="M438 1081l25 -108q61 71 143 101t162 30q91 0 164 -29.5t131 -91.5t89.5 -168.5t31.5 -251.5q0 -127 -22 -227.5t-60.5 -167.5t-93 -111t-116.5 -63t-134 -19q-91 0 -150.5 21t-105.5 67v-497h-428v1515h364zM502 342q12 -14 44.5 -26.5t55.5 -12.5q66 0 96.5 58.5
t30.5 183.5q0 123 -31 176t-94 53q-50 0 -102 -37v-395z" />
    <glyph glyph-name="q" unicode="q" horiz-adv-x="1239" 
d="M733 -434v504q-95 -95 -254 -95q-202 0 -316 132.5t-114 412.5q0 126 27.5 227.5t72.5 167t105.5 109t123.5 62t130 18.5q187 0 266 -133l43 110h344v-1515h-428zM733 752q-40 26 -84 26q-72 0 -107.5 -64.5t-35.5 -170.5q0 -238 143 -238q51 0 84 23v424z" />
    <glyph glyph-name="r" unicode="r" horiz-adv-x="866" 
d="M858 702q-220 9 -356 -84v-618h-432v1081h370l31 -184q20 38 46 70.5t65 65.5t93.5 52t117.5 19q19 0 65 -4v-398z" />
    <glyph glyph-name="s" unicode="s" horiz-adv-x="1056" 
d="M543 1104q177 0 297 -67t174 -197l-328 -117q-21 49 -64 82t-92 33q-75 0 -75 -54q0 -19 13 -32t42.5 -21.5t54 -13t69.5 -10.5q3 0 5 -0.5t5 -1t5 -0.5q44 -6 73.5 -11.5t73.5 -17.5t73.5 -26.5t63 -39.5t53 -56.5t33 -77t13.5 -101.5q0 -103 -44 -182t-119.5 -125.5
t-168 -69.5t-198.5 -23q-229 0 -344 74q-117 79 -146 182l338 134q23 -54 59.5 -88.5t106.5 -34.5q105 0 105 53q0 20 -13.5 34t-44 24t-55.5 15t-72 13q-45 7 -75 13t-74 19.5t-74.5 29t-64 42t-54 59t-34 79.5t-13.5 104q0 74 26.5 136.5t72.5 106.5t108.5 74.5t135.5 45
t153 14.5z" />
    <glyph glyph-name="t" unicode="t" horiz-adv-x="909" 
d="M901 66q-52 -33 -152 -62t-214 -29q-191 0 -289.5 94t-98.5 293v426h-155v293h155v324l433 53v-377h276v-293h-276v-378q0 -61 23 -88t77 -27q68 0 170 45z" />
    <glyph glyph-name="u" unicode="u" horiz-adv-x="1177" 
d="M496 1081v-665q0 -60 19.5 -84.5t59.5 -24.5q59 0 99 43v731h432v-1081h-369l-32 121q-40 -66 -118.5 -106t-183.5 -40q-166 0 -253 88t-87 265v753h433z" />
    <glyph glyph-name="v" unicode="v" horiz-adv-x="1163" 
d="M-29 1081h467l146 -684h12l147 684h449l-361 -1081h-507z" />
    <glyph glyph-name="w" unicode="w" horiz-adv-x="1777" 
d="M-29 1081h428l138 -651h6l145 651h412l151 -647h11l120 647h424l-311 -1081h-477l-127 573h-8l-101 -573h-512z" />
    <glyph glyph-name="x" unicode="x" horiz-adv-x="1169" 
d="M1178 0h-459l-154 256l-155 -256h-404l342 526l-356 555h465l155 -284l152 284h410l-338 -542z" />
    <glyph glyph-name="y" unicode="y" horiz-adv-x="1161" 
d="M432 1081l158 -661h10l148 661h446q-44 -125 -184.5 -534t-212.5 -608q-38 -110 -74 -179.5t-88 -121t-122.5 -73.5t-170.5 -22q-63 0 -144.5 15.5t-121.5 33.5l26 295q97 -32 154 -32q48 0 73 18t40 53l18 41l-420 1114h465z" />
    <glyph glyph-name="z" unicode="z" horiz-adv-x="968" 
d="M936 319v-319h-887v281l391 507h-391v293h850v-280l-371 -482h408z" />
    <glyph glyph-name="braceleft" unicode="{" horiz-adv-x="755" 
d="M481 -297q-176 0 -265 70t-89 225q0 50 15.5 167.5t15.5 205.5q0 123 -109 123h-51v231h53q61 0 84 32.5t23 90.5q0 89 -15.5 201.5t-15.5 164.5q0 155 88 225t266 70h201v-264h-10q-46 0 -60 -21t-14 -65q0 -61 18.5 -173t18.5 -169q0 -84 -44 -129t-149 -82
q104 -34 148.5 -78t44.5 -127q0 -57 -18.5 -172.5t-18.5 -177.5q0 -41 14.5 -60.5t55.5 -19.5h14v-268h-201z" />
    <glyph glyph-name="bar" unicode="|" horiz-adv-x="573" 
d="M90 1546h393v-1839h-393v1839z" />
    <glyph glyph-name="braceright" unicode="}" horiz-adv-x="755" 
d="M274 1509q176 0 265.5 -70t89.5 -225q0 -50 -15.5 -167t-15.5 -205q0 -123 109 -123h51v-232h-53q-107 0 -107 -122q0 -89 15.5 -200.5t15.5 -166.5q0 -152 -89 -223.5t-266 -71.5h-200v264h10q46 0 60 21t14 65q0 61 -18.5 173t-18.5 169q0 84 43.5 129t148.5 82
q-106 37 -149 80t-43 125q0 56 18.5 171.5t18.5 178.5q0 42 -13 61t-57 19h-14v268h200z" />
    <glyph glyph-name="asciitilde" unicode="~" horiz-adv-x="1398" 
d="M442 977q74 0 275.5 -42t240.5 -42q28 0 35.5 17t7.5 59l224 -13q4 -51 3.5 -99.5t-16 -93t-40.5 -78t-69.5 -53.5t-103.5 -20q-84 0 -287 43t-233 43q-33 0 -45 -19t-2 -65l-244 9q-8 74 1.5 135.5t37 111.5t82.5 78.5t133 28.5z" />
    <glyph glyph-name="uni00A0" unicode="&#xa0;" horiz-adv-x="274" 
 />
    <glyph glyph-name="exclamdown" unicode="&#xa1;" horiz-adv-x="718" 
d="M584 -403h-463l43 1060h379zM127 911q0 93 57 143t170 50q118 0 174 -48t56 -145q0 -196 -230 -196q-112 0 -169.5 50.5t-57.5 145.5z" />
    <glyph glyph-name="cent" unicode="&#xa2;" horiz-adv-x="1144" 
d="M797 1257q135 -35 215.5 -131t97.5 -245l-383 -52q-8 85 -29 121.5t-75 36.5q-43 0 -67.5 -15.5t-40 -65.5t-15.5 -142q0 -139 32 -191.5t99 -52.5q59 0 88.5 36.5t40.5 119.5l352 -58q-20 -152 -109 -246t-235 -130v-242h-365v242q-167 46 -255.5 173.5t-88.5 309.5
q0 207 95.5 342.5t275.5 185.5v224h367v-220z" />
    <glyph glyph-name="sterling" unicode="&#xa3;" horiz-adv-x="1280" 
d="M162 313q53 45 79.5 91.5t26.5 111.5q0 52 -20 105h-211v294h127q-1 2 -14 25t-17.5 32t-15 32t-15 39.5t-8.5 41t-4 48.5q0 167 148.5 271.5t408.5 104.5q220 0 357 -88q135 -84 170 -305l-392 -67q-6 28 -11 45.5t-16 42t-24.5 38.5t-36 24.5t-51.5 10.5
q-56 0 -84.5 -28.5t-28.5 -79.5q0 -43 15.5 -82.5t50.5 -104.5h350v-294h-282q64 -164 -91 -308h93q91 0 140.5 18.5t70.5 54.5t32 106l348 -56q-12 -226 -138.5 -331t-399.5 -105h-701v313h144z" />
    <glyph glyph-name="currency" unicode="&#xa4;" 
d="M748 145q-96 -47 -218 -47q-114 0 -221 49l-170 -174l-213 215l180 181q-36 99 -36 200q0 109 39 191l-177 176l218 217l165 -166q103 53 228 53q131 0 223 -47l160 158l209 -213l-166 -166q32 -79 32 -194q0 -110 -43 -211l179 -177l-219 -217zM539 389q69 0 107 50.5
t38 129.5q0 176 -149 176q-70 0 -108 -48t-38 -128t38 -130t112 -50z" />
    <glyph glyph-name="yen" unicode="&#xa5;" horiz-adv-x="1267" 
d="M1110 819v-330h-256v-489h-432v489h-248v330h139l-311 664h461l182 -490h12l177 490h432l-314 -664h158z" />
    <glyph glyph-name="brokenbar" unicode="&#xa6;" horiz-adv-x="573" 
d="M90 502h393v-795h-393v795zM90 1546h393v-682h-393v682z" />
    <glyph glyph-name="section" unicode="&#xa7;" horiz-adv-x="1206" 
d="M57 446q0 104 46.5 172.5t144.5 133.5q-107 114 -107 276q0 126 69.5 223.5t186 149t258.5 51.5q434 0 475 -383l-360 -39q-2 77 -31.5 114.5t-95.5 37.5q-43 0 -73.5 -22.5t-30.5 -69.5q0 -37 26 -66t68 -46t96 -36t110 -36t110 -45.5t96 -64t68 -93.5t26 -132
q0 -185 -176 -313q110 -110 110 -272q0 -192 -144.5 -308t-373.5 -116q-431 0 -477 383l362 39q2 -77 31 -114.5t94 -37.5q44 0 75.5 22t31.5 68q0 39 -26.5 68t-69.5 45.5t-98.5 34.5t-113 33.5t-113 43.5t-98.5 64t-69.5 96.5t-26.5 138.5zM442 633q-30 -35 -30 -68
t16.5 -53.5t69.5 -42.5q93 -37 229 -76q39 24 39 76q0 34 -23.5 50.5t-91.5 43.5q-28 12 -103 35t-106 35z" />
    <glyph glyph-name="dieresis" unicode="&#xa8;" horiz-adv-x="1024" 
d="M479 1405q0 -96 -64 -154.5t-169 -58.5q-107 0 -173.5 58.5t-66.5 154.5t66.5 154.5t173.5 58.5q105 0 169 -58.5t64 -154.5zM1016 1405q0 -96 -65 -154.5t-171 -58.5t-171.5 58.5t-65.5 154.5t65.5 154.5t171.5 58.5t171 -58.5t65 -154.5z" />
    <glyph glyph-name="copyright" unicode="&#xa9;" horiz-adv-x="1705" 
d="M1604 725q0 -223 -95 -393.5t-266 -263.5t-391 -93q-180 0 -324 54.5t-236.5 151.5t-141 227.5t-48.5 285.5q0 171 59.5 313t162 236t240 145.5t292.5 51.5q347 0 547.5 -194t200.5 -521zM856 182q247 0 385.5 141.5t138.5 389.5q0 249 -143.5 385.5t-380.5 136.5
q-229 0 -377.5 -144.5t-148.5 -394.5q0 -242 138 -378t388 -136zM1202 578q-10 -76 -47 -131.5t-88.5 -84.5t-102 -42t-100.5 -13q-96 0 -167 30t-113 84.5t-62 126t-20 159.5q0 178 98 287.5t274 109.5q128 0 221 -73t99 -210l-180 -16q-14 139 -150 139q-164 0 -164 -242
q0 -49 7 -87.5t24 -74t51 -54.5t84 -19q66 0 106.5 39t51.5 102z" />
    <glyph glyph-name="ordfeminine" unicode="&#xaa;" horiz-adv-x="851" 
d="M750 801q0 -29 8.5 -41t36.5 -12q22 0 43 8l6 -162q-25 -9 -85 -21t-100 -12q-82 0 -133 22.5t-73 80.5q-75 -103 -205 -103q-67 0 -115 19t-72 50t-34.5 62t-10.5 62q0 51 16 90t48 64t68 41.5t87.5 25.5t95 12.5t101.5 5.5q0 73 -8 91q-12 26 -47 26q-30 0 -44.5 -17.5
t-25.5 -62.5l-266 47q19 112 102.5 174t257.5 62q349 0 349 -262v-250zM434 852q-41 1 -64.5 -11.5t-25.5 -35.5q-3 -43 43 -43q10 0 19 2t17 4.5t11 3.5v80z" />
    <glyph glyph-name="guillemotleft" unicode="&#xab;" horiz-adv-x="1007" 
d="M35 522l182 314h332l-187 -304l173 -321h-328zM467 522l182 314h332l-186 -304l172 -321h-328z" />
    <glyph glyph-name="logicalnot" unicode="&#xac;" 
d="M680 506h-524v313h813v-508h-289v195z" />
    <glyph glyph-name="uni00AD" unicode="&#xad;" horiz-adv-x="636" 
d="M41 762h555v-340h-555v340z" />
    <glyph glyph-name="registered" unicode="&#xae;" horiz-adv-x="976" 
d="M895 963q0 -181 -113 -293.5t-297 -112.5q-190 0 -296.5 109t-106.5 280q0 124 56 218.5t148.5 143t205.5 48.5q185 0 294 -107t109 -286zM778 956q0 137 -80 213t-206 76q-125 0 -208 -79.5t-83 -215.5q0 -130 78.5 -205t212.5 -75q130 0 208 78t78 208zM563 778
l-82 142h-20v-142h-113v389h156q84 0 121 -32t37 -82q0 -74 -72 -103l104 -172h-131zM489 997q58 0 58 43q0 45 -51 45h-35v-88h28z" />
    <glyph glyph-name="overscore" unicode="&#xaf;" horiz-adv-x="1024" 
d="M172 1454h678v-266h-678v266z" />
    <glyph glyph-name="degree" unicode="&#xb0;" horiz-adv-x="698" 
d="M350 1192q35 0 57.5 27t22.5 65q0 36 -23 63t-57 27q-33 0 -57.5 -28t-24.5 -66q0 -34 23.5 -61t58.5 -27zM602 1284q0 -110 -71.5 -181t-180.5 -71q-110 0 -182 70t-72 176q0 114 76 184q78 72 178 72q106 0 179 -70t73 -180z" />
    <glyph glyph-name="plusminus" unicode="&#xb1;" 
d="M176 311h246v197h-246v313h246v266h319v-266h248v-313h-248v-197h248v-311h-813v311z" />
    <glyph glyph-name="uni00B2" unicode="&#xb2;" horiz-adv-x="868" 
d="M446 1671q179 0 267 -73t88 -185q0 -105 -69.5 -190t-246.5 -215v-7h330v-286h-766v274l197 168q67 58 106 95t57 63t22.5 40t4.5 36q0 30 -30 30q-24 0 -45 -23.5t-31 -74.5l-310 33q18 160 134 237.5t292 77.5z" />
    <glyph glyph-name="uni00B3" unicode="&#xb3;" horiz-adv-x="870" 
d="M309 1030q14 -80 76 -80q64 0 64 64q0 28 -16 44.5t-62 16.5h-109v213h66q56 0 83 25.5t27 64.5q0 47 -39 47q-47 0 -59 -71l-305 47q51 272 405 272q166 0 260.5 -57.5t94.5 -171.5q0 -153 -181 -225v-7q207 -47 207 -217q0 -140 -116.5 -217.5t-298.5 -77.5
q-68 0 -127.5 12.5t-117.5 41.5t-97.5 87t-51.5 140z" />
    <glyph glyph-name="acute" unicode="&#xb4;" horiz-adv-x="1024" 
d="M348 1184l107 329h438l-266 -342z" />
    <glyph glyph-name="uni00B5" unicode="&#xb5;" horiz-adv-x="1296" 
d="M1016 -25q-65 0 -112.5 11.5t-79.5 36.5t-48.5 45.5t-40.5 58.5q-70 -110 -233 -143v-418h-428v1515h428v-669q0 -57 19.5 -81t58.5 -24q60 0 100 43v731h432v-739q0 -43 14.5 -62.5t51.5 -19.5q22 0 63 12l8 -249q-32 -16 -102 -31q-80 -17 -131 -17z" />
    <glyph glyph-name="paragraph" unicode="&#xb6;" horiz-adv-x="1267" 
d="M891 -272v1515h-100v-1515h-271v761q-459 19 -459 480q0 139 44.5 240.5t126 160t185 86t232.5 27.5h512v-1755h-270z" />
    <glyph glyph-name="middot" unicode="&#xb7;" horiz-adv-x="579" 
d="M506 643q0 -190 -215 -190q-217 0 -217 190q0 191 217 191q215 0 215 -191z" />
    <glyph glyph-name="cedilla" unicode="&#xb8;" horiz-adv-x="1024" 
d="M295 -340q52 -8 98 -8q107 0 107 67q0 28 -18.5 43.5t-40.5 19.5t-58 5l35 274l176 -16l-19 -139q189 -32 189 -195q0 -125 -86.5 -189.5t-226.5 -64.5q-73 0 -172 21z" />
    <glyph glyph-name="uni00B9" unicode="&#xb9;" horiz-adv-x="716" 
d="M264 1282q-27 -11 -100.5 -21t-110.5 -10l-10 293q90 6 175.5 34t137.5 73h283v-940h-375v571z" />
    <glyph glyph-name="ordmasculine" unicode="&#xba;" horiz-adv-x="886" 
d="M430 561q-399 0 -399 373q0 179 103.5 279t316.5 100q212 0 308.5 -98t96.5 -267q0 -185 -105 -286t-321 -101zM442 766q41 0 56.5 37.5t15.5 136.5q0 92 -13.5 128t-54.5 36t-56 -36t-15 -128q0 -102 12.5 -138t54.5 -36z" />
    <glyph glyph-name="guillemotright" unicode="&#xbb;" horiz-adv-x="1007" 
d="M541 526l-172 -315h-328l176 319l-190 306h331zM973 526l-172 -315h-328l176 319l-190 306h332z" />
    <glyph glyph-name="onequarter" unicode="&#xbc;" horiz-adv-x="2304" 
d="M1253 1483h392l-721 -1508h-396zM295 1143q-27 -11 -100.5 -21t-110.5 -10l-10 293q91 6 176.5 33.5t136.5 72.5h283v-940h-375v572zM1731 166h-424v233l335 541h445v-510h104v-264h-100v-166h-360v166zM1729 655l-132 -225h132v225z" />
    <glyph glyph-name="onehalf" unicode="&#xbd;" horiz-adv-x="2304" 
d="M1260 1483h391l-721 -1508h-395zM291 1143q-27 -11 -100.5 -21t-110.5 -10l-10 293q91 6 176.5 33.5t136.5 72.5h283v-940h-375v572zM1808 956q179 0 267 -73t88 -185q0 -105 -69.5 -190t-246.5 -215v-6h330v-287h-766v274l197 168q67 58 106 95t57 63t22.5 40t4.5 36
q0 16 -9.5 23.5t-21.5 7.5q-23 0 -44 -24t-31 -75l-310 33q18 160 134 237.5t292 77.5z" />
    <glyph glyph-name="threequarters" unicode="&#xbe;" horiz-adv-x="2304" 
d="M1309 1483h391l-721 -1508h-395zM1735 166h-424v233l336 541h444v-510h104v-264h-100v-166h-360v166zM1733 655l-131 -225h131v225zM356 891q14 -80 76 -80q64 0 64 63q0 28 -16 45t-62 17h-109v213h66q56 0 83 25.5t27 64.5q0 47 -39 47q-47 0 -59 -72l-305 48
q51 272 405 272q166 0 260.5 -57.5t94.5 -171.5q0 -154 -180 -226v-6q206 -47 206 -217q0 -140 -116.5 -217.5t-298.5 -77.5q-68 0 -127.5 12.5t-117.5 41.5t-97.5 87t-51.5 140z" />
    <glyph glyph-name="questiondown" unicode="&#xbf;" horiz-adv-x="1214" 
d="M881 274q-56 -4 -106 -13t-102.5 -28.5t-89.5 -47t-61 -71.5t-24 -100q0 -59 27.5 -92t82.5 -33q74 0 107 50.5t41 144.5l426 -61q-24 -230 -182 -344.5t-406 -114.5q-89 0 -167 14.5t-151 49t-125 87t-83 134t-31 184.5q0 183 100.5 308t308.5 181v135h435v-383z
M440 911q0 93 56.5 143t171.5 50q229 0 229 -193q0 -196 -229 -196q-112 0 -170 51t-58 145z" />
    <glyph glyph-name="Agrave" unicode="&#xc0;" horiz-adv-x="1484" 
d="M727 1882l170 -297l-295 -12l-313 309h438zM705 1073l-130 -450h273l-131 450h-12zM1516 0h-484l-98 289h-420l-82 -289h-463l475 1483h539z" />
    <glyph glyph-name="Aacute" unicode="&#xc1;" horiz-adv-x="1484" 
d="M1516 0h-484l-98 289h-420l-82 -289h-463l475 1483h539zM705 1073l-130 -450h273l-131 450h-12zM526 1585l170 297h439l-314 -309z" />
    <glyph glyph-name="Acircumflex" unicode="&#xc2;" horiz-adv-x="1484" 
d="M1516 0h-484l-98 289h-420l-82 -289h-463l475 1483h539zM705 1073l-130 -450h273l-131 450h-12zM584 1573l-275 10l199 318h414l180 -316l-264 -10l-121 137z" />
    <glyph glyph-name="Atilde" unicode="&#xc3;" horiz-adv-x="1484" 
d="M1516 0h-484l-98 289h-420l-82 -289h-463l475 1483h539zM705 1073l-130 -450h273l-131 450h-12zM561 1954q60 0 115.5 -21t101 -42t82.5 -21q29 0 37 17.5t8 58.5l197 -11q10 -63 3 -121.5t-26 -104t-64.5 -72.5t-111.5 -27q-52 0 -100.5 13.5t-78.5 29.5t-64.5 29.5
t-61.5 13.5q-34 0 -45.5 -19t-1.5 -65l-219 8q-18 146 42.5 240t186.5 94z" />
    <glyph glyph-name="Adieresis" unicode="&#xc4;" horiz-adv-x="1484" 
d="M1516 0h-484l-98 289h-420l-82 -289h-463l475 1483h539zM705 1073l-130 -450h273l-131 450h-12zM680 1790q0 -96 -64.5 -154.5t-169.5 -58.5q-106 0 -172.5 58.5t-66.5 154.5t66.5 154.5t172.5 58.5q105 0 169.5 -58.5t64.5 -154.5zM1217 1790q0 -96 -65 -154.5
t-171 -58.5t-172 58.5t-66 154.5t66 154.5t172 58.5t171 -58.5t65 -154.5z" />
    <glyph glyph-name="Aring" unicode="&#xc5;" horiz-adv-x="1484" 
d="M1008 1624q0 -82 -35 -141l543 -1483h-484l-98 289h-420l-82 -289h-463l488 1483q-33 72 -33 133q0 131 83 203.5t208 72.5q123 0 207 -69q86 -71 86 -199zM705 1073l-130 -450h273l-131 450h-12zM713 1522q49 0 77.5 26.5t28.5 81.5q0 52 -27.5 78.5t-76.5 26.5
q-50 0 -80.5 -25.5t-30.5 -77.5q0 -55 29.5 -82.5t79.5 -27.5z" />
    <glyph glyph-name="AE" unicode="&#xc6;" horiz-adv-x="2058" 
d="M2021 360v-360h-1065v537h-299l-211 -537h-456l641 1483h1339v-353h-569v-251h538v-338h-538v-181h620zM870 1130l-100 -266h186v266h-86z" />
    <glyph glyph-name="Ccedilla" unicode="&#xc7;" horiz-adv-x="1429" 
d="M535 -340q52 -8 98 -8q106 0 106 67q0 40 -30.5 53t-85.5 15l24 195q-310 30 -453 221t-143 528q0 169 45.5 308.5t134.5 245.5t232.5 165t329.5 59q134 0 243 -33t192.5 -99.5t130.5 -177t50 -257.5l-401 -39q-1 143 -57.5 202.5t-166.5 59.5q-134 0 -203 -100t-69 -317
q0 -229 65.5 -329t208.5 -100q61 0 104 18t67.5 53t37 69t21.5 82l393 -62q-11 -102 -50.5 -185.5t-96 -139t-130 -95t-149.5 -58.5t-158 -24l-10 -71q189 -32 189 -195q0 -125 -86.5 -189.5t-227.5 -64.5q-73 0 -172 21z" />
    <glyph glyph-name="Egrave" unicode="&#xc8;" horiz-adv-x="1230" 
d="M639 1882l170 -297l-295 -12l-313 309h438zM1169 360v-360h-1065v1483h1014v-353h-569v-231h541v-338h-541v-201h620z" />
    <glyph glyph-name="Eacute" unicode="&#xc9;" horiz-adv-x="1230" 
d="M1169 360v-360h-1065v1483h1014v-353h-569v-231h541v-338h-541v-201h620zM438 1585l170 297h439l-314 -309z" />
    <glyph glyph-name="Ecircumflex" unicode="&#xca;" horiz-adv-x="1230" 
d="M1169 360v-360h-1065v1483h1014v-353h-569v-231h541v-338h-541v-201h620zM496 1573l-275 10l199 318h414l180 -316l-264 -10l-121 137z" />
    <glyph glyph-name="Edieresis" unicode="&#xcb;" horiz-adv-x="1230" 
d="M1169 360v-360h-1065v1483h1014v-353h-569v-231h541v-338h-541v-201h620zM592 1790q0 -96 -64.5 -154.5t-169.5 -58.5q-106 0 -172.5 58.5t-66.5 154.5t66.5 154.5t172.5 58.5q105 0 169.5 -58.5t64.5 -154.5zM1128 1790q0 -97 -64.5 -155t-170.5 -58t-172 58.5
t-66 154.5t66 154.5t172 58.5t170.5 -58t64.5 -155z" />
    <glyph glyph-name="Igrave" unicode="&#xcc;" horiz-adv-x="653" 
d="M342 1882l170 -297l-295 -12l-313 309h438zM104 0v1483h445v-1483h-445z" />
    <glyph glyph-name="Iacute" unicode="&#xcd;" horiz-adv-x="653" 
d="M104 0v1483h445v-1483h-445zM141 1585l170 297h439l-314 -309z" />
    <glyph glyph-name="Icircumflex" unicode="&#xce;" horiz-adv-x="653" 
d="M104 0v1483h445v-1483h-445zM199 1573l-275 10l199 318h414l180 -316l-264 -10l-121 137z" />
    <glyph glyph-name="Idieresis" unicode="&#xcf;" horiz-adv-x="653" 
d="M104 0v1483h445v-1483h-445zM295 1790q0 -96 -64.5 -154.5t-169.5 -58.5q-106 0 -172.5 58.5t-66.5 154.5t66.5 154.5t172.5 58.5q105 0 169.5 -58.5t64.5 -154.5zM831 1790q0 -97 -64.5 -155t-170.5 -58t-172 58.5t-66 154.5t66 154.5t172 58.5t170.5 -58t64.5 -155z
" />
    <glyph glyph-name="Eth" unicode="&#xd0;" horiz-adv-x="1564" 
d="M193 594h-111v319h111v570h585q374 0 554.5 -188t180.5 -531q0 -173 -46 -311.5t-138.5 -240.5t-241 -157t-344.5 -55h-550v594zM713 340q88 0 151 19.5t101.5 52.5t60.5 87.5t29.5 114t7.5 142.5q0 222 -70 306.5t-250 84.5h-106v-234h235v-319h-235v-254h76z" />
    <glyph glyph-name="Ntilde" unicode="&#xd1;" horiz-adv-x="1525" 
d="M506 868v-868h-402v1483h508l412 -885v885h397v-1483h-497zM612 1954q60 0 115.5 -21t101 -42t82.5 -21q29 0 37 17.5t8 58.5l197 -11q10 -63 3 -121.5t-26 -104t-64.5 -72.5t-111.5 -27q-52 0 -100.5 13.5t-78.5 29.5t-64.5 29.5t-61.5 13.5q-33 0 -45 -19t-2 -65
l-219 8q-18 146 42.5 240t186.5 94z" />
    <glyph glyph-name="Ograve" unicode="&#xd2;" horiz-adv-x="1558" 
d="M811 1882l170 -297l-295 -12l-313 309h438zM784 319q63 0 110 20t84 66.5t56 130t19 203.5q0 228 -62 324t-196 96q-145 0 -215 -98t-70 -322q0 -159 32 -252.5t90 -130.5t152 -37zM768 -25q-190 0 -330.5 55t-224 157t-123 236.5t-39.5 305.5q0 167 47 307.5t138 247
t236.5 166t332.5 59.5q150 0 270 -39t200 -106.5t133 -163.5t76 -205.5t23 -236.5q0 -182 -43.5 -324t-132.5 -245.5t-231 -158.5t-332 -55z" />
    <glyph glyph-name="Oacute" unicode="&#xd3;" horiz-adv-x="1558" 
d="M768 -25q-190 0 -330.5 55t-224 157t-123 236.5t-39.5 305.5q0 167 47 307.5t138 247t236.5 166t332.5 59.5q150 0 270 -39t200 -106.5t133 -163.5t76 -205.5t23 -236.5q0 -182 -43.5 -324t-132.5 -245.5t-231 -158.5t-332 -55zM784 319q63 0 110 20t84 66.5t56 130
t19 203.5q0 228 -62 324t-196 96q-145 0 -215 -98t-70 -322q0 -159 32 -252.5t90 -130.5t152 -37zM610 1585l170 297h439l-314 -309z" />
    <glyph glyph-name="Ocircumflex" unicode="&#xd4;" horiz-adv-x="1558" 
d="M768 -25q-190 0 -330.5 55t-224 157t-123 236.5t-39.5 305.5q0 167 47 307.5t138 247t236.5 166t332.5 59.5q150 0 270 -39t200 -106.5t133 -163.5t76 -205.5t23 -236.5q0 -182 -43.5 -324t-132.5 -245.5t-231 -158.5t-332 -55zM784 319q63 0 110 20t84 66.5t56 130
t19 203.5q0 228 -62 324t-196 96q-145 0 -215 -98t-70 -322q0 -159 32 -252.5t90 -130.5t152 -37zM668 1573l-275 10l199 318h414l180 -316l-264 -10l-121 137z" />
    <glyph glyph-name="Otilde" unicode="&#xd5;" horiz-adv-x="1558" 
d="M768 -25q-190 0 -330.5 55t-224 157t-123 236.5t-39.5 305.5q0 167 47 307.5t138 247t236.5 166t332.5 59.5q150 0 270 -39t200 -106.5t133 -163.5t76 -205.5t23 -236.5q0 -182 -43.5 -324t-132.5 -245.5t-231 -158.5t-332 -55zM784 319q63 0 110 20t84 66.5t56 130
t19 203.5q0 228 -62 324t-196 96q-145 0 -215 -98t-70 -322q0 -159 32 -252.5t90 -130.5t152 -37zM645 1954q60 0 115.5 -21t101 -42t82.5 -21q29 0 37 17.5t8 58.5l197 -11q10 -63 3 -121.5t-26 -104t-64.5 -72.5t-111.5 -27q-52 0 -100.5 13.5t-78.5 29.5t-64.5 29.5
t-61.5 13.5q-34 0 -45.5 -19t-1.5 -65l-219 8q-18 146 42.5 240t186.5 94z" />
    <glyph glyph-name="Odieresis" unicode="&#xd6;" horiz-adv-x="1558" 
d="M768 -25q-190 0 -330.5 55t-224 157t-123 236.5t-39.5 305.5q0 167 47 307.5t138 247t236.5 166t332.5 59.5q150 0 270 -39t200 -106.5t133 -163.5t76 -205.5t23 -236.5q0 -182 -43.5 -324t-132.5 -245.5t-231 -158.5t-332 -55zM784 319q63 0 110 20t84 66.5t56 130
t19 203.5q0 228 -62 324t-196 96q-145 0 -215 -98t-70 -322q0 -159 32 -252.5t90 -130.5t152 -37zM764 1790q0 -96 -64.5 -154.5t-169.5 -58.5q-106 0 -172.5 58.5t-66.5 154.5t66.5 154.5t172.5 58.5q105 0 169.5 -58.5t64.5 -154.5zM1300 1790q0 -97 -64.5 -155
t-170.5 -58t-172 58.5t-66 154.5t66 154.5t172 58.5t170.5 -58t64.5 -155z" />
    <glyph glyph-name="multiply" unicode="&#xd7;" 
d="M395 246l-227 225l190 188l-190 189l227 227l189 -188l190 188l225 -227l-188 -189l188 -188l-225 -225l-190 188z" />
    <glyph glyph-name="Oslash" unicode="&#xd8;" horiz-adv-x="1558" 
d="M768 -25q-22 0 -104 5l-56 -142h-422l111 271q-246 185 -246 620q0 167 47 307.5t138 247t236.5 166t332.5 59.5q34 0 96 -4l53 123h422l-110 -260q241 -194 241 -610q0 -182 -43.5 -324t-132.5 -245.5t-231 -158.5t-332 -55zM784 319q63 0 110 20t84 66.5t56 130
t19 203.5q0 228 -62 324t-196 96q-145 0 -215 -98t-70 -322q0 -159 32 -252.5t90 -130.5t152 -37z" />
    <glyph glyph-name="Ugrave" unicode="&#xd9;" horiz-adv-x="1437" 
d="M733 1882l170 -297l-295 -12l-313 309h438zM526 1483v-848v-56.5t1.5 -50.5t4 -47.5t7 -40.5t12 -37t18 -28.5t25 -24.5t33.5 -16.5t43 -11.5t53 -3q34 0 60.5 4t46 15.5t33 23t22.5 34.5t14.5 42t8 54t3 62t0.5 73v856h441v-916q0 -156 -47.5 -271.5t-134.5 -185
t-201.5 -102.5t-257.5 -33q-328 0 -478.5 144t-150.5 461v903h444z" />
    <glyph glyph-name="Uacute" unicode="&#xda;" horiz-adv-x="1437" 
d="M723 319q34 0 60.5 4t46 15.5t33 23t22.5 34.5t14.5 42t8 54t3 62t0.5 73v856h441v-916q0 -156 -47.5 -271.5t-134.5 -185t-201.5 -102.5t-257.5 -33q-328 0 -478.5 144t-150.5 461v903h444v-848v-56.5t1.5 -50.5t4 -47.5t7 -40.5t12 -37t18 -28.5t25 -24.5t33.5 -16.5
t43 -11.5t53 -3zM532 1585l170 297h439l-314 -309z" />
    <glyph glyph-name="Ucircumflex" unicode="&#xdb;" horiz-adv-x="1437" 
d="M723 319q34 0 60.5 4t46 15.5t33 23t22.5 34.5t14.5 42t8 54t3 62t0.5 73v856h441v-916q0 -156 -47.5 -271.5t-134.5 -185t-201.5 -102.5t-257.5 -33q-328 0 -478.5 144t-150.5 461v903h444v-848v-56.5t1.5 -50.5t4 -47.5t7 -40.5t12 -37t18 -28.5t25 -24.5t33.5 -16.5
t43 -11.5t53 -3zM590 1573l-275 10l199 318h414l180 -316l-264 -10l-121 137z" />
    <glyph glyph-name="Udieresis" unicode="&#xdc;" horiz-adv-x="1437" 
d="M723 319q34 0 60.5 4t46 15.5t33 23t22.5 34.5t14.5 42t8 54t3 62t0.5 73v856h441v-916q0 -156 -47.5 -271.5t-134.5 -185t-201.5 -102.5t-257.5 -33q-328 0 -478.5 144t-150.5 461v903h444v-848v-56.5t1.5 -50.5t4 -47.5t7 -40.5t12 -37t18 -28.5t25 -24.5t33.5 -16.5
t43 -11.5t53 -3zM686 1790q0 -96 -64 -154.5t-169 -58.5q-107 0 -173.5 58.5t-66.5 154.5t66.5 154.5t173.5 58.5q105 0 169 -58.5t64 -154.5zM1223 1790q0 -96 -65 -154.5t-171 -58.5t-171.5 58.5t-65.5 154.5t65.5 154.5t171.5 58.5t171 -58.5t65 -154.5z" />
    <glyph glyph-name="Yacute" unicode="&#xdd;" horiz-adv-x="1323" 
d="M457 0v541l-518 942h483l256 -555h16l244 555h446l-483 -942l2 -541h-446zM498 1585l170 297h438l-313 -309z" />
    <glyph glyph-name="Thorn" unicode="&#xde;" horiz-adv-x="1282" 
d="M104 0v1483h443v-219h198q109 0 195.5 -27.5t141.5 -73t91 -108.5t51 -129.5t15 -139.5q0 -567 -594 -567h-98v-219h-443zM588 543q93 0 144.5 46.5t51.5 160.5q0 49 -12 85t-29 54.5t-43 29t-45.5 13t-44.5 2.5h-63v-391h41z" />
    <glyph glyph-name="germandbls" unicode="&#xdf;" horiz-adv-x="1318" 
d="M70 997q0 576 594 576q250 0 399 -107q151 -109 151 -307q0 -62 -16 -117t-40.5 -92.5t-55 -67t-57 -45t-48.5 -22.5v-8q47 -12 82.5 -25.5t77.5 -43t69 -69.5t45.5 -105t18.5 -148q0 -66 -14.5 -127t-48 -119t-84 -100.5t-128.5 -68.5t-175 -26q-52 0 -146 11
q-68 8 -104 16v283q49 -15 112 -15q67 0 110.5 45t43.5 144q0 96 -49 134t-137 38h-54v282h37q70 0 99.5 45t29.5 142q0 180 -135 180q-33 0 -57 -9t-45 -32.5t-32 -70.5t-11 -117v-1051h-432v997z" />
    <glyph glyph-name="agrave" unicode="&#xe0;" horiz-adv-x="1169" 
d="M1034 317q0 -44 13.5 -62.5t50.5 -18.5q22 0 63 12l8 -225q-33 -15 -113.5 -32.5t-133.5 -17.5q-112 0 -182.5 36t-98.5 120q-99 -154 -295 -154q-77 0 -136 19.5t-93.5 49t-56.5 69.5t-29.5 75.5t-7.5 73.5q0 67 18.5 120.5t49 91t77.5 66t95 45t111.5 27.5t117.5 16
t122 7v49q0 54 -12 94q-9 41 -76 41q-49 0 -72.5 -27.5t-41.5 -97.5l-355 62q13 80 45 141.5t89 109t148.5 72.5t215.5 25q479 0 479 -391v-396zM616 424q-24 0 -46.5 -3t-50.5 -12t-45 -29.5t-17 -49.5q0 -30 18 -52t53 -22q50 0 88 27v141zM612 1513l107 -329l-279 -13
l-266 342h438z" />
    <glyph glyph-name="aacute" unicode="&#xe1;" horiz-adv-x="1169" 
d="M1034 317q0 -44 13.5 -62.5t50.5 -18.5q22 0 63 12l8 -225q-33 -15 -113.5 -32.5t-133.5 -17.5q-112 0 -182.5 36t-98.5 120q-99 -154 -295 -154q-77 0 -136 19.5t-93.5 49t-56.5 69.5t-29.5 75.5t-7.5 73.5q0 67 18.5 120.5t49 91t77.5 66t95 45t111.5 27.5t117.5 16
t122 7v49q0 54 -12 94q-9 41 -76 41q-49 0 -72.5 -27.5t-41.5 -97.5l-355 62q13 80 45 141.5t89 109t148.5 72.5t215.5 25q479 0 479 -391v-396zM616 424q-24 0 -46.5 -3t-50.5 -12t-45 -29.5t-17 -49.5q0 -30 18 -52t53 -22q50 0 88 27v141zM393 1184l107 329h438
l-266 -342z" />
    <glyph glyph-name="acircumflex" unicode="&#xe2;" horiz-adv-x="1169" 
d="M1034 317q0 -44 13.5 -62.5t50.5 -18.5q22 0 63 12l8 -225q-33 -15 -113.5 -32.5t-133.5 -17.5q-112 0 -182.5 36t-98.5 120q-99 -154 -295 -154q-77 0 -136 19.5t-93.5 49t-56.5 69.5t-29.5 75.5t-7.5 73.5q0 67 18.5 120.5t49 91t77.5 66t95 45t111.5 27.5t117.5 16
t122 7v49q0 54 -12 94q-9 41 -76 41q-49 0 -72.5 -27.5t-41.5 -97.5l-355 62q13 80 45 141.5t89 109t148.5 72.5t215.5 25q479 0 479 -391v-396zM616 424q-24 0 -46.5 -3t-50.5 -12t-45 -29.5t-17 -49.5q0 -30 18 -52t53 -22q50 0 88 27v141zM561 1333l-133 -157l-274 10
l202 336h408l182 -336l-268 -10z" />
    <glyph glyph-name="atilde" unicode="&#xe3;" horiz-adv-x="1169" 
d="M1034 317q0 -44 13.5 -62.5t50.5 -18.5q22 0 63 12l8 -225q-33 -15 -113.5 -32.5t-133.5 -17.5q-112 0 -182.5 36t-98.5 120q-99 -154 -295 -154q-77 0 -136 19.5t-93.5 49t-56.5 69.5t-29.5 75.5t-7.5 73.5q0 67 18.5 120.5t49 91t77.5 66t95 45t111.5 27.5t117.5 16
t122 7v49q0 54 -12 94q-9 41 -76 41q-49 0 -72.5 -27.5t-41.5 -97.5l-355 62q13 80 45 141.5t89 109t148.5 72.5t215.5 25q479 0 479 -391v-396zM616 424q-24 0 -46.5 -3t-50.5 -12t-45 -29.5t-17 -49.5q0 -30 18 -52t53 -22q50 0 88 27v141zM412 1528q60 0 115.5 -21
t101 -42t82.5 -21q29 0 37 17.5t8 58.5l196 -11q10 -63 3.5 -121.5t-26 -104t-64.5 -72.5t-111 -27q-52 0 -100.5 13.5t-78.5 29.5t-64.5 29.5t-61.5 13.5q-34 0 -46 -19t-2 -65l-219 8q-18 145 43 239.5t187 94.5z" />
    <glyph glyph-name="adieresis" unicode="&#xe4;" horiz-adv-x="1169" 
d="M1034 317q0 -44 13.5 -62.5t50.5 -18.5q22 0 63 12l8 -225q-33 -15 -113.5 -32.5t-133.5 -17.5q-112 0 -182.5 36t-98.5 120q-99 -154 -295 -154q-77 0 -136 19.5t-93.5 49t-56.5 69.5t-29.5 75.5t-7.5 73.5q0 67 18.5 120.5t49 91t77.5 66t95 45t111.5 27.5t117.5 16
t122 7v49q0 54 -12 94q-9 41 -76 41q-49 0 -72.5 -27.5t-41.5 -97.5l-355 62q13 80 45 141.5t89 109t148.5 72.5t215.5 25q479 0 479 -391v-396zM616 424q-24 0 -46.5 -3t-50.5 -12t-45 -29.5t-17 -49.5q0 -30 18 -52t53 -22q50 0 88 27v141zM524 1405q0 -96 -64 -154.5
t-169 -58.5q-107 0 -173.5 58.5t-66.5 154.5t66.5 154.5t173.5 58.5q105 0 169 -58.5t64 -154.5zM1061 1405q0 -96 -65 -154.5t-171 -58.5t-171.5 58.5t-65.5 154.5t65.5 154.5t171.5 58.5t171 -58.5t65 -154.5z" />
    <glyph glyph-name="aring" unicode="&#xe5;" horiz-adv-x="1169" 
d="M1034 317q0 -44 13.5 -62.5t50.5 -18.5q22 0 63 12l8 -225q-33 -15 -113.5 -32.5t-133.5 -17.5q-112 0 -182.5 36t-98.5 120q-99 -154 -295 -154q-77 0 -136 19.5t-93.5 49t-56.5 69.5t-29.5 75.5t-7.5 73.5q0 67 18.5 120.5t49 91t77.5 66t95 45t111.5 27.5t117.5 16
t122 7v49q0 54 -12 94q-9 41 -76 41q-49 0 -72.5 -27.5t-41.5 -97.5l-355 62q13 80 45 141.5t89 109t148.5 72.5t215.5 25q479 0 479 -391v-396zM616 424q-24 0 -46.5 -3t-50.5 -12t-45 -29.5t-17 -49.5q0 -30 18 -52t53 -22q50 0 88 27v141zM801 1382q0 -105 -68 -163
t-176 -58q-109 0 -176.5 57t-67.5 160q0 110 70 171t174 61q106 0 175 -61t69 -167zM555 1305q35 0 57.5 18.5t22.5 58.5q0 37 -22 57.5t-56 20.5t-58 -20.5t-24 -55.5q0 -79 80 -79z" />
    <glyph glyph-name="ae" unicode="&#xe6;" horiz-adv-x="1675" 
d="M1147 -25q-272 0 -416 158q-68 -82 -166.5 -120t-206.5 -38q-76 0 -136.5 19t-97 48.5t-60 69.5t-32.5 78t-9 78q0 66 19 119t52 89t78 63t97 43t110 26.5t115.5 17t114.5 11.5h2.5h2.5v29q0 85 -15.5 119t-72.5 34q-52 0 -78 -29t-36 -100l-355 64q24 170 143 260
t335 90q118 0 193 -30t124 -101q113 131 342 131q118 0 206 -41.5t139 -115t76 -165.5t25 -202q0 -54 -6 -113h-587q2 -101 28.5 -143.5t98.5 -42.5q52 0 84 31.5t40 84.5l338 -84q-28 -152 -151 -245t-338 -93zM535 260q27 0 58 12t46 25q-12 34 -25 125q-81 -8 -119 -28
t-38 -70q0 -28 20.5 -46t57.5 -18zM1202 682q0 47 -6.5 78t-19.5 44t-24 17t-26 4q-77 0 -75 -143h151z" />
    <glyph glyph-name="ccedilla" unicode="&#xe7;" horiz-adv-x="1126" 
d="M371 -340q52 -8 98 -8q106 0 106 67q0 40 -30.5 53t-85.5 15l24 195q-217 29 -330.5 171.5t-113.5 362.5q0 277 151 432.5t428 155.5q220 0 346 -109.5t146 -318.5l-377 -55q-9 97 -30 138.5t-85 41.5q-66 0 -96 -54t-30 -190q0 -147 26.5 -209.5t102.5 -62.5
q70 0 103 43t44 135l342 -64q-26 -193 -142.5 -297t-308.5 -122l-8 -74q189 -32 189 -195q0 -125 -86.5 -189.5t-227.5 -64.5q-73 0 -172 21z" />
    <glyph glyph-name="egrave" unicode="&#xe8;" horiz-adv-x="1122" 
d="M596 -25q-121 0 -217 31t-159 83t-104.5 125t-59 152.5t-17.5 170.5q0 140 43 250t118 178.5t173 103.5t213 35q499 0 499 -522q0 -93 -4 -115h-587q0 -100 27 -143t100 -43q54 0 86.5 31.5t40.5 84.5l337 -84q-28 -152 -151 -245t-338 -93zM645 682q0 48 -6 78t-18 43.5
t-23 17.5t-29 4q-38 0 -56.5 -30.5t-18.5 -112.5h151zM637 1513l106 -329l-278 -13l-266 342h438z" />
    <glyph glyph-name="eacute" unicode="&#xe9;" horiz-adv-x="1122" 
d="M596 -25q-121 0 -217 31t-159 83t-104.5 125t-59 152.5t-17.5 170.5q0 140 43 250t118 178.5t173 103.5t213 35q499 0 499 -522q0 -93 -4 -115h-587q0 -100 27 -143t100 -43q54 0 86.5 31.5t40.5 84.5l337 -84q-28 -152 -151 -245t-338 -93zM645 682q0 48 -6 78t-18 43.5
t-23 17.5t-29 4q-38 0 -56.5 -30.5t-18.5 -112.5h151zM418 1184l106 329h439l-267 -342z" />
    <glyph glyph-name="ecircumflex" unicode="&#xea;" horiz-adv-x="1122" 
d="M596 -25q-121 0 -217 31t-159 83t-104.5 125t-59 152.5t-17.5 170.5q0 140 43 250t118 178.5t173 103.5t213 35q499 0 499 -522q0 -93 -4 -115h-587q0 -100 27 -143t100 -43q54 0 86.5 31.5t40.5 84.5l337 -84q-28 -152 -151 -245t-338 -93zM645 682q0 48 -6 78t-18 43.5
t-23 17.5t-29 4q-38 0 -56.5 -30.5t-18.5 -112.5h151zM586 1333l-133 -157l-275 10l203 336h407l183 -336l-269 -10z" />
    <glyph glyph-name="edieresis" unicode="&#xeb;" horiz-adv-x="1122" 
d="M596 -25q-121 0 -217 31t-159 83t-104.5 125t-59 152.5t-17.5 170.5q0 140 43 250t118 178.5t173 103.5t213 35q499 0 499 -522q0 -93 -4 -115h-587q0 -100 27 -143t100 -43q54 0 86.5 31.5t40.5 84.5l337 -84q-28 -152 -151 -245t-338 -93zM645 682q0 48 -6 78t-18 43.5
t-23 17.5t-29 4q-38 0 -56.5 -30.5t-18.5 -112.5h151zM549 1405q0 -96 -64.5 -154.5t-169.5 -58.5q-106 0 -172.5 58.5t-66.5 154.5t66.5 154.5t172.5 58.5q105 0 169.5 -58.5t64.5 -154.5zM1085 1405q0 -97 -64.5 -155t-170.5 -58t-172 58.5t-66 154.5t66 154.5t172 58.5
t170.5 -58t64.5 -155z" />
    <glyph glyph-name="igrave" unicode="&#xec;" horiz-adv-x="585" 
d="M78 0v1081h432v-1081h-432zM350 1513l107 -329l-279 -13l-266 342h438z" />
    <glyph glyph-name="iacute" unicode="&#xed;" horiz-adv-x="585" 
d="M78 0v1081h432v-1081h-432zM131 1184l107 329h438l-266 -342z" />
    <glyph glyph-name="icircumflex" unicode="&#xee;" horiz-adv-x="585" 
d="M78 0v1081h432v-1081h-432zM299 1333l-133 -157l-275 10l203 336h408l182 -336l-268 -10z" />
    <glyph glyph-name="idieresis" unicode="&#xef;" horiz-adv-x="585" 
d="M78 0v1081h432v-1081h-432zM262 1405q0 -96 -64 -154.5t-169 -58.5q-107 0 -173.5 58.5t-66.5 154.5t66.5 154.5t173.5 58.5q105 0 169 -58.5t64 -154.5zM799 1405q0 -96 -65 -154.5t-171 -58.5t-171.5 58.5t-65.5 154.5t65.5 154.5t171.5 58.5t171 -58.5t65 -154.5z" />
    <glyph glyph-name="eth" unicode="&#xf0;" horiz-adv-x="1228" 
d="M33 524q0 104 28.5 196t84.5 164.5t148 115t210 42.5q130 0 237 -55l9 8q-58 99 -195.5 183t-275.5 106l149 340q180 -46 311 -119l185 162l219 -240l-148 -135q197 -243 197 -626q0 -354 -150.5 -522.5t-453.5 -168.5q-287 0 -422 150q-133 151 -133 399zM485 524
q0 -71 8.5 -121t20.5 -76t31 -40.5t33 -17.5t34 -3q24 0 41.5 6.5t37 28.5t31.5 59.5t20 103.5t8 157q0 32 -11 118q-52 29 -112 29q-20 0 -33.5 -2t-32 -9t-30.5 -23.5t-23.5 -42.5t-17 -68.5t-5.5 -98.5z" />
    <glyph glyph-name="ntilde" unicode="&#xf1;" horiz-adv-x="1196" 
d="M698 0v666q0 61 -23 84.5t-65 23.5q-68 0 -108 -43v-731h-432v1081h383l20 -100q45 54 123.5 88.5t181.5 34.5q183 0 267.5 -87.5t84.5 -273.5v-743h-432zM442 1528q60 0 115.5 -21t101 -42t82.5 -21q29 0 37 17.5t8 58.5l197 -11q10 -63 3 -121.5t-26 -104t-64.5 -72.5
t-111.5 -27q-52 0 -100.5 13.5t-78.5 29.5t-64.5 29.5t-61.5 13.5q-33 0 -45 -19t-2 -65l-219 8q-18 146 42.5 240t186.5 94z" />
    <glyph glyph-name="ograve" unicode="&#xf2;" horiz-adv-x="1222" 
d="M594 -25q-555 0 -555 560q0 268 144.5 418.5t439.5 150.5q150 0 260 -40.5t175 -115t95.5 -172.5t30.5 -221q0 -275 -145 -427.5t-445 -152.5zM610 262q67 0 95 61t28 222q0 154 -24.5 210t-92.5 56q-47 0 -73 -22.5t-38.5 -80.5t-12.5 -165q0 -163 23.5 -222t94.5 -59z
M662 1513l106 -329l-279 -13l-266 342h439z" />
    <glyph glyph-name="oacute" unicode="&#xf3;" horiz-adv-x="1222" 
d="M594 -25q-555 0 -555 560q0 268 144.5 418.5t439.5 150.5q150 0 260 -40.5t175 -115t95.5 -172.5t30.5 -221q0 -275 -145 -427.5t-445 -152.5zM610 262q67 0 95 61t28 222q0 154 -24.5 210t-92.5 56q-47 0 -73 -22.5t-38.5 -80.5t-12.5 -165q0 -163 23.5 -222t94.5 -59z
M442 1184l107 329h438l-266 -342z" />
    <glyph glyph-name="ocircumflex" unicode="&#xf4;" horiz-adv-x="1222" 
d="M594 -25q-555 0 -555 560q0 268 144.5 418.5t439.5 150.5q150 0 260 -40.5t175 -115t95.5 -172.5t30.5 -221q0 -275 -145 -427.5t-445 -152.5zM610 262q67 0 95 61t28 222q0 154 -24.5 210t-92.5 56q-47 0 -73 -22.5t-38.5 -80.5t-12.5 -165q0 -163 23.5 -222t94.5 -59z
M610 1333l-133 -157l-274 10l203 336h407l182 -336l-268 -10z" />
    <glyph glyph-name="otilde" unicode="&#xf5;" horiz-adv-x="1222" 
d="M594 -25q-555 0 -555 560q0 268 144.5 418.5t439.5 150.5q150 0 260 -40.5t175 -115t95.5 -172.5t30.5 -221q0 -275 -145 -427.5t-445 -152.5zM610 262q67 0 95 61t28 222q0 154 -24.5 210t-92.5 56q-47 0 -73 -22.5t-38.5 -80.5t-12.5 -165q0 -163 23.5 -222t94.5 -59z
M461 1528q60 0 115.5 -21t101 -42t82.5 -21q29 0 37 17.5t8 58.5l196 -11q10 -63 3.5 -121.5t-26 -104t-64.5 -72.5t-111 -27q-52 0 -100.5 13.5t-78.5 29.5t-64.5 29.5t-61.5 13.5q-34 0 -45.5 -19t-1.5 -65l-220 8q-18 145 43 239.5t187 94.5z" />
    <glyph glyph-name="odieresis" unicode="&#xf6;" horiz-adv-x="1222" 
d="M594 -25q-555 0 -555 560q0 268 144.5 418.5t439.5 150.5q150 0 260 -40.5t175 -115t95.5 -172.5t30.5 -221q0 -275 -145 -427.5t-445 -152.5zM610 262q67 0 95 61t28 222q0 154 -24.5 210t-92.5 56q-47 0 -73 -22.5t-38.5 -80.5t-12.5 -165q0 -163 23.5 -222t94.5 -59z
M573 1405q0 -96 -64 -154.5t-169 -58.5q-107 0 -173.5 58.5t-66.5 154.5t66.5 154.5t173.5 58.5q105 0 169 -58.5t64 -154.5zM1110 1405q0 -96 -65 -154.5t-171 -58.5t-171.5 58.5t-65.5 154.5t65.5 154.5t171.5 58.5t171 -58.5t65 -154.5z" />
    <glyph glyph-name="divide" unicode="&#xf7;" 
d="M774 297q0 -82 -47 -127t-143 -45q-97 0 -145 44.5t-48 127.5q0 76 49.5 124t143.5 48t142 -48t48 -124zM176 813h813v-311h-813v311zM774 1016q0 -81 -47.5 -126.5t-142.5 -45.5q-97 0 -145 44.5t-48 127.5q0 76 49.5 124t143.5 48t142 -48t48 -124z" />
    <glyph glyph-name="oslash" unicode="&#xf8;" horiz-adv-x="1222" 
d="M231 70q-192 137 -192 465q0 268 144.5 418.5t439.5 150.5q33 0 49 -2l51 115h377l-99 -218q183 -139 183 -444q0 -275 -145 -427.5t-445 -152.5h-33l-63 -153h-377zM610 262q67 0 95 61t28 222q0 154 -24.5 210t-92.5 56q-47 0 -73 -22.5t-38.5 -80.5t-12.5 -165
q0 -163 23.5 -222t94.5 -59z" />
    <glyph glyph-name="ugrave" unicode="&#xf9;" horiz-adv-x="1177" 
d="M496 1081v-665q0 -60 19.5 -84.5t59.5 -24.5q59 0 99 43v731h432v-1081h-369l-32 121q-40 -66 -118.5 -106t-183.5 -40q-166 0 -253 88t-87 265v753h433zM637 1513l106 -329l-278 -13l-266 342h438z" />
    <glyph glyph-name="uacute" unicode="&#xfa;" horiz-adv-x="1177" 
d="M496 1081v-665q0 -60 19.5 -84.5t59.5 -24.5q59 0 99 43v731h432v-1081h-369l-32 121q-40 -66 -118.5 -106t-183.5 -40q-166 0 -253 88t-87 265v753h433zM418 1184l106 329h439l-267 -342z" />
    <glyph glyph-name="ucircumflex" unicode="&#xfb;" horiz-adv-x="1177" 
d="M496 1081v-665q0 -60 19.5 -84.5t59.5 -24.5q59 0 99 43v731h432v-1081h-369l-32 121q-40 -66 -118.5 -106t-183.5 -40q-166 0 -253 88t-87 265v753h433zM586 1333l-133 -157l-275 10l203 336h407l183 -336l-269 -10z" />
    <glyph glyph-name="udieresis" unicode="&#xfc;" horiz-adv-x="1177" 
d="M496 1081v-665q0 -60 19.5 -84.5t59.5 -24.5q59 0 99 43v731h432v-1081h-369l-32 121q-40 -66 -118.5 -106t-183.5 -40q-166 0 -253 88t-87 265v753h433zM549 1405q0 -96 -64.5 -154.5t-169.5 -58.5q-106 0 -172.5 58.5t-66.5 154.5t66.5 154.5t172.5 58.5
q105 0 169.5 -58.5t64.5 -154.5zM1085 1405q0 -97 -64.5 -155t-170.5 -58t-172 58.5t-66 154.5t66 154.5t172 58.5t170.5 -58t64.5 -155z" />
    <glyph glyph-name="yacute" unicode="&#xfd;" horiz-adv-x="1161" 
d="M432 1081l158 -661h10l148 661h446q-44 -125 -184.5 -534t-212.5 -608q-38 -110 -74 -179.5t-88 -121t-122.5 -73.5t-170.5 -22q-63 0 -144.5 15.5t-121.5 33.5l26 295q97 -32 154 -32q48 0 73 18t40 53l18 41l-420 1114h465zM426 1184l106 329h439l-266 -342z" />
    <glyph glyph-name="thorn" unicode="&#xfe;" horiz-adv-x="1234" 
d="M774 1104q68 0 127.5 -18t112 -58.5t90 -102t59 -154t21.5 -208.5q0 -127 -22 -227.5t-60.5 -167.5t-93 -111t-116.5 -63t-134 -19q-98 0 -156.5 24t-109.5 75v-508h-418v1980h426v-561q103 119 274 119zM502 342q12 -14 44.5 -26.5t55.5 -12.5q66 0 96.5 58.5
t30.5 183.5q0 123 -31 176t-94 53q-50 0 -102 -37v-395z" />
    <glyph glyph-name="ydieresis" unicode="&#xff;" horiz-adv-x="1161" 
d="M432 1081l158 -661h10l148 661h446q-44 -125 -184.5 -534t-212.5 -608q-38 -110 -74 -179.5t-88 -121t-122.5 -73.5t-170.5 -22q-63 0 -144.5 15.5t-121.5 33.5l26 295q97 -32 154 -32q48 0 73 18t40 53l18 41l-420 1114h465zM557 1405q0 -96 -64 -154.5t-169 -58.5
q-107 0 -173.5 58.5t-66.5 154.5t66.5 154.5t173.5 58.5q105 0 169 -58.5t64 -154.5zM1094 1405q0 -96 -65 -154.5t-171 -58.5t-171.5 58.5t-65.5 154.5t65.5 154.5t171.5 58.5t171 -58.5t65 -154.5z" />
    <glyph glyph-name="Amacron" unicode="&#x100;" horiz-adv-x="1484" 
d="M1516 0h-484l-98 289h-420l-82 -289h-463l475 1483h539zM705 1073l-130 -450h273l-131 450h-12zM377 1858h670v-267h-670v267z" />
    <glyph glyph-name="amacron" unicode="&#x101;" horiz-adv-x="1169" 
d="M1034 317q0 -44 13.5 -62.5t50.5 -18.5q22 0 63 12l8 -225q-33 -15 -113.5 -32.5t-133.5 -17.5q-112 0 -182.5 36t-98.5 120q-99 -154 -295 -154q-77 0 -136 19.5t-93.5 49t-56.5 69.5t-29.5 75.5t-7.5 73.5q0 67 18.5 120.5t49 91t77.5 66t95 45t111.5 27.5t117.5 16
t122 7v49q0 54 -12 94q-9 41 -76 41q-49 0 -72.5 -27.5t-41.5 -97.5l-355 62q13 80 45 141.5t89 109t148.5 72.5t215.5 25q479 0 479 -391v-396zM616 424q-24 0 -46.5 -3t-50.5 -12t-45 -29.5t-17 -49.5q0 -30 18 -52t53 -22q50 0 88 27v141zM217 1454h678v-266h-678v266z
" />
    <glyph glyph-name="Abreve" unicode="&#x102;" horiz-adv-x="1484" 
d="M1516 0h-484l-98 289h-420l-82 -289h-463l475 1483h539zM705 1073l-130 -450h273l-131 450h-12zM721 1800q61 0 91.5 27.5t43.5 101.5l260 -16q-33 -352 -409 -352q-164 0 -271 79q-108 80 -117 267l273 26q11 -70 40.5 -101.5t88.5 -31.5z" />
    <glyph glyph-name="abreve" unicode="&#x103;" horiz-adv-x="1169" 
d="M1034 317q0 -44 13.5 -62.5t50.5 -18.5q22 0 63 12l8 -225q-33 -15 -113.5 -32.5t-133.5 -17.5q-112 0 -182.5 36t-98.5 120q-99 -154 -295 -154q-77 0 -136 19.5t-93.5 49t-56.5 69.5t-29.5 75.5t-7.5 73.5q0 67 18.5 120.5t49 91t77.5 66t95 45t111.5 27.5t117.5 16
t122 7v49q0 54 -12 94q-9 41 -76 41q-49 0 -72.5 -27.5t-41.5 -97.5l-355 62q13 80 45 141.5t89 109t148.5 72.5t215.5 25q479 0 479 -391v-396zM616 424q-24 0 -46.5 -3t-50.5 -12t-45 -29.5t-17 -49.5q0 -30 18 -52t53 -22q50 0 88 27v141zM958 1501q-39 -340 -409 -340
q-161 0 -268 76q-108 77 -117 258l272 27q12 -64 41.5 -92.5t85.5 -28.5q58 0 87 25t48 92z" />
    <glyph glyph-name="Aogonek" unicode="&#x104;" horiz-adv-x="1497" 
d="M1577 -270q-32 -113 -119.5 -178.5t-208.5 -65.5q-138 0 -205 57t-67 160q0 157 201 297h-134l-98 289h-420l-82 -289h-462l475 1483h538l533 -1483q-117 -31 -185.5 -101t-68.5 -126q0 -32 12 -45t39 -13q57 0 84 86zM717 1073l-129 -450h272l-131 450h-12z" />
    <glyph glyph-name="aogonek" unicode="&#x105;" horiz-adv-x="1169" 
d="M1212 -270q-32 -113 -119 -178.5t-208 -65.5q-138 0 -205.5 57t-67.5 160q0 152 185 285q-118 28 -156 141q-99 -154 -295 -154q-77 0 -136 19.5t-93.5 49t-56.5 69.5t-29.5 75.5t-7.5 73.5q0 67 18.5 120.5t49 91t77.5 66t95 45t111.5 27.5t117.5 16t122 7v49
q0 54 -12 94q-9 41 -76 41q-49 0 -72.5 -27.5t-41.5 -97.5l-355 62q13 80 45 141.5t89 109t148.5 72.5t215.5 25q479 0 479 -391v-396q0 -44 13.5 -62.5t50.5 -18.5q22 0 63 12l8 -225q-104 -28 -182 -111t-78 -139q0 -32 12.5 -45t39.5 -13q56 0 83 86zM616 424
q-24 0 -46.5 -3t-50.5 -12t-45 -29.5t-17 -49.5q0 -30 18 -52t53 -22q50 0 88 27v141z" />
    <glyph glyph-name="Cacute" unicode="&#x106;" horiz-adv-x="1429" 
d="M768 -25q-191 0 -329.5 51t-223 150.5t-124.5 236.5t-40 318q0 169 45.5 308.5t134.5 245.5t232.5 165t329.5 59q134 0 243 -33t192.5 -99.5t130.5 -177t50 -257.5l-401 -39q-1 143 -57.5 202.5t-166.5 59.5q-134 0 -203 -100t-69 -317q0 -229 65.5 -329t208.5 -100
q61 0 104 18t67.5 53t37 69t21.5 82l393 -62q-11 -109 -55.5 -196.5t-108 -144t-145.5 -94t-164.5 -53.5t-167.5 -16zM596 1585l170 297h438l-313 -309z" />
    <glyph glyph-name="cacute" unicode="&#x107;" horiz-adv-x="1126" 
d="M584 -25q-265 0 -405 148t-140 393q0 277 151 432.5t428 155.5q220 0 346 -109.5t146 -318.5l-377 -55q-9 97 -30 138.5t-85 41.5q-66 0 -96 -54t-30 -190q0 -147 26.5 -209.5t102.5 -62.5q70 0 103 43t44 135l342 -64q-29 -212 -165 -318t-361 -106zM442 1184l107 329
h438l-266 -342z" />
    <glyph glyph-name="Ccircumflex" unicode="&#x108;" horiz-adv-x="1429" 
d="M768 -25q-191 0 -329.5 51t-223 150.5t-124.5 236.5t-40 318q0 169 45.5 308.5t134.5 245.5t232.5 165t329.5 59q134 0 243 -33t192.5 -99.5t130.5 -177t50 -257.5l-401 -39q-1 143 -57.5 202.5t-166.5 59.5q-134 0 -203 -100t-69 -317q0 -229 65.5 -329t208.5 -100
q61 0 104 18t67.5 53t37 69t21.5 82l393 -62q-11 -109 -55.5 -196.5t-108 -144t-145.5 -94t-164.5 -53.5t-167.5 -16zM653 1573l-274 10l199 318h413l180 -316l-264 -10l-121 137z" />
    <glyph glyph-name="ccircumflex" unicode="&#x109;" horiz-adv-x="1126" 
d="M584 -25q-265 0 -405 148t-140 393q0 277 151 432.5t428 155.5q220 0 346 -109.5t146 -318.5l-377 -55q-9 97 -30 138.5t-85 41.5q-66 0 -96 -54t-30 -190q0 -147 26.5 -209.5t102.5 -62.5q70 0 103 43t44 135l342 -64q-29 -212 -165 -318t-361 -106zM610 1333l-133 -157
l-274 10l203 336h407l182 -336l-268 -10z" />
    <glyph glyph-name="Cdotaccent" unicode="&#x10a;" horiz-adv-x="1429" 
d="M768 -25q-191 0 -329.5 51t-223 150.5t-124.5 236.5t-40 318q0 169 45.5 308.5t134.5 245.5t232.5 165t329.5 59q134 0 243 -33t192.5 -99.5t130.5 -177t50 -257.5l-401 -39q-1 143 -57.5 202.5t-166.5 59.5q-134 0 -203 -100t-69 -317q0 -229 65.5 -329t208.5 -100
q61 0 104 18t67.5 53t37 69t21.5 82l393 -62q-11 -109 -55.5 -196.5t-108 -144t-145.5 -94t-164.5 -53.5t-167.5 -16zM1022 1819q0 -113 -62.5 -176.5t-177.5 -63.5q-112 0 -175.5 63.5t-63.5 176.5q0 112 63 172.5t176 60.5q116 0 178 -60.5t62 -172.5z" />
    <glyph glyph-name="cdotaccent" unicode="&#x10b;" horiz-adv-x="1126" 
d="M584 -25q-265 0 -405 148t-140 393q0 277 151 432.5t428 155.5q220 0 346 -109.5t146 -318.5l-377 -55q-9 97 -30 138.5t-85 41.5q-66 0 -96 -54t-30 -190q0 -147 26.5 -209.5t102.5 -62.5q70 0 103 43t44 135l342 -64q-29 -212 -165 -318t-361 -106zM846 1399
q0 -113 -62.5 -176.5t-177.5 -63.5q-112 0 -175.5 63.5t-63.5 176.5q0 112 63 172.5t176 60.5q116 0 178 -60.5t62 -172.5z" />
    <glyph glyph-name="Ccaron" unicode="&#x10c;" horiz-adv-x="1429" 
d="M768 -25q-191 0 -329.5 51t-223 150.5t-124.5 236.5t-40 318q0 169 45.5 308.5t134.5 245.5t232.5 165t329.5 59q134 0 243 -33t192.5 -99.5t130.5 -177t50 -257.5l-401 -39q-1 143 -57.5 202.5t-166.5 59.5q-134 0 -203 -100t-69 -317q0 -229 65.5 -329t208.5 -100
q61 0 104 18t67.5 53t37 69t21.5 82l393 -62q-11 -109 -55.5 -196.5t-108 -144t-145.5 -94t-164.5 -53.5t-167.5 -16zM913 1907l275 -11l-199 -317h-414l-180 315l264 11l121 -138z" />
    <glyph glyph-name="ccaron" unicode="&#x10d;" horiz-adv-x="1126" 
d="M584 -25q-265 0 -405 148t-140 393q0 277 151 432.5t428 155.5q220 0 346 -109.5t146 -318.5l-377 -55q-9 97 -30 138.5t-85 41.5q-66 0 -96 -54t-30 -190q0 -147 26.5 -209.5t102.5 -62.5q70 0 103 43t44 135l342 -64q-29 -212 -165 -318t-361 -106zM612 1360l131 156
l269 -11l-203 -334h-408l-182 334l273 8z" />
    <glyph glyph-name="Dcaron" unicode="&#x10e;" horiz-adv-x="1476" 
d="M104 1483h586q374 0 554.5 -188t180.5 -531q0 -173 -46 -311.5t-138.5 -240.5t-241 -157t-344.5 -55h-551v1483zM625 340q88 0 151 19.5t101.5 52.5t60.5 87.5t29.5 114t7.5 142.5q0 222 -70 306.5t-250 84.5h-106v-807h76zM795 1907l274 -11l-199 -317h-413l-181 315
l265 11l121 -138z" />
    <glyph glyph-name="dcaron" unicode="&#x10f;" horiz-adv-x="1492" 
d="M805 0l-25 100l-10 2q-89 -127 -283 -127q-203 0 -320.5 132.5t-117.5 406.5q0 127 27.5 229.5t72.5 168.5t105.5 110.5t123 63t128.5 18.5q77 0 129.5 -18t97.5 -60v520h428v-1546h-356zM733 752q-31 26 -78 26q-75 0 -112 -69.5t-37 -176.5q0 -104 34.5 -167.5
t108.5 -63.5q51 0 84 27v424zM1663 1546l-145 -420l-297 21l67 399h375z" />
    <glyph glyph-name="Dcroat" unicode="&#x110;" horiz-adv-x="1564" 
d="M193 594h-111v319h111v570h585q374 0 554.5 -188t180.5 -531q0 -173 -46 -311.5t-138.5 -240.5t-241 -157t-344.5 -55h-550v594zM713 340q88 0 151 19.5t101.5 52.5t60.5 87.5t29.5 114t7.5 142.5q0 222 -70 306.5t-250 84.5h-106v-234h235v-319h-235v-254h76z" />
    <glyph glyph-name="dslash" unicode="&#x111;" horiz-adv-x="1236" 
d="M752 1411v135h409v-135h96v-231h-96v-1180h-356l-25 100l-10 2q-89 -127 -283 -127q-100 0 -178 30.5t-137.5 94.5t-91 172t-31.5 256q0 118 27.5 214t72.5 158t105 104.5t123 60.5t129 18q161 0 246 -98v195h-334v231h334zM733 731q-41 27 -78 27q-75 0 -112 -65.5
t-37 -164.5q0 -104 34.5 -165.5t108.5 -61.5q51 0 84 27v403z" />
    <glyph glyph-name="Emacron" unicode="&#x112;" horiz-adv-x="1230" 
d="M1169 360v-360h-1065v1483h1014v-353h-569v-231h541v-338h-541v-201h620zM289 1858h669v-267h-669v267z" />
    <glyph glyph-name="emacron" unicode="&#x113;" horiz-adv-x="1122" 
d="M596 -25q-121 0 -217 31t-159 83t-104.5 125t-59 152.5t-17.5 170.5q0 140 43 250t118 178.5t173 103.5t213 35q499 0 499 -522q0 -93 -4 -115h-587q0 -100 27 -143t100 -43q54 0 86.5 31.5t40.5 84.5l337 -84q-28 -152 -151 -245t-338 -93zM645 682q0 48 -6 78t-18 43.5
t-23 17.5t-29 4q-38 0 -56.5 -30.5t-18.5 -112.5h151zM242 1454h678v-266h-678v266z" />
    <glyph glyph-name="Ebreve" unicode="&#x114;" horiz-adv-x="1230" 
d="M1169 360v-360h-1065v1483h1014v-353h-569v-231h541v-338h-541v-201h620zM633 1800q61 0 91.5 27.5t43.5 101.5l260 -16q-33 -352 -410 -352q-163 0 -270 79q-108 80 -117 267l273 26q11 -70 40.5 -101.5t88.5 -31.5z" />
    <glyph glyph-name="ebreve" unicode="&#x115;" horiz-adv-x="1122" 
d="M596 -25q-121 0 -217 31t-159 83t-104.5 125t-59 152.5t-17.5 170.5q0 140 43 250t118 178.5t173 103.5t213 35q499 0 499 -522q0 -93 -4 -115h-587q0 -100 27 -143t100 -43q54 0 86.5 31.5t40.5 84.5l337 -84q-28 -152 -151 -245t-338 -93zM645 682q0 48 -6 78t-18 43.5
t-23 17.5t-29 4q-38 0 -56.5 -30.5t-18.5 -112.5h151zM983 1501q-39 -340 -410 -340q-161 0 -268 76q-108 77 -117 258l273 27q12 -64 41.5 -92.5t85.5 -28.5q58 0 87 25t48 92z" />
    <glyph glyph-name="Edotaccent" unicode="&#x116;" horiz-adv-x="1230" 
d="M1169 360v-360h-1065v1483h1014v-353h-569v-231h541v-338h-541v-201h620zM864 1819q0 -113 -62 -176.5t-177 -63.5q-113 0 -176.5 63.5t-63.5 176.5q0 112 63.5 172.5t176.5 60.5q115 0 177 -60t62 -173z" />
    <glyph glyph-name="edotaccent" unicode="&#x117;" horiz-adv-x="1122" 
d="M596 -25q-121 0 -217 31t-159 83t-104.5 125t-59 152.5t-17.5 170.5q0 140 43 250t118 178.5t173 103.5t213 35q499 0 499 -522q0 -93 -4 -115h-587q0 -100 27 -143t100 -43q54 0 86.5 31.5t40.5 84.5l337 -84q-28 -152 -151 -245t-338 -93zM645 682q0 48 -6 78t-18 43.5
t-23 17.5t-29 4q-38 0 -56.5 -30.5t-18.5 -112.5h151zM821 1399q0 -113 -62 -176.5t-177 -63.5q-112 0 -176 63.5t-64 176.5q0 112 63.5 172.5t176.5 60.5q115 0 177 -60t62 -173z" />
    <glyph glyph-name="Eogonek" unicode="&#x118;" horiz-adv-x="1230" 
d="M1200 -270q-32 -113 -119.5 -178.5t-208.5 -65.5q-138 0 -205 57t-67 160q0 157 201 297h-697v1483h1014v-353h-569v-231h541v-338h-541v-201h620v-360h-120q-76 -73 -114 -127.5t-38 -99.5q0 -32 12 -45t39 -13q57 0 84 86z" />
    <glyph glyph-name="eogonek" unicode="&#x119;" horiz-adv-x="1122" 
d="M991 -270q-32 -113 -119 -178.5t-208 -65.5q-138 0 -205.5 57t-67.5 160q0 142 168 272q-140 6 -243.5 54.5t-162.5 128t-86.5 174.5t-27.5 205q0 140 43 250t118 178.5t173 103.5t213 35q499 0 499 -522q0 -93 -4 -115h-587q0 -100 27 -143t100 -43q54 0 86.5 31.5
t40.5 84.5l337 -84q-32 -172 -211 -297q-86 -61 -136 -127t-50 -116q0 -32 12 -45t39 -13q57 0 84 86zM645 682q0 48 -6 78t-18 43.5t-23 17.5t-29 4q-38 0 -56.5 -30.5t-18.5 -112.5h151z" />
    <glyph glyph-name="Ecaron" unicode="&#x11a;" horiz-adv-x="1230" 
d="M1169 360v-360h-1065v1483h1014v-353h-569v-231h541v-338h-541v-201h620zM756 1907l274 -11l-199 -317h-413l-180 315l264 11l121 -138z" />
    <glyph glyph-name="ecaron" unicode="&#x11b;" horiz-adv-x="1122" 
d="M596 -25q-121 0 -217 31t-159 83t-104.5 125t-59 152.5t-17.5 170.5q0 140 43 250t118 178.5t173 103.5t213 35q499 0 499 -522q0 -93 -4 -115h-587q0 -100 27 -143t100 -43q54 0 86.5 31.5t40.5 84.5l337 -84q-28 -152 -151 -245t-338 -93zM645 682q0 48 -6 78t-18 43.5
t-23 17.5t-29 4q-38 0 -56.5 -30.5t-18.5 -112.5h151zM588 1360l131 156l268 -11l-203 -334h-407l-182 334l272 8z" />
    <glyph glyph-name="Gcircumflex" unicode="&#x11c;" horiz-adv-x="1517" 
d="M1079 164q-52 -95 -162.5 -142t-240.5 -47q-162 0 -284 55t-195.5 155t-109.5 232t-36 296q0 174 45 317t134.5 251t234 168t332.5 60q131 0 236.5 -29t190 -91t134.5 -167t59 -249l-411 -39q-2 35 -5.5 57.5t-17 59t-34.5 58.5t-61.5 39t-96.5 17q-149 0 -213 -105
t-64 -308q0 -60 2 -105.5t9 -93.5t19 -82.5t32.5 -66t49 -51t69 -31t91.5 -11.5q211 0 211 166v12h-145v287h590v-776h-320zM664 1573l-275 10l199 318h413l181 -316l-264 -10l-121 137z" />
    <glyph glyph-name="gcircumflex" unicode="&#x11d;" horiz-adv-x="1163" 
d="M594 1104q186 0 315 -70q27 89 99.5 138.5t171.5 21.5v-260q-85 19 -162 6q67 -90 67 -223q0 -179 -133 -278t-366 -99q-100 0 -197 20q-32 -32 -22.5 -59.5t53.5 -28.5l346 -18q381 -16 381 -324q0 -196 -151.5 -293.5t-428.5 -97.5q-290 0 -422.5 57t-132.5 181
q0 67 52.5 111.5t156.5 45.5v11q-194 57 -194 213q0 83 46 141t146 119q-151 103 -151 282q0 85 32.5 157.5t96 128t165.5 87t232 31.5zM596 1333l-133 -157l-275 10l203 336h408l182 -336l-268 -10zM705 717q0 57 -30.5 87t-84.5 30t-88.5 -30.5t-34.5 -90.5
q0 -111 119 -111q51 0 85 30.5t34 84.5zM737 -160q0 26 -19 38t-75 13l-242 15q-16 -16 -16 -47q0 -25 19 -42t54.5 -23.5t65 -8.5t70.5 -2q143 0 143 57z" />
    <glyph glyph-name="Gbreve" unicode="&#x11e;" horiz-adv-x="1517" 
d="M1079 164q-52 -95 -162.5 -142t-240.5 -47q-162 0 -284 55t-195.5 155t-109.5 232t-36 296q0 174 45 317t134.5 251t234 168t332.5 60q131 0 236.5 -29t190 -91t134.5 -167t59 -249l-411 -39q-2 35 -5.5 57.5t-17 59t-34.5 58.5t-61.5 39t-96.5 17q-149 0 -213 -105
t-64 -308q0 -60 2 -105.5t9 -93.5t19 -82.5t32.5 -66t49 -51t69 -31t91.5 -11.5q211 0 211 166v12h-145v287h590v-776h-320zM801 1800q61 0 91.5 27.5t43.5 101.5l260 -16q-33 -352 -410 -352q-163 0 -270 79q-108 80 -117 267l273 26q11 -70 40.5 -101.5t88.5 -31.5z" />
    <glyph glyph-name="gbreve" unicode="&#x11f;" horiz-adv-x="1163" 
d="M571 1104q188 0 279 -47q15 80 66 136t133 56q33 0 77 -12v-250q-40 4 -82 -0.5t-63 -15.5q104 -107 104 -254q0 -179 -133 -278t-366 -99q-100 0 -197 20q-32 -32 -22 -59t53 -29l346 -18q381 -16 381 -324q0 -196 -151.5 -293.5t-428.5 -97.5q-290 0 -422.5 57
t-132.5 181q0 67 52.5 111.5t156.5 45.5v11q-194 57 -194 213q0 83 46 141t146 119q-151 103 -151 282q0 176 130.5 290t372.5 114zM705 717q0 57 -30.5 87t-84.5 30t-88.5 -30.5t-34.5 -90.5q0 -111 119 -111q51 0 85 30.5t34 84.5zM737 -160q0 26 -19 38t-75 13l-242 15
q-16 -16 -16 -47q0 -25 19 -42t54.5 -23.5t65 -8.5t70.5 -2q143 0 143 57zM975 1501q-39 -340 -410 -340q-161 0 -268 76q-108 77 -117 258l273 27q12 -64 41.5 -92.5t85.5 -28.5q58 0 87 25t48 92z" />
    <glyph glyph-name="Gdotaccent" unicode="&#x120;" horiz-adv-x="1517" 
d="M1079 164q-52 -95 -162.5 -142t-240.5 -47q-162 0 -284 55t-195.5 155t-109.5 232t-36 296q0 174 45 317t134.5 251t234 168t332.5 60q131 0 236.5 -29t190 -91t134.5 -167t59 -249l-411 -39q-2 35 -5.5 57.5t-17 59t-34.5 58.5t-61.5 39t-96.5 17q-149 0 -213 -105
t-64 -308q0 -60 2 -105.5t9 -93.5t19 -82.5t32.5 -66t49 -51t69 -31t91.5 -11.5q211 0 211 166v12h-145v287h590v-776h-320zM1032 1819q0 -113 -62 -176.5t-177 -63.5q-113 0 -176.5 63.5t-63.5 176.5q0 112 63.5 172.5t176.5 60.5q115 0 177 -60t62 -173z" />
    <glyph glyph-name="gdotaccent" unicode="&#x121;" horiz-adv-x="1163" 
d="M571 1104q188 0 279 -47q15 80 66 136t133 56q33 0 77 -12v-250q-40 4 -82 -0.5t-63 -15.5q104 -107 104 -254q0 -179 -133 -278t-366 -99q-100 0 -197 20q-32 -32 -22 -59t53 -29l346 -18q381 -16 381 -324q0 -196 -151.5 -293.5t-428.5 -97.5q-290 0 -422.5 57
t-132.5 181q0 67 52.5 111.5t156.5 45.5v11q-194 57 -194 213q0 83 46 141t146 119q-151 103 -151 282q0 176 130.5 290t372.5 114zM705 717q0 57 -30.5 87t-84.5 30t-88.5 -30.5t-34.5 -90.5q0 -111 119 -111q51 0 85 30.5t34 84.5zM737 -160q0 26 -19 38t-75 13l-242 15
q-16 -16 -16 -47q0 -25 19 -42t54.5 -23.5t65 -8.5t70.5 -2q143 0 143 57zM813 1399q0 -113 -62.5 -176.5t-177.5 -63.5q-112 0 -175.5 63.5t-63.5 176.5q0 112 63 172.5t176 60.5q116 0 178 -60.5t62 -172.5z" />
    <glyph glyph-name="uni0122" unicode="&#x122;" horiz-adv-x="1517" 
d="M1079 164q-52 -95 -162.5 -142t-240.5 -47q-162 0 -284 55t-195.5 155t-109.5 232t-36 296q0 174 45 317t134.5 251t234 168t332.5 60q131 0 236.5 -29t190 -91t134.5 -167t59 -249l-411 -39q-2 35 -5.5 57.5t-17 59t-34.5 58.5t-61.5 39t-96.5 17q-149 0 -213 -105
t-64 -308q0 -60 2 -105.5t9 -93.5t19 -82.5t32.5 -66t49 -51t69 -31t91.5 -11.5q211 0 211 166v12h-145v287h590v-776h-320zM965 -137l-201 -481l-287 36l111 445h377z" />
    <glyph glyph-name="uni0123" unicode="&#x123;" horiz-adv-x="1163" 
d="M571 1104q188 0 279 -47q15 80 66 136t133 56q33 0 77 -12v-250q-40 4 -82 -0.5t-63 -15.5q104 -107 104 -254q0 -179 -133 -278t-366 -99q-100 0 -197 20q-32 -32 -22 -59t53 -29l346 -18q381 -16 381 -324q0 -196 -151.5 -293.5t-428.5 -97.5q-290 0 -422.5 57
t-132.5 181q0 67 52.5 111.5t156.5 45.5v11q-194 57 -194 213q0 83 46 141t146 119q-151 103 -151 282q0 176 130.5 290t372.5 114zM705 717q0 57 -30.5 87t-84.5 30t-88.5 -30.5t-34.5 -90.5q0 -111 119 -111q51 0 85 30.5t34 84.5zM737 -160q0 26 -19 38t-75 13l-242 15
q-16 -16 -16 -47q0 -25 19 -42t54.5 -23.5t65 -8.5t70.5 -2q143 0 143 57zM377 1165l201 484l286 -39l-110 -445h-377z" />
    <glyph glyph-name="Hcircumflex" unicode="&#x124;" horiz-adv-x="1511" 
d="M963 0v551h-414v-551h-445v1483h445v-565h414v565h444v-1483h-444zM627 1573l-275 10l199 318h414l180 -316l-264 -10l-121 137z" />
    <glyph glyph-name="hcircumflex" unicode="&#x125;" horiz-adv-x="1196" 
d="M698 0v666q0 61 -23 84.5t-65 23.5q-68 0 -108 -43v-731h-432v1546h426v-563q108 121 292 121q174 0 258 -88t84 -273v-743h-432zM160 1616l-275 10l199 318h414l180 -316l-264 -10l-121 137z" />
    <glyph glyph-name="Hbar" unicode="&#x126;" horiz-adv-x="1566" 
d="M1546 1356v-277h-112v-1079h-445v551h-414v-551h-444v1079h-111v277h111v127h444v-127h414v127h445v-127h112zM989 1079h-414v-161h414v161z" />
    <glyph glyph-name="hbar" unicode="&#x127;" horiz-adv-x="1196" 
d="M70 1411v135h426v-135h358v-231h-358v-217q107 120 292 120q174 0 258 -87.5t84 -272.5v-723h-432v645q0 61 -23.5 85t-64.5 24q-68 0 -108 -43v-711h-432v1180h-90v231h90z" />
    <glyph glyph-name="Itilde" unicode="&#x128;" horiz-adv-x="653" 
d="M117 0v1483h444v-1483h-444zM188 1954q60 0 115.5 -21t101 -42t82.5 -21q29 0 37 17.5t8 58.5l197 -11q10 -63 3 -121.5t-26 -104t-64.5 -72.5t-111.5 -27q-52 0 -100.5 13.5t-78.5 29.5t-64.5 29.5t-61.5 13.5q-33 0 -45 -19t-2 -65l-219 8q-18 146 42.5 240t186.5 94z
" />
    <glyph glyph-name="itilde" unicode="&#x129;" horiz-adv-x="585" 
d="M90 0v1081h432v-1081h-432zM162 1528q60 0 115.5 -21t101 -42t82.5 -21q29 0 37 17.5t8 58.5l196 -11q10 -63 3.5 -121.5t-26 -104t-64.5 -72.5t-111 -27q-52 0 -100.5 13.5t-78.5 29.5t-64.5 29.5t-61.5 13.5q-34 0 -45.5 -19t-1.5 -65l-220 8q-18 145 43 239.5
t187 94.5z" />
    <glyph glyph-name="Imacron" unicode="&#x12a;" horiz-adv-x="653" 
d="M104 0v1483h445v-1483h-445zM-8 1858h670v-267h-670v267z" />
    <glyph glyph-name="imacron" unicode="&#x12b;" horiz-adv-x="585" 
d="M78 0v1081h432v-1081h-432zM-45 1454h678v-266h-678v266z" />
    <glyph glyph-name="Ibreve" unicode="&#x12c;" horiz-adv-x="653" 
d="M104 0v1483h445v-1483h-445zM336 1800q61 0 91.5 27.5t43.5 101.5l260 -16q-33 -352 -409 -352q-164 0 -271 79q-108 80 -117 267l273 26q11 -70 40.5 -101.5t88.5 -31.5z" />
    <glyph glyph-name="ibreve" unicode="&#x12d;" horiz-adv-x="585" 
d="M78 0v1081h432v-1081h-432zM696 1501q-39 -340 -409 -340q-162 0 -269 76t-116 258l272 27q12 -64 41.5 -92.5t85.5 -28.5q58 0 87 25t48 92z" />
    <glyph glyph-name="Iogonek" unicode="&#x12e;" horiz-adv-x="653" 
d="M627 -270q-32 -113 -119.5 -178.5t-208.5 -65.5q-138 0 -205 57t-67 160q0 158 200 297h-123v1483h445v-1483q-103 -41 -164 -108t-61 -119q0 -32 12 -45t39 -13q57 0 84 86z" />
    <glyph glyph-name="iogonek" unicode="&#x12f;" horiz-adv-x="585" 
d="M584 -270q-32 -113 -119.5 -178.5t-208.5 -65.5q-138 0 -205 57t-67 160q0 158 200 297h-106v1081h432v-1081q-109 -47 -169 -111t-60 -116q0 -32 12 -45t39 -13q57 0 84 86zM535 1399q0 -113 -63.5 -176.5t-178.5 -63.5q-112 0 -175 63.5t-63 176.5q0 112 62.5 172.5
t175.5 60.5q116 0 179 -60.5t63 -172.5z" />
    <glyph glyph-name="Idot" unicode="&#x130;" horiz-adv-x="653" 
d="M104 0v1483h445v-1483h-445zM567 1819q0 -113 -62 -176.5t-177 -63.5q-112 0 -176 63.5t-64 176.5q0 112 63.5 172.5t176.5 60.5q115 0 177 -60t62 -173z" />
    <glyph glyph-name="dotlessi" unicode="&#x131;" horiz-adv-x="585" 
d="M78 0v1081h432v-1081h-432z" />
    <glyph glyph-name="IJ" unicode="&#x132;" horiz-adv-x="1800" 
d="M104 0v1483h445v-1483h-445zM1704 1483v-1030q0 -220 -138.5 -349t-385.5 -129q-86 0 -156 11.5t-138 43.5t-114.5 83.5t-76.5 136t-33 196.5l428 62q2 -33 3 -48.5t3.5 -41.5t6.5 -38t10.5 -28.5t16 -24t23 -13t31.5 -5.5q44 0 60 31t16 92v1051h444z" />
    <glyph glyph-name="ij" unicode="&#x133;" horiz-adv-x="1171" 
d="M78 0v1081h432v-1081h-432zM535 1399q0 -113 -63.5 -176.5t-178.5 -63.5q-112 0 -175 63.5t-63 176.5q0 112 62.5 172.5t175.5 60.5q116 0 179 -60.5t63 -172.5zM635 -457q-106 0 -186 22t-119 50l24 285q87 -45 181 -45q58 0 93.5 31t35.5 118v1077h432v-1116
q0 -111 -35 -194t-99 -132t-145.5 -72.5t-181.5 -23.5zM1118 1395q0 -113 -62 -176.5t-177 -63.5q-113 0 -176.5 63.5t-63.5 176.5q0 112 63.5 172.5t176.5 60.5q115 0 177 -60t62 -173z" />
    <glyph glyph-name="Jcircumflex" unicode="&#x134;" horiz-adv-x="1146" 
d="M1051 1483v-1030q0 -220 -138.5 -349t-386.5 -129q-86 0 -156 11.5t-138 43.5t-114.5 83.5t-76.5 136t-33 196.5l428 62q2 -33 3 -48.5t3.5 -41.5t6.5 -38t10.5 -28.5t16 -24t23 -13t31.5 -5.5q44 0 60 31t16 92v1051h445zM698 1573l-274 10l199 318h413l181 -316
l-265 -10l-121 137z" />
    <glyph glyph-name="jcircumflex" unicode="&#x135;" horiz-adv-x="585" 
d="M49 -457q-106 0 -186 22t-119 50l25 285q87 -45 180 -45q58 0 93.5 31t35.5 118v1077h432v-1116q0 -111 -35 -194t-99 -132t-145.5 -72.5t-181.5 -23.5zM299 1333l-133 -157l-275 10l203 336h408l182 -336l-268 -10z" />
    <glyph glyph-name="uni0136" unicode="&#x136;" horiz-adv-x="1437" 
d="M1030 1483h459l-500 -598l455 -885h-516l-258 547l-123 -137v-410h-443v1483h443l2 -572zM944 -137l-201 -481l-286 36l110 445h377z" />
    <glyph glyph-name="uni0137" unicode="&#x137;" horiz-adv-x="1222" 
d="M760 1081h473l-344 -387l371 -694h-480l-227 436l-47 -45v-391h-432v1546h432v-760zM821 -137l-200 -481l-287 36l110 445h377z" />
    <glyph glyph-name="kgreenlandic" unicode="&#x138;" horiz-adv-x="1222" 
d="M760 1081h473l-344 -387l371 -694h-480l-227 436l-47 -45v-391h-432v1079h432v-293z" />
    <glyph glyph-name="Lacute" unicode="&#x139;" horiz-adv-x="1198" 
d="M1153 360v-360h-1049v1483h445v-1123h604zM139 1585l170 297h439l-314 -309z" />
    <glyph glyph-name="lacute" unicode="&#x13a;" horiz-adv-x="585" 
d="M78 0v1546h432v-1546h-432zM113 1614l170 297h438l-313 -309z" />
    <glyph glyph-name="uni013B" unicode="&#x13b;" horiz-adv-x="1198" 
d="M1153 360v-360h-1049v1483h445v-1123h604zM854 -137l-201 -481l-286 36l110 445h377z" />
    <glyph glyph-name="uni013C" unicode="&#x13c;" horiz-adv-x="585" 
d="M78 0v1546h432v-1546h-432zM504 -137l-201 -481l-287 36l111 445h377z" />
    <glyph glyph-name="Lcaron" unicode="&#x13d;" horiz-adv-x="1198" 
d="M1153 360v-360h-1049v1483h445v-1123h604zM1135 1483l-146 -420l-297 20l68 400h375z" />
    <glyph glyph-name="lcaron" unicode="&#x13e;" horiz-adv-x="835" 
d="M78 0v1546h432v-1546h-432zM1012 1546l-146 -420l-297 21l68 399h375z" />
    <glyph glyph-name="Ldot" unicode="&#x13f;" horiz-adv-x="1198" 
d="M1153 360v-360h-1049v1483h445v-1123h604zM1165 860q0 -113 -62 -176t-177 -63q-113 0 -176.5 63.5t-63.5 175.5t63.5 173t176.5 61q115 0 177 -60.5t62 -173.5z" />
    <glyph glyph-name="ldot" unicode="&#x140;" horiz-adv-x="974" 
d="M78 0v1546h432v-1546h-432zM1008 788q0 -107 -59 -167t-167 -60q-106 0 -165.5 60.5t-59.5 166.5q0 105 59.5 162.5t165.5 57.5q109 0 167.5 -57t58.5 -163z" />
    <glyph glyph-name="Lslash" unicode="&#x141;" horiz-adv-x="1198" 
d="M868 1124v-323l-319 -127v-314h604v-360h-1049v516l-124 -49v321l124 50v645h445v-488z" />
    <glyph glyph-name="lslash" unicode="&#x142;" horiz-adv-x="761" 
d="M711 1079v-315l-113 -47v-717h-432v584l-115 -45v315l115 47v645h432v-512z" />
    <glyph glyph-name="Nacute" unicode="&#x143;" horiz-adv-x="1525" 
d="M506 868v-868h-402v1483h508l412 -885v885h397v-1483h-497zM578 1585l170 297h438l-314 -309z" />
    <glyph glyph-name="nacute" unicode="&#x144;" horiz-adv-x="1196" 
d="M698 0v666q0 61 -23 84.5t-65 23.5q-68 0 -108 -43v-731h-432v1081h383l20 -100q45 54 123.5 88.5t181.5 34.5q183 0 267.5 -87.5t84.5 -273.5v-743h-432zM424 1184l106 329h439l-267 -342z" />
    <glyph glyph-name="uni0145" unicode="&#x145;" horiz-adv-x="1525" 
d="M506 868v-868h-402v1483h508l412 -885v885h397v-1483h-497zM991 -137l-200 -481l-287 36l110 445h377z" />
    <glyph glyph-name="uni0146" unicode="&#x146;" horiz-adv-x="1196" 
d="M698 0v666q0 61 -23 84.5t-65 23.5q-68 0 -108 -43v-731h-432v1081h383l20 -100q45 54 123.5 88.5t181.5 34.5q183 0 267.5 -87.5t84.5 -273.5v-743h-432zM813 -137l-201 -481l-286 36l110 445h377z" />
    <glyph glyph-name="Ncaron" unicode="&#x147;" horiz-adv-x="1525" 
d="M506 868v-868h-402v1483h508l412 -885v885h397v-1483h-497zM895 1907l274 -11l-198 -317h-414l-180 315l264 11l121 -138z" />
    <glyph glyph-name="ncaron" unicode="&#x148;" horiz-adv-x="1196" 
d="M698 0v666q0 61 -23 84.5t-65 23.5q-68 0 -108 -43v-731h-432v1081h383l20 -100q45 54 123.5 88.5t181.5 34.5q183 0 267.5 -87.5t84.5 -273.5v-743h-432zM594 1360l131 156l268 -11l-202 -334h-408l-182 334l272 8z" />
    <glyph glyph-name="napostrophe" unicode="&#x149;" horiz-adv-x="1607" 
d="M535 1620l-197 -535l-307 29l108 506h396zM1110 0v666q0 61 -23 84.5t-65 23.5q-69 0 -109 -43v-731h-432v1081h383l21 -100q45 54 123.5 88.5t181.5 34.5q183 0 267.5 -87.5t84.5 -273.5v-743h-432z" />
    <glyph glyph-name="Eng" unicode="&#x14a;" horiz-adv-x="1406" 
d="M852 -455q-104 0 -182.5 21.5t-120.5 48.5l24 285q87 -45 179 -45q56 0 91.5 30.5t35.5 118.5v983q0 73 -33 129q-35 60 -125 60q-65 0 -115 -15.5t-69 -36.5v-1124h-433v1483h383l21 -109q46 53 144 92t222 39q122 0 208 -31.5t135.5 -93t71.5 -141.5t22 -186v-1086
q0 -111 -35 -194t-99 -132t-145 -72.5t-180 -23.5z" />
    <glyph glyph-name="eng" unicode="&#x14b;" horiz-adv-x="1196" 
d="M670 -457q-106 0 -186 22t-119 50l24 285q87 -45 180 -45q58 0 93.5 31t35.5 118v662q0 61 -23 84.5t-65 23.5q-68 0 -108 -43v-731h-432v1081h383l20 -100q45 54 123.5 88.5t181.5 34.5q183 0 267.5 -87.5t84.5 -273.5v-778q0 -111 -35 -194t-98.5 -132t-145 -72.5
t-181.5 -23.5z" />
    <glyph glyph-name="Omacron" unicode="&#x14c;" horiz-adv-x="1558" 
d="M768 -25q-190 0 -330.5 55t-224 157t-123 236.5t-39.5 305.5q0 167 47 307.5t138 247t236.5 166t332.5 59.5q150 0 270 -39t200 -106.5t133 -163.5t76 -205.5t23 -236.5q0 -182 -43.5 -324t-132.5 -245.5t-231 -158.5t-332 -55zM784 319q63 0 110 20t84 66.5t56 130
t19 203.5q0 228 -62 324t-196 96q-145 0 -215 -98t-70 -322q0 -159 32 -252.5t90 -130.5t152 -37zM461 1858h669v-267h-669v267z" />
    <glyph glyph-name="omacron" unicode="&#x14d;" horiz-adv-x="1222" 
d="M594 -25q-555 0 -555 560q0 268 144.5 418.5t439.5 150.5q150 0 260 -40.5t175 -115t95.5 -172.5t30.5 -221q0 -275 -145 -427.5t-445 -152.5zM610 262q67 0 95 61t28 222q0 154 -24.5 210t-92.5 56q-47 0 -73 -22.5t-38.5 -80.5t-12.5 -165q0 -163 23.5 -222t94.5 -59z
M266 1454h678v-266h-678v266z" />
    <glyph glyph-name="Obreve" unicode="&#x14e;" horiz-adv-x="1558" 
d="M768 -25q-190 0 -330.5 55t-224 157t-123 236.5t-39.5 305.5q0 167 47 307.5t138 247t236.5 166t332.5 59.5q150 0 270 -39t200 -106.5t133 -163.5t76 -205.5t23 -236.5q0 -182 -43.5 -324t-132.5 -245.5t-231 -158.5t-332 -55zM784 319q63 0 110 20t84 66.5t56 130
t19 203.5q0 228 -62 324t-196 96q-145 0 -215 -98t-70 -322q0 -159 32 -252.5t90 -130.5t152 -37zM805 1800q61 0 91.5 27.5t43.5 101.5l260 -16q-33 -352 -409 -352q-164 0 -271 79q-108 80 -117 267l273 26q11 -70 40.5 -101.5t88.5 -31.5z" />
    <glyph glyph-name="obreve" unicode="&#x14f;" horiz-adv-x="1222" 
d="M594 -25q-555 0 -555 560q0 268 144.5 418.5t439.5 150.5q150 0 260 -40.5t175 -115t95.5 -172.5t30.5 -221q0 -275 -145 -427.5t-445 -152.5zM610 262q67 0 95 61t28 222q0 154 -24.5 210t-92.5 56q-47 0 -73 -22.5t-38.5 -80.5t-12.5 -165q0 -163 23.5 -222t94.5 -59z
M1008 1501q-39 -340 -410 -340q-161 0 -268 76q-108 77 -117 258l272 27q12 -64 41.5 -92.5t85.5 -28.5q58 0 87.5 25t48.5 92z" />
    <glyph glyph-name="Ohungarumlaut" unicode="&#x150;" horiz-adv-x="1558" 
d="M768 -25q-190 0 -330.5 55t-224 157t-123 236.5t-39.5 305.5q0 167 47 307.5t138 247t236.5 166t332.5 59.5q150 0 270 -39t200 -106.5t133 -163.5t76 -205.5t23 -236.5q0 -182 -43.5 -324t-132.5 -245.5t-231 -158.5t-332 -55zM784 319q63 0 110 20t84 66.5t56 130
t19 203.5q0 228 -62 324t-196 96q-145 0 -215 -98t-70 -322q0 -159 32 -252.5t90 -130.5t152 -37zM471 1606l70 280h409l-219 -305zM831 1585l177 301h438l-336 -313z" />
    <glyph glyph-name="ohungarumlaut" unicode="&#x151;" horiz-adv-x="1222" 
d="M594 -25q-555 0 -555 560q0 268 144.5 418.5t439.5 150.5q150 0 260 -40.5t175 -115t95.5 -172.5t30.5 -221q0 -275 -145 -427.5t-445 -152.5zM610 262q67 0 95 61t28 222q0 154 -24.5 210t-92.5 56q-47 0 -73 -22.5t-38.5 -80.5t-12.5 -165q0 -163 23.5 -222t94.5 -59z
M289 1196l30 320h412l-180 -345zM647 1184l144 332h430l-295 -345z" />
    <glyph glyph-name="OE" unicode="&#x152;" horiz-adv-x="2160" 
d="M1100 84q-61 -53 -157.5 -81t-201.5 -28q-184 0 -319.5 55t-215.5 157.5t-117.5 236.5t-37.5 305q0 167 46 308t134 247t227 165.5t316 59.5q208 0 326 -112v86h968v-353h-569v-231h539v-338h-539v-201h621v-360h-1020v84zM784 319q63 0 110 20t84 66.5t56 130t19 203.5
q0 228 -62 324t-196 96q-145 0 -215 -98t-70 -322q0 -159 32 -252.5t90 -130.5t152 -37z" />
    <glyph glyph-name="oe" unicode="&#x153;" horiz-adv-x="1789" 
d="M1290 -25q-136 0 -221 52q-83 53 -127 106q-150 -158 -375 -158q-140 0 -243.5 41t-165 117t-90.5 175.5t-29 226.5q0 267 141.5 418t423.5 151q213 0 350 -146q55 64 139 105t183 41q240 0 358.5 -136.5t118.5 -387.5q0 -91 -4 -113h-588q0 -98 27.5 -142t99.5 -44
q53 0 86 32t41 84l338 -84q-25 -150 -149 -244t-314 -94zM610 262q67 0 95 61t28 222q0 154 -24.5 210t-92.5 56q-47 0 -73 -22.5t-38.5 -80.5t-12.5 -165q0 -163 23.5 -222t94.5 -59zM1313 682q0 48 -6 78t-18 43.5t-23 17.5t-29 4q-38 0 -57 -31t-19 -112h152z" />
    <glyph glyph-name="Racute" unicode="&#x154;" horiz-adv-x="1349" 
d="M862 0l-246 524h-69v-524h-443v1483h650q134 0 233.5 -34t157 -95t85 -136t27.5 -165q0 -285 -227 -422l311 -631h-479zM596 844q205 0 205 166q0 143 -162 143h-92v-309h49zM418 1585l170 297h438l-313 -309z" />
    <glyph glyph-name="racute" unicode="&#x155;" horiz-adv-x="866" 
d="M858 702q-220 9 -356 -84v-618h-432v1081h370l31 -184q20 38 46 70.5t65 65.5t93.5 52t117.5 19q19 0 65 -4v-398zM328 1184l106 329h438l-266 -342z" />
    <glyph glyph-name="uni0156" unicode="&#x156;" horiz-adv-x="1349" 
d="M862 0l-246 524h-69v-524h-443v1483h650q134 0 233.5 -34t157 -95t85 -136t27.5 -165q0 -285 -227 -422l311 -631h-479zM596 844q205 0 205 166q0 143 -162 143h-92v-309h49zM899 -137l-201 -481l-286 36l110 445h377z" />
    <glyph glyph-name="uni0157" unicode="&#x157;" horiz-adv-x="866" 
d="M858 702q-220 9 -356 -84v-618h-432v1081h370l31 -184q20 38 46 70.5t65 65.5t93.5 52t117.5 19q19 0 65 -4v-398zM494 -137l-201 -481l-287 36l111 445h377z" />
    <glyph glyph-name="Rcaron" unicode="&#x158;" horiz-adv-x="1349" 
d="M862 0l-246 524h-69v-524h-443v1483h650q134 0 233.5 -34t157 -95t85 -136t27.5 -165q0 -285 -227 -422l311 -631h-479zM596 844q205 0 205 166q0 143 -162 143h-92v-309h49zM735 1907l275 -11l-199 -317h-414l-180 315l264 11l121 -138z" />
    <glyph glyph-name="rcaron" unicode="&#x159;" horiz-adv-x="866" 
d="M858 702q-220 9 -356 -84v-618h-432v1081h370l31 -184q20 38 46 70.5t65 65.5t93.5 52t117.5 19q19 0 65 -4v-398zM498 1360l131 156l268 -11l-203 -334h-407l-183 334l273 8z" />
    <glyph glyph-name="Sacute" unicode="&#x15a;" horiz-adv-x="1245" 
d="M614 1198q-141 0 -141 -100q0 -68 74 -103q95 -37 182 -59q45 -12 74 -19.5t74 -22.5t75 -28.5t69 -35.5t65 -45t53.5 -55.5t43 -69t26 -83.5t10.5 -100q0 -129 -51 -228.5t-138.5 -157.5t-194.5 -87t-229 -29q-56 0 -102.5 3t-110.5 14.5t-114.5 31.5t-103.5 57.5
t-89 88t-60.5 127.5t-27.5 172l393 53q6 -44 12.5 -74t22 -62.5t38.5 -51t62 -31t92 -12.5q175 0 175 125q0 23 -8 42t-29 34t-37 24.5t-54.5 21t-57.5 16.5t-68 17q-41 9 -67 15.5t-67 18t-68.5 23t-64 28t-61.5 35.5t-53 43.5t-46 55t-34 66t-23.5 80t-7.5 94.5
q0 93 30.5 172t84 135t127 95t159.5 58t181 19q89 0 161 -9t149 -37t129.5 -74.5t87.5 -128t38 -191.5l-401 -45q0 99 -42 136.5t-137 37.5zM449 1585l169 297h439l-314 -309z" />
    <glyph glyph-name="sacute" unicode="&#x15b;" horiz-adv-x="1056" 
d="M543 1104q177 0 297 -67t174 -197l-328 -117q-21 49 -64 82t-92 33q-75 0 -75 -54q0 -19 13 -32t42.5 -21.5t54 -13t69.5 -10.5q3 0 5 -0.5t5 -1t5 -0.5q44 -6 73.5 -11.5t73.5 -17.5t73.5 -26.5t63 -39.5t53 -56.5t33 -77t13.5 -101.5q0 -103 -44 -182t-119.5 -125.5
t-168 -69.5t-198.5 -23q-229 0 -344 74q-117 79 -146 182l338 134q23 -54 59.5 -88.5t106.5 -34.5q105 0 105 53q0 20 -13.5 34t-44 24t-55.5 15t-72 13q-45 7 -75 13t-74 19.5t-74.5 29t-64 42t-54 59t-34 79.5t-13.5 104q0 74 26.5 136.5t72.5 106.5t108.5 74.5t135.5 45
t153 14.5zM375 1184l106 329h439l-267 -342z" />
    <glyph glyph-name="Scircumflex" unicode="&#x15c;" horiz-adv-x="1245" 
d="M614 1198q-141 0 -141 -100q0 -68 74 -103q95 -37 182 -59q45 -12 74 -19.5t74 -22.5t75 -28.5t69 -35.5t65 -45t53.5 -55.5t43 -69t26 -83.5t10.5 -100q0 -129 -51 -228.5t-138.5 -157.5t-194.5 -87t-229 -29q-56 0 -102.5 3t-110.5 14.5t-114.5 31.5t-103.5 57.5
t-89 88t-60.5 127.5t-27.5 172l393 53q6 -44 12.5 -74t22 -62.5t38.5 -51t62 -31t92 -12.5q175 0 175 125q0 23 -8 42t-29 34t-37 24.5t-54.5 21t-57.5 16.5t-68 17q-41 9 -67 15.5t-67 18t-68.5 23t-64 28t-61.5 35.5t-53 43.5t-46 55t-34 66t-23.5 80t-7.5 94.5
q0 93 30.5 172t84 135t127 95t159.5 58t181 19q89 0 161 -9t149 -37t129.5 -74.5t87.5 -128t38 -191.5l-401 -45q0 99 -42 136.5t-137 37.5zM506 1573l-275 10l199 318h414l180 -316l-264 -10l-121 137z" />
    <glyph glyph-name="scircumflex" unicode="&#x15d;" horiz-adv-x="1056" 
d="M543 1104q177 0 297 -67t174 -197l-328 -117q-21 49 -64 82t-92 33q-75 0 -75 -54q0 -19 13 -32t42.5 -21.5t54 -13t69.5 -10.5q3 0 5 -0.5t5 -1t5 -0.5q44 -6 73.5 -11.5t73.5 -17.5t73.5 -26.5t63 -39.5t53 -56.5t33 -77t13.5 -101.5q0 -103 -44 -182t-119.5 -125.5
t-168 -69.5t-198.5 -23q-229 0 -344 74q-117 79 -146 182l338 134q23 -54 59.5 -88.5t106.5 -34.5q105 0 105 53q0 20 -13.5 34t-44 24t-55.5 15t-72 13q-45 7 -75 13t-74 19.5t-74.5 29t-64 42t-54 59t-34 79.5t-13.5 104q0 74 26.5 136.5t72.5 106.5t108.5 74.5t135.5 45
t153 14.5zM543 1333l-133 -157l-275 10l203 336h407l183 -336l-269 -10z" />
    <glyph glyph-name="Scedilla" unicode="&#x15e;" horiz-adv-x="1245" 
d="M399 -340q52 -8 99 -8q106 0 106 67q0 28 -18.5 43.5t-40.5 19.5t-58 5l25 190q-75 6 -137 18.5t-134 46.5t-121.5 85t-84 139t-37.5 203l393 53q6 -44 12.5 -74t22 -62.5t38.5 -51t62 -31t92 -12.5q175 0 175 125q0 27 -14.5 49.5t-34 37t-57.5 28.5t-68 22t-82 20
q-171 43 -243 75q-184 82 -230 247q-17 61 -17 135q0 93 30.5 172t84 135t127 95t159.5 58t181 19q89 0 161 -9t149 -37t129.5 -74.5t87.5 -128t38 -191.5l-401 -45q0 99 -42 136.5t-137 37.5q-141 0 -141 -100q0 -69 76 -103q91 -36 184 -59q58 -15 96 -26t94 -32t93 -43
t79 -57.5t66.5 -76.5t41 -98.5t16.5 -125.5q0 -96 -28.5 -175.5t-77 -135t-116.5 -95.5t-144.5 -61.5t-164.5 -29.5l-8 -74q83 -14 135.5 -60t52.5 -135q0 -125 -86.5 -189.5t-226.5 -64.5q-73 0 -172 21z" />
    <glyph glyph-name="scedilla" unicode="&#x15f;" horiz-adv-x="1056" 
d="M319 -340q52 -8 99 -8q106 0 106 67q0 40 -30.5 53t-85.5 15l24 190q-182 11 -285.5 79.5t-134.5 174.5l338 134q23 -54 59.5 -88.5t106.5 -34.5q105 0 105 53q0 20 -13.5 34t-44 24t-55.5 15t-72 13q-45 7 -75 13t-74 19.5t-74.5 29t-64 42t-54 59t-34 79.5t-13.5 104
q0 74 26.5 136.5t72.5 106.5t108.5 74.5t135.5 45t153 14.5q177 0 297 -67t174 -197l-328 -117q-21 49 -64 82t-92 33q-75 0 -75 -54q0 -19 15 -32.5t39 -21t58.5 -13.5t70.5 -11q7 0 11 -1q58 -6 103.5 -15t101 -32t92 -56.5t61.5 -92t25 -134.5q0 -91 -33.5 -162.5
t-93 -117.5t-133 -74t-162.5 -39l-10 -76q83 -14 135.5 -60t52.5 -135q0 -125 -86.5 -189.5t-226.5 -64.5q-73 0 -172 21z" />
    <glyph glyph-name="Scaron" unicode="&#x160;" horiz-adv-x="1245" 
d="M614 1198q-141 0 -141 -100q0 -68 74 -103q95 -37 182 -59q45 -12 74 -19.5t74 -22.5t75 -28.5t69 -35.5t65 -45t53.5 -55.5t43 -69t26 -83.5t10.5 -100q0 -129 -51 -228.5t-138.5 -157.5t-194.5 -87t-229 -29q-56 0 -102.5 3t-110.5 14.5t-114.5 31.5t-103.5 57.5
t-89 88t-60.5 127.5t-27.5 172l393 53q6 -44 12.5 -74t22 -62.5t38.5 -51t62 -31t92 -12.5q175 0 175 125q0 23 -8 42t-29 34t-37 24.5t-54.5 21t-57.5 16.5t-68 17q-41 9 -67 15.5t-67 18t-68.5 23t-64 28t-61.5 35.5t-53 43.5t-46 55t-34 66t-23.5 80t-7.5 94.5
q0 93 30.5 172t84 135t127 95t159.5 58t181 19q89 0 161 -9t149 -37t129.5 -74.5t87.5 -128t38 -191.5l-401 -45q0 99 -42 136.5t-137 37.5zM766 1907l274 -11l-198 -317h-414l-180 315l264 11l121 -138z" />
    <glyph glyph-name="scaron" unicode="&#x161;" horiz-adv-x="1056" 
d="M543 1104q177 0 297 -67t174 -197l-328 -117q-21 49 -64 82t-92 33q-75 0 -75 -54q0 -19 13 -32t42.5 -21.5t54 -13t69.5 -10.5q3 0 5 -0.5t5 -1t5 -0.5q44 -6 73.5 -11.5t73.5 -17.5t73.5 -26.5t63 -39.5t53 -56.5t33 -77t13.5 -101.5q0 -103 -44 -182t-119.5 -125.5
t-168 -69.5t-198.5 -23q-229 0 -344 74q-117 79 -146 182l338 134q23 -54 59.5 -88.5t106.5 -34.5q105 0 105 53q0 20 -13.5 34t-44 24t-55.5 15t-72 13q-45 7 -75 13t-74 19.5t-74.5 29t-64 42t-54 59t-34 79.5t-13.5 104q0 74 26.5 136.5t72.5 106.5t108.5 74.5t135.5 45
t153 14.5zM545 1360l131 156l268 -11l-203 -334h-407l-182 334l272 8z" />
    <glyph glyph-name="uni0162" unicode="&#x162;" horiz-adv-x="1302" 
d="M434 -340q52 -8 98 -8q107 0 107 67q0 28 -18.5 43.5t-40.5 19.5t-58 5l27 213h-117v1130h-426v353h1290v-353h-419v-1130h-150l-12 -94q83 -14 135.5 -60t52.5 -135q0 -125 -86.5 -189.5t-226.5 -64.5q-73 0 -172 21z" />
    <glyph glyph-name="uni0163" unicode="&#x163;" horiz-adv-x="909" 
d="M305 -340q52 -8 98 -8q107 0 107 67q0 28 -18.5 43.5t-40.5 19.5t-58 5l25 199q-271 48 -271 376v426h-155v293h155v324l433 53v-377h276v-293h-276v-378q0 -61 23 -88t77 -27q68 0 170 45l51 -274q-43 -27 -125.5 -53t-181.5 -36l-8 -71q83 -14 135.5 -60t52.5 -135
q0 -125 -86.5 -189.5t-226.5 -64.5q-73 0 -172 21z" />
    <glyph glyph-name="Tcaron" unicode="&#x164;" horiz-adv-x="1302" 
d="M432 1130h-426v353h1290v-353h-419v-1130h-445v1130zM782 1907l275 -11l-199 -317h-414l-180 315l264 11l121 -138z" />
    <glyph glyph-name="tcaron" unicode="&#x165;" horiz-adv-x="909" 
d="M901 66q-52 -33 -152 -62t-214 -29q-191 0 -289.5 94t-98.5 293v426h-155v293h155v324l433 53v-377h276v-293h-276v-378q0 -61 23 -88t77 -27q68 0 170 45zM1083 1610l-145 -420l-297 20l68 400h374z" />
    <glyph glyph-name="Tbar" unicode="&#x166;" horiz-adv-x="1302" 
d="M432 524h-274v330h274v276h-426v353h1290v-353h-419v-276h268v-330h-268v-524h-445v524z" />
    <glyph glyph-name="tbar" unicode="&#x167;" horiz-adv-x="909" 
d="M901 66q-52 -33 -152 -62t-214 -29q-191 0 -289.5 94t-98.5 293v74h-155v266h155v86h-155v293h155v324l433 53v-377h276v-293h-276v-86h276v-266h-276v-26q0 -61 23 -88t77 -27q68 0 170 45z" />
    <glyph glyph-name="Utilde" unicode="&#x168;" horiz-adv-x="1437" 
d="M723 319q34 0 60.5 4t46 15.5t33 23t22.5 34.5t14.5 42t8 54t3 62t0.5 73v856h441v-916q0 -156 -47.5 -271.5t-134.5 -185t-201.5 -102.5t-257.5 -33q-328 0 -478.5 144t-150.5 461v903h444v-848v-56.5t1.5 -50.5t4 -47.5t7 -40.5t12 -37t18 -28.5t25 -24.5t33.5 -16.5
t43 -11.5t53 -3zM567 1954q60 0 115.5 -21t101 -42t82.5 -21q29 0 37 17.5t8 58.5l197 -11q10 -63 3 -121.5t-26 -104t-64.5 -72.5t-111.5 -27q-52 0 -100.5 13.5t-78.5 29.5t-64.5 29.5t-61.5 13.5q-34 0 -45.5 -19t-1.5 -65l-219 8q-18 146 42.5 240t186.5 94z" />
    <glyph glyph-name="utilde" unicode="&#x169;" horiz-adv-x="1177" 
d="M496 1081v-665q0 -60 19.5 -84.5t59.5 -24.5q59 0 99 43v731h432v-1081h-369l-32 121q-40 -66 -118.5 -106t-183.5 -40q-166 0 -253 88t-87 265v753h433zM436 1528q60 0 115.5 -21t101 -42t82.5 -21q29 0 37 17.5t8 58.5l197 -11q10 -63 3 -121.5t-26 -104t-64.5 -72.5
t-111.5 -27q-52 0 -100.5 13.5t-78.5 29.5t-64.5 29.5t-61.5 13.5q-33 0 -45 -19t-2 -65l-219 8q-18 146 42.5 240t186.5 94z" />
    <glyph glyph-name="Umacron" unicode="&#x16a;" horiz-adv-x="1437" 
d="M723 319q34 0 60.5 4t46 15.5t33 23t22.5 34.5t14.5 42t8 54t3 62t0.5 73v856h441v-916q0 -156 -47.5 -271.5t-134.5 -185t-201.5 -102.5t-257.5 -33q-328 0 -478.5 144t-150.5 461v903h444v-848v-56.5t1.5 -50.5t4 -47.5t7 -40.5t12 -37t18 -28.5t25 -24.5t33.5 -16.5
t43 -11.5t53 -3zM383 1858h670v-267h-670v267z" />
    <glyph glyph-name="umacron" unicode="&#x16b;" horiz-adv-x="1177" 
d="M496 1081v-665q0 -60 19.5 -84.5t59.5 -24.5q59 0 99 43v731h432v-1081h-369l-32 121q-40 -66 -118.5 -106t-183.5 -40q-166 0 -253 88t-87 265v753h433zM242 1454h678v-266h-678v266z" />
    <glyph glyph-name="Ubreve" unicode="&#x16c;" horiz-adv-x="1437" 
d="M723 319q34 0 60.5 4t46 15.5t33 23t22.5 34.5t14.5 42t8 54t3 62t0.5 73v856h441v-916q0 -156 -47.5 -271.5t-134.5 -185t-201.5 -102.5t-257.5 -33q-328 0 -478.5 144t-150.5 461v903h444v-848v-56.5t1.5 -50.5t4 -47.5t7 -40.5t12 -37t18 -28.5t25 -24.5t33.5 -16.5
t43 -11.5t53 -3zM727 1800q61 0 91.5 27.5t43.5 101.5l260 -16q-33 -352 -409 -352q-164 0 -271 79t-116 267l272 26q11 -70 40.5 -101.5t88.5 -31.5z" />
    <glyph glyph-name="ubreve" unicode="&#x16d;" horiz-adv-x="1177" 
d="M496 1081v-665q0 -60 19.5 -84.5t59.5 -24.5q59 0 99 43v731h432v-1081h-369l-32 121q-40 -66 -118.5 -106t-183.5 -40q-166 0 -253 88t-87 265v753h433zM983 1501q-39 -340 -410 -340q-161 0 -268 76q-108 77 -117 258l273 27q12 -64 41.5 -92.5t85.5 -28.5q58 0 87 25
t48 92z" />
    <glyph glyph-name="Uring" unicode="&#x16e;" horiz-adv-x="1437" 
d="M723 319q34 0 60.5 4t46 15.5t33 23t22.5 34.5t14.5 42t8 54t3 62t0.5 73v856h441v-916q0 -156 -47.5 -271.5t-134.5 -185t-201.5 -102.5t-257.5 -33q-328 0 -478.5 144t-150.5 461v903h444v-848v-56.5t1.5 -50.5t4 -47.5t7 -40.5t12 -37t18 -28.5t25 -24.5t33.5 -16.5
t43 -11.5t53 -3zM973 1714q0 -112 -70.5 -172.5t-183.5 -60.5q-112 0 -183 60t-71 167q0 114 73 177t181 63q109 0 181.5 -62.5t72.5 -171.5zM717 1626q92 0 92 94q0 90 -90 90q-43 0 -69.5 -22.5t-26.5 -65.5q0 -49 25.5 -72.5t68.5 -23.5z" />
    <glyph glyph-name="uring" unicode="&#x16f;" horiz-adv-x="1177" 
d="M496 1081v-665q0 -60 19.5 -84.5t59.5 -24.5q59 0 99 43v731h432v-1081h-369l-32 121q-40 -66 -118.5 -106t-183.5 -40q-166 0 -253 88t-87 265v753h433zM825 1382q0 -105 -67.5 -163t-175.5 -58q-109 0 -176.5 57t-67.5 160q0 110 70 171t174 61q106 0 174.5 -61
t68.5 -167zM580 1305q79 0 79 77q0 37 -21.5 57.5t-55.5 20.5t-58 -20.5t-24 -55.5q0 -79 80 -79z" />
    <glyph glyph-name="Uhungarumlaut" unicode="&#x170;" horiz-adv-x="1437" 
d="M723 319q34 0 60.5 4t46 15.5t33 23t22.5 34.5t14.5 42t8 54t3 62t0.5 73v856h441v-916q0 -156 -47.5 -271.5t-134.5 -185t-201.5 -102.5t-257.5 -33q-328 0 -478.5 144t-150.5 461v903h444v-848v-56.5t1.5 -50.5t4 -47.5t7 -40.5t12 -37t18 -28.5t25 -24.5t33.5 -16.5
t43 -11.5t53 -3zM393 1606l70 280h409l-219 -305zM754 1585l176 301h438l-336 -313z" />
    <glyph glyph-name="uhungarumlaut" unicode="&#x171;" horiz-adv-x="1177" 
d="M496 1081v-665q0 -60 19.5 -84.5t59.5 -24.5q59 0 99 43v731h432v-1081h-369l-32 121q-40 -66 -118.5 -106t-183.5 -40q-166 0 -253 88t-87 265v753h433zM264 1196l31 320h412l-181 -345zM623 1184l143 332h430l-295 -345z" />
    <glyph glyph-name="Uogonek" unicode="&#x172;" horiz-adv-x="1437" 
d="M1174 -270q-32 -113 -119.5 -178.5t-208.5 -65.5q-138 0 -205.5 57t-67.5 160q0 142 168 272h-30q-328 0 -478.5 144t-150.5 461v903h444v-848v-56.5t1.5 -50.5t4 -47.5t7 -40.5t12 -37t18 -28.5t25 -24.5t33.5 -16.5t43 -11.5t53 -3q34 0 60.5 4t46 15.5t33 23
t22.5 34.5t14.5 42t8 54t3 62t0.5 73v856h441v-916q0 -102 -20.5 -185t-60.5 -146t-88.5 -110t-115.5 -93q-86 -58 -141.5 -133.5t-55.5 -126.5q0 -32 12.5 -45t39.5 -13q57 0 84 86z" />
    <glyph glyph-name="uogonek" unicode="&#x173;" horiz-adv-x="1177" 
d="M1200 -270q-32 -113 -119.5 -178.5t-208.5 -65.5q-138 0 -205 57t-67 160q0 89 54 157.5t173 139.5h-90l-32 121q-40 -66 -118.5 -106t-183.5 -40q-166 0 -253 88t-87 265v753h433v-665q0 -60 19.5 -84.5t59.5 -24.5q59 0 99 43v731h432v-1081q-106 -53 -157.5 -114
t-51.5 -113q0 -32 12 -45t39 -13q57 0 84 86z" />
    <glyph glyph-name="Wcircumflex" unicode="&#x174;" horiz-adv-x="2129" 
d="M1077 842h-12l-156 -842h-598l-311 1483h461l166 -1034h12l203 1034h465l217 -1030h16l141 1030h449l-322 -1483h-567zM944 1573l-274 10l198 318h414l180 -316l-264 -10l-121 137z" />
    <glyph glyph-name="wcircumflex" unicode="&#x175;" horiz-adv-x="1777" 
d="M-29 1081h428l138 -651h6l145 651h412l151 -647h11l120 647h424l-311 -1081h-477l-127 573h-8l-101 -573h-512zM901 1333l-133 -157l-274 10l202 336h408l182 -336l-268 -10z" />
    <glyph glyph-name="Ycircumflex" unicode="&#x176;" horiz-adv-x="1323" 
d="M457 0v541l-518 942h483l256 -555h16l244 555h446l-483 -942l2 -541h-446zM555 1573l-274 10l198 318h414l180 -316l-264 -10l-121 137z" />
    <glyph glyph-name="ycircumflex" unicode="&#x177;" horiz-adv-x="1161" 
d="M432 1081l158 -661h10l148 661h446q-44 -125 -184.5 -534t-212.5 -608q-38 -110 -74 -179.5t-88 -121t-122.5 -73.5t-170.5 -22q-63 0 -144.5 15.5t-121.5 33.5l26 295q97 -32 154 -32q48 0 73 18t40 53l18 41l-420 1114h465zM594 1333l-133 -157l-275 10l203 336h408
l182 -336l-268 -10z" />
    <glyph glyph-name="Ydieresis" unicode="&#x178;" horiz-adv-x="1323" 
d="M457 0v541l-518 942h483l256 -555h16l244 555h446l-483 -942l2 -541h-446zM651 1790q0 -96 -64 -154.5t-169 -58.5q-107 0 -173.5 58.5t-66.5 154.5t66.5 154.5t173.5 58.5q105 0 169 -58.5t64 -154.5zM1188 1790q0 -96 -65 -154.5t-171 -58.5t-171.5 58.5t-65.5 154.5
t65.5 154.5t171.5 58.5t171 -58.5t65 -154.5z" />
    <glyph glyph-name="Zacute" unicode="&#x179;" horiz-adv-x="1220" 
d="M1184 360v-360h-1143v315l612 815h-600v353h1106v-318l-590 -805h615zM424 1585l170 297h438l-313 -309z" />
    <glyph glyph-name="zacute" unicode="&#x17a;" horiz-adv-x="968" 
d="M936 319v-319h-887v281l391 507h-391v293h850v-280l-371 -482h408zM319 1184l107 329h438l-266 -342z" />
    <glyph glyph-name="Zdotaccent" unicode="&#x17b;" horiz-adv-x="1220" 
d="M1184 360v-360h-1143v315l612 815h-600v353h1106v-318l-590 -805h615zM850 1819q0 -113 -62.5 -176.5t-177.5 -63.5q-112 0 -175.5 63.5t-63.5 176.5q0 112 63 172.5t176 60.5q116 0 178 -60.5t62 -172.5z" />
    <glyph glyph-name="zdotaccent" unicode="&#x17c;" horiz-adv-x="968" 
d="M936 319v-319h-887v281l391 507h-391v293h850v-280l-371 -482h408zM723 1399q0 -113 -62.5 -176.5t-177.5 -63.5q-112 0 -175.5 63.5t-63.5 176.5q0 112 63 172.5t176 60.5q116 0 178 -60.5t62 -172.5z" />
    <glyph glyph-name="Zcaron" unicode="&#x17d;" horiz-adv-x="1220" 
d="M1184 360v-360h-1143v315l612 815h-600v353h1106v-318l-590 -805h615zM741 1907l275 -11l-199 -317h-414l-180 315l264 11l121 -138z" />
    <glyph glyph-name="zcaron" unicode="&#x17e;" horiz-adv-x="968" 
d="M936 319v-319h-887v281l391 507h-391v293h850v-280l-371 -482h408zM489 1360l132 156l268 -11l-203 -334h-407l-183 334l273 8z" />
    <glyph glyph-name="longs" unicode="&#x17f;" horiz-adv-x="675" 
d="M70 0v1161q0 107 35.5 187.5t100 129t148 72t185.5 23.5q92 0 169 -14.5t111 -30.5l-16 -277q-79 27 -137 27q-41 0 -67 -5t-50 -21.5t-35.5 -51t-11.5 -88.5v-1112h-432z" />
    <glyph glyph-name="uni0180" unicode="&#x180;" horiz-adv-x="1259" 
d="M-8 1401h106v145h430v-145h326v-221h-326v-191q104 115 281 115q83 0 153.5 -29.5t127.5 -91t89.5 -169t32.5 -251.5q0 -588 -446 -588q-181 0 -283 129l-12 -2l-18 -102h-355v1180h-106v221zM528 340q46 -37 103 -37q60 0 92.5 55t32.5 187q0 36 -1.5 62t-9 59.5
t-20.5 54.5t-38 36t-60 15q-53 0 -99 -37v-395z" />
    <glyph glyph-name="uni0181" unicode="&#x181;" horiz-adv-x="1794" 
d="M1427 770q334 -36 334 -356q0 -111 -43 -192.5t-121.5 -129t-179 -70t-225.5 -22.5h-617v1126h-20q-38 0 -65 -10t-41.5 -24t-22 -38t-9 -42.5t-1.5 -46.5q0 -17 6 -111l-379 -18q-7 13 -15 66t-8 114q0 219 153 343t411 124h651q127 0 218 -27t141.5 -78t73 -114
t22.5 -144q0 -132 -75.5 -219t-187.5 -125v-6zM1020 895h20q112 0 167 30t55 119q0 36 -13 61.5t-30.5 39t-45.5 21t-48.5 9t-49.5 1.5h-55v-281zM1092 303q103 0 149.5 31.5t46.5 118.5q0 50 -13 80.5t-41.5 43.5t-53 16t-68.5 3h-92v-293h72z" />
    <glyph glyph-name="uni0186" unicode="&#x186;" horiz-adv-x="1460" 
d="M668 -25q-108 0 -198.5 19t-167 61.5t-130.5 106.5t-85.5 157.5t-35.5 210.5l402 39q4 -143 58.5 -199.5t164.5 -56.5q134 0 203 101.5t69 322.5q0 230 -65 331t-209 101q-60 0 -102.5 -17.5t-67 -52t-37 -67.5t-23.5 -84l-393 62q12 109 57 196t108 143t144.5 92.5
t163.5 52t168 15.5q375 0 546 -192.5t171 -562.5q0 -134 -27.5 -250.5t-86 -214.5t-145 -167.5t-209.5 -108t-273 -38.5z" />
    <glyph glyph-name="uni0187" unicode="&#x187;" horiz-adv-x="1552" 
d="M768 -25q-152 0 -272.5 35t-203 99.5t-137 159t-79.5 209t-25 253.5q0 168 44.5 308.5t130.5 246t221 164.5t307 59q222 0 344 -116v123q0 128 74 203t227 75q86 0 166 -35l-13 -268q-36 8 -75 8q-44 0 -56 -24.5t-12 -90.5v-442l-401 -39q-4 146 -59 204t-165 58
q-134 0 -203 -98.5t-69 -318.5q0 -229 65.5 -329t208.5 -100q61 0 104 18t67.5 53t37 69t21.5 82l393 -62q-11 -109 -55.5 -196.5t-108 -144t-145.5 -94t-164.5 -53.5t-167.5 -16z" />
    <glyph glyph-name="uni0188" unicode="&#x188;" horiz-adv-x="1269" 
d="M584 -25q-265 0 -405 148t-140 393q0 273 145 430q149 158 402 158q148 0 235 -80v92q0 121 64.5 188.5t201.5 67.5q48 0 99 -10.5t78 -24.5l-17 -268q-34 10 -67 10q-44 0 -57 -29t-13 -98v-272l-334 -49q-12 93 -45.5 133.5t-101.5 40.5q-34 0 -57.5 -10t-42.5 -36.5
t-28 -76.5t-9 -125q0 -147 26.5 -209.5t102.5 -62.5q70 0 103 43t44 135l342 -64q-29 -212 -165 -318t-361 -106z" />
    <glyph glyph-name="uni0189" unicode="&#x189;" horiz-adv-x="1564" 
d="M193 594h-111v319h111v570h585q374 0 554.5 -188t180.5 -531q0 -173 -46 -311.5t-138.5 -240.5t-241 -157t-344.5 -55h-550v594zM713 340q88 0 151 19.5t101.5 52.5t60.5 87.5t29.5 114t7.5 142.5q0 222 -70 306.5t-250 84.5h-106v-234h235v-319h-235v-254h76z" />
    <glyph glyph-name="uni018A" unicode="&#x18a;" horiz-adv-x="1947" 
d="M553 1126q-47 0 -75.5 -12.5t-41.5 -40t-16.5 -54t-3.5 -71.5q0 -29 5 -84l1 -11v1l-379 -18q-7 13 -15 63.5t-8 106.5q0 220 145 345t410 132h586q374 0 554.5 -188t180.5 -531q0 -173 -46 -311.5t-138.5 -240.5t-241 -157t-344.5 -55h-551v1126h-22zM1096 340
q88 0 151 19.5t101.5 52.5t60.5 87.5t29.5 114t7.5 142.5q0 222 -70 306.5t-250 84.5h-106v-807h76z" />
    <glyph glyph-name="uni018E" unicode="&#x18e;" horiz-adv-x="1210" 
d="M41 348h621v213h-539v338h539v240h-570v344h1014v-1483h-1065v348z" />
    <glyph glyph-name="uni018F" unicode="&#x18f;" horiz-adv-x="1486" 
d="M713 -25q-108 0 -202.5 19.5t-180.5 65.5t-146.5 116t-96.5 177.5t-36 242.5q0 118 15 246h907q0 172 -60.5 246.5t-181.5 74.5q-209 0 -256 -209l-399 76q44 245 220.5 362t451.5 117q147 0 262.5 -36t195 -101t131.5 -159t75.5 -205.5t23.5 -245.5q0 -177 -43.5 -319.5
t-130 -248t-226 -162.5t-323.5 -57zM713 315q107 0 170.5 55t81.5 156h-496v-4q0 -38 13 -72.5t39.5 -66t76 -50t115.5 -18.5z" />
    <glyph glyph-name="uni0190" unicode="&#x190;" horiz-adv-x="1263" 
d="M649 -25q-300 0 -458 112.5t-158 322.5q0 64 18 119.5t46 94t66.5 69t76.5 49t79 30.5v10q-52 19 -92 42t-78 59.5t-58.5 91t-20.5 123.5q0 184 147 297.5t420 113.5q83 0 152.5 -10t138.5 -37.5t120.5 -71.5t90.5 -116t57 -168l-383 -86q-28 184 -166 184
q-135 0 -135 -133q0 -77 63.5 -128.5t200.5 -51.5h96v-311h-233q-71 0 -111.5 -39.5t-40.5 -106.5q0 -73 51 -110t126 -37q76 0 128.5 49.5t63.5 120.5l387 -90q-11 -89 -52 -159t-98.5 -113t-133.5 -70.5t-151.5 -38.5t-158.5 -11z" />
    <glyph glyph-name="uni0191" unicode="&#x191;" horiz-adv-x="1144" 
d="M90 -461q-107 0 -192 22.5t-121 49.5l22 285q89 -46 178 -46q127 0 127 148v1485h1006v-344h-561v-265h512v-335h-512v-576q0 -90 -23.5 -162t-64.5 -120.5t-99 -80.5t-125.5 -46.5t-146.5 -14.5z" />
    <glyph glyph-name="florin" unicode="&#x192;" horiz-adv-x="829" 
d="M94 -457q-106 0 -186 22t-117 50l23 285q87 -45 182 -45q58 0 93.5 31t35.5 118v784h-133v293h133v80q0 107 35.5 187.5t100 129t148 72t185.5 23.5q92 0 169 -14.5t111 -30.5l-16 -277q-79 27 -137 27q-41 0 -67 -5t-50 -21.5t-35.5 -51t-11.5 -88.5v-31h272v-293h-272
v-823q0 -111 -35.5 -194t-99.5 -132t-145.5 -72.5t-182.5 -23.5z" />
    <glyph glyph-name="uni0193" unicode="&#x193;" horiz-adv-x="1542" 
d="M676 -25q-162 0 -284 55t-195.5 155t-109.5 232t-36 296q0 174 42 317t126.5 251t223 168t319.5 60q211 0 336 -125v121q0 289 295 289q96 0 172 -35l-13 -270q-27 10 -75 10q-17 0 -29 -5.5t-18 -13t-9 -23t-3.5 -27t-0.5 -33.5v-424l-411 -41q-3 39 -7.5 67t-18.5 61.5
t-36 54.5t-61 35.5t-92 14.5q-149 0 -213 -105t-64 -308q0 -60 2 -105.5t9 -93.5t19 -82.5t32.5 -66t49 -51t69 -31t91.5 -11.5q211 0 211 166v12h-145v287h590v-776h-320l-43 164q-52 -95 -162.5 -142t-240.5 -47z" />
    <glyph glyph-name="uni0194" unicode="&#x194;" horiz-adv-x="1462" 
d="M463 668l-471 815h489l264 -500l267 500h458l-481 -815l432 -668h-1392zM834 256l-127 197l-129 -197h256z" />
    <glyph glyph-name="uni0196" unicode="&#x196;" horiz-adv-x="845" 
d="M469 -25q-191 0 -289 92.5t-98 294.5v1121h432v-1071q0 -117 92 -117q79 0 146 37l53 -275q-129 -82 -336 -82z" />
    <glyph glyph-name="uni0197" unicode="&#x197;" horiz-adv-x="716" 
d="M25 924h110v559h445v-559h112v-332h-112v-592h-445v592h-110v332z" />
    <glyph glyph-name="uni0198" unicode="&#x198;" horiz-adv-x="1595" 
d="M870 1292q99 118 193 167.5t199 49.5q118 0 187.5 -34t106.5 -119.5t39 -233.5l-276 -43q3 99 -53 99q-27 0 -49 -17.5t-56 -58.5l-172 -217l455 -885h-516l-258 547l-123 -137v-410h-443v1483h443l2 -572z" />
    <glyph glyph-name="uni0199" unicode="&#x199;" horiz-adv-x="1222" 
d="M74 1130q0 98 23.5 175t64 126.5t98 82t121 46t137.5 13.5q63 0 136.5 -13.5t123.5 -33.5l-16 -281q-77 17 -109 17q-77 0 -112 -36t-35 -132v-308l254 295h473l-344 -387l371 -694h-480l-227 436l-47 -45v-391h-432v1130z" />
    <glyph glyph-name="uni019A" unicode="&#x19a;" horiz-adv-x="716" 
d="M25 924h110v559h445v-559h112v-332h-112v-592h-445v592h-110v332z" />
    <glyph glyph-name="uni019C" unicode="&#x19c;" horiz-adv-x="1908" 
d="M1823 0h-379l-21 92q-115 -115 -319 -115q-230 0 -316 136q-54 -65 -134.5 -100.5t-207.5 -35.5q-172 0 -268 97t-96 280v1127h448v-1053q0 -109 95 -109q85 0 104 35v1127h449v-1065q0 -97 92 -97q28 0 41.5 1t31.5 8t31 22v1131h449v-1481z" />
    <glyph glyph-name="uni019D" unicode="&#x19d;" horiz-adv-x="1564" 
d="M86 -461q-143 0 -229 45l22 287q82 -21 137 -21q127 0 127 148v1485h508l412 -885v885h397v-1483h-497l-418 868v-913q0 -110 -35.5 -192t-100 -130t-145 -71t-178.5 -23z" />
    <glyph glyph-name="uni019E" unicode="&#x19e;" horiz-adv-x="1196" 
d="M698 666q0 61 -23 84.5t-65 23.5q-68 0 -108 -43v-731h-432v1081h383l20 -100q45 54 123.5 88.5t181.5 34.5q183 0 267.5 -87.5t84.5 -273.5v-1177h-432v1100z" />
    <glyph glyph-name="uni019F" unicode="&#x19f;" horiz-adv-x="1558" 
d="M768 -25q-190 0 -330.5 55t-224 157t-123 236.5t-39.5 305.5q0 167 47 307.5t138 247t236.5 166t332.5 59.5q150 0 270 -39t200 -106.5t133 -163.5t76 -205.5t23 -236.5q0 -182 -43.5 -324t-132.5 -245.5t-231 -158.5t-332 -55zM795 1159q-113 0 -180 -58t-91 -188h516
q-20 131 -80 188.5t-165 57.5zM784 319q105 0 170.5 60.5t87.5 204.5h-522q20 -145 83.5 -205t180.5 -60z" />
    <glyph glyph-name="Ohorn" unicode="&#x1a0;" horiz-adv-x="1693" 
d="M768 -25q-190 0 -330.5 55t-224 157t-123 236.5t-39.5 305.5q0 167 47 307.5t138 247t236.5 166t332.5 59.5q326 0 502 -176q68 16 85 55.5t17 145.5v98h281v-96q0 -185 -52 -272.5t-202 -120.5q71 -164 71 -385q0 -182 -43.5 -324t-132.5 -245.5t-231 -158.5t-332 -55z
M784 319q63 0 110 19.5t84 65.5t56 130t19 205q0 232 -62 329t-196 97q-145 0 -215 -99t-70 -327q0 -161 32 -254.5t90 -129.5t152 -36z" />
    <glyph glyph-name="ohorn" unicode="&#x1a1;" horiz-adv-x="1472" 
d="M594 -25q-555 0 -555 560q0 268 144.5 418.5t439.5 150.5q304 0 448 -170q63 16 79.5 56t16.5 143v98h281v-96q0 -193 -59 -281.5t-224 -118.5q19 -87 19 -180q0 -275 -145 -427.5t-445 -152.5zM610 262q69 0 95 57q28 61 28 226q0 159 -24 211q-21 55 -93 55
q-48 0 -73 -20.5t-38 -78.5t-13 -169q0 -167 23.5 -224t94.5 -57z" />
    <glyph glyph-name="uni01A4" unicode="&#x1a4;" horiz-adv-x="1753" 
d="M1217 1483q109 0 195.5 -27.5t141.5 -73t91 -108.5t50.5 -129t14.5 -139q0 -568 -594 -568h-98v-438h-443v1126h-18q-49 0 -79.5 -12.5t-43.5 -40.5t-16.5 -53.5t-3.5 -71.5q0 -54 10 -94l-381 -18q-7 22 -15 73t-8 101q0 236 154 354.5t451 118.5h592zM1059 762
q93 0 144.5 46.5t51.5 160.5q0 49 -12 85t-29 54.5t-43 29t-45.5 13t-44.5 2.5h-63v-391h41z" />
    <glyph glyph-name="uni01A5" unicode="&#x1a5;" horiz-adv-x="1232" 
d="M74 1161q0 230 80.5 321t281.5 91q81 0 176.5 -16.5t122.5 -30.5l-16 -273q-60 21 -109 21q-74 0 -110.5 -25.5t-36.5 -91.5v-184q61 71 143 101t162 30q91 0 164 -29.5t131 -91.5t89.5 -168.5t31.5 -251.5q0 -127 -22 -227.5t-60.5 -167.5t-93 -111t-116.5 -63t-134 -19
q-99 0 -154.5 21t-101.5 67v-497h-428v1595zM602 303q66 0 96.5 58.5t30.5 183.5q0 123 -31 176t-94 53q-50 0 -102 -37v-395q12 -14 44.5 -26.5t55.5 -12.5z" />
    <glyph glyph-name="uni01A9" unicode="&#x1a9;" horiz-adv-x="1249" 
d="M45 272l373 482l-367 460v269h1137v-344h-549l283 -353l-344 -442h610v-344h-1143v272z" />
    <glyph glyph-name="uni01AA" unicode="&#x1aa;" horiz-adv-x="1300" 
d="M946 -25q-387 0 -387 385v517q-25 -32 -79 -53t-128 -21q-158 0 -253 99t-95 259q0 188 128.5 300t369.5 112q104 0 188 -27t139.5 -74t92.5 -112.5t53 -139t16 -157.5v-651q0 -19 1 -32t7 -30.5t16 -28.5t29.5 -18.5t47.5 -7.5q86 0 170 45l53 -274q-182 -91 -369 -91z
M453 1065q73 0 108 53q13 168 -102 168q-47 0 -78 -27.5t-31 -80.5q0 -48 26 -80.5t77 -32.5z" />
    <glyph glyph-name="uni01AC" unicode="&#x1ac;" horiz-adv-x="1622" 
d="M752 1130h-170q-47 0 -79.5 -9.5t-49.5 -23t-26 -37t-11 -41.5t-2 -46q0 -14 0.5 -28.5t1.5 -25.5t2.5 -24t2.5 -19t2 -14l1 -8l-381 -18q-23 96 -23 188q0 459 555 459h1041v-353h-420v-1130h-444v1130z" />
    <glyph glyph-name="uni01AD" unicode="&#x1ad;" horiz-adv-x="909" 
d="M535 -25q-191 0 -289.5 94t-98.5 293v426h-155v293h155v80q0 223 99.5 317.5t306.5 94.5q81 0 176.5 -16.5t122.5 -30.5l-16 -275q-73 27 -138 27q-26 0 -42 -3t-36 -13.5t-30 -36.5t-10 -68v-76h276v-293h-276v-378q0 -61 23 -88t77 -27q68 0 170 45l51 -274
q-52 -33 -152 -62t-214 -29z" />
    <glyph glyph-name="uni01AE" unicode="&#x1ae;" horiz-adv-x="1302" 
d="M891 -461q-97 0 -177.5 23t-145 71t-100.5 130t-36 192v1175h-426v353h1290v-353h-419v-1155q3 -81 43 -102q44 -23 81 -23q92 0 181 46l22 -285q-34 -27 -120 -49.5t-193 -22.5z" />
    <glyph glyph-name="Uhorn" unicode="&#x1af;" horiz-adv-x="1763" 
d="M711 -25q-328 0 -478.5 144t-150.5 461v903h444v-852v-56.5t1.5 -50.5t4 -47.5t7 -40.5t12 -37t18 -28.5t25 -24.5t33.5 -16.5t43 -11.5t53 -3q34 0 60.5 4t46 15.5t33 23t22.5 34.5t14.5 42t8 54t3 62t0.5 73v860h441v-154q82 14 102.5 54t20.5 151v98h280v-96
q0 -113 -16 -183t-60.5 -121.5t-122.5 -75.5t-202 -30l2 -559q0 -156 -48 -271.5t-136 -184.5t-203 -102.5t-258 -33.5z" />
    <glyph glyph-name="uhorn" unicode="&#x1b0;" horiz-adv-x="1519" 
d="M403 -25q-166 0 -253 88t-87 265v753h433v-665q0 -60 19.5 -84.5t59.5 -24.5q59 0 99 43v731h432v-153q35 5 58 15t36.5 23.5t20 40t8.5 53t2 73.5v98h280v-96q0 -112 -16.5 -183t-61.5 -123t-123.5 -76t-203.5 -30v-723h-369l-32 121q-40 -66 -118.5 -106t-183.5 -40z
" />
    <glyph glyph-name="uni01B1" unicode="&#x1b1;" horiz-adv-x="1673" 
d="M821 -25q-120 0 -222.5 20.5t-177 55.5t-133 84t-96.5 104t-63 118.5t-35 123.5t-10 123q0 214 96 348q93 133 236 181v26h-326v326h660v-520q-97 -32 -140 -108.5t-43 -209.5q0 -49 7.5 -93t26 -88t47.5 -75.5t76 -51.5t107 -20q140 0 206.5 88t66.5 244q0 58 -7 102
t-25.5 87.5t-56 75t-93.5 49.5v520h657v-326h-324v-29q159 -44 244.5 -174.5t85.5 -330.5q0 -92 -23.5 -180t-80.5 -174.5t-142 -151t-218.5 -104.5t-299.5 -40z" />
    <glyph glyph-name="uni01B2" unicode="&#x1b2;" horiz-adv-x="1433" 
d="M612 -25q-276 0 -403 136t-127 421v951h444v-848q0 -163 2 -189q9 -95 61 -119q25 -12 62 -12q75 0 129.5 40.5t86 115.5t46.5 170t15 215q0 100 -12.5 170t-27.5 104t-42.5 52t-43.5 20t-44 2q-59 0 -129 -20l-15 291q21 12 110 27.5t150 15.5q67 0 122.5 -10.5t113 -36
t101 -73.5t78 -117.5t53 -175t18.5 -239.5q0 -144 -21 -264.5t-58 -211t-91 -162t-117.5 -118.5t-139.5 -78t-155 -44t-166 -13z" />
    <glyph glyph-name="uni01B3" unicode="&#x1b3;" horiz-adv-x="1433" 
d="M457 506l-518 977h483l254 -563l131 368q23 66 63 112t116 76.5t183 30.5q118 0 188 -34t107 -119.5t39 -233.5l-276 -43q3 99 -53 99q-28 0 -41.5 -17t-26.5 -61l-203 -590v-508h-446v506z" />
    <glyph glyph-name="uni01B4" unicode="&#x1b4;" horiz-adv-x="1488" 
d="M741 944q73 268 189.5 381t312.5 113q128 0 201.5 -34.5t110 -118.5t38.5 -234l-276 -43q3 98 -53 98q-53 0 -80 -76l-396 -1114q-37 -105 -73.5 -171.5t-88 -114t-120 -67.5t-166.5 -20q-54 0 -139.5 15t-124.5 34l26 295q97 -32 154 -32q19 0 34.5 2.5t27 9.5t19 12.5
t16 18.5t12 19.5t11.5 24.5t11 25l-420 1114h465l158 -661h10z" />
    <glyph glyph-name="uni01B5" unicode="&#x1b5;" horiz-adv-x="1220" 
d="M115 936h393l145 194h-600v353h1106v-318l-168 -229h170v-326h-409l-183 -250h615v-360h-1143v315l221 295h-147v326z" />
    <glyph glyph-name="uni01B6" unicode="&#x1b6;" horiz-adv-x="968" 
d="M49 281l117 151h-90v273h299l65 83h-391v293h850v-280l-94 -123h88v-272h-299l-66 -87h408v-319h-887v281z" />
    <glyph glyph-name="uni01B7" unicode="&#x1b7;" horiz-adv-x="1294" 
d="M584 -502q-260 0 -412 110.5t-176 336.5l401 78q31 -191 199 -191q199 0 199 311q0 145 -70 214t-211 69q-54 0 -109.5 -7.5t-64.5 -12.5v278l375 455h-615v344h1096v-303l-414 -488q73 0 141 -20t128 -62.5t104 -103.5t70 -149t26 -193q0 -312 -176 -489t-491 -177z" />
    <glyph glyph-name="uni01B8" unicode="&#x1b8;" horiz-adv-x="1294" 
d="M897 23l401 -78q-48 -447 -587 -447q-315 0 -491.5 177t-176.5 489q0 130 39.5 233.5t106 166.5t149.5 95.5t174 32.5l-414 488v303h1096v-344h-614l374 -455v-278q-9 5 -64.5 12.5t-109.5 7.5q-280 0 -280 -283q0 -311 198 -311q168 0 199 191z" />
    <glyph glyph-name="uni01B9" unicode="&#x1b9;" horiz-adv-x="1069" 
d="M604 -461q-247 0 -402 132t-155 356q0 61 9 115.5t33 109.5t62.5 94t102 64.5t145.5 27.5l-301 359v284h832v-297h-400l267 -335v-261q-89 21 -168 21q-49 0 -83.5 -17.5t-52 -47.5t-25 -61t-7.5 -67q0 -75 35.5 -120.5t97.5 -45.5q125 0 129 136l350 -68
q-30 -200 -148 -289.5t-321 -89.5z" />
    <glyph glyph-name="uni01C0" unicode="&#x1c0;" horiz-adv-x="653" 
d="M104 1546h445v-1792h-445v1792z" />
    <glyph glyph-name="uni01C1" unicode="&#x1c1;" horiz-adv-x="1204" 
d="M655 1546h445v-1792h-445v1792zM104 1546h445v-1792h-445v1792z" />
    <glyph glyph-name="uni01C2" unicode="&#x1c2;" horiz-adv-x="935" 
d="M104 621h142v141h-142v332h142v452h444v-452h141v-332h-141v-141h141v-332h-141v-535h-444v535h-142v332z" />
    <glyph glyph-name="uni01C3" unicode="&#x1c3;" horiz-adv-x="575" 
d="M90 1546h393v-948h-393v948zM90 352h393v-352h-393v352z" />
    <glyph glyph-name="uni01C4" unicode="&#x1c4;" horiz-adv-x="2582" 
d="M104 1483h586q374 0 554.5 -188t180.5 -531q0 -173 -46 -311.5t-138.5 -240.5t-241 -157t-344.5 -55h-551v1483zM625 340q88 0 151 19.5t101.5 52.5t60.5 87.5t29.5 114t7.5 142.5q0 222 -70 306.5t-250 84.5h-106v-807h76zM2546 360v-360h-1143v315l612 815h-600v353
h1106v-318l-590 -805h615zM1583 1925l272 8l119 -153l131 155l269 -10l-201 -334h-408z" />
    <glyph glyph-name="uni01C5" unicode="&#x1c5;" horiz-adv-x="2433" 
d="M104 1483h586q374 0 554.5 -188t180.5 -531q0 -173 -46 -311.5t-138.5 -240.5t-241 -157t-344.5 -55h-551v1483zM625 340q88 0 151 19.5t101.5 52.5t60.5 87.5t29.5 114t7.5 142.5q0 222 -70 306.5t-250 84.5h-106v-807h76zM2400 319v-319h-887v281l392 507h-392v293h850
v-280l-370 -482h407zM1954 1360l131 156l268 -11l-203 -334h-407l-182 334l272 8z" />
    <glyph glyph-name="uni01C6" unicode="&#x1c6;" horiz-adv-x="2205" 
d="M805 0l-25 100l-10 2q-89 -127 -283 -127q-203 0 -320.5 132.5t-117.5 406.5q0 127 27.5 229.5t72.5 168.5t105.5 110.5t123 63t128.5 18.5q77 0 129.5 -18t97.5 -60v520h428v-1546h-356zM733 752q-31 26 -78 26q-75 0 -112 -69.5t-37 -176.5q0 -104 34.5 -167.5
t108.5 -63.5q51 0 84 27v424zM2173 319v-319h-887v281l391 507h-391v293h850v-280l-371 -482h408zM1726 1360l132 156l268 -11l-203 -334h-407l-183 334l273 8z" />
    <glyph glyph-name="uni01C7" unicode="&#x1c7;" horiz-adv-x="2347" 
d="M1153 360v-360h-1049v1483h445v-1123h604zM2251 1483v-1030q0 -220 -138.5 -349t-386.5 -129q-86 0 -156 11.5t-138 43.5t-114.5 83.5t-76.5 136t-33 196.5l428 62q2 -45 4 -67t8 -52.5t15 -44.5t26 -24.5t42 -10.5q44 0 59.5 30.5t15.5 92.5v1051h445z" />
    <glyph glyph-name="uni01C9" unicode="&#x1c9;" horiz-adv-x="1171" 
d="M78 0v1546h432v-1546h-432zM635 -457q-106 0 -186 22t-119 50l24 285q87 -45 181 -45q58 0 93.5 31t35.5 118v1077h432v-1116q0 -111 -35 -194t-99 -132t-145.5 -72.5t-181.5 -23.5zM1118 1395q0 -113 -62 -176.5t-177 -63.5q-113 0 -176.5 63.5t-63.5 176.5
q0 112 63.5 172.5t176.5 60.5q115 0 177 -60t62 -173z" />
    <glyph glyph-name="uni01CA" unicode="&#x1ca;" horiz-adv-x="2672" 
d="M506 868v-868h-402v1483h508l412 -885v885h397v-1483h-497zM2576 1483v-1030q0 -220 -138.5 -349t-385.5 -129q-86 0 -156 11.5t-138 43.5t-114.5 83.5t-76.5 136t-33 196.5l428 62q2 -33 3 -48.5t3.5 -41.5t6.5 -38t10.5 -28.5t16 -24t23 -13t31.5 -5.5q44 0 60 31
t16 92v1051h444z" />
    <glyph glyph-name="uni01CB" unicode="&#x1cb;" horiz-adv-x="2111" 
d="M506 868v-868h-402v1483h508l412 -885v885h397v-1483h-497zM1575 -457q-106 0 -186 22t-119 50l24 285q87 -45 181 -45q58 0 93.5 31t35.5 118v1077h432v-1116q0 -111 -35 -194t-99 -132t-145.5 -72.5t-181.5 -23.5zM2058 1395q0 -113 -62 -176.5t-177 -63.5
q-113 0 -176.5 63.5t-63.5 176.5q0 112 63.5 172.5t176.5 60.5q115 0 177 -60t62 -173z" />
    <glyph glyph-name="uni01CC" unicode="&#x1cc;" horiz-adv-x="1781" 
d="M698 0v666q0 61 -23 84.5t-65 23.5q-68 0 -108 -43v-731h-432v1081h383l20 -100q45 54 123.5 88.5t181.5 34.5q183 0 267.5 -87.5t84.5 -273.5v-743h-432zM1245 -457q-106 0 -186 22t-119 50l25 285q87 -45 180 -45q58 0 93.5 31t35.5 118v1077h432v-1116
q0 -111 -35 -194t-99 -132t-145.5 -72.5t-181.5 -23.5zM1729 1395q0 -113 -62.5 -176.5t-177.5 -63.5q-113 0 -176.5 63.5t-63.5 176.5q0 112 63.5 172.5t176.5 60.5q116 0 178 -60.5t62 -172.5z" />
    <glyph glyph-name="uni01CD" unicode="&#x1cd;" horiz-adv-x="1484" 
d="M1516 0h-484l-98 289h-420l-82 -289h-463l475 1483h539zM705 1073l-130 -450h273l-131 450h-12zM844 1907l274 -11l-198 -317h-414l-180 315l264 11l121 -138z" />
    <glyph glyph-name="uni01CE" unicode="&#x1ce;" horiz-adv-x="1169" 
d="M1034 317q0 -44 13.5 -62.5t50.5 -18.5q22 0 63 12l8 -225q-33 -15 -113.5 -32.5t-133.5 -17.5q-112 0 -182.5 36t-98.5 120q-99 -154 -295 -154q-77 0 -136 19.5t-93.5 49t-56.5 69.5t-29.5 75.5t-7.5 73.5q0 67 18.5 120.5t49 91t77.5 66t95 45t111.5 27.5t117.5 16
t122 7v49q0 54 -12 94q-9 41 -76 41q-49 0 -72.5 -27.5t-41.5 -97.5l-355 62q13 80 45 141.5t89 109t148.5 72.5t215.5 25q479 0 479 -391v-396zM616 424q-24 0 -46.5 -3t-50.5 -12t-45 -29.5t-17 -49.5q0 -30 18 -52t53 -22q50 0 88 27v141zM563 1360l131 156l269 -11
l-203 -334h-408l-182 334l272 8z" />
    <glyph glyph-name="uni01CF" unicode="&#x1cf;" horiz-adv-x="653" 
d="M104 0v1483h445v-1483h-445zM459 1907l274 -11l-198 -317h-414l-180 315l264 11l121 -138z" />
    <glyph glyph-name="uni01D0" unicode="&#x1d0;" horiz-adv-x="585" 
d="M78 0v1081h432v-1081h-432zM301 1360l131 156l268 -11l-202 -334h-408l-182 334l272 8z" />
    <glyph glyph-name="uni01D1" unicode="&#x1d1;" horiz-adv-x="1558" 
d="M768 -25q-190 0 -330.5 55t-224 157t-123 236.5t-39.5 305.5q0 167 47 307.5t138 247t236.5 166t332.5 59.5q150 0 270 -39t200 -106.5t133 -163.5t76 -205.5t23 -236.5q0 -182 -43.5 -324t-132.5 -245.5t-231 -158.5t-332 -55zM784 319q63 0 110 20t84 66.5t56 130
t19 203.5q0 228 -62 324t-196 96q-145 0 -215 -98t-70 -322q0 -159 32 -252.5t90 -130.5t152 -37zM928 1907l274 -11l-198 -317h-414l-180 315l264 11l121 -138z" />
    <glyph glyph-name="uni01D2" unicode="&#x1d2;" horiz-adv-x="1222" 
d="M594 -25q-555 0 -555 560q0 268 144.5 418.5t439.5 150.5q150 0 260 -40.5t175 -115t95.5 -172.5t30.5 -221q0 -275 -145 -427.5t-445 -152.5zM610 262q67 0 95 61t28 222q0 154 -24.5 210t-92.5 56q-47 0 -73 -22.5t-38.5 -80.5t-12.5 -165q0 -163 23.5 -222t94.5 -59z
M612 1360l131 156l269 -11l-203 -334h-408l-182 334l273 8z" />
    <glyph glyph-name="uni01D3" unicode="&#x1d3;" horiz-adv-x="1437" 
d="M723 319q34 0 60.5 4t46 15.5t33 23t22.5 34.5t14.5 42t8 54t3 62t0.5 73v856h441v-916q0 -156 -47.5 -271.5t-134.5 -185t-201.5 -102.5t-257.5 -33q-328 0 -478.5 144t-150.5 461v903h444v-848v-56.5t1.5 -50.5t4 -47.5t7 -40.5t12 -37t18 -28.5t25 -24.5t33.5 -16.5
t43 -11.5t53 -3zM850 1907l274 -11l-198 -317h-414l-180 315l264 11l121 -138z" />
    <glyph glyph-name="uni01D4" unicode="&#x1d4;" horiz-adv-x="1177" 
d="M496 1081v-665q0 -60 19.5 -84.5t59.5 -24.5q59 0 99 43v731h432v-1081h-369l-32 121q-40 -66 -118.5 -106t-183.5 -40q-166 0 -253 88t-87 265v753h433zM588 1360l131 156l268 -11l-203 -334h-407l-182 334l272 8z" />
    <glyph glyph-name="uni01D5" unicode="&#x1d5;" horiz-adv-x="1437" 
d="M723 319q34 0 60.5 4t46 15.5t33 23t22.5 34.5t14.5 42t8 54t3 62t0.5 73v856h441v-916q0 -156 -47.5 -271.5t-134.5 -185t-201.5 -102.5t-257.5 -33q-328 0 -478.5 144t-150.5 461v903h444v-848v-56.5t1.5 -50.5t4 -47.5t7 -40.5t12 -37t18 -28.5t25 -24.5t33.5 -16.5
t43 -11.5t53 -3zM686 1790q0 -96 -64 -154.5t-169 -58.5q-107 0 -173.5 58.5t-66.5 154.5t66.5 154.5t173.5 58.5q105 0 169 -58.5t64 -154.5zM1223 1790q0 -96 -65 -154.5t-171 -58.5t-171.5 58.5t-65.5 154.5t65.5 154.5t171.5 58.5t171 -58.5t65 -154.5zM383 2357h670
v-266h-670v266z" />
    <glyph glyph-name="uni01D6" unicode="&#x1d6;" horiz-adv-x="1177" 
d="M496 1081v-665q0 -60 19.5 -84.5t59.5 -24.5q59 0 99 43v731h432v-1081h-369l-32 121q-40 -66 -118.5 -106t-183.5 -40q-166 0 -253 88t-87 265v753h433zM549 1405q0 -96 -64.5 -154.5t-169.5 -58.5q-106 0 -172.5 58.5t-66.5 154.5t66.5 154.5t172.5 58.5
q105 0 169.5 -58.5t64.5 -154.5zM1085 1405q0 -97 -64.5 -155t-170.5 -58t-172 58.5t-66 154.5t66 154.5t172 58.5t170.5 -58t64.5 -155zM246 1952h669v-266h-669v266z" />
    <glyph glyph-name="uni01D7" unicode="&#x1d7;" horiz-adv-x="1437" 
d="M723 319q34 0 60.5 4t46 15.5t33 23t22.5 34.5t14.5 42t8 54t3 62t0.5 73v856h441v-916q0 -156 -47.5 -271.5t-134.5 -185t-201.5 -102.5t-257.5 -33q-328 0 -478.5 144t-150.5 461v903h444v-848v-56.5t1.5 -50.5t4 -47.5t7 -40.5t12 -37t18 -28.5t25 -24.5t33.5 -16.5
t43 -11.5t53 -3zM686 1790q0 -96 -64 -154.5t-169 -58.5q-107 0 -173.5 58.5t-66.5 154.5t66.5 154.5t173.5 58.5q105 0 169 -58.5t64 -154.5zM1223 1790q0 -96 -65 -154.5t-171 -58.5t-171.5 58.5t-65.5 154.5t65.5 154.5t171.5 58.5t171 -58.5t65 -154.5zM532 2060
l170 297h439l-314 -309z" />
    <glyph glyph-name="uni01D8" unicode="&#x1d8;" horiz-adv-x="1177" 
d="M496 1081v-665q0 -60 19.5 -84.5t59.5 -24.5q59 0 99 43v731h432v-1081h-369l-32 121q-40 -66 -118.5 -106t-183.5 -40q-166 0 -253 88t-87 265v753h433zM549 1405q0 -96 -64.5 -154.5t-169.5 -58.5q-106 0 -172.5 58.5t-66.5 154.5t66.5 154.5t172.5 58.5
q105 0 169.5 -58.5t64.5 -154.5zM1085 1405q0 -97 -64.5 -155t-170.5 -58t-172 58.5t-66 154.5t66 154.5t172 58.5t170.5 -58t64.5 -155zM395 1679l170 297h439l-314 -309z" />
    <glyph glyph-name="uni01D9" unicode="&#x1d9;" horiz-adv-x="1437" 
d="M723 319q34 0 60.5 4t46 15.5t33 23t22.5 34.5t14.5 42t8 54t3 62t0.5 73v856h441v-916q0 -156 -47.5 -271.5t-134.5 -185t-201.5 -102.5t-257.5 -33q-328 0 -478.5 144t-150.5 461v903h444v-848v-56.5t1.5 -50.5t4 -47.5t7 -40.5t12 -37t18 -28.5t25 -24.5t33.5 -16.5
t43 -11.5t53 -3zM686 1790q0 -96 -64 -154.5t-169 -58.5q-107 0 -173.5 58.5t-66.5 154.5t66.5 154.5t173.5 58.5q105 0 169 -58.5t64 -154.5zM1223 1790q0 -96 -65 -154.5t-171 -58.5t-171.5 58.5t-65.5 154.5t65.5 154.5t171.5 58.5t171 -58.5t65 -154.5zM850 2396
l274 -10l-198 -318h-414l-180 316l264 10l121 -137z" />
    <glyph glyph-name="uni01DA" unicode="&#x1da;" horiz-adv-x="1177" 
d="M496 1081v-665q0 -60 19.5 -84.5t59.5 -24.5q59 0 99 43v731h432v-1081h-369l-32 121q-40 -66 -118.5 -106t-183.5 -40q-166 0 -253 88t-87 265v753h433zM549 1405q0 -96 -64.5 -154.5t-169.5 -58.5q-106 0 -172.5 58.5t-66.5 154.5t66.5 154.5t172.5 58.5
q105 0 169.5 -58.5t64.5 -154.5zM1085 1405q0 -97 -64.5 -155t-170.5 -58t-172 58.5t-66 154.5t66 154.5t172 58.5t170.5 -58t64.5 -155zM713 2001l274 -10l-199 -318h-413l-180 316l264 10l121 -137z" />
    <glyph glyph-name="uni01DB" unicode="&#x1db;" horiz-adv-x="1437" 
d="M733 2357l170 -297l-295 -12l-313 309h438zM1223 1790q0 -96 -65 -154.5t-171 -58.5t-171.5 58.5t-65.5 154.5t65.5 154.5t171.5 58.5t171 -58.5t65 -154.5zM686 1790q0 -96 -64 -154.5t-169 -58.5q-107 0 -173.5 58.5t-66.5 154.5t66.5 154.5t173.5 58.5
q105 0 169 -58.5t64 -154.5zM526 1483v-848v-56.5t1.5 -50.5t4 -47.5t7 -40.5t12 -37t18 -28.5t25 -24.5t33.5 -16.5t43 -11.5t53 -3q34 0 60.5 4t46 15.5t33 23t22.5 34.5t14.5 42t8 54t3 62t0.5 73v856h441v-916q0 -156 -47.5 -271.5t-134.5 -185t-201.5 -102.5
t-257.5 -33q-328 0 -478.5 144t-150.5 461v903h444z" />
    <glyph glyph-name="uni01DC" unicode="&#x1dc;" horiz-adv-x="1177" 
d="M596 1974l170 -297l-295 -12l-313 309h438zM1085 1405q0 -97 -64.5 -155t-170.5 -58t-172 58.5t-66 154.5t66 154.5t172 58.5t170.5 -58t64.5 -155zM549 1405q0 -96 -64.5 -154.5t-169.5 -58.5q-106 0 -172.5 58.5t-66.5 154.5t66.5 154.5t172.5 58.5q105 0 169.5 -58.5
t64.5 -154.5zM496 1081v-665q0 -60 19.5 -84.5t59.5 -24.5q59 0 99 43v731h432v-1081h-369l-32 121q-40 -66 -118.5 -106t-183.5 -40q-166 0 -253 88t-87 265v753h433z" />
    <glyph glyph-name="uni01DD" unicode="&#x1dd;" horiz-adv-x="1124" 
d="M528 1104q121 0 217 -30.5t159 -82.5t104.5 -125t59 -152.5t17.5 -170.5q0 -140 -42.5 -250.5t-118 -178.5t-173 -103.5t-212.5 -35.5q-255 0 -377.5 136.5t-122.5 386.5q0 48 4 114h588q0 101 -27 144t-100 43q-54 0 -86.5 -32t-40.5 -85l-338 84q28 152 151 245t338 93
zM479 397q0 -48 6 -78.5t18.5 -43.5t23.5 -17t28 -4q38 0 57 31t19 112h-152z" />
    <glyph glyph-name="uni01DE" unicode="&#x1de;" horiz-adv-x="1484" 
d="M1516 0h-484l-98 289h-420l-82 -289h-463l475 1483h539zM705 1073l-130 -450h273l-131 450h-12zM680 1790q0 -96 -64.5 -154.5t-169.5 -58.5q-106 0 -172.5 58.5t-66.5 154.5t66.5 154.5t172.5 58.5q105 0 169.5 -58.5t64.5 -154.5zM1217 1790q0 -96 -65 -154.5
t-171 -58.5t-172 58.5t-66 154.5t66 154.5t172 58.5t171 -58.5t65 -154.5zM377 2345h670v-266h-670v266z" />
    <glyph glyph-name="uni01DF" unicode="&#x1df;" horiz-adv-x="1169" 
d="M1034 317q0 -44 13.5 -62.5t50.5 -18.5q22 0 63 12l8 -225q-33 -15 -113.5 -32.5t-133.5 -17.5q-112 0 -182.5 36t-98.5 120q-99 -154 -295 -154q-77 0 -136 19.5t-93.5 49t-56.5 69.5t-29.5 75.5t-7.5 73.5q0 67 18.5 120.5t49 91t77.5 66t95 45t111.5 27.5t117.5 16
t122 7v49q0 54 -12 94q-9 41 -76 41q-49 0 -72.5 -27.5t-41.5 -97.5l-355 62q13 80 45 141.5t89 109t148.5 72.5t215.5 25q479 0 479 -391v-396zM616 424q-24 0 -46.5 -3t-50.5 -12t-45 -29.5t-17 -49.5q0 -30 18 -52t53 -22q50 0 88 27v141zM524 1405q0 -96 -64 -154.5
t-169 -58.5q-107 0 -173.5 58.5t-66.5 154.5t66.5 154.5t173.5 58.5q105 0 169 -58.5t64 -154.5zM1061 1405q0 -96 -65 -154.5t-171 -58.5t-171.5 58.5t-65.5 154.5t65.5 154.5t171.5 58.5t171 -58.5t65 -154.5zM221 1960h670v-266h-670v266z" />
    <glyph glyph-name="uni01E0" unicode="&#x1e0;" horiz-adv-x="1484" 
d="M1516 0h-484l-98 289h-420l-82 -289h-463l475 1483h539zM705 1073l-130 -450h273l-131 450h-12zM952 1819q0 -113 -62 -176.5t-177 -63.5q-113 0 -176.5 63.5t-63.5 176.5q0 112 63.5 172.5t176.5 60.5q115 0 177 -60t62 -173zM377 2386h670v-266h-670v266z" />
    <glyph glyph-name="uni01E1" unicode="&#x1e1;" horiz-adv-x="1169" 
d="M1034 317q0 -44 13.5 -62.5t50.5 -18.5q22 0 63 12l8 -225q-33 -15 -113.5 -32.5t-133.5 -17.5q-112 0 -182.5 36t-98.5 120q-99 -154 -295 -154q-77 0 -136 19.5t-93.5 49t-56.5 69.5t-29.5 75.5t-7.5 73.5q0 67 18.5 120.5t49 91t77.5 66t95 45t111.5 27.5t117.5 16
t122 7v49q0 54 -12 94q-9 41 -76 41q-49 0 -72.5 -27.5t-41.5 -97.5l-355 62q13 80 45 141.5t89 109t148.5 72.5t215.5 25q479 0 479 -391v-396zM616 424q-24 0 -46.5 -3t-50.5 -12t-45 -29.5t-17 -49.5q0 -30 18 -52t53 -22q50 0 88 27v141zM797 1399q0 -113 -62.5 -176.5
t-177.5 -63.5q-113 0 -176.5 63.5t-63.5 176.5q0 112 63.5 172.5t176.5 60.5q116 0 178 -60.5t62 -172.5zM221 1972h670v-266h-670v266z" />
    <glyph glyph-name="uni01E2" unicode="&#x1e2;" horiz-adv-x="2058" 
d="M2021 360v-360h-1065v537h-299l-211 -537h-456l641 1483h1339v-353h-569v-251h538v-338h-538v-181h620zM870 1130l-100 -266h186v266h-86zM958 1858h670v-267h-670v267z" />
    <glyph glyph-name="uni01E3" unicode="&#x1e3;" horiz-adv-x="1675" 
d="M1147 -25q-272 0 -416 158q-68 -82 -166.5 -120t-206.5 -38q-76 0 -136.5 19t-97 48.5t-60 69.5t-32.5 78t-9 78q0 66 19 119t52 89t78 63t97 43t110 26.5t115.5 17t114.5 11.5h2.5h2.5v29q0 85 -15.5 119t-72.5 34q-52 0 -78 -29t-36 -100l-355 64q24 170 143 260
t335 90q118 0 193 -30t124 -101q113 131 342 131q118 0 206 -41.5t139 -115t76 -165.5t25 -202q0 -54 -6 -113h-587q2 -101 28.5 -143.5t98.5 -42.5q52 0 84 31.5t40 84.5l338 -84q-28 -152 -151 -245t-338 -93zM535 260q27 0 58 12t46 25q-12 34 -25 125q-81 -8 -119 -28
t-38 -70q0 -28 20.5 -46t57.5 -18zM1202 682q0 47 -6.5 78t-19.5 44t-24 17t-26 4q-77 0 -75 -143h151zM512 1454h678v-266h-678v266z" />
    <glyph glyph-name="uni01E4" unicode="&#x1e4;" horiz-adv-x="1542" 
d="M1079 164q-52 -95 -162.5 -142t-240.5 -47q-162 0 -284 55t-195.5 155t-109.5 232t-36 296q0 174 45 317t134.5 251t234 168t332.5 60q131 0 236.5 -29t190 -91t134.5 -167t59 -249l-411 -39q-2 35 -5.5 57.5t-17 59t-34.5 58.5t-61.5 39t-96.5 17q-149 0 -213 -105
t-64 -308q0 -60 2 -105.5t9 -93.5t19 -82.5t32.5 -66t49 -51t69 -31t91.5 -11.5q211 0 211 166v12h-145v287h590v-180h121v-285h-121v-311h-320z" />
    <glyph glyph-name="uni01E5" unicode="&#x1e5;" horiz-adv-x="1218" 
d="M1139 63q0 -58 -9 -116h109v-291h-276q-154 -113 -439 -113q-222 0 -353 75t-159 245l377 106q15 -58 45.5 -89.5t102.5 -31.5q94 0 134 46t40 143v57q-94 -94 -254 -94q-200 0 -315 135t-115 404q0 121 28 219t73.5 161t106 106t123 61t127.5 18q188 0 267 -133l43 110
h344v-1018zM627 330q52 0 84 22v400q-33 26 -84 26q-72 0 -108 -64.5t-36 -170.5q0 -213 144 -213z" />
    <glyph glyph-name="Gcaron" unicode="&#x1e6;" horiz-adv-x="1517" 
d="M1079 164q-52 -95 -162.5 -142t-240.5 -47q-162 0 -284 55t-195.5 155t-109.5 232t-36 296q0 174 45 317t134.5 251t234 168t332.5 60q131 0 236.5 -29t190 -91t134.5 -167t59 -249l-411 -39q-2 35 -5.5 57.5t-17 59t-34.5 58.5t-61.5 39t-96.5 17q-149 0 -213 -105
t-64 -308q0 -60 2 -105.5t9 -93.5t19 -82.5t32.5 -66t49 -51t69 -31t91.5 -11.5q211 0 211 166v12h-145v287h590v-776h-320zM924 1907l274 -11l-199 -317h-413l-180 315l264 11l121 -138z" />
    <glyph glyph-name="gcaron" unicode="&#x1e7;" horiz-adv-x="1163" 
d="M571 1104q188 0 279 -47q15 80 66 136t133 56q33 0 77 -12v-250q-40 4 -82 -0.5t-63 -15.5q104 -107 104 -254q0 -179 -133 -278t-366 -99q-100 0 -197 20q-32 -32 -22 -59t53 -29l346 -18q381 -16 381 -324q0 -196 -151.5 -293.5t-428.5 -97.5q-290 0 -422.5 57
t-132.5 181q0 67 52.5 111.5t156.5 45.5v11q-194 57 -194 213q0 83 46 141t146 119q-151 103 -151 282q0 176 130.5 290t372.5 114zM705 717q0 57 -30.5 87t-84.5 30t-88.5 -30.5t-34.5 -90.5q0 -111 119 -111q51 0 85 30.5t34 84.5zM737 -160q0 26 -19 38t-75 13l-242 15
q-16 -16 -16 -47q0 -25 19 -42t54.5 -23.5t65 -8.5t70.5 -2q143 0 143 57zM580 1360l131 156l268 -11l-203 -334h-407l-183 334l273 8z" />
    <glyph glyph-name="uni01E8" unicode="&#x1e8;" horiz-adv-x="1437" 
d="M1030 1483h459l-500 -598l455 -885h-516l-258 547l-123 -137v-410h-443v1483h443l2 -572zM874 1907l275 -11l-199 -317h-413l-181 315l265 11l120 -138z" />
    <glyph glyph-name="uni01E9" unicode="&#x1e9;" horiz-adv-x="1222" 
d="M760 1081h473l-344 -387l371 -694h-480l-227 436l-47 -45v-391h-432v1546h432v-760zM410 1952l274 -10l-199 -318h-413l-181 315l265 11l120 -138z" />
    <glyph glyph-name="uni01EA" unicode="&#x1ea;" horiz-adv-x="1558" 
d="M827 -514q-137 0 -203.5 57t-66.5 160q0 142 168 272q-144 5 -257.5 44t-191 105t-128.5 159.5t-74 204t-23 241.5q0 167 47 307.5t138 247t236.5 166t332.5 59.5q150 0 270 -39t200 -106.5t133 -163.5t76 -205.5t23 -236.5q0 -304 -123 -499t-374 -257
q-80 -78 -118 -131.5t-38 -97.5q0 -32 12 -45t39 -13q57 0 84 86l168 -71q-32 -113 -120.5 -178.5t-209.5 -65.5zM784 319q63 0 110 19.5t84 65.5t56 130t19 205q0 232 -62 329t-196 97q-145 0 -215 -99t-70 -327q0 -161 32 -254.5t90 -129.5t152 -36z" />
    <glyph glyph-name="uni01EB" unicode="&#x1eb;" horiz-adv-x="1222" 
d="M631 -514q-137 0 -204 57t-67 160q0 145 170 274q-132 9 -228 54t-153 120t-83.5 170t-26.5 214q0 268 144.5 418.5t439.5 150.5q150 0 260 -40.5t175 -115t95.5 -172.5t30.5 -221q0 -217 -92.5 -359.5t-282.5 -195.5q-80 -84 -116 -134t-36 -93q0 -31 12 -44.5t38 -13.5
q59 0 86 86l168 -71q-32 -113 -120.5 -178.5t-209.5 -65.5zM610 262q69 0 95 57q28 61 28 226q0 159 -24 211q-21 55 -93 55q-48 0 -73 -20.5t-38 -78.5t-13 -169q0 -167 23.5 -224t94.5 -57z" />
    <glyph glyph-name="uni01EC" unicode="&#x1ec;" horiz-adv-x="1558" 
d="M827 -514q-137 0 -203.5 57t-66.5 160q0 142 168 272q-144 5 -257.5 44t-191 105t-128.5 159.5t-74 204t-23 241.5q0 167 47 307.5t138 247t236.5 166t332.5 59.5q150 0 270 -39t200 -106.5t133 -163.5t76 -205.5t23 -236.5q0 -304 -123 -499t-374 -257
q-80 -78 -118 -131.5t-38 -97.5q0 -32 12 -45t39 -13q57 0 84 86l168 -71q-32 -113 -120.5 -178.5t-209.5 -65.5zM784 319q63 0 110 19.5t84 65.5t56 130t19 205q0 232 -62 329t-196 97q-145 0 -215 -99t-70 -327q0 -161 32 -254.5t90 -129.5t152 -36zM471 1858h670v-267
h-670v267z" />
    <glyph glyph-name="uni01ED" unicode="&#x1ed;" horiz-adv-x="1222" 
d="M631 -514q-137 0 -204 57t-67 160q0 145 170 274q-132 9 -228 54t-153 120t-83.5 170t-26.5 214q0 268 144.5 418.5t439.5 150.5q150 0 260 -40.5t175 -115t95.5 -172.5t30.5 -221q0 -217 -92.5 -359.5t-282.5 -195.5q-80 -84 -116 -134t-36 -93q0 -31 12 -44.5t38 -13.5
q59 0 86 86l168 -71q-32 -113 -120.5 -178.5t-209.5 -65.5zM610 262q69 0 95 57q28 61 28 226q0 159 -24 211q-21 55 -93 55q-48 0 -73 -20.5t-38 -78.5t-13 -169q0 -167 23.5 -224t94.5 -57zM268 1454h678v-266h-678v266z" />
    <glyph glyph-name="uni01EE" unicode="&#x1ee;" horiz-adv-x="1251" 
d="M584 -502q-260 0 -412 110.5t-176 336.5l401 78q31 -191 199 -191q199 0 199 311q0 145 -70 214t-211 69q-54 0 -109.5 -7.5t-64.5 -12.5v278l375 455h-615v344h1096v-303l-414 -488q73 0 141 -20t128 -62.5t104 -103.5t70 -149t26 -193q0 -312 -176 -489t-491 -177z
M768 1907l274 -11l-198 -317h-414l-180 315l264 11l121 -138z" />
    <glyph glyph-name="uni01EF" unicode="&#x1ef;" horiz-adv-x="1069" 
d="M465 -461q-201 0 -320 89.5t-149 289.5l350 68q5 -63 33.5 -99.5t95.5 -36.5q62 0 97.5 45.5t35.5 120.5q0 35 -8 67t-26 61.5t-52.5 47t-81.5 17.5q-79 0 -168 -21v261l267 335h-400v297h832v-284l-301 -359q82 -2 145.5 -27.5t102 -64.5t62.5 -94t33 -109.5t9 -115.5
q0 -224 -155 -356t-402 -132zM565 1360l131 156l269 -11l-203 -334h-408l-182 334l272 8z" />
    <glyph glyph-name="uni01F0" unicode="&#x1f0;" horiz-adv-x="585" 
d="M49 -457q-106 0 -186 22t-119 50l25 285q87 -45 180 -45q58 0 93.5 31t35.5 118v1077h432v-1116q0 -111 -35 -194t-99 -132t-145.5 -72.5t-181.5 -23.5zM301 1360l131 156l268 -11l-202 -334h-408l-182 334l272 8z" />
    <glyph glyph-name="uni01F1" unicode="&#x1f1;" horiz-adv-x="2582" 
d="M104 1483h586q374 0 554.5 -188t180.5 -531q0 -173 -46 -311.5t-138.5 -240.5t-241 -157t-344.5 -55h-551v1483zM625 340q88 0 151 19.5t101.5 52.5t60.5 87.5t29.5 114t7.5 142.5q0 222 -70 306.5t-250 84.5h-106v-807h76zM2546 360v-360h-1143v315l612 815h-600v353
h1106v-318l-590 -805h615z" />
    <glyph glyph-name="uni01F2" unicode="&#x1f2;" horiz-adv-x="2433" 
d="M104 1483h586q374 0 554.5 -188t180.5 -531q0 -173 -46 -311.5t-138.5 -240.5t-241 -157t-344.5 -55h-551v1483zM625 340q88 0 151 19.5t101.5 52.5t60.5 87.5t29.5 114t7.5 142.5q0 222 -70 306.5t-250 84.5h-106v-807h76zM2400 319v-319h-887v281l392 507h-392v293h850
v-280l-370 -482h407z" />
    <glyph glyph-name="uni01F3" unicode="&#x1f3;" horiz-adv-x="2205" 
d="M805 0l-25 100l-10 2q-89 -127 -283 -127q-203 0 -320.5 132.5t-117.5 406.5q0 127 27.5 229.5t72.5 168.5t105.5 110.5t123 63t128.5 18.5q77 0 129.5 -18t97.5 -60v520h428v-1546h-356zM733 752q-31 26 -78 26q-75 0 -112 -69.5t-37 -176.5q0 -104 34.5 -167.5
t108.5 -63.5q51 0 84 27v424zM2173 319v-319h-887v281l391 507h-391v293h850v-280l-371 -482h408z" />
    <glyph glyph-name="uni01F4" unicode="&#x1f4;" horiz-adv-x="1517" 
d="M1079 164q-52 -95 -162.5 -142t-240.5 -47q-162 0 -284 55t-195.5 155t-109.5 232t-36 296q0 174 45 317t134.5 251t234 168t332.5 60q131 0 236.5 -29t190 -91t134.5 -167t59 -249l-411 -39q-2 35 -5.5 57.5t-17 59t-34.5 58.5t-61.5 39t-96.5 17q-149 0 -213 -105
t-64 -308q0 -60 2 -105.5t9 -93.5t19 -82.5t32.5 -66t49 -51t69 -31t91.5 -11.5q211 0 211 166v12h-145v287h590v-776h-320zM606 1585l170 297h438l-313 -309z" />
    <glyph glyph-name="uni01F5" unicode="&#x1f5;" horiz-adv-x="1163" 
d="M571 1104q188 0 279 -47q15 80 66 136t133 56q33 0 77 -12v-250q-40 4 -82 -0.5t-63 -15.5q104 -107 104 -254q0 -179 -133 -278t-366 -99q-100 0 -197 20q-32 -32 -22 -59t53 -29l346 -18q381 -16 381 -324q0 -196 -151.5 -293.5t-428.5 -97.5q-290 0 -422.5 57
t-132.5 181q0 67 52.5 111.5t156.5 45.5v11q-194 57 -194 213q0 83 46 141t146 119q-151 103 -151 282q0 176 130.5 290t372.5 114zM705 717q0 57 -30.5 87t-84.5 30t-88.5 -30.5t-34.5 -90.5q0 -111 119 -111q51 0 85 30.5t34 84.5zM737 -160q0 26 -19 38t-75 13l-242 15
q-16 -16 -16 -47q0 -25 19 -42t54.5 -23.5t65 -8.5t70.5 -2q143 0 143 57zM410 1184l106 329h438l-266 -342z" />
    <glyph glyph-name="uni01F8" unicode="&#x1f8;" horiz-adv-x="1525" 
d="M778 1882l170 -297l-295 -12l-313 309h438zM506 868v-868h-402v1483h508l412 -885v885h397v-1483h-497z" />
    <glyph glyph-name="uni01F9" unicode="&#x1f9;" horiz-adv-x="1196" 
d="M698 0v666q0 61 -23 84.5t-65 23.5q-68 0 -108 -43v-731h-432v1081h383l20 -100q45 54 123.5 88.5t181.5 34.5q183 0 267.5 -87.5t84.5 -273.5v-743h-432zM643 1513l107 -329l-279 -13l-266 342h438z" />
    <glyph glyph-name="Aringacute" unicode="&#x1fa;" horiz-adv-x="1484" 
d="M1008 1624q0 -82 -35 -141l543 -1483h-484l-98 289h-420l-82 -289h-463l488 1483q-33 72 -33 133q0 131 83 203.5t208 72.5q123 0 207 -69q86 -71 86 -199zM543 1960l170 297h438l-313 -309zM705 1073l-130 -450h273l-131 450h-12zM713 1522q49 0 77.5 26.5t28.5 81.5
q0 52 -27.5 78.5t-76.5 26.5q-50 0 -80.5 -25.5t-30.5 -77.5q0 -55 29.5 -82.5t79.5 -27.5z" />
    <glyph glyph-name="aringacute" unicode="&#x1fb;" horiz-adv-x="1169" 
d="M1034 317q0 -44 13.5 -62.5t50.5 -18.5q22 0 63 12l8 -225q-33 -15 -113.5 -32.5t-133.5 -17.5q-112 0 -182.5 36t-98.5 120q-99 -154 -295 -154q-77 0 -136 19.5t-93.5 49t-56.5 69.5t-29.5 75.5t-7.5 73.5q0 67 18.5 120.5t49 91t77.5 66t95 45t111.5 27.5t117.5 16
t122 7v49q0 54 -12 94q-9 41 -76 41q-49 0 -72.5 -27.5t-41.5 -97.5l-355 62q13 80 45 141.5t89 109t148.5 72.5t215.5 25q479 0 479 -391v-396zM616 424q-24 0 -46.5 -3t-50.5 -12t-45 -29.5t-17 -49.5q0 -30 18 -52t53 -22q50 0 88 27v141zM801 1382q0 -105 -68 -163
t-176 -58q-109 0 -176.5 57t-67.5 160q0 110 70 171t174 61q106 0 175 -61t69 -167zM555 1305q35 0 57.5 18.5t22.5 58.5q0 37 -22 57.5t-56 20.5t-58 -20.5t-24 -55.5q0 -79 80 -79zM371 1679l170 297h438l-313 -309z" />
    <glyph glyph-name="AEacute" unicode="&#x1fc;" horiz-adv-x="2058" 
d="M2021 360v-360h-1065v537h-299l-211 -537h-456l641 1483h1339v-353h-569v-251h538v-338h-538v-181h620zM870 1130l-100 -266h186v266h-86zM1108 1585l170 297h438l-313 -309z" />
    <glyph glyph-name="aeacute" unicode="&#x1fd;" horiz-adv-x="1675" 
d="M1147 -25q-272 0 -416 158q-68 -82 -166.5 -120t-206.5 -38q-76 0 -136.5 19t-97 48.5t-60 69.5t-32.5 78t-9 78q0 66 19 119t52 89t78 63t97 43t110 26.5t115.5 17t114.5 11.5h2.5h2.5v29q0 85 -15.5 119t-72.5 34q-52 0 -78 -29t-36 -100l-355 64q24 170 143 260
t335 90q118 0 193 -30t124 -101q113 131 342 131q118 0 206 -41.5t139 -115t76 -165.5t25 -202q0 -54 -6 -113h-587q2 -101 28.5 -143.5t98.5 -42.5q52 0 84 31.5t40 84.5l338 -84q-28 -152 -151 -245t-338 -93zM535 260q27 0 58 12t46 25q-12 34 -25 125q-81 -8 -119 -28
t-38 -70q0 -28 20.5 -46t57.5 -18zM1202 682q0 47 -6.5 78t-19.5 44t-24 17t-26 4q-77 0 -75 -143h151zM688 1184l107 329h438l-266 -342z" />
    <glyph glyph-name="Oslashacute" unicode="&#x1fe;" horiz-adv-x="1558" 
d="M768 -25q-22 0 -104 5l-56 -142h-422l111 271q-246 185 -246 620q0 167 47 307.5t138 247t236.5 166t332.5 59.5q99 0 184 -18l58 137h421l-135 -323q174 -194 174 -547q0 -182 -43.5 -324t-132.5 -245.5t-231 -158.5t-332 -55zM784 319q63 0 110 20t84 66.5t56 130
t19 203.5q0 228 -62 324t-196 96q-145 0 -215 -98t-70 -322q0 -159 32 -252.5t90 -130.5t152 -37zM588 1606l170 297h438l-313 -310z" />
    <glyph glyph-name="oslashacute" unicode="&#x1ff;" horiz-adv-x="1222" 
d="M231 70q-192 137 -192 465q0 268 144.5 418.5t439.5 150.5q77 0 145 -12l57 125h377l-131 -285q113 -136 113 -377q0 -275 -145 -427.5t-445 -152.5h-33l-63 -153h-377zM440 1184l107 329h438l-266 -342zM610 262q67 0 95 61t28 222q0 154 -24.5 210t-92.5 56
q-47 0 -73 -22.5t-38.5 -80.5t-12.5 -165q0 -163 23.5 -222t94.5 -59z" />
    <glyph glyph-name="uni0200" unicode="&#x200;" horiz-adv-x="1484" 
d="M1516 0h-484l-98 289h-420l-82 -289h-463l475 1483h539zM705 1073l-130 -450h273l-131 450h-12zM84 1888h438l176 -303l-278 -12zM580 1878h409l70 -281l-260 -24z" />
    <glyph glyph-name="uni0201" unicode="&#x201;" horiz-adv-x="1169" 
d="M1034 317q0 -44 13.5 -62.5t50.5 -18.5q22 0 63 12l8 -225q-33 -15 -113.5 -32.5t-133.5 -17.5q-112 0 -182.5 36t-98.5 120q-99 -154 -295 -154q-77 0 -136 19.5t-93.5 49t-56.5 69.5t-29.5 75.5t-7.5 73.5q0 67 18.5 120.5t49 91t77.5 66t95 45t111.5 27.5t117.5 16
t122 7v49q0 54 -12 94q-9 41 -76 41q-49 0 -72.5 -27.5t-41.5 -97.5l-355 62q13 80 45 141.5t89 109t148.5 72.5t215.5 25q479 0 479 -391v-396zM616 424q-24 0 -46.5 -3t-50.5 -12t-45 -29.5t-17 -49.5q0 -30 18 -52t53 -22q50 0 88 27v141zM-74 1526h439l143 -342
l-279 -13zM422 1516h412l32 -320l-262 -25z" />
    <glyph glyph-name="uni0202" unicode="&#x202;" horiz-adv-x="1484" 
d="M1516 0h-484l-98 289h-420l-82 -289h-463l475 1483h539zM705 1073l-130 -450h273l-131 450h-12zM315 1579q39 354 412 354q172 0 276 -83t111 -263l-272 -26q-11 72 -40 102.5t-89 30.5t-89 -27t-46 -102z" />
    <glyph glyph-name="uni0203" unicode="&#x203;" horiz-adv-x="1169" 
d="M1034 317q0 -44 13.5 -62.5t50.5 -18.5q22 0 63 12l8 -225q-33 -15 -113.5 -32.5t-133.5 -17.5q-112 0 -182.5 36t-98.5 120q-99 -154 -295 -154q-77 0 -136 19.5t-93.5 49t-56.5 69.5t-29.5 75.5t-7.5 73.5q0 67 18.5 120.5t49 91t77.5 66t95 45t111.5 27.5t117.5 16
t122 7v49q0 54 -12 94q-9 41 -76 41q-49 0 -72.5 -27.5t-41.5 -97.5l-355 62q13 80 45 141.5t89 109t148.5 72.5t215.5 25q479 0 479 -391v-396zM616 424q-24 0 -46.5 -3t-50.5 -12t-45 -29.5t-17 -49.5q0 -30 18 -52t53 -22q50 0 88 27v141zM686 1161q-12 64 -41.5 92.5
t-85.5 28.5q-58 0 -87 -25t-48 -92l-260 17q39 340 409 340q170 0 272.5 -80t112.5 -254z" />
    <glyph glyph-name="uni0204" unicode="&#x204;" horiz-adv-x="1230" 
d="M1169 360v-360h-1065v1483h1014v-353h-569v-231h541v-338h-541v-201h620zM-4 1888h438l176 -303l-278 -12zM492 1878h409l70 -281l-260 -24z" />
    <glyph glyph-name="uni0205" unicode="&#x205;" horiz-adv-x="1122" 
d="M596 -25q-121 0 -217 31t-159 83t-104.5 125t-59 152.5t-17.5 170.5q0 140 43 250t118 178.5t173 103.5t213 35q499 0 499 -522q0 -93 -4 -115h-587q0 -100 27 -143t100 -43q54 0 86.5 31.5t40.5 84.5l337 -84q-28 -152 -151 -245t-338 -93zM645 682q0 48 -6 78t-18 43.5
t-23 17.5t-29 4q-38 0 -56.5 -30.5t-18.5 -112.5h151zM-49 1526h438l143 -342l-278 -13zM446 1516h412l33 -320l-262 -25z" />
    <glyph glyph-name="uni0206" unicode="&#x206;" horiz-adv-x="1230" 
d="M1169 360v-360h-1065v1483h1014v-353h-569v-231h541v-338h-541v-201h620zM227 1579q39 354 412 354q172 0 276 -83t111 -263l-272 -26q-11 72 -40 102.5t-89 30.5t-89.5 -27.5t-46.5 -101.5z" />
    <glyph glyph-name="uni0207" unicode="&#x207;" horiz-adv-x="1122" 
d="M596 -25q-121 0 -217 31t-159 83t-104.5 125t-59 152.5t-17.5 170.5q0 140 43 250t118 178.5t173 103.5t213 35q499 0 499 -522q0 -93 -4 -115h-587q0 -100 27 -143t100 -43q54 0 86.5 31.5t40.5 84.5l337 -84q-28 -152 -151 -245t-338 -93zM645 682q0 48 -6 78t-18 43.5
t-23 17.5t-29 4q-38 0 -56.5 -30.5t-18.5 -112.5h151zM711 1161q-12 64 -41.5 92.5t-85.5 28.5q-58 0 -87 -25t-48 -92l-261 17q39 340 410 340q170 0 272.5 -80t112.5 -254z" />
    <glyph glyph-name="uni0208" unicode="&#x208;" horiz-adv-x="653" 
d="M104 0v1483h445v-1483h-445zM-301 1888h438l176 -303l-278 -12zM195 1878h409l70 -281l-260 -24z" />
    <glyph glyph-name="uni0209" unicode="&#x209;" horiz-adv-x="585" 
d="M-328 1526h439l143 -342l-279 -13zM168 1516h412l32 -320l-262 -25zM78 0v1081h432v-1081h-432z" />
    <glyph glyph-name="uni020A" unicode="&#x20a;" horiz-adv-x="653" 
d="M104 0v1483h445v-1483h-445zM-70 1579q39 354 412 354q172 0 276 -83t111 -263l-272 -26q-11 72 -40 102.5t-89 30.5t-89 -27t-46 -102z" />
    <glyph glyph-name="uni020B" unicode="&#x20b;" horiz-adv-x="585" 
d="M78 0v1081h432v-1081h-432zM424 1161q-12 64 -41.5 92.5t-85.5 28.5q-58 0 -87 -25t-48 -92l-260 17q39 340 409 340q170 0 272.5 -80t112.5 -254z" />
    <glyph glyph-name="uni020C" unicode="&#x20c;" horiz-adv-x="1558" 
d="M768 -25q-190 0 -330.5 55t-224 157t-123 236.5t-39.5 305.5q0 167 47 307.5t138 247t236.5 166t332.5 59.5q150 0 270 -39t200 -106.5t133 -163.5t76 -205.5t23 -236.5q0 -182 -43.5 -324t-132.5 -245.5t-231 -158.5t-332 -55zM784 319q63 0 110 20t84 66.5t56 130
t19 203.5q0 228 -62 324t-196 96q-145 0 -215 -98t-70 -322q0 -159 32 -252.5t90 -130.5t152 -37zM168 1888h438l176 -303l-278 -12zM664 1878h409l70 -281l-260 -24z" />
    <glyph glyph-name="uni020D" unicode="&#x20d;" horiz-adv-x="1222" 
d="M594 -25q-555 0 -555 560q0 268 144.5 418.5t439.5 150.5q150 0 260 -40.5t175 -115t95.5 -172.5t30.5 -221q0 -275 -145 -427.5t-445 -152.5zM610 262q67 0 95 61t28 222q0 154 -24.5 210t-92.5 56q-47 0 -73 -22.5t-38.5 -80.5t-12.5 -165q0 -163 23.5 -222t94.5 -59z
M-25 1526h439l143 -342l-278 -13zM471 1516h412l32 -320l-262 -25z" />
    <glyph glyph-name="uni020E" unicode="&#x20e;" horiz-adv-x="1558" 
d="M768 -25q-190 0 -330.5 55t-224 157t-123 236.5t-39.5 305.5q0 167 47 307.5t138 247t236.5 166t332.5 59.5q150 0 270 -39t200 -106.5t133 -163.5t76 -205.5t23 -236.5q0 -182 -43.5 -324t-132.5 -245.5t-231 -158.5t-332 -55zM784 319q63 0 110 20t84 66.5t56 130
t19 203.5q0 228 -62 324t-196 96q-145 0 -215 -98t-70 -322q0 -159 32 -252.5t90 -130.5t152 -37zM399 1579q39 354 412 354q172 0 276 -83t111 -263l-272 -26q-11 72 -40 102.5t-89 30.5t-89 -27t-46 -102z" />
    <glyph glyph-name="uni020F" unicode="&#x20f;" horiz-adv-x="1222" 
d="M594 -25q-555 0 -555 560q0 268 144.5 418.5t439.5 150.5q150 0 260 -40.5t175 -115t95.5 -172.5t30.5 -221q0 -275 -145 -427.5t-445 -152.5zM610 262q67 0 95 61t28 222q0 154 -24.5 210t-92.5 56q-47 0 -73 -22.5t-38.5 -80.5t-12.5 -165q0 -163 23.5 -222t94.5 -59z
M735 1161q-12 64 -41.5 92.5t-85.5 28.5q-58 0 -87 -25t-48 -92l-260 17q39 340 410 340q170 0 272.5 -80t112.5 -254z" />
    <glyph glyph-name="uni0210" unicode="&#x210;" horiz-adv-x="1349" 
d="M862 0l-246 524h-69v-524h-443v1483h650q134 0 233.5 -34t157 -95t85 -136t27.5 -165q0 -285 -227 -422l311 -631h-479zM596 844q205 0 205 166q0 143 -162 143h-92v-309h49zM-25 1888h439l176 -303l-279 -12zM471 1878h410l69 -281l-260 -24z" />
    <glyph glyph-name="uni0211" unicode="&#x211;" horiz-adv-x="866" 
d="M858 702q-220 9 -356 -84v-618h-432v1081h370l31 -184q20 38 46 70.5t65 65.5t93.5 52t117.5 19q19 0 65 -4v-398zM-139 1526h438l143 -342l-278 -13zM356 1516h412l33 -320l-262 -25z" />
    <glyph glyph-name="uni0212" unicode="&#x212;" horiz-adv-x="1349" 
d="M862 0l-246 524h-69v-524h-443v1483h650q134 0 233.5 -34t157 -95t85 -136t27.5 -165q0 -285 -227 -422l311 -631h-479zM596 844q205 0 205 166q0 143 -162 143h-92v-309h49zM207 1579q39 354 411 354q83 0 150.5 -19t120 -59t83 -108t34.5 -160l-273 -26
q-11 72 -40 102.5t-89 30.5t-89 -27t-46 -102z" />
    <glyph glyph-name="uni0213" unicode="&#x213;" horiz-adv-x="866" 
d="M858 702q-220 9 -356 -84v-618h-432v1081h370l31 -184q20 38 46 70.5t65 65.5t93.5 52t117.5 19q19 0 65 -4v-398zM621 1161q-12 64 -41.5 92.5t-85.5 28.5q-58 0 -87.5 -25t-48.5 -92l-260 17q39 340 410 340q170 0 272.5 -80t112.5 -254z" />
    <glyph glyph-name="uni0214" unicode="&#x214;" horiz-adv-x="1437" 
d="M723 319q34 0 60.5 4t46 15.5t33 23t22.5 34.5t14.5 42t8 54t3 62t0.5 73v856h441v-916q0 -156 -47.5 -271.5t-134.5 -185t-201.5 -102.5t-257.5 -33q-328 0 -478.5 144t-150.5 461v903h444v-848v-56.5t1.5 -50.5t4 -47.5t7 -40.5t12 -37t18 -28.5t25 -24.5t33.5 -16.5
t43 -11.5t53 -3zM90 1888h438l177 -303l-279 -12zM586 1878h409l70 -281l-260 -24z" />
    <glyph glyph-name="uni0215" unicode="&#x215;" horiz-adv-x="1177" 
d="M496 1081v-665q0 -60 19.5 -84.5t59.5 -24.5q59 0 99 43v731h432v-1081h-369l-32 121q-40 -66 -118.5 -106t-183.5 -40q-166 0 -253 88t-87 265v753h433zM-49 1526h438l143 -342l-278 -13zM446 1516h412l33 -320l-262 -25z" />
    <glyph glyph-name="uni0216" unicode="&#x216;" horiz-adv-x="1437" 
d="M723 319q34 0 60.5 4t46 15.5t33 23t22.5 34.5t14.5 42t8 54t3 62t0.5 73v856h441v-916q0 -156 -47.5 -271.5t-134.5 -185t-201.5 -102.5t-257.5 -33q-328 0 -478.5 144t-150.5 461v903h444v-848v-56.5t1.5 -50.5t4 -47.5t7 -40.5t12 -37t18 -28.5t25 -24.5t33.5 -16.5
t43 -11.5t53 -3zM322 1579q39 354 411 354q172 0 276 -83t111 -263l-272 -26q-11 72 -40 102.5t-89 30.5t-89 -27t-46 -102z" />
    <glyph glyph-name="uni0217" unicode="&#x217;" horiz-adv-x="1177" 
d="M496 1081v-665q0 -60 19.5 -84.5t59.5 -24.5q59 0 99 43v731h432v-1081h-369l-32 121q-40 -66 -118.5 -106t-183.5 -40q-166 0 -253 88t-87 265v753h433zM711 1161q-12 64 -41.5 92.5t-85.5 28.5q-58 0 -87 -25t-48 -92l-261 17q39 340 410 340q170 0 272.5 -80
t112.5 -254z" />
    <glyph glyph-name="uni0218" unicode="&#x218;" horiz-adv-x="1245" 
d="M614 1198q-141 0 -141 -100q0 -68 74 -103q95 -37 182 -59q45 -12 74 -19.5t74 -22.5t75 -28.5t69 -35.5t65 -45t53.5 -55.5t43 -69t26 -83.5t10.5 -100q0 -129 -51 -228.5t-138.5 -157.5t-194.5 -87t-229 -29q-56 0 -102.5 3t-110.5 14.5t-114.5 31.5t-103.5 57.5
t-89 88t-60.5 127.5t-27.5 172l393 53q6 -44 12.5 -74t22 -62.5t38.5 -51t62 -31t92 -12.5q175 0 175 125q0 23 -8 42t-29 34t-37 24.5t-54.5 21t-57.5 16.5t-68 17q-41 9 -67 15.5t-67 18t-68.5 23t-64 28t-61.5 35.5t-53 43.5t-46 55t-34 66t-23.5 80t-7.5 94.5
q0 93 30.5 172t84 135t127 95t159.5 58t181 19q89 0 161 -9t149 -37t129.5 -74.5t87.5 -128t38 -191.5l-401 -45q0 99 -42 136.5t-137 37.5zM827 -137l-200 -481l-287 36l111 445h376z" />
    <glyph glyph-name="uni0219" unicode="&#x219;" horiz-adv-x="1056" 
d="M543 1104q177 0 297 -67t174 -197l-328 -117q-21 49 -64 82t-92 33q-75 0 -75 -54q0 -19 13 -32t42.5 -21.5t54 -13t69.5 -10.5q3 0 5 -0.5t5 -1t5 -0.5q44 -6 73.5 -11.5t73.5 -17.5t73.5 -26.5t63 -39.5t53 -56.5t33 -77t13.5 -101.5q0 -103 -44 -182t-119.5 -125.5
t-168 -69.5t-198.5 -23q-229 0 -344 74q-117 79 -146 182l338 134q23 -54 59.5 -88.5t106.5 -34.5q105 0 105 53q0 20 -13.5 34t-44 24t-55.5 15t-72 13q-45 7 -75 13t-74 19.5t-74.5 29t-64 42t-54 59t-34 79.5t-13.5 104q0 74 26.5 136.5t72.5 106.5t108.5 74.5t135.5 45
t153 14.5zM731 -137l-201 -481l-286 36l110 445h377z" />
    <glyph glyph-name="uni021A" unicode="&#x21a;" horiz-adv-x="1302" 
d="M432 1130h-426v353h1290v-353h-419v-1130h-445v1130zM862 -137l-200 -481l-287 36l110 445h377z" />
    <glyph glyph-name="uni021B" unicode="&#x21b;" horiz-adv-x="909" 
d="M901 66q-52 -33 -152 -62t-214 -29q-191 0 -289.5 94t-98.5 293v426h-155v293h155v324l433 53v-377h276v-293h-276v-378q0 -61 23 -88t77 -27q68 0 170 45zM705 -137l-201 -481l-287 36l111 445h377z" />
    <glyph glyph-name="uni021E" unicode="&#x21e;" horiz-adv-x="1511" 
d="M963 0v551h-414v-551h-445v1483h445v-565h414v565h444v-1483h-444zM887 1907l274 -11l-198 -317h-414l-180 315l264 11l121 -138z" />
    <glyph glyph-name="uni021F" unicode="&#x21f;" horiz-adv-x="1196" 
d="M698 0v666q0 61 -23 84.5t-65 23.5q-68 0 -108 -43v-731h-432v1546h426v-563q108 121 292 121q174 0 258 -88t84 -273v-743h-432zM412 1950l274 -11l-199 -317h-413l-180 315l264 11l121 -138z" />
    <glyph glyph-name="uni0220" unicode="&#x220;" horiz-adv-x="1415" 
d="M879 987q0 73 -33 129q-35 60 -125 60q-65 0 -115 -15.5t-69 -36.5v-1124h-433v1483h383l21 -109q46 53 144 92t222 39q122 0 208 -31.5t135.5 -93t71.5 -141.5t22 -186v-1489h-432v1423z" />
    <glyph glyph-name="uni0226" unicode="&#x226;" horiz-adv-x="1484" 
d="M1516 0h-484l-98 289h-420l-82 -289h-463l475 1483h539zM705 1073l-130 -450h273l-131 450h-12zM952 1819q0 -113 -62 -176.5t-177 -63.5q-113 0 -176.5 63.5t-63.5 176.5q0 112 63.5 172.5t176.5 60.5q115 0 177 -60t62 -173z" />
    <glyph glyph-name="uni0227" unicode="&#x227;" horiz-adv-x="1169" 
d="M1034 317q0 -44 13.5 -62.5t50.5 -18.5q22 0 63 12l8 -225q-33 -15 -113.5 -32.5t-133.5 -17.5q-112 0 -182.5 36t-98.5 120q-99 -154 -295 -154q-77 0 -136 19.5t-93.5 49t-56.5 69.5t-29.5 75.5t-7.5 73.5q0 67 18.5 120.5t49 91t77.5 66t95 45t111.5 27.5t117.5 16
t122 7v49q0 54 -12 94q-9 41 -76 41q-49 0 -72.5 -27.5t-41.5 -97.5l-355 62q13 80 45 141.5t89 109t148.5 72.5t215.5 25q479 0 479 -391v-396zM616 424q-24 0 -46.5 -3t-50.5 -12t-45 -29.5t-17 -49.5q0 -30 18 -52t53 -22q50 0 88 27v141zM797 1399q0 -113 -62.5 -176.5
t-177.5 -63.5q-113 0 -176.5 63.5t-63.5 176.5q0 112 63.5 172.5t176.5 60.5q116 0 178 -60.5t62 -172.5z" />
    <glyph glyph-name="uni0228" unicode="&#x228;" horiz-adv-x="1230" 
d="M1169 360v-360h-430l-12 -94q83 -14 135.5 -60t52.5 -135q0 -125 -86.5 -189.5t-226.5 -64.5q-73 0 -172 21l16 182q52 -8 99 -8q106 0 106 67q0 40 -30.5 53t-85.5 15l26 213h-457v1483h1014v-353h-569v-231h541v-338h-541v-201h620z" />
    <glyph glyph-name="uni0229" unicode="&#x229;" horiz-adv-x="1122" 
d="M645 682q0 48 -6 78t-18 43.5t-23 17.5t-29 4q-38 0 -56.5 -30.5t-18.5 -112.5h151zM377 -340q52 -8 98 -8q107 0 107 67q0 28 -18.5 43.5t-40.5 19.5t-58 5l24 195q-121 16 -210.5 68t-140.5 129t-75 166t-24 192q0 140 43 250t118 178.5t173 103.5t213 35
q499 0 499 -522q0 -93 -4 -115h-587q0 -100 27 -143t100 -43q54 0 86.5 31.5t40.5 84.5l337 -84q-26 -138 -130.5 -229t-286.5 -107l-11 -71q189 -32 189 -195q0 -125 -86.5 -189.5t-227.5 -64.5q-73 0 -172 21z" />
    <glyph glyph-name="uni022A" unicode="&#x22a;" horiz-adv-x="1558" 
d="M768 -25q-190 0 -330.5 55t-224 157t-123 236.5t-39.5 305.5q0 167 47 307.5t138 247t236.5 166t332.5 59.5q150 0 270 -39t200 -106.5t133 -163.5t76 -205.5t23 -236.5q0 -182 -43.5 -324t-132.5 -245.5t-231 -158.5t-332 -55zM784 319q63 0 110 20t84 66.5t56 130
t19 203.5q0 228 -62 324t-196 96q-145 0 -215 -98t-70 -322q0 -159 32 -252.5t90 -130.5t152 -37zM764 1790q0 -96 -64.5 -154.5t-169.5 -58.5q-106 0 -172.5 58.5t-66.5 154.5t66.5 154.5t172.5 58.5q105 0 169.5 -58.5t64.5 -154.5zM1300 1790q0 -97 -64.5 -155
t-170.5 -58t-172 58.5t-66 154.5t66 154.5t172 58.5t170.5 -58t64.5 -155zM461 2337h669v-266h-669v266z" />
    <glyph glyph-name="uni022B" unicode="&#x22b;" horiz-adv-x="1222" 
d="M594 -25q-555 0 -555 560q0 268 144.5 418.5t439.5 150.5q150 0 260 -40.5t175 -115t95.5 -172.5t30.5 -221q0 -275 -145 -427.5t-445 -152.5zM610 262q67 0 95 61t28 222q0 154 -24.5 210t-92.5 56q-47 0 -73 -22.5t-38.5 -80.5t-12.5 -165q0 -163 23.5 -222t94.5 -59z
M573 1405q0 -96 -64 -154.5t-169 -58.5q-107 0 -173.5 58.5t-66.5 154.5t66.5 154.5t173.5 58.5q105 0 169 -58.5t64 -154.5zM1110 1405q0 -96 -65 -154.5t-171 -58.5t-171.5 58.5t-65.5 154.5t65.5 154.5t171.5 58.5t171 -58.5t65 -154.5zM270 1970h670v-266h-670v266z" />
    <glyph glyph-name="uni022C" unicode="&#x22c;" horiz-adv-x="1558" 
d="M768 -25q-190 0 -330.5 55t-224 157t-123 236.5t-39.5 305.5q0 167 47 307.5t138 247t236.5 166t332.5 59.5q150 0 270 -39t200 -106.5t133 -163.5t76 -205.5t23 -236.5q0 -182 -43.5 -324t-132.5 -245.5t-231 -158.5t-332 -55zM784 319q63 0 110 20t84 66.5t56 130
t19 203.5q0 228 -62 324t-196 96q-145 0 -215 -98t-70 -322q0 -159 32 -252.5t90 -130.5t152 -37zM645 1954q60 0 115.5 -21t101 -42t82.5 -21q29 0 37 17.5t8 58.5l197 -11q10 -63 3 -121.5t-26 -104t-64.5 -72.5t-111.5 -27q-52 0 -100.5 13.5t-78.5 29.5t-64.5 29.5
t-61.5 13.5q-34 0 -45.5 -19t-1.5 -65l-219 8q-18 146 42.5 240t186.5 94zM461 2320h669v-266h-669v266z" />
    <glyph glyph-name="uni022D" unicode="&#x22d;" horiz-adv-x="1222" 
d="M594 -25q-555 0 -555 560q0 268 144.5 418.5t439.5 150.5q150 0 260 -40.5t175 -115t95.5 -172.5t30.5 -221q0 -275 -145 -427.5t-445 -152.5zM610 262q67 0 95 61t28 222q0 154 -24.5 210t-92.5 56q-47 0 -73 -22.5t-38.5 -80.5t-12.5 -165q0 -163 23.5 -222t94.5 -59z
M461 1528q60 0 115.5 -21t101 -42t82.5 -21q29 0 37 17.5t8 58.5l196 -11q10 -63 3.5 -121.5t-26 -104t-64.5 -72.5t-111 -27q-52 0 -100.5 13.5t-78.5 29.5t-64.5 29.5t-61.5 13.5q-34 0 -45.5 -19t-1.5 -65l-220 8q-18 145 43 239.5t187 94.5zM270 1901h670v-267h-670v267
z" />
    <glyph glyph-name="uni022E" unicode="&#x22e;" horiz-adv-x="1558" 
d="M768 -25q-190 0 -330.5 55t-224 157t-123 236.5t-39.5 305.5q0 167 47 307.5t138 247t236.5 166t332.5 59.5q150 0 270 -39t200 -106.5t133 -163.5t76 -205.5t23 -236.5q0 -182 -43.5 -324t-132.5 -245.5t-231 -158.5t-332 -55zM784 319q63 0 110 20t84 66.5t56 130
t19 203.5q0 228 -62 324t-196 96q-145 0 -215 -98t-70 -322q0 -159 32 -252.5t90 -130.5t152 -37zM1036 1819q0 -113 -62 -176.5t-177 -63.5q-113 0 -176.5 63.5t-63.5 176.5q0 112 63.5 172.5t176.5 60.5q115 0 177 -60t62 -173z" />
    <glyph glyph-name="uni022F" unicode="&#x22f;" horiz-adv-x="1222" 
d="M594 -25q-555 0 -555 560q0 268 144.5 418.5t439.5 150.5q150 0 260 -40.5t175 -115t95.5 -172.5t30.5 -221q0 -275 -145 -427.5t-445 -152.5zM610 262q67 0 95 61t28 222q0 154 -24.5 210t-92.5 56q-47 0 -73 -22.5t-38.5 -80.5t-12.5 -165q0 -163 23.5 -222t94.5 -59z
M846 1399q0 -113 -62.5 -176.5t-177.5 -63.5q-112 0 -175.5 63.5t-63.5 176.5q0 112 63 172.5t176 60.5q116 0 178 -60.5t62 -172.5z" />
    <glyph glyph-name="uni0230" unicode="&#x230;" horiz-adv-x="1558" 
d="M768 -25q-190 0 -330.5 55t-224 157t-123 236.5t-39.5 305.5q0 167 47 307.5t138 247t236.5 166t332.5 59.5q150 0 270 -39t200 -106.5t133 -163.5t76 -205.5t23 -236.5q0 -182 -43.5 -324t-132.5 -245.5t-231 -158.5t-332 -55zM784 319q63 0 110 20t84 66.5t56 130
t19 203.5q0 228 -62 324t-196 96q-145 0 -215 -98t-70 -322q0 -159 32 -252.5t90 -130.5t152 -37zM1036 1819q0 -113 -62 -176.5t-177 -63.5q-113 0 -176.5 63.5t-63.5 176.5q0 112 63.5 172.5t176.5 60.5q115 0 177 -60t62 -173zM461 2394h669v-266h-669v266z" />
    <glyph glyph-name="uni0231" unicode="&#x231;" horiz-adv-x="1222" 
d="M594 -25q-555 0 -555 560q0 268 144.5 418.5t439.5 150.5q150 0 260 -40.5t175 -115t95.5 -172.5t30.5 -221q0 -275 -145 -427.5t-445 -152.5zM610 262q67 0 95 61t28 222q0 154 -24.5 210t-92.5 56q-47 0 -73 -22.5t-38.5 -80.5t-12.5 -165q0 -163 23.5 -222t94.5 -59z
M846 1399q0 -113 -62.5 -176.5t-177.5 -63.5q-112 0 -175.5 63.5t-63.5 176.5q0 112 63 172.5t176 60.5q116 0 178 -60.5t62 -172.5zM270 1976h670v-266h-670v266z" />
    <glyph glyph-name="uni0232" unicode="&#x232;" horiz-adv-x="1323" 
d="M457 0v541l-518 942h483l256 -555h16l244 555h446l-483 -942l2 -541h-446zM348 1858h670v-267h-670v267z" />
    <glyph glyph-name="uni0233" unicode="&#x233;" horiz-adv-x="1161" 
d="M432 1081l158 -661h10l148 661h446q-44 -125 -184.5 -534t-212.5 -608q-38 -110 -74 -179.5t-88 -121t-122.5 -73.5t-170.5 -22q-63 0 -144.5 15.5t-121.5 33.5l26 295q97 -32 154 -32q48 0 73 18t40 53l18 41l-420 1114h465zM250 1454h678v-266h-678v266z" />
    <glyph glyph-name="uni0237" unicode="&#x237;" horiz-adv-x="585" 
d="M49 -457q-106 0 -186 22t-119 50l25 285q87 -45 180 -45q58 0 93.5 31t35.5 118v1077h432v-1116q0 -111 -35 -194t-99 -132t-145.5 -72.5t-181.5 -23.5z" />
    <glyph glyph-name="uni0238" unicode="&#x238;" horiz-adv-x="1890" 
d="M487 -25q-203 0 -320.5 132.5t-117.5 406.5q0 127 27.5 229.5t72.5 168.5t105.5 110.5t123 63t128.5 18.5q83 0 134.5 -20.5t88.5 -63.5v526h432v-553q108 111 279 111q83 0 153.5 -29.5t127.5 -91t89.5 -169t32.5 -251.5q0 -588 -444 -588q-172 0 -275 127l-12 -4
l-20 -98h-287l-25 100l-10 2q-89 -127 -283 -127zM649 301q49 0 80 27v420q-34 30 -74 30q-75 0 -112 -69.5t-37 -176.5q0 -104 34.5 -167.5t108.5 -63.5zM1264 303q58 0 90 55t32 187q0 36 -1.5 62t-9 59.5t-20.5 54.5t-38 36t-60 15q-50 0 -96 -37v-397q60 -35 103 -35z
" />
    <glyph glyph-name="uni0239" unicode="&#x239;" horiz-adv-x="1892" 
d="M733 70q-95 -95 -254 -95q-202 0 -316 132.5t-114 412.5q0 126 27.5 227.5t72.5 167t105.5 109t123.5 62t130 18.5q187 0 266 -133l43 110h281l24 -108q61 71 143 101t162 30q91 0 164 -29.5t131 -91.5t89.5 -168.5t31.5 -251.5q0 -127 -22 -227.5t-60.5 -167.5t-93 -111
t-116.5 -63t-134 -19q-91 0 -150.5 21t-105.5 67v-497h-428v504zM649 305q51 0 84 23v424q-40 26 -84 26q-72 0 -107.5 -64.5t-35.5 -170.5q0 -238 143 -238zM1262 303q66 0 96.5 58.5t30.5 183.5q0 123 -31 176t-94 53q-51 0 -103 -37v-395q12 -14 45 -26.5t56 -12.5z" />
    <glyph glyph-name="uni023A" unicode="&#x23a;" horiz-adv-x="1484" 
d="M1516 0h-484l-49 143l-80 -309h-381l131 455h-139l-82 -289h-463l475 1483h504l39 145h356l-169 -676zM705 1073l-130 -450h273l-131 450h-12z" />
    <glyph glyph-name="uni023B" unicode="&#x23b;" horiz-adv-x="1429" 
d="M768 -25q-53 0 -78 2l-53 -143h-430l108 256q-264 181 -264 641q0 169 45.5 308.5t134.5 245.5t232.5 165t329.5 59h32l52 119h430l-103 -233q196 -144 205 -453l-401 -39q-1 143 -57.5 202.5t-166.5 59.5q-134 0 -203 -100t-69 -317q0 -229 65.5 -329t208.5 -100
q61 0 104 18t67.5 53t37 69t21.5 82l393 -62q-11 -109 -55.5 -196.5t-108 -144t-145.5 -94t-164.5 -53.5t-167.5 -16z" />
    <glyph glyph-name="uni023C" unicode="&#x23c;" horiz-adv-x="1126" 
d="M1110 399q-26 -206 -154.5 -311t-341.5 -113l-63 -159h-375l100 231q-116 66 -176.5 188.5t-60.5 280.5q0 277 151 432.5t428 155.5h37l50 117h376l-104 -240q115 -109 133 -305l-377 -55q-9 97 -30 138.5t-85 41.5q-66 0 -96 -54t-30 -190q0 -147 26.5 -209.5
t102.5 -62.5q70 0 103 43t44 135z" />
    <glyph glyph-name="uni023D" unicode="&#x23d;" horiz-adv-x="1198" 
d="M-8 1034h112v449h445v-449h201v-332h-201v-342h604v-360h-1049v702h-112v332z" />
    <glyph glyph-name="uni023E" unicode="&#x23e;" horiz-adv-x="1302" 
d="M432 1130h-426v353h766l66 145h430l-66 -145h94v-353h-419v-1130h-363l-84 -166h-405l407 950v346z" />
    <glyph glyph-name="uni023F" unicode="&#x23f;" horiz-adv-x="1056" 
d="M543 1104q177 0 297 -67t174 -197l-328 -117q-21 49 -64 82t-92 33q-75 0 -75 -54q0 -19 13 -32t42.5 -21.5t54 -13t69.5 -10.5q3 0 5 -0.5t5 -1t5 -0.5q44 -6 73.5 -11.5t73.5 -17.5t73.5 -26.5t63 -39.5t53 -56.5t33 -77t13.5 -101.5q0 -103 -44 -182t-119.5 -125.5
t-168 -69.5t-198.5 -23q-39 0 -62 2q72 -96 125.5 -133t110.5 -37q53 0 119 54l127 -174q-68 -68 -135.5 -103t-147.5 -35q-62 0 -116 23.5t-94.5 59.5t-85 94.5t-78.5 113t-84.5 132t-94.5 134.5q-57 57 -74 125l338 134q23 -54 59.5 -88.5t106.5 -34.5q105 0 105 53
q0 20 -13.5 34t-44 24t-55.5 15t-72 13q-45 7 -75 13t-74 19.5t-74.5 29t-64 42t-54 59t-34 79.5t-13.5 104q0 74 26.5 136.5t72.5 106.5t108.5 74.5t135.5 45t153 14.5z" />
    <glyph glyph-name="uni0240" unicode="&#x240;" horiz-adv-x="968" 
d="M963 -254q-59 -80 -138 -125t-170 -45q-55 0 -104 17.5t-97.5 59t-74 68.5t-75.5 86q-3 3 -4.5 5t-4 5t-4.5 5q-68 86 -124.5 132t-117.5 46v281l391 507h-391v293h850v-280l-491 -635q22 -16 44.5 -41.5t31.5 -37t34 -46.5q23 -33 39.5 -52.5t40.5 -41t51.5 -31.5
t59.5 -10q70 0 129 59z" />
    <glyph glyph-name="uni0241" unicode="&#x241;" horiz-adv-x="1196" 
d="M324 674q68 5 134 29t122.5 65.5t91.5 106.5t35 143q0 156 -103 156q-69 0 -100 -45.5t-39 -131.5l-426 62q27 228 181 339t401 111q83 0 159 -16.5t147.5 -55t124 -96t84 -146t31.5 -198.5q0 -91 -25 -178t-73.5 -165t-129 -138t-183.5 -88v-428h-432v674z" />
    <glyph glyph-name="uni0242" unicode="&#x242;" horiz-adv-x="1214" 
d="M332 365q385 35 385 268q0 62 -28 102.5t-85 40.5q-74 0 -106.5 -50t-40.5 -144l-414 61q13 119 60 207.5t124.5 143t178.5 81.5t227 27q84 0 160 -16.5t145.5 -54.5t120 -93.5t80.5 -139t30 -186.5q0 -379 -405 -493v-119h-432v365z" />
    <glyph glyph-name="uni0243" unicode="&#x243;" horiz-adv-x="1374" 
d="M31 606h125v877h659q127 0 218 -27t141.5 -78t73 -114t22.5 -144q0 -132 -75 -219t-187 -125v-6q333 -36 333 -356q0 -111 -43 -192.5t-121.5 -129t-179 -70t-225.5 -22.5h-616v293h-125v313zM621 895q43 0 73.5 3t60 12.5t47.5 25.5t29 43t11 65q0 28 -7 49.5t-16.5 35
t-27 23t-30.5 14.5t-36 7t-35 2.5t-35 0.5h-55v-281h21zM672 303q103 0 149.5 31.5t46.5 118.5q0 50 -13 80.5t-41.5 43.5t-53 16t-68.5 3h-92v-293h72z" />
    <glyph glyph-name="uni0244" unicode="&#x244;" horiz-adv-x="1486" 
d="M0 1047h109v436h444v-436h385v436h440v-436h109v-347h-109v-133q0 -156 -47.5 -271.5t-134.5 -185t-201.5 -102.5t-257.5 -33q-328 0 -478 144t-150 461v120h-109v347zM750 319q34 0 60.5 4t46 15.5t33 23t22.5 34.5t14.5 42t8 54t3 62t0.5 73v73h-385v-65v-56.5
t1.5 -50.5t4 -47.5t7 -40.5t12 -37t18 -28.5t25 -24.5t33.5 -16.5t43 -11.5t53 -3z" />
    <glyph glyph-name="uni0245" unicode="&#x245;" horiz-adv-x="1441" 
d="M416 1483h598l459 -1483h-504l-258 1055h-21l-270 -1055h-451z" />
    <glyph glyph-name="uni0246" unicode="&#x246;" horiz-adv-x="1210" 
d="M1169 360v-360h-555l-63 -166h-430l69 166h-86v1483h525l63 145h430l-63 -145h59v-353h-569v-231h541v-338h-541v-201h620z" />
    <glyph glyph-name="uni0247" unicode="&#x247;" horiz-adv-x="1122" 
d="M1085 313q-18 -96 -72.5 -169t-156.5 -119.5t-242 -49.5l-63 -159h-375l103 233q-124 71 -182 199.5t-58 288.5q0 140 43 250t118 178.5t173 103.5t213 35q49 0 67 -2l52 119h376l-112 -258q116 -131 116 -381q0 -93 -4 -115h-587q0 -100 27 -143t100 -43q54 0 86.5 31.5
t40.5 84.5zM645 682q0 48 -6 78t-18 43.5t-23 17.5t-29 4q-38 0 -56.5 -30.5t-18.5 -112.5h151z" />
    <glyph glyph-name="uni0248" unicode="&#x248;" horiz-adv-x="1171" 
d="M426 1034h180v449h445v-449h127v-332h-127v-249q0 -220 -138.5 -349t-386.5 -129q-86 0 -156 11.5t-138 43.5t-114.5 83.5t-76.5 136t-33 196.5l428 62q2 -33 3 -48.5t3.5 -41.5t6.5 -38t10.5 -28.5t16 -24t23 -13t31.5 -5.5q44 0 60 31t16 92v270h-180v332z" />
    <glyph glyph-name="uni0249" unicode="&#x249;" horiz-adv-x="733" 
d="M606 1395q0 -113 -62 -176.5t-177 -63.5q-113 0 -176.5 63.5t-63.5 176.5q0 112 63.5 172.5t176.5 60.5q115 0 177 -60t62 -173zM123 -457q-106 0 -186 22t-119 50l24 285q87 -45 181 -45q58 0 93.5 31t35.5 118v283h-158v329h158v465h432v-465h149v-329h-149v-322
q0 -111 -35 -194t-99 -132t-145.5 -72.5t-181.5 -23.5z" />
    <glyph glyph-name="uni024A" unicode="&#x24a;" horiz-adv-x="1574" 
d="M649 -25q-107 0 -197.5 27.5t-165 85.5t-126.5 144.5t-80.5 208.5t-28.5 272q0 128 20.5 237.5t56 190t84.5 144.5t104 105t117.5 68.5t121.5 39t119 11.5q119 0 206 -31.5t152 -111.5l25 117h364v-1520q0 -44 13.5 -63t50.5 -19q27 0 71 13l9 -304q-30 -15 -108.5 -30
t-135.5 -15q-41 0 -78.5 7t-76 26.5t-66 50t-45 81.5t-17.5 116v303q-61 -67 -163 -110.5t-226 -43.5zM786 315q39 0 100.5 13.5t90.5 36.5v753q-52 47 -164 47q-38 0 -71.5 -6.5t-78.5 -32.5t-76.5 -70t-54 -127t-22.5 -196q0 -106 16.5 -184t42 -122t64 -70t74 -34
t79.5 -8z" />
    <glyph glyph-name="uni024B" unicode="&#x24b;" horiz-adv-x="1245" 
d="M487 -25q-203 0 -320.5 132.5t-117.5 406.5q0 127 27.5 229.5t72.5 168.5t105.5 110.5t123 63t128.5 18.5q91 0 162 -33t106 -102l45 112h342v-1128q0 -66 12 -90.5t56 -24.5q10 0 37 3.5t39 4.5l12 -268q-80 -35 -166 -35q-371 0 -371 279v278l-10 2
q-101 -127 -283 -127zM649 301q49 0 80 27v420q-34 30 -74 30q-75 0 -112 -69.5t-37 -176.5q0 -104 34.5 -167.5t108.5 -63.5z" />
    <glyph glyph-name="uni024C" unicode="&#x24c;" horiz-adv-x="1458" 
d="M104 844h109v639h649q108 0 194 -22.5t143 -62t95.5 -94.5t55 -117.5t16.5 -133.5q0 -285 -227 -422l311 -631h-479l-246 524h-70v-524h-442v530h-109v314zM705 844q204 0 204 166q0 143 -161 143h-93v-309h50z" />
    <glyph glyph-name="uni024D" unicode="&#x24d;" horiz-adv-x="915" 
d="M-25 494h144v587h370l31 -184q20 38 46 70.5t65 65.5t93.5 52t117.5 19q19 0 65 -4v-398q-220 9 -356 -84v-124h164v-332h-164v-162h-432v162h-144v332z" />
    <glyph glyph-name="uni024E" unicode="&#x24e;" horiz-adv-x="1337" 
d="M461 0v541l-236 428h-286v252h147l-143 262h483l256 -555h16l244 555h447l-136 -262h146v-252h-275l-219 -428l2 -541h-446z" />
    <glyph glyph-name="uni024F" unicode="&#x24f;" horiz-adv-x="1222" 
d="M-33 860h107l-84 221h465l157 -661h11l147 661h447l-78 -221h116v-330h-229q-177 -510 -207 -591q-38 -110 -73.5 -179.5t-87.5 -121t-122.5 -73.5t-170.5 -22q-63 0 -145 15.5t-122 33.5l27 295q97 -32 154 -32q48 0 72.5 17.5t39.5 53.5l19 41l-213 563h-230v330z" />
    <glyph glyph-name="uni0250" unicode="&#x250;" horiz-adv-x="1173" 
d="M135 764q0 46 -12 64t-51 18q-24 0 -64 -12l-8 225q32 15 113.5 32t134.5 17q112 0 182 -36t98 -120q51 75 121 114.5t174 39.5q77 0 136.5 -19.5t94 -49t56.5 -69t29.5 -75.5t7.5 -74q0 -77 -23.5 -137.5t-68.5 -99.5t-97.5 -65.5t-125 -40.5t-135 -20.5t-142.5 -9.5
v-49q0 -49 10 -94q12 -41 78 -41q53 0 77 27.5t38 97.5l354 -61q-13 -81 -44.5 -142t-88.5 -109t-149 -73t-216 -25q-479 0 -479 392v395zM553 657q160 0 160 95q0 30 -17 51.5t-55 21.5q-62 0 -88 -26v-142z" />
    <glyph glyph-name="uni0251" unicode="&#x251;" horiz-adv-x="1232" 
d="M487 -25q-203 0 -320.5 132.5t-117.5 406.5q0 127 27.5 229.5t72.5 168.5t105.5 110.5t123 63t128.5 18.5q91 0 162 -33t106 -102l45 112h342v-1081h-356l-25 100l-10 2q-101 -127 -283 -127zM649 301q49 0 80 27v420q-34 30 -74 30q-75 0 -112 -69.5t-37 -176.5
q0 -104 34.5 -167.5t108.5 -63.5z" />
    <glyph glyph-name="uni0252" unicode="&#x252;" horiz-adv-x="1232" 
d="M745 1106q205 0 322 -131.5t117 -407.5q0 -127 -27.5 -229.5t-72.5 -168.5t-105.5 -110.5t-123 -63t-128.5 -18.5q-90 0 -161 34.5t-107 101.5l-45 -113h-342v1081h356l25 -100l10 -2q101 127 282 127zM584 780q-50 0 -80 -26v-420q36 -31 74 -31q75 0 112 69.5t37 176.5
q0 104 -34.5 167.5t-108.5 63.5z" />
    <glyph glyph-name="uni0253" unicode="&#x253;" horiz-adv-x="1234" 
d="M74 1124q0 125 34.5 214.5t97.5 139.5t139 72.5t171 22.5q63 0 136.5 -13.5t123.5 -33.5l-16 -281q-76 17 -121 17q-68 0 -101.5 -31t-33.5 -113v-129q104 115 280 115q66 0 124 -18t110 -58.5t89.5 -102t59 -154t21.5 -208.5q0 -588 -447 -588q-180 0 -282 129l-13 -2
l-18 -102h-354v1124zM504 340q46 -37 102 -37q60 0 92.5 55t32.5 187q0 36 -1.5 62t-9 59.5t-20.5 54.5t-38 36t-60 15q-52 0 -98 -37v-395z" />
    <glyph glyph-name="uni0254" unicode="&#x254;" horiz-adv-x="1126" 
d="M543 1106q178 0 302.5 -71t183 -191t58.5 -279q0 -277 -151 -432.5t-428 -155.5q-217 0 -344.5 110t-147.5 319l377 55q9 -96 30.5 -138t84.5 -42q66 0 96.5 53.5t30.5 189.5q0 148 -26.5 210.5t-102.5 62.5q-67 0 -102 -44.5t-46 -134.5l-342 64q28 214 165.5 319
t361.5 105z" />
    <glyph glyph-name="uni0256" unicode="&#x256;" horiz-adv-x="1218" 
d="M1178 -461q-209 0 -303.5 104.5t-94.5 309.5v147l-10 2q-89 -127 -283 -127q-203 0 -320.5 132.5t-117.5 406.5q0 127 27.5 229.5t72.5 168.5t105.5 110.5t123 63t128.5 18.5q146 0 227 -78v520h428v-1548q0 -79 18.5 -109t69.5 -30q41 0 90 14l45 -297
q-57 -20 -99.5 -28.5t-106.5 -8.5zM649 301q53 0 84 27v424q-31 26 -78 26q-75 0 -112 -69.5t-37 -176.5q0 -104 34.5 -167.5t108.5 -63.5z" />
    <glyph glyph-name="uni0257" unicode="&#x257;" horiz-adv-x="1349" 
d="M805 0l-25 100l-10 2q-89 -127 -283 -127q-203 0 -320.5 132.5t-117.5 406.5q0 127 27.5 229.5t72.5 168.5t105.5 110.5t123 63t128.5 18.5q77 0 129.5 -18t97.5 -60v94q0 127 31.5 217t90.5 140.5t133 73t169 22.5q122 0 201 -37l-17 -281q-49 11 -79 11q-53 0 -77 -33
t-24 -117v-1116h-356zM733 752q-31 26 -78 26q-75 0 -112 -69.5t-37 -176.5q0 -104 34.5 -167.5t108.5 -63.5q51 0 84 27v424z" />
    <glyph glyph-name="uni0259" unicode="&#x259;" horiz-adv-x="1124" 
d="M528 1104q121 0 217 -30.5t159 -82.5t104.5 -125t59 -152.5t17.5 -170.5q0 -140 -42.5 -250.5t-118 -178.5t-173 -103.5t-212.5 -35.5q-255 0 -377.5 136.5t-122.5 386.5q0 48 4 114h588q0 101 -27 144t-100 43q-54 0 -86.5 -32t-40.5 -85l-338 84q28 152 151 245t338 93
zM479 397q0 -48 6 -78.5t18.5 -43.5t23.5 -17t28 -4q38 0 57 31t19 112h-152z" />
    <glyph glyph-name="uni025B" unicode="&#x25b;" horiz-adv-x="1189" 
d="M588 -25q-282 0 -415.5 91.5t-133.5 248.5q0 62 33 129q34 70 125 105v4q-59 30 -91 86t-32 125q0 53 15 99.5t52.5 91.5t95 77.5t149.5 52t210 19.5q95 0 172 -11.5t149 -40.5t123 -76.5t86.5 -122t47.5 -173.5l-363 -53q-1 104 -55.5 143t-173.5 39q-60 0 -93.5 -15.5
t-33.5 -58.5q0 -55 92 -55h186v-277h-194q-82 0 -82 -53q0 -71 127 -71q98 0 174 41.5t82 123.5l334 -63q-12 -72 -36.5 -131t-70.5 -111.5t-110 -87.5t-157.5 -55.5t-211.5 -20.5z" />
    <glyph glyph-name="uni0260" unicode="&#x260;" horiz-adv-x="1337" 
d="M539 -457q-222 0 -353 75t-159 245l376 106q15 -58 45.5 -89.5t102.5 -31.5q94 0 134 46t40 143v57q-94 -94 -254 -94q-200 0 -315 135t-115 404q0 121 28 219t73.5 161t106.5 106t123.5 61t127.5 18q187 0 266 -133v174q0 121 25 205t76 132.5t119.5 69.5t162.5 21
q52 0 117 -11t100 -28l-16 -281q-58 13 -97 13q-52 0 -75 -31t-23 -105v-1067q0 -520 -616 -520zM641 330q52 0 84 22v400q-8 7 -17.5 12.5t-16 8t-16 4t-13 1.5h-12.5h-9q-72 0 -107.5 -64.5t-35.5 -170.5q0 -213 143 -213z" />
    <glyph glyph-name="uni0263" unicode="&#x263;" horiz-adv-x="1163" 
d="M575 -502q-185 0 -275.5 83.5t-90.5 213.5q0 43 6 81.5t11 60.5t26.5 68.5t29 60t42.5 79.5l-349 936h467l146 -704l151 704h449l-357 -936q34 -51 47 -71t33.5 -57.5t27.5 -63.5t13 -65.5t6 -86.5q0 -126 -100 -214.5t-283 -88.5zM584 -242q38 0 62 23t24 61
q0 99 -84 246q-88 -147 -88 -235q0 -42 21 -68.5t65 -26.5z" />
    <glyph glyph-name="uni0264" unicode="&#x264;" horiz-adv-x="1372" 
d="M1135 1104q85 0 138.5 -11t112.5 -34l-24 -311q-60 24 -186 24q-125 0 -240 -39q96 -78 151.5 -180t55.5 -199q0 -101 -33.5 -174.5t-97 -118t-147.5 -65.5t-191 -21q-441 0 -441 375q0 100 56 199t153 184q-118 47 -229 47q-102 0 -207 -30l-20 309q60 24 110 34.5
t133 10.5q118 0 243 -41t228 -115q220 156 435 156zM686 270q36 0 53 23t17 76q0 126 -72 213q-76 -88 -76 -211q0 -46 20.5 -73.5t57.5 -27.5z" />
    <glyph glyph-name="uni0265" unicode="&#x265;" horiz-adv-x="1175" 
d="M1124 -434h-426v528q-106 -119 -292 -119q-174 0 -258.5 88t-84.5 273v745h433v-667q0 -109 88 -109q68 0 108 43v733h432v-1515z" />
    <glyph glyph-name="uni0266" unicode="&#x266;" horiz-adv-x="1196" 
d="M70 1186q0 208 100.5 297.5t304.5 89.5q81 0 175.5 -16.5t121.5 -30.5l-14 -275q-73 27 -137 27q-25 0 -42 -3t-38.5 -13.5t-33 -37t-11.5 -67.5v-174q108 121 292 121q174 0 258 -88t84 -273v-743h-432v666q0 61 -23 84.5t-65 23.5q-68 0 -108 -43v-731h-432v1186z" />
    <glyph glyph-name="uni0268" unicode="&#x268;" horiz-adv-x="710" 
d="M352 1155q-112 0 -174.5 63.5t-62.5 176.5q0 112 62 172.5t175 60.5q116 0 179 -60.5t63 -172.5q0 -113 -63.5 -176.5t-178.5 -63.5zM16 799h123v282h432v-282h123v-330h-123v-469h-432v469h-123v330z" />
    <glyph glyph-name="uni0269" unicode="&#x269;" horiz-adv-x="790" 
d="M475 -25q-191 0 -289 92.5t-98 294.5v719h432v-669q0 -117 92 -117q79 0 146 37l53 -275q-129 -82 -336 -82z" />
    <glyph glyph-name="uni026A" unicode="&#x26a;" horiz-adv-x="1005" 
d="M53 287h240v508h-240v286h899v-286h-239v-508h239v-287h-899v287z" />
    <glyph glyph-name="uni026C" unicode="&#x26c;" horiz-adv-x="1208" 
d="M338 449q-141 0 -229.5 79.5t-88.5 243.5q0 151 83.5 227t218.5 76q67 0 118 -26v497h432v-719q195 105 308 199l16 -291q-180 -115 -324 -182v-553h-432v459q-34 -10 -102 -10zM309 774q0 -38 22.5 -59t59.5 -21q25 0 49 6v7q0 34 -1.5 53.5t-8 41.5t-21 32t-38.5 10
q-26 0 -44 -19.5t-18 -50.5z" />
    <glyph glyph-name="uni026F" unicode="&#x26f;" horiz-adv-x="1724" 
d="M1655 1081v-1081h-363l-18 90q-113 -113 -287 -113q-203 0 -282 129q-38 -58 -117 -93.5t-180 -35.5q-160 0 -250 88.5t-90 262.5v753h432v-682q0 -92 75 -92q46 0 72 33v741h432v-682q0 -45 20 -68.5t52 -23.5q47 0 72 29v745h432z" />
    <glyph glyph-name="uni0271" unicode="&#x271;" horiz-adv-x="1724" 
d="M1225 682q0 92 -76 92q-46 0 -72 -33v-741h-432v682q0 45 -20 68.5t-52 23.5q-46 0 -71 -29v-745h-432v1081h362l19 -90q121 113 286 113q204 0 283 -129q38 58 117 93.5t180 35.5q160 0 250 -88t90 -262v-828q0 -194 -104.5 -290.5t-299.5 -96.5q-115 0 -196 37l45 293
q30 -10 59 -10q33 0 48.5 20.5t15.5 67.5v735z" />
    <glyph glyph-name="uni0272" unicode="&#x272;" horiz-adv-x="1196" 
d="M70 1081h383l20 -100q45 54 123.5 88.5t181.5 34.5q183 0 267.5 -87.5t84.5 -273.5v-743h-432v666q0 61 -23 84.5t-65 23.5q-68 0 -108 -43v-805q0 -194 -104.5 -290.5t-299.5 -96.5q-115 0 -196 37l45 293q30 -10 59 -10q33 0 48.5 20.5t15.5 67.5v1134z" />
    <glyph glyph-name="uni0275" unicode="&#x275;" horiz-adv-x="1222" 
d="M594 -25q-555 0 -555 560q0 268 144.5 418.5t439.5 150.5q150 0 260 -40.5t175 -115t95.5 -172.5t30.5 -221q0 -275 -145 -427.5t-445 -152.5zM616 811q-51 0 -77.5 -27.5t-38.5 -97.5h225q-7 68 -33 96.5t-76 28.5zM610 262q48 0 74.5 27.5t38.5 95.5h-223
q11 -68 35 -95.5t75 -27.5z" />
    <glyph glyph-name="uni027D" unicode="&#x27d;" horiz-adv-x="866" 
d="M455 -461q-190 0 -287.5 93.5t-97.5 293.5v1155h370l31 -184q20 38 46 70.5t65 65.5t93.5 52t117.5 19q19 0 65 -4v-398q-220 9 -356 -84v-638q0 -64 22.5 -92.5t77.5 -28.5q70 0 168 45l53 -275q-51 -33 -152 -61.5t-216 -28.5z" />
    <glyph glyph-name="uni027E" unicode="&#x27e;" horiz-adv-x="794" 
d="M70 664q0 123 35 211.5t98.5 137.5t139 71t169.5 22q149 0 262 -45l-16 -281q-67 15 -109 15q-78 0 -112.5 -35t-34.5 -133v-627h-432v664z" />
    <glyph glyph-name="uni0283" unicode="&#x283;" horiz-adv-x="681" 
d="M88 -461q-92 0 -169.5 14.5t-111.5 30.5l17 277q79 -27 137 -27q41 0 67.5 5.5t50.5 22t35 50.5t11 88v1161q0 107 35.5 187.5t100 129t148 72t185.5 23.5q92 0 169 -14.5t111 -30.5l-16 -277q-79 27 -137 27q-41 0 -67 -5t-50 -21.5t-35.5 -51t-11.5 -88.5v-1161
q0 -107 -35.5 -187.5t-100 -129t-148 -72t-185.5 -23.5z" />
    <glyph glyph-name="uni0288" unicode="&#x288;" horiz-adv-x="909" 
d="M535 -436q-191 0 -289.5 94t-98.5 293v837h-155v293h155v324l433 53v-377h276v-293h-276v-790q0 -61 23 -88t77 -27q68 0 170 45l51 -274q-52 -33 -151.5 -61.5t-214.5 -28.5z" />
    <glyph glyph-name="uni0289" unicode="&#x289;" horiz-adv-x="1359" 
d="M504 -25q-166 0 -253 88t-87 265v182h-141v301h141v270h432v-270h178v270h432v-270h142v-301h-142v-510h-368l-33 121q-40 -66 -118 -106t-183 -40zM596 416q0 -60 20 -84.5t60 -24.5q58 0 98 43v160h-178v-94z" />
    <glyph glyph-name="uni028A" unicode="&#x28a;" horiz-adv-x="1200" 
d="M592 -25q-120 0 -215.5 25t-157.5 66.5t-103.5 99t-59 119.5t-17.5 131q0 154 74 243t217 132v26h-277v264h508v-401q-52 -32 -68 -86t-16 -141q0 -85 32 -138t93 -53q121 0 121 193q0 101 -15 153.5t-65 71.5v401h508v-264h-283v-26q293 -59 293 -353q0 -53 -14 -106
t-42 -105.5t-75 -97.5t-108 -79.5t-146 -54.5t-184 -20z" />
    <glyph glyph-name="uni028B" unicode="&#x28b;" horiz-adv-x="1185" 
d="M522 -25q-227 0 -344 101.5t-117 304.5v700h433v-624q0 -34 1 -52t5.5 -42t13 -36t25.5 -21t41 -9q54 0 90.5 26.5t54 75.5t24.5 100.5t7 118.5q0 123 -29.5 170.5t-93.5 47.5q-35 0 -64 -11l-10 250q69 31 197 31q70 0 125 -12.5t105 -45t82.5 -85.5t51.5 -139t19 -201
q0 -143 -34.5 -256.5t-92.5 -185.5t-139 -119.5t-167 -67t-184 -19.5z" />
    <glyph glyph-name="uni028C" unicode="&#x28c;" horiz-adv-x="1212" 
d="M356 1081h506l355 -1081h-467l-146 682h-12l-150 -682h-446z" />
    <glyph glyph-name="uni028E" unicode="&#x28e;" horiz-adv-x="1153" 
d="M731 0l-158 662h-10l-147 -662h-447l414 1178q31 89 59 148.5t65 110t82.5 78.5t106.5 43t142 15q66 0 149 -14.5t117 -34.5l-27 -295q-100 33 -153 33q-48 0 -71 -16.5t-42 -55.5l-35 -76l420 -1114h-465z" />
    <glyph glyph-name="uni0292" unicode="&#x292;" horiz-adv-x="1069" 
d="M465 -461q-201 0 -320 89.5t-149 289.5l350 68q5 -63 33.5 -99.5t95.5 -36.5q62 0 97.5 45.5t35.5 120.5q0 35 -8 67t-26 61.5t-52.5 47t-81.5 17.5q-79 0 -168 -21v261l267 335h-400v297h832v-284l-301 -359q82 -2 145.5 -27.5t102 -64.5t62.5 -94t33 -109.5t9 -115.5
q0 -224 -155 -356t-402 -132z" />
    <glyph glyph-name="uni0294" unicode="&#x294;" horiz-adv-x="1198" 
d="M332 793q68 5 134 26.5t122.5 58t91.5 94t35 126.5q0 62 -27.5 102.5t-83.5 40.5q-74 0 -106.5 -50t-40.5 -144l-426 61q27 233 185.5 346t416.5 113q84 0 160.5 -16.5t147 -54t122.5 -92.5t82.5 -138.5t30.5 -186.5q0 -188 -103 -333t-307 -201v-545h-434v793z" />
    <glyph glyph-name="uni0295" unicode="&#x295;" horiz-adv-x="1198" 
d="M434 545q-204 48 -307.5 185t-103.5 323q0 107 31 194t84.5 146t127 98.5t155.5 57.5t173 18q256 0 398.5 -111t166.5 -348l-424 -61q-8 96 -37 145t-96 49q-119 0 -119 -162q0 -56 23.5 -103t61.5 -78.5t89 -54.5t103.5 -34.5t107.5 -15.5v-793h-434v545z" />
    <glyph glyph-name="uni0298" unicode="&#x298;" horiz-adv-x="1415" 
d="M696 -25q-655 0 -655 785q0 139 27 261t82.5 223.5t136.5 174.5t195 113.5t251 40.5t246 -41t182 -112t121.5 -171t70 -214.5t21.5 -246.5q0 -383 -164 -598t-514 -215zM713 299q55 0 95 12t74.5 43.5t56 84.5t33 135t11.5 196q0 180 -26.5 284t-82 149.5t-151.5 45.5
q-155 0 -222 -108.5t-67 -370.5q0 -114 10.5 -194.5t30.5 -134.5t55 -85.5t78 -44t105 -12.5zM573 950h275v-348h-275v348z" />
    <glyph glyph-name="uni029D" unicode="&#x29d;" horiz-adv-x="1040" 
d="M686 1155q-112 0 -174.5 63.5t-62.5 176.5q0 112 62 172.5t175 60.5q116 0 179 -60.5t63 -172.5q0 -113 -63.5 -176.5t-178.5 -63.5zM381 -457q-189 0 -291 97.5t-102 250.5q0 57 19 112t55.5 103t99.5 77.5t141 29.5q110 0 170 -18v886h432v-1015q67 -29 135 -68
l-16 -242q-67 43 -154 82q-52 -140 -175.5 -217.5t-313.5 -77.5zM276 -72q0 -35 29.5 -55t69.5 -20q87 0 98 131q-61 14 -111 14q-37 0 -61.5 -19t-24.5 -51z" />
    <glyph glyph-name="uni02B0" unicode="&#x2b0;" horiz-adv-x="868" 
d="M489 717v440q0 34 -13.5 47t-39.5 13q-35 0 -59 -21v-479h-328v1026h324v-369q66 78 200 78q125 0 184.5 -58t59.5 -182v-495h-328z" />
    <glyph glyph-name="uni02B7" unicode="&#x2b7;" horiz-adv-x="1298" 
d="M-14 1438h325l86 -410h4l97 410h311l100 -410h6l76 410h320l-217 -721h-361l-84 354h-4l-61 -354h-387z" />
    <glyph glyph-name="uni02BB" unicode="&#x2bb;" horiz-adv-x="1024" 
d="M315 1165l201 484l287 -39l-111 -445h-377z" />
    <glyph glyph-name="uni02BC" unicode="&#x2bc;" horiz-adv-x="524" 
d="M510 1620l-197 -535l-307 29l109 506h395z" />
    <glyph glyph-name="uni02BE" unicode="&#x2be;" horiz-adv-x="540" 
d="M125 1305q78 0 78 77q0 37 -22 57.5t-56 20.5v150q291 0 291 -228q0 -111 -69.5 -166t-221.5 -55v144z" />
    <glyph glyph-name="circumflex" unicode="&#x2c6;" horiz-adv-x="1024" 
d="M516 1333l-133 -157l-274 10l202 336h408l182 -336l-268 -10z" />
    <glyph glyph-name="caron" unicode="&#x2c7;" horiz-adv-x="1024" 
d="M518 1360l131 156l269 -11l-203 -334h-408l-182 334l272 8z" />
    <glyph glyph-name="uni02C9" unicode="&#x2c9;" horiz-adv-x="1024" 
d="M172 1454h678v-266h-678v266z" />
    <glyph glyph-name="breve" unicode="&#x2d8;" horiz-adv-x="1024" 
d="M913 1501q-39 -340 -409 -340q-161 0 -268 76q-108 77 -117 258l272 27q12 -64 41.5 -92.5t85.5 -28.5q58 0 87 25t48 92z" />
    <glyph glyph-name="dotaccent" unicode="&#x2d9;" horiz-adv-x="1024" 
d="M752 1399q0 -113 -62.5 -176.5t-177.5 -63.5q-112 0 -176 63.5t-64 176.5q0 112 63.5 172.5t176.5 60.5q116 0 178 -60.5t62 -172.5z" />
    <glyph glyph-name="ring" unicode="&#x2da;" horiz-adv-x="1024" 
d="M756 1382q0 -105 -68 -163t-176 -58q-109 0 -176.5 57t-67.5 160q0 110 70 171t174 61q106 0 175 -61t69 -167zM510 1305q35 0 57.5 18.5t22.5 58.5q0 37 -22 57.5t-56 20.5t-58 -20.5t-24 -55.5q0 -79 80 -79z" />
    <glyph glyph-name="ogonek" unicode="&#x2db;" horiz-adv-x="1024" 
d="M807 -270q-32 -113 -119.5 -178.5t-208.5 -65.5q-138 0 -205 57t-67 160q0 108 84 195q81 83 198 153l177 -43q-86 -86 -124 -137.5t-38 -97.5q0 -32 12 -45t39 -13q57 0 84 86z" />
    <glyph glyph-name="tilde" unicode="&#x2dc;" horiz-adv-x="1024" 
d="M379 1528q60 0 115.5 -21t101 -42t82.5 -21q29 0 37 17.5t8 58.5l197 -11q10 -63 3 -121.5t-26 -104t-64.5 -72.5t-111.5 -27q-52 0 -100.5 13.5t-78.5 29.5t-64.5 29.5t-61.5 13.5q-34 0 -45.5 -19t-1.5 -65l-219 8q-18 146 42.5 240t186.5 94z" />
    <glyph glyph-name="hungarumlaut" unicode="&#x2dd;" horiz-adv-x="1024" 
d="M195 1196l30 320h412l-180 -345zM553 1184l143 332h430l-295 -345z" />
    <glyph glyph-name="gravecomb" unicode="&#x300;" horiz-adv-x="0" 
d="M-360 1513h438l106 -329l-278 -13z" />
    <glyph glyph-name="acutecomb" unicode="&#x301;" horiz-adv-x="0" 
d="M-205 1184l107 329h438l-266 -342z" />
    <glyph glyph-name="uni0302" unicode="&#x302;" horiz-adv-x="0" 
d="M-403 1186l200 336h408l182 -336l-266 -10l-119 157l-131 -157z" />
    <glyph glyph-name="tildecomb" unicode="&#x303;" horiz-adv-x="0" 
d="M-369 1194q-19 145 42 239.5t188 94.5q60 0 115.5 -21t101 -42t82.5 -21q29 0 37 17.5t8 58.5l196 -11q10 -63 2.5 -121.5t-27 -104t-64.5 -72.5t-111 -27q-52 0 -100.5 13.5t-78.5 29.5t-64.5 29.5t-61.5 13.5q-33 0 -44.5 -19t-1.5 -65z" />
    <glyph glyph-name="uni0304" unicode="&#x304;" horiz-adv-x="0" 
d="M-342 1454h678v-266h-678v266z" />
    <glyph glyph-name="uni0306" unicode="&#x306;" horiz-adv-x="0" 
d="M-12 1174q-161 0 -267 75q-109 77 -118 258l272 27q12 -64 41.5 -92.5t85.5 -28.5q58 0 87 25t48 92l260 -17q-38 -339 -409 -339z" />
    <glyph glyph-name="uni0307" unicode="&#x307;" horiz-adv-x="0" 
d="M2 1159q-112 0 -175 63.5t-63 176.5q0 112 62.5 172.5t175.5 60.5q116 0 179 -60.5t63 -172.5q0 -113 -63.5 -176.5t-178.5 -63.5z" />
    <glyph glyph-name="uni0308" unicode="&#x308;" horiz-adv-x="0" 
d="M-33 1405q0 -96 -64 -154.5t-169 -58.5q-107 0 -173.5 58.5t-66.5 154.5t66.5 154.5t173.5 58.5q105 0 169 -58.5t64 -154.5zM504 1405q0 -96 -65 -154.5t-171 -58.5t-171.5 58.5t-65.5 154.5t65.5 154.5t171.5 58.5t171 -58.5t65 -154.5z" />
    <glyph glyph-name="hookabovecomb" unicode="&#x309;" horiz-adv-x="0" 
d="M-102 1151q0 72 21.5 114.5t62.5 75.5q41 32 41 62q0 17 -13 28t-33 11q-13 0 -22.5 -12t-13.5 -21.5t-11 -32.5l-235 31q10 45 20 72.5t31.5 60.5t52 51t81.5 30.5t120 12.5q72 0 129 -19.5t89.5 -50.5t49.5 -65.5t17 -68.5q0 -96 -60 -156q-35 -31 -51 -57t-16 -66
h-260z" />
    <glyph glyph-name="uni030A" unicode="&#x30a;" horiz-adv-x="0" 
d="M-2 1161q-109 0 -177.5 57t-68.5 160q0 111 70.5 171.5t175.5 60.5q104 0 173 -61.5t69 -166.5t-67.5 -163t-174.5 -58zM-6 1305q35 0 57.5 18.5t22.5 58.5q0 37 -21.5 57.5t-54.5 20.5q-36 0 -59 -20t-23 -56q0 -79 78 -79z" />
    <glyph glyph-name="uni030B" unicode="&#x30b;" horiz-adv-x="0" 
d="M-14 1184l143 342h438l-303 -355zM-373 1196l33 320h412l-183 -345z" />
    <glyph glyph-name="uni030C" unicode="&#x30c;" horiz-adv-x="0" 
d="M-389 1505l272 8l119 -153l131 156l268 -11l-200 -334h-408z" />
    <glyph glyph-name="uni030D" unicode="&#x30d;" horiz-adv-x="0" 
d="M-174 1581h346l-29 -397h-288z" />
    <glyph glyph-name="uni030F" unicode="&#x30f;" horiz-adv-x="0" 
d="M-631 1526h438l144 -342l-279 -13zM-135 1516h411l33 -320l-262 -25z" />
    <glyph glyph-name="uni0311" unicode="&#x311;" horiz-adv-x="0" 
d="M129 1161q-12 64 -41.5 92.5t-85.5 28.5q-58 0 -87 -25t-48 -92l-260 17q39 340 409 340q170 0 272.5 -80t112.5 -254z" />
    <glyph glyph-name="uni0312" unicode="&#x312;" horiz-adv-x="0" 
d="M-197 1165l201 484l287 -39l-111 -445h-377z" />
    <glyph glyph-name="uni0315" unicode="&#x315;" horiz-adv-x="0" 
d="M346 1626l-201 -481l-286 37l110 444h377z" />
    <glyph glyph-name="uni031B" unicode="&#x31b;" horiz-adv-x="0" 
d="M367 918q36 6 59 16.5t37 23.5t20.5 39t8.5 52.5t2 74.5v99h282v-97q0 -114 -16.5 -185t-62 -122t-124.5 -74.5t-206 -29.5v203z" />
    <glyph glyph-name="dotbelowcomb" unicode="&#x323;" horiz-adv-x="0" 
d="M-2 -565q-113 0 -175.5 62.5t-62.5 174.5q0 114 62 174t176 60q116 0 179 -59.5t63 -174.5q0 -113 -63.5 -175t-178.5 -62z" />
    <glyph glyph-name="uni0324" unicode="&#x324;" horiz-adv-x="0" 
d="M246 -532q-95 0 -156 52.5t-61 137.5t61 137.5t156 52.5q97 0 155 -52t58 -138t-58 -138t-155 -52zM-244 -532q-97 0 -157 52t-60 138t60 138t157 52t156 -52t59 -138t-59 -138t-156 -52z" />
    <glyph glyph-name="uni0325" unicode="&#x325;" horiz-adv-x="0" 
d="M2 -578q-114 0 -185 60.5t-71 167.5q0 113 73.5 176t182.5 63t180.5 -62t71.5 -171q0 -112 -69.5 -173t-182.5 -61zM0 -432q41 0 66.5 23t25.5 71q0 90 -90 90q-44 0 -70 -22.5t-26 -65.5q0 -49 25.5 -72.5t68.5 -23.5z" />
    <glyph glyph-name="uni0326" unicode="&#x326;" horiz-adv-x="0" 
d="M244 -137l-201 -481l-287 36l111 445h377z" />
    <glyph glyph-name="uni0327" unicode="&#x327;" horiz-adv-x="0" 
d="M-227 -340q52 -8 98 -8q106 0 106 67q0 40 -30.5 53t-85.5 15l35 274l176 -16l-19 -139q189 -32 189 -195q0 -125 -86.5 -189.5t-227.5 -64.5q-73 0 -172 21z" />
    <glyph glyph-name="uni0328" unicode="&#x328;" horiz-adv-x="0" 
d="M299 -270q-32 -113 -119.5 -178.5t-208.5 -65.5q-138 0 -205 57t-67 160q0 108 84 195q79 82 199 153l176 -43q-86 -86 -124 -137.5t-38 -97.5q0 -32 12 -45t39 -13q57 0 84 86z" />
    <glyph glyph-name="uni0329" unicode="&#x329;" horiz-adv-x="0" 
d="M-172 -121h346l-29 -397h-288z" />
    <glyph glyph-name="uni032D" unicode="&#x32d;" horiz-adv-x="0" 
d="M-397 -451l200 332h408l184 -332l-268 -10l-117 154l-133 -156z" />
    <glyph glyph-name="uni032E" unicode="&#x32e;" horiz-adv-x="0" 
d="M395 -186q-39 -340 -409 -340q-158 0 -267 77t-118 256l272 27q12 -64 41.5 -92.5t85.5 -28.5q58 0 87 25t48 92z" />
    <glyph glyph-name="uni032F" unicode="&#x32f;" horiz-adv-x="0" 
d="M-393 -506q39 340 409 340q170 0 272.5 -80t112.5 -254l-272 -26q-12 64 -41.5 92t-85.5 28q-58 0 -87 -24.5t-48 -91.5z" />
    </font>
</defs>
</svg>
