<?xml version="1.0" encoding="utf-8"?>
<!-- Generator: Adobe Illustrator 21.1.0, SVG Export Plug-In . SVG Version: 6.00 Build 0)  -->
<svg version="1.1" id="Layer_1" xmlns="http://www.w3.org/2000/svg" xmlns:xlink="http://www.w3.org/1999/xlink" x="0px" y="0px"
	 viewBox="0 0 1291.9 210.2" style="enable-background:new 0 0 1291.9 210.2;" xml:space="preserve">
<style type="text/css">
	.st0{fill:#24A7DF;}
	.st1{fill:#1A2857;}
	.st2{fill:#585C6D;}
	.st3{fill:#EF8184;}
</style>
<g>
	<path class="st0" d="M27.2,3.3H15.7L1.5,46.7H11l3.4-10.5h14.4l3.7,10.5h10.1L27.2,3.3z M16,28.8L21.3,12h0.3l5.3,16.8H16z"/>
	<path class="st1" d="M244.3,5.8c0-1.7-0.5-3-1.5-4c-0.9-0.9-2.3-1.4-4-1.4s-3.1,0.5-4,1.4c-1,1-1.5,2.3-1.5,4
		c0,1.8,0.5,3.1,1.5,4.1s2.4,1.5,4,1.5c1.7,0,3.1-0.5,4-1.5C243.8,8.9,244.3,7.6,244.3,5.8z"/>
	<path class="st1" d="M261.3,8.7c0.6-0.7,1.6-1,2.8-1c1,0,2.1,0.1,3.3,0.5l0.3-6.6c-1.8-0.6-3.6-0.9-5.6-0.9c-3.3,0-6,0.9-8,2.8
		c-1.9,1.8-2.8,4.6-2.8,8.3v3.7h-4.2V22h4.2v24.7h9V22h11.1v24.7h9V15.5h-20.1v-3.1C260.3,10.6,260.6,9.4,261.3,8.7z"/>
	<path class="st1" d="M279.9,1.4c-1-1-2.3-1.4-4-1.4c-1.7,0-3,0.4-4,1.4c-1,0.9-1.5,2.3-1.5,4c0,1.8,0.5,3.1,1.5,4.1
		c0.9,0.9,2.2,1.4,4,1.4c1.7,0,3-0.5,4-1.4c1-1,1.5-2.3,1.5-4.1C281.4,3.7,280.9,2.3,279.9,1.4z"/>
	<path class="st1" d="M314.4,33.3c0.2-1.2,0.2-2.5,0.2-4c0-4.6-1.1-8.1-3.3-10.7c-2.1-2.5-5.5-3.8-10.1-3.8c-2.2,0-4.1,0.3-6,1
		c-1.8,0.6-3.4,1.6-4.8,2.9c-1.4,1.3-2.5,3-3.3,5.2c-0.8,2.1-1.2,4.6-1.2,7.3c0,1.7,0.1,3.4,0.4,4.9c0.4,1.7,0.9,3.2,1.6,4.5
		c0.8,1.4,1.7,2.6,2.9,3.6c1.1,1,2.6,1.8,4.3,2.4c1.8,0.5,3.9,0.8,6.1,0.8c3.6,0,6.6-0.8,8.9-2.5c2.3-1.8,3.7-4.1,4.3-7.1l-7.6-1.8
		c-0.4,1.5-0.9,2.6-1.6,3.3c-0.8,0.7-2,1.1-3.5,1.1c-2.1,0-3.6-0.5-4.6-1.7c-1.1-1-1.7-2.8-1.7-5.4H314.4z M300.7,21.3
		c1.5,0,2.6,0.5,3.4,1.5c0.7,1,1.1,2.6,1.1,4.8h-9.7c0-2.2,0.5-3.7,1.5-4.7C298.1,21.8,299.3,21.3,300.7,21.3z"/>
	<path class="st1" d="M389.1,4c-1.6-0.5-3.5-0.7-5.7-0.7H367v43.4h9.1v-14h4.8c11.3,0,16.9-5.3,16.9-15.9c0-1.6-0.1-2.9-0.4-4
		c-0.3-1.3-0.8-2.5-1.5-3.7c-0.6-1.2-1.5-2.2-2.6-3.1C392.1,5.2,390.7,4.5,389.1,4z M386.1,12c0.8,0.5,1.3,1.2,1.7,2.1
		c0.4,1,0.6,2.1,0.6,3.4c0,1.6-0.2,2.9-0.7,3.9c-0.4,1.1-1,1.8-1.8,2.4c-0.9,0.6-1.8,1-2.7,1.1c-0.9,0.2-2,0.3-3.3,0.3h-3.8V10.7
		h4.5c1.1,0,2.1,0.1,3.1,0.3S385.5,11.6,386.1,12z"/>
	<path class="st1" d="M431.3,30.6c0-2.5-0.3-4.6-0.8-6.4c-0.6-1.9-1.4-3.5-2.6-5c-1.2-1.4-2.8-2.5-4.7-3.3c-2-0.7-4.3-1.1-7-1.1
		c-5.3,0-9.3,1.4-12,4.3c-2.7,3-4,7-4,12.1c0,2.3,0.2,4.5,0.8,6.5c0.5,1.9,1.4,3.6,2.5,5.1c1.2,1.5,2.8,2.6,4.8,3.4s4.4,1.2,7.1,1.2
		c5.5,0,9.5-1.5,12-4.4C430,40,431.3,35.8,431.3,30.6z M420.5,23.7c0.9,1.4,1.4,3.8,1.4,7.2c0,3.6-0.5,6.1-1.5,7.5
		c-1,1.6-2.5,2.3-4.6,2.3c-2.2,0-3.8-0.7-4.7-2.2c-1-1.6-1.5-4.1-1.5-7.5c0-3.3,0.6-5.6,1.6-7.2c1.1-1.4,2.7-2.2,4.8-2.2
		S419.6,22.3,420.5,23.7z"/>
	<path class="st1" d="M728.2,3.3h-34.8v7.8h12.8v35.6h9.3V11.1h12.7V3.3z"/>
	<path class="st1" d="M741.1,1.4h-9v45.3h9V24.6c0.6-0.5,1.5-1.1,2.7-1.7c1.2-0.5,2.3-0.7,3.4-0.7c1.5,0,2.5,0.4,3.2,1.1
		c0.6,0.8,1,2,1,3.7v19.7h9V25.4c0-3.6-0.8-6.3-2.3-8c-1.6-1.8-4-2.6-7.4-2.6c-3.3,0-6.6,1.2-9.6,3.5V1.4z"/>
	<path class="st1" d="M672.8,8.3l0.3-6.4c-1.7-0.8-4-1.2-6.9-1.2c-3.5,0-6.3,0.9-8.4,2.8c-2.1,1.8-3.1,4.6-3.1,8.3v3.7h-4.2V22h4.2
		v24.7h9.1V22h8.3v-6.5h-8.3v-2.8c0-2,0.4-3.4,1.2-4.1s2-1.1,3.6-1.1C669.9,7.5,671.3,7.8,672.8,8.3z"/>
	<path class="st1" d="M648,30.6c0-2.3-0.3-4.5-0.8-6.4c-0.6-1.9-1.5-3.5-2.6-5c-1.2-1.3-2.7-2.4-4.7-3.3c-2-0.7-4.3-1.1-7-1.1
		c-5.3,0-9.3,1.4-12,4.3c-2.7,3-4,7-4,12.1c0,2.5,0.2,4.7,0.8,6.5c0.5,1.9,1.4,3.6,2.5,5.1c1.1,1.5,2.7,2.6,4.8,3.4
		c2,0.8,4.4,1.2,7.1,1.2c5.5,0,9.5-1.5,12-4.4C646.7,40,648,35.8,648,30.6z M637.2,23.7c0.9,1.4,1.4,3.8,1.4,7.2
		c0,3.5-0.5,6-1.5,7.5c-1,1.6-2.5,2.3-4.6,2.3c-2.2,0-3.8-0.7-4.7-2.2c-1-1.6-1.5-4.1-1.5-7.5c0-3.3,0.6-5.6,1.6-7.2
		c1.1-1.4,2.7-2.2,4.8-2.2C634.7,21.6,636.2,22.3,637.2,23.7z"/>
	<path class="st1" d="M549.7,1.4h-9.1v45.3h9.1V1.4z"/>
	<path class="st1" d="M557.2,1.8c-0.9,0.9-1.4,2.3-1.4,4c0,1.8,0.5,3.2,1.5,4.1c0.9,1,2.3,1.5,4,1.5s3-0.5,4-1.5
		c0.9-0.9,1.4-2.3,1.4-4.1c0-1.7-0.4-3.1-1.4-4s-2.4-1.4-4-1.4C559.6,0.4,558.3,0.9,557.2,1.8z"/>
	<path class="st1" d="M471.1,5L462,6.2v9.3h-4.7V22h4.7v15.3c0,3.5,0.8,6.1,2.5,7.7s4.2,2.4,7.5,2.4c1.9,0,3.7-0.2,5.3-0.6
		c1.8-0.5,3-1,3.8-1.6l-1.2-6.4c-0.8,0.4-1.6,0.8-2.4,1c-1,0.3-1.9,0.4-2.8,0.4c-1.4,0-2.3-0.3-2.8-1c-0.6-0.7-0.8-1.7-0.8-3.2V22
		h8.2v-6.5h-8.2V5z"/>
	<path class="st1" d="M496.9,0.7c-3.6,0-6.4,0.9-8.5,2.8c-2,1.8-3,4.6-3,8.3v3.7h-4.2V22h4.2v24.7h9V22h8.3v-6.5h-8.3v-2.8
		c0-2,0.4-3.4,1.3-4.1c0.8-0.7,2-1.1,3.5-1.1c1.4,0,2.8,0.3,4.2,0.8l0.4-6.4C502.1,1.1,499.8,0.7,496.9,0.7z"/>
	<path class="st1" d="M520,14.8c-5.4,0-9.4,1.4-12.1,4.3c-2.7,3-4,7-4,12.1c0,2.4,0.3,4.6,0.8,6.5c0.5,1.9,1.4,3.6,2.6,5.1
		c1.1,1.5,2.7,2.6,4.7,3.4s4.4,1.2,7.1,1.2c5.5,0,9.5-1.5,12-4.4c2.6-3,3.9-7.2,3.9-12.4c0-2.5-0.2-4.6-0.8-6.4
		c-0.6-1.9-1.4-3.6-2.6-5c-1.2-1.4-2.7-2.5-4.7-3.3C524.9,15.2,522.6,14.8,520,14.8z M513.4,31c0-3.3,0.5-5.7,1.6-7.2
		c1-1.4,2.6-2.2,4.7-2.2c2.1,0,3.6,0.7,4.5,2.1c0.9,1.5,1.4,3.9,1.4,7.2c0,3.5-0.5,6-1.5,7.5c-1,1.6-2.5,2.3-4.6,2.3
		s-3.7-0.7-4.7-2.2C513.8,36.9,513.4,34.4,513.4,31z"/>
	<path class="st1" d="M450.7,24.1c1.9-0.5,3.9-0.6,5.9-0.4v-8.8c-0.7-0.1-1.2-0.1-1.6-0.1c-4,0-7.3,1.8-9.8,5.6l-0.7-4.9h-7.7v31.2
		h9V26.5C447.2,25.4,448.8,24.6,450.7,24.1z"/>
	<path class="st1" d="M602.4,30.6c0-2.3-0.3-4.5-0.9-6.4c-0.5-1.9-1.4-3.5-2.6-5c-1.1-1.3-2.7-2.4-4.7-3.3c-2-0.7-4.3-1.1-6.9-1.1
		c-5.3,0-9.3,1.4-12,4.3c-2.7,3-4.1,7-4.1,12.1c0,2.5,0.3,4.7,0.8,6.5c0.6,1.9,1.4,3.6,2.6,5.1c1,1.5,2.7,2.6,4.7,3.4
		s4.4,1.2,7.2,1.2c5.4,0,9.4-1.5,12-4.4C601.1,40,602.4,35.8,602.4,30.6z M591.5,23.7c1,1.4,1.4,3.8,1.4,7.2c0,3.5-0.5,6-1.4,7.5
		c-1,1.6-2.6,2.3-4.6,2.3c-2.3,0-3.8-0.7-4.8-2.2c-1-1.6-1.5-4.1-1.5-7.5c0-3.3,0.6-5.6,1.7-7.2c1-1.4,2.6-2.2,4.7-2.2
		S590.6,22.3,591.5,23.7z"/>
	<path class="st1" d="M565.8,15.5h-9.1v31.2h9.1V15.5z"/>
	<path class="st1" d="M794.2,33.3c0.1-0.8,0.2-2.1,0.2-4c0-4.6-1.1-8.1-3.3-10.7c-2.2-2.5-5.6-3.8-10.2-3.8c-2.1,0-4.1,0.3-5.9,1
		c-1.8,0.6-3.4,1.6-4.9,2.9c-1.3,1.3-2.4,3-3.3,5.2c-0.8,2.1-1.2,4.6-1.2,7.3c0,1.8,0.2,3.5,0.5,4.9c0.4,1.7,0.9,3.2,1.6,4.5
		c0.8,1.3,1.7,2.5,2.8,3.6c1.2,1,2.7,1.8,4.4,2.4c1.8,0.5,3.8,0.8,6,0.8c3.7,0,6.7-0.8,8.9-2.5c2.3-1.8,3.8-4.1,4.4-7.1l-7.6-1.8
		c-0.3,1.4-0.9,2.5-1.6,3.3c-0.9,0.7-2,1.1-3.5,1.1c-2.1,0-3.6-0.5-4.6-1.7c-1.1-1.1-1.7-2.9-1.7-5.4H794.2z M783.9,22.8
		c0.7,1.1,1.1,2.6,1.1,4.8h-9.7c0-2.2,0.5-3.7,1.5-4.7c1-1.1,2.2-1.6,3.6-1.6C781.9,21.3,783.1,21.8,783.9,22.8z"/>
	<path class="st1" d="M833.8,3.8c-1.4-0.3-3.2-0.5-5.3-0.5h-17.2v43.4h15.8c1.9,0,3.6-0.1,5.3-0.4c1.7-0.2,3.2-0.7,4.5-1.2
		c1.4-0.6,2.6-1.4,3.5-2.3c1-0.9,1.7-2.1,2.3-3.4c0.5-1.3,0.8-2.9,0.8-4.6c0-3.1-0.9-5.5-2.5-7.3c-1.7-1.9-4.2-3-7.6-3.3V24
		c2.4-0.6,4.4-1.8,5.9-3.5c1.6-1.6,2.3-3.8,2.3-6.6c0-1.3-0.1-2.5-0.3-3.4c-0.3-1-0.7-2-1.3-2.9c-0.7-1-1.5-1.8-2.4-2.3
		C836.5,4.6,835.2,4.2,833.8,3.8z M833.1,31c0.3,0.8,0.5,1.8,0.5,2.9c0,1.1-0.2,2.1-0.5,2.9c-0.4,0.7-1,1.3-1.8,1.7
		c-0.7,0.4-1.6,0.7-2.6,0.8c-1,0.2-2.2,0.3-3.4,0.3h-4.8V28.2h5.6c1.2,0,2.2,0.1,3,0.2c0.7,0.2,1.5,0.4,2.3,0.9
		C832.2,29.6,832.7,30.2,833.1,31z M832.6,15.4c0,1-0.2,1.9-0.5,2.5c-0.4,0.8-0.8,1.4-1.3,1.7c-0.5,0.4-1.1,0.8-2,1
		c-0.7,0.3-1.5,0.4-2.3,0.5l-6,0.1V10.4l7.2,0.1c0.7,0,1.3,0.2,1.9,0.3c0.7,0.2,1.2,0.4,1.6,0.8c0.4,0.4,0.7,0.8,1,1.5
		C832.4,13.6,832.6,14.4,832.6,15.4z"/>
	<path class="st1" d="M848.3,23.9c-0.8,2.1-1.2,4.6-1.2,7.3c0,1.8,0.1,3.5,0.5,4.9c0.3,1.7,0.8,3.1,1.5,4.5c0.8,1.4,1.7,2.6,2.9,3.6
		c1.1,1,2.6,1.8,4.4,2.4c1.8,0.5,3.8,0.8,6,0.8c3.7,0,6.6-0.8,8.9-2.5c2.3-1.8,3.7-4.1,4.3-7.1L868,36c-0.3,1.4-0.8,2.5-1.6,3.3
		c-0.8,0.7-2,1.1-3.5,1.1c-2,0-3.5-0.5-4.6-1.7c-1-1-1.6-2.8-1.7-5.4h19c0.2-0.8,0.2-2.1,0.2-4c0-4.6-1.1-8.1-3.2-10.7
		c-2.2-2.5-5.6-3.8-10.2-3.8c-2.2,0-4.1,0.3-6,1c-1.8,0.6-3.4,1.6-4.8,2.9C850.2,20,849.1,21.7,848.3,23.9z M865.3,22.8
		c0.8,1,1.1,2.6,1.1,4.8h-9.7c0-2.2,0.5-3.7,1.5-4.7c1.1-1.1,2.3-1.6,3.7-1.6C863.4,21.3,864.5,21.8,865.3,22.8z"/>
	<path class="st1" d="M892.8,20.8c1.6,0,2.8,0.4,3.6,1.2c0.8,0.7,1.4,1.8,1.8,3.4l7.2-2.2c-1.5-5.6-5.7-8.4-12.4-8.4
		c-2.5,0-4.6,0.3-6.5,1.1c-1.9,0.7-3.5,1.8-4.7,3.4c-1.2,1.6-1.8,3.5-1.8,5.6c0,3.7,1.7,6.4,4.9,8c1.4,0.6,3.5,1.2,6.3,1.7l2,0.5
		c0.3,0,0.8,0.2,1.7,0.5c0.5,0.1,0.9,0.3,1.3,0.6c0.3,0.3,0.5,0.6,0.7,0.9c0.2,0.4,0.3,0.8,0.3,1.3c0,2-1.6,3-4.7,3
		c-1.1,0-2-0.1-2.7-0.4c-0.7-0.2-1.3-0.6-1.8-1.1c-0.4-0.5-0.8-1-1-1.5c-0.3-0.5-0.6-1.1-0.7-1.8l-7.4,2.6c0.6,2.6,2,4.7,4.1,6.1
		c2.2,1.4,5.2,2.1,9.2,2.1c4.1,0,7.4-0.9,9.9-2.7c2.6-1.7,3.9-4.3,3.9-7.8c0-0.8-0.1-1.6-0.2-2.2c-0.2-0.6-0.3-1.2-0.6-1.8
		c-0.3-0.6-0.6-1.1-0.9-1.5c-0.3-0.3-0.7-0.7-1.2-1.1c-0.3-0.3-0.8-0.6-1.4-0.9l-1.5-0.7c-0.2-0.1-0.8-0.3-1.7-0.5l-7.4-1.6
		c-0.7-0.3-1.2-0.5-1.4-0.7c-0.3-0.1-0.5-0.4-0.8-0.8c-0.2-0.4-0.3-0.8-0.3-1.3c0-0.9,0.3-1.6,1.1-2.2
		C890.4,21.1,891.5,20.8,892.8,20.8z"/>
	<path class="st1" d="M921.2,5l-9,1.2v9.3h-4.7V22h4.7v15.3c0,3.5,0.8,6.1,2.5,7.7c1.6,1.6,4.1,2.4,7.4,2.4c2,0,3.8-0.2,5.4-0.6
		c1.8-0.5,3-1,3.8-1.6l-1.2-6.4c-0.8,0.4-1.6,0.8-2.5,1c-1,0.3-1.9,0.4-2.7,0.4c-1.4,0-2.3-0.3-2.9-1c-0.5-0.7-0.8-1.8-0.8-3.2V22
		h8.3v-6.5h-8.3V5z"/>
	<path class="st1" d="M472.2,81.2c-1.2-1.3-2.8-2.5-4.7-3.3c-2-0.7-4.3-1.1-7-1.1c-5.3,0-9.3,1.4-12,4.3c-2.7,3-4,7-4,12.1
		c0,2.3,0.2,4.5,0.8,6.5c0.5,1.9,1.4,3.6,2.5,5.1c1.2,1.5,2.8,2.6,4.8,3.4c2,0.8,4.4,1.2,7.1,1.2c5.5,0,9.5-1.5,12-4.4
		c2.6-3,3.9-7.2,3.9-12.4c0-2.3-0.3-4.5-0.8-6.4C474.2,84.3,473.3,82.7,472.2,81.2z M453.9,93c0-3.3,0.6-5.6,1.6-7.2
		c1.1-1.4,2.7-2.2,4.8-2.2c2.1,0,3.5,0.7,4.5,2.1c0.9,1.4,1.4,3.8,1.4,7.2c0,3.5-0.5,6-1.5,7.5c-1,1.6-2.5,2.3-4.6,2.3
		c-2.2,0-3.8-0.7-4.7-2.2C454.4,98.9,453.9,96.4,453.9,93z"/>
	<path class="st1" d="M515.4,77.5V67l-9.1,1.2v9.3h-4.7V84h4.7v15.3c0,3.5,0.8,6.1,2.5,7.7c1.7,1.6,4.2,2.4,7.5,2.4
		c1.9,0,3.7-0.2,5.3-0.6c1.8-0.5,3-1,3.8-1.6l-1.3-6.4c-0.7,0.4-1.5,0.8-2.3,1c-1,0.3-1.9,0.4-2.8,0.4c-1.4,0-2.4-0.3-2.9-1
		c-0.5-0.7-0.7-1.7-0.7-3.2V84h8.2v-6.5H515.4z"/>
	<path class="st1" d="M500.9,76.9c-0.7,0-1.2-0.1-1.6-0.1c-4,0-7.3,1.8-9.8,5.6l-0.7-4.9h-7.7v31.2h9V88.5c1.4-1.1,3-1.9,4.9-2.4
		s3.9-0.6,5.9-0.4V76.9z"/>
	<path class="st1" d="M649.3,67.9c0-1.8-0.5-3.2-1.4-4c-1-1-2.3-1.5-4.1-1.5c-1.7,0-3,0.5-4,1.5c-0.9,0.8-1.4,2.1-1.4,4
		c0,1.7,0.5,3,1.4,4c1,1,2.3,1.5,4,1.5s3.1-0.5,4-1.5C648.8,71,649.3,69.6,649.3,67.9z"/>
	<path class="st1" d="M648.3,77.5h-9v31.2h9V77.5z"/>
	<path class="st1" d="M625.1,77.5V67l-9,1.2v9.3h-4.7V84h4.7v15.3c0,3.5,0.8,6.1,2.5,7.7c1.6,1.6,4.1,2.4,7.4,2.4
		c2,0,3.7-0.2,5.4-0.6c1.7-0.6,3-1.1,3.8-1.6l-1.3-6.4c-0.6,0.4-1.4,0.8-2.4,1c-1,0.3-1.9,0.4-2.7,0.4c-1.4,0-2.3-0.3-2.9-1
		c-0.5-0.7-0.8-1.7-0.8-3.2V84h8.3v-6.5H625.1z"/>
	<path class="st1" d="M663.1,77.8c-1.8,0.6-3.4,1.6-4.8,2.9c-1.4,1.3-2.5,3-3.3,5.2c-0.8,2.1-1.2,4.6-1.2,7.3c0,1.7,0.1,3.4,0.4,4.9
		c0.4,1.7,0.9,3.2,1.6,4.5c0.8,1.4,1.7,2.6,2.9,3.6c1.1,1,2.6,1.8,4.4,2.4c1.8,0.5,3.8,0.8,6,0.8c3.6,0,6.6-0.8,8.9-2.5
		c2.3-1.8,3.7-4.1,4.3-7.1l-7.6-1.8c-0.3,1.4-0.8,2.5-1.6,3.3c-0.8,0.7-2,1.1-3.5,1.1c-2,0-3.5-0.5-4.6-1.7c-1-1-1.6-2.8-1.7-5.4h19
		c0.2-0.8,0.2-2.1,0.2-4c0-4.6-1.1-8.1-3.2-10.7c-2.2-2.5-5.6-3.8-10.2-3.8C666.9,76.8,665,77.1,663.1,77.8z M663.4,89.6
		c0-2.2,0.5-3.7,1.5-4.7c1.1-1.1,2.3-1.6,3.7-1.6c1.5,0,2.6,0.5,3.4,1.5s1.1,2.6,1.1,4.8H663.4z"/>
	<path class="st1" d="M537.6,77.5h-9V99c0,6.9,3.2,10.4,9.6,10.4c2.1,0,3.9-0.4,5.7-1.1c1.7-0.7,3.1-1.7,4.2-3l0.7,3.4h7.8V77.5h-9
		v22.1c-0.8,0.6-1.7,1.2-2.8,1.7c-1,0.5-2.1,0.8-3.2,0.8c-1.5,0-2.5-0.4-3-1.2c-0.6-0.8-1-2-1-3.7V77.5z"/>
	<path class="st1" d="M608.5,67.9c0-1.8-0.4-3.2-1.4-4c-1-1-2.3-1.5-4-1.5c-1.7,0-3.1,0.5-4,1.5c-1,0.8-1.5,2.1-1.5,4
		c0,1.7,0.5,3,1.5,4c0.9,1,2.3,1.5,4,1.5c1.7,0,3-0.5,4-1.5C608,71,608.5,69.6,608.5,67.9z"/>
	<path class="st1" d="M607.6,77.5h-9.1v31.2h9.1V77.5z"/>
	<path class="st1" d="M571.9,80.6l-0.5-3.1h-8v31.2h9.1V86.6c0.6-0.7,1.6-1.3,2.6-1.7c1.2-0.5,2.4-0.8,3.5-0.8
		c1.4,0,2.4,0.4,3.1,1.1c0.7,0.9,1,2.1,1,3.7v19.8h9.1V87.4c0-3.7-0.8-6.3-2.4-8c-1.6-1.8-4.1-2.6-7.5-2.6
		C578,76.8,574.6,78,571.9,80.6z"/>
	<path class="st1" d="M685.6,101.2c0.6,2.6,2,4.7,4.1,6.1c2.2,1.4,5.2,2.1,9.2,2.1c4.1,0,7.4-0.9,9.9-2.7c2.6-1.7,3.9-4.3,3.9-7.8
		c0-0.8-0.1-1.6-0.2-2.2c-0.2-0.6-0.3-1.2-0.6-1.8c-0.3-0.6-0.6-1.1-0.9-1.5c-0.3-0.3-0.7-0.7-1.2-1.1c-0.3-0.3-0.8-0.6-1.4-0.9
		l-1.5-0.7c-0.2-0.1-0.8-0.3-1.7-0.5l-7.4-1.6c-0.6-0.2-1.1-0.4-1.4-0.7c-0.3-0.1-0.5-0.4-0.8-0.8c-0.2-0.4-0.3-0.8-0.3-1.3
		c0-0.9,0.3-1.6,1.1-2.2c0.7-0.5,1.8-0.8,3.1-0.8c1.6,0,2.8,0.4,3.6,1.2c0.8,0.7,1.4,1.8,1.8,3.4l7.2-2.2c-1.5-5.6-5.7-8.4-12.4-8.4
		c-2.5,0-4.6,0.3-6.5,1.1c-1.9,0.7-3.5,1.8-4.7,3.5c-1.2,1.5-1.8,3.4-1.8,5.5c0,3.7,1.7,6.4,4.9,8c1.4,0.6,3.5,1.2,6.3,1.7l2,0.5
		c0.3,0,0.8,0.2,1.7,0.5c0.5,0.1,0.9,0.3,1.3,0.6c0.3,0.3,0.5,0.6,0.7,0.9c0.2,0.4,0.3,0.8,0.3,1.3c0,2-1.6,3-4.7,3
		c-1.1,0-2-0.1-2.7-0.4c-0.7-0.2-1.3-0.6-1.8-1.1c-0.4-0.5-0.8-1-1-1.5c-0.3-0.4-0.5-1-0.7-1.8L685.6,101.2z"/>
	<path class="st1" d="M810.3,77.5h-7.7v31.2h9V88.5c1.3-1.1,2.9-1.9,4.9-2.4c1.9-0.5,3.8-0.6,5.9-0.4v-8.8c-0.8,0-1.3-0.1-1.6-0.1
		c-4,0-7.3,1.8-9.9,5.6L810.3,77.5z"/>
	<path class="st1" d="M784.5,76.8c-5.1,0-9,1.4-11.8,4.4c-2.8,2.9-4.2,7-4.2,12.4c0,2.3,0.3,4.5,0.9,6.4c0.6,1.8,1.5,3.5,2.7,5
		c1.3,1.4,2.9,2.5,4.8,3.3c1.8,0.7,4,1.1,6.7,1.1c3.6,0,6.7-0.9,9.3-2.7c2.7-1.8,4.2-4.7,4.7-8.6l-7.6-1.5c-0.3,2-0.9,3.4-1.8,4.4
		c-1,0.9-2.3,1.4-4,1.4c-2.1,0-3.6-0.8-4.6-2.3c-1.1-1.6-1.6-4-1.6-7.5c0-1.6,0.1-3.1,0.5-4.4c0.3-1.3,0.8-2.2,1.4-2.7
		c0.6-0.7,1.3-1.1,2-1.4c0.6-0.2,1.4-0.3,2.4-0.3c1.7,0,3,0.5,3.7,1.4c0.8,1,1.2,2.6,1.4,4.6l8.1-1.2c-0.2-3.7-1.5-6.7-3.9-8.7
		C791.3,77.9,788.2,76.8,784.5,76.8z"/>
	<path class="st1" d="M847.4,77.9c-2-0.7-4.3-1.1-7-1.1c-5.3,0-9.3,1.4-12,4.3c-2.7,3-4,7-4,12.1c0,2.5,0.2,4.7,0.8,6.5
		c0.5,1.9,1.4,3.6,2.5,5.1c1.1,1.5,2.7,2.6,4.8,3.4c2,0.8,4.4,1.2,7.1,1.2c5.5,0,9.5-1.5,12-4.4c2.6-3,3.9-7.2,3.9-12.4
		c0-2.3-0.3-4.5-0.8-6.4c-0.6-1.9-1.5-3.5-2.6-5C850.9,79.9,849.3,78.7,847.4,77.9z M833.8,93c0-3.3,0.6-5.6,1.6-7.2
		c1.1-1.4,2.7-2.2,4.8-2.2c2,0,3.5,0.7,4.5,2.1c0.9,1.4,1.4,3.8,1.4,7.2c0,3.5-0.5,6-1.5,7.5c-1,1.6-2.5,2.3-4.6,2.3
		c-2.2,0-3.8-0.7-4.7-2.2C834.3,98.9,833.8,96.4,833.8,93z"/>
	<path class="st1" d="M751.1,65.3h-11.5l-14.2,43.4h9.5l3.4-10.5h14.4l3.6,10.5h10.2L751.1,65.3z M745.2,74h0.3l5.3,16.8h-10.9
		L745.2,74z"/>
	<path class="st1" d="M866.2,77.9c-1.9,0.7-3.5,1.8-4.7,3.5c-1.3,1.5-1.9,3.4-1.9,5.5c0.1,3.7,1.8,6.4,5,8c1.4,0.6,3.5,1.2,6.3,1.7
		l2,0.5c0.3,0,0.8,0.2,1.7,0.5c0.5,0.1,0.9,0.3,1.3,0.6c0.3,0.3,0.5,0.6,0.7,0.9c0.2,0.4,0.3,0.8,0.3,1.3c0,2-1.6,3-4.7,3
		c-1.1,0-2-0.1-2.7-0.4c-0.7-0.2-1.3-0.6-1.8-1.1c-0.4-0.5-0.8-1-1-1.5c-0.2-0.3-0.4-0.9-0.8-1.8l-7.3,2.6c0.6,2.6,2,4.7,4.1,6.1
		c2.2,1.4,5.2,2.1,9.2,2.1c4.1,0,7.4-0.9,9.9-2.7c2.6-1.7,3.9-4.3,3.9-7.8c0-0.8-0.1-1.6-0.2-2.2c-0.2-0.6-0.3-1.2-0.6-1.8
		c-0.3-0.6-0.6-1.1-0.9-1.5c-0.3-0.3-0.7-0.7-1.2-1.1c-0.3-0.3-0.8-0.6-1.4-0.9l-1.5-0.7c-0.2-0.1-0.8-0.3-1.7-0.5l-7.4-1.6
		c-0.6-0.2-1.1-0.4-1.4-0.7c-0.3-0.1-0.5-0.4-0.8-0.8c-0.2-0.4-0.3-0.8-0.3-1.3c0-0.9,0.3-1.6,1.1-2.2c0.7-0.5,1.8-0.8,3.1-0.8
		c1.6,0,2.8,0.4,3.6,1.2c0.8,0.7,1.4,1.8,1.8,3.4l7.2-2.2c-1.5-5.6-5.7-8.4-12.4-8.4C870.2,76.8,868.1,77.1,866.2,77.9z"/>
	<path class="st1" d="M891.5,81.4c-1.2,1.5-1.8,3.4-1.8,5.5c0.1,3.7,1.7,6.4,5,8c1.3,0.6,3.4,1.2,6.3,1.7l2,0.5
		c0.3,0,0.9,0.2,1.6,0.5c0.5,0.1,1,0.3,1.3,0.6c0.3,0.3,0.6,0.6,0.8,0.9c0.2,0.4,0.3,0.8,0.3,1.3c0,2-1.6,3-4.8,3
		c-1.1,0-2-0.1-2.6-0.4c-0.8-0.2-1.4-0.6-1.8-1.1c-0.5-0.5-0.8-1-1.1-1.5s-0.5-1.1-0.7-1.8l-7.3,2.6c0.5,2.6,1.9,4.7,4.1,6.1
		c2.1,1.4,5.2,2.1,9.2,2.1s7.3-0.9,9.9-2.7c2.6-1.8,3.9-4.4,3.9-7.8c0-0.7-0.1-1.5-0.3-2.2c-0.1-0.8-0.3-1.4-0.5-1.8
		c-0.2-0.5-0.5-1-1-1.5c-0.2-0.3-0.6-0.7-1.1-1.1c-0.4-0.4-0.9-0.7-1.5-0.9l-1.5-0.7c-0.2-0.1-0.7-0.3-1.7-0.5l-7.3-1.6
		c-0.7-0.3-1.2-0.5-1.5-0.7c-0.2-0.1-0.5-0.4-0.7-0.8s-0.3-0.8-0.3-1.3c0-0.9,0.3-1.6,1-2.2c0.8-0.5,1.8-0.8,3.2-0.8
		c1.5,0,2.7,0.4,3.5,1.2c0.8,0.7,1.4,1.8,1.8,3.4l7.3-2.2c-1.6-5.6-5.7-8.4-12.5-8.4c-2.4,0-4.6,0.3-6.4,1.1
		C894.4,78.6,892.8,79.7,891.5,81.4z"/>
	<path class="st1" d="M950.4,73.1h12.7v-7.8h-34.8v7.8h12.8v35.6h9.3V73.1z"/>
	<path class="st1" d="M1009.9,77.8c-1.8,0.6-3.4,1.6-4.8,2.9c-1.4,1.3-2.5,3-3.4,5.2c-0.8,2.1-1.2,4.6-1.2,7.3
		c0,1.8,0.2,3.5,0.5,4.9c0.3,1.6,0.9,3,1.6,4.5c0.8,1.3,1.7,2.5,2.8,3.6c1.2,1,2.7,1.8,4.4,2.4c1.8,0.5,3.8,0.8,6,0.8
		c3.7,0,6.7-0.8,9-2.5c2.2-1.8,3.7-4.1,4.3-7.1l-7.6-1.8c-0.3,1.4-0.9,2.5-1.6,3.3c-0.9,0.7-2,1.1-3.5,1.1c-2.1,0-3.6-0.5-4.6-1.7
		c-1.1-1.1-1.7-2.9-1.7-5.4h19c0.1-0.8,0.2-2.1,0.2-4c0-4.6-1.1-8.1-3.3-10.7c-2.2-2.5-5.6-3.8-10.2-3.8
		C1013.8,76.8,1011.8,77.1,1009.9,77.8z M1010.2,89.6c0-2.2,0.5-3.7,1.5-4.7c1-1.1,2.2-1.6,3.6-1.6c1.5,0,2.7,0.5,3.5,1.5
		c0.7,1.1,1.1,2.6,1.1,4.8H1010.2z"/>
	<path class="st1" d="M993,79.4c-1.6-1.8-4-2.6-7.4-2.6c-3.3,0-6.6,1.2-9.6,3.6v-17h-9v45.3h9V86.6c0.7-0.6,1.6-1.1,2.7-1.7
		c1.2-0.5,2.3-0.7,3.4-0.7c1.5,0,2.5,0.4,3.2,1.1c0.6,0.8,1,2,1,3.7v19.7h9V87.4C995.3,83.8,994.5,81.1,993,79.4z"/>
	<path class="st1" d="M967.8,145.7c-5.8-6-14.8-9.1-27-9.1h-28.6V209h26.9c6.3,0,11.9-0.9,16.8-2.7c4.8-1.8,8.7-4.4,11.7-7.7
		c3-3.2,5.3-7.2,6.8-11.7s2.3-9.6,2.3-15.2C976.7,160.5,973.7,151.9,967.8,145.7z M933.9,153h5.2c5.8,0,9.9,1.3,12.2,4.1
		c2.2,2.7,3.4,7.7,3.4,15c0,2.8-0.1,5.1-0.4,6.9c-0.2,1.9-0.7,3.8-1.4,5.6c-0.7,1.7-1.7,3.1-3,4.3c-1.2,1-2.9,1.9-4.9,2.5
		c-2,0.7-4.5,1-7.4,1h-3.7V153z"/>
	<path class="st1" d="M904,136.6h-19.4v43.2l-20.1-43.2h-24.8V209h19.6v-42.4l20.4,42.4H904V136.6z"/>
	<path class="st1" d="M1029.3,141.2c-1.6-1.5-3.8-2.7-6.3-3.7c-2.5-0.8-4.9-1.5-7.3-1.8c-2.3-0.3-4.9-0.4-7.8-0.4
		c-3,0-5.9,0.3-8.9,0.9c-2.8,0.6-5.4,1.6-7.8,2.9c-2.3,1.2-4.4,2.7-6.2,4.6c-1.7,1.8-3.1,4-4.1,6.6c-1,2.6-1.5,5.4-1.5,8.4
		c0,1.5,0.2,3,0.4,4.6c0.3,1.5,0.7,2.8,1.2,3.9c0.4,1.1,1,2.2,1.6,3.2c0.6,1,1.4,1.9,2.3,2.7c0.9,0.9,1.8,1.6,2.6,2.1
		c0.7,0.6,1.7,1.2,3,1.8l3.1,1.3c0.7,0.3,1.8,0.7,3.3,1.2l3.3,0.8c1.8,0.5,2.9,0.7,3.3,0.8l6.1,1.6c1.4,0.5,2.3,0.8,2.7,1.1l1.8,1.2
		c0.7,0.4,1.1,1,1.4,1.6c0.2,0.7,0.4,1.3,0.4,2.1c0,4.1-2.9,6.1-8.6,6.1c-1.7,0-3.2-0.2-4.5-0.6c-1.3-0.4-2.3-1-3-1.6
		c-0.8-0.6-1.4-1.4-1.9-2.4c-0.4-1.1-0.8-2.1-1.1-3.1l-0.6-3.6l-19.1,2.6c0,3,0.5,5.8,1.3,8.4c0.8,2.5,1.8,4.6,2.9,6.2
		c1.3,1.7,2.7,3.1,4.4,4.3s3.4,2.2,5,2.8c1.7,0.7,3.5,1.2,5.6,1.5c2.2,0.5,4,0.7,5.4,0.7c1.5,0.1,3.2,0.2,5,0.2
		c4.1,0,7.8-0.5,11.2-1.4c3.5-1,6.7-2.4,9.5-4.3c2.9-1.9,5.1-4.4,6.8-7.7c1.6-3.2,2.5-6.9,2.5-11.1c0-1.6-0.2-3.2-0.5-4.9
		c-0.4-1.4-0.8-2.7-1.3-4.1c-0.5-1.1-1.2-2.3-2.1-3.3c-0.9-1.1-1.8-2-2.6-2.8c-0.8-0.6-1.8-1.3-3.2-2.2l-3.4-1.7
		c-0.7-0.3-1.9-0.8-3.6-1.4c-1.3-0.4-2.5-0.8-3.6-1.1l-3.7-0.9c-2.7-0.7-5.6-1.7-8.8-2.9c-2.5-1.1-3.7-2.8-3.7-5
		c0-3.3,2.3-4.9,6.9-4.9c3.2,0,5.4,0.6,6.7,1.8c1.4,1.2,2.1,3.4,2.1,6.7l19.5-2.2c0-3.5-0.6-6.6-1.8-9.4
		C1032.5,144.8,1031.1,142.7,1029.3,141.2z"/>
	<path class="st1" d="M1074.2,152.1c3.6,0,6.3,0.9,8.1,2.9c1.9,1.9,2.8,5.2,2.9,9.9l19.5-1.9c-0.1-4.8-0.9-9-2.4-12.6
		c-1.5-3.6-3.6-6.5-6.4-8.6c-2.6-2.1-5.8-3.8-9.4-4.9c-3.5-1.1-7.5-1.6-11.8-1.6c-6,0-11.4,0.9-16.1,2.9c-4.7,1.8-8.4,4.5-11.4,8
		c-2.9,3.5-5.1,7.5-6.5,12c-1.5,4.6-2.3,9.6-2.3,15.1c0,5.8,0.7,11,2,15.5c1.3,4.5,3.3,8.3,6.1,11.6c2.7,3.2,6.4,5.6,10.8,7.3
		c4.5,1.7,9.9,2.5,16.1,2.5c2.8,0,5.5-0.3,8.2-0.8c2.8-0.5,5.4-1.4,8-2.6c2.7-1.2,5.1-2.8,7.2-4.6c2-1.8,3.8-4.2,5.2-7
		c1.5-2.9,2.4-6.1,2.7-9.6l-19.2-3c-0.2,1.5-0.6,2.9-1,4c-0.4,1-1,2.2-1.8,3.3c-0.8,1.2-1.9,2-3.3,2.6s-3,0.9-5.1,0.9
		c-4.6,0-8-1.6-10.2-4.9c-2.1-3.3-3.2-8.6-3.2-16c0-7.1,1.2-12.3,3.4-15.5C1066.6,153.7,1069.9,152.1,1074.2,152.1z"/>
	<path class="st1" d="M243.3,15.5h-9.1v31.2h9.1V15.5z"/>
	<path class="st1" d="M105.2,0.4c-1.7,0-3.1,0.5-4,1.4c-1,0.9-1.5,2.2-1.5,4s0.5,3.1,1.5,4.1c0.9,1,2.3,1.5,4,1.5c1.7,0,3-0.5,4-1.5
		c0.9-0.9,1.4-2.3,1.4-4.1c0-1.7-0.4-3.1-1.4-4C108.3,0.9,106.9,0.4,105.2,0.4z"/>
	<path class="st0" d="M433.7,136.6h-26.3L384.2,209h22.6l4-14.1h20.5l4.8,14.1h23.6L433.7,136.6z M420.1,156.6h0.6l6.4,22h-13.3
		L420.1,156.6z"/>
	<path class="st0" d="M369.1,187.8c1.5-4.6,2.2-9.8,2.2-15.8c0-4.1-0.4-7.9-1.2-11.6c-0.7-3.6-2-7-3.7-10c-1.7-3.1-3.8-5.7-6.5-8
		c-2.6-2.2-5.9-3.9-9.7-5.2c-4-1.3-8.4-1.9-13.2-1.9c-6.1,0-11.5,0.9-16.2,2.9c-4.8,2-8.6,4.7-11.6,8.1c-3,3.5-5.3,7.5-6.8,12.1
		c-1.5,4.5-2.2,9.5-2.2,15s0.6,10.5,1.9,14.9c1.3,4.5,3.3,8.3,6,11.5c2.7,3.4,6.3,5.9,10.9,7.7c4.5,1.8,9.9,2.7,16.2,2.7
		c6.3,0,11.7-0.9,16.2-2.7c4.6-1.7,8.3-4.3,11.3-7.7C365.6,196.4,367.7,192.4,369.1,187.8z M326,157.2c2.3-3.2,5.8-4.8,10.5-4.8
		c4.4,0,7.6,1.5,9.6,4.7c2,3.1,3,8.3,3,15.8c0,3.9-0.3,7.2-0.9,9.9c-0.6,2.7-1.5,4.8-2.8,6.4c-1.2,1.5-2.6,2.6-4.1,3.2
		c-1.4,0.7-3.2,1-5.3,1c-3.1,0-5.6-0.6-7.5-1.8c-1.9-1.3-3.3-3.4-4.4-6.4c-1-3.1-1.5-7.3-1.5-12.3
		C322.6,165.6,323.7,160.4,326,157.2z"/>
	<path class="st0" d="M113.5,138.2c-3.2-1-7-1.6-11.4-1.6H70.4V209H92v-25.6h3.4l12,25.6h23.4l-15.2-30.8
		c7.4-4.5,11.1-11.3,11.1-20.6c0-3-0.5-5.7-1.4-8.1c-0.9-2.5-2.3-4.8-4.1-6.6C119.3,140.9,116.8,139.3,113.5,138.2z M92,152.7h4.5
		c5.3,0,7.9,2.3,7.9,7c0,5.4-3.3,8.1-10,8.1H92V152.7z"/>
	<path class="st0" d="M63.9,150.4c-1.5-3.6-3.6-6.5-6.4-8.6c-2.7-2.2-5.8-3.8-9.4-4.9c-3.5-1.1-7.5-1.6-11.9-1.6
		c-5.9,0-11.3,0.9-16,2.9c-4.7,1.8-8.4,4.5-11.4,8c-2.9,3.5-5.1,7.5-6.6,12c-1.4,4.6-2.2,9.6-2.2,15.1c0,5.8,0.7,11,2,15.5
		s3.3,8.3,6,11.6c2.8,3.2,6.4,5.6,10.9,7.3s9.9,2.5,16.1,2.5c2.8,0,5.5-0.3,8.2-0.8c2.8-0.5,5.5-1.4,8-2.6c2.8-1.2,5.1-2.8,7.1-4.6
		c2.1-1.8,3.9-4.2,5.3-7c1.4-2.9,2.4-6.1,2.7-9.6l-19.2-3c-0.3,1.6-0.6,2.9-1,4c-0.4,1-1,2.2-1.8,3.3c-0.8,1.2-1.9,2-3.3,2.6
		s-3,0.9-5.1,0.9c-4.6,0-8-1.6-10.2-4.9c-2.1-3.2-3.2-8.6-3.2-16c0-7.1,1.1-12.3,3.4-15.5c2.2-3.3,5.6-4.9,9.9-4.9
		c3.6,0,6.3,0.9,8.1,2.9c1.9,1.9,2.8,5.2,2.8,9.9l19.6-1.9C66.2,158.2,65.4,154,63.9,150.4z"/>
	<path class="st0" d="M30.5,77.5h-8.1v31.2h9.1V86.6c0.7-0.8,1.6-1.3,2.7-1.7c1.1-0.5,2.3-0.8,3.4-0.8c1.5,0,2.5,0.4,3.1,1.1
		c0.7,0.8,1,2,1,3.7v19.8h9.1V87.4c0-3.7-0.8-6.4-2.4-8c-1.6-1.8-4.1-2.6-7.5-2.6c-3.8,0-7.2,1.2-9.9,3.8L30.5,77.5z"/>
	<path class="st0" d="M63,77.5h-9.8l11,31.2h10.6l11-31.2h-9.3L69.9,100h-0.3L63,77.5z"/>
	<path class="st0" d="M96.4,77.8c-1.8,0.6-3.4,1.6-4.9,2.9c-1.3,1.3-2.4,3-3.3,5.2C87.4,88,87,90.5,87,93.2c0,1.8,0.2,3.5,0.5,4.9
		c0.3,1.7,0.8,3.1,1.6,4.5c0.7,1.4,1.7,2.6,2.8,3.6c1.2,1,2.7,1.8,4.4,2.4c1.8,0.5,3.8,0.8,6,0.8c3.7,0,6.7-0.8,8.9-2.5
		c2.3-1.8,3.8-4.1,4.4-7.1L108,98c-0.3,1.4-0.9,2.5-1.6,3.3c-0.9,0.7-2,1.1-3.5,1.1c-2.1,0-3.6-0.5-4.6-1.7c-1.1-1-1.7-2.8-1.7-5.4
		h19c0.1-0.8,0.2-2.1,0.2-4c0-4.6-1.1-8.1-3.3-10.7c-2.2-2.5-5.6-3.8-10.2-3.8C100.2,76.8,98.2,77.1,96.4,77.8z M96.7,89.6
		c0-2.2,0.5-3.7,1.5-4.7c1-1.1,2.2-1.6,3.6-1.6c1.5,0,2.7,0.5,3.5,1.5c0.7,1,1.1,2.6,1.1,4.8H96.7z"/>
	<path class="st0" d="M132.9,76.8c-2.4,0-4.6,0.3-6.4,1.1c-1.9,0.7-3.5,1.8-4.8,3.5c-1.2,1.5-1.8,3.4-1.8,5.5c0.1,3.7,1.7,6.4,5,8
		c1.3,0.6,3.4,1.2,6.3,1.7l2,0.5c0.2,0,0.8,0.2,1.6,0.5c0.5,0.1,1,0.3,1.3,0.6c0.3,0.3,0.6,0.6,0.7,0.9c0.3,0.4,0.4,0.8,0.4,1.3
		c0,2-1.6,3-4.8,3c-1.1,0-2-0.1-2.6-0.4c-0.8-0.2-1.4-0.6-1.8-1.1c-0.5-0.5-0.8-1-1.1-1.5c-0.3-0.5-0.5-1.1-0.7-1.8l-7.3,2.6
		c0.5,2.6,1.9,4.7,4.1,6.1c2.1,1.4,5.2,2.1,9.1,2.1c4.1,0,7.4-0.9,10-2.7c2.5-1.7,3.8-4.3,3.8-7.8c0-0.8-0.1-1.6-0.2-2.2
		c-0.1-0.6-0.3-1.2-0.5-1.8c-0.4-0.6-0.6-1.1-1-1.5c-0.2-0.3-0.6-0.7-1.1-1.1c-0.4-0.3-0.8-0.6-1.5-0.9l-1.5-0.7
		c-0.2-0.1-0.8-0.3-1.7-0.5l-7.3-1.6c-0.8-0.3-1.3-0.5-1.5-0.7c-0.3-0.1-0.5-0.4-0.8-0.8c-0.2-0.4-0.3-0.8-0.3-1.3
		c0-0.9,0.3-1.6,1.1-2.2c0.7-0.5,1.8-0.8,3.2-0.8c1.5,0,2.7,0.4,3.5,1.2c0.8,0.7,1.4,1.8,1.8,3.4l7.2-2.2
		C143.8,79.6,139.7,76.8,132.9,76.8z"/>
	<path class="st0" d="M200.7,80.7c-1.3-2.6-4-3.9-8-3.9c-3.4,0-6.6,1.2-9.5,3.6l-0.4-2.9h-7.6v31.2h9V86.3c0.6-0.5,1.4-1.1,2.5-1.5
		c0.9-0.5,1.9-0.7,2.8-0.7c1.3,0,2.2,0.4,2.7,1.1c0.6,0.8,0.8,1.9,0.8,3.4v20.1h9.1L202,86.3c0.5-0.6,1.3-1.1,2.4-1.6
		c1-0.4,2-0.6,2.8-0.6c1.3,0,2.2,0.4,2.7,1.1c0.6,0.8,0.8,1.9,0.8,3.4v20.1h9.1V87.2c0-7-3.1-10.4-9.4-10.4c-1.9,0-3.8,0.3-5.5,1.1
		C203.3,78.5,201.9,79.5,200.7,80.7z"/>
	<path class="st0" d="M240.3,76.8c-2.1,0-4.1,0.3-6,1c-1.7,0.6-3.3,1.6-4.8,2.9c-1.4,1.3-2.5,3-3.3,5.2c-0.8,2.1-1.2,4.6-1.2,7.3
		c0,1.8,0.1,3.5,0.5,4.9c0.3,1.6,0.8,3,1.6,4.5c0.7,1.3,1.6,2.5,2.8,3.6c1.1,1,2.6,1.8,4.4,2.4c1.8,0.5,3.8,0.8,6,0.8
		c3.6,0,6.6-0.8,8.9-2.5c2.3-1.8,3.7-4.1,4.3-7.1l-7.6-1.8c-0.3,1.4-0.8,2.5-1.6,3.3c-0.8,0.7-2,1.1-3.5,1.1c-2,0-3.5-0.5-4.6-1.7
		c-1-1.1-1.6-2.9-1.7-5.4h19c0.2-0.8,0.2-2.1,0.2-4c0-4.6-1.1-8.1-3.2-10.7C248.3,78.1,244.9,76.8,240.3,76.8z M234.6,89.6
		c0-2.1,0.5-3.7,1.5-4.7c1.1-1.1,2.3-1.6,3.7-1.6c1.5,0,2.7,0.5,3.4,1.5c0.8,1.1,1.2,2.6,1.2,4.8H234.6z"/>
	<path class="st0" d="M287.5,87.4c0-0.9-0.1-1.8-0.1-2.6c-0.3-2.3-1.1-4.1-2.2-5.4c-1.1-1.2-2.5-1.9-4.3-2.3c-1-0.2-2.1-0.3-3.2-0.3
		c-3.9,0-7.3,1.2-10,3.8l-0.5-3.1h-8v31.2h9V86.6c0.7-0.8,1.7-1.3,2.7-1.7c1.2-0.5,2.3-0.8,3.5-0.8c1.4,0,2.4,0.4,3,1.1
		c0.7,0.8,1,2,1,3.7v19.8h9.1V87.4z"/>
	<path class="st0" d="M302.8,153.8v-17.2h-63v3.8c-1.5-1-3.3-1.8-5.3-2.5c-2.8-0.9-6-1.3-9.6-1.3h-31.3V209h21.7v-21.4h4.7
		c19.4,0,29-9.3,29-27.7c0-2.3-0.2-4.3-0.5-6.1h12.1V209h21.7v-55.2H302.8z M220.5,152.8c0.7,0.1,1.5,0.3,2.2,0.6
		c0.9,0.4,1.6,0.9,2.1,1.4c0.7,0.8,1.1,1.7,1.4,2.7c0.4,1.2,0.6,2.6,0.6,4.2c0,3.7-0.8,6.3-2.5,7.8c-1.6,1.5-4,2.3-7,2.3h-2v-19.1h3
		C218.9,152.7,219.7,152.7,220.5,152.8z"/>
	<path class="st0" d="M193.5,136.6h-21.8l-11.9,27.1h-0.7l-12.5-27.1H123l25.3,46V209H170l-0.1-26.4L193.5,136.6z"/>
	<path class="st0" d="M152.1,68.2v9.3h-4.7V84h4.7v15.3c0,3.5,0.9,6.1,2.5,7.7c1.7,1.6,4.1,2.4,7.5,2.4c1.9,0,3.7-0.2,5.4-0.6
		c1.7-0.5,3-1,3.8-1.6l-1.3-6.4c-0.7,0.4-1.5,0.8-2.4,1c-1,0.3-1.9,0.4-2.8,0.4c-1.3,0-2.3-0.3-2.8-1c-0.6-0.7-0.8-1.8-0.8-3.2V84
		h8.3v-6.5h-8.3V67L152.1,68.2z"/>
	<path class="st0" d="M14.6,65.3H5.4v43.4h9.2V65.3z"/>
	<path class="st1" d="M348.7,1.4H340v16c-2-1.7-4.6-2.6-8-2.6c-1.2,0-2.5,0.2-3.8,0.5c-1.3,0.4-2.4,1-3.6,1.9
		c-1.1,0.8-2.1,1.9-3,3.1c-0.8,1.4-1.5,3-2,4.9c-0.5,1.9-0.7,4.1-0.7,6.5c0,5.4,1.1,9.4,3.2,11.9c2.2,2.6,5.2,3.8,9.1,3.8
		c3.8,0,6.9-1.2,9.2-3.8l0.2,0.1l0.5,3h7.6V1.4z M334.6,22c1.8,0,3.5,0.6,5.1,1.7v14.4c-1.7,1.4-3.5,2.2-5.4,2.2c-4,0-6-3-6-8.9
		c0-2.9,0.5-5.2,1.5-6.9C330.9,22.8,332.5,22,334.6,22z"/>
	<path class="st1" d="M695.4,153.8v-17.2h-63v17.2h20.8v17.8l21.7,6.2v-24H695.4z"/>
	<path class="st0" d="M674.9,177.8l-21.7-6.2V209h21.7V177.8z"/>
	<path class="st0" d="M764.4,203.5l-0.4,1.3v-1.5l-51.3-14.7V209h71L764.4,203.5z"/>
	<path class="st1" d="M764,203.3v-11.9h-29.5v-54.8h-21.8v52L764,203.3z"/>
	<path class="st1" d="M789.3,194.9h20.5l4.7,14.1h23.7l-26-72.4h-26.4l-21.4,66.9l19.3,5.5h1.5L789.3,194.9z M798.6,156.6h0.6
		l6.4,22h-13.4L798.6,156.6z"/>
	<path class="st1" d="M628.6,153.8v-17.2h-49.5v13.7l21.8,6.2v-2.7H628.6z"/>
	<path class="st0" d="M627.3,181.6v-16.5h-26.4v-8.6l-21.8-6.2V209h52v-17.6h-30.2v-9.8H627.3z"/>
	<path class="st2" d="M295.8,68.2v0.9l9.1,2.6V67L295.8,68.2z"/>
	<path class="st0" d="M304.9,77.5v-5.8l-9.1-2.6v8.4h-4.7V84h4.7v15.3c0,3.5,0.8,6.1,2.5,7.7c1.6,1.6,4.1,2.4,7.5,2.4
		c1.9,0,3.7-0.2,5.3-0.6c1.8-0.5,3-1,3.8-1.6l-1.2-6.4c-0.8,0.4-1.6,0.8-2.4,1c-1,0.3-1.9,0.4-2.8,0.4c-1.4,0-2.3-0.3-2.8-1
		c-0.6-0.7-0.8-1.7-0.8-3.2V84h8.2v-6.5H304.9z"/>
	<path class="st1" d="M364.6,70.9c-1.7-2-3.8-3.6-6.3-4.7c-2.5-1.1-5.6-1.7-9-1.7c-3.5,0-6.6,0.6-9.2,1.7c-2.7,1.2-4.9,2.7-6.7,4.8
		c-1.7,2.1-3.1,4.5-3.9,7.2c-0.1,0.2-0.1,0.3-0.2,0.5l8.9,2.5c0.5-2.1,1.3-3.8,2.5-5.2c2-2.5,4.8-3.7,8.4-3.7c3.4,0,6,1.2,7.8,3.6
		c1.9,2.4,2.8,6,2.8,11c0,0.1,0,0.3,0,0.5l9.4,2.7c0.1-1.2,0.1-2.5,0.1-3.8c0-3-0.4-5.8-1.1-8.4C367.3,75.2,366.1,72.9,364.6,70.9z"
		/>
	<path class="st0" d="M338.2,81.2l-8.9-2.5c-0.8,2.7-1.2,5.4-1.2,8.5c0,2.5,0.3,4.9,0.7,7.3c0.5,2.2,1.2,4.2,2.3,6.1
		c1,1.8,2.3,3.4,3.9,4.7c1.5,1.3,3.4,2.3,5.7,3.1c2.3,0.7,4.8,1,7.6,1c3.6,0,6.7-0.5,9.2-1.6c2.7-1.1,4.9-2.6,6.6-4.7
		c1.7-2,3-4.4,3.8-7.2c0.6-1.9,0.9-3.8,1.2-5.8l-9.4-2.7c-0.1,4.8-1.1,8.4-2.9,10.7c-2,2.4-4.7,3.5-8.1,3.5c-3.6,0-6.3-1.2-8.2-3.5
		c-1.9-2.4-2.9-6-2.9-11.1C337.6,84.9,337.8,82.9,338.2,81.2z"/>
	<path class="st1" d="M393,76.8c-1.8,0-3.5,0.3-5.3,0.9c-1.7,0.7-3.2,1.7-4.5,2.9l-0.6-3.1H375v14.3l8.9,2.5v-7.9
		c0.7-0.7,1.7-1.2,2.8-1.7c1-0.5,2.1-0.7,3-0.7c1.9,0,3.2,0.6,4.2,2c0.9,1.3,1.3,3.6,1.3,6.6c0,1.9-0.1,3.5-0.4,4.8l9,2.6
		c0.1-0.3,0.2-0.7,0.3-1.1c0.4-1.9,0.6-4,0.6-6.5c0-2.8-0.3-5.2-0.9-7.3c-0.6-2-1.4-3.6-2.5-4.9c-1-1.1-2.3-2-3.7-2.6
		C396.2,77.1,394.6,76.8,393,76.8z"/>
	<path class="st0" d="M383.9,94.3l-8.9-2.5v29.6h8.7v-15c2.3,2,5.1,3,8.3,3c1.5,0,2.8-0.2,4-0.5c1.3-0.5,2.5-1.1,3.5-1.9
		c1-0.9,2-2,2.8-3.3c0.6-1,1.1-2.2,1.5-3.7l-9-2.6c-0.3,1-0.6,1.7-1,2.4c-0.9,1.6-2.4,2.4-4.5,2.4c-1,0-2-0.3-3-0.7
		c-1-0.5-1.9-1-2.4-1.4V94.3z"/>
	<path class="st1" d="M433.1,77.6c-1.4-0.5-3-0.8-4.6-0.8c-1.7,0-3.5,0.3-5.3,0.9c-1.7,0.7-3.2,1.7-4.5,2.9l-0.6-3.1h-7.6V102
		l22.3,6.4c0.8-0.4,1.5-0.9,2.2-1.4c1-0.8,1.9-1.9,2.8-3.3c0.7-1.3,1.3-2.9,1.8-4.8c0.4-1.9,0.6-4,0.6-6.5c0-2.8-0.3-5.2-0.9-7.3
		c-0.6-2.1-1.4-3.7-2.5-4.9C435.7,79,434.5,78.2,433.1,77.6z M424.9,102.2c-1.1,0-2.1-0.3-3.1-0.7c-1.1-0.5-1.9-1-2.4-1.4V86.4
		c0.8-0.7,1.7-1.2,2.8-1.7c1-0.5,2.1-0.7,3-0.7c1.9,0,3.2,0.6,4.2,2c0.9,1.3,1.3,3.6,1.3,6.6c0,3.2-0.4,5.6-1.3,7.2
		C428.4,101.4,426.9,102.2,424.9,102.2z"/>
	<path class="st0" d="M432.8,108.4l-22.3-6.4v19.4h8.7v-15c2.4,2,5.1,3,8.3,3c1.5,0,2.8-0.2,4-0.5
		C431.9,108.7,432.4,108.6,432.8,108.4z"/>
	<path class="st0" d="M573.6,156.8c-0.1-3.3-0.6-6.1-1.5-8.5l-38.6-11.1c-1.4,0.5-2.9,1.1-4.1,1.9c-2.5,1.2-4.5,2.8-6.3,4.6
		c-1.7,1.9-3.1,4.1-4,6.6c-1,2.6-1.5,5.4-1.5,8.4c0,1.7,0,3.2,0.3,4.6c0.2,1.3,0.6,2.7,1.2,3.9c0.4,1.1,1,2.2,1.6,3.2
		c0.6,1,1.4,1.9,2.3,2.7c0.7,0.7,1.6,1.4,2.6,2.1c0.7,0.6,1.7,1.2,3,1.8l3,1.3c0.6,0.3,1.8,0.7,3.4,1.2l12.7,3.2
		c1.4,0.5,2.3,0.8,2.7,1.1l1.7,1.2c0.7,0.4,1.2,1,1.5,1.6c0.2,0.6,0.4,1.2,0.4,2.1c0,4.1-2.9,6.1-8.6,6.1c-1.7,0-3.2-0.2-4.4-0.6
		c-1.4-0.4-2.4-1-3.1-1.6c-0.8-0.6-1.4-1.4-1.9-2.4c-0.5-1.1-0.9-2.1-1-3.1l-0.6-3.6L516,186c0-0.1,0-0.2,0-0.3
		c0-1.8-0.2-3.4-0.5-4.9c-0.4-1.6-0.9-2.9-1.3-4.1c-0.5-1.1-1.2-2.3-2.1-3.3c-0.7-0.9-1.6-1.8-2.6-2.8c-0.6-0.5-1.7-1.3-3.2-2.2
		c-0.8-0.5-2-1-3.3-1.7c-1-0.4-2.2-0.9-3.7-1.4c-1.3-0.4-2.5-0.8-3.6-1.1l-3.6-0.9c-2.6-0.7-5.6-1.6-8.9-2.9c-2.4-1.1-3.6-2.8-3.6-5
		c0-3.3,2.3-4.9,6.9-4.9c3.1,0,5.3,0.6,6.6,1.8c1.4,1.2,2.1,3.4,2.1,6.7l19.6-2.2c-0.2-3.7-0.7-6.8-1.9-9.4
		c-1.1-2.7-2.6-4.7-4.3-6.2c-1.6-1.5-3.7-2.7-6.3-3.7c-2.4-0.8-4.9-1.5-7.2-1.8c-2.4-0.3-5-0.4-7.9-0.4c-3,0-5.9,0.3-8.8,0.9
		c-2.8,0.6-5.4,1.6-7.8,2.9c-2.4,1.2-4.4,2.7-6.2,4.6c-1.8,1.8-3.1,4-4.1,6.6c-1,2.6-1.5,5.4-1.5,8.4c0,1.7,0.1,3.2,0.3,4.6
		c0.3,1.3,0.6,2.7,1.2,3.9l1.6,3.2c0.6,1,1.4,1.9,2.3,2.7l2.6,2.1c0.7,0.6,1.7,1.2,3,1.8l3.1,1.3c0.7,0.3,1.8,0.7,3.4,1.2l3.2,0.8
		c2,0.5,3,0.7,3.3,0.8l6.1,1.6c1.4,0.5,2.3,0.8,2.7,1.1c0.5,0.3,1.1,0.7,1.8,1.2c0.6,0.4,1.1,1,1.4,1.6c0.3,0.6,0.4,1.3,0.4,2.1
		c0,4.1-2.9,6.1-8.5,6.1c-1.8,0-3.3-0.2-4.5-0.6c-1.3-0.4-2.3-1-3.1-1.6c-0.7-0.6-1.3-1.3-1.8-2.4c-0.6-1.1-0.9-2.1-1.1-3.1
		l-0.6-3.6l-19.2,2.6c0.1,3.1,0.5,5.9,1.3,8.4c0.8,2.5,1.8,4.6,3,6.2c1.1,1.6,2.6,3.1,4.3,4.3s3.4,2.2,5.1,2.8
		c1.6,0.7,3.5,1.2,5.6,1.5c2.1,0.5,3.9,0.7,5.4,0.7c1.5,0.1,3.1,0.2,5,0.2c4,0,7.7-0.5,11.1-1.4c3.5-1,6.7-2.4,9.5-4.3
		c2.9-1.9,5.1-4.4,6.8-7.7c1-1.9,1.7-4,2.1-6.3c0.2,1.4,0.5,2.8,0.9,4c0.9,2.6,1.8,4.7,3,6.2c1.1,1.6,2.6,3.1,4.3,4.3
		s3.3,2.2,5.1,2.8c1.6,0.7,3.5,1.2,5.6,1.5c2.1,0.5,3.9,0.7,5.4,0.7c1.5,0.1,3.1,0.2,5,0.2c4,0,7.7-0.5,11.1-1.4
		c3.5-1,6.6-2.4,9.5-4.3s5.1-4.4,6.8-7.7c1.6-3.1,2.5-6.8,2.5-11.1c0-1.8-0.2-3.4-0.5-4.9c-0.4-1.6-0.8-2.9-1.3-4.1
		c-0.5-1.1-1.2-2.3-2.1-3.3c-0.8-1-1.7-1.9-2.6-2.8c-0.8-0.6-1.8-1.3-3.2-2.2c-0.8-0.5-2-1-3.3-1.7c-1-0.4-2.2-0.9-3.7-1.4
		c-1.3-0.4-2.5-0.8-3.6-1.1l-3.6-0.9c-2.6-0.7-5.6-1.6-8.9-2.9c-2.4-1.1-3.6-2.8-3.6-5c0-3.3,2.2-4.9,6.8-4.9c3.2,0,5.4,0.6,6.7,1.8
		c1.4,1.2,2.1,3.4,2.1,6.7L573.6,156.8z"/>
	<path class="st2" d="M572.1,148.3c-0.1-0.3-0.2-0.6-0.4-0.9c-1.1-2.6-2.6-4.7-4.3-6.2c-1.6-1.5-3.8-2.7-6.3-3.7
		c-2.5-0.8-5-1.5-7.3-1.8s-4.9-0.4-7.8-0.4c-3,0-5.9,0.3-8.9,0.9c-1.2,0.3-2.5,0.6-3.6,1L572.1,148.3z"/>
	<path class="st1" d="M200.7,14.9c-0.8-0.1-1.3-0.1-1.6-0.1c-4,0-7.3,1.8-9.9,5.6l-0.6-4.9h-7.7v20.6l9,2.6V26.5
		c1.4-1.1,3-1.9,4.9-2.4c1.9-0.5,3.9-0.6,5.9-0.4V14.9z"/>
	<path class="st0" d="M180.9,36.1v10.6h9v-8L180.9,36.1z"/>
	<path class="st1" d="M175.2,33.3c0.2-0.8,0.2-2.1,0.2-4c0-4.6-1.1-8.1-3.2-10.7c-2.2-2.5-5.6-3.8-10.2-3.8c-2.2,0-4.1,0.3-6,1
		c-1.8,0.6-3.4,1.6-4.8,2.9c-1.4,1.3-2.5,3-3.4,5.2c-0.2,0.8-0.5,1.6-0.6,2.5l24.1,6.9H175.2z M164.9,22.8c0.8,1,1.1,2.6,1.1,4.8
		h-9.7c0-2.2,0.5-3.7,1.5-4.7c1.1-1.1,2.3-1.6,3.7-1.6C163,21.3,164.1,21.8,164.9,22.8z"/>
	<path class="st0" d="M167.6,36c-0.3,1.4-0.8,2.5-1.6,3.3c-0.8,0.7-2,1.1-3.5,1.1c-2,0-3.5-0.5-4.6-1.7c-1-1-1.6-2.8-1.7-5.4h15.1
		l-24.1-6.9c-0.4,1.5-0.5,3.1-0.5,4.8s0.1,3.4,0.4,4.9c0.4,1.7,0.9,3.2,1.6,4.5c0.8,1.4,1.7,2.6,2.9,3.6c1.1,1,2.6,1.8,4.4,2.4
		c1.8,0.5,3.8,0.8,6,0.8c3.6,0,6.6-0.8,8.9-2.5c2.3-1.8,3.7-4.1,4.3-7.1L167.6,36z"/>
	<path class="st1" d="M201.9,39.2c0.3,1.2,0.7,2.3,1.3,3.3l16.1,4.6c2.2-0.4,4.2-1.2,5.8-2.4c2.6-1.8,3.9-4.4,3.9-7.8
		c0-0.8-0.1-1.6-0.2-2.2c-0.2-0.7-0.4-1.3-0.6-1.8c-0.3-0.6-0.6-1.1-1-1.5c-0.3-0.4-0.7-0.8-1.1-1.1c-0.3-0.3-0.8-0.6-1.4-0.9
		l-1.6-0.7c-0.2-0.1-0.8-0.3-1.7-0.5l-7.3-1.6c-0.7-0.2-1.2-0.4-1.4-0.7c-0.3-0.2-0.6-0.5-0.8-0.8c-0.2-0.4-0.3-0.8-0.3-1.3
		c0-0.9,0.3-1.6,1-2.2c0.8-0.5,1.9-0.8,3.2-0.8c1.6,0,2.7,0.4,3.5,1.2c0.8,0.7,1.4,1.8,1.9,3.4l7.2-2.2c-1.6-5.6-5.7-8.4-12.5-8.4
		c-2.4,0-4.5,0.3-6.4,1.1c-2,0.7-3.5,1.9-4.7,3.4c-1.3,1.6-1.9,3.4-1.9,5.6c0.1,3.7,1.8,6.4,5,8c1.4,0.6,3.5,1.2,6.3,1.7l2,0.5
		c0.4,0,0.9,0.2,1.6,0.5c0.5,0.1,1,0.3,1.3,0.6c0.4,0.3,0.7,0.6,0.8,0.9c0.2,0.4,0.3,0.8,0.3,1.3c0,2-1.6,3-4.7,3
		c-1.1,0-2-0.1-2.7-0.4c-0.7-0.2-1.3-0.6-1.8-1.1c-0.4-0.4-0.8-0.9-1.1-1.5c-0.3-0.5-0.5-1.1-0.7-1.8L201.9,39.2z"/>
	<path class="st0" d="M215.2,47.4c1.4,0,2.8-0.1,4.1-0.3l-16.1-4.6c0.7,1.1,1.6,2,2.8,2.8C208.2,46.7,211.2,47.4,215.2,47.4z"/>
	<path class="st1" d="M134.1,22.7l8,2.3l3.4-9.5h-9.3L134.1,22.7z"/>
	<path class="st0" d="M142.1,25l-8-2.3L129.5,38h-0.2l-5.4-18.3l-10.6-3l10.6,30h10.5L142.1,25z"/>
	<path class="st2" d="M112.8,15.5l0.5,1.2l10.6,3l-1.3-4.2H112.8z"/>
	<path class="st2" d="M73.3,3.3h-6.8l24.3,6.9c-0.4-0.5-0.8-1-1.3-1.4C86,5.1,80.6,3.3,73.3,3.3z"/>
	<path class="st0" d="M66.5,3.3h-8.4v43.4h14.2c3.7,0,7.1-0.5,10.1-1.6c2.8-1.1,5.2-2.6,7-4.6c1.8-2,3.2-4.3,4.1-7s1.3-5.8,1.3-9.2
		c0-5.8-1.3-10.5-4-14.1L66.5,3.3z M84.6,18c0.5,1.8,0.7,4.1,0.7,6.8c0,4.7-1,8.3-3.1,10.8c-2.1,2.4-5.5,3.7-10.3,3.7h-4.6V10.7h5.2
		c2.3,0,4.2,0.2,5.7,0.7c1.5,0.4,2.9,1.2,3.9,2.3C83.2,14.7,84,16.2,84.6,18z"/>
	<path class="st2" d="M109.1,15.5l0.6,0.2v-0.2H109.1z"/>
	<path class="st0" d="M109.7,15.7l-0.6-0.2h-8.5v31.2h9.1V15.7z"/>
	<path class="st1" d="M1261.6,153.8h27.8v-17.2h-49.5V193l21.7-3.7v-7.7h26.4v-16.5h-26.4V153.8z"/>
	<path class="st3" d="M1261.6,191.4v-2.1l-21.7,3.7v16h52v-17.6H1261.6z"/>
	<path class="st1" d="M1233.9,153.1c-0.4-2.1-1.2-4.2-2.4-6.3c-1.2-2-2.7-3.8-4.5-5.3c-1.7-1.5-4-2.7-6.9-3.6
		c-2.8-0.9-6-1.3-9.5-1.3h-31.3v66.8l21.6-3.7v-12.1h4.8c19.3,0,29-9.3,29-27.7C1234.7,157.5,1234.4,155.2,1233.9,153.1z
		 M1210.5,154.8c0.5,0.7,1,1.6,1.4,2.7c0.4,1.2,0.6,2.6,0.6,4.2c0,3.7-0.9,6.3-2.6,7.8c-1.6,1.5-4,2.3-7,2.3h-2v-19.1h3.1
		c0.5,0,1.3,0,2.1,0.1c0.7,0.1,1.5,0.3,2.3,0.6C1209.2,153.8,1209.9,154.3,1210.5,154.8z"/>
	<path class="st3" d="M1200.9,199.7l-21.6,3.7v5.6h21.6V199.7z"/>
	<path class="st1" d="M1151.7,136.6h-26.3l-23.2,72.4h22.6l4-14.1h20.5l4.4,12.9l22.2-3.8L1151.7,136.6z M1138.1,156.6h0.6l6.4,22
		h-13.3L1138.1,156.6z"/>
	<path class="st3" d="M1153.7,207.8l0.4,1.2h23.6l-1.8-5L1153.7,207.8z"/>
</g>
</svg>
