<?xml version="1.0" encoding="utf-8"?>
<!-- Generator: Adobe Illustrator 21.1.0, SVG Export Plug-In . SVG Version: 6.00 Build 0)  -->
<svg version="1.1" id="Layer_1" xmlns="http://www.w3.org/2000/svg" xmlns:xlink="http://www.w3.org/1999/xlink" x="0px" y="0px"
	 viewBox="0 0 1212.2 77.8" style="enable-background:new 0 0 1212.2 77.8;" xml:space="preserve">
<style type="text/css">
	.st0{fill:#FFFFFF;}
	.st1{fill:#1A2857;}
	.st2{fill:#23A8DF;}
	.st3{fill:#EF8184;}
</style>
<rect y="1.3" class="st0" width="1200" height="73.7"/>
<g>
	<path class="st1" d="M330.1,1.9v17.3h20.8v55.1h21.7V19.2h20.5V1.9H330.1z"/>
	<path class="st1" d="M284.8,1.9h-21.7v66.9l21.7,5.5V47.4H305v26.9h21.7V1.9H305v27.6h-20.2V1.9z"/>
	<path class="st2" d="M284.8,74.3l-21.7-5.5v5.5H284.8z"/>
	<path class="st1" d="M135.8,1.1c-2.3-0.3-5-0.5-7.8-0.5c-3,0-5.9,0.3-8.9,1c-2.8,0.6-5.4,1.5-7.7,2.8c-2.5,1.3-4.5,2.8-6.2,4.7
		c-1.8,1.8-3.2,4-4.1,6.5c-1,2.6-1.5,5.4-1.5,8.4c0,1.3,0,2.5,0.2,3.6l55,13.9c-0.5-1-1.1-1.9-1.9-2.8c-0.9-1.1-1.8-2-2.6-2.7
		c-0.8-0.7-1.9-1.4-3.2-2.2c-0.8-0.5-2-1.1-3.3-1.7c-1-0.5-2.2-0.9-3.7-1.4c-1.3-0.5-2.5-0.8-3.6-1.1l-3.7-1
		c-2.5-0.6-5.5-1.6-8.8-2.9c-2.4-1.1-3.6-2.7-3.6-5c0-3.2,2.3-4.9,6.8-4.9c3.1,0,5.4,0.6,6.7,1.9c1.4,1.1,2.1,3.4,2.1,6.6l19.6-2.2
		c-0.1-3.6-0.7-6.7-1.9-9.3c-1.1-2.7-2.6-4.8-4.3-6.2c-1.6-1.5-3.7-2.8-6.3-3.7C140.6,2,138.2,1.4,135.8,1.1z"/>
	<path class="st2" d="M99.8,27.6c0,0.3,0.1,0.7,0.1,1.1c0.3,1.4,0.7,2.7,1.2,3.9c0.2,0.6,0.8,1.7,1.6,3.2c0.6,1,1.4,1.9,2.3,2.7
		c0.7,0.6,1.6,1.3,2.6,2.1c0.7,0.5,1.7,1.1,3,1.7l3.1,1.4c0.6,0.2,1.7,0.6,3.3,1.1l3.3,0.9c0.9,0.2,1.9,0.5,3.3,0.7l6.1,1.7
		c1.3,0.4,2.2,0.7,2.6,1l1.9,1.2c0.6,0.5,1.1,1,1.4,1.7c0.2,0.5,0.4,1.2,0.4,2c0,4.1-2.9,6.1-8.6,6.1c-1.7,0-3.2-0.2-4.4-0.6
		c-1.2-0.3-2.2-0.8-3.1-1.5c-0.7-0.6-1.3-1.4-1.9-2.5c-0.5-1.1-0.8-2.1-1-3l-0.6-3.7l-19.2,2.6c0.1,3.1,0.5,5.9,1.3,8.4
		c0.9,2.6,1.8,4.7,3,6.3s2.6,3.1,4.3,4.2c1.7,1.3,3.4,2.2,5.1,2.9c1.6,0.6,3.5,1.1,5.6,1.5c2,0.4,3.8,0.6,5.4,0.7
		c1.5,0.1,3.1,0.2,5,0.2c3.9,0,7.6-0.5,11.1-1.5c3.5-0.9,6.7-2.4,9.5-4.2c2.8-1.9,5.1-4.5,6.8-7.7c1.7-3.2,2.5-6.9,2.5-11.2
		c0-1.8-0.2-3.4-0.5-4.8c-0.4-1.6-0.8-3-1.3-4.1c-0.1-0.2-0.2-0.4-0.2-0.6L99.8,27.6z"/>
	<path class="st1" d="M208.6,3.6c-4.6,2-8.5,4.6-11.4,8.2c-3,3.5-5.1,7.6-6.6,12.2c-1.4,4.7-2.2,9.9-2.2,15.5
		c0,3.8,0.3,7.4,0.9,10.7l27.1,6.9c-0.9-0.7-1.7-1.5-2.3-2.5c-0.7-1.1-1.2-2.2-1.6-3.2c-0.3-1.1-0.7-2.4-0.9-4.1l-0.6-9.7
		c0-6.6,1.1-11.6,3.2-15c2.1-3.5,5.6-5.2,10.4-5.2c1.8,0,3.3,0.3,4.7,0.9c1.2,0.5,2.2,1.1,3,1.9c0.6,0.6,1.2,1.6,1.7,2.8
		c0.4,1.2,0.7,2.1,0.8,2.9c0.1,0.7,0.2,1.7,0.3,2.8l20-1.9c-0.3-4.7-1.2-8.7-2.8-12.1c-1.7-3.5-3.9-6.1-6.6-8.1s-5.8-3.5-9.3-4.5
		s-7.3-1.5-11.5-1.5C218.8,0.6,213.4,1.6,208.6,3.6z"/>
	<path class="st1" d="M256.4,36.4h-28.9v14.1h7.1V51c0,5.3-3.3,8-9.9,8.2l31.7,7.9V36.4z"/>
	<path class="st2" d="M224.7,59.2c-0.2,0-0.3,0-0.4,0c-1.7,0-3.2-0.3-4.4-0.6c-1.3-0.4-2.5-0.9-3.4-1.5c0,0,0,0-0.1,0l-27.1-6.9
		c0.3,1.3,0.5,2.5,0.9,3.8c1.2,4.3,3,8.1,5.3,11.3c2.4,3.2,5.6,5.8,9.6,7.6c4,1.8,8.6,2.7,13.9,2.7c4.1,0,8-0.8,11.7-2.3
		c3.6-1.6,6.2-3.9,7.9-7l2.1,8h15.7v-7.2L224.7,59.2z"/>
	<path class="st1" d="M182.9,1.9h-21.8v41.2l21.8,5.5V1.9z"/>
	<path class="st2" d="M182.9,74.3V48.6l-21.8-5.5v31.2H182.9z"/>
	<path class="st1" d="M0,1.9v0.5l21.7,5.5v-6H0z"/>
	<path class="st2" d="M21.7,7.9L0,2.4v71.9h21.7V7.9z"/>
	<path class="st1" d="M29.9,1.9v8l32.3,8.2L54.7,1.9H29.9z"/>
	<path class="st2" d="M94.2,26.2l-19.4-4.9v23.8l-12.6-27L29.9,9.9v64.4h19.6V31.9l20.4,42.4h24.3V26.2z"/>
	<path class="st1" d="M74.8,21.3l19.4,4.9V1.9H74.8V21.3z"/>
	<path class="st1" d="M447,12.8c-1.1-2.7-2.6-4.8-4.2-6.2c-1.7-1.5-3.8-2.7-6.4-3.7c-2.5-0.9-4.9-1.5-7.2-1.8
		c-2.4-0.3-5-0.5-7.9-0.5c-2.9,0-5.9,0.3-8.8,1c-2.8,0.6-5.4,1.5-7.8,2.8c-2.4,1.2-4.4,2.8-6.2,4.7c-1.8,1.8-3.1,4-4.1,6.5
		c-1,2.6-1.5,5.4-1.5,8.4c0,1.6,0.1,3.1,0.4,4.7c0.2,1.3,0.5,2.6,1.1,3.9c0.5,1.2,1.1,2.2,1.7,3.2c0.5,1,1.3,1.9,2.2,2.7l2.6,2.1
		c0.7,0.5,1.7,1.1,3,1.7l3.1,1.4c0.7,0.3,1.8,0.7,3.4,1.1l3.2,0.9c0.9,0.2,2,0.5,3.3,0.7l6.1,1.7c1.3,0.4,2.2,0.7,2.7,1
		c0.4,0.3,1.1,0.7,1.8,1.2s1.2,1,1.4,1.7c0.3,0.6,0.4,1.3,0.4,2c0,4.1-2.8,6.1-8.5,6.1c-1.8,0-3.3-0.2-4.5-0.6
		c-1.3-0.3-2.3-0.8-3.1-1.5c-0.7-0.6-1.3-1.4-1.8-2.5c-0.5-1-0.9-2-1.1-3l-0.6-3.7l-19.2,2.6c0.1,3.1,0.5,5.9,1.3,8.4
		c0.8,2.5,1.8,4.6,3,6.3c1.2,1.6,2.7,3.1,4.3,4.2c1.8,1.3,3.5,2.2,5.1,2.9c1.6,0.6,3.5,1.1,5.6,1.5c2.1,0.4,3.9,0.6,5.4,0.7
		c1.1,0.1,2.4,0.1,3.8,0.2L449.2,58c0.6-2.1,0.9-4.5,0.9-7c0-1.6-0.2-3.3-0.5-4.8c-0.3-1.4-0.7-2.7-1.3-4.1
		c-0.5-1.1-1.2-2.3-2.1-3.4c-1-1.2-1.9-2.1-2.6-2.7c-1-0.9-2-1.6-3.2-2.2c-1-0.6-2.2-1.2-3.3-1.7c-0.9-0.4-2.1-0.9-3.7-1.4l-7.2-2.1
		c-2.7-0.6-5.7-1.6-8.9-2.9c-2.4-1.1-3.6-2.7-3.6-5c0-3.2,2.3-4.9,6.9-4.9c3.1,0,5.3,0.6,6.7,1.9c1.3,1.2,2,3.4,2,6.6l19.6-2.2
		C448.8,18.5,448.2,15.4,447,12.8z"/>
	<path class="st3" d="M419,75.6c0.3,0,0.7,0,1.2,0c3.9,0,7.6-0.5,11.2-1.5c3.5-0.9,6.7-2.4,9.5-4.2c2.8-1.9,5.1-4.5,6.7-7.7
		c0.7-1.3,1.2-2.7,1.6-4.2L419,75.6z"/>
</g>
</svg>
