<?xml version="1.0" encoding="utf-8"?>
<!-- Generator: Adobe Illustrator 21.1.0, SVG Export Plug-In . SVG Version: 6.00 Build 0)  -->
<svg version="1.1" id="Layer_1" xmlns="http://www.w3.org/2000/svg" xmlns:xlink="http://www.w3.org/1999/xlink" x="0px" y="0px"
	 viewBox="0 0 1212.2 77.8" style="enable-background:new 0 0 1212.2 77.8;" xml:space="preserve">
<style type="text/css">
	.st0{fill:#FFFFFF;}
	.st1{fill:#1A2857;}
	.st2{fill:#24A7DF;}
	.st3{fill:#EF8184;}
</style>
<rect y="1.3" class="st0" width="1200" height="73.7"/>
<g>
	<path class="st1" d="M503,47.7V31.2h-26.4V20h27.8V2.7h-49.5v72.4h52V57.6h-30.3v-9.9H503z"/>
	<path class="st1" d="M393.3,12.4c-2.9,3.4-5.1,7.4-6.5,12c-1.5,4.5-2.3,9.6-2.3,15c0,6,0.7,11.1,2,15.6s3.3,8.3,6.1,11.5
		c2.7,3.2,6.3,5.7,10.9,7.4c4.5,1.6,9.9,2.5,16,2.5c2.6,0,5.4-0.3,8.2-0.8c2.7-0.6,5.4-1.5,8.1-2.6c2.7-1.3,5-2.8,7.1-4.6
		c2-1.9,3.8-4.2,5.2-7.1c1.5-2.8,2.4-6,2.7-9.6l-19.1-3c-0.3,1.6-0.7,3-1.1,4c-0.4,1.2-1.1,2.3-1.8,3.4c-0.8,1.1-1.9,2-3.3,2.6
		c-1.4,0.6-3.1,0.9-5.1,0.9c-4.6,0-8-1.6-10.2-4.9c-2.1-3.3-3.2-8.7-3.2-16.1c0-7,1.2-12.2,3.4-15.5c2.3-3.2,5.6-4.9,9.9-4.9
		c3.6,0,6.3,1,8.2,2.9c1.8,2,2.7,5.3,2.8,9.9l19.5-1.9c-0.1-4.8-0.9-9-2.4-12.5c-1.5-3.6-3.6-6.5-6.4-8.7c-2.7-2.2-5.9-3.8-9.4-4.8
		c-3.5-1.1-7.5-1.7-11.8-1.7c-6,0-11.4,1-16.1,3C400,6.2,396.2,8.9,393.3,12.4z"/>
	<path class="st2" d="M33.7,2.7H2v72.4h21.6V49.5H27l12,25.6h23.4L47.2,44.3c7.4-4.4,11.1-11.3,11.1-20.6c0-3-0.5-5.7-1.3-8
		c-0.9-2.4-2.3-4.6-4.2-6.7c-1.9-2-4.4-3.5-7.7-4.6C41.9,3.3,38.1,2.7,33.7,2.7z M23.6,33.9V18.8h4.5c5.3,0,7.9,2.4,7.9,7
		c0,5.4-3.3,8.1-10,8.1H23.6z"/>
	<path class="st1" d="M538.6,1.4c-2.9,0-5.8,0.3-8.8,1c-2.7,0.6-5.3,1.5-7.7,2.8c-2.4,1.2-4.5,2.8-6.2,4.7c-1.8,1.8-3.2,4-4.1,6.5
		c-1,2.6-1.5,5.4-1.5,8.4c0,1.8,0.1,3.3,0.3,4.7c0.3,1.4,0.7,2.7,1.2,3.9l1.6,3.2c0.6,1,1.4,1.9,2.2,2.7c0.8,0.6,1.7,1.3,2.7,2.1
		c0.7,0.5,1.7,1.1,3,1.7l3.1,1.4c0.6,0.2,1.7,0.6,3.3,1.1l3.3,0.9c0.9,0.2,1.9,0.5,3.3,0.7l6.1,1.7c1.3,0.4,2.2,0.7,2.7,1
		s1.1,0.7,1.8,1.2c0.6,0.5,1.1,1,1.4,1.7c0.3,0.5,0.3,1.2,0.3,2c0,4.1-2.8,6.1-8.5,6.1c-1.7,0-3.2-0.2-4.5-0.6
		c-1.1-0.3-2.1-0.8-3-1.5c-0.7-0.6-1.3-1.4-1.9-2.5c-0.5-1.1-0.8-2.1-1.1-3l-0.5-3.7l-19.2,2.6c0.1,3.1,0.5,5.9,1.3,8.4
		c0.8,2.5,1.8,4.6,3,6.3c1.2,1.6,2.6,3.1,4.3,4.2c1.6,1.3,3.4,2.2,5.1,2.9c1.6,0.6,3.5,1.1,5.5,1.5c2.1,0.4,3.9,0.6,5.5,0.7
		c0.9,0.1,1.9,0.1,3,0.2l31.8-26.5c-0.1-1-0.3-2-0.4-2.9c-0.4-1.6-0.9-3-1.3-4.1c-0.5-1.1-1.2-2.3-2.1-3.4c-0.9-1-1.7-2-2.6-2.7
		c-0.9-0.8-1.9-1.5-3.2-2.2c-0.8-0.5-2-1.1-3.3-1.7c-1-0.5-2.2-0.9-3.7-1.4c-1.3-0.5-2.5-0.8-3.7-1.1l-3.5-1c-3-0.7-5.9-1.6-9-2.9
		c-2.3-1.1-3.5-2.7-3.5-5c0-3.2,2.3-4.9,6.9-4.9c3.1,0,5.3,0.6,6.6,1.9c1.4,1.1,2,3.4,2,6.6l19.7-2.2c-0.2-3.6-0.7-6.7-1.9-9.3
		c-1.1-2.7-2.6-4.8-4.3-6.2c-1.6-1.5-3.7-2.8-6.3-3.7c-2.5-0.9-4.9-1.5-7.3-1.8C544.2,1.6,541.6,1.4,538.6,1.4z"/>
	<path class="st3" d="M567.5,51.8c0-0.6,0-1.3-0.1-1.9l-31.8,26.5c0.7,0,1.3,0,2,0c3.9,0,7.6-0.5,11.1-1.5c3.5-0.9,6.7-2.4,9.5-4.2
		c2.9-1.9,5.1-4.5,6.8-7.7C566.6,59.8,567.5,56.1,567.5,51.8z"/>
	<path class="st1" d="M356.8,2.7h-31.7v59.7l21.6,4.9V49.5h3.4l9.7,20.7l23,4.9h2.7l-15.2-30.8c7.4-4.4,11.1-11.3,11.1-20.6
		c0-2.9-0.5-5.6-1.4-8c-0.8-2.4-2.2-4.6-4.1-6.7c-1.9-2-4.5-3.5-7.7-4.6C365,3.3,361.2,2.7,356.8,2.7z M346.7,33.9V18.8h4.5
		c5.2,0,7.9,2.4,7.9,7c0,5.4-3.4,8.1-10,8.1H346.7z"/>
	<path class="st2" d="M359.8,70.2l2.3,4.9h20.7L359.8,70.2z"/>
	<path class="st2" d="M346.7,67.3l-21.6-4.9v12.7h21.6V67.3z"/>
	<path class="st1" d="M317.8,47.4V2.7h-21.5l-0.2,48.4c-0.1,1.3-0.2,2.2-0.4,2.6c-0.1,0.5-0.3,1.1-0.6,1.9l20.6,4.7
		C317.1,56.6,317.8,52.3,317.8,47.4z"/>
	<path class="st2" d="M255.8,46.8L255.8,46.8c0,10.3,2.5,17.8,7.4,22.5c4.9,4.7,12.7,7.1,23.3,7.1c4.7,0,8.9-0.6,12.6-1.7
		c3.7-1,7-2.7,9.8-5c2.9-2.2,5.1-5.2,6.6-9c0.1-0.1,0.2-0.3,0.2-0.4l-20.6-4.7c0,0.1,0,0.1-0.1,0.2c-0.3,0.8-0.7,1.4-1.1,1.7
		c-0.4,0.3-1,0.7-1.6,1.1c-0.6,0.4-1.4,0.6-2.2,0.8c-1.2,0.1-2.2,0.2-3,0.2c-0.9,0-1.8-0.1-2.6-0.1c-0.8-0.2-1.5-0.4-2.1-0.7
		c-0.7-0.3-1.2-0.5-1.6-0.8c-0.5-0.2-0.9-0.6-1.2-1.2l-0.9-1.3c-0.3-0.4-0.4-1-0.6-1.9l-0.3-1.9L255.8,46.8z"/>
	<path class="st1" d="M277.8,51.7L277.8,51.7c-0.1-0.4-0.2-1.2-0.2-2.4l-0.2-46.6h-21.6v44.1L277.8,51.7z"/>
	<path class="st1" d="M217,1.4c-6,0-11.4,1-16.2,3c-4.7,1.9-8.6,4.6-11.5,8.1c-3,3.3-5.2,7.4-6.8,12c-0.6,1.8-1,3.6-1.4,5.5
		l21.7,4.8c0.3-5.1,1.4-8.9,3.3-11.5c2.2-3.2,5.7-4.8,10.5-4.8c4.3,0,7.5,1.6,9.5,4.7c2.1,3.2,3.1,8.5,3.1,15.8c0,0.6,0,1.3,0,1.8
		l21.7,4.9c0.3-2.4,0.4-4.9,0.4-7.6c0-4-0.4-7.9-1.1-11.5c-0.7-3.5-2-6.9-3.7-10.1c-1.8-3.1-3.9-5.8-6.5-7.9c-2.7-2.2-5.9-4-9.8-5.2
		C226.3,2.1,221.9,1.4,217,1.4z"/>
	<path class="st2" d="M181.1,30c-0.6,3-0.9,6.2-0.9,9.5c0,5.6,0.7,10.6,2,15c1.2,4.3,3.2,8.2,6,11.5c2.6,3.3,6.3,5.9,10.9,7.7
		c4.6,1.8,10,2.7,16.1,2.7c6.2,0,11.6-0.9,16.2-2.7c4.6-1.8,8.4-4.4,11.3-7.8c2.9-3.3,5.1-7.3,6.5-12c0.8-2.5,1.4-5.3,1.7-8.2
		l-21.7-4.9c-0.1,3-0.4,5.8-1,8.2c-0.5,2.6-1.5,4.8-2.7,6.3c-1.3,1.6-2.6,2.7-4.1,3.3c-1.6,0.6-3.3,1-5.4,1c-3.1,0-5.6-0.6-7.4-1.9
		c-2-1.2-3.4-3.3-4.4-6.3c-1-3.1-1.6-7.2-1.6-12.4c0-1.4,0.1-2.8,0.2-4.2L181.1,30z"/>
	<path class="st1" d="M164.8,3.7c-2.5-0.9-4.9-1.5-7.3-1.8c-2.3-0.3-4.9-0.5-7.8-0.5c-3,0-5.9,0.3-8.9,1C138,3,135.4,3.9,133,5.2
		c-2.3,1.2-4.4,2.8-6.2,4.7c-1.7,1.8-3.1,4-4.1,6.5c0,0.1,0,0.2-0.1,0.4l19.4,4.4c0.2-3.1,2.5-4.6,6.9-4.6c3.2,0,5.4,0.6,6.7,1.9
		c1.3,1.1,2,3.2,2.1,6.2c0,0.1,0,0.3,0,0.4l19.5-2.2c0-3.5-0.6-6.6-1.8-9.3c-1.1-2.7-2.5-4.7-4.3-6.2C169.5,5.9,167.3,4.6,164.8,3.7
		z"/>
	<path class="st2" d="M174.6,39.5c-1.1-1.2-2-2.1-2.6-2.7c-1-0.8-2-1.5-3.2-2.2c-1.1-0.6-2.3-1.2-3.4-1.7c-0.7-0.4-1.9-0.8-3.6-1.4
		c-1.3-0.5-2.5-0.8-3.6-1.1l-3.7-1c-3-0.7-6-1.7-8.8-2.9c-2.5-1.1-3.7-2.7-3.7-5c0-0.1,0-0.2,0-0.3l-19.4-4.4
		c-0.9,2.5-1.4,5.2-1.4,8c0,1.6,0.2,3.1,0.4,4.7c0.3,1.6,0.7,2.9,1.2,3.9c0.4,1.1,1,2.1,1.6,3.2c0.6,1,1.4,1.9,2.3,2.7
		c0.9,0.8,1.8,1.5,2.6,2.1c0.7,0.5,1.7,1.1,3,1.7l3,1.4c0.8,0.3,1.9,0.7,3.4,1.1l3.3,0.9c0.8,0.2,1.9,0.5,3.3,0.7l6,1.7
		c1.3,0.4,2.2,0.7,2.8,1l1.8,1.2c0.7,0.5,1.1,1,1.4,1.7c0.2,0.6,0.4,1.3,0.4,2c0,4.1-2.9,6.1-8.6,6.1c-1.7,0-3.2-0.2-4.5-0.6
		c-1.1-0.3-2.1-0.8-3-1.5c-0.8-0.7-1.4-1.5-1.9-2.5c-0.4-1-0.9-2-1.1-3l-0.6-3.7l-19.2,2.6c0.1,3.1,0.6,5.9,1.4,8.4
		c0.8,2.5,1.8,4.6,2.9,6.3c1.3,1.6,2.7,3.1,4.4,4.2c1.7,1.3,3.3,2.2,5,2.9c1.7,0.6,3.5,1.1,5.6,1.5c2.1,0.4,3.9,0.6,5.4,0.7
		c1.5,0.1,3.2,0.2,5,0.2c3.9,0,7.7-0.5,11.2-1.5c3.5-0.9,6.7-2.4,9.5-4.2c2.9-1.9,5.1-4.5,6.8-7.7c1.6-3.3,2.5-7,2.5-11.2
		c0-1.5-0.2-3.2-0.5-4.8c-0.4-1.5-0.8-2.8-1.3-4.1C176.2,41.8,175.5,40.6,174.6,39.5z"/>
	<path class="st1" d="M65.9,2.7V4l49.5,11.2V2.7H65.9z"/>
	<path class="st2" d="M114,31.2H87.6V20h27.8v-4.8L65.9,4v71.1h52V57.6H87.6v-9.9H114V31.2z"/>
</g>
</svg>
