<?xml version="1.0" encoding="utf-8"?>
<!-- Generator: Adobe Illustrator 21.1.0, SVG Export Plug-In . SVG Version: 6.00 Build 0)  -->
<svg version="1.1" id="Layer_1" xmlns="http://www.w3.org/2000/svg" xmlns:xlink="http://www.w3.org/1999/xlink" x="0px" y="0px"
	 viewBox="0 0 1200 315.1" style="enable-background:new 0 0 1200 315.1;" xml:space="preserve">
<style type="text/css">
	.st0{fill:#FFFFFF;}
	.st1{fill:#1A2857;}
	.st2{fill:#23A8DF;}
	.st3{fill:#EF8184;}
	.st4{fill:#585C6D;}
</style>
<rect class="st0" width="1200" height="73.7"/>
<g>
	<path class="st1" d="M89.6,12c-0.7-1.1-1.6-2-2.7-2.7c-1.1-0.8-2.5-1.4-4.1-1.8C81,7,79.1,6.8,77.1,6.8H60.2v43.5h9.2V33.8h6
		l8.5,16.5h10l-9.8-18.8c5-2.3,7.5-6.5,7.5-12.4c0-1.4-0.2-2.7-0.5-3.8C90.8,14.2,90.3,13,89.6,12z M74.2,26.5h-4.8V14.3h5.1
		c2.6,0,4.4,0.4,5.7,1.4c1.2,0.8,1.8,2.2,1.8,4.3c0,2.4-0.8,4.2-2.3,5.1C78.1,26,76.3,26.5,74.2,26.5z"/>
	<path class="st1" d="M101.3,20.7c-2.1,1.6-3.4,4-3.9,7l7.7,1.5c0.3-1.5,0.9-2.6,1.5-3.3c0.7-0.7,1.8-1,3.2-1c2.1,0,3.3,0.5,3.7,1.6
		c0.5,1,0.8,2.4,0.8,4.1v1.1l-3.6,0.1c-1.5,0.2-2.7,0.3-3.5,0.4c-1.3,0.3-2.5,0.5-3.4,0.8c-0.8,0.3-1.8,0.7-2.9,1.3
		c-1,0.6-1.8,1.2-2.4,2c-0.6,0.7-1.1,1.6-1.6,2.7c-0.4,1.2-0.6,2.3-0.6,3.7c0,0.7,0.1,1.4,0.2,2c0.2,0.8,0.5,1.5,0.9,2.2
		c0.4,0.9,0.9,1.5,1.6,2.1c0.6,0.5,1.5,1,2.6,1.4c1.2,0.4,2.5,0.6,4,0.6c4.1,0,7.2-1.3,9.3-4c0.4,1.4,1.1,2.4,2.1,3
		c1.1,0.7,2.5,1,4.3,1c0.9,0,1.9-0.2,3.1-0.4c0.9-0.2,1.8-0.4,2.7-0.8l-0.2-5.3c-0.9,0.3-1.5,0.4-1.9,0.4c-0.7,0-1.2-0.2-1.5-0.6
		c-0.2-0.3-0.4-1-0.4-1.8V29.4c0-3.9-1-6.7-3.1-8.4c-2-1.8-5.2-2.7-9.4-2.7C106.5,18.3,103.4,19.2,101.3,20.7z M114.3,37v5.5
		c-0.5,0.5-1.2,1-2.2,1.5c-1,0.4-1.9,0.6-3,0.6c-2.4,0-3.7-1.2-3.7-3.4c0-2.8,2.5-4.2,7.5-4.2H114.3z"/>
	<path class="st1" d="M149.4,18.3c-4,0-7.2,1.9-9.9,5.6l-0.6-4.9h-7.7v31.3h9V30.1c1.3-1.1,2.9-1.8,4.9-2.4c1.9-0.5,3.8-0.6,5.9-0.4
		v-8.9C150.2,18.4,149.7,18.3,149.4,18.3z"/>
	<path class="st1" d="M181.7,32.8c0-4.5-1.1-8.1-3.2-10.6c-2.2-2.5-5.6-3.9-10.2-3.9c-2.1,0-4.1,0.4-6,1c-1.9,0.8-3.5,1.8-4.8,3
		c-1.4,1.4-2.5,3-3.3,5.2c-0.8,2.1-1.2,4.5-1.2,7.3c0,1.9,0.1,3.5,0.5,4.9c0.2,1.5,0.8,3,1.6,4.5c0.7,1.3,1.6,2.5,2.8,3.5
		c1.1,1,2.6,1.8,4.4,2.5c1.7,0.5,3.7,0.8,6,0.8c3.7,0,6.7-0.8,8.9-2.6c2.3-1.7,3.7-4,4.3-7l-7.6-1.9c-0.3,1.5-0.8,2.6-1.6,3.3
		c-0.7,0.8-1.9,1.2-3.5,1.2c-2,0-3.5-0.6-4.6-1.7c-1-1.1-1.6-3-1.7-5.4h19C181.7,36.2,181.7,34.8,181.7,32.8z M171.2,26.4
		c0.8,1,1.2,2.6,1.2,4.8h-9.8c0-2.2,0.5-3.8,1.5-4.8s2.2-1.5,3.7-1.5S170.4,25.4,171.2,26.4z"/>
	<path class="st1" d="M197.8,19.7c-0.9,2.8-1.3,5.9-1.3,9.3c0,14.7,6.7,22,20,22c1.6,0,3.2-0.1,4.7-0.4c1.6-0.3,3.1-0.8,4.5-1.6
		c1.5-0.7,2.8-1.5,4-2.6c1.2-1,2.2-2.4,3-4c0.9-1.7,1.4-3.5,1.7-5.4l-8.4-1.4c-0.5,2.6-1.5,4.4-2.9,5.8c-1.4,1.3-3.6,2-6.5,2
		c-3.5,0-6.1-1.2-7.9-3.6c-1.8-2.3-2.7-6.1-2.7-11.2s1-8.8,2.9-11.2c2-2.5,4.8-3.7,8.4-3.7c2.8,0,4.9,0.7,6.2,2
		c1.5,1.5,2.3,3.7,2.5,6.7l8.5-0.7c-0.2-5.3-1.9-9.2-4.9-11.8c-3.1-2.5-7.1-3.8-12.2-3.8c-3.3,0-6.3,0.5-9,1.6
		c-2.6,1.1-4.8,2.7-6.6,4.7C200.1,14.4,198.8,16.8,197.8,19.7z"/>
	<path class="st1" d="M268.2,27.8c-0.5-1.9-1.4-3.6-2.6-5c-1.1-1.4-2.8-2.5-4.7-3.3s-4.2-1.2-6.9-1.2c-5.3,0-9.3,1.5-12,4.4
		c-2.7,3-4.1,7-4.1,12.1c0,2.5,0.3,4.6,0.8,6.5c0.6,1.9,1.4,3.5,2.6,5.1c1.1,1.5,2.7,2.6,4.7,3.4c2,0.9,4.4,1.2,7.2,1.2
		c5.4,0,9.4-1.5,12-4.5c2.6-2.9,3.9-7,3.9-12.3C269.1,31.8,268.8,29.7,268.2,27.8z M253.7,25.2c2.1,0,3.6,0.7,4.5,2.1
		c1,1.4,1.4,3.7,1.4,7.1c0,3.6-0.5,6.1-1.5,7.6c-0.9,1.5-2.4,2.3-4.5,2.3c-2.2,0-3.8-0.8-4.8-2.3c-0.9-1.5-1.4-4-1.4-7.5
		c0-3.2,0.5-5.6,1.6-7.1C250,26,251.6,25.2,253.7,25.2z"/>
	<path class="st1" d="M282.2,19h-7.7v31.3h9.1V27.9c0.6-0.6,1.4-1.1,2.4-1.6c1-0.4,1.9-0.6,2.8-0.6c1.3,0,2.2,0.3,2.8,1.1
		c0.5,0.7,0.7,1.9,0.7,3.4v20.1h9.1l-0.1-22.5c0.6-0.6,1.4-1.1,2.5-1.5c0.9-0.4,1.9-0.6,2.7-0.6c1.3,0,2.2,0.3,2.8,1.1
		c0.5,0.7,0.8,1.9,0.8,3.4v20.1h9V28.7c0-6.9-3.1-10.4-9.3-10.4c-2,0-3.9,0.4-5.5,1.1c-1.7,0.8-3.1,1.7-4.2,2.9c-1.4-2.6-4.1-4-8-4
		c-3.5,0-6.7,1.2-9.5,3.6L282.2,19z"/>
	<path class="st1" d="M344.1,18.3c-3.7,0-6.9,1.2-9.4,3.5V5h-8.9v45.3h7.7l0.4-2.6h0.1c2.3,2.2,5.2,3.3,8.6,3.3c1.6,0,3-0.2,4.3-0.6
		c1.3-0.4,2.5-1,3.6-1.9c1.1-0.8,2-1.9,2.8-3.2c0.7-1.4,1.3-3,1.7-4.9c0.5-1.8,0.7-4,0.7-6.4c0-2.8-0.3-5.3-0.9-7.3
		c-0.6-2-1.5-3.7-2.6-4.9c-1-1.1-2.2-2-3.6-2.6C347.2,18.7,345.7,18.3,344.1,18.3z M345,28.1c0.4,0.8,0.7,1.7,0.8,2.6
		c0.2,1,0.3,2.2,0.3,3.5c0,3.2-0.5,5.6-1.4,7.2c-1,1.5-2.4,2.3-4.4,2.3c-1.7,0-3.5-0.7-5.5-2V28c0.9-0.7,1.8-1.2,2.7-1.7
		c1-0.4,2-0.6,3.1-0.6s2,0.1,2.7,0.5C344,26.7,344.6,27.3,345,28.1z"/>
	<path class="st1" d="M366,4c-1.8,0-3.2,0.5-4.1,1.4s-1.4,2.3-1.4,4c0,1.8,0.5,3.1,1.4,4.1c1,0.9,2.3,1.4,4.1,1.4c1.7,0,3-0.5,4-1.4
		c0.9-1,1.4-2.3,1.4-4.1c0-1.7-0.5-3.1-1.4-4S367.7,4,366,4z"/>
	<path class="st1" d="M385.3,19h-8v31.3h9V28.2c0.7-0.7,1.6-1.3,2.8-1.8c1.1-0.5,2.2-0.7,3.4-0.7c1.4,0,2.4,0.4,3.1,1.1
		c0.6,0.7,1,1.9,1,3.7v19.8h9V28.9c0-3.6-0.8-6.3-2.3-8c-1.7-1.7-4.2-2.6-7.5-2.6c-3.8,0-7.1,1.3-10,3.9L385.3,19z"/>
	<path class="st1" d="M370.5,19h-9.1v31.3h9.1V19z"/>
	<path class="st1" d="M425.1,18.3c-4.1,0-7.2,0.9-9.3,2.4c-2.1,1.6-3.4,4-3.9,7l7.7,1.5c0.4-1.5,0.9-2.7,1.6-3.3
		c0.6-0.7,1.7-1,3.1-1c2,0,3.3,0.5,3.8,1.6c0.4,1.1,0.7,2.4,0.7,4.1v1.1l-3.5,0.1c-1.6,0.2-2.7,0.3-3.5,0.4
		c-1.4,0.3-2.5,0.5-3.4,0.8c-1,0.3-2,0.8-3,1.3c-0.9,0.6-1.8,1.2-2.4,2c-0.7,0.8-1.2,1.7-1.6,2.7c-0.3,1.2-0.5,2.4-0.5,3.7
		c0,0.7,0,1.4,0.2,2c0.1,0.8,0.4,1.5,0.8,2.2c0.4,0.8,0.9,1.5,1.6,2.1c0.7,0.5,1.6,1,2.7,1.4c1.1,0.4,2.5,0.6,3.9,0.6
		c4.2,0,7.3-1.3,9.4-4c0.3,1.4,1,2.4,2,3c1.1,0.7,2.6,1,4.4,1c0.8,0,1.8-0.2,3-0.4c1-0.2,1.9-0.4,2.7-0.8l-0.2-5.3
		c-0.8,0.3-1.4,0.4-1.9,0.4c-0.7,0-1.2-0.2-1.4-0.6c-0.3-0.3-0.4-0.9-0.4-1.8V29.4c0-3.9-1.1-6.7-3.1-8.4
		C432.5,19.2,429.4,18.3,425.1,18.3z M428.8,37v5.5c-0.4,0.5-1.1,1-2.2,1.5c-1,0.4-2,0.6-3,0.6c-2.4,0-3.6-1.2-3.6-3.4
		c0-2.8,2.5-4.2,7.4-4.2H428.8z"/>
	<path class="st1" d="M441.5,25.7h4.7v15.1c0,3.6,0.8,6.1,2.5,7.8c1.7,1.6,4.2,2.4,7.4,2.4c1.8,0,3.6-0.2,5.4-0.7
		c1.8-0.4,3-1,3.8-1.5l-1.3-6.4c-0.5,0.3-1.3,0.6-2.4,1c-0.9,0.3-1.8,0.4-2.7,0.4c-1.4,0-2.3-0.3-2.9-1c-0.5-0.6-0.8-1.8-0.8-3.2
		V25.7h8.3V19h-8.3V8.6l-9,1.2V19h-4.7V25.7z"/>
	<path class="st1" d="M587.5,19.5c-2-0.8-4.3-1.2-7-1.2c-5.2,0-9.2,1.5-12,4.4c-2.7,3-4,7-4,12.1c0,2.5,0.2,4.6,0.8,6.5
		c0.5,1.9,1.4,3.5,2.5,5.1c1.2,1.5,2.7,2.6,4.7,3.4c2,0.9,4.4,1.2,7.2,1.2c5.4,0,9.4-1.5,12-4.5c2.6-2.9,3.9-7,3.9-12.3
		c0-2.4-0.3-4.5-0.8-6.4c-0.6-1.8-1.4-3.5-2.6-5C591,21.4,589.4,20.3,587.5,19.5z M575.5,27.4c1-1.4,2.6-2.2,4.8-2.2
		c2,0,3.5,0.7,4.5,2.1c0.9,1.4,1.4,3.7,1.4,7.1c0,3.6-0.5,6.1-1.5,7.6s-2.5,2.3-4.6,2.3c-2.2,0-3.8-0.8-4.7-2.3
		c-1-1.5-1.5-4-1.5-7.5C573.9,31.3,574.5,28.9,575.5,27.4z"/>
	<path class="st1" d="M598,25.7h4.3v24.6h9.1V25.7h8.3V19h-8.3v-2.7c0-2,0.4-3.4,1.1-4.1c0.9-0.7,2-1,3.7-1c1.3,0,2.7,0.2,4.2,0.7
		l0.3-6.4c-1.5-0.8-3.8-1.2-6.9-1.2c-3.6,0-6.4,0.9-8.4,2.8c-2.1,1.8-3.1,4.6-3.1,8.3V19H598V25.7z"/>
	<path class="st1" d="M514.2,27.8c-0.6-1.9-1.5-3.6-2.6-5c-1.2-1.4-2.8-2.5-4.7-3.3c-2-0.8-4.3-1.2-7-1.2c-5.2,0-9.2,1.5-12,4.4
		c-2.7,3-4,7-4,12.1c0,2.5,0.2,4.6,0.8,6.5c0.5,1.9,1.4,3.5,2.5,5.1c1.2,1.5,2.7,2.6,4.8,3.4c2,0.9,4.4,1.2,7.1,1.2
		c5.4,0,9.4-1.5,12-4.5c2.6-2.9,3.9-7,3.9-12.3C515,31.8,514.7,29.7,514.2,27.8z M494.9,27.4c1.1-1.4,2.6-2.2,4.8-2.2
		c2,0,3.5,0.7,4.5,2.1c0.9,1.4,1.4,3.7,1.4,7.1c0,3.6-0.5,6.1-1.5,7.6s-2.5,2.3-4.6,2.3c-2.2,0-3.8-0.8-4.7-2.3
		c-1-1.5-1.5-4-1.5-7.5C493.3,31.3,493.9,28.9,494.9,27.4z"/>
	<path class="st1" d="M529,22.2l-0.5-3.2h-8v31.3h9V28.2c0.5-0.6,1.5-1.2,2.7-1.8c1.2-0.5,2.3-0.7,3.4-0.7c1.4,0,2.5,0.4,3.2,1.1
		c0.6,0.8,1,2,1,3.7v19.8h9V28.9c0-3.6-0.8-6.2-2.4-8c-1.5-1.7-4-2.6-7.5-2.6C535.1,18.3,531.8,19.6,529,22.2z"/>
	<path class="st1" d="M473.9,4c-1.8,0-3.1,0.5-4,1.4c-1,0.9-1.4,2.3-1.4,4c0,1.8,0.5,3.1,1.4,4.1c1,0.9,2.3,1.4,4,1.4
		c1.8,0,3.1-0.5,4-1.4c1-1,1.5-2.3,1.5-4.1c0-1.7-0.5-3.1-1.5-4C477,4.5,475.7,4,473.9,4z"/>
	<path class="st1" d="M478.4,19h-9v31.3h9V19z"/>
	<path class="st1" d="M237.5,101c-0.4,1.1-0.6,2.3-0.6,3.7c0,0.7,0.1,1.4,0.2,2c0.2,0.8,0.5,1.5,0.8,2.2c0.5,0.9,1.1,1.6,1.6,2.1
		c0.8,0.6,1.7,1.1,2.7,1.4c1.2,0.4,2.5,0.6,4,0.6c4.1,0,7.2-1.3,9.3-4c0.4,1.4,1.1,2.5,2.1,3c1.1,0.7,2.5,1,4.3,1
		c0.9,0,1.9-0.2,3.1-0.4c0.9-0.2,1.8-0.5,2.7-0.8l-0.2-5.3c-0.9,0.3-1.5,0.4-1.9,0.4c-0.8,0-1.3-0.2-1.5-0.6c-0.3-0.3-0.4-1-0.4-1.8
		V91.4c0-3.9-1-6.7-3.1-8.4c-2-1.8-5.2-2.7-9.4-2.7c-4.1,0-7.2,0.8-9.3,2.4c-2.1,1.6-3.4,4-3.9,7l7.7,1.5c0.3-1.5,0.9-2.6,1.5-3.3
		c0.7-0.7,1.8-1,3.2-1c2.1,0,3.3,0.5,3.7,1.6c0.5,1,0.8,2.4,0.8,4.1v1.1l-3.6,0.1c-1.5,0.2-2.7,0.3-3.5,0.4
		c-1.3,0.3-2.5,0.5-3.4,0.8c-0.9,0.3-1.9,0.8-2.9,1.3c-1,0.6-1.8,1.2-2.4,2C238.5,99,238,99.9,237.5,101z M246,103.2
		c0-2.8,2.5-4.2,7.5-4.2h1.4v5.5c-0.5,0.5-1.2,1-2.2,1.5c-1,0.4-2,0.6-3,0.6C247.2,106.6,246,105.4,246,103.2z"/>
	<path class="st1" d="M297.7,82.9c-1.5-1.7-4-2.6-7.5-2.6c-3.8,0-7.1,1.3-9.9,3.8l-0.5-3.1h-8v31.3h9V90.1c0.5-0.5,1.5-1.1,2.7-1.7
		c1.2-0.5,2.3-0.7,3.4-0.7c1.4,0,2.5,0.4,3.2,1.1c0.6,0.8,1,2,1,3.7v19.8h9V90.9C300.1,87.3,299.3,84.6,297.7,82.9z"/>
	<path class="st1" d="M332.1,104.5V91.4c0-3.9-1-6.7-3.1-8.4c-2-1.8-5.2-2.7-9.4-2.7c-4.1,0-7.2,0.8-9.3,2.4c-2.1,1.6-3.5,4-4,7
		l7.8,1.5c0.3-1.5,0.9-2.6,1.5-3.3c0.7-0.7,1.8-1,3.2-1c2.1,0,3.3,0.5,3.7,1.6c0.5,1,0.8,2.4,0.8,4.1v1.1l-3.6,0.1
		c-1.6,0.2-2.8,0.3-3.5,0.4c-1.2,0.2-2.4,0.5-3.4,0.8c-0.8,0.3-1.8,0.7-3,1.3c-0.9,0.6-1.7,1.2-2.3,2c-0.7,0.7-1.2,1.6-1.6,2.7
		s-0.6,2.3-0.6,3.7c0,0.4,0,1.1,0.2,2c0.2,0.8,0.5,1.5,0.8,2.2c0.5,0.9,1,1.5,1.7,2.1c0.6,0.5,1.5,1,2.6,1.4c1.2,0.4,2.5,0.6,4,0.6
		c4.1,0,7.2-1.3,9.3-4c0.4,1.4,1.1,2.4,2.1,3c1.1,0.7,2.5,1,4.4,1c0.8,0,1.8-0.2,3-0.4c0.9-0.2,1.8-0.5,2.7-0.8l-0.2-5.3
		c-0.8,0.3-1.4,0.4-1.9,0.4c-0.7,0-1.2-0.2-1.5-0.6C332.3,106,332.1,105.3,332.1,104.5z M323.3,104.5c-0.5,0.5-1.2,1-2.2,1.5
		c-1,0.4-1.9,0.6-3,0.6c-2.4,0-3.7-1.2-3.7-3.4c0-2.8,2.5-4.2,7.5-4.2h1.4V104.5z"/>
	<path class="st1" d="M386.7,80.3c-2.1,0-4,0.4-5.9,1c-1.9,0.8-3.5,1.8-4.8,3c-1.4,1.3-2.5,3-3.3,5.2c-0.8,2.1-1.2,4.5-1.2,7.3
		c0,1.7,0.1,3.4,0.4,4.9c0.3,1.5,0.9,3,1.6,4.4c0.8,1.4,1.7,2.6,2.9,3.6c1.1,1,2.6,1.8,4.3,2.4c1.8,0.6,3.8,0.9,6,0.9
		c3.7,0,6.7-0.8,9-2.6c2.3-1.7,3.7-4,4.3-7l-7.6-1.9c-0.3,1.5-0.9,2.6-1.6,3.3c-0.8,0.8-2,1.2-3.5,1.2c-2.1,0-3.6-0.6-4.6-1.7
		c-1.1-1.1-1.6-2.9-1.7-5.4h19c0.1-0.8,0.2-2.1,0.2-4.1c0-4.6-1.1-8.1-3.3-10.6C394.8,81.6,391.4,80.3,386.7,80.3z M389.7,88.4
		c0.7,1,1.1,2.6,1.1,4.7h-9.7c0-2.1,0.6-3.7,1.5-4.7c1-1,2.2-1.5,3.7-1.5S388.9,87.4,389.7,88.4z"/>
	<path class="st1" d="M405.6,81v31.3h9.1V89.9c0.6-0.6,1.4-1.1,2.4-1.6c1-0.4,2-0.6,2.9-0.6c1.3,0,2.2,0.3,2.7,1.1
		c0.6,0.8,0.8,1.9,0.8,3.4v20.1h9.1l-0.1-22.5c0.6-0.6,1.3-1.1,2.4-1.5c0.9-0.4,1.9-0.6,2.8-0.6c1.2,0,2.1,0.3,2.7,1.1
		c0.5,0.7,0.8,1.9,0.8,3.4v20.1h9.1V90.7c0-6.9-3.1-10.4-9.4-10.4c-2,0-3.9,0.4-5.5,1.1c-1.7,0.8-3.1,1.7-4.2,2.9c-1.3-2.7-4-4-8-4
		c-3.5,0-6.7,1.2-9.5,3.6l-0.4-2.9H405.6z"/>
	<path class="st1" d="M470.8,80.3c-2.2,0-4.1,0.4-6,1c-1.9,0.8-3.5,1.8-4.8,3c-1.4,1.3-2.5,3-3.3,5.2c-0.8,2.1-1.2,4.5-1.2,7.3
		c0,1.7,0.1,3.4,0.4,4.9c0.4,1.7,1,3.2,1.6,4.4c0.8,1.4,1.7,2.6,2.9,3.6c1.1,1,2.6,1.8,4.4,2.4c1.7,0.6,3.7,0.9,6,0.9
		c3.6,0,6.6-0.8,8.9-2.6c2.3-1.7,3.7-4,4.3-7l-7.6-1.9c-0.3,1.5-0.8,2.6-1.6,3.3c-0.8,0.8-2,1.2-3.5,1.2c-2,0-3.5-0.6-4.6-1.7
		c-1.1-1.1-1.6-2.9-1.7-5.4h19c0.2-0.8,0.2-2.1,0.2-4.1c0-4.5-1.1-8.1-3.2-10.6C478.8,81.6,475.4,80.3,470.8,80.3z M470.3,86.9
		c1.5,0,2.6,0.5,3.4,1.5c0.8,0.9,1.1,2.5,1.1,4.7h-9.7c0-2.1,0.5-3.7,1.5-4.7S468.8,86.9,470.3,86.9z"/>
	<path class="st1" d="M543.6,81h-8.3V70.6l-9,1.2V81h-4.7v6.6h4.7v15.2c0,3.5,0.8,6.1,2.5,7.8c1.7,1.6,4.2,2.4,7.5,2.4
		c1.7,0,3.6-0.2,5.3-0.7c1.7-0.4,2.9-1,3.8-1.5l-1.2-6.4c-0.6,0.3-1.4,0.6-2.4,1c-1,0.3-1.9,0.4-2.8,0.4c-1.3,0-2.3-0.3-2.9-1
		c-0.6-0.8-0.8-1.8-0.8-3.2v-14h8.3V81z"/>
	<path class="st1" d="M497.7,81h-8v31.3h9V90.1c0.7-0.6,1.6-1.1,2.7-1.7c1.2-0.5,2.3-0.7,3.4-0.7c1.5,0,2.5,0.4,3.2,1.1
		c0.6,0.8,1,2,1,3.7v19.8h9V90.9c0-3.6-0.8-6.2-2.3-8c-1.7-1.7-4.2-2.6-7.5-2.6c-3.9,0-7.2,1.3-10,3.8L497.7,81z"/>
	<path class="st1" d="M558.7,104.4h-9.4l-3.8,15.4l7.4,0.7L558.7,104.4z"/>
	<path class="st2" d="M43,130.8h-9.6l-9.9,34.4h-0.3l-9.9-34.4H2.9L17,174.3h12.5L43,130.8z"/>
	<path class="st2" d="M162.9,143h-9v22.2c-0.9,0.7-1.8,1.2-2.8,1.7c-1.1,0.5-2.1,0.7-3.2,0.7c-1.4,0-2.4-0.3-3-1.1
		c-0.7-0.7-0.9-2-0.9-3.7V143h-9.1v21.6c0,6.9,3.2,10.4,9.6,10.4c2,0,3.9-0.4,5.7-1.1c1.7-0.7,3.1-1.7,4.3-3l0.6,3.4h7.8V143z"/>
	<path class="st2" d="M129.9,149.6V143h-8.3v-10.4l-9,1.2v9.2h-4.7v6.6h4.7v15.2c0,3.5,0.8,6.1,2.5,7.8c1.7,1.7,4.2,2.4,7.4,2.4
		c1.9,0,3.7-0.2,5.4-0.7c1.7-0.4,3-1,3.8-1.5l-1.2-6.4c-0.6,0.4-1.4,0.6-2.4,1c-1,0.3-1.9,0.4-2.8,0.4c-1.3,0-2.3-0.3-2.9-1
		c-0.5-0.8-0.8-1.8-0.8-3.2v-14H129.9z"/>
	<path class="st2" d="M85,152.1c0.7-0.6,1.6-1.1,2.7-1.7c1.2-0.5,2.3-0.7,3.4-0.7c1.5,0,2.5,0.4,3.2,1.1c0.6,0.8,1,2,1,3.7v19.8h9
		v-21.4c0-3.6-0.8-6.2-2.3-8c-1.7-1.7-4.2-2.6-7.5-2.6c-3.9,0-7.2,1.3-10,3.8L84,143h-8.1v31.3H85V152.1z"/>
	<path class="st2" d="M70.5,156.8c0-4.5-1.1-8.1-3.2-10.6c-2.2-2.6-5.6-3.9-10.2-3.9c-2.2,0-4.1,0.4-6,1c-1.9,0.8-3.5,1.8-4.8,3
		c-1.4,1.3-2.5,3-3.3,5.2c-0.8,2.1-1.2,4.5-1.2,7.3c0,1.7,0.1,3.4,0.4,5c0.4,1.6,1,3.1,1.6,4.3c0.8,1.4,1.7,2.7,2.9,3.7
		c1.1,1,2.6,1.7,4.3,2.3c1.8,0.7,3.8,0.9,6.1,0.9c3.6,0,6.6-0.8,8.9-2.6c2.3-1.6,3.7-4,4.3-7l-7.6-1.9c-0.3,1.5-0.8,2.6-1.6,3.3
		c-0.8,0.8-2,1.2-3.5,1.2c-2,0-3.5-0.6-4.6-1.7c-1.1-1-1.6-2.9-1.7-5.4h19C70.4,159.7,70.5,158.4,70.5,156.8z M52.9,150.4
		c1-1,2.2-1.5,3.7-1.5s2.6,0.5,3.4,1.5c0.8,0.9,1.1,2.5,1.1,4.7h-9.7C51.4,153,51.9,151.4,52.9,150.4z"/>
	<path class="st2" d="M220.3,156.8c0-4.5-1.1-8.1-3.3-10.6c-2.2-2.6-5.6-3.9-10.2-3.9c-2.1,0-4.1,0.4-5.9,1c-1.9,0.8-3.5,1.8-4.9,3
		c-1.4,1.3-2.5,3-3.3,5.2c-0.8,2.1-1.2,4.5-1.2,7.3c0,1.7,0.2,3.4,0.5,5c0.3,1.5,0.8,2.9,1.6,4.3c0.7,1.4,1.7,2.7,2.8,3.7
		c1.2,1,2.6,1.7,4.4,2.3c1.8,0.7,3.8,0.9,6,0.9c3.7,0,6.7-0.8,8.9-2.6c2.3-1.6,3.8-4,4.3-7l-7.6-1.9c-0.3,1.5-0.8,2.6-1.6,3.3
		c-0.7,0.8-1.9,1.2-3.5,1.2c-2,0-3.5-0.6-4.6-1.7c-1-1-1.6-2.9-1.7-5.4h19C220.2,159.9,220.3,158.6,220.3,156.8z M206.3,148.9
		c1.5,0,2.7,0.5,3.4,1.5c0.8,1,1.2,2.6,1.2,4.7h-9.7c0-2.1,0.5-3.7,1.5-4.7C203.6,149.4,204.9,148.9,206.3,148.9z"/>
	<path class="st2" d="M189.5,151.3v-8.9c-0.7,0-1.2-0.1-1.6-0.1c-4,0-7.3,1.9-9.8,5.6l-0.7-4.9h-7.7v31.3h9v-20.2
		c1.3-1.1,3-1.9,4.9-2.4C185.5,151.2,187.5,151.1,189.5,151.3z"/>
	<path class="st1" d="M351.5,128c-1.7,0-3.1,0.4-4,1.4c-1,0.9-1.4,2.3-1.4,4c0,1.8,0.5,3.1,1.4,4.1c1,0.9,2.3,1.4,4,1.4
		c1.8,0,3.1-0.5,4-1.4c1-1,1.5-2.4,1.5-4.1c0-1.7-0.5-3.1-1.5-4C354.6,128.4,353.3,128,351.5,128z"/>
	<path class="st1" d="M373.6,149.6h8.3V143h-8.3v-10.4l-9.1,1.2v9.2h-4.7v6.6h4.7v15.2c0,3.6,0.9,6.1,2.5,7.8
		c1.7,1.7,4.2,2.4,7.5,2.4c1.8,0,3.6-0.2,5.3-0.7c1.8-0.4,3.1-1,3.8-1.5l-1.2-6.4c-0.6,0.4-1.4,0.6-2.4,1c-1,0.3-1.9,0.4-2.8,0.4
		c-1.3,0-2.3-0.3-2.8-1c-0.6-0.7-0.8-1.8-0.8-3.2V149.6z"/>
	<path class="st1" d="M412.6,153.4c0-3.9-1.1-6.7-3.1-8.4c-2.1-1.8-5.2-2.7-9.5-2.7c-4.1,0-7.2,0.8-9.3,2.4c-2.1,1.6-3.4,4-3.9,7
		l7.7,1.5c0.4-1.6,0.9-2.7,1.6-3.3c0.6-0.7,1.7-1,3.1-1c2.1,0,3.3,0.5,3.7,1.6c0.5,1,0.8,2.4,0.8,4.1v1.1l-3.5,0.1
		c-1.6,0.2-2.7,0.3-3.5,0.4c-1.4,0.3-2.5,0.5-3.4,0.8c-1,0.3-2,0.8-3,1.3c-0.9,0.6-1.8,1.2-2.4,2c-0.6,0.7-1.1,1.6-1.6,2.7
		c-0.3,1-0.5,2.3-0.5,3.7c0,0.7,0,1.4,0.2,2.1c0.1,0.5,0.3,1.2,0.8,2.1c0.4,0.8,0.9,1.5,1.6,2.1c0.7,0.5,1.6,1,2.7,1.4
		c1.1,0.4,2.5,0.6,3.9,0.6c4.2,0,7.3-1.3,9.4-4c0.3,1.4,1,2.4,2,3c1.1,0.7,2.6,1,4.4,1c0.8,0,1.8-0.2,3-0.4c0.8-0.2,1.7-0.5,2.7-0.8
		l-0.2-5.3c-0.8,0.3-1.4,0.4-1.9,0.4c-0.7,0-1.2-0.2-1.4-0.6c-0.3-0.3-0.4-0.9-0.4-1.8V153.4z M402.3,161h1.4v5.5
		c-0.4,0.5-1.2,1-2.2,1.5c-1,0.4-1.9,0.6-3,0.6c-2.4,0-3.6-1.2-3.6-3.4C394.9,162.4,397.4,161,402.3,161z"/>
	<path class="st1" d="M429.8,129h-9v45.3h9V129z"/>
	<path class="st1" d="M472.5,153.4c0-3.9-1-6.7-3.1-8.4c-2.1-1.8-5.3-2.7-9.4-2.7s-7.2,0.8-9.3,2.4c-2.1,1.6-3.4,4-4,7l7.8,1.5
		c0.3-1.6,0.9-2.7,1.5-3.3c0.7-0.7,1.7-1,3.2-1c2,0,3.2,0.5,3.7,1.6c0.5,1,0.7,2.4,0.7,4.1v1.1l-3.5,0.1c-1.6,0.2-2.8,0.3-3.5,0.4
		c-1.3,0.2-2.4,0.5-3.4,0.8c-0.9,0.3-1.9,0.7-3,1.3c-0.9,0.6-1.7,1.2-2.4,2c-0.6,0.7-1.1,1.6-1.5,2.7c-0.4,1.1-0.6,2.3-0.6,3.7
		c0,0.4,0,1.1,0.2,2.1c0.1,0.6,0.4,1.3,0.8,2.1c0.4,0.8,1,1.5,1.6,2.1c0.7,0.5,1.6,1,2.7,1.4c1.2,0.4,2.5,0.6,4,0.6
		c4.1,0,7.2-1.3,9.3-4c0.3,1.4,1,2.4,2.1,3c1.1,0.7,2.5,1,4.3,1c0.8,0,1.8-0.2,3.1-0.4c0.8-0.2,1.7-0.5,2.7-0.8l-0.3-5.3
		c-0.8,0.3-1.4,0.4-1.8,0.4c-0.8,0-1.3-0.2-1.5-0.6c-0.3-0.3-0.4-0.9-0.4-1.8V153.4z M463.7,161v5.5c-0.5,0.5-1.2,1-2.3,1.5
		c-0.9,0.4-1.9,0.6-2.9,0.6c-2.5,0-3.7-1.2-3.7-3.4c0-2.8,2.5-4.2,7.4-4.2H463.7z"/>
	<path class="st1" d="M746.1,151.8c-0.5-1.8-1.4-3.5-2.6-5c-1.1-1.4-2.7-2.5-4.7-3.3c-1.9-0.8-4.2-1.2-6.9-1.2
		c-5.4,0-9.4,1.5-12,4.4c-2.7,2.9-4.1,7-4.1,12.1c0,2.5,0.3,4.6,0.8,6.5c0.6,1.9,1.4,3.5,2.6,5.1c1.1,1.5,2.7,2.6,4.7,3.4
		s4.4,1.2,7.1,1.2c5.5,0,9.5-1.5,12.1-4.5c2.6-2.9,3.9-7,3.9-12.4C747,155.8,746.7,153.7,746.1,151.8z M737.5,158.4
		c0,3.6-0.5,6.1-1.5,7.6c-0.9,1.5-2.4,2.3-4.5,2.3c-2.2,0-3.8-0.8-4.8-2.3c-0.9-1.5-1.4-4-1.4-7.5c0-3.2,0.5-5.6,1.6-7.1
		c1-1.4,2.6-2.2,4.7-2.2c2.1,0,3.6,0.7,4.5,2.1C737.1,152.6,737.5,155,737.5,158.4z"/>
	<path class="st1" d="M712.1,149.6V143h-8.3v-10.4l-9.1,1.2v9.2h-4.6v6.6h4.6v15.2c0,3.5,0.9,6.1,2.5,7.8c1.7,1.7,4.2,2.4,7.5,2.4
		c1.8,0,3.6-0.2,5.4-0.7c1.7-0.4,2.9-1,3.8-1.5l-1.3-6.4c-0.5,0.4-1.3,0.6-2.4,1c-0.9,0.3-1.8,0.4-2.7,0.4c-1.4,0-2.4-0.3-2.9-1
		c-0.5-0.8-0.8-1.8-0.8-3.2v-14H712.1z"/>
	<path class="st1" d="M581.2,130.1c-3.4,0-6.4,0.5-9,1.6c-2.7,1.1-4.9,2.7-6.7,4.7c-1.6,2-3,4.4-4,7.2c-0.8,2.9-1.3,6-1.3,9.4
		c0,14.7,6.7,22,20.1,22c1.6,0,3.1-0.1,4.7-0.4c1.5-0.3,3-0.8,4.5-1.6c1.4-0.7,2.8-1.5,4-2.6c1.2-1,2.2-2.4,3-4
		c0.8-1.7,1.4-3.5,1.6-5.4l-8.3-1.4c-0.6,2.5-1.6,4.4-2.9,5.8c-1.5,1.4-3.6,2-6.5,2c-3.5,0-6.2-1.2-8-3.6c-1.8-2.3-2.7-6.1-2.7-11.2
		c0-5.1,1-8.8,3-11.3c1.9-2.4,4.7-3.6,8.3-3.6c2.8,0,4.9,0.7,6.3,2c1.4,1.5,2.2,3.7,2.5,6.7l8.4-0.7c-0.2-5.3-1.8-9.2-4.9-11.8
		C590.3,131.4,586.2,130.1,581.2,130.1z"/>
	<path class="st1" d="M488.6,143h-8.1v31.3h9.1v-22.2c0.6-0.6,1.6-1.2,2.7-1.7c1.1-0.5,2.3-0.7,3.4-0.7c1.4,0,2.5,0.4,3.1,1.1
		c0.7,0.7,1,1.9,1,3.7v19.8h9.1v-21.4c0-3.6-0.8-6.2-2.4-8c-1.6-1.7-4.1-2.6-7.5-2.6c-3.8,0-7.1,1.3-9.9,3.8L488.6,143z"/>
	<path class="st1" d="M796.1,249.6v-16.3h40.3v-25h-71.8v105H840v-25.5h-43.9v-14.2h38.3v-24H796.1z"/>
	<path class="st1" d="M942,208.3h-28.1v62.6l-29.2-62.6h-35.9v105h28.4v-61.5l29.6,61.5H942V208.3z"/>
	<path class="st2" d="M407.2,208.3h-38.1l-33.7,105h32.8l5.8-20.5h29.8l6.9,20.5H445L407.2,208.3z M387.6,237.3h0.8l9.3,31.9h-19.3
		L387.6,237.3z"/>
	<path class="st2" d="M333.2,313.3v-105h-28.1v62.6l-29.2-62.6h-36v105h28.4v-61.5l29.7,61.5H333.2z"/>
	<path class="st2" d="M51.9,208.3H5.4v105H34v-75h1.2l16.4,75h26.3l17.9-74.7h1v74.7h29.1v-105H79.7l-13.2,65.1h-1.2L51.9,208.3z"/>
	<path class="st2" d="M128.2,313.3H161l5.8-20.5h29.7l7,20.5h34.2l-37.7-105h-38.2L128.2,313.3z M180.3,237.3h0.9l9.2,31.9h-19.3
		L180.3,237.3z"/>
	<path class="st2" d="M65.8,81h-9.1v22.2c-0.8,0.7-1.8,1.2-2.7,1.7c-1.1,0.5-2.2,0.7-3.2,0.7c-1.5,0-2.5-0.4-3.1-1.1
		c-0.6-0.8-0.9-2-0.9-3.7V81h-9v21.6c0,6.9,3.2,10.4,9.5,10.4c2.1,0,4-0.4,5.7-1.1c1.7-0.7,3.2-1.7,4.3-3l0.7,3.4h7.8V81z"/>
	<path class="st2" d="M34.9,76.6v-7.8H7.5v43.5h9.3V95.2h16.6v-7.6H16.8v-11H34.9z"/>
	<path class="st1" d="M29.4,6.8H17.9L3.7,50.3h9.5l3.4-10.6H31l3.6,10.6h10.2L29.4,6.8z M23.7,15.5l5.4,16.9h-11l5.4-16.9H23.7z"/>
	<path class="st1" d="M544.1,129h-8.7v16c-1.9-1.8-4.5-2.7-7.9-2.7c-1.4,0-2.7,0.2-4,0.6c-1.2,0.4-2.3,1-3.5,1.8
		c-1.1,0.9-2.1,1.9-3,3.2c-0.8,1.3-1.5,2.9-2,4.8c-0.5,2-0.7,4.2-0.7,6.6c0,5.4,1.1,9.3,3.2,11.9c2.2,2.6,5.2,3.8,9,3.8
		c3.9,0,7-1.2,9.3-3.8l0.2,0.1l0.5,3h7.6V129z M530,149.6c1.9,0,3.5,0.6,5,1.7v14.3c-1.6,1.5-3.5,2.3-5.3,2.3c-4,0-6-3-6-8.9
		c0-3,0.5-5.3,1.6-6.9C526.2,150.4,527.8,149.6,530,149.6z"/>
	<path class="st1" d="M367.2,77.5c-2.2,0-4.2,1.6-5.7,4.8c-1.9-1.3-4.6-2-8.3-2c-4.4,0-7.8,1.1-10.2,3.3c-2.5,2.1-3.7,4.9-3.7,8.3
		c0,2,0.4,3.6,1.2,5.1s1.9,2.6,3.3,3.4c-1.5,1.1-2.8,2.2-3.7,3.3c-0.7,1.1-1.1,2.3-1.1,3.7c0,2.6,1.5,4.3,4.5,5.2v0.3
		c-1.7,0.3-3.1,0.9-4.1,2c-1,1-1.5,2.2-1.5,3.6c0,1.2,0.2,2.1,0.7,3c0.6,0.8,1.4,1.6,2.5,2.2c1.2,0.7,2.7,1.2,4.7,1.6
		c1.9,0.3,4.3,0.5,7.1,0.5c2.4,0,4.5-0.2,6.5-0.6c1.9-0.4,3.7-1,5.1-1.8c1.5-0.9,2.7-2,3.5-3.4c0.9-1.4,1.3-3,1.3-4.8
		c0-3.1-0.9-5.3-2.7-6.7c-1.7-1.3-4.4-2.1-7.8-2.3l-8.9-0.6c-1,0-1.7-0.2-2.2-0.5c-0.4-0.2-0.6-0.6-0.6-1.1c0-0.6,0.3-1.2,1.1-1.9
		c1.5,0.4,3.3,0.6,5.2,0.6c4.1,0,7.4-1,9.9-3c2.6-2,3.8-4.7,3.8-8.2c0-2.8-0.8-5.1-2.5-7c1.6-0.5,3.4-0.6,5.1-0.5v-5.9
		C368.7,77.7,367.9,77.5,367.2,77.5z M358.9,91.4c0,1.5-0.5,2.7-1.5,3.6c-1,0.8-2.3,1.3-4,1.3c-3.7,0-5.6-1.6-5.6-4.9
		c0-1.5,0.5-2.7,1.6-3.5c1-0.8,2.4-1.2,4.1-1.2C357.1,86.7,358.9,88.3,358.9,91.4z M356.6,114.3c1.5,0.1,2.5,0.4,3,0.8
		c0.6,0.4,0.8,1,0.8,1.7c0,0.8-0.3,1.5-0.9,2s-1.3,0.8-2.3,0.9c-1,0.2-2.2,0.3-3.5,0.3c-5.1,0-7.7-1.1-7.7-3.2c0-1.2,0.7-2.2,1.9-3
		L356.6,114.3z"/>
	<path class="st1" d="M221.6,78.2h0.3v34.1h8.6V68.8h-13.7l-9.1,31.8h-0.3l-9.1-31.8h-13.8v43.5h8.4V78.1h0.3l9.8,34.2h8.4
		L221.6,78.2z"/>
	<path class="st1" d="M622.9,151.3v-8.9c-0.8,0-1.3-0.1-1.6-0.1c-4,0-7.3,1.9-9.9,5.6l-0.6-4.9H603v31.3h9v-20.2
		c1.4-1.1,3-1.9,5-2.4C618.9,151.2,620.8,151.1,622.9,151.3z"/>
	<path class="st1" d="M977.1,313.3l31.5-17.7v-62.3h29.6v-25h-91.3v25h30.2V313.3z"/>
	<path class="st3" d="M1008.6,295.6l-31.5,17.7h31.5V295.6z"/>
	<path class="st1" d="M722.6,238.6h1.1v64.5l29.1,10.2v-105h-46.3l-13.1,65.1h-1.2l-13.5-65.1h-46.4v63l28.6,9.9v-42.9h1.1
		l10.3,46.9l36.2,12.6L722.6,238.6z"/>
	<path class="st2" d="M672.3,285.2l6.1,28.1h26.4l3.7-15.5L672.3,285.2z"/>
	<path class="st2" d="M723.7,303.1v10.2h29.1L723.7,303.1z"/>
	<path class="st2" d="M660.9,313.3v-32.1l-28.6-9.9v42H660.9z"/>
	<path class="st1" d="M469.1,210.7c-1.6,0.6-3,1.3-4.5,2.1l71.1,24.8c-0.7-4-1.8-7.6-3.4-10.8c-2.3-5-5.5-8.9-9.5-11.9
		c-4-2.9-8.5-5-13.4-6.4c-5.1-1.4-10.7-2.1-16.8-2.1C483.9,206.4,476,207.8,469.1,210.7z"/>
	<path class="st2" d="M464.6,212.8c-4.8,2.6-8.8,5.8-12.1,9.8c-4.2,5-7.4,10.9-9.5,17.8c-2.1,6.7-3.2,14.2-3.2,22.4
		c0,7.7,0.9,14.7,2.6,21c1.7,6.3,4.3,11.8,7.7,16.4c3.5,4.7,8.1,8.4,13.9,11c5.7,2.6,12.4,3.9,20.1,3.9c6,0,11.7-1.1,17-3.4
		c5.2-2.1,9-5.4,11.5-10l3,11.6h22.7v-55h-41.8v20.4h10.3v0.8c0,7.9-5,11.8-14.9,11.8c-2.4,0-4.6-0.3-6.5-0.9
		c-1.9-0.5-3.5-1.2-4.9-2.1c-1.4-1-2.5-2.2-3.5-3.7c-0.9-1.5-1.7-3-2.3-4.6c-0.5-1.7-1-3.6-1.3-5.9c-0.4-2.1-0.6-4.3-0.7-6.6
		c-0.1-2.1-0.1-4.6-0.1-7.5c0-9.5,1.5-16.8,4.5-21.8c3-4.9,8.1-7.4,15.1-7.4c2.7,0,5,0.4,6.8,1.2c2,0.9,3.5,1.8,4.4,2.8
		c1,1,1.8,2.4,2.4,4.1c0.7,1.7,1.1,3.2,1.2,4.2c0.2,0.7,0.3,2.1,0.4,4.1l29.1-2.8c-0.1-2.3-0.4-4.7-0.8-6.8L464.6,212.8z"/>
	<path class="st1" d="M340.3,150.7c-0.6-2.1-1.5-3.7-2.6-4.9c-1-1.2-2.3-2.1-3.7-2.6c-1.4-0.6-2.9-0.9-4.6-0.9c-1.8,0-3.5,0.4-5.3,1
		c-1.7,0.7-3.2,1.7-4.5,2.9l-0.5-3.2h-7.7v16.4l8.9,3.1V152c1-0.8,1.9-1.3,2.8-1.7c1-0.5,2-0.7,3.1-0.7c1.8,0,3.2,0.6,4.1,2
		c0.9,1.3,1.4,3.5,1.4,6.6c0,3.2-0.5,5.6-1.4,7.1c-0.1,0.2-0.2,0.4-0.3,0.5l8.8,3.1l-0.1,0.4c0-0.1,0.1-0.2,0.2-0.4
		c0.7-1.1,1.2-2.6,1.6-4.4c0.5-2.1,0.7-4.3,0.7-6.5C341.2,155.2,340.9,152.7,340.3,150.7z"/>
	<path class="st2" d="M338.7,169.3l0.1-0.4l-8.8-3.1c-1,1.3-2.4,2-4.2,2c-1.1,0-2.1-0.3-3.1-0.7c-1.1-0.6-1.9-1-2.4-1.5v-3.1
		l-8.9-3.1V186h8.8v-14c2.2,2,5,3,8.2,3c1.5,0,2.8-0.2,4-0.6c1.2-0.3,2.3-0.9,3.5-1.8C337,171.6,338,170.5,338.7,169.3z"/>
	<path class="st2" d="M347,171.8v2.5h7.2L347,171.8z"/>
	<path class="st1" d="M354.2,174.3h1.8V143h-9v28.8L354.2,174.3z"/>
	<path class="st2" d="M548,241.9v71.4h75.5v-25.5h-44v-14.2h38.4v-7.4L548,241.9z"/>
	<path class="st1" d="M617.9,266.2v-16.6h-38.4v-16.3h40.4v-25H548v33.6L617.9,266.2z"/>
	<path class="st1" d="M167.9,102.5c0-0.8-0.1-1.5-0.2-2.2c-0.1-0.6-0.3-1.2-0.6-1.9c-0.3-0.5-0.6-1-0.9-1.4l-1.2-1.2
		c-0.3-0.3-0.8-0.6-1.4-0.8l-1.5-0.7c-0.6-0.2-1.2-0.4-1.7-0.5l-7.4-1.7c-0.6-0.2-1.1-0.4-1.4-0.6c-0.4-0.3-0.6-0.6-0.8-0.9
		c-0.2-0.4-0.3-0.8-0.3-1.2c0-0.9,0.3-1.7,1.1-2.2c0.6-0.6,1.6-0.8,3.1-0.8c1.6,0,2.8,0.4,3.6,1.1c0.8,0.8,1.4,2,1.8,3.4l7.2-2.1
		c-1.5-5.7-5.7-8.5-12.4-8.5c-2.3,0-4.5,0.4-6.5,1.1c-1.9,0.8-3.5,1.9-4.7,3.5c-1.2,1.5-1.8,3.4-1.8,5.6c0,3.7,1.7,6.3,4.9,8
		c1.2,0.5,3.3,1.1,6.3,1.7l3.7,0.9c0.6,0.3,1,0.5,1.3,0.7c0.3,0.2,0.5,0.5,0.7,0.9c0.2,0.3,0.3,0.8,0.3,1.2c0,0.9-0.2,1.6-0.8,2.1
		l7.6,2.6C167.2,107,167.9,104.9,167.9,102.5z"/>
	<path class="st2" d="M148.2,102.5l-0.3-0.2l-7.1,2.4c0.6,2.7,1.9,4.7,4.1,6.2c2.3,1.4,5.3,2.1,9.2,2.1c4.1,0,7.4-0.9,9.9-2.7
		c0.8-0.5,1.4-1,1.9-1.7l-7.6-2.6c-0.7,0.7-2.1,1-3.9,1c-1,0-1.9-0.1-2.7-0.4c-0.8-0.3-1.4-0.7-1.8-1.1c-0.5-0.6-0.8-1-1-1.5
		C148.6,103.5,148.4,103,148.2,102.5z"/>
	<path class="st4" d="M147.9,102.3l0.3,0.2c0-0.1,0-0.2,0-0.3L147.9,102.3z"/>
	<path class="st1" d="M255.9,130.1c-3.3,0-6.3,0.5-8.9,1.6c-2,0.9-3.8,2-5.3,3.4l9.7,3.3c1.3-0.5,2.7-0.7,4.4-0.7
		c2.8,0,4.9,0.7,6.3,2c0.7,0.8,1.3,1.8,1.7,3.1c0.4,1,0.6,2.2,0.8,3.6l8.4-0.7c-0.2-5.3-1.9-9.2-4.9-11.8
		C265.1,131.4,261,130.1,255.9,130.1z"/>
	<path class="st2" d="M247.4,141.3c1.1-1.3,2.4-2.3,4-2.9l-9.7-3.3c-0.5,0.4-0.9,0.8-1.3,1.3c-1.8,2.1-3.2,4.5-4,7.2
		c-1,2.8-1.4,6-1.4,9.4c0,14.7,6.7,22,20,22c1.7,0,3.2-0.1,4.7-0.4c1.6-0.3,3.1-0.8,4.6-1.6c1.5-0.7,2.9-1.6,3.9-2.6
		c1.2-1,2.2-2.4,3-4c0.9-1.5,1.4-3.3,1.7-5.4l-8.3-1.4c-0.6,2.5-1.6,4.4-2.9,5.8c-1.5,1.4-3.7,2-6.6,2c-3.4,0-6.1-1.2-7.9-3.6
		c-1.8-2.3-2.7-6.1-2.7-11.2C244.5,147.5,245.5,143.8,247.4,141.3z"/>
	<path class="st2" d="M80.6,81h-8.1v31.3h9.1V90.1c0.6-0.6,1.6-1.2,2.7-1.7c1.1-0.5,2.3-0.7,3.4-0.7c1.4,0,2.5,0.4,3.1,1.1
		c0.7,0.7,1,1.9,1,3.7v19.8h9.1V90.9c0-2-0.3-3.8-0.8-5.2L86.6,81c-2,0.6-3.9,1.6-5.5,3.1L80.6,81z"/>
	<path class="st4" d="M91,80.3c-1.5,0-3,0.2-4.4,0.7l13.5,4.7c-0.4-1.1-0.9-2-1.6-2.8C96.9,81.2,94.4,80.3,91,80.3z"/>
	<path class="st1" d="M136.1,67h-8.7v16c-1.9-1.8-4.5-2.7-7.9-2.7c-1.4,0-2.7,0.2-3.9,0.6c-1.2,0.4-2.4,1-3.6,1.8
		c-1.1,0.9-2.1,2-2.9,3.2c-0.5,0.7-0.9,1.5-1.3,2.5l8.8,3c0.2-0.5,0.4-0.9,0.7-1.3c0.9-1.7,2.5-2.5,4.8-2.5c1.8,0,3.5,0.6,5,1.7v5.8
		l9,3.1V67z"/>
	<path class="st2" d="M107.8,88.4c-0.2,0.7-0.5,1.5-0.7,2.3c-0.6,1.9-0.8,4.1-0.8,6.6c0,5.4,1.1,9.3,3.3,11.9c2.2,2.5,5.2,3.8,9,3.8
		c3.8,0,6.9-1.3,9.2-3.8h0.2l0.6,3.1h7.5V98.2l-9-3.1v8.5c-1.7,1.5-3.5,2.3-5.3,2.3c-4,0-6-3-6-8.9c0-2.2,0.3-4.1,0.8-5.6
		L107.8,88.4z"/>
	<path class="st1" d="M286.8,149.9c0.6-0.7,1.7-1,3.1-1c2.1,0,3.3,0.5,3.7,1.6c0.4,0.8,0.6,1.8,0.7,2.9l9,3.1v-3.1
		c0-3.9-1.1-6.7-3.1-8.4c-2.1-1.8-5.2-2.7-9.5-2.7c-4.1,0-7.2,0.8-9.3,2.4c-1.1,0.9-2.1,2-2.7,3.3c-0.5,1.1-0.9,2.3-1.2,3.7l7.7,1.5
		c0.3-1.1,0.6-2,1-2.6C286.3,150.3,286.6,150.1,286.8,149.9z"/>
	<path class="st2" d="M290.8,155.8c-1.6,0.2-2.7,0.3-3.5,0.4c-1.3,0.2-2.4,0.5-3.3,0.8c-1,0.3-2,0.8-3,1.3c-0.9,0.6-1.8,1.2-2.4,2
		c-0.6,0.7-1.1,1.6-1.6,2.7c-0.4,1.1-0.6,2.3-0.6,3.7c0,0.6,0.1,1.3,0.3,2.1c0.1,0.5,0.3,1.2,0.8,2.1c0.3,0.8,0.9,1.5,1.6,2.1
		c0.7,0.5,1.6,1,2.7,1.4c1.1,0.4,2.5,0.6,3.9,0.6c4.1,0,7.3-1.3,9.3-4c0.3,1.4,1.1,2.4,2.1,3c1.1,0.7,2.6,1,4.4,1
		c0.8,0,1.8-0.2,3-0.4c0.8-0.2,1.8-0.5,2.7-0.8l-0.2-5.3c-0.8,0.3-1.4,0.4-1.9,0.4c-0.8,0-1.3-0.2-1.5-0.6c-0.3-0.3-0.3-0.9-0.3-1.8
		v-10l-9-3.1c0,0.4,0,0.8,0,1.2v1.1L290.8,155.8z M294.4,161v5.5c-0.4,0.5-1.2,1-2.2,1.5c-1,0.4-1.9,0.6-3,0.6
		c-2.4,0-3.6-1.2-3.6-3.4c0-2.8,2.4-4.2,7.4-4.2H294.4z"/>
	<path class="st1" d="M680.9,143.2c-1.4-0.6-3-0.9-4.6-0.9c-1.8,0-3.5,0.4-5.3,1c-1.8,0.7-3.3,1.7-4.5,2.9l-0.6-3.2h-7.6v44h8.7v-15
		c2.4,2,5.1,3,8.3,3c1.4,0,2.7-0.2,4-0.6c1.1-0.3,2.3-0.9,3.5-1.8c1-0.8,2-2,2.8-3.3c0.7-1.2,1.3-2.9,1.8-4.8
		c0.4-1.9,0.6-4.1,0.6-6.5c0-2.8-0.3-5.3-0.9-7.3c-0.6-2.2-1.4-3.8-2.5-4.9C683.5,144.6,682.3,143.7,680.9,143.2z M673,149.6
		c1.9,0,3.3,0.6,4.2,2c0.9,1.3,1.3,3.5,1.3,6.6c0,3.1-0.4,5.6-1.3,7.1c-1,1.6-2.5,2.5-4.5,2.5c-1.1,0-2.1-0.3-3.1-0.7
		c-1.1-0.6-1.9-1-2.4-1.5V152c0.8-0.7,1.7-1.3,2.8-1.7C670.9,149.8,672,149.6,673,149.6z"/>
	<path class="st1" d="M629.4,180.8c-1,0-2.6-0.4-4.7-1l-0.7,6.5c0.7,0.4,1.7,0.7,3.1,1c1.4,0.2,2.7,0.4,3.7,0.4
		c2.6,0,4.7-0.6,6.3-1.7c0.4-0.2,0.7-0.4,0.9-0.7c1.7-1.5,3.3-4.1,4.6-8c2-5.4,6.1-16.8,12.4-34.3h-9.3l-6.3,21.8h-0.1l-6.6-21.8
		h-9.8l11.9,32l-0.9,2.4c-0.5,1.2-1.1,2.1-1.8,2.6C631.3,180.5,630.5,180.8,629.4,180.8z"/>
</g>
</svg>
